M48
; DRILL file {KiCad 7.0.11+dfsg-1build4} date Fri 10 Oct 2025 09:11:18 PM CDT
; FORMAT={-:-/ absolute / metric / decimal}
; #@! TF.CreationDate,2025-10-10T21:11:18-05:00
; #@! TF.GenerationSoftware,Kicad,Pcbnew,7.0.11+dfsg-1build4
; #@! TF.FileFunction,MixedPlating,1,2
FMAT,2
METRIC
; #@! TA.AperFunction,Plated,PTH,ComponentDrill
T1C0.800
; #@! TA.AperFunction,Plated,PTH,ComponentDrill
T2C1.020
; #@! TA.AperFunction,Plated,PTH,ComponentDrill
T3C1.100
; #@! TA.AperFunction,Plated,PTH,ComponentDrill
T4C1.200
; #@! TA.AperFunction,Plated,PTH,ComponentDrill
T5C1.400
; #@! TA.AperFunction,Plated,PTH,ComponentDrill
T6C1.520
; #@! TA.AperFunction,Plated,PTH,ComponentDrill
T7C2.200
; #@! TA.AperFunction,NonPlated,NPTH,ComponentDrill
T8C1.500
; #@! TA.AperFunction,NonPlated,NPTH,ComponentDrill
T9C1.800
%
G90
G05
T1
X119.63Y-46.0
X119.63Y-53.62
X119.99Y-28.43
X119.99Y-36.05
X120.52Y-61.37
X120.66Y-67.44
X122.52Y-61.37
X122.66Y-67.44
X125.95Y-29.62
X125.95Y-39.78
X129.48Y-34.65
X129.48Y-37.19
X129.48Y-39.73
X129.49Y-26.44
X134.17Y-37.62
X137.11Y-26.44
X138.91Y-42.68
X138.91Y-50.3
X139.0Y-68.4
X139.0Y-73.4
X142.13Y-68.4
X142.13Y-73.4
X142.65Y-28.84
X144.33Y-37.62
X145.19Y-28.84
X145.31Y-68.38
X145.31Y-76.0
X146.97Y-34.64
X146.97Y-42.26
X147.73Y-28.84
X151.43Y-37.25
X151.43Y-39.79
X151.43Y-42.33
X155.24Y-38.59
X155.24Y-46.21
X156.65Y-28.41
X158.44Y-44.37
X158.63Y-31.26
X158.63Y-41.42
X163.44Y-44.37
X163.84Y-32.82
X163.84Y-37.82
X164.27Y-28.41
X164.83Y-47.93
X165.82Y-44.31
X166.75Y-26.56
X167.13Y-29.94
X167.13Y-37.56
X169.67Y-29.94
X169.67Y-37.56
X169.83Y-47.93
X172.21Y-29.94
X172.21Y-37.56
X174.15Y-47.71
X174.29Y-55.16
X174.37Y-26.56
X174.75Y-29.94
X174.75Y-37.56
X175.98Y-44.31
X176.63Y-25.22
X178.39Y-28.17
X178.39Y-35.79
X178.6Y-38.27
X178.6Y-43.27
X181.71Y-40.54
X181.77Y-47.71
X181.8Y-30.17
X181.8Y-37.79
X181.91Y-55.16
X184.16Y-43.37
X184.16Y-50.99
X184.25Y-25.22
X184.94Y-30.17
X184.94Y-37.79
X186.71Y-40.54
T2
X97.1Y-28.39
X97.1Y-30.93
X97.1Y-33.47
X97.1Y-36.01
X97.1Y-38.55
X97.1Y-41.09
X97.1Y-43.63
X97.1Y-46.17
X97.1Y-48.71
X97.1Y-51.25
X97.1Y-53.79
X97.1Y-56.33
X97.1Y-58.87
X97.1Y-61.41
X97.1Y-63.95
X97.1Y-66.49
X97.1Y-69.03
X97.1Y-71.57
X97.1Y-74.11
X97.1Y-76.65
X103.45Y-76.42
X105.99Y-76.42
X108.53Y-76.42
X114.88Y-28.39
X114.88Y-30.93
X114.88Y-33.47
X114.88Y-36.01
X114.88Y-38.55
X114.88Y-41.09
X114.88Y-43.63
X114.88Y-46.17
X114.88Y-48.71
X114.88Y-51.25
X114.88Y-53.79
X114.88Y-56.33
X114.88Y-58.87
X114.88Y-61.41
X114.88Y-63.95
X114.88Y-66.49
X114.88Y-69.03
X114.88Y-71.57
X114.88Y-74.11
X114.88Y-76.65
T3
X122.83Y-44.16
X122.83Y-56.86
X128.17Y-58.7
X128.17Y-61.24
X128.17Y-63.78
X143.63Y-49.87
X146.17Y-49.87
X148.71Y-49.87
X149.16Y-68.58
X149.16Y-76.2
X153.29Y-68.41
X153.29Y-76.03
X157.25Y-68.47
X157.25Y-76.09
T4
X145.95Y-57.25
X145.95Y-62.25
T5
X133.94Y-49.01
X133.94Y-64.25
X157.75Y-49.47
X157.75Y-64.71
T6
X121.0Y-74.82
X126.08Y-74.82
T7
X133.25Y-68.5
X133.31Y-74.81
T8
X103.565Y-31.55
X108.415Y-31.55
T9
X103.265Y-28.52
X108.715Y-28.52
M30
