M48
; DRILL file {KiCad 7.0.11+dfsg-1build4} date Tue 14 Oct 2025 04:41:46 PM CDT
; FORMAT={-:-/ absolute / metric / decimal}
; #@! TF.CreationDate,2025-10-14T16:41:46-05:00
; #@! TF.GenerationSoftware,Kicad,Pcbnew,7.0.11+dfsg-1build4
; #@! TF.FileFunction,MixedPlating,1,2
FMAT,2
METRIC
; #@! TA.AperFunction,Plated,PTH,ComponentDrill
T1C0.800
; #@! TA.AperFunction,Plated,PTH,ComponentDrill
T2C1.000
; #@! TA.AperFunction,Plated,PTH,ComponentDrill
T3C1.020
; #@! TA.AperFunction,Plated,PTH,ComponentDrill
T4C1.100
; #@! TA.AperFunction,Plated,PTH,ComponentDrill
T5C1.200
; #@! TA.AperFunction,Plated,PTH,ComponentDrill
T6C1.400
; #@! TA.AperFunction,Plated,PTH,ComponentDrill
T7C1.520
; #@! TA.AperFunction,NonPlated,NPTH,ComponentDrill
T8C1.500
; #@! TA.AperFunction,NonPlated,NPTH,ComponentDrill
T9C1.800
%
G90
G05
T1
X28.63Y-25.0
X28.63Y-32.62
X28.99Y-7.43
X28.99Y-15.05
X29.52Y-40.37
X29.66Y-46.44
X31.52Y-40.37
X31.66Y-46.44
X34.95Y-8.62
X34.95Y-18.78
X38.48Y-13.65
X38.48Y-16.19
X38.48Y-18.73
X38.49Y-5.44
X43.17Y-16.62
X46.11Y-5.44
X48.33Y-21.65
X48.33Y-29.27
X51.65Y-7.84
X53.33Y-16.62
X54.19Y-7.84
X55.97Y-13.64
X55.97Y-21.26
X56.73Y-7.84
X58.14Y-48.15
X58.14Y-53.15
X60.43Y-16.25
X60.43Y-18.79
X60.43Y-21.33
X61.27Y-48.15
X61.27Y-53.15
X64.24Y-17.59
X64.24Y-25.21
X64.45Y-48.13
X64.45Y-55.75
X65.65Y-7.41
X67.44Y-23.37
X67.63Y-10.26
X67.63Y-20.42
X72.44Y-23.37
X72.84Y-11.82
X72.84Y-16.82
X73.27Y-7.41
X73.83Y-26.93
X74.82Y-23.31
X75.75Y-5.56
X76.13Y-8.94
X76.13Y-16.56
X78.67Y-8.94
X78.67Y-16.56
X78.83Y-26.93
X81.21Y-8.94
X81.21Y-16.56
X82.58Y-33.11
X82.59Y-36.01
X83.15Y-26.71
X83.37Y-5.56
X83.75Y-8.94
X83.75Y-16.56
X84.98Y-23.31
X85.63Y-4.22
X87.39Y-7.17
X87.39Y-14.79
X87.6Y-17.27
X87.6Y-22.27
X90.2Y-33.11
X90.21Y-36.01
X90.71Y-19.54
X90.77Y-26.71
X90.8Y-9.17
X90.8Y-16.79
X92.66Y-32.81
X93.16Y-22.37
X93.16Y-29.99
X93.25Y-4.22
X93.94Y-9.17
X93.94Y-16.79
X95.71Y-19.54
X97.66Y-32.81
T2
X2.02Y-22.75
X2.02Y-25.29
X2.02Y-27.83
X2.02Y-30.37
X2.02Y-32.91
X2.02Y-35.45
X2.02Y-37.99
X2.02Y-40.53
X2.02Y-43.07
X2.02Y-45.61
X2.02Y-48.15
X2.02Y-50.69
X2.02Y-53.23
X2.02Y-55.77
T3
X6.1Y-7.39
X6.1Y-9.93
X6.1Y-12.47
X6.1Y-15.01
X6.1Y-17.55
X6.1Y-20.09
X6.1Y-22.63
X6.1Y-25.17
X6.1Y-27.71
X6.1Y-30.25
X6.1Y-32.79
X6.1Y-35.33
X6.1Y-37.87
X6.1Y-40.41
X6.1Y-42.95
X6.1Y-45.49
X6.1Y-48.03
X6.1Y-50.57
X6.1Y-53.11
X6.1Y-55.65
X12.45Y-55.42
X14.99Y-55.42
X17.53Y-55.42
X23.88Y-7.39
X23.88Y-9.93
X23.88Y-12.47
X23.88Y-15.01
X23.88Y-17.55
X23.88Y-20.09
X23.88Y-22.63
X23.88Y-25.17
X23.88Y-27.71
X23.88Y-30.25
X23.88Y-32.79
X23.88Y-35.33
X23.88Y-37.87
X23.88Y-40.41
X23.88Y-42.95
X23.88Y-45.49
X23.88Y-48.03
X23.88Y-50.57
X23.88Y-53.11
X23.88Y-55.65
T4
X31.83Y-23.16
X31.83Y-35.86
X37.17Y-37.7
X37.17Y-40.24
X37.17Y-42.78
X52.87Y-30.48
X55.41Y-30.48
X57.95Y-30.48
X68.3Y-48.33
X68.3Y-55.95
X72.43Y-48.16
X72.43Y-55.78
X76.39Y-48.22
X76.39Y-55.84
T5
X54.102Y-37.338
X54.102Y-42.338
T6
X43.434Y-27.94
X43.434Y-43.18
X62.93Y-34.35
X78.17Y-34.35
T7
X30.0Y-53.82
X35.08Y-53.82
X64.3Y-41.96
X69.38Y-41.96
T8
X12.565Y-10.55
X17.415Y-10.55
T9
X12.265Y-7.52
X17.715Y-7.52
T2
X44.92Y-50.84G85X46.92Y-50.84
G05
X44.92Y-56.84G85X46.92Y-56.84
G05
X50.62Y-54.84G85X50.62Y-52.84
G05
M30
