%TF.GenerationSoftware,KiCad,Pcbnew,7.0.11+dfsg-1build4*%
%TF.CreationDate,2025-10-21T19:21:14-05:00*%
%TF.ProjectId,Synchronizer,53796e63-6872-46f6-9e69-7a65722e6b69,rev?*%
%TF.SameCoordinates,Original*%
%TF.FileFunction,Legend,Top*%
%TF.FilePolarity,Positive*%
%FSLAX46Y46*%
G04 Gerber Fmt 4.6, Leading zero omitted, Abs format (unit mm)*
G04 Created by KiCad (PCBNEW 7.0.11+dfsg-1build4) date 2025-10-21 19:21:14*
%MOMM*%
%LPD*%
G01*
G04 APERTURE LIST*
%ADD10C,0.150000*%
%ADD11C,0.120000*%
G04 APERTURE END LIST*
D10*
X78602969Y-13239819D02*
X78126779Y-13239819D01*
X78126779Y-13239819D02*
X78126779Y-12239819D01*
X78936303Y-13239819D02*
X78936303Y-12239819D01*
X78936303Y-12239819D02*
X79269636Y-12954104D01*
X79269636Y-12954104D02*
X79602969Y-12239819D01*
X79602969Y-12239819D02*
X79602969Y-13239819D01*
X79983922Y-12239819D02*
X80602969Y-12239819D01*
X80602969Y-12239819D02*
X80269636Y-12620771D01*
X80269636Y-12620771D02*
X80412493Y-12620771D01*
X80412493Y-12620771D02*
X80507731Y-12668390D01*
X80507731Y-12668390D02*
X80555350Y-12716009D01*
X80555350Y-12716009D02*
X80602969Y-12811247D01*
X80602969Y-12811247D02*
X80602969Y-13049342D01*
X80602969Y-13049342D02*
X80555350Y-13144580D01*
X80555350Y-13144580D02*
X80507731Y-13192200D01*
X80507731Y-13192200D02*
X80412493Y-13239819D01*
X80412493Y-13239819D02*
X80126779Y-13239819D01*
X80126779Y-13239819D02*
X80031541Y-13192200D01*
X80031541Y-13192200D02*
X79983922Y-13144580D01*
X81507731Y-12239819D02*
X81031541Y-12239819D01*
X81031541Y-12239819D02*
X80983922Y-12716009D01*
X80983922Y-12716009D02*
X81031541Y-12668390D01*
X81031541Y-12668390D02*
X81126779Y-12620771D01*
X81126779Y-12620771D02*
X81364874Y-12620771D01*
X81364874Y-12620771D02*
X81460112Y-12668390D01*
X81460112Y-12668390D02*
X81507731Y-12716009D01*
X81507731Y-12716009D02*
X81555350Y-12811247D01*
X81555350Y-12811247D02*
X81555350Y-13049342D01*
X81555350Y-13049342D02*
X81507731Y-13144580D01*
X81507731Y-13144580D02*
X81460112Y-13192200D01*
X81460112Y-13192200D02*
X81364874Y-13239819D01*
X81364874Y-13239819D02*
X81126779Y-13239819D01*
X81126779Y-13239819D02*
X81031541Y-13192200D01*
X81031541Y-13192200D02*
X80983922Y-13144580D01*
X82126779Y-12668390D02*
X82031541Y-12620771D01*
X82031541Y-12620771D02*
X81983922Y-12573152D01*
X81983922Y-12573152D02*
X81936303Y-12477914D01*
X81936303Y-12477914D02*
X81936303Y-12430295D01*
X81936303Y-12430295D02*
X81983922Y-12335057D01*
X81983922Y-12335057D02*
X82031541Y-12287438D01*
X82031541Y-12287438D02*
X82126779Y-12239819D01*
X82126779Y-12239819D02*
X82317255Y-12239819D01*
X82317255Y-12239819D02*
X82412493Y-12287438D01*
X82412493Y-12287438D02*
X82460112Y-12335057D01*
X82460112Y-12335057D02*
X82507731Y-12430295D01*
X82507731Y-12430295D02*
X82507731Y-12477914D01*
X82507731Y-12477914D02*
X82460112Y-12573152D01*
X82460112Y-12573152D02*
X82412493Y-12620771D01*
X82412493Y-12620771D02*
X82317255Y-12668390D01*
X82317255Y-12668390D02*
X82126779Y-12668390D01*
X82126779Y-12668390D02*
X82031541Y-12716009D01*
X82031541Y-12716009D02*
X81983922Y-12763628D01*
X81983922Y-12763628D02*
X81936303Y-12858866D01*
X81936303Y-12858866D02*
X81936303Y-13049342D01*
X81936303Y-13049342D02*
X81983922Y-13144580D01*
X81983922Y-13144580D02*
X82031541Y-13192200D01*
X82031541Y-13192200D02*
X82126779Y-13239819D01*
X82126779Y-13239819D02*
X82317255Y-13239819D01*
X82317255Y-13239819D02*
X82412493Y-13192200D01*
X82412493Y-13192200D02*
X82460112Y-13144580D01*
X82460112Y-13144580D02*
X82507731Y-13049342D01*
X82507731Y-13049342D02*
X82507731Y-12858866D01*
X82507731Y-12858866D02*
X82460112Y-12763628D01*
X82460112Y-12763628D02*
X82412493Y-12716009D01*
X82412493Y-12716009D02*
X82317255Y-12668390D01*
X80508207Y-52214580D02*
X80460588Y-52262200D01*
X80460588Y-52262200D02*
X80317731Y-52309819D01*
X80317731Y-52309819D02*
X80222493Y-52309819D01*
X80222493Y-52309819D02*
X80079636Y-52262200D01*
X80079636Y-52262200D02*
X79984398Y-52166961D01*
X79984398Y-52166961D02*
X79936779Y-52071723D01*
X79936779Y-52071723D02*
X79889160Y-51881247D01*
X79889160Y-51881247D02*
X79889160Y-51738390D01*
X79889160Y-51738390D02*
X79936779Y-51547914D01*
X79936779Y-51547914D02*
X79984398Y-51452676D01*
X79984398Y-51452676D02*
X80079636Y-51357438D01*
X80079636Y-51357438D02*
X80222493Y-51309819D01*
X80222493Y-51309819D02*
X80317731Y-51309819D01*
X80317731Y-51309819D02*
X80460588Y-51357438D01*
X80460588Y-51357438D02*
X80508207Y-51405057D01*
X81127255Y-51309819D02*
X81317731Y-51309819D01*
X81317731Y-51309819D02*
X81412969Y-51357438D01*
X81412969Y-51357438D02*
X81508207Y-51452676D01*
X81508207Y-51452676D02*
X81555826Y-51643152D01*
X81555826Y-51643152D02*
X81555826Y-51976485D01*
X81555826Y-51976485D02*
X81508207Y-52166961D01*
X81508207Y-52166961D02*
X81412969Y-52262200D01*
X81412969Y-52262200D02*
X81317731Y-52309819D01*
X81317731Y-52309819D02*
X81127255Y-52309819D01*
X81127255Y-52309819D02*
X81032017Y-52262200D01*
X81032017Y-52262200D02*
X80936779Y-52166961D01*
X80936779Y-52166961D02*
X80889160Y-51976485D01*
X80889160Y-51976485D02*
X80889160Y-51643152D01*
X80889160Y-51643152D02*
X80936779Y-51452676D01*
X80936779Y-51452676D02*
X81032017Y-51357438D01*
X81032017Y-51357438D02*
X81127255Y-51309819D01*
X81984398Y-52309819D02*
X81984398Y-51309819D01*
X82936778Y-52309819D02*
X82460588Y-52309819D01*
X82460588Y-52309819D02*
X82460588Y-51309819D01*
X63670588Y-46117438D02*
X63575350Y-46069819D01*
X63575350Y-46069819D02*
X63432493Y-46069819D01*
X63432493Y-46069819D02*
X63289636Y-46117438D01*
X63289636Y-46117438D02*
X63194398Y-46212676D01*
X63194398Y-46212676D02*
X63146779Y-46307914D01*
X63146779Y-46307914D02*
X63099160Y-46498390D01*
X63099160Y-46498390D02*
X63099160Y-46641247D01*
X63099160Y-46641247D02*
X63146779Y-46831723D01*
X63146779Y-46831723D02*
X63194398Y-46926961D01*
X63194398Y-46926961D02*
X63289636Y-47022200D01*
X63289636Y-47022200D02*
X63432493Y-47069819D01*
X63432493Y-47069819D02*
X63527731Y-47069819D01*
X63527731Y-47069819D02*
X63670588Y-47022200D01*
X63670588Y-47022200D02*
X63718207Y-46974580D01*
X63718207Y-46974580D02*
X63718207Y-46641247D01*
X63718207Y-46641247D02*
X63527731Y-46641247D01*
X64146779Y-47069819D02*
X64146779Y-46069819D01*
X64146779Y-46069819D02*
X64718207Y-47069819D01*
X64718207Y-47069819D02*
X64718207Y-46069819D01*
X65194398Y-47069819D02*
X65194398Y-46069819D01*
X65194398Y-46069819D02*
X65432493Y-46069819D01*
X65432493Y-46069819D02*
X65575350Y-46117438D01*
X65575350Y-46117438D02*
X65670588Y-46212676D01*
X65670588Y-46212676D02*
X65718207Y-46307914D01*
X65718207Y-46307914D02*
X65765826Y-46498390D01*
X65765826Y-46498390D02*
X65765826Y-46641247D01*
X65765826Y-46641247D02*
X65718207Y-46831723D01*
X65718207Y-46831723D02*
X65670588Y-46926961D01*
X65670588Y-46926961D02*
X65575350Y-47022200D01*
X65575350Y-47022200D02*
X65432493Y-47069819D01*
X65432493Y-47069819D02*
X65194398Y-47069819D01*
X34280588Y-58277438D02*
X34185350Y-58229819D01*
X34185350Y-58229819D02*
X34042493Y-58229819D01*
X34042493Y-58229819D02*
X33899636Y-58277438D01*
X33899636Y-58277438D02*
X33804398Y-58372676D01*
X33804398Y-58372676D02*
X33756779Y-58467914D01*
X33756779Y-58467914D02*
X33709160Y-58658390D01*
X33709160Y-58658390D02*
X33709160Y-58801247D01*
X33709160Y-58801247D02*
X33756779Y-58991723D01*
X33756779Y-58991723D02*
X33804398Y-59086961D01*
X33804398Y-59086961D02*
X33899636Y-59182200D01*
X33899636Y-59182200D02*
X34042493Y-59229819D01*
X34042493Y-59229819D02*
X34137731Y-59229819D01*
X34137731Y-59229819D02*
X34280588Y-59182200D01*
X34280588Y-59182200D02*
X34328207Y-59134580D01*
X34328207Y-59134580D02*
X34328207Y-58801247D01*
X34328207Y-58801247D02*
X34137731Y-58801247D01*
X34756779Y-59229819D02*
X34756779Y-58229819D01*
X34756779Y-58229819D02*
X35328207Y-59229819D01*
X35328207Y-59229819D02*
X35328207Y-58229819D01*
X35804398Y-59229819D02*
X35804398Y-58229819D01*
X35804398Y-58229819D02*
X36042493Y-58229819D01*
X36042493Y-58229819D02*
X36185350Y-58277438D01*
X36185350Y-58277438D02*
X36280588Y-58372676D01*
X36280588Y-58372676D02*
X36328207Y-58467914D01*
X36328207Y-58467914D02*
X36375826Y-58658390D01*
X36375826Y-58658390D02*
X36375826Y-58801247D01*
X36375826Y-58801247D02*
X36328207Y-58991723D01*
X36328207Y-58991723D02*
X36280588Y-59086961D01*
X36280588Y-59086961D02*
X36185350Y-59182200D01*
X36185350Y-59182200D02*
X36042493Y-59229819D01*
X36042493Y-59229819D02*
X35804398Y-59229819D01*
X28196779Y-58898866D02*
X28958684Y-58898866D01*
X28577731Y-59279819D02*
X28577731Y-58517914D01*
X29958683Y-59279819D02*
X29387255Y-59279819D01*
X29672969Y-59279819D02*
X29672969Y-58279819D01*
X29672969Y-58279819D02*
X29577731Y-58422676D01*
X29577731Y-58422676D02*
X29482493Y-58517914D01*
X29482493Y-58517914D02*
X29387255Y-58565533D01*
X30339636Y-58375057D02*
X30387255Y-58327438D01*
X30387255Y-58327438D02*
X30482493Y-58279819D01*
X30482493Y-58279819D02*
X30720588Y-58279819D01*
X30720588Y-58279819D02*
X30815826Y-58327438D01*
X30815826Y-58327438D02*
X30863445Y-58375057D01*
X30863445Y-58375057D02*
X30911064Y-58470295D01*
X30911064Y-58470295D02*
X30911064Y-58565533D01*
X30911064Y-58565533D02*
X30863445Y-58708390D01*
X30863445Y-58708390D02*
X30292017Y-59279819D01*
X30292017Y-59279819D02*
X30911064Y-59279819D01*
X31196779Y-58279819D02*
X31530112Y-59279819D01*
X31530112Y-59279819D02*
X31863445Y-58279819D01*
X68538207Y-46934580D02*
X68490588Y-46982200D01*
X68490588Y-46982200D02*
X68347731Y-47029819D01*
X68347731Y-47029819D02*
X68252493Y-47029819D01*
X68252493Y-47029819D02*
X68109636Y-46982200D01*
X68109636Y-46982200D02*
X68014398Y-46886961D01*
X68014398Y-46886961D02*
X67966779Y-46791723D01*
X67966779Y-46791723D02*
X67919160Y-46601247D01*
X67919160Y-46601247D02*
X67919160Y-46458390D01*
X67919160Y-46458390D02*
X67966779Y-46267914D01*
X67966779Y-46267914D02*
X68014398Y-46172676D01*
X68014398Y-46172676D02*
X68109636Y-46077438D01*
X68109636Y-46077438D02*
X68252493Y-46029819D01*
X68252493Y-46029819D02*
X68347731Y-46029819D01*
X68347731Y-46029819D02*
X68490588Y-46077438D01*
X68490588Y-46077438D02*
X68538207Y-46125057D01*
X69157255Y-46029819D02*
X69347731Y-46029819D01*
X69347731Y-46029819D02*
X69442969Y-46077438D01*
X69442969Y-46077438D02*
X69538207Y-46172676D01*
X69538207Y-46172676D02*
X69585826Y-46363152D01*
X69585826Y-46363152D02*
X69585826Y-46696485D01*
X69585826Y-46696485D02*
X69538207Y-46886961D01*
X69538207Y-46886961D02*
X69442969Y-46982200D01*
X69442969Y-46982200D02*
X69347731Y-47029819D01*
X69347731Y-47029819D02*
X69157255Y-47029819D01*
X69157255Y-47029819D02*
X69062017Y-46982200D01*
X69062017Y-46982200D02*
X68966779Y-46886961D01*
X68966779Y-46886961D02*
X68919160Y-46696485D01*
X68919160Y-46696485D02*
X68919160Y-46363152D01*
X68919160Y-46363152D02*
X68966779Y-46172676D01*
X68966779Y-46172676D02*
X69062017Y-46077438D01*
X69062017Y-46077438D02*
X69157255Y-46029819D01*
X70014398Y-47029819D02*
X70014398Y-46029819D01*
X70966778Y-47029819D02*
X70490588Y-47029819D01*
X70490588Y-47029819D02*
X70490588Y-46029819D01*
X87989580Y-19926666D02*
X88037200Y-19974285D01*
X88037200Y-19974285D02*
X88084819Y-20117142D01*
X88084819Y-20117142D02*
X88084819Y-20212380D01*
X88084819Y-20212380D02*
X88037200Y-20355237D01*
X88037200Y-20355237D02*
X87941961Y-20450475D01*
X87941961Y-20450475D02*
X87846723Y-20498094D01*
X87846723Y-20498094D02*
X87656247Y-20545713D01*
X87656247Y-20545713D02*
X87513390Y-20545713D01*
X87513390Y-20545713D02*
X87322914Y-20498094D01*
X87322914Y-20498094D02*
X87227676Y-20450475D01*
X87227676Y-20450475D02*
X87132438Y-20355237D01*
X87132438Y-20355237D02*
X87084819Y-20212380D01*
X87084819Y-20212380D02*
X87084819Y-20117142D01*
X87084819Y-20117142D02*
X87132438Y-19974285D01*
X87132438Y-19974285D02*
X87180057Y-19926666D01*
X87513390Y-19355237D02*
X87465771Y-19450475D01*
X87465771Y-19450475D02*
X87418152Y-19498094D01*
X87418152Y-19498094D02*
X87322914Y-19545713D01*
X87322914Y-19545713D02*
X87275295Y-19545713D01*
X87275295Y-19545713D02*
X87180057Y-19498094D01*
X87180057Y-19498094D02*
X87132438Y-19450475D01*
X87132438Y-19450475D02*
X87084819Y-19355237D01*
X87084819Y-19355237D02*
X87084819Y-19164761D01*
X87084819Y-19164761D02*
X87132438Y-19069523D01*
X87132438Y-19069523D02*
X87180057Y-19021904D01*
X87180057Y-19021904D02*
X87275295Y-18974285D01*
X87275295Y-18974285D02*
X87322914Y-18974285D01*
X87322914Y-18974285D02*
X87418152Y-19021904D01*
X87418152Y-19021904D02*
X87465771Y-19069523D01*
X87465771Y-19069523D02*
X87513390Y-19164761D01*
X87513390Y-19164761D02*
X87513390Y-19355237D01*
X87513390Y-19355237D02*
X87561009Y-19450475D01*
X87561009Y-19450475D02*
X87608628Y-19498094D01*
X87608628Y-19498094D02*
X87703866Y-19545713D01*
X87703866Y-19545713D02*
X87894342Y-19545713D01*
X87894342Y-19545713D02*
X87989580Y-19498094D01*
X87989580Y-19498094D02*
X88037200Y-19450475D01*
X88037200Y-19450475D02*
X88084819Y-19355237D01*
X88084819Y-19355237D02*
X88084819Y-19164761D01*
X88084819Y-19164761D02*
X88037200Y-19069523D01*
X88037200Y-19069523D02*
X87989580Y-19021904D01*
X87989580Y-19021904D02*
X87894342Y-18974285D01*
X87894342Y-18974285D02*
X87703866Y-18974285D01*
X87703866Y-18974285D02*
X87608628Y-19021904D01*
X87608628Y-19021904D02*
X87561009Y-19069523D01*
X87561009Y-19069523D02*
X87513390Y-19164761D01*
X29064819Y-29016666D02*
X28588628Y-29349999D01*
X29064819Y-29588094D02*
X28064819Y-29588094D01*
X28064819Y-29588094D02*
X28064819Y-29207142D01*
X28064819Y-29207142D02*
X28112438Y-29111904D01*
X28112438Y-29111904D02*
X28160057Y-29064285D01*
X28160057Y-29064285D02*
X28255295Y-29016666D01*
X28255295Y-29016666D02*
X28398152Y-29016666D01*
X28398152Y-29016666D02*
X28493390Y-29064285D01*
X28493390Y-29064285D02*
X28541009Y-29111904D01*
X28541009Y-29111904D02*
X28588628Y-29207142D01*
X28588628Y-29207142D02*
X28588628Y-29588094D01*
X29064819Y-28064285D02*
X29064819Y-28635713D01*
X29064819Y-28349999D02*
X28064819Y-28349999D01*
X28064819Y-28349999D02*
X28207676Y-28445237D01*
X28207676Y-28445237D02*
X28302914Y-28540475D01*
X28302914Y-28540475D02*
X28350533Y-28635713D01*
X47363142Y-46587580D02*
X47315523Y-46635200D01*
X47315523Y-46635200D02*
X47172666Y-46682819D01*
X47172666Y-46682819D02*
X47077428Y-46682819D01*
X47077428Y-46682819D02*
X46934571Y-46635200D01*
X46934571Y-46635200D02*
X46839333Y-46539961D01*
X46839333Y-46539961D02*
X46791714Y-46444723D01*
X46791714Y-46444723D02*
X46744095Y-46254247D01*
X46744095Y-46254247D02*
X46744095Y-46111390D01*
X46744095Y-46111390D02*
X46791714Y-45920914D01*
X46791714Y-45920914D02*
X46839333Y-45825676D01*
X46839333Y-45825676D02*
X46934571Y-45730438D01*
X46934571Y-45730438D02*
X47077428Y-45682819D01*
X47077428Y-45682819D02*
X47172666Y-45682819D01*
X47172666Y-45682819D02*
X47315523Y-45730438D01*
X47315523Y-45730438D02*
X47363142Y-45778057D01*
X48315523Y-46682819D02*
X47744095Y-46682819D01*
X48029809Y-46682819D02*
X48029809Y-45682819D01*
X48029809Y-45682819D02*
X47934571Y-45825676D01*
X47934571Y-45825676D02*
X47839333Y-45920914D01*
X47839333Y-45920914D02*
X47744095Y-45968533D01*
X48934571Y-45682819D02*
X49029809Y-45682819D01*
X49029809Y-45682819D02*
X49125047Y-45730438D01*
X49125047Y-45730438D02*
X49172666Y-45778057D01*
X49172666Y-45778057D02*
X49220285Y-45873295D01*
X49220285Y-45873295D02*
X49267904Y-46063771D01*
X49267904Y-46063771D02*
X49267904Y-46301866D01*
X49267904Y-46301866D02*
X49220285Y-46492342D01*
X49220285Y-46492342D02*
X49172666Y-46587580D01*
X49172666Y-46587580D02*
X49125047Y-46635200D01*
X49125047Y-46635200D02*
X49029809Y-46682819D01*
X49029809Y-46682819D02*
X48934571Y-46682819D01*
X48934571Y-46682819D02*
X48839333Y-46635200D01*
X48839333Y-46635200D02*
X48791714Y-46587580D01*
X48791714Y-46587580D02*
X48744095Y-46492342D01*
X48744095Y-46492342D02*
X48696476Y-46301866D01*
X48696476Y-46301866D02*
X48696476Y-46063771D01*
X48696476Y-46063771D02*
X48744095Y-45873295D01*
X48744095Y-45873295D02*
X48791714Y-45778057D01*
X48791714Y-45778057D02*
X48839333Y-45730438D01*
X48839333Y-45730438D02*
X48934571Y-45682819D01*
X93674819Y-26666094D02*
X92674819Y-26666094D01*
X92674819Y-26666094D02*
X92674819Y-26427999D01*
X92674819Y-26427999D02*
X92722438Y-26285142D01*
X92722438Y-26285142D02*
X92817676Y-26189904D01*
X92817676Y-26189904D02*
X92912914Y-26142285D01*
X92912914Y-26142285D02*
X93103390Y-26094666D01*
X93103390Y-26094666D02*
X93246247Y-26094666D01*
X93246247Y-26094666D02*
X93436723Y-26142285D01*
X93436723Y-26142285D02*
X93531961Y-26189904D01*
X93531961Y-26189904D02*
X93627200Y-26285142D01*
X93627200Y-26285142D02*
X93674819Y-26427999D01*
X93674819Y-26427999D02*
X93674819Y-26666094D01*
X92674819Y-25761332D02*
X92674819Y-25142285D01*
X92674819Y-25142285D02*
X93055771Y-25475618D01*
X93055771Y-25475618D02*
X93055771Y-25332761D01*
X93055771Y-25332761D02*
X93103390Y-25237523D01*
X93103390Y-25237523D02*
X93151009Y-25189904D01*
X93151009Y-25189904D02*
X93246247Y-25142285D01*
X93246247Y-25142285D02*
X93484342Y-25142285D01*
X93484342Y-25142285D02*
X93579580Y-25189904D01*
X93579580Y-25189904D02*
X93627200Y-25237523D01*
X93627200Y-25237523D02*
X93674819Y-25332761D01*
X93674819Y-25332761D02*
X93674819Y-25618475D01*
X93674819Y-25618475D02*
X93627200Y-25713713D01*
X93627200Y-25713713D02*
X93579580Y-25761332D01*
X64614819Y-21576666D02*
X64138628Y-21909999D01*
X64614819Y-22148094D02*
X63614819Y-22148094D01*
X63614819Y-22148094D02*
X63614819Y-21767142D01*
X63614819Y-21767142D02*
X63662438Y-21671904D01*
X63662438Y-21671904D02*
X63710057Y-21624285D01*
X63710057Y-21624285D02*
X63805295Y-21576666D01*
X63805295Y-21576666D02*
X63948152Y-21576666D01*
X63948152Y-21576666D02*
X64043390Y-21624285D01*
X64043390Y-21624285D02*
X64091009Y-21671904D01*
X64091009Y-21671904D02*
X64138628Y-21767142D01*
X64138628Y-21767142D02*
X64138628Y-22148094D01*
X63614819Y-20671904D02*
X63614819Y-21148094D01*
X63614819Y-21148094D02*
X64091009Y-21195713D01*
X64091009Y-21195713D02*
X64043390Y-21148094D01*
X64043390Y-21148094D02*
X63995771Y-21052856D01*
X63995771Y-21052856D02*
X63995771Y-20814761D01*
X63995771Y-20814761D02*
X64043390Y-20719523D01*
X64043390Y-20719523D02*
X64091009Y-20671904D01*
X64091009Y-20671904D02*
X64186247Y-20624285D01*
X64186247Y-20624285D02*
X64424342Y-20624285D01*
X64424342Y-20624285D02*
X64519580Y-20671904D01*
X64519580Y-20671904D02*
X64567200Y-20719523D01*
X64567200Y-20719523D02*
X64614819Y-20814761D01*
X64614819Y-20814761D02*
X64614819Y-21052856D01*
X64614819Y-21052856D02*
X64567200Y-21148094D01*
X64567200Y-21148094D02*
X64519580Y-21195713D01*
X85837142Y-36404819D02*
X85503809Y-35928628D01*
X85265714Y-36404819D02*
X85265714Y-35404819D01*
X85265714Y-35404819D02*
X85646666Y-35404819D01*
X85646666Y-35404819D02*
X85741904Y-35452438D01*
X85741904Y-35452438D02*
X85789523Y-35500057D01*
X85789523Y-35500057D02*
X85837142Y-35595295D01*
X85837142Y-35595295D02*
X85837142Y-35738152D01*
X85837142Y-35738152D02*
X85789523Y-35833390D01*
X85789523Y-35833390D02*
X85741904Y-35881009D01*
X85741904Y-35881009D02*
X85646666Y-35928628D01*
X85646666Y-35928628D02*
X85265714Y-35928628D01*
X86218095Y-35500057D02*
X86265714Y-35452438D01*
X86265714Y-35452438D02*
X86360952Y-35404819D01*
X86360952Y-35404819D02*
X86599047Y-35404819D01*
X86599047Y-35404819D02*
X86694285Y-35452438D01*
X86694285Y-35452438D02*
X86741904Y-35500057D01*
X86741904Y-35500057D02*
X86789523Y-35595295D01*
X86789523Y-35595295D02*
X86789523Y-35690533D01*
X86789523Y-35690533D02*
X86741904Y-35833390D01*
X86741904Y-35833390D02*
X86170476Y-36404819D01*
X86170476Y-36404819D02*
X86789523Y-36404819D01*
X87741904Y-36404819D02*
X87170476Y-36404819D01*
X87456190Y-36404819D02*
X87456190Y-35404819D01*
X87456190Y-35404819D02*
X87360952Y-35547676D01*
X87360952Y-35547676D02*
X87265714Y-35642914D01*
X87265714Y-35642914D02*
X87170476Y-35690533D01*
X14228095Y-30974819D02*
X14228095Y-31784342D01*
X14228095Y-31784342D02*
X14275714Y-31879580D01*
X14275714Y-31879580D02*
X14323333Y-31927200D01*
X14323333Y-31927200D02*
X14418571Y-31974819D01*
X14418571Y-31974819D02*
X14609047Y-31974819D01*
X14609047Y-31974819D02*
X14704285Y-31927200D01*
X14704285Y-31927200D02*
X14751904Y-31879580D01*
X14751904Y-31879580D02*
X14799523Y-31784342D01*
X14799523Y-31784342D02*
X14799523Y-30974819D01*
X15799523Y-31974819D02*
X15228095Y-31974819D01*
X15513809Y-31974819D02*
X15513809Y-30974819D01*
X15513809Y-30974819D02*
X15418571Y-31117676D01*
X15418571Y-31117676D02*
X15323333Y-31212914D01*
X15323333Y-31212914D02*
X15228095Y-31260533D01*
X78907142Y-5944819D02*
X78573809Y-5468628D01*
X78335714Y-5944819D02*
X78335714Y-4944819D01*
X78335714Y-4944819D02*
X78716666Y-4944819D01*
X78716666Y-4944819D02*
X78811904Y-4992438D01*
X78811904Y-4992438D02*
X78859523Y-5040057D01*
X78859523Y-5040057D02*
X78907142Y-5135295D01*
X78907142Y-5135295D02*
X78907142Y-5278152D01*
X78907142Y-5278152D02*
X78859523Y-5373390D01*
X78859523Y-5373390D02*
X78811904Y-5421009D01*
X78811904Y-5421009D02*
X78716666Y-5468628D01*
X78716666Y-5468628D02*
X78335714Y-5468628D01*
X79859523Y-5944819D02*
X79288095Y-5944819D01*
X79573809Y-5944819D02*
X79573809Y-4944819D01*
X79573809Y-4944819D02*
X79478571Y-5087676D01*
X79478571Y-5087676D02*
X79383333Y-5182914D01*
X79383333Y-5182914D02*
X79288095Y-5230533D01*
X80716666Y-4944819D02*
X80526190Y-4944819D01*
X80526190Y-4944819D02*
X80430952Y-4992438D01*
X80430952Y-4992438D02*
X80383333Y-5040057D01*
X80383333Y-5040057D02*
X80288095Y-5182914D01*
X80288095Y-5182914D02*
X80240476Y-5373390D01*
X80240476Y-5373390D02*
X80240476Y-5754342D01*
X80240476Y-5754342D02*
X80288095Y-5849580D01*
X80288095Y-5849580D02*
X80335714Y-5897200D01*
X80335714Y-5897200D02*
X80430952Y-5944819D01*
X80430952Y-5944819D02*
X80621428Y-5944819D01*
X80621428Y-5944819D02*
X80716666Y-5897200D01*
X80716666Y-5897200D02*
X80764285Y-5849580D01*
X80764285Y-5849580D02*
X80811904Y-5754342D01*
X80811904Y-5754342D02*
X80811904Y-5516247D01*
X80811904Y-5516247D02*
X80764285Y-5421009D01*
X80764285Y-5421009D02*
X80716666Y-5373390D01*
X80716666Y-5373390D02*
X80621428Y-5325771D01*
X80621428Y-5325771D02*
X80430952Y-5325771D01*
X80430952Y-5325771D02*
X80335714Y-5373390D01*
X80335714Y-5373390D02*
X80288095Y-5421009D01*
X80288095Y-5421009D02*
X80240476Y-5516247D01*
X58469580Y-50816666D02*
X58517200Y-50864285D01*
X58517200Y-50864285D02*
X58564819Y-51007142D01*
X58564819Y-51007142D02*
X58564819Y-51102380D01*
X58564819Y-51102380D02*
X58517200Y-51245237D01*
X58517200Y-51245237D02*
X58421961Y-51340475D01*
X58421961Y-51340475D02*
X58326723Y-51388094D01*
X58326723Y-51388094D02*
X58136247Y-51435713D01*
X58136247Y-51435713D02*
X57993390Y-51435713D01*
X57993390Y-51435713D02*
X57802914Y-51388094D01*
X57802914Y-51388094D02*
X57707676Y-51340475D01*
X57707676Y-51340475D02*
X57612438Y-51245237D01*
X57612438Y-51245237D02*
X57564819Y-51102380D01*
X57564819Y-51102380D02*
X57564819Y-51007142D01*
X57564819Y-51007142D02*
X57612438Y-50864285D01*
X57612438Y-50864285D02*
X57660057Y-50816666D01*
X57898152Y-49959523D02*
X58564819Y-49959523D01*
X57517200Y-50197618D02*
X58231485Y-50435713D01*
X58231485Y-50435713D02*
X58231485Y-49816666D01*
X94517142Y-33159580D02*
X94469523Y-33207200D01*
X94469523Y-33207200D02*
X94326666Y-33254819D01*
X94326666Y-33254819D02*
X94231428Y-33254819D01*
X94231428Y-33254819D02*
X94088571Y-33207200D01*
X94088571Y-33207200D02*
X93993333Y-33111961D01*
X93993333Y-33111961D02*
X93945714Y-33016723D01*
X93945714Y-33016723D02*
X93898095Y-32826247D01*
X93898095Y-32826247D02*
X93898095Y-32683390D01*
X93898095Y-32683390D02*
X93945714Y-32492914D01*
X93945714Y-32492914D02*
X93993333Y-32397676D01*
X93993333Y-32397676D02*
X94088571Y-32302438D01*
X94088571Y-32302438D02*
X94231428Y-32254819D01*
X94231428Y-32254819D02*
X94326666Y-32254819D01*
X94326666Y-32254819D02*
X94469523Y-32302438D01*
X94469523Y-32302438D02*
X94517142Y-32350057D01*
X95469523Y-33254819D02*
X94898095Y-33254819D01*
X95183809Y-33254819D02*
X95183809Y-32254819D01*
X95183809Y-32254819D02*
X95088571Y-32397676D01*
X95088571Y-32397676D02*
X94993333Y-32492914D01*
X94993333Y-32492914D02*
X94898095Y-32540533D01*
X96421904Y-33254819D02*
X95850476Y-33254819D01*
X96136190Y-33254819D02*
X96136190Y-32254819D01*
X96136190Y-32254819D02*
X96040952Y-32397676D01*
X96040952Y-32397676D02*
X95945714Y-32492914D01*
X95945714Y-32492914D02*
X95850476Y-32540533D01*
X68004819Y-15566666D02*
X67528628Y-15899999D01*
X68004819Y-16138094D02*
X67004819Y-16138094D01*
X67004819Y-16138094D02*
X67004819Y-15757142D01*
X67004819Y-15757142D02*
X67052438Y-15661904D01*
X67052438Y-15661904D02*
X67100057Y-15614285D01*
X67100057Y-15614285D02*
X67195295Y-15566666D01*
X67195295Y-15566666D02*
X67338152Y-15566666D01*
X67338152Y-15566666D02*
X67433390Y-15614285D01*
X67433390Y-15614285D02*
X67481009Y-15661904D01*
X67481009Y-15661904D02*
X67528628Y-15757142D01*
X67528628Y-15757142D02*
X67528628Y-16138094D01*
X68004819Y-15090475D02*
X68004819Y-14899999D01*
X68004819Y-14899999D02*
X67957200Y-14804761D01*
X67957200Y-14804761D02*
X67909580Y-14757142D01*
X67909580Y-14757142D02*
X67766723Y-14661904D01*
X67766723Y-14661904D02*
X67576247Y-14614285D01*
X67576247Y-14614285D02*
X67195295Y-14614285D01*
X67195295Y-14614285D02*
X67100057Y-14661904D01*
X67100057Y-14661904D02*
X67052438Y-14709523D01*
X67052438Y-14709523D02*
X67004819Y-14804761D01*
X67004819Y-14804761D02*
X67004819Y-14995237D01*
X67004819Y-14995237D02*
X67052438Y-15090475D01*
X67052438Y-15090475D02*
X67100057Y-15138094D01*
X67100057Y-15138094D02*
X67195295Y-15185713D01*
X67195295Y-15185713D02*
X67433390Y-15185713D01*
X67433390Y-15185713D02*
X67528628Y-15138094D01*
X67528628Y-15138094D02*
X67576247Y-15090475D01*
X67576247Y-15090475D02*
X67623866Y-14995237D01*
X67623866Y-14995237D02*
X67623866Y-14804761D01*
X67623866Y-14804761D02*
X67576247Y-14709523D01*
X67576247Y-14709523D02*
X67528628Y-14661904D01*
X67528628Y-14661904D02*
X67433390Y-14614285D01*
X68784819Y-52476094D02*
X67784819Y-52476094D01*
X67784819Y-52476094D02*
X67784819Y-52237999D01*
X67784819Y-52237999D02*
X67832438Y-52095142D01*
X67832438Y-52095142D02*
X67927676Y-51999904D01*
X67927676Y-51999904D02*
X68022914Y-51952285D01*
X68022914Y-51952285D02*
X68213390Y-51904666D01*
X68213390Y-51904666D02*
X68356247Y-51904666D01*
X68356247Y-51904666D02*
X68546723Y-51952285D01*
X68546723Y-51952285D02*
X68641961Y-51999904D01*
X68641961Y-51999904D02*
X68737200Y-52095142D01*
X68737200Y-52095142D02*
X68784819Y-52237999D01*
X68784819Y-52237999D02*
X68784819Y-52476094D01*
X67880057Y-51523713D02*
X67832438Y-51476094D01*
X67832438Y-51476094D02*
X67784819Y-51380856D01*
X67784819Y-51380856D02*
X67784819Y-51142761D01*
X67784819Y-51142761D02*
X67832438Y-51047523D01*
X67832438Y-51047523D02*
X67880057Y-50999904D01*
X67880057Y-50999904D02*
X67975295Y-50952285D01*
X67975295Y-50952285D02*
X68070533Y-50952285D01*
X68070533Y-50952285D02*
X68213390Y-50999904D01*
X68213390Y-50999904D02*
X68784819Y-51571332D01*
X68784819Y-51571332D02*
X68784819Y-50952285D01*
X94354819Y-13612857D02*
X93878628Y-13946190D01*
X94354819Y-14184285D02*
X93354819Y-14184285D01*
X93354819Y-14184285D02*
X93354819Y-13803333D01*
X93354819Y-13803333D02*
X93402438Y-13708095D01*
X93402438Y-13708095D02*
X93450057Y-13660476D01*
X93450057Y-13660476D02*
X93545295Y-13612857D01*
X93545295Y-13612857D02*
X93688152Y-13612857D01*
X93688152Y-13612857D02*
X93783390Y-13660476D01*
X93783390Y-13660476D02*
X93831009Y-13708095D01*
X93831009Y-13708095D02*
X93878628Y-13803333D01*
X93878628Y-13803333D02*
X93878628Y-14184285D01*
X94354819Y-12660476D02*
X94354819Y-13231904D01*
X94354819Y-12946190D02*
X93354819Y-12946190D01*
X93354819Y-12946190D02*
X93497676Y-13041428D01*
X93497676Y-13041428D02*
X93592914Y-13136666D01*
X93592914Y-13136666D02*
X93640533Y-13231904D01*
X93354819Y-12327142D02*
X93354819Y-11708095D01*
X93354819Y-11708095D02*
X93735771Y-12041428D01*
X93735771Y-12041428D02*
X93735771Y-11898571D01*
X93735771Y-11898571D02*
X93783390Y-11803333D01*
X93783390Y-11803333D02*
X93831009Y-11755714D01*
X93831009Y-11755714D02*
X93926247Y-11708095D01*
X93926247Y-11708095D02*
X94164342Y-11708095D01*
X94164342Y-11708095D02*
X94259580Y-11755714D01*
X94259580Y-11755714D02*
X94307200Y-11803333D01*
X94307200Y-11803333D02*
X94354819Y-11898571D01*
X94354819Y-11898571D02*
X94354819Y-12184285D01*
X94354819Y-12184285D02*
X94307200Y-12279523D01*
X94307200Y-12279523D02*
X94259580Y-12327142D01*
X87874819Y-11640857D02*
X87398628Y-11974190D01*
X87874819Y-12212285D02*
X86874819Y-12212285D01*
X86874819Y-12212285D02*
X86874819Y-11831333D01*
X86874819Y-11831333D02*
X86922438Y-11736095D01*
X86922438Y-11736095D02*
X86970057Y-11688476D01*
X86970057Y-11688476D02*
X87065295Y-11640857D01*
X87065295Y-11640857D02*
X87208152Y-11640857D01*
X87208152Y-11640857D02*
X87303390Y-11688476D01*
X87303390Y-11688476D02*
X87351009Y-11736095D01*
X87351009Y-11736095D02*
X87398628Y-11831333D01*
X87398628Y-11831333D02*
X87398628Y-12212285D01*
X87874819Y-10688476D02*
X87874819Y-11259904D01*
X87874819Y-10974190D02*
X86874819Y-10974190D01*
X86874819Y-10974190D02*
X87017676Y-11069428D01*
X87017676Y-11069428D02*
X87112914Y-11164666D01*
X87112914Y-11164666D02*
X87160533Y-11259904D01*
X86874819Y-9783714D02*
X86874819Y-10259904D01*
X86874819Y-10259904D02*
X87351009Y-10307523D01*
X87351009Y-10307523D02*
X87303390Y-10259904D01*
X87303390Y-10259904D02*
X87255771Y-10164666D01*
X87255771Y-10164666D02*
X87255771Y-9926571D01*
X87255771Y-9926571D02*
X87303390Y-9831333D01*
X87303390Y-9831333D02*
X87351009Y-9783714D01*
X87351009Y-9783714D02*
X87446247Y-9736095D01*
X87446247Y-9736095D02*
X87684342Y-9736095D01*
X87684342Y-9736095D02*
X87779580Y-9783714D01*
X87779580Y-9783714D02*
X87827200Y-9831333D01*
X87827200Y-9831333D02*
X87874819Y-9926571D01*
X87874819Y-9926571D02*
X87874819Y-10164666D01*
X87874819Y-10164666D02*
X87827200Y-10259904D01*
X87827200Y-10259904D02*
X87779580Y-10307523D01*
X91254819Y-13532857D02*
X90778628Y-13866190D01*
X91254819Y-14104285D02*
X90254819Y-14104285D01*
X90254819Y-14104285D02*
X90254819Y-13723333D01*
X90254819Y-13723333D02*
X90302438Y-13628095D01*
X90302438Y-13628095D02*
X90350057Y-13580476D01*
X90350057Y-13580476D02*
X90445295Y-13532857D01*
X90445295Y-13532857D02*
X90588152Y-13532857D01*
X90588152Y-13532857D02*
X90683390Y-13580476D01*
X90683390Y-13580476D02*
X90731009Y-13628095D01*
X90731009Y-13628095D02*
X90778628Y-13723333D01*
X90778628Y-13723333D02*
X90778628Y-14104285D01*
X91254819Y-12580476D02*
X91254819Y-13151904D01*
X91254819Y-12866190D02*
X90254819Y-12866190D01*
X90254819Y-12866190D02*
X90397676Y-12961428D01*
X90397676Y-12961428D02*
X90492914Y-13056666D01*
X90492914Y-13056666D02*
X90540533Y-13151904D01*
X90350057Y-12199523D02*
X90302438Y-12151904D01*
X90302438Y-12151904D02*
X90254819Y-12056666D01*
X90254819Y-12056666D02*
X90254819Y-11818571D01*
X90254819Y-11818571D02*
X90302438Y-11723333D01*
X90302438Y-11723333D02*
X90350057Y-11675714D01*
X90350057Y-11675714D02*
X90445295Y-11628095D01*
X90445295Y-11628095D02*
X90540533Y-11628095D01*
X90540533Y-11628095D02*
X90683390Y-11675714D01*
X90683390Y-11675714D02*
X91254819Y-12247142D01*
X91254819Y-12247142D02*
X91254819Y-11628095D01*
X1686666Y-19874819D02*
X1686666Y-20589104D01*
X1686666Y-20589104D02*
X1639047Y-20731961D01*
X1639047Y-20731961D02*
X1543809Y-20827200D01*
X1543809Y-20827200D02*
X1400952Y-20874819D01*
X1400952Y-20874819D02*
X1305714Y-20874819D01*
X2115238Y-19970057D02*
X2162857Y-19922438D01*
X2162857Y-19922438D02*
X2258095Y-19874819D01*
X2258095Y-19874819D02*
X2496190Y-19874819D01*
X2496190Y-19874819D02*
X2591428Y-19922438D01*
X2591428Y-19922438D02*
X2639047Y-19970057D01*
X2639047Y-19970057D02*
X2686666Y-20065295D01*
X2686666Y-20065295D02*
X2686666Y-20160533D01*
X2686666Y-20160533D02*
X2639047Y-20303390D01*
X2639047Y-20303390D02*
X2067619Y-20874819D01*
X2067619Y-20874819D02*
X2686666Y-20874819D01*
X59384761Y-14840057D02*
X59289523Y-14792438D01*
X59289523Y-14792438D02*
X59194285Y-14697200D01*
X59194285Y-14697200D02*
X59051428Y-14554342D01*
X59051428Y-14554342D02*
X58956190Y-14506723D01*
X58956190Y-14506723D02*
X58860952Y-14506723D01*
X58908571Y-14744819D02*
X58813333Y-14697200D01*
X58813333Y-14697200D02*
X58718095Y-14601961D01*
X58718095Y-14601961D02*
X58670476Y-14411485D01*
X58670476Y-14411485D02*
X58670476Y-14078152D01*
X58670476Y-14078152D02*
X58718095Y-13887676D01*
X58718095Y-13887676D02*
X58813333Y-13792438D01*
X58813333Y-13792438D02*
X58908571Y-13744819D01*
X58908571Y-13744819D02*
X59099047Y-13744819D01*
X59099047Y-13744819D02*
X59194285Y-13792438D01*
X59194285Y-13792438D02*
X59289523Y-13887676D01*
X59289523Y-13887676D02*
X59337142Y-14078152D01*
X59337142Y-14078152D02*
X59337142Y-14411485D01*
X59337142Y-14411485D02*
X59289523Y-14601961D01*
X59289523Y-14601961D02*
X59194285Y-14697200D01*
X59194285Y-14697200D02*
X59099047Y-14744819D01*
X59099047Y-14744819D02*
X58908571Y-14744819D01*
X59718095Y-13840057D02*
X59765714Y-13792438D01*
X59765714Y-13792438D02*
X59860952Y-13744819D01*
X59860952Y-13744819D02*
X60099047Y-13744819D01*
X60099047Y-13744819D02*
X60194285Y-13792438D01*
X60194285Y-13792438D02*
X60241904Y-13840057D01*
X60241904Y-13840057D02*
X60289523Y-13935295D01*
X60289523Y-13935295D02*
X60289523Y-14030533D01*
X60289523Y-14030533D02*
X60241904Y-14173390D01*
X60241904Y-14173390D02*
X59670476Y-14744819D01*
X59670476Y-14744819D02*
X60289523Y-14744819D01*
X64964819Y-52552857D02*
X64488628Y-52886190D01*
X64964819Y-53124285D02*
X63964819Y-53124285D01*
X63964819Y-53124285D02*
X63964819Y-52743333D01*
X63964819Y-52743333D02*
X64012438Y-52648095D01*
X64012438Y-52648095D02*
X64060057Y-52600476D01*
X64060057Y-52600476D02*
X64155295Y-52552857D01*
X64155295Y-52552857D02*
X64298152Y-52552857D01*
X64298152Y-52552857D02*
X64393390Y-52600476D01*
X64393390Y-52600476D02*
X64441009Y-52648095D01*
X64441009Y-52648095D02*
X64488628Y-52743333D01*
X64488628Y-52743333D02*
X64488628Y-53124285D01*
X64964819Y-51600476D02*
X64964819Y-52171904D01*
X64964819Y-51886190D02*
X63964819Y-51886190D01*
X63964819Y-51886190D02*
X64107676Y-51981428D01*
X64107676Y-51981428D02*
X64202914Y-52076666D01*
X64202914Y-52076666D02*
X64250533Y-52171904D01*
X64393390Y-51029047D02*
X64345771Y-51124285D01*
X64345771Y-51124285D02*
X64298152Y-51171904D01*
X64298152Y-51171904D02*
X64202914Y-51219523D01*
X64202914Y-51219523D02*
X64155295Y-51219523D01*
X64155295Y-51219523D02*
X64060057Y-51171904D01*
X64060057Y-51171904D02*
X64012438Y-51124285D01*
X64012438Y-51124285D02*
X63964819Y-51029047D01*
X63964819Y-51029047D02*
X63964819Y-50838571D01*
X63964819Y-50838571D02*
X64012438Y-50743333D01*
X64012438Y-50743333D02*
X64060057Y-50695714D01*
X64060057Y-50695714D02*
X64155295Y-50648095D01*
X64155295Y-50648095D02*
X64202914Y-50648095D01*
X64202914Y-50648095D02*
X64298152Y-50695714D01*
X64298152Y-50695714D02*
X64345771Y-50743333D01*
X64345771Y-50743333D02*
X64393390Y-50838571D01*
X64393390Y-50838571D02*
X64393390Y-51029047D01*
X64393390Y-51029047D02*
X64441009Y-51124285D01*
X64441009Y-51124285D02*
X64488628Y-51171904D01*
X64488628Y-51171904D02*
X64583866Y-51219523D01*
X64583866Y-51219523D02*
X64774342Y-51219523D01*
X64774342Y-51219523D02*
X64869580Y-51171904D01*
X64869580Y-51171904D02*
X64917200Y-51124285D01*
X64917200Y-51124285D02*
X64964819Y-51029047D01*
X64964819Y-51029047D02*
X64964819Y-50838571D01*
X64964819Y-50838571D02*
X64917200Y-50743333D01*
X64917200Y-50743333D02*
X64869580Y-50695714D01*
X64869580Y-50695714D02*
X64774342Y-50648095D01*
X64774342Y-50648095D02*
X64583866Y-50648095D01*
X64583866Y-50648095D02*
X64488628Y-50695714D01*
X64488628Y-50695714D02*
X64441009Y-50743333D01*
X64441009Y-50743333D02*
X64393390Y-50838571D01*
X42123333Y-5984819D02*
X41790000Y-5508628D01*
X41551905Y-5984819D02*
X41551905Y-4984819D01*
X41551905Y-4984819D02*
X41932857Y-4984819D01*
X41932857Y-4984819D02*
X42028095Y-5032438D01*
X42028095Y-5032438D02*
X42075714Y-5080057D01*
X42075714Y-5080057D02*
X42123333Y-5175295D01*
X42123333Y-5175295D02*
X42123333Y-5318152D01*
X42123333Y-5318152D02*
X42075714Y-5413390D01*
X42075714Y-5413390D02*
X42028095Y-5461009D01*
X42028095Y-5461009D02*
X41932857Y-5508628D01*
X41932857Y-5508628D02*
X41551905Y-5508628D01*
X42456667Y-4984819D02*
X43123333Y-4984819D01*
X43123333Y-4984819D02*
X42694762Y-5984819D01*
X76145333Y-27259580D02*
X76097714Y-27307200D01*
X76097714Y-27307200D02*
X75954857Y-27354819D01*
X75954857Y-27354819D02*
X75859619Y-27354819D01*
X75859619Y-27354819D02*
X75716762Y-27307200D01*
X75716762Y-27307200D02*
X75621524Y-27211961D01*
X75621524Y-27211961D02*
X75573905Y-27116723D01*
X75573905Y-27116723D02*
X75526286Y-26926247D01*
X75526286Y-26926247D02*
X75526286Y-26783390D01*
X75526286Y-26783390D02*
X75573905Y-26592914D01*
X75573905Y-26592914D02*
X75621524Y-26497676D01*
X75621524Y-26497676D02*
X75716762Y-26402438D01*
X75716762Y-26402438D02*
X75859619Y-26354819D01*
X75859619Y-26354819D02*
X75954857Y-26354819D01*
X75954857Y-26354819D02*
X76097714Y-26402438D01*
X76097714Y-26402438D02*
X76145333Y-26450057D01*
X76621524Y-27354819D02*
X76812000Y-27354819D01*
X76812000Y-27354819D02*
X76907238Y-27307200D01*
X76907238Y-27307200D02*
X76954857Y-27259580D01*
X76954857Y-27259580D02*
X77050095Y-27116723D01*
X77050095Y-27116723D02*
X77097714Y-26926247D01*
X77097714Y-26926247D02*
X77097714Y-26545295D01*
X77097714Y-26545295D02*
X77050095Y-26450057D01*
X77050095Y-26450057D02*
X77002476Y-26402438D01*
X77002476Y-26402438D02*
X76907238Y-26354819D01*
X76907238Y-26354819D02*
X76716762Y-26354819D01*
X76716762Y-26354819D02*
X76621524Y-26402438D01*
X76621524Y-26402438D02*
X76573905Y-26450057D01*
X76573905Y-26450057D02*
X76526286Y-26545295D01*
X76526286Y-26545295D02*
X76526286Y-26783390D01*
X76526286Y-26783390D02*
X76573905Y-26878628D01*
X76573905Y-26878628D02*
X76621524Y-26926247D01*
X76621524Y-26926247D02*
X76716762Y-26973866D01*
X76716762Y-26973866D02*
X76907238Y-26973866D01*
X76907238Y-26973866D02*
X77002476Y-26926247D01*
X77002476Y-26926247D02*
X77050095Y-26878628D01*
X77050095Y-26878628D02*
X77097714Y-26783390D01*
X32613333Y-43589580D02*
X32565714Y-43637200D01*
X32565714Y-43637200D02*
X32422857Y-43684819D01*
X32422857Y-43684819D02*
X32327619Y-43684819D01*
X32327619Y-43684819D02*
X32184762Y-43637200D01*
X32184762Y-43637200D02*
X32089524Y-43541961D01*
X32089524Y-43541961D02*
X32041905Y-43446723D01*
X32041905Y-43446723D02*
X31994286Y-43256247D01*
X31994286Y-43256247D02*
X31994286Y-43113390D01*
X31994286Y-43113390D02*
X32041905Y-42922914D01*
X32041905Y-42922914D02*
X32089524Y-42827676D01*
X32089524Y-42827676D02*
X32184762Y-42732438D01*
X32184762Y-42732438D02*
X32327619Y-42684819D01*
X32327619Y-42684819D02*
X32422857Y-42684819D01*
X32422857Y-42684819D02*
X32565714Y-42732438D01*
X32565714Y-42732438D02*
X32613333Y-42780057D01*
X32994286Y-42780057D02*
X33041905Y-42732438D01*
X33041905Y-42732438D02*
X33137143Y-42684819D01*
X33137143Y-42684819D02*
X33375238Y-42684819D01*
X33375238Y-42684819D02*
X33470476Y-42732438D01*
X33470476Y-42732438D02*
X33518095Y-42780057D01*
X33518095Y-42780057D02*
X33565714Y-42875295D01*
X33565714Y-42875295D02*
X33565714Y-42970533D01*
X33565714Y-42970533D02*
X33518095Y-43113390D01*
X33518095Y-43113390D02*
X32946667Y-43684819D01*
X32946667Y-43684819D02*
X33565714Y-43684819D01*
X51124819Y-59623333D02*
X51839104Y-59623333D01*
X51839104Y-59623333D02*
X51981961Y-59670952D01*
X51981961Y-59670952D02*
X52077200Y-59766190D01*
X52077200Y-59766190D02*
X52124819Y-59909047D01*
X52124819Y-59909047D02*
X52124819Y-60004285D01*
X51458152Y-58718571D02*
X52124819Y-58718571D01*
X51077200Y-58956666D02*
X51791485Y-59194761D01*
X51791485Y-59194761D02*
X51791485Y-58575714D01*
X85953905Y-33534819D02*
X85953905Y-32534819D01*
X85953905Y-32534819D02*
X86192000Y-32534819D01*
X86192000Y-32534819D02*
X86334857Y-32582438D01*
X86334857Y-32582438D02*
X86430095Y-32677676D01*
X86430095Y-32677676D02*
X86477714Y-32772914D01*
X86477714Y-32772914D02*
X86525333Y-32963390D01*
X86525333Y-32963390D02*
X86525333Y-33106247D01*
X86525333Y-33106247D02*
X86477714Y-33296723D01*
X86477714Y-33296723D02*
X86430095Y-33391961D01*
X86430095Y-33391961D02*
X86334857Y-33487200D01*
X86334857Y-33487200D02*
X86192000Y-33534819D01*
X86192000Y-33534819D02*
X85953905Y-33534819D01*
X87382476Y-32868152D02*
X87382476Y-33534819D01*
X87144381Y-32487200D02*
X86906286Y-33201485D01*
X86906286Y-33201485D02*
X87525333Y-33201485D01*
X79247142Y-23734819D02*
X78913809Y-23258628D01*
X78675714Y-23734819D02*
X78675714Y-22734819D01*
X78675714Y-22734819D02*
X79056666Y-22734819D01*
X79056666Y-22734819D02*
X79151904Y-22782438D01*
X79151904Y-22782438D02*
X79199523Y-22830057D01*
X79199523Y-22830057D02*
X79247142Y-22925295D01*
X79247142Y-22925295D02*
X79247142Y-23068152D01*
X79247142Y-23068152D02*
X79199523Y-23163390D01*
X79199523Y-23163390D02*
X79151904Y-23211009D01*
X79151904Y-23211009D02*
X79056666Y-23258628D01*
X79056666Y-23258628D02*
X78675714Y-23258628D01*
X80199523Y-23734819D02*
X79628095Y-23734819D01*
X79913809Y-23734819D02*
X79913809Y-22734819D01*
X79913809Y-22734819D02*
X79818571Y-22877676D01*
X79818571Y-22877676D02*
X79723333Y-22972914D01*
X79723333Y-22972914D02*
X79628095Y-23020533D01*
X81151904Y-23734819D02*
X80580476Y-23734819D01*
X80866190Y-23734819D02*
X80866190Y-22734819D01*
X80866190Y-22734819D02*
X80770952Y-22877676D01*
X80770952Y-22877676D02*
X80675714Y-22972914D01*
X80675714Y-22972914D02*
X80580476Y-23020533D01*
X38204761Y-12260057D02*
X38109523Y-12212438D01*
X38109523Y-12212438D02*
X38014285Y-12117200D01*
X38014285Y-12117200D02*
X37871428Y-11974342D01*
X37871428Y-11974342D02*
X37776190Y-11926723D01*
X37776190Y-11926723D02*
X37680952Y-11926723D01*
X37728571Y-12164819D02*
X37633333Y-12117200D01*
X37633333Y-12117200D02*
X37538095Y-12021961D01*
X37538095Y-12021961D02*
X37490476Y-11831485D01*
X37490476Y-11831485D02*
X37490476Y-11498152D01*
X37490476Y-11498152D02*
X37538095Y-11307676D01*
X37538095Y-11307676D02*
X37633333Y-11212438D01*
X37633333Y-11212438D02*
X37728571Y-11164819D01*
X37728571Y-11164819D02*
X37919047Y-11164819D01*
X37919047Y-11164819D02*
X38014285Y-11212438D01*
X38014285Y-11212438D02*
X38109523Y-11307676D01*
X38109523Y-11307676D02*
X38157142Y-11498152D01*
X38157142Y-11498152D02*
X38157142Y-11831485D01*
X38157142Y-11831485D02*
X38109523Y-12021961D01*
X38109523Y-12021961D02*
X38014285Y-12117200D01*
X38014285Y-12117200D02*
X37919047Y-12164819D01*
X37919047Y-12164819D02*
X37728571Y-12164819D01*
X39109523Y-12164819D02*
X38538095Y-12164819D01*
X38823809Y-12164819D02*
X38823809Y-11164819D01*
X38823809Y-11164819D02*
X38728571Y-11307676D01*
X38728571Y-11307676D02*
X38633333Y-11402914D01*
X38633333Y-11402914D02*
X38538095Y-11450533D01*
X61559580Y-50786666D02*
X61607200Y-50834285D01*
X61607200Y-50834285D02*
X61654819Y-50977142D01*
X61654819Y-50977142D02*
X61654819Y-51072380D01*
X61654819Y-51072380D02*
X61607200Y-51215237D01*
X61607200Y-51215237D02*
X61511961Y-51310475D01*
X61511961Y-51310475D02*
X61416723Y-51358094D01*
X61416723Y-51358094D02*
X61226247Y-51405713D01*
X61226247Y-51405713D02*
X61083390Y-51405713D01*
X61083390Y-51405713D02*
X60892914Y-51358094D01*
X60892914Y-51358094D02*
X60797676Y-51310475D01*
X60797676Y-51310475D02*
X60702438Y-51215237D01*
X60702438Y-51215237D02*
X60654819Y-51072380D01*
X60654819Y-51072380D02*
X60654819Y-50977142D01*
X60654819Y-50977142D02*
X60702438Y-50834285D01*
X60702438Y-50834285D02*
X60750057Y-50786666D01*
X60654819Y-50453332D02*
X60654819Y-49834285D01*
X60654819Y-49834285D02*
X61035771Y-50167618D01*
X61035771Y-50167618D02*
X61035771Y-50024761D01*
X61035771Y-50024761D02*
X61083390Y-49929523D01*
X61083390Y-49929523D02*
X61131009Y-49881904D01*
X61131009Y-49881904D02*
X61226247Y-49834285D01*
X61226247Y-49834285D02*
X61464342Y-49834285D01*
X61464342Y-49834285D02*
X61559580Y-49881904D01*
X61559580Y-49881904D02*
X61607200Y-49929523D01*
X61607200Y-49929523D02*
X61654819Y-50024761D01*
X61654819Y-50024761D02*
X61654819Y-50310475D01*
X61654819Y-50310475D02*
X61607200Y-50405713D01*
X61607200Y-50405713D02*
X61559580Y-50453332D01*
X73269580Y-14406666D02*
X73317200Y-14454285D01*
X73317200Y-14454285D02*
X73364819Y-14597142D01*
X73364819Y-14597142D02*
X73364819Y-14692380D01*
X73364819Y-14692380D02*
X73317200Y-14835237D01*
X73317200Y-14835237D02*
X73221961Y-14930475D01*
X73221961Y-14930475D02*
X73126723Y-14978094D01*
X73126723Y-14978094D02*
X72936247Y-15025713D01*
X72936247Y-15025713D02*
X72793390Y-15025713D01*
X72793390Y-15025713D02*
X72602914Y-14978094D01*
X72602914Y-14978094D02*
X72507676Y-14930475D01*
X72507676Y-14930475D02*
X72412438Y-14835237D01*
X72412438Y-14835237D02*
X72364819Y-14692380D01*
X72364819Y-14692380D02*
X72364819Y-14597142D01*
X72364819Y-14597142D02*
X72412438Y-14454285D01*
X72412438Y-14454285D02*
X72460057Y-14406666D01*
X72364819Y-13501904D02*
X72364819Y-13978094D01*
X72364819Y-13978094D02*
X72841009Y-14025713D01*
X72841009Y-14025713D02*
X72793390Y-13978094D01*
X72793390Y-13978094D02*
X72745771Y-13882856D01*
X72745771Y-13882856D02*
X72745771Y-13644761D01*
X72745771Y-13644761D02*
X72793390Y-13549523D01*
X72793390Y-13549523D02*
X72841009Y-13501904D01*
X72841009Y-13501904D02*
X72936247Y-13454285D01*
X72936247Y-13454285D02*
X73174342Y-13454285D01*
X73174342Y-13454285D02*
X73269580Y-13501904D01*
X73269580Y-13501904D02*
X73317200Y-13549523D01*
X73317200Y-13549523D02*
X73364819Y-13644761D01*
X73364819Y-13644761D02*
X73364819Y-13882856D01*
X73364819Y-13882856D02*
X73317200Y-13978094D01*
X73317200Y-13978094D02*
X73269580Y-14025713D01*
X32356666Y-50444819D02*
X32356666Y-51159104D01*
X32356666Y-51159104D02*
X32309047Y-51301961D01*
X32309047Y-51301961D02*
X32213809Y-51397200D01*
X32213809Y-51397200D02*
X32070952Y-51444819D01*
X32070952Y-51444819D02*
X31975714Y-51444819D01*
X33356666Y-51444819D02*
X32785238Y-51444819D01*
X33070952Y-51444819D02*
X33070952Y-50444819D01*
X33070952Y-50444819D02*
X32975714Y-50587676D01*
X32975714Y-50587676D02*
X32880476Y-50682914D01*
X32880476Y-50682914D02*
X32785238Y-50730533D01*
X70433333Y-34854819D02*
X70100000Y-34378628D01*
X69861905Y-34854819D02*
X69861905Y-33854819D01*
X69861905Y-33854819D02*
X70242857Y-33854819D01*
X70242857Y-33854819D02*
X70338095Y-33902438D01*
X70338095Y-33902438D02*
X70385714Y-33950057D01*
X70385714Y-33950057D02*
X70433333Y-34045295D01*
X70433333Y-34045295D02*
X70433333Y-34188152D01*
X70433333Y-34188152D02*
X70385714Y-34283390D01*
X70385714Y-34283390D02*
X70338095Y-34331009D01*
X70338095Y-34331009D02*
X70242857Y-34378628D01*
X70242857Y-34378628D02*
X69861905Y-34378628D01*
X71290476Y-33854819D02*
X71100000Y-33854819D01*
X71100000Y-33854819D02*
X71004762Y-33902438D01*
X71004762Y-33902438D02*
X70957143Y-33950057D01*
X70957143Y-33950057D02*
X70861905Y-34092914D01*
X70861905Y-34092914D02*
X70814286Y-34283390D01*
X70814286Y-34283390D02*
X70814286Y-34664342D01*
X70814286Y-34664342D02*
X70861905Y-34759580D01*
X70861905Y-34759580D02*
X70909524Y-34807200D01*
X70909524Y-34807200D02*
X71004762Y-34854819D01*
X71004762Y-34854819D02*
X71195238Y-34854819D01*
X71195238Y-34854819D02*
X71290476Y-34807200D01*
X71290476Y-34807200D02*
X71338095Y-34759580D01*
X71338095Y-34759580D02*
X71385714Y-34664342D01*
X71385714Y-34664342D02*
X71385714Y-34426247D01*
X71385714Y-34426247D02*
X71338095Y-34331009D01*
X71338095Y-34331009D02*
X71290476Y-34283390D01*
X71290476Y-34283390D02*
X71195238Y-34235771D01*
X71195238Y-34235771D02*
X71004762Y-34235771D01*
X71004762Y-34235771D02*
X70909524Y-34283390D01*
X70909524Y-34283390D02*
X70861905Y-34331009D01*
X70861905Y-34331009D02*
X70814286Y-34426247D01*
X88817142Y-4684819D02*
X88483809Y-4208628D01*
X88245714Y-4684819D02*
X88245714Y-3684819D01*
X88245714Y-3684819D02*
X88626666Y-3684819D01*
X88626666Y-3684819D02*
X88721904Y-3732438D01*
X88721904Y-3732438D02*
X88769523Y-3780057D01*
X88769523Y-3780057D02*
X88817142Y-3875295D01*
X88817142Y-3875295D02*
X88817142Y-4018152D01*
X88817142Y-4018152D02*
X88769523Y-4113390D01*
X88769523Y-4113390D02*
X88721904Y-4161009D01*
X88721904Y-4161009D02*
X88626666Y-4208628D01*
X88626666Y-4208628D02*
X88245714Y-4208628D01*
X89769523Y-4684819D02*
X89198095Y-4684819D01*
X89483809Y-4684819D02*
X89483809Y-3684819D01*
X89483809Y-3684819D02*
X89388571Y-3827676D01*
X89388571Y-3827676D02*
X89293333Y-3922914D01*
X89293333Y-3922914D02*
X89198095Y-3970533D01*
X90245714Y-4684819D02*
X90436190Y-4684819D01*
X90436190Y-4684819D02*
X90531428Y-4637200D01*
X90531428Y-4637200D02*
X90579047Y-4589580D01*
X90579047Y-4589580D02*
X90674285Y-4446723D01*
X90674285Y-4446723D02*
X90721904Y-4256247D01*
X90721904Y-4256247D02*
X90721904Y-3875295D01*
X90721904Y-3875295D02*
X90674285Y-3780057D01*
X90674285Y-3780057D02*
X90626666Y-3732438D01*
X90626666Y-3732438D02*
X90531428Y-3684819D01*
X90531428Y-3684819D02*
X90340952Y-3684819D01*
X90340952Y-3684819D02*
X90245714Y-3732438D01*
X90245714Y-3732438D02*
X90198095Y-3780057D01*
X90198095Y-3780057D02*
X90150476Y-3875295D01*
X90150476Y-3875295D02*
X90150476Y-4113390D01*
X90150476Y-4113390D02*
X90198095Y-4208628D01*
X90198095Y-4208628D02*
X90245714Y-4256247D01*
X90245714Y-4256247D02*
X90340952Y-4303866D01*
X90340952Y-4303866D02*
X90531428Y-4303866D01*
X90531428Y-4303866D02*
X90626666Y-4256247D01*
X90626666Y-4256247D02*
X90674285Y-4208628D01*
X90674285Y-4208628D02*
X90721904Y-4113390D01*
X33653333Y-49279580D02*
X33605714Y-49327200D01*
X33605714Y-49327200D02*
X33462857Y-49374819D01*
X33462857Y-49374819D02*
X33367619Y-49374819D01*
X33367619Y-49374819D02*
X33224762Y-49327200D01*
X33224762Y-49327200D02*
X33129524Y-49231961D01*
X33129524Y-49231961D02*
X33081905Y-49136723D01*
X33081905Y-49136723D02*
X33034286Y-48946247D01*
X33034286Y-48946247D02*
X33034286Y-48803390D01*
X33034286Y-48803390D02*
X33081905Y-48612914D01*
X33081905Y-48612914D02*
X33129524Y-48517676D01*
X33129524Y-48517676D02*
X33224762Y-48422438D01*
X33224762Y-48422438D02*
X33367619Y-48374819D01*
X33367619Y-48374819D02*
X33462857Y-48374819D01*
X33462857Y-48374819D02*
X33605714Y-48422438D01*
X33605714Y-48422438D02*
X33653333Y-48470057D01*
X34605714Y-49374819D02*
X34034286Y-49374819D01*
X34320000Y-49374819D02*
X34320000Y-48374819D01*
X34320000Y-48374819D02*
X34224762Y-48517676D01*
X34224762Y-48517676D02*
X34129524Y-48612914D01*
X34129524Y-48612914D02*
X34034286Y-48660533D01*
X86317142Y-27154819D02*
X85983809Y-26678628D01*
X85745714Y-27154819D02*
X85745714Y-26154819D01*
X85745714Y-26154819D02*
X86126666Y-26154819D01*
X86126666Y-26154819D02*
X86221904Y-26202438D01*
X86221904Y-26202438D02*
X86269523Y-26250057D01*
X86269523Y-26250057D02*
X86317142Y-26345295D01*
X86317142Y-26345295D02*
X86317142Y-26488152D01*
X86317142Y-26488152D02*
X86269523Y-26583390D01*
X86269523Y-26583390D02*
X86221904Y-26631009D01*
X86221904Y-26631009D02*
X86126666Y-26678628D01*
X86126666Y-26678628D02*
X85745714Y-26678628D01*
X87269523Y-27154819D02*
X86698095Y-27154819D01*
X86983809Y-27154819D02*
X86983809Y-26154819D01*
X86983809Y-26154819D02*
X86888571Y-26297676D01*
X86888571Y-26297676D02*
X86793333Y-26392914D01*
X86793333Y-26392914D02*
X86698095Y-26440533D01*
X88126666Y-26488152D02*
X88126666Y-27154819D01*
X87888571Y-26107200D02*
X87650476Y-26821485D01*
X87650476Y-26821485D02*
X88269523Y-26821485D01*
X56364819Y-17616666D02*
X55888628Y-17949999D01*
X56364819Y-18188094D02*
X55364819Y-18188094D01*
X55364819Y-18188094D02*
X55364819Y-17807142D01*
X55364819Y-17807142D02*
X55412438Y-17711904D01*
X55412438Y-17711904D02*
X55460057Y-17664285D01*
X55460057Y-17664285D02*
X55555295Y-17616666D01*
X55555295Y-17616666D02*
X55698152Y-17616666D01*
X55698152Y-17616666D02*
X55793390Y-17664285D01*
X55793390Y-17664285D02*
X55841009Y-17711904D01*
X55841009Y-17711904D02*
X55888628Y-17807142D01*
X55888628Y-17807142D02*
X55888628Y-18188094D01*
X55793390Y-17045237D02*
X55745771Y-17140475D01*
X55745771Y-17140475D02*
X55698152Y-17188094D01*
X55698152Y-17188094D02*
X55602914Y-17235713D01*
X55602914Y-17235713D02*
X55555295Y-17235713D01*
X55555295Y-17235713D02*
X55460057Y-17188094D01*
X55460057Y-17188094D02*
X55412438Y-17140475D01*
X55412438Y-17140475D02*
X55364819Y-17045237D01*
X55364819Y-17045237D02*
X55364819Y-16854761D01*
X55364819Y-16854761D02*
X55412438Y-16759523D01*
X55412438Y-16759523D02*
X55460057Y-16711904D01*
X55460057Y-16711904D02*
X55555295Y-16664285D01*
X55555295Y-16664285D02*
X55602914Y-16664285D01*
X55602914Y-16664285D02*
X55698152Y-16711904D01*
X55698152Y-16711904D02*
X55745771Y-16759523D01*
X55745771Y-16759523D02*
X55793390Y-16854761D01*
X55793390Y-16854761D02*
X55793390Y-17045237D01*
X55793390Y-17045237D02*
X55841009Y-17140475D01*
X55841009Y-17140475D02*
X55888628Y-17188094D01*
X55888628Y-17188094D02*
X55983866Y-17235713D01*
X55983866Y-17235713D02*
X56174342Y-17235713D01*
X56174342Y-17235713D02*
X56269580Y-17188094D01*
X56269580Y-17188094D02*
X56317200Y-17140475D01*
X56317200Y-17140475D02*
X56364819Y-17045237D01*
X56364819Y-17045237D02*
X56364819Y-16854761D01*
X56364819Y-16854761D02*
X56317200Y-16759523D01*
X56317200Y-16759523D02*
X56269580Y-16711904D01*
X56269580Y-16711904D02*
X56174342Y-16664285D01*
X56174342Y-16664285D02*
X55983866Y-16664285D01*
X55983866Y-16664285D02*
X55888628Y-16711904D01*
X55888628Y-16711904D02*
X55841009Y-16759523D01*
X55841009Y-16759523D02*
X55793390Y-16854761D01*
X48614819Y-26012857D02*
X48138628Y-26346190D01*
X48614819Y-26584285D02*
X47614819Y-26584285D01*
X47614819Y-26584285D02*
X47614819Y-26203333D01*
X47614819Y-26203333D02*
X47662438Y-26108095D01*
X47662438Y-26108095D02*
X47710057Y-26060476D01*
X47710057Y-26060476D02*
X47805295Y-26012857D01*
X47805295Y-26012857D02*
X47948152Y-26012857D01*
X47948152Y-26012857D02*
X48043390Y-26060476D01*
X48043390Y-26060476D02*
X48091009Y-26108095D01*
X48091009Y-26108095D02*
X48138628Y-26203333D01*
X48138628Y-26203333D02*
X48138628Y-26584285D01*
X48614819Y-25060476D02*
X48614819Y-25631904D01*
X48614819Y-25346190D02*
X47614819Y-25346190D01*
X47614819Y-25346190D02*
X47757676Y-25441428D01*
X47757676Y-25441428D02*
X47852914Y-25536666D01*
X47852914Y-25536666D02*
X47900533Y-25631904D01*
X47614819Y-24441428D02*
X47614819Y-24346190D01*
X47614819Y-24346190D02*
X47662438Y-24250952D01*
X47662438Y-24250952D02*
X47710057Y-24203333D01*
X47710057Y-24203333D02*
X47805295Y-24155714D01*
X47805295Y-24155714D02*
X47995771Y-24108095D01*
X47995771Y-24108095D02*
X48233866Y-24108095D01*
X48233866Y-24108095D02*
X48424342Y-24155714D01*
X48424342Y-24155714D02*
X48519580Y-24203333D01*
X48519580Y-24203333D02*
X48567200Y-24250952D01*
X48567200Y-24250952D02*
X48614819Y-24346190D01*
X48614819Y-24346190D02*
X48614819Y-24441428D01*
X48614819Y-24441428D02*
X48567200Y-24536666D01*
X48567200Y-24536666D02*
X48519580Y-24584285D01*
X48519580Y-24584285D02*
X48424342Y-24631904D01*
X48424342Y-24631904D02*
X48233866Y-24679523D01*
X48233866Y-24679523D02*
X47995771Y-24679523D01*
X47995771Y-24679523D02*
X47805295Y-24631904D01*
X47805295Y-24631904D02*
X47710057Y-24584285D01*
X47710057Y-24584285D02*
X47662438Y-24536666D01*
X47662438Y-24536666D02*
X47614819Y-24441428D01*
X68827142Y-7854819D02*
X68493809Y-7378628D01*
X68255714Y-7854819D02*
X68255714Y-6854819D01*
X68255714Y-6854819D02*
X68636666Y-6854819D01*
X68636666Y-6854819D02*
X68731904Y-6902438D01*
X68731904Y-6902438D02*
X68779523Y-6950057D01*
X68779523Y-6950057D02*
X68827142Y-7045295D01*
X68827142Y-7045295D02*
X68827142Y-7188152D01*
X68827142Y-7188152D02*
X68779523Y-7283390D01*
X68779523Y-7283390D02*
X68731904Y-7331009D01*
X68731904Y-7331009D02*
X68636666Y-7378628D01*
X68636666Y-7378628D02*
X68255714Y-7378628D01*
X69208095Y-6950057D02*
X69255714Y-6902438D01*
X69255714Y-6902438D02*
X69350952Y-6854819D01*
X69350952Y-6854819D02*
X69589047Y-6854819D01*
X69589047Y-6854819D02*
X69684285Y-6902438D01*
X69684285Y-6902438D02*
X69731904Y-6950057D01*
X69731904Y-6950057D02*
X69779523Y-7045295D01*
X69779523Y-7045295D02*
X69779523Y-7140533D01*
X69779523Y-7140533D02*
X69731904Y-7283390D01*
X69731904Y-7283390D02*
X69160476Y-7854819D01*
X69160476Y-7854819D02*
X69779523Y-7854819D01*
X70398571Y-6854819D02*
X70493809Y-6854819D01*
X70493809Y-6854819D02*
X70589047Y-6902438D01*
X70589047Y-6902438D02*
X70636666Y-6950057D01*
X70636666Y-6950057D02*
X70684285Y-7045295D01*
X70684285Y-7045295D02*
X70731904Y-7235771D01*
X70731904Y-7235771D02*
X70731904Y-7473866D01*
X70731904Y-7473866D02*
X70684285Y-7664342D01*
X70684285Y-7664342D02*
X70636666Y-7759580D01*
X70636666Y-7759580D02*
X70589047Y-7807200D01*
X70589047Y-7807200D02*
X70493809Y-7854819D01*
X70493809Y-7854819D02*
X70398571Y-7854819D01*
X70398571Y-7854819D02*
X70303333Y-7807200D01*
X70303333Y-7807200D02*
X70255714Y-7759580D01*
X70255714Y-7759580D02*
X70208095Y-7664342D01*
X70208095Y-7664342D02*
X70160476Y-7473866D01*
X70160476Y-7473866D02*
X70160476Y-7235771D01*
X70160476Y-7235771D02*
X70208095Y-7045295D01*
X70208095Y-7045295D02*
X70255714Y-6950057D01*
X70255714Y-6950057D02*
X70303333Y-6902438D01*
X70303333Y-6902438D02*
X70398571Y-6854819D01*
X54624761Y-4820057D02*
X54529523Y-4772438D01*
X54529523Y-4772438D02*
X54434285Y-4677200D01*
X54434285Y-4677200D02*
X54291428Y-4534342D01*
X54291428Y-4534342D02*
X54196190Y-4486723D01*
X54196190Y-4486723D02*
X54100952Y-4486723D01*
X54148571Y-4724819D02*
X54053333Y-4677200D01*
X54053333Y-4677200D02*
X53958095Y-4581961D01*
X53958095Y-4581961D02*
X53910476Y-4391485D01*
X53910476Y-4391485D02*
X53910476Y-4058152D01*
X53910476Y-4058152D02*
X53958095Y-3867676D01*
X53958095Y-3867676D02*
X54053333Y-3772438D01*
X54053333Y-3772438D02*
X54148571Y-3724819D01*
X54148571Y-3724819D02*
X54339047Y-3724819D01*
X54339047Y-3724819D02*
X54434285Y-3772438D01*
X54434285Y-3772438D02*
X54529523Y-3867676D01*
X54529523Y-3867676D02*
X54577142Y-4058152D01*
X54577142Y-4058152D02*
X54577142Y-4391485D01*
X54577142Y-4391485D02*
X54529523Y-4581961D01*
X54529523Y-4581961D02*
X54434285Y-4677200D01*
X54434285Y-4677200D02*
X54339047Y-4724819D01*
X54339047Y-4724819D02*
X54148571Y-4724819D01*
X55434285Y-4058152D02*
X55434285Y-4724819D01*
X55196190Y-3677200D02*
X54958095Y-4391485D01*
X54958095Y-4391485D02*
X55577142Y-4391485D01*
X76844819Y-52388094D02*
X75844819Y-52388094D01*
X75844819Y-52388094D02*
X75844819Y-52149999D01*
X75844819Y-52149999D02*
X75892438Y-52007142D01*
X75892438Y-52007142D02*
X75987676Y-51911904D01*
X75987676Y-51911904D02*
X76082914Y-51864285D01*
X76082914Y-51864285D02*
X76273390Y-51816666D01*
X76273390Y-51816666D02*
X76416247Y-51816666D01*
X76416247Y-51816666D02*
X76606723Y-51864285D01*
X76606723Y-51864285D02*
X76701961Y-51911904D01*
X76701961Y-51911904D02*
X76797200Y-52007142D01*
X76797200Y-52007142D02*
X76844819Y-52149999D01*
X76844819Y-52149999D02*
X76844819Y-52388094D01*
X75844819Y-50959523D02*
X75844819Y-51149999D01*
X75844819Y-51149999D02*
X75892438Y-51245237D01*
X75892438Y-51245237D02*
X75940057Y-51292856D01*
X75940057Y-51292856D02*
X76082914Y-51388094D01*
X76082914Y-51388094D02*
X76273390Y-51435713D01*
X76273390Y-51435713D02*
X76654342Y-51435713D01*
X76654342Y-51435713D02*
X76749580Y-51388094D01*
X76749580Y-51388094D02*
X76797200Y-51340475D01*
X76797200Y-51340475D02*
X76844819Y-51245237D01*
X76844819Y-51245237D02*
X76844819Y-51054761D01*
X76844819Y-51054761D02*
X76797200Y-50959523D01*
X76797200Y-50959523D02*
X76749580Y-50911904D01*
X76749580Y-50911904D02*
X76654342Y-50864285D01*
X76654342Y-50864285D02*
X76416247Y-50864285D01*
X76416247Y-50864285D02*
X76321009Y-50911904D01*
X76321009Y-50911904D02*
X76273390Y-50959523D01*
X76273390Y-50959523D02*
X76225771Y-51054761D01*
X76225771Y-51054761D02*
X76225771Y-51245237D01*
X76225771Y-51245237D02*
X76273390Y-51340475D01*
X76273390Y-51340475D02*
X76321009Y-51388094D01*
X76321009Y-51388094D02*
X76416247Y-51435713D01*
X79208095Y-18374819D02*
X79208095Y-19184342D01*
X79208095Y-19184342D02*
X79255714Y-19279580D01*
X79255714Y-19279580D02*
X79303333Y-19327200D01*
X79303333Y-19327200D02*
X79398571Y-19374819D01*
X79398571Y-19374819D02*
X79589047Y-19374819D01*
X79589047Y-19374819D02*
X79684285Y-19327200D01*
X79684285Y-19327200D02*
X79731904Y-19279580D01*
X79731904Y-19279580D02*
X79779523Y-19184342D01*
X79779523Y-19184342D02*
X79779523Y-18374819D01*
X80160476Y-18374819D02*
X80779523Y-18374819D01*
X80779523Y-18374819D02*
X80446190Y-18755771D01*
X80446190Y-18755771D02*
X80589047Y-18755771D01*
X80589047Y-18755771D02*
X80684285Y-18803390D01*
X80684285Y-18803390D02*
X80731904Y-18851009D01*
X80731904Y-18851009D02*
X80779523Y-18946247D01*
X80779523Y-18946247D02*
X80779523Y-19184342D01*
X80779523Y-19184342D02*
X80731904Y-19279580D01*
X80731904Y-19279580D02*
X80684285Y-19327200D01*
X80684285Y-19327200D02*
X80589047Y-19374819D01*
X80589047Y-19374819D02*
X80303333Y-19374819D01*
X80303333Y-19374819D02*
X80208095Y-19327200D01*
X80208095Y-19327200D02*
X80160476Y-19279580D01*
X35344819Y-13826666D02*
X34868628Y-14159999D01*
X35344819Y-14398094D02*
X34344819Y-14398094D01*
X34344819Y-14398094D02*
X34344819Y-14017142D01*
X34344819Y-14017142D02*
X34392438Y-13921904D01*
X34392438Y-13921904D02*
X34440057Y-13874285D01*
X34440057Y-13874285D02*
X34535295Y-13826666D01*
X34535295Y-13826666D02*
X34678152Y-13826666D01*
X34678152Y-13826666D02*
X34773390Y-13874285D01*
X34773390Y-13874285D02*
X34821009Y-13921904D01*
X34821009Y-13921904D02*
X34868628Y-14017142D01*
X34868628Y-14017142D02*
X34868628Y-14398094D01*
X34344819Y-13493332D02*
X34344819Y-12874285D01*
X34344819Y-12874285D02*
X34725771Y-13207618D01*
X34725771Y-13207618D02*
X34725771Y-13064761D01*
X34725771Y-13064761D02*
X34773390Y-12969523D01*
X34773390Y-12969523D02*
X34821009Y-12921904D01*
X34821009Y-12921904D02*
X34916247Y-12874285D01*
X34916247Y-12874285D02*
X35154342Y-12874285D01*
X35154342Y-12874285D02*
X35249580Y-12921904D01*
X35249580Y-12921904D02*
X35297200Y-12969523D01*
X35297200Y-12969523D02*
X35344819Y-13064761D01*
X35344819Y-13064761D02*
X35344819Y-13350475D01*
X35344819Y-13350475D02*
X35297200Y-13445713D01*
X35297200Y-13445713D02*
X35249580Y-13493332D01*
X43838819Y-36264857D02*
X43362628Y-36598190D01*
X43838819Y-36836285D02*
X42838819Y-36836285D01*
X42838819Y-36836285D02*
X42838819Y-36455333D01*
X42838819Y-36455333D02*
X42886438Y-36360095D01*
X42886438Y-36360095D02*
X42934057Y-36312476D01*
X42934057Y-36312476D02*
X43029295Y-36264857D01*
X43029295Y-36264857D02*
X43172152Y-36264857D01*
X43172152Y-36264857D02*
X43267390Y-36312476D01*
X43267390Y-36312476D02*
X43315009Y-36360095D01*
X43315009Y-36360095D02*
X43362628Y-36455333D01*
X43362628Y-36455333D02*
X43362628Y-36836285D01*
X43838819Y-35312476D02*
X43838819Y-35883904D01*
X43838819Y-35598190D02*
X42838819Y-35598190D01*
X42838819Y-35598190D02*
X42981676Y-35693428D01*
X42981676Y-35693428D02*
X43076914Y-35788666D01*
X43076914Y-35788666D02*
X43124533Y-35883904D01*
X42838819Y-34979142D02*
X42838819Y-34312476D01*
X42838819Y-34312476D02*
X43838819Y-34741047D01*
X69783333Y-23739580D02*
X69735714Y-23787200D01*
X69735714Y-23787200D02*
X69592857Y-23834819D01*
X69592857Y-23834819D02*
X69497619Y-23834819D01*
X69497619Y-23834819D02*
X69354762Y-23787200D01*
X69354762Y-23787200D02*
X69259524Y-23691961D01*
X69259524Y-23691961D02*
X69211905Y-23596723D01*
X69211905Y-23596723D02*
X69164286Y-23406247D01*
X69164286Y-23406247D02*
X69164286Y-23263390D01*
X69164286Y-23263390D02*
X69211905Y-23072914D01*
X69211905Y-23072914D02*
X69259524Y-22977676D01*
X69259524Y-22977676D02*
X69354762Y-22882438D01*
X69354762Y-22882438D02*
X69497619Y-22834819D01*
X69497619Y-22834819D02*
X69592857Y-22834819D01*
X69592857Y-22834819D02*
X69735714Y-22882438D01*
X69735714Y-22882438D02*
X69783333Y-22930057D01*
X70640476Y-22834819D02*
X70450000Y-22834819D01*
X70450000Y-22834819D02*
X70354762Y-22882438D01*
X70354762Y-22882438D02*
X70307143Y-22930057D01*
X70307143Y-22930057D02*
X70211905Y-23072914D01*
X70211905Y-23072914D02*
X70164286Y-23263390D01*
X70164286Y-23263390D02*
X70164286Y-23644342D01*
X70164286Y-23644342D02*
X70211905Y-23739580D01*
X70211905Y-23739580D02*
X70259524Y-23787200D01*
X70259524Y-23787200D02*
X70354762Y-23834819D01*
X70354762Y-23834819D02*
X70545238Y-23834819D01*
X70545238Y-23834819D02*
X70640476Y-23787200D01*
X70640476Y-23787200D02*
X70688095Y-23739580D01*
X70688095Y-23739580D02*
X70735714Y-23644342D01*
X70735714Y-23644342D02*
X70735714Y-23406247D01*
X70735714Y-23406247D02*
X70688095Y-23311009D01*
X70688095Y-23311009D02*
X70640476Y-23263390D01*
X70640476Y-23263390D02*
X70545238Y-23215771D01*
X70545238Y-23215771D02*
X70354762Y-23215771D01*
X70354762Y-23215771D02*
X70259524Y-23263390D01*
X70259524Y-23263390D02*
X70211905Y-23311009D01*
X70211905Y-23311009D02*
X70164286Y-23406247D01*
X72514819Y-42123333D02*
X73229104Y-42123333D01*
X73229104Y-42123333D02*
X73371961Y-42170952D01*
X73371961Y-42170952D02*
X73467200Y-42266190D01*
X73467200Y-42266190D02*
X73514819Y-42409047D01*
X73514819Y-42409047D02*
X73514819Y-42504285D01*
X72514819Y-41170952D02*
X72514819Y-41647142D01*
X72514819Y-41647142D02*
X72991009Y-41694761D01*
X72991009Y-41694761D02*
X72943390Y-41647142D01*
X72943390Y-41647142D02*
X72895771Y-41551904D01*
X72895771Y-41551904D02*
X72895771Y-41313809D01*
X72895771Y-41313809D02*
X72943390Y-41218571D01*
X72943390Y-41218571D02*
X72991009Y-41170952D01*
X72991009Y-41170952D02*
X73086247Y-41123333D01*
X73086247Y-41123333D02*
X73324342Y-41123333D01*
X73324342Y-41123333D02*
X73419580Y-41170952D01*
X73419580Y-41170952D02*
X73467200Y-41218571D01*
X73467200Y-41218571D02*
X73514819Y-41313809D01*
X73514819Y-41313809D02*
X73514819Y-41551904D01*
X73514819Y-41551904D02*
X73467200Y-41647142D01*
X73467200Y-41647142D02*
X73419580Y-41694761D01*
X72854819Y-53108094D02*
X71854819Y-53108094D01*
X71854819Y-53108094D02*
X71854819Y-52869999D01*
X71854819Y-52869999D02*
X71902438Y-52727142D01*
X71902438Y-52727142D02*
X71997676Y-52631904D01*
X71997676Y-52631904D02*
X72092914Y-52584285D01*
X72092914Y-52584285D02*
X72283390Y-52536666D01*
X72283390Y-52536666D02*
X72426247Y-52536666D01*
X72426247Y-52536666D02*
X72616723Y-52584285D01*
X72616723Y-52584285D02*
X72711961Y-52631904D01*
X72711961Y-52631904D02*
X72807200Y-52727142D01*
X72807200Y-52727142D02*
X72854819Y-52869999D01*
X72854819Y-52869999D02*
X72854819Y-53108094D01*
X71854819Y-51631904D02*
X71854819Y-52108094D01*
X71854819Y-52108094D02*
X72331009Y-52155713D01*
X72331009Y-52155713D02*
X72283390Y-52108094D01*
X72283390Y-52108094D02*
X72235771Y-52012856D01*
X72235771Y-52012856D02*
X72235771Y-51774761D01*
X72235771Y-51774761D02*
X72283390Y-51679523D01*
X72283390Y-51679523D02*
X72331009Y-51631904D01*
X72331009Y-51631904D02*
X72426247Y-51584285D01*
X72426247Y-51584285D02*
X72664342Y-51584285D01*
X72664342Y-51584285D02*
X72759580Y-51631904D01*
X72759580Y-51631904D02*
X72807200Y-51679523D01*
X72807200Y-51679523D02*
X72854819Y-51774761D01*
X72854819Y-51774761D02*
X72854819Y-52012856D01*
X72854819Y-52012856D02*
X72807200Y-52108094D01*
X72807200Y-52108094D02*
X72759580Y-52155713D01*
X93003333Y-19919580D02*
X92955714Y-19967200D01*
X92955714Y-19967200D02*
X92812857Y-20014819D01*
X92812857Y-20014819D02*
X92717619Y-20014819D01*
X92717619Y-20014819D02*
X92574762Y-19967200D01*
X92574762Y-19967200D02*
X92479524Y-19871961D01*
X92479524Y-19871961D02*
X92431905Y-19776723D01*
X92431905Y-19776723D02*
X92384286Y-19586247D01*
X92384286Y-19586247D02*
X92384286Y-19443390D01*
X92384286Y-19443390D02*
X92431905Y-19252914D01*
X92431905Y-19252914D02*
X92479524Y-19157676D01*
X92479524Y-19157676D02*
X92574762Y-19062438D01*
X92574762Y-19062438D02*
X92717619Y-19014819D01*
X92717619Y-19014819D02*
X92812857Y-19014819D01*
X92812857Y-19014819D02*
X92955714Y-19062438D01*
X92955714Y-19062438D02*
X93003333Y-19110057D01*
X93336667Y-19014819D02*
X94003333Y-19014819D01*
X94003333Y-19014819D02*
X93574762Y-20014819D01*
X32234819Y-30618094D02*
X31234819Y-30618094D01*
X31234819Y-30618094D02*
X31234819Y-30379999D01*
X31234819Y-30379999D02*
X31282438Y-30237142D01*
X31282438Y-30237142D02*
X31377676Y-30141904D01*
X31377676Y-30141904D02*
X31472914Y-30094285D01*
X31472914Y-30094285D02*
X31663390Y-30046666D01*
X31663390Y-30046666D02*
X31806247Y-30046666D01*
X31806247Y-30046666D02*
X31996723Y-30094285D01*
X31996723Y-30094285D02*
X32091961Y-30141904D01*
X32091961Y-30141904D02*
X32187200Y-30237142D01*
X32187200Y-30237142D02*
X32234819Y-30379999D01*
X32234819Y-30379999D02*
X32234819Y-30618094D01*
X32234819Y-29094285D02*
X32234819Y-29665713D01*
X32234819Y-29379999D02*
X31234819Y-29379999D01*
X31234819Y-29379999D02*
X31377676Y-29475237D01*
X31377676Y-29475237D02*
X31472914Y-29570475D01*
X31472914Y-29570475D02*
X31520533Y-29665713D01*
X29444819Y-11406666D02*
X28968628Y-11739999D01*
X29444819Y-11978094D02*
X28444819Y-11978094D01*
X28444819Y-11978094D02*
X28444819Y-11597142D01*
X28444819Y-11597142D02*
X28492438Y-11501904D01*
X28492438Y-11501904D02*
X28540057Y-11454285D01*
X28540057Y-11454285D02*
X28635295Y-11406666D01*
X28635295Y-11406666D02*
X28778152Y-11406666D01*
X28778152Y-11406666D02*
X28873390Y-11454285D01*
X28873390Y-11454285D02*
X28921009Y-11501904D01*
X28921009Y-11501904D02*
X28968628Y-11597142D01*
X28968628Y-11597142D02*
X28968628Y-11978094D01*
X28540057Y-11025713D02*
X28492438Y-10978094D01*
X28492438Y-10978094D02*
X28444819Y-10882856D01*
X28444819Y-10882856D02*
X28444819Y-10644761D01*
X28444819Y-10644761D02*
X28492438Y-10549523D01*
X28492438Y-10549523D02*
X28540057Y-10501904D01*
X28540057Y-10501904D02*
X28635295Y-10454285D01*
X28635295Y-10454285D02*
X28730533Y-10454285D01*
X28730533Y-10454285D02*
X28873390Y-10501904D01*
X28873390Y-10501904D02*
X29444819Y-11073332D01*
X29444819Y-11073332D02*
X29444819Y-10454285D01*
X35478095Y-33624819D02*
X35478095Y-34434342D01*
X35478095Y-34434342D02*
X35525714Y-34529580D01*
X35525714Y-34529580D02*
X35573333Y-34577200D01*
X35573333Y-34577200D02*
X35668571Y-34624819D01*
X35668571Y-34624819D02*
X35859047Y-34624819D01*
X35859047Y-34624819D02*
X35954285Y-34577200D01*
X35954285Y-34577200D02*
X36001904Y-34529580D01*
X36001904Y-34529580D02*
X36049523Y-34434342D01*
X36049523Y-34434342D02*
X36049523Y-33624819D01*
X36478095Y-33720057D02*
X36525714Y-33672438D01*
X36525714Y-33672438D02*
X36620952Y-33624819D01*
X36620952Y-33624819D02*
X36859047Y-33624819D01*
X36859047Y-33624819D02*
X36954285Y-33672438D01*
X36954285Y-33672438D02*
X37001904Y-33720057D01*
X37001904Y-33720057D02*
X37049523Y-33815295D01*
X37049523Y-33815295D02*
X37049523Y-33910533D01*
X37049523Y-33910533D02*
X37001904Y-34053390D01*
X37001904Y-34053390D02*
X36430476Y-34624819D01*
X36430476Y-34624819D02*
X37049523Y-34624819D01*
X48123333Y-17044819D02*
X47790000Y-16568628D01*
X47551905Y-17044819D02*
X47551905Y-16044819D01*
X47551905Y-16044819D02*
X47932857Y-16044819D01*
X47932857Y-16044819D02*
X48028095Y-16092438D01*
X48028095Y-16092438D02*
X48075714Y-16140057D01*
X48075714Y-16140057D02*
X48123333Y-16235295D01*
X48123333Y-16235295D02*
X48123333Y-16378152D01*
X48123333Y-16378152D02*
X48075714Y-16473390D01*
X48075714Y-16473390D02*
X48028095Y-16521009D01*
X48028095Y-16521009D02*
X47932857Y-16568628D01*
X47932857Y-16568628D02*
X47551905Y-16568628D01*
X48980476Y-16378152D02*
X48980476Y-17044819D01*
X48742381Y-15997200D02*
X48504286Y-16711485D01*
X48504286Y-16711485D02*
X49123333Y-16711485D01*
X55314761Y-26760057D02*
X55219523Y-26712438D01*
X55219523Y-26712438D02*
X55124285Y-26617200D01*
X55124285Y-26617200D02*
X54981428Y-26474342D01*
X54981428Y-26474342D02*
X54886190Y-26426723D01*
X54886190Y-26426723D02*
X54790952Y-26426723D01*
X54838571Y-26664819D02*
X54743333Y-26617200D01*
X54743333Y-26617200D02*
X54648095Y-26521961D01*
X54648095Y-26521961D02*
X54600476Y-26331485D01*
X54600476Y-26331485D02*
X54600476Y-25998152D01*
X54600476Y-25998152D02*
X54648095Y-25807676D01*
X54648095Y-25807676D02*
X54743333Y-25712438D01*
X54743333Y-25712438D02*
X54838571Y-25664819D01*
X54838571Y-25664819D02*
X55029047Y-25664819D01*
X55029047Y-25664819D02*
X55124285Y-25712438D01*
X55124285Y-25712438D02*
X55219523Y-25807676D01*
X55219523Y-25807676D02*
X55267142Y-25998152D01*
X55267142Y-25998152D02*
X55267142Y-26331485D01*
X55267142Y-26331485D02*
X55219523Y-26521961D01*
X55219523Y-26521961D02*
X55124285Y-26617200D01*
X55124285Y-26617200D02*
X55029047Y-26664819D01*
X55029047Y-26664819D02*
X54838571Y-26664819D01*
X55600476Y-25664819D02*
X56219523Y-25664819D01*
X56219523Y-25664819D02*
X55886190Y-26045771D01*
X55886190Y-26045771D02*
X56029047Y-26045771D01*
X56029047Y-26045771D02*
X56124285Y-26093390D01*
X56124285Y-26093390D02*
X56171904Y-26141009D01*
X56171904Y-26141009D02*
X56219523Y-26236247D01*
X56219523Y-26236247D02*
X56219523Y-26474342D01*
X56219523Y-26474342D02*
X56171904Y-26569580D01*
X56171904Y-26569580D02*
X56124285Y-26617200D01*
X56124285Y-26617200D02*
X56029047Y-26664819D01*
X56029047Y-26664819D02*
X55743333Y-26664819D01*
X55743333Y-26664819D02*
X55648095Y-26617200D01*
X55648095Y-26617200D02*
X55600476Y-26569580D01*
D11*
%TO.C,C8*%
X88970000Y-17150000D02*
X88655000Y-17150000D01*
X88970000Y-17150000D02*
X88970000Y-22390000D01*
X86545000Y-17150000D02*
X86230000Y-17150000D01*
X86230000Y-17150000D02*
X86230000Y-22390000D01*
X88970000Y-22390000D02*
X88655000Y-22390000D01*
X86545000Y-22390000D02*
X86230000Y-22390000D01*
%TO.C,R1*%
X30000000Y-25540000D02*
X30000000Y-32080000D01*
X29670000Y-25540000D02*
X30000000Y-25540000D01*
X27590000Y-25540000D02*
X27260000Y-25540000D01*
X27260000Y-25540000D02*
X27260000Y-32080000D01*
X30000000Y-32080000D02*
X29670000Y-32080000D01*
X27260000Y-32080000D02*
X27590000Y-32080000D01*
%TO.C,C10*%
X58097000Y-32218457D02*
X58097000Y-33618457D01*
X58797000Y-32918457D02*
X57397000Y-32918457D01*
X61182000Y-39838000D02*
X47022000Y-39838000D01*
X61182000Y-39878000D02*
X47022000Y-39878000D01*
X61182000Y-39918000D02*
X47022000Y-39918000D01*
X61181000Y-39958000D02*
X47023000Y-39958000D01*
X61181000Y-39998000D02*
X47023000Y-39998000D01*
X61180000Y-40038000D02*
X47024000Y-40038000D01*
X61178000Y-40078000D02*
X47026000Y-40078000D01*
X61177000Y-40118000D02*
X47027000Y-40118000D01*
X61175000Y-40158000D02*
X47029000Y-40158000D01*
X61173000Y-40198000D02*
X47031000Y-40198000D01*
X61171000Y-40238000D02*
X47033000Y-40238000D01*
X61169000Y-40278000D02*
X47035000Y-40278000D01*
X61166000Y-40318000D02*
X47038000Y-40318000D01*
X61163000Y-40358000D02*
X47041000Y-40358000D01*
X61160000Y-40398000D02*
X47044000Y-40398000D01*
X61157000Y-40438000D02*
X47047000Y-40438000D01*
X61154000Y-40478000D02*
X47050000Y-40478000D01*
X61150000Y-40518000D02*
X47054000Y-40518000D01*
X61146000Y-40559000D02*
X47058000Y-40559000D01*
X61142000Y-40599000D02*
X47062000Y-40599000D01*
X61137000Y-40639000D02*
X47067000Y-40639000D01*
X61133000Y-40679000D02*
X47071000Y-40679000D01*
X61128000Y-40719000D02*
X47076000Y-40719000D01*
X61123000Y-40759000D02*
X47081000Y-40759000D01*
X61117000Y-40799000D02*
X47087000Y-40799000D01*
X61112000Y-40839000D02*
X47092000Y-40839000D01*
X61106000Y-40879000D02*
X47098000Y-40879000D01*
X61100000Y-40919000D02*
X55542000Y-40919000D01*
X52662000Y-40919000D02*
X47104000Y-40919000D01*
X61094000Y-40959000D02*
X55542000Y-40959000D01*
X52662000Y-40959000D02*
X47110000Y-40959000D01*
X61087000Y-40999000D02*
X55542000Y-40999000D01*
X52662000Y-40999000D02*
X47117000Y-40999000D01*
X61081000Y-41039000D02*
X55542000Y-41039000D01*
X52662000Y-41039000D02*
X47123000Y-41039000D01*
X61074000Y-41079000D02*
X55542000Y-41079000D01*
X52662000Y-41079000D02*
X47130000Y-41079000D01*
X61066000Y-41119000D02*
X55542000Y-41119000D01*
X52662000Y-41119000D02*
X47138000Y-41119000D01*
X61059000Y-41159000D02*
X55542000Y-41159000D01*
X52662000Y-41159000D02*
X47145000Y-41159000D01*
X61051000Y-41199000D02*
X55542000Y-41199000D01*
X52662000Y-41199000D02*
X47153000Y-41199000D01*
X61044000Y-41239000D02*
X55542000Y-41239000D01*
X52662000Y-41239000D02*
X47160000Y-41239000D01*
X61035000Y-41279000D02*
X55542000Y-41279000D01*
X52662000Y-41279000D02*
X47169000Y-41279000D01*
X61027000Y-41319000D02*
X55542000Y-41319000D01*
X52662000Y-41319000D02*
X47177000Y-41319000D01*
X61018000Y-41359000D02*
X55542000Y-41359000D01*
X52662000Y-41359000D02*
X47186000Y-41359000D01*
X61009000Y-41399000D02*
X55542000Y-41399000D01*
X52662000Y-41399000D02*
X47195000Y-41399000D01*
X61000000Y-41439000D02*
X55542000Y-41439000D01*
X52662000Y-41439000D02*
X47204000Y-41439000D01*
X60991000Y-41479000D02*
X55542000Y-41479000D01*
X52662000Y-41479000D02*
X47213000Y-41479000D01*
X60981000Y-41519000D02*
X55542000Y-41519000D01*
X52662000Y-41519000D02*
X47223000Y-41519000D01*
X60972000Y-41559000D02*
X55542000Y-41559000D01*
X52662000Y-41559000D02*
X47232000Y-41559000D01*
X60962000Y-41599000D02*
X55542000Y-41599000D01*
X52662000Y-41599000D02*
X47242000Y-41599000D01*
X60951000Y-41639000D02*
X55542000Y-41639000D01*
X52662000Y-41639000D02*
X47253000Y-41639000D01*
X60941000Y-41679000D02*
X55542000Y-41679000D01*
X52662000Y-41679000D02*
X47263000Y-41679000D01*
X60930000Y-41719000D02*
X55542000Y-41719000D01*
X52662000Y-41719000D02*
X47274000Y-41719000D01*
X60919000Y-41759000D02*
X55542000Y-41759000D01*
X52662000Y-41759000D02*
X47285000Y-41759000D01*
X60907000Y-41799000D02*
X55542000Y-41799000D01*
X52662000Y-41799000D02*
X47297000Y-41799000D01*
X60896000Y-41839000D02*
X55542000Y-41839000D01*
X52662000Y-41839000D02*
X47308000Y-41839000D01*
X60884000Y-41879000D02*
X55542000Y-41879000D01*
X52662000Y-41879000D02*
X47320000Y-41879000D01*
X60872000Y-41919000D02*
X55542000Y-41919000D01*
X52662000Y-41919000D02*
X47332000Y-41919000D01*
X60860000Y-41959000D02*
X55542000Y-41959000D01*
X52662000Y-41959000D02*
X47344000Y-41959000D01*
X60847000Y-41999000D02*
X55542000Y-41999000D01*
X52662000Y-41999000D02*
X47357000Y-41999000D01*
X60834000Y-42039000D02*
X55542000Y-42039000D01*
X52662000Y-42039000D02*
X47370000Y-42039000D01*
X60821000Y-42079000D02*
X55542000Y-42079000D01*
X52662000Y-42079000D02*
X47383000Y-42079000D01*
X60808000Y-42119000D02*
X55542000Y-42119000D01*
X52662000Y-42119000D02*
X47396000Y-42119000D01*
X60794000Y-42159000D02*
X55542000Y-42159000D01*
X52662000Y-42159000D02*
X47410000Y-42159000D01*
X60780000Y-42199000D02*
X55542000Y-42199000D01*
X52662000Y-42199000D02*
X47424000Y-42199000D01*
X60766000Y-42239000D02*
X55542000Y-42239000D01*
X52662000Y-42239000D02*
X47438000Y-42239000D01*
X60751000Y-42279000D02*
X55542000Y-42279000D01*
X52662000Y-42279000D02*
X47453000Y-42279000D01*
X60737000Y-42319000D02*
X55542000Y-42319000D01*
X52662000Y-42319000D02*
X47467000Y-42319000D01*
X60722000Y-42359000D02*
X55542000Y-42359000D01*
X52662000Y-42359000D02*
X47482000Y-42359000D01*
X60706000Y-42399000D02*
X55542000Y-42399000D01*
X52662000Y-42399000D02*
X47498000Y-42399000D01*
X60691000Y-42439000D02*
X55542000Y-42439000D01*
X52662000Y-42439000D02*
X47513000Y-42439000D01*
X60675000Y-42479000D02*
X55542000Y-42479000D01*
X52662000Y-42479000D02*
X47529000Y-42479000D01*
X60659000Y-42519000D02*
X55542000Y-42519000D01*
X52662000Y-42519000D02*
X47545000Y-42519000D01*
X60642000Y-42559000D02*
X55542000Y-42559000D01*
X52662000Y-42559000D02*
X47562000Y-42559000D01*
X60626000Y-42599000D02*
X55542000Y-42599000D01*
X52662000Y-42599000D02*
X47578000Y-42599000D01*
X60609000Y-42639000D02*
X55542000Y-42639000D01*
X52662000Y-42639000D02*
X47595000Y-42639000D01*
X60592000Y-42679000D02*
X55542000Y-42679000D01*
X52662000Y-42679000D02*
X47612000Y-42679000D01*
X60574000Y-42719000D02*
X55542000Y-42719000D01*
X52662000Y-42719000D02*
X47630000Y-42719000D01*
X60556000Y-42759000D02*
X55542000Y-42759000D01*
X52662000Y-42759000D02*
X47648000Y-42759000D01*
X60538000Y-42799000D02*
X55542000Y-42799000D01*
X52662000Y-42799000D02*
X47666000Y-42799000D01*
X60520000Y-42839000D02*
X55542000Y-42839000D01*
X52662000Y-42839000D02*
X47684000Y-42839000D01*
X60501000Y-42879000D02*
X55542000Y-42879000D01*
X52662000Y-42879000D02*
X47703000Y-42879000D01*
X60482000Y-42919000D02*
X55542000Y-42919000D01*
X52662000Y-42919000D02*
X47722000Y-42919000D01*
X60462000Y-42959000D02*
X55542000Y-42959000D01*
X52662000Y-42959000D02*
X47742000Y-42959000D01*
X60443000Y-42999000D02*
X55542000Y-42999000D01*
X52662000Y-42999000D02*
X47761000Y-42999000D01*
X60423000Y-43039000D02*
X55542000Y-43039000D01*
X52662000Y-43039000D02*
X47781000Y-43039000D01*
X60403000Y-43079000D02*
X55542000Y-43079000D01*
X52662000Y-43079000D02*
X47801000Y-43079000D01*
X60382000Y-43119000D02*
X55542000Y-43119000D01*
X52662000Y-43119000D02*
X47822000Y-43119000D01*
X60361000Y-43159000D02*
X55542000Y-43159000D01*
X52662000Y-43159000D02*
X47843000Y-43159000D01*
X60340000Y-43199000D02*
X55542000Y-43199000D01*
X52662000Y-43199000D02*
X47864000Y-43199000D01*
X60318000Y-43239000D02*
X55542000Y-43239000D01*
X52662000Y-43239000D02*
X47886000Y-43239000D01*
X60296000Y-43279000D02*
X55542000Y-43279000D01*
X52662000Y-43279000D02*
X47908000Y-43279000D01*
X60274000Y-43319000D02*
X55542000Y-43319000D01*
X52662000Y-43319000D02*
X47930000Y-43319000D01*
X60252000Y-43359000D02*
X55542000Y-43359000D01*
X52662000Y-43359000D02*
X47952000Y-43359000D01*
X60229000Y-43399000D02*
X55542000Y-43399000D01*
X52662000Y-43399000D02*
X47975000Y-43399000D01*
X60205000Y-43439000D02*
X55542000Y-43439000D01*
X52662000Y-43439000D02*
X47999000Y-43439000D01*
X60182000Y-43479000D02*
X55542000Y-43479000D01*
X52662000Y-43479000D02*
X48022000Y-43479000D01*
X60158000Y-43519000D02*
X55542000Y-43519000D01*
X52662000Y-43519000D02*
X48046000Y-43519000D01*
X60133000Y-43559000D02*
X55542000Y-43559000D01*
X52662000Y-43559000D02*
X48071000Y-43559000D01*
X60109000Y-43599000D02*
X55542000Y-43599000D01*
X52662000Y-43599000D02*
X48095000Y-43599000D01*
X60084000Y-43639000D02*
X55542000Y-43639000D01*
X52662000Y-43639000D02*
X48120000Y-43639000D01*
X60058000Y-43679000D02*
X55542000Y-43679000D01*
X52662000Y-43679000D02*
X48146000Y-43679000D01*
X60032000Y-43719000D02*
X55542000Y-43719000D01*
X52662000Y-43719000D02*
X48172000Y-43719000D01*
X60006000Y-43759000D02*
X55542000Y-43759000D01*
X52662000Y-43759000D02*
X48198000Y-43759000D01*
X59980000Y-43799000D02*
X48224000Y-43799000D01*
X59953000Y-43839000D02*
X48251000Y-43839000D01*
X59925000Y-43879000D02*
X48279000Y-43879000D01*
X59898000Y-43919000D02*
X48306000Y-43919000D01*
X59869000Y-43959000D02*
X48335000Y-43959000D01*
X59841000Y-43999000D02*
X48363000Y-43999000D01*
X59812000Y-44039000D02*
X48392000Y-44039000D01*
X59782000Y-44079000D02*
X48422000Y-44079000D01*
X59752000Y-44119000D02*
X48452000Y-44119000D01*
X59722000Y-44159000D02*
X48482000Y-44159000D01*
X59691000Y-44199000D02*
X48513000Y-44199000D01*
X59660000Y-44239000D02*
X48544000Y-44239000D01*
X59629000Y-44279000D02*
X48575000Y-44279000D01*
X59596000Y-44319000D02*
X48608000Y-44319000D01*
X59564000Y-44359000D02*
X48640000Y-44359000D01*
X59531000Y-44399000D02*
X48673000Y-44399000D01*
X59497000Y-44439000D02*
X48707000Y-44439000D01*
X59463000Y-44479000D02*
X48741000Y-44479000D01*
X59428000Y-44519000D02*
X48776000Y-44519000D01*
X59393000Y-44559000D02*
X48811000Y-44559000D01*
X59357000Y-44599000D02*
X48847000Y-44599000D01*
X59321000Y-44639000D02*
X48883000Y-44639000D01*
X59284000Y-44679000D02*
X48920000Y-44679000D01*
X59247000Y-44719000D02*
X48957000Y-44719000D01*
X59209000Y-44759000D02*
X48995000Y-44759000D01*
X59171000Y-44799000D02*
X49033000Y-44799000D01*
X59131000Y-44839000D02*
X49073000Y-44839000D01*
X59092000Y-44879000D02*
X49112000Y-44879000D01*
X59051000Y-44919000D02*
X49153000Y-44919000D01*
X59010000Y-44959000D02*
X49194000Y-44959000D01*
X58968000Y-44999000D02*
X49236000Y-44999000D01*
X58926000Y-45039000D02*
X49278000Y-45039000D01*
X58883000Y-45079000D02*
X49321000Y-45079000D01*
X58839000Y-45119000D02*
X49365000Y-45119000D01*
X58795000Y-45159000D02*
X49409000Y-45159000D01*
X58749000Y-45199000D02*
X49455000Y-45199000D01*
X58703000Y-45239000D02*
X49501000Y-45239000D01*
X58656000Y-45279000D02*
X49548000Y-45279000D01*
X58608000Y-45319000D02*
X49596000Y-45319000D01*
X58560000Y-45359000D02*
X49644000Y-45359000D01*
X58510000Y-45399000D02*
X49694000Y-45399000D01*
X58460000Y-45439000D02*
X49744000Y-45439000D01*
X58408000Y-45479000D02*
X49796000Y-45479000D01*
X58356000Y-45519000D02*
X49848000Y-45519000D01*
X58302000Y-45559000D02*
X49902000Y-45559000D01*
X58248000Y-45599000D02*
X49956000Y-45599000D01*
X58192000Y-45639000D02*
X50012000Y-45639000D01*
X58135000Y-45679000D02*
X50069000Y-45679000D01*
X58077000Y-45719000D02*
X50127000Y-45719000D01*
X58018000Y-45759000D02*
X50186000Y-45759000D01*
X57958000Y-45799000D02*
X50246000Y-45799000D01*
X57896000Y-45839000D02*
X50308000Y-45839000D01*
X57832000Y-45879000D02*
X50372000Y-45879000D01*
X57768000Y-45919000D02*
X50436000Y-45919000D01*
X57701000Y-45959000D02*
X50503000Y-45959000D01*
X57633000Y-45999000D02*
X50571000Y-45999000D01*
X57563000Y-46039000D02*
X50641000Y-46039000D01*
X57491000Y-46079000D02*
X50713000Y-46079000D01*
X57417000Y-46119000D02*
X50787000Y-46119000D01*
X57342000Y-46159000D02*
X50862000Y-46159000D01*
X57263000Y-46199000D02*
X50941000Y-46199000D01*
X57182000Y-46239000D02*
X51022000Y-46239000D01*
X57099000Y-46279000D02*
X51105000Y-46279000D01*
X57013000Y-46319000D02*
X51191000Y-46319000D01*
X56923000Y-46359000D02*
X51281000Y-46359000D01*
X56830000Y-46399000D02*
X51374000Y-46399000D01*
X56734000Y-46439000D02*
X51470000Y-46439000D01*
X56632000Y-46479000D02*
X51572000Y-46479000D01*
X56527000Y-46519000D02*
X51677000Y-46519000D01*
X56415000Y-46559000D02*
X51789000Y-46559000D01*
X56298000Y-46599000D02*
X51906000Y-46599000D01*
X56173000Y-46639000D02*
X52031000Y-46639000D01*
X56040000Y-46679000D02*
X52164000Y-46679000D01*
X55896000Y-46719000D02*
X52308000Y-46719000D01*
X55738000Y-46759000D02*
X52466000Y-46759000D01*
X55563000Y-46799000D02*
X52641000Y-46799000D01*
X55364000Y-46839000D02*
X52840000Y-46839000D01*
X55127000Y-46879000D02*
X53077000Y-46879000D01*
X54816000Y-46919000D02*
X53388000Y-46919000D01*
X61222000Y-39838000D02*
G75*
G03*
X46982000Y-39838000I-7120000J0D01*
G01*
X46982000Y-39838000D02*
G75*
G03*
X61222000Y-39838000I7120000J0D01*
G01*
%TO.C,D3*%
X93160000Y-28950000D02*
X93160000Y-28300000D01*
X92040000Y-28300000D02*
X94280000Y-28300000D01*
X94280000Y-28300000D02*
X94280000Y-24060000D01*
X92040000Y-27700000D02*
X94280000Y-27700000D01*
X92040000Y-27580000D02*
X94280000Y-27580000D01*
X92040000Y-27460000D02*
X94280000Y-27460000D01*
X92040000Y-24060000D02*
X92040000Y-28300000D01*
X94280000Y-24060000D02*
X92040000Y-24060000D01*
X93160000Y-23410000D02*
X93160000Y-24060000D01*
%TO.C,R5*%
X65610000Y-18130000D02*
X65610000Y-24670000D01*
X65280000Y-18130000D02*
X65610000Y-18130000D01*
X63200000Y-18130000D02*
X62870000Y-18130000D01*
X62870000Y-18130000D02*
X62870000Y-24670000D01*
X65610000Y-24670000D02*
X65280000Y-24670000D01*
X62870000Y-24670000D02*
X63200000Y-24670000D01*
%TO.C,R21*%
X83130000Y-34640000D02*
X89670000Y-34640000D01*
X83130000Y-34970000D02*
X83130000Y-34640000D01*
X83130000Y-37050000D02*
X83130000Y-37380000D01*
X83130000Y-37380000D02*
X89670000Y-37380000D01*
X89670000Y-34640000D02*
X89670000Y-34970000D01*
X89670000Y-37380000D02*
X89670000Y-37050000D01*
%TO.C,U1*%
X4490000Y-6020000D02*
X4490000Y-6320000D01*
X4490000Y-6020000D02*
X25490000Y-6020000D01*
X4490000Y-8420000D02*
X4490000Y-8820000D01*
X4490000Y-8687000D02*
X7497000Y-8687000D01*
X4490000Y-11020000D02*
X4490000Y-11420000D01*
X4490000Y-13520000D02*
X4490000Y-13920000D01*
X4490000Y-16120000D02*
X4490000Y-16520000D01*
X4490000Y-18620000D02*
X4490000Y-19020000D01*
X4490000Y-21120000D02*
X4490000Y-21520000D01*
X4490000Y-23720000D02*
X4490000Y-24120000D01*
X4490000Y-26220000D02*
X4490000Y-26620000D01*
X4490000Y-28820000D02*
X4490000Y-29220000D01*
X4490000Y-31320000D02*
X4490000Y-31720000D01*
X4490000Y-33820000D02*
X4490000Y-34220000D01*
X4490000Y-36420000D02*
X4490000Y-36820000D01*
X4490000Y-38920000D02*
X4490000Y-39320000D01*
X4490000Y-41520000D02*
X4490000Y-41920000D01*
X4490000Y-44020000D02*
X4490000Y-44420000D01*
X4490000Y-46620000D02*
X4490000Y-47020000D01*
X4490000Y-49120000D02*
X4490000Y-49520000D01*
X4490000Y-51620000D02*
X4490000Y-52020000D01*
X4490000Y-54220000D02*
X4490000Y-54620000D01*
X7497000Y-8687000D02*
X7497000Y-6020000D01*
X11290000Y-57020000D02*
X4490000Y-57020000D01*
X13490000Y-57020000D02*
X13890000Y-57020000D01*
X16090000Y-57020000D02*
X16490000Y-57020000D01*
X25490000Y-6020000D02*
X25490000Y-6320000D01*
X25490000Y-8420000D02*
X25490000Y-8820000D01*
X25490000Y-11020000D02*
X25490000Y-11420000D01*
X25490000Y-13520000D02*
X25490000Y-13920000D01*
X25490000Y-16120000D02*
X25490000Y-16520000D01*
X25490000Y-18620000D02*
X25490000Y-19020000D01*
X25490000Y-21120000D02*
X25490000Y-21520000D01*
X25490000Y-23720000D02*
X25490000Y-24120000D01*
X25490000Y-26220000D02*
X25490000Y-26620000D01*
X25490000Y-28820000D02*
X25490000Y-29220000D01*
X25490000Y-31320000D02*
X25490000Y-31720000D01*
X25490000Y-33820000D02*
X25490000Y-34220000D01*
X25490000Y-36420000D02*
X25490000Y-36820000D01*
X25490000Y-38920000D02*
X25490000Y-39320000D01*
X25490000Y-41520000D02*
X25490000Y-41920000D01*
X25490000Y-44020000D02*
X25490000Y-44420000D01*
X25490000Y-46620000D02*
X25490000Y-47020000D01*
X25490000Y-49120000D02*
X25490000Y-49520000D01*
X25490000Y-51620000D02*
X25490000Y-52020000D01*
X25490000Y-54220000D02*
X25490000Y-54620000D01*
X25490000Y-57020000D02*
X18690000Y-57020000D01*
%TO.C,R16*%
X76290000Y-4190000D02*
X82830000Y-4190000D01*
X76290000Y-4520000D02*
X76290000Y-4190000D01*
X76290000Y-6600000D02*
X76290000Y-6930000D01*
X76290000Y-6930000D02*
X82830000Y-6930000D01*
X82830000Y-4190000D02*
X82830000Y-4520000D01*
X82830000Y-6930000D02*
X82830000Y-6600000D01*
%TO.C,C4*%
X56770000Y-53270000D02*
X57085000Y-53270000D01*
X56770000Y-53270000D02*
X56770000Y-48030000D01*
X59195000Y-53270000D02*
X59510000Y-53270000D01*
X59510000Y-53270000D02*
X59510000Y-48030000D01*
X56770000Y-48030000D02*
X57085000Y-48030000D01*
X59195000Y-48030000D02*
X59510000Y-48030000D01*
%TO.C,C11*%
X97780000Y-34180000D02*
X97780000Y-33865000D01*
X97780000Y-34180000D02*
X92540000Y-34180000D01*
X97780000Y-31755000D02*
X97780000Y-31440000D01*
X97780000Y-31440000D02*
X92540000Y-31440000D01*
X92540000Y-34180000D02*
X92540000Y-33865000D01*
X92540000Y-31755000D02*
X92540000Y-31440000D01*
%TO.C,R9*%
X67630000Y-19380000D02*
X67630000Y-18610000D01*
X66260000Y-18610000D02*
X69000000Y-18610000D01*
X69000000Y-18610000D02*
X69000000Y-12070000D01*
X66260000Y-12070000D02*
X66260000Y-18610000D01*
X69000000Y-12070000D02*
X66260000Y-12070000D01*
X67630000Y-11300000D02*
X67630000Y-12070000D01*
%TO.C,D2*%
X66830000Y-54860000D02*
X66830000Y-49420000D01*
X66960000Y-54860000D02*
X66830000Y-54860000D01*
X69640000Y-54860000D02*
X69770000Y-54860000D01*
X69770000Y-54860000D02*
X69770000Y-49420000D01*
X66830000Y-54080000D02*
X69770000Y-54080000D01*
X66830000Y-53960000D02*
X69770000Y-53960000D01*
X66830000Y-53840000D02*
X69770000Y-53840000D01*
X66830000Y-49420000D02*
X66960000Y-49420000D01*
X69770000Y-49420000D02*
X69640000Y-49420000D01*
%TO.C,R13*%
X92570000Y-16250000D02*
X92570000Y-9710000D01*
X92900000Y-16250000D02*
X92570000Y-16250000D01*
X94980000Y-16250000D02*
X95310000Y-16250000D01*
X95310000Y-16250000D02*
X95310000Y-9710000D01*
X92570000Y-9710000D02*
X92900000Y-9710000D01*
X95310000Y-9710000D02*
X94980000Y-9710000D01*
%TO.C,R15*%
X86020000Y-14250000D02*
X86020000Y-7710000D01*
X86350000Y-14250000D02*
X86020000Y-14250000D01*
X88430000Y-14250000D02*
X88760000Y-14250000D01*
X88760000Y-14250000D02*
X88760000Y-7710000D01*
X86020000Y-7710000D02*
X86350000Y-7710000D01*
X88760000Y-7710000D02*
X88430000Y-7710000D01*
%TO.C,R12*%
X89430000Y-16250000D02*
X89430000Y-9710000D01*
X89760000Y-16250000D02*
X89430000Y-16250000D01*
X91840000Y-16250000D02*
X92170000Y-16250000D01*
X92170000Y-16250000D02*
X92170000Y-9710000D01*
X89430000Y-9710000D02*
X89760000Y-9710000D01*
X92170000Y-9710000D02*
X91840000Y-9710000D01*
%TO.C,J2*%
X690000Y-21420000D02*
X2020000Y-21420000D01*
X690000Y-22750000D02*
X690000Y-21420000D01*
X690000Y-24020000D02*
X690000Y-57100000D01*
X690000Y-24020000D02*
X3350000Y-24020000D01*
X690000Y-57100000D02*
X3350000Y-57100000D01*
X3350000Y-24020000D02*
X3350000Y-57100000D01*
%TO.C,Q2*%
X62130000Y-20730000D02*
X62130000Y-16880000D01*
X57830001Y-18790000D02*
G75*
G03*
X59331193Y-21146399I2599999J0D01*
G01*
X61552045Y-21112631D02*
G75*
G03*
X62130000Y-20730000I-1122045J2322631D01*
G01*
X59331193Y-16433600D02*
G75*
G03*
X57830000Y-18790000I1098807J-2356400D01*
G01*
X62129999Y-16880001D02*
G75*
G03*
X61542264Y-16487618I-1699999J-1909999D01*
G01*
%TO.C,R18*%
X63080000Y-55210000D02*
X63080000Y-48670000D01*
X63410000Y-55210000D02*
X63080000Y-55210000D01*
X65490000Y-55210000D02*
X65820000Y-55210000D01*
X65820000Y-55210000D02*
X65820000Y-48670000D01*
X63080000Y-48670000D02*
X63410000Y-48670000D01*
X65820000Y-48670000D02*
X65490000Y-48670000D01*
%TO.C,R7*%
X45570000Y-6810000D02*
X39030000Y-6810000D01*
X45570000Y-6480000D02*
X45570000Y-6810000D01*
X45570000Y-4400000D02*
X45570000Y-4070000D01*
X45570000Y-4070000D02*
X39030000Y-4070000D01*
X39030000Y-6810000D02*
X39030000Y-6480000D01*
X39030000Y-4070000D02*
X39030000Y-4400000D01*
%TO.C,C9*%
X73710000Y-25560000D02*
X73710000Y-25875000D01*
X73710000Y-25560000D02*
X78950000Y-25560000D01*
X73710000Y-27985000D02*
X73710000Y-28300000D01*
X73710000Y-28300000D02*
X78950000Y-28300000D01*
X78950000Y-25560000D02*
X78950000Y-25875000D01*
X78950000Y-27985000D02*
X78950000Y-28300000D01*
%TO.C,C2*%
X33324775Y-41845000D02*
X32824775Y-41845000D01*
X33074775Y-42095000D02*
X33074775Y-41595000D01*
X30520000Y-42950000D02*
X30520000Y-41410000D01*
X30520000Y-39330000D02*
X30520000Y-37790000D01*
X30480000Y-42950000D02*
X30480000Y-41410000D01*
X30480000Y-39330000D02*
X30480000Y-37790000D01*
X30440000Y-42949000D02*
X30440000Y-41410000D01*
X30440000Y-39330000D02*
X30440000Y-37791000D01*
X30400000Y-42948000D02*
X30400000Y-41410000D01*
X30400000Y-39330000D02*
X30400000Y-37792000D01*
X30360000Y-42946000D02*
X30360000Y-41410000D01*
X30360000Y-39330000D02*
X30360000Y-37794000D01*
X30320000Y-42943000D02*
X30320000Y-41410000D01*
X30320000Y-39330000D02*
X30320000Y-37797000D01*
X30280000Y-42939000D02*
X30280000Y-41410000D01*
X30280000Y-39330000D02*
X30280000Y-37801000D01*
X30240000Y-42935000D02*
X30240000Y-41410000D01*
X30240000Y-39330000D02*
X30240000Y-37805000D01*
X30200000Y-42931000D02*
X30200000Y-41410000D01*
X30200000Y-39330000D02*
X30200000Y-37809000D01*
X30160000Y-42926000D02*
X30160000Y-41410000D01*
X30160000Y-39330000D02*
X30160000Y-37814000D01*
X30120000Y-42920000D02*
X30120000Y-41410000D01*
X30120000Y-39330000D02*
X30120000Y-37820000D01*
X30080000Y-42913000D02*
X30080000Y-41410000D01*
X30080000Y-39330000D02*
X30080000Y-37827000D01*
X30040000Y-42906000D02*
X30040000Y-41410000D01*
X30040000Y-39330000D02*
X30040000Y-37834000D01*
X30000000Y-42898000D02*
X30000000Y-41410000D01*
X30000000Y-39330000D02*
X30000000Y-37842000D01*
X29960000Y-42890000D02*
X29960000Y-41410000D01*
X29960000Y-39330000D02*
X29960000Y-37850000D01*
X29920000Y-42881000D02*
X29920000Y-41410000D01*
X29920000Y-39330000D02*
X29920000Y-37859000D01*
X29880000Y-42871000D02*
X29880000Y-41410000D01*
X29880000Y-39330000D02*
X29880000Y-37869000D01*
X29840000Y-42861000D02*
X29840000Y-41410000D01*
X29840000Y-39330000D02*
X29840000Y-37879000D01*
X29799000Y-42850000D02*
X29799000Y-41410000D01*
X29799000Y-39330000D02*
X29799000Y-37890000D01*
X29759000Y-42838000D02*
X29759000Y-41410000D01*
X29759000Y-39330000D02*
X29759000Y-37902000D01*
X29719000Y-42825000D02*
X29719000Y-41410000D01*
X29719000Y-39330000D02*
X29719000Y-37915000D01*
X29679000Y-42812000D02*
X29679000Y-41410000D01*
X29679000Y-39330000D02*
X29679000Y-37928000D01*
X29639000Y-42798000D02*
X29639000Y-41410000D01*
X29639000Y-39330000D02*
X29639000Y-37942000D01*
X29599000Y-42784000D02*
X29599000Y-41410000D01*
X29599000Y-39330000D02*
X29599000Y-37956000D01*
X29559000Y-42768000D02*
X29559000Y-41410000D01*
X29559000Y-39330000D02*
X29559000Y-37972000D01*
X29519000Y-42752000D02*
X29519000Y-41410000D01*
X29519000Y-39330000D02*
X29519000Y-37988000D01*
X29479000Y-42735000D02*
X29479000Y-41410000D01*
X29479000Y-39330000D02*
X29479000Y-38005000D01*
X29439000Y-42718000D02*
X29439000Y-41410000D01*
X29439000Y-39330000D02*
X29439000Y-38022000D01*
X29399000Y-42699000D02*
X29399000Y-41410000D01*
X29399000Y-39330000D02*
X29399000Y-38041000D01*
X29359000Y-42680000D02*
X29359000Y-41410000D01*
X29359000Y-39330000D02*
X29359000Y-38060000D01*
X29319000Y-42660000D02*
X29319000Y-41410000D01*
X29319000Y-39330000D02*
X29319000Y-38080000D01*
X29279000Y-42638000D02*
X29279000Y-41410000D01*
X29279000Y-39330000D02*
X29279000Y-38102000D01*
X29239000Y-42617000D02*
X29239000Y-41410000D01*
X29239000Y-39330000D02*
X29239000Y-38123000D01*
X29199000Y-42594000D02*
X29199000Y-41410000D01*
X29199000Y-39330000D02*
X29199000Y-38146000D01*
X29159000Y-42570000D02*
X29159000Y-41410000D01*
X29159000Y-39330000D02*
X29159000Y-38170000D01*
X29119000Y-42545000D02*
X29119000Y-41410000D01*
X29119000Y-39330000D02*
X29119000Y-38195000D01*
X29079000Y-42519000D02*
X29079000Y-41410000D01*
X29079000Y-39330000D02*
X29079000Y-38221000D01*
X29039000Y-42492000D02*
X29039000Y-41410000D01*
X29039000Y-39330000D02*
X29039000Y-38248000D01*
X28999000Y-42465000D02*
X28999000Y-41410000D01*
X28999000Y-39330000D02*
X28999000Y-38275000D01*
X28959000Y-42435000D02*
X28959000Y-41410000D01*
X28959000Y-39330000D02*
X28959000Y-38305000D01*
X28919000Y-42405000D02*
X28919000Y-41410000D01*
X28919000Y-39330000D02*
X28919000Y-38335000D01*
X28879000Y-42374000D02*
X28879000Y-41410000D01*
X28879000Y-39330000D02*
X28879000Y-38366000D01*
X28839000Y-42341000D02*
X28839000Y-41410000D01*
X28839000Y-39330000D02*
X28839000Y-38399000D01*
X28799000Y-42307000D02*
X28799000Y-41410000D01*
X28799000Y-39330000D02*
X28799000Y-38433000D01*
X28759000Y-42271000D02*
X28759000Y-41410000D01*
X28759000Y-39330000D02*
X28759000Y-38469000D01*
X28719000Y-42234000D02*
X28719000Y-41410000D01*
X28719000Y-39330000D02*
X28719000Y-38506000D01*
X28679000Y-42196000D02*
X28679000Y-41410000D01*
X28679000Y-39330000D02*
X28679000Y-38544000D01*
X28639000Y-42155000D02*
X28639000Y-41410000D01*
X28639000Y-39330000D02*
X28639000Y-38585000D01*
X28599000Y-42113000D02*
X28599000Y-41410000D01*
X28599000Y-39330000D02*
X28599000Y-38627000D01*
X28559000Y-42069000D02*
X28559000Y-41410000D01*
X28559000Y-39330000D02*
X28559000Y-38671000D01*
X28519000Y-42023000D02*
X28519000Y-41410000D01*
X28519000Y-39330000D02*
X28519000Y-38717000D01*
X28479000Y-41975000D02*
X28479000Y-38765000D01*
X28439000Y-41924000D02*
X28439000Y-38816000D01*
X28399000Y-41870000D02*
X28399000Y-38870000D01*
X28359000Y-41813000D02*
X28359000Y-38927000D01*
X28319000Y-41753000D02*
X28319000Y-38987000D01*
X28279000Y-41689000D02*
X28279000Y-39051000D01*
X28239000Y-41621000D02*
X28239000Y-39119000D01*
X28199000Y-41548000D02*
X28199000Y-39192000D01*
X28159000Y-41468000D02*
X28159000Y-39272000D01*
X28119000Y-41381000D02*
X28119000Y-39359000D01*
X28079000Y-41285000D02*
X28079000Y-39455000D01*
X28039000Y-41175000D02*
X28039000Y-39565000D01*
X27999000Y-41047000D02*
X27999000Y-39693000D01*
X27959000Y-40888000D02*
X27959000Y-39852000D01*
X27919000Y-40654000D02*
X27919000Y-40086000D01*
X33140000Y-40370000D02*
G75*
G03*
X27900000Y-40370000I-2620000J0D01*
G01*
X27900000Y-40370000D02*
G75*
G03*
X33140000Y-40370000I2620000J0D01*
G01*
%TO.C,J4*%
X41320000Y-64640000D02*
X41320000Y-49940000D01*
X50520000Y-64640000D02*
X41320000Y-64640000D01*
X50520000Y-55840000D02*
X50520000Y-64640000D01*
X41120000Y-50790000D02*
X41120000Y-49740000D01*
X41320000Y-49940000D02*
X43920000Y-49940000D01*
X47820000Y-49940000D02*
X50520000Y-49940000D01*
X50520000Y-49940000D02*
X50520000Y-51840000D01*
X42170000Y-49740000D02*
X41120000Y-49740000D01*
%TO.C,D4*%
X83620000Y-33110000D02*
X84270000Y-33110000D01*
X84270000Y-31990000D02*
X84270000Y-34230000D01*
X84270000Y-34230000D02*
X88510000Y-34230000D01*
X84870000Y-31990000D02*
X84870000Y-34230000D01*
X84990000Y-31990000D02*
X84990000Y-34230000D01*
X85110000Y-31990000D02*
X85110000Y-34230000D01*
X88510000Y-31990000D02*
X84270000Y-31990000D01*
X88510000Y-34230000D02*
X88510000Y-31990000D01*
X89160000Y-33110000D02*
X88510000Y-33110000D01*
%TO.C,R11*%
X75860000Y-23310000D02*
X76630000Y-23310000D01*
X76630000Y-21940000D02*
X76630000Y-24680000D01*
X76630000Y-24680000D02*
X83170000Y-24680000D01*
X83170000Y-21940000D02*
X76630000Y-21940000D01*
X83170000Y-24680000D02*
X83170000Y-21940000D01*
X83940000Y-23310000D02*
X83170000Y-23310000D01*
%TO.C,Q1*%
X36780000Y-14250000D02*
X36780000Y-18100000D01*
X41079999Y-16190000D02*
G75*
G03*
X39578807Y-13833601I-2599999J0D01*
G01*
X37357955Y-13867369D02*
G75*
G03*
X36780000Y-14250000I1122045J-2322631D01*
G01*
X39578807Y-18546400D02*
G75*
G03*
X41080000Y-16190000I-1098807J2356400D01*
G01*
X36780001Y-18099999D02*
G75*
G03*
X37367736Y-18492382I1699999J1909999D01*
G01*
%TO.C,C3*%
X59900000Y-53270000D02*
X60215000Y-53270000D01*
X59900000Y-53270000D02*
X59900000Y-48030000D01*
X62325000Y-53270000D02*
X62640000Y-53270000D01*
X62640000Y-53270000D02*
X62640000Y-48030000D01*
X59900000Y-48030000D02*
X60215000Y-48030000D01*
X62325000Y-48030000D02*
X62640000Y-48030000D01*
%TO.C,C5*%
X74210000Y-11700000D02*
X73895000Y-11700000D01*
X74210000Y-11700000D02*
X74210000Y-16940000D01*
X71785000Y-11700000D02*
X71470000Y-11700000D01*
X71470000Y-11700000D02*
X71470000Y-16940000D01*
X74210000Y-16940000D02*
X73895000Y-16940000D01*
X71785000Y-16940000D02*
X71470000Y-16940000D01*
%TO.C,J1*%
X27460000Y-50010000D02*
X27460000Y-57630000D01*
X27460000Y-57630000D02*
X37620000Y-57630000D01*
X37620000Y-50010000D02*
X27460000Y-50010000D01*
X37620000Y-56360000D02*
X27460000Y-56360000D01*
X37620000Y-57630000D02*
X37620000Y-50010000D01*
%TO.C,R6*%
X77820000Y-37320000D02*
X63280000Y-37320000D01*
X77820000Y-35990000D02*
X77820000Y-37320000D01*
X77820000Y-32710000D02*
X77820000Y-31380000D01*
X77820000Y-31380000D02*
X63280000Y-31380000D01*
X63280000Y-37320000D02*
X63280000Y-35990000D01*
X63280000Y-31380000D02*
X63280000Y-32710000D01*
%TO.C,R19*%
X86170000Y-2850000D02*
X92710000Y-2850000D01*
X86170000Y-3180000D02*
X86170000Y-2850000D01*
X86170000Y-5260000D02*
X86170000Y-5590000D01*
X86170000Y-5590000D02*
X92710000Y-5590000D01*
X92710000Y-2850000D02*
X92710000Y-3180000D01*
X92710000Y-5590000D02*
X92710000Y-5260000D01*
%TO.C,C1*%
X33464775Y-47915000D02*
X32964775Y-47915000D01*
X33214775Y-48165000D02*
X33214775Y-47665000D01*
X30660000Y-49020000D02*
X30660000Y-47480000D01*
X30660000Y-45400000D02*
X30660000Y-43860000D01*
X30620000Y-49020000D02*
X30620000Y-47480000D01*
X30620000Y-45400000D02*
X30620000Y-43860000D01*
X30580000Y-49019000D02*
X30580000Y-47480000D01*
X30580000Y-45400000D02*
X30580000Y-43861000D01*
X30540000Y-49018000D02*
X30540000Y-47480000D01*
X30540000Y-45400000D02*
X30540000Y-43862000D01*
X30500000Y-49016000D02*
X30500000Y-47480000D01*
X30500000Y-45400000D02*
X30500000Y-43864000D01*
X30460000Y-49013000D02*
X30460000Y-47480000D01*
X30460000Y-45400000D02*
X30460000Y-43867000D01*
X30420000Y-49009000D02*
X30420000Y-47480000D01*
X30420000Y-45400000D02*
X30420000Y-43871000D01*
X30380000Y-49005000D02*
X30380000Y-47480000D01*
X30380000Y-45400000D02*
X30380000Y-43875000D01*
X30340000Y-49001000D02*
X30340000Y-47480000D01*
X30340000Y-45400000D02*
X30340000Y-43879000D01*
X30300000Y-48996000D02*
X30300000Y-47480000D01*
X30300000Y-45400000D02*
X30300000Y-43884000D01*
X30260000Y-48990000D02*
X30260000Y-47480000D01*
X30260000Y-45400000D02*
X30260000Y-43890000D01*
X30220000Y-48983000D02*
X30220000Y-47480000D01*
X30220000Y-45400000D02*
X30220000Y-43897000D01*
X30180000Y-48976000D02*
X30180000Y-47480000D01*
X30180000Y-45400000D02*
X30180000Y-43904000D01*
X30140000Y-48968000D02*
X30140000Y-47480000D01*
X30140000Y-45400000D02*
X30140000Y-43912000D01*
X30100000Y-48960000D02*
X30100000Y-47480000D01*
X30100000Y-45400000D02*
X30100000Y-43920000D01*
X30060000Y-48951000D02*
X30060000Y-47480000D01*
X30060000Y-45400000D02*
X30060000Y-43929000D01*
X30020000Y-48941000D02*
X30020000Y-47480000D01*
X30020000Y-45400000D02*
X30020000Y-43939000D01*
X29980000Y-48931000D02*
X29980000Y-47480000D01*
X29980000Y-45400000D02*
X29980000Y-43949000D01*
X29939000Y-48920000D02*
X29939000Y-47480000D01*
X29939000Y-45400000D02*
X29939000Y-43960000D01*
X29899000Y-48908000D02*
X29899000Y-47480000D01*
X29899000Y-45400000D02*
X29899000Y-43972000D01*
X29859000Y-48895000D02*
X29859000Y-47480000D01*
X29859000Y-45400000D02*
X29859000Y-43985000D01*
X29819000Y-48882000D02*
X29819000Y-47480000D01*
X29819000Y-45400000D02*
X29819000Y-43998000D01*
X29779000Y-48868000D02*
X29779000Y-47480000D01*
X29779000Y-45400000D02*
X29779000Y-44012000D01*
X29739000Y-48854000D02*
X29739000Y-47480000D01*
X29739000Y-45400000D02*
X29739000Y-44026000D01*
X29699000Y-48838000D02*
X29699000Y-47480000D01*
X29699000Y-45400000D02*
X29699000Y-44042000D01*
X29659000Y-48822000D02*
X29659000Y-47480000D01*
X29659000Y-45400000D02*
X29659000Y-44058000D01*
X29619000Y-48805000D02*
X29619000Y-47480000D01*
X29619000Y-45400000D02*
X29619000Y-44075000D01*
X29579000Y-48788000D02*
X29579000Y-47480000D01*
X29579000Y-45400000D02*
X29579000Y-44092000D01*
X29539000Y-48769000D02*
X29539000Y-47480000D01*
X29539000Y-45400000D02*
X29539000Y-44111000D01*
X29499000Y-48750000D02*
X29499000Y-47480000D01*
X29499000Y-45400000D02*
X29499000Y-44130000D01*
X29459000Y-48730000D02*
X29459000Y-47480000D01*
X29459000Y-45400000D02*
X29459000Y-44150000D01*
X29419000Y-48708000D02*
X29419000Y-47480000D01*
X29419000Y-45400000D02*
X29419000Y-44172000D01*
X29379000Y-48687000D02*
X29379000Y-47480000D01*
X29379000Y-45400000D02*
X29379000Y-44193000D01*
X29339000Y-48664000D02*
X29339000Y-47480000D01*
X29339000Y-45400000D02*
X29339000Y-44216000D01*
X29299000Y-48640000D02*
X29299000Y-47480000D01*
X29299000Y-45400000D02*
X29299000Y-44240000D01*
X29259000Y-48615000D02*
X29259000Y-47480000D01*
X29259000Y-45400000D02*
X29259000Y-44265000D01*
X29219000Y-48589000D02*
X29219000Y-47480000D01*
X29219000Y-45400000D02*
X29219000Y-44291000D01*
X29179000Y-48562000D02*
X29179000Y-47480000D01*
X29179000Y-45400000D02*
X29179000Y-44318000D01*
X29139000Y-48535000D02*
X29139000Y-47480000D01*
X29139000Y-45400000D02*
X29139000Y-44345000D01*
X29099000Y-48505000D02*
X29099000Y-47480000D01*
X29099000Y-45400000D02*
X29099000Y-44375000D01*
X29059000Y-48475000D02*
X29059000Y-47480000D01*
X29059000Y-45400000D02*
X29059000Y-44405000D01*
X29019000Y-48444000D02*
X29019000Y-47480000D01*
X29019000Y-45400000D02*
X29019000Y-44436000D01*
X28979000Y-48411000D02*
X28979000Y-47480000D01*
X28979000Y-45400000D02*
X28979000Y-44469000D01*
X28939000Y-48377000D02*
X28939000Y-47480000D01*
X28939000Y-45400000D02*
X28939000Y-44503000D01*
X28899000Y-48341000D02*
X28899000Y-47480000D01*
X28899000Y-45400000D02*
X28899000Y-44539000D01*
X28859000Y-48304000D02*
X28859000Y-47480000D01*
X28859000Y-45400000D02*
X28859000Y-44576000D01*
X28819000Y-48266000D02*
X28819000Y-47480000D01*
X28819000Y-45400000D02*
X28819000Y-44614000D01*
X28779000Y-48225000D02*
X28779000Y-47480000D01*
X28779000Y-45400000D02*
X28779000Y-44655000D01*
X28739000Y-48183000D02*
X28739000Y-47480000D01*
X28739000Y-45400000D02*
X28739000Y-44697000D01*
X28699000Y-48139000D02*
X28699000Y-47480000D01*
X28699000Y-45400000D02*
X28699000Y-44741000D01*
X28659000Y-48093000D02*
X28659000Y-47480000D01*
X28659000Y-45400000D02*
X28659000Y-44787000D01*
X28619000Y-48045000D02*
X28619000Y-44835000D01*
X28579000Y-47994000D02*
X28579000Y-44886000D01*
X28539000Y-47940000D02*
X28539000Y-44940000D01*
X28499000Y-47883000D02*
X28499000Y-44997000D01*
X28459000Y-47823000D02*
X28459000Y-45057000D01*
X28419000Y-47759000D02*
X28419000Y-45121000D01*
X28379000Y-47691000D02*
X28379000Y-45189000D01*
X28339000Y-47618000D02*
X28339000Y-45262000D01*
X28299000Y-47538000D02*
X28299000Y-45342000D01*
X28259000Y-47451000D02*
X28259000Y-45429000D01*
X28219000Y-47355000D02*
X28219000Y-45525000D01*
X28179000Y-47245000D02*
X28179000Y-45635000D01*
X28139000Y-47117000D02*
X28139000Y-45763000D01*
X28099000Y-46958000D02*
X28099000Y-45922000D01*
X28059000Y-46724000D02*
X28059000Y-46156000D01*
X33280000Y-46440000D02*
G75*
G03*
X28040000Y-46440000I-2620000J0D01*
G01*
X28040000Y-46440000D02*
G75*
G03*
X33280000Y-46440000I2620000J0D01*
G01*
%TO.C,R14*%
X90230000Y-28080000D02*
X83690000Y-28080000D01*
X90230000Y-27750000D02*
X90230000Y-28080000D01*
X90230000Y-25670000D02*
X90230000Y-25340000D01*
X90230000Y-25340000D02*
X83690000Y-25340000D01*
X83690000Y-28080000D02*
X83690000Y-27750000D01*
X83690000Y-25340000D02*
X83690000Y-25670000D01*
%TO.C,R8*%
X54600000Y-20720000D02*
X54600000Y-14180000D01*
X54930000Y-20720000D02*
X54600000Y-20720000D01*
X57010000Y-20720000D02*
X57340000Y-20720000D01*
X57340000Y-20720000D02*
X57340000Y-14180000D01*
X54600000Y-14180000D02*
X54930000Y-14180000D01*
X57340000Y-14180000D02*
X57010000Y-14180000D01*
%TO.C,R10*%
X49700000Y-22190000D02*
X49700000Y-28730000D01*
X49370000Y-22190000D02*
X49700000Y-22190000D01*
X47290000Y-22190000D02*
X46960000Y-22190000D01*
X46960000Y-22190000D02*
X46960000Y-28730000D01*
X49700000Y-28730000D02*
X49370000Y-28730000D01*
X46960000Y-28730000D02*
X47290000Y-28730000D01*
%TO.C,R20*%
X72730000Y-8780000D02*
X66190000Y-8780000D01*
X72730000Y-8450000D02*
X72730000Y-8780000D01*
X72730000Y-6370000D02*
X72730000Y-6040000D01*
X72730000Y-6040000D02*
X66190000Y-6040000D01*
X66190000Y-8780000D02*
X66190000Y-8450000D01*
X66190000Y-6040000D02*
X66190000Y-6370000D01*
%TO.C,Q4*%
X52250000Y-9540000D02*
X56100000Y-9540000D01*
X54190000Y-5240001D02*
G75*
G03*
X51833601Y-6741193I0J-2599999D01*
G01*
X51867369Y-8962045D02*
G75*
G03*
X52250000Y-9540000I2322631J1122045D01*
G01*
X56546400Y-6741193D02*
G75*
G03*
X54190000Y-5240000I-2356400J-1098807D01*
G01*
X56099999Y-9539999D02*
G75*
G03*
X56492382Y-8952264I-1909999J1699999D01*
G01*
%TO.C,D6*%
X74920000Y-54750000D02*
X74920000Y-49310000D01*
X75050000Y-54750000D02*
X74920000Y-54750000D01*
X77730000Y-54750000D02*
X77860000Y-54750000D01*
X77860000Y-54750000D02*
X77860000Y-49310000D01*
X74920000Y-53970000D02*
X77860000Y-53970000D01*
X74920000Y-53850000D02*
X77860000Y-53850000D01*
X74920000Y-53730000D02*
X77860000Y-53730000D01*
X74920000Y-49310000D02*
X75050000Y-49310000D01*
X77860000Y-49310000D02*
X77730000Y-49310000D01*
%TO.C,U3*%
X74740000Y-17890000D02*
X85140000Y-17890000D01*
X85140000Y-17890000D02*
X85140000Y-7610000D01*
X74800000Y-15400000D02*
X85080000Y-15400000D01*
X85080000Y-15400000D02*
X85080000Y-10100000D01*
X74800000Y-13750000D02*
X74800000Y-15400000D01*
X74800000Y-10100000D02*
X74800000Y-11750000D01*
X85080000Y-10100000D02*
X74800000Y-10100000D01*
X74740000Y-7610000D02*
X74740000Y-17890000D01*
X85140000Y-7610000D02*
X74740000Y-7610000D01*
X74800000Y-13750000D02*
G75*
G03*
X74800000Y-11750000I0J1000000D01*
G01*
%TO.C,R3*%
X34950000Y-9660000D02*
X34950000Y-10430000D01*
X36320000Y-10430000D02*
X33580000Y-10430000D01*
X33580000Y-10430000D02*
X33580000Y-16970000D01*
X36320000Y-16970000D02*
X36320000Y-10430000D01*
X33580000Y-16970000D02*
X36320000Y-16970000D01*
X34950000Y-17740000D02*
X34950000Y-16970000D01*
%TO.C,R17*%
X46404000Y-28290000D02*
X46404000Y-42830000D01*
X45074000Y-28290000D02*
X46404000Y-28290000D01*
X41794000Y-28290000D02*
X40464000Y-28290000D01*
X40464000Y-28290000D02*
X40464000Y-42830000D01*
X46404000Y-42830000D02*
X45074000Y-42830000D01*
X40464000Y-42830000D02*
X41794000Y-42830000D01*
%TO.C,C6*%
X67320000Y-22000000D02*
X67320000Y-22315000D01*
X67320000Y-22000000D02*
X72560000Y-22000000D01*
X67320000Y-24425000D02*
X67320000Y-24740000D01*
X67320000Y-24740000D02*
X72560000Y-24740000D01*
X72560000Y-22000000D02*
X72560000Y-22315000D01*
X72560000Y-24425000D02*
X72560000Y-24740000D01*
%TO.C,J5*%
X71920000Y-45770000D02*
X71920000Y-38150000D01*
X71920000Y-38150000D02*
X61760000Y-38150000D01*
X61760000Y-45770000D02*
X71920000Y-45770000D01*
X61760000Y-39420000D02*
X71920000Y-39420000D01*
X61760000Y-38150000D02*
X61760000Y-45770000D01*
%TO.C,D5*%
X73900000Y-49250000D02*
X73900000Y-54690000D01*
X73770000Y-49250000D02*
X73900000Y-49250000D01*
X71090000Y-49250000D02*
X70960000Y-49250000D01*
X70960000Y-49250000D02*
X70960000Y-54690000D01*
X73900000Y-50030000D02*
X70960000Y-50030000D01*
X73900000Y-50150000D02*
X70960000Y-50150000D01*
X73900000Y-50270000D02*
X70960000Y-50270000D01*
X73900000Y-54690000D02*
X73770000Y-54690000D01*
X70960000Y-54690000D02*
X71090000Y-54690000D01*
%TO.C,C7*%
X95830000Y-20910000D02*
X95830000Y-20595000D01*
X95830000Y-20910000D02*
X90590000Y-20910000D01*
X95830000Y-18485000D02*
X95830000Y-18170000D01*
X95830000Y-18170000D02*
X90590000Y-18170000D01*
X90590000Y-20910000D02*
X90590000Y-20595000D01*
X90590000Y-18485000D02*
X90590000Y-18170000D01*
%TO.C,D1*%
X31830000Y-24500000D02*
X31830000Y-26790000D01*
X33300000Y-26790000D02*
X30360000Y-26790000D01*
X30360000Y-26790000D02*
X30360000Y-32230000D01*
X33300000Y-27570000D02*
X30360000Y-27570000D01*
X33300000Y-27690000D02*
X30360000Y-27690000D01*
X33300000Y-27810000D02*
X30360000Y-27810000D01*
X33300000Y-32230000D02*
X33300000Y-26790000D01*
X30360000Y-32230000D02*
X33300000Y-32230000D01*
X31830000Y-34520000D02*
X31830000Y-32230000D01*
%TO.C,R2*%
X30360000Y-7970000D02*
X30360000Y-14510000D01*
X30030000Y-7970000D02*
X30360000Y-7970000D01*
X27950000Y-7970000D02*
X27620000Y-7970000D01*
X27620000Y-7970000D02*
X27620000Y-14510000D01*
X30360000Y-14510000D02*
X30030000Y-14510000D01*
X27620000Y-14510000D02*
X27950000Y-14510000D01*
%TO.C,U2*%
X33900000Y-45360000D02*
X38541000Y-45360000D01*
X33900000Y-45360000D02*
X33900000Y-35120000D01*
X35410000Y-45360000D02*
X35410000Y-35120000D01*
X38541000Y-45360000D02*
X38541000Y-35120000D01*
X33900000Y-42090000D02*
X35410000Y-42090000D01*
X33900000Y-38389000D02*
X35410000Y-38389000D01*
X33900000Y-35120000D02*
X38541000Y-35120000D01*
%TO.C,R4*%
X52290000Y-16620000D02*
X51520000Y-16620000D01*
X51520000Y-17990000D02*
X51520000Y-15250000D01*
X51520000Y-15250000D02*
X44980000Y-15250000D01*
X44980000Y-17990000D02*
X51520000Y-17990000D01*
X44980000Y-15250000D02*
X44980000Y-17990000D01*
X44210000Y-16620000D02*
X44980000Y-16620000D01*
%TO.C,Q3*%
X50290000Y-27210000D02*
X50290000Y-31851000D01*
X50290000Y-27210000D02*
X60530000Y-27210000D01*
X50290000Y-28720000D02*
X60530000Y-28720000D01*
X50290000Y-31851000D02*
X60530000Y-31851000D01*
X53560000Y-27210000D02*
X53560000Y-28720000D01*
X57261000Y-27210000D02*
X57261000Y-28720000D01*
X60530000Y-27210000D02*
X60530000Y-31851000D01*
%TD*%
M02*
