%TF.GenerationSoftware,KiCad,Pcbnew,7.0.11+dfsg-1build4*%
%TF.CreationDate,2026-09-25T17:20:47-05:00*%
%TF.ProjectId,Synchronizer,53796e63-6872-46f6-9e69-7a65722e6b69,rev?*%
%TF.SameCoordinates,Original*%
%TF.FileFunction,Legend,Top*%
%TF.FilePolarity,Positive*%
%FSLAX46Y46*%
G04 Gerber Fmt 4.6, Leading zero omitted, Abs format (unit mm)*
G04 Created by KiCad (PCBNEW 7.0.11+dfsg-1build4) date 2026-09-25 17:20:47*
%MOMM*%
%LPD*%
G01*
G04 APERTURE LIST*
%ADD10C,0.150000*%
%ADD11C,0.120000*%
G04 APERTURE END LIST*
D10*
X36928588Y-15681438D02*
X36833350Y-15633819D01*
X36833350Y-15633819D02*
X36690493Y-15633819D01*
X36690493Y-15633819D02*
X36547636Y-15681438D01*
X36547636Y-15681438D02*
X36452398Y-15776676D01*
X36452398Y-15776676D02*
X36404779Y-15871914D01*
X36404779Y-15871914D02*
X36357160Y-16062390D01*
X36357160Y-16062390D02*
X36357160Y-16205247D01*
X36357160Y-16205247D02*
X36404779Y-16395723D01*
X36404779Y-16395723D02*
X36452398Y-16490961D01*
X36452398Y-16490961D02*
X36547636Y-16586200D01*
X36547636Y-16586200D02*
X36690493Y-16633819D01*
X36690493Y-16633819D02*
X36785731Y-16633819D01*
X36785731Y-16633819D02*
X36928588Y-16586200D01*
X36928588Y-16586200D02*
X36976207Y-16538580D01*
X36976207Y-16538580D02*
X36976207Y-16205247D01*
X36976207Y-16205247D02*
X36785731Y-16205247D01*
X37404779Y-16633819D02*
X37404779Y-15633819D01*
X37404779Y-15633819D02*
X37976207Y-16633819D01*
X37976207Y-16633819D02*
X37976207Y-15633819D01*
X38452398Y-16633819D02*
X38452398Y-15633819D01*
X38452398Y-15633819D02*
X38690493Y-15633819D01*
X38690493Y-15633819D02*
X38833350Y-15681438D01*
X38833350Y-15681438D02*
X38928588Y-15776676D01*
X38928588Y-15776676D02*
X38976207Y-15871914D01*
X38976207Y-15871914D02*
X39023826Y-16062390D01*
X39023826Y-16062390D02*
X39023826Y-16205247D01*
X39023826Y-16205247D02*
X38976207Y-16395723D01*
X38976207Y-16395723D02*
X38928588Y-16490961D01*
X38928588Y-16490961D02*
X38833350Y-16586200D01*
X38833350Y-16586200D02*
X38690493Y-16633819D01*
X38690493Y-16633819D02*
X38452398Y-16633819D01*
X36982569Y-12992219D02*
X36506379Y-12992219D01*
X36506379Y-12992219D02*
X36458760Y-13468409D01*
X36458760Y-13468409D02*
X36506379Y-13420790D01*
X36506379Y-13420790D02*
X36601617Y-13373171D01*
X36601617Y-13373171D02*
X36839712Y-13373171D01*
X36839712Y-13373171D02*
X36934950Y-13420790D01*
X36934950Y-13420790D02*
X36982569Y-13468409D01*
X36982569Y-13468409D02*
X37030188Y-13563647D01*
X37030188Y-13563647D02*
X37030188Y-13801742D01*
X37030188Y-13801742D02*
X36982569Y-13896980D01*
X36982569Y-13896980D02*
X36934950Y-13944600D01*
X36934950Y-13944600D02*
X36839712Y-13992219D01*
X36839712Y-13992219D02*
X36601617Y-13992219D01*
X36601617Y-13992219D02*
X36506379Y-13944600D01*
X36506379Y-13944600D02*
X36458760Y-13896980D01*
X37315903Y-12992219D02*
X37649236Y-13992219D01*
X37649236Y-13992219D02*
X37982569Y-12992219D01*
X36411141Y-10604619D02*
X37030188Y-10604619D01*
X37030188Y-10604619D02*
X36696855Y-10985571D01*
X36696855Y-10985571D02*
X36839712Y-10985571D01*
X36839712Y-10985571D02*
X36934950Y-11033190D01*
X36934950Y-11033190D02*
X36982569Y-11080809D01*
X36982569Y-11080809D02*
X37030188Y-11176047D01*
X37030188Y-11176047D02*
X37030188Y-11414142D01*
X37030188Y-11414142D02*
X36982569Y-11509380D01*
X36982569Y-11509380D02*
X36934950Y-11557000D01*
X36934950Y-11557000D02*
X36839712Y-11604619D01*
X36839712Y-11604619D02*
X36553998Y-11604619D01*
X36553998Y-11604619D02*
X36458760Y-11557000D01*
X36458760Y-11557000D02*
X36411141Y-11509380D01*
X37315903Y-10604619D02*
X37649236Y-11604619D01*
X37649236Y-11604619D02*
X37982569Y-10604619D01*
X38220665Y-10604619D02*
X38839712Y-10604619D01*
X38839712Y-10604619D02*
X38506379Y-10985571D01*
X38506379Y-10985571D02*
X38649236Y-10985571D01*
X38649236Y-10985571D02*
X38744474Y-11033190D01*
X38744474Y-11033190D02*
X38792093Y-11080809D01*
X38792093Y-11080809D02*
X38839712Y-11176047D01*
X38839712Y-11176047D02*
X38839712Y-11414142D01*
X38839712Y-11414142D02*
X38792093Y-11509380D01*
X38792093Y-11509380D02*
X38744474Y-11557000D01*
X38744474Y-11557000D02*
X38649236Y-11604619D01*
X38649236Y-11604619D02*
X38363522Y-11604619D01*
X38363522Y-11604619D02*
X38268284Y-11557000D01*
X38268284Y-11557000D02*
X38220665Y-11509380D01*
X78602969Y-13239819D02*
X78126779Y-13239819D01*
X78126779Y-13239819D02*
X78126779Y-12239819D01*
X78936303Y-13239819D02*
X78936303Y-12239819D01*
X78936303Y-12239819D02*
X79269636Y-12954104D01*
X79269636Y-12954104D02*
X79602969Y-12239819D01*
X79602969Y-12239819D02*
X79602969Y-13239819D01*
X79983922Y-12239819D02*
X80602969Y-12239819D01*
X80602969Y-12239819D02*
X80269636Y-12620771D01*
X80269636Y-12620771D02*
X80412493Y-12620771D01*
X80412493Y-12620771D02*
X80507731Y-12668390D01*
X80507731Y-12668390D02*
X80555350Y-12716009D01*
X80555350Y-12716009D02*
X80602969Y-12811247D01*
X80602969Y-12811247D02*
X80602969Y-13049342D01*
X80602969Y-13049342D02*
X80555350Y-13144580D01*
X80555350Y-13144580D02*
X80507731Y-13192200D01*
X80507731Y-13192200D02*
X80412493Y-13239819D01*
X80412493Y-13239819D02*
X80126779Y-13239819D01*
X80126779Y-13239819D02*
X80031541Y-13192200D01*
X80031541Y-13192200D02*
X79983922Y-13144580D01*
X81507731Y-12239819D02*
X81031541Y-12239819D01*
X81031541Y-12239819D02*
X80983922Y-12716009D01*
X80983922Y-12716009D02*
X81031541Y-12668390D01*
X81031541Y-12668390D02*
X81126779Y-12620771D01*
X81126779Y-12620771D02*
X81364874Y-12620771D01*
X81364874Y-12620771D02*
X81460112Y-12668390D01*
X81460112Y-12668390D02*
X81507731Y-12716009D01*
X81507731Y-12716009D02*
X81555350Y-12811247D01*
X81555350Y-12811247D02*
X81555350Y-13049342D01*
X81555350Y-13049342D02*
X81507731Y-13144580D01*
X81507731Y-13144580D02*
X81460112Y-13192200D01*
X81460112Y-13192200D02*
X81364874Y-13239819D01*
X81364874Y-13239819D02*
X81126779Y-13239819D01*
X81126779Y-13239819D02*
X81031541Y-13192200D01*
X81031541Y-13192200D02*
X80983922Y-13144580D01*
X82126779Y-12668390D02*
X82031541Y-12620771D01*
X82031541Y-12620771D02*
X81983922Y-12573152D01*
X81983922Y-12573152D02*
X81936303Y-12477914D01*
X81936303Y-12477914D02*
X81936303Y-12430295D01*
X81936303Y-12430295D02*
X81983922Y-12335057D01*
X81983922Y-12335057D02*
X82031541Y-12287438D01*
X82031541Y-12287438D02*
X82126779Y-12239819D01*
X82126779Y-12239819D02*
X82317255Y-12239819D01*
X82317255Y-12239819D02*
X82412493Y-12287438D01*
X82412493Y-12287438D02*
X82460112Y-12335057D01*
X82460112Y-12335057D02*
X82507731Y-12430295D01*
X82507731Y-12430295D02*
X82507731Y-12477914D01*
X82507731Y-12477914D02*
X82460112Y-12573152D01*
X82460112Y-12573152D02*
X82412493Y-12620771D01*
X82412493Y-12620771D02*
X82317255Y-12668390D01*
X82317255Y-12668390D02*
X82126779Y-12668390D01*
X82126779Y-12668390D02*
X82031541Y-12716009D01*
X82031541Y-12716009D02*
X81983922Y-12763628D01*
X81983922Y-12763628D02*
X81936303Y-12858866D01*
X81936303Y-12858866D02*
X81936303Y-13049342D01*
X81936303Y-13049342D02*
X81983922Y-13144580D01*
X81983922Y-13144580D02*
X82031541Y-13192200D01*
X82031541Y-13192200D02*
X82126779Y-13239819D01*
X82126779Y-13239819D02*
X82317255Y-13239819D01*
X82317255Y-13239819D02*
X82412493Y-13192200D01*
X82412493Y-13192200D02*
X82460112Y-13144580D01*
X82460112Y-13144580D02*
X82507731Y-13049342D01*
X82507731Y-13049342D02*
X82507731Y-12858866D01*
X82507731Y-12858866D02*
X82460112Y-12763628D01*
X82460112Y-12763628D02*
X82412493Y-12716009D01*
X82412493Y-12716009D02*
X82317255Y-12668390D01*
X61820588Y-59877438D02*
X61725350Y-59829819D01*
X61725350Y-59829819D02*
X61582493Y-59829819D01*
X61582493Y-59829819D02*
X61439636Y-59877438D01*
X61439636Y-59877438D02*
X61344398Y-59972676D01*
X61344398Y-59972676D02*
X61296779Y-60067914D01*
X61296779Y-60067914D02*
X61249160Y-60258390D01*
X61249160Y-60258390D02*
X61249160Y-60401247D01*
X61249160Y-60401247D02*
X61296779Y-60591723D01*
X61296779Y-60591723D02*
X61344398Y-60686961D01*
X61344398Y-60686961D02*
X61439636Y-60782200D01*
X61439636Y-60782200D02*
X61582493Y-60829819D01*
X61582493Y-60829819D02*
X61677731Y-60829819D01*
X61677731Y-60829819D02*
X61820588Y-60782200D01*
X61820588Y-60782200D02*
X61868207Y-60734580D01*
X61868207Y-60734580D02*
X61868207Y-60401247D01*
X61868207Y-60401247D02*
X61677731Y-60401247D01*
X62296779Y-60829819D02*
X62296779Y-59829819D01*
X62296779Y-59829819D02*
X62868207Y-60829819D01*
X62868207Y-60829819D02*
X62868207Y-59829819D01*
X63344398Y-60829819D02*
X63344398Y-59829819D01*
X63344398Y-59829819D02*
X63582493Y-59829819D01*
X63582493Y-59829819D02*
X63725350Y-59877438D01*
X63725350Y-59877438D02*
X63820588Y-59972676D01*
X63820588Y-59972676D02*
X63868207Y-60067914D01*
X63868207Y-60067914D02*
X63915826Y-60258390D01*
X63915826Y-60258390D02*
X63915826Y-60401247D01*
X63915826Y-60401247D02*
X63868207Y-60591723D01*
X63868207Y-60591723D02*
X63820588Y-60686961D01*
X63820588Y-60686961D02*
X63725350Y-60782200D01*
X63725350Y-60782200D02*
X63582493Y-60829819D01*
X63582493Y-60829819D02*
X63344398Y-60829819D01*
X34280588Y-58277438D02*
X34185350Y-58229819D01*
X34185350Y-58229819D02*
X34042493Y-58229819D01*
X34042493Y-58229819D02*
X33899636Y-58277438D01*
X33899636Y-58277438D02*
X33804398Y-58372676D01*
X33804398Y-58372676D02*
X33756779Y-58467914D01*
X33756779Y-58467914D02*
X33709160Y-58658390D01*
X33709160Y-58658390D02*
X33709160Y-58801247D01*
X33709160Y-58801247D02*
X33756779Y-58991723D01*
X33756779Y-58991723D02*
X33804398Y-59086961D01*
X33804398Y-59086961D02*
X33899636Y-59182200D01*
X33899636Y-59182200D02*
X34042493Y-59229819D01*
X34042493Y-59229819D02*
X34137731Y-59229819D01*
X34137731Y-59229819D02*
X34280588Y-59182200D01*
X34280588Y-59182200D02*
X34328207Y-59134580D01*
X34328207Y-59134580D02*
X34328207Y-58801247D01*
X34328207Y-58801247D02*
X34137731Y-58801247D01*
X34756779Y-59229819D02*
X34756779Y-58229819D01*
X34756779Y-58229819D02*
X35328207Y-59229819D01*
X35328207Y-59229819D02*
X35328207Y-58229819D01*
X35804398Y-59229819D02*
X35804398Y-58229819D01*
X35804398Y-58229819D02*
X36042493Y-58229819D01*
X36042493Y-58229819D02*
X36185350Y-58277438D01*
X36185350Y-58277438D02*
X36280588Y-58372676D01*
X36280588Y-58372676D02*
X36328207Y-58467914D01*
X36328207Y-58467914D02*
X36375826Y-58658390D01*
X36375826Y-58658390D02*
X36375826Y-58801247D01*
X36375826Y-58801247D02*
X36328207Y-58991723D01*
X36328207Y-58991723D02*
X36280588Y-59086961D01*
X36280588Y-59086961D02*
X36185350Y-59182200D01*
X36185350Y-59182200D02*
X36042493Y-59229819D01*
X36042493Y-59229819D02*
X35804398Y-59229819D01*
X87919160Y-60782200D02*
X88062017Y-60829819D01*
X88062017Y-60829819D02*
X88300112Y-60829819D01*
X88300112Y-60829819D02*
X88395350Y-60782200D01*
X88395350Y-60782200D02*
X88442969Y-60734580D01*
X88442969Y-60734580D02*
X88490588Y-60639342D01*
X88490588Y-60639342D02*
X88490588Y-60544104D01*
X88490588Y-60544104D02*
X88442969Y-60448866D01*
X88442969Y-60448866D02*
X88395350Y-60401247D01*
X88395350Y-60401247D02*
X88300112Y-60353628D01*
X88300112Y-60353628D02*
X88109636Y-60306009D01*
X88109636Y-60306009D02*
X88014398Y-60258390D01*
X88014398Y-60258390D02*
X87966779Y-60210771D01*
X87966779Y-60210771D02*
X87919160Y-60115533D01*
X87919160Y-60115533D02*
X87919160Y-60020295D01*
X87919160Y-60020295D02*
X87966779Y-59925057D01*
X87966779Y-59925057D02*
X88014398Y-59877438D01*
X88014398Y-59877438D02*
X88109636Y-59829819D01*
X88109636Y-59829819D02*
X88347731Y-59829819D01*
X88347731Y-59829819D02*
X88490588Y-59877438D01*
X88919160Y-60306009D02*
X89252493Y-60306009D01*
X89395350Y-60829819D02*
X88919160Y-60829819D01*
X88919160Y-60829819D02*
X88919160Y-59829819D01*
X88919160Y-59829819D02*
X89395350Y-59829819D01*
X89823922Y-60829819D02*
X89823922Y-59829819D01*
X89823922Y-59829819D02*
X90395350Y-60829819D01*
X90395350Y-60829819D02*
X90395350Y-59829819D01*
X90823922Y-60782200D02*
X90966779Y-60829819D01*
X90966779Y-60829819D02*
X91204874Y-60829819D01*
X91204874Y-60829819D02*
X91300112Y-60782200D01*
X91300112Y-60782200D02*
X91347731Y-60734580D01*
X91347731Y-60734580D02*
X91395350Y-60639342D01*
X91395350Y-60639342D02*
X91395350Y-60544104D01*
X91395350Y-60544104D02*
X91347731Y-60448866D01*
X91347731Y-60448866D02*
X91300112Y-60401247D01*
X91300112Y-60401247D02*
X91204874Y-60353628D01*
X91204874Y-60353628D02*
X91014398Y-60306009D01*
X91014398Y-60306009D02*
X90919160Y-60258390D01*
X90919160Y-60258390D02*
X90871541Y-60210771D01*
X90871541Y-60210771D02*
X90823922Y-60115533D01*
X90823922Y-60115533D02*
X90823922Y-60020295D01*
X90823922Y-60020295D02*
X90871541Y-59925057D01*
X90871541Y-59925057D02*
X90919160Y-59877438D01*
X90919160Y-59877438D02*
X91014398Y-59829819D01*
X91014398Y-59829819D02*
X91252493Y-59829819D01*
X91252493Y-59829819D02*
X91395350Y-59877438D01*
X91823922Y-60306009D02*
X92157255Y-60306009D01*
X92300112Y-60829819D02*
X91823922Y-60829819D01*
X91823922Y-60829819D02*
X91823922Y-59829819D01*
X91823922Y-59829819D02*
X92300112Y-59829819D01*
X33166207Y-2904580D02*
X33118588Y-2952200D01*
X33118588Y-2952200D02*
X32975731Y-2999819D01*
X32975731Y-2999819D02*
X32880493Y-2999819D01*
X32880493Y-2999819D02*
X32737636Y-2952200D01*
X32737636Y-2952200D02*
X32642398Y-2856961D01*
X32642398Y-2856961D02*
X32594779Y-2761723D01*
X32594779Y-2761723D02*
X32547160Y-2571247D01*
X32547160Y-2571247D02*
X32547160Y-2428390D01*
X32547160Y-2428390D02*
X32594779Y-2237914D01*
X32594779Y-2237914D02*
X32642398Y-2142676D01*
X32642398Y-2142676D02*
X32737636Y-2047438D01*
X32737636Y-2047438D02*
X32880493Y-1999819D01*
X32880493Y-1999819D02*
X32975731Y-1999819D01*
X32975731Y-1999819D02*
X33118588Y-2047438D01*
X33118588Y-2047438D02*
X33166207Y-2095057D01*
X34070969Y-2999819D02*
X33594779Y-2999819D01*
X33594779Y-2999819D02*
X33594779Y-1999819D01*
X34594779Y-1999819D02*
X34785255Y-1999819D01*
X34785255Y-1999819D02*
X34880493Y-2047438D01*
X34880493Y-2047438D02*
X34975731Y-2142676D01*
X34975731Y-2142676D02*
X35023350Y-2333152D01*
X35023350Y-2333152D02*
X35023350Y-2666485D01*
X35023350Y-2666485D02*
X34975731Y-2856961D01*
X34975731Y-2856961D02*
X34880493Y-2952200D01*
X34880493Y-2952200D02*
X34785255Y-2999819D01*
X34785255Y-2999819D02*
X34594779Y-2999819D01*
X34594779Y-2999819D02*
X34499541Y-2952200D01*
X34499541Y-2952200D02*
X34404303Y-2856961D01*
X34404303Y-2856961D02*
X34356684Y-2666485D01*
X34356684Y-2666485D02*
X34356684Y-2333152D01*
X34356684Y-2333152D02*
X34404303Y-2142676D01*
X34404303Y-2142676D02*
X34499541Y-2047438D01*
X34499541Y-2047438D02*
X34594779Y-1999819D01*
X36023350Y-2904580D02*
X35975731Y-2952200D01*
X35975731Y-2952200D02*
X35832874Y-2999819D01*
X35832874Y-2999819D02*
X35737636Y-2999819D01*
X35737636Y-2999819D02*
X35594779Y-2952200D01*
X35594779Y-2952200D02*
X35499541Y-2856961D01*
X35499541Y-2856961D02*
X35451922Y-2761723D01*
X35451922Y-2761723D02*
X35404303Y-2571247D01*
X35404303Y-2571247D02*
X35404303Y-2428390D01*
X35404303Y-2428390D02*
X35451922Y-2237914D01*
X35451922Y-2237914D02*
X35499541Y-2142676D01*
X35499541Y-2142676D02*
X35594779Y-2047438D01*
X35594779Y-2047438D02*
X35737636Y-1999819D01*
X35737636Y-1999819D02*
X35832874Y-1999819D01*
X35832874Y-1999819D02*
X35975731Y-2047438D01*
X35975731Y-2047438D02*
X36023350Y-2095057D01*
X36451922Y-2999819D02*
X36451922Y-1999819D01*
X37023350Y-2999819D02*
X36594779Y-2428390D01*
X37023350Y-1999819D02*
X36451922Y-2571247D01*
X38166208Y-2952200D02*
X38309065Y-2999819D01*
X38309065Y-2999819D02*
X38547160Y-2999819D01*
X38547160Y-2999819D02*
X38642398Y-2952200D01*
X38642398Y-2952200D02*
X38690017Y-2904580D01*
X38690017Y-2904580D02*
X38737636Y-2809342D01*
X38737636Y-2809342D02*
X38737636Y-2714104D01*
X38737636Y-2714104D02*
X38690017Y-2618866D01*
X38690017Y-2618866D02*
X38642398Y-2571247D01*
X38642398Y-2571247D02*
X38547160Y-2523628D01*
X38547160Y-2523628D02*
X38356684Y-2476009D01*
X38356684Y-2476009D02*
X38261446Y-2428390D01*
X38261446Y-2428390D02*
X38213827Y-2380771D01*
X38213827Y-2380771D02*
X38166208Y-2285533D01*
X38166208Y-2285533D02*
X38166208Y-2190295D01*
X38166208Y-2190295D02*
X38213827Y-2095057D01*
X38213827Y-2095057D02*
X38261446Y-2047438D01*
X38261446Y-2047438D02*
X38356684Y-1999819D01*
X38356684Y-1999819D02*
X38594779Y-1999819D01*
X38594779Y-1999819D02*
X38737636Y-2047438D01*
X39356684Y-2523628D02*
X39356684Y-2999819D01*
X39023351Y-1999819D02*
X39356684Y-2523628D01*
X39356684Y-2523628D02*
X39690017Y-1999819D01*
X40023351Y-2999819D02*
X40023351Y-1999819D01*
X40023351Y-1999819D02*
X40594779Y-2999819D01*
X40594779Y-2999819D02*
X40594779Y-1999819D01*
X41642398Y-2904580D02*
X41594779Y-2952200D01*
X41594779Y-2952200D02*
X41451922Y-2999819D01*
X41451922Y-2999819D02*
X41356684Y-2999819D01*
X41356684Y-2999819D02*
X41213827Y-2952200D01*
X41213827Y-2952200D02*
X41118589Y-2856961D01*
X41118589Y-2856961D02*
X41070970Y-2761723D01*
X41070970Y-2761723D02*
X41023351Y-2571247D01*
X41023351Y-2571247D02*
X41023351Y-2428390D01*
X41023351Y-2428390D02*
X41070970Y-2237914D01*
X41070970Y-2237914D02*
X41118589Y-2142676D01*
X41118589Y-2142676D02*
X41213827Y-2047438D01*
X41213827Y-2047438D02*
X41356684Y-1999819D01*
X41356684Y-1999819D02*
X41451922Y-1999819D01*
X41451922Y-1999819D02*
X41594779Y-2047438D01*
X41594779Y-2047438D02*
X41642398Y-2095057D01*
X42070970Y-2999819D02*
X42070970Y-1999819D01*
X42070970Y-2476009D02*
X42642398Y-2476009D01*
X42642398Y-2999819D02*
X42642398Y-1999819D01*
X43690017Y-2999819D02*
X43356684Y-2523628D01*
X43118589Y-2999819D02*
X43118589Y-1999819D01*
X43118589Y-1999819D02*
X43499541Y-1999819D01*
X43499541Y-1999819D02*
X43594779Y-2047438D01*
X43594779Y-2047438D02*
X43642398Y-2095057D01*
X43642398Y-2095057D02*
X43690017Y-2190295D01*
X43690017Y-2190295D02*
X43690017Y-2333152D01*
X43690017Y-2333152D02*
X43642398Y-2428390D01*
X43642398Y-2428390D02*
X43594779Y-2476009D01*
X43594779Y-2476009D02*
X43499541Y-2523628D01*
X43499541Y-2523628D02*
X43118589Y-2523628D01*
X44309065Y-1999819D02*
X44499541Y-1999819D01*
X44499541Y-1999819D02*
X44594779Y-2047438D01*
X44594779Y-2047438D02*
X44690017Y-2142676D01*
X44690017Y-2142676D02*
X44737636Y-2333152D01*
X44737636Y-2333152D02*
X44737636Y-2666485D01*
X44737636Y-2666485D02*
X44690017Y-2856961D01*
X44690017Y-2856961D02*
X44594779Y-2952200D01*
X44594779Y-2952200D02*
X44499541Y-2999819D01*
X44499541Y-2999819D02*
X44309065Y-2999819D01*
X44309065Y-2999819D02*
X44213827Y-2952200D01*
X44213827Y-2952200D02*
X44118589Y-2856961D01*
X44118589Y-2856961D02*
X44070970Y-2666485D01*
X44070970Y-2666485D02*
X44070970Y-2333152D01*
X44070970Y-2333152D02*
X44118589Y-2142676D01*
X44118589Y-2142676D02*
X44213827Y-2047438D01*
X44213827Y-2047438D02*
X44309065Y-1999819D01*
X45166208Y-2999819D02*
X45166208Y-1999819D01*
X45166208Y-1999819D02*
X45737636Y-2999819D01*
X45737636Y-2999819D02*
X45737636Y-1999819D01*
X46213827Y-2999819D02*
X46213827Y-1999819D01*
X46594779Y-1999819D02*
X47261445Y-1999819D01*
X47261445Y-1999819D02*
X46594779Y-2999819D01*
X46594779Y-2999819D02*
X47261445Y-2999819D01*
X47642398Y-2476009D02*
X47975731Y-2476009D01*
X48118588Y-2999819D02*
X47642398Y-2999819D01*
X47642398Y-2999819D02*
X47642398Y-1999819D01*
X47642398Y-1999819D02*
X48118588Y-1999819D01*
X49118588Y-2999819D02*
X48785255Y-2523628D01*
X48547160Y-2999819D02*
X48547160Y-1999819D01*
X48547160Y-1999819D02*
X48928112Y-1999819D01*
X48928112Y-1999819D02*
X49023350Y-2047438D01*
X49023350Y-2047438D02*
X49070969Y-2095057D01*
X49070969Y-2095057D02*
X49118588Y-2190295D01*
X49118588Y-2190295D02*
X49118588Y-2333152D01*
X49118588Y-2333152D02*
X49070969Y-2428390D01*
X49070969Y-2428390D02*
X49023350Y-2476009D01*
X49023350Y-2476009D02*
X48928112Y-2523628D01*
X48928112Y-2523628D02*
X48547160Y-2523628D01*
X50880493Y-2904580D02*
X50832874Y-2952200D01*
X50832874Y-2952200D02*
X50690017Y-2999819D01*
X50690017Y-2999819D02*
X50594779Y-2999819D01*
X50594779Y-2999819D02*
X50451922Y-2952200D01*
X50451922Y-2952200D02*
X50356684Y-2856961D01*
X50356684Y-2856961D02*
X50309065Y-2761723D01*
X50309065Y-2761723D02*
X50261446Y-2571247D01*
X50261446Y-2571247D02*
X50261446Y-2428390D01*
X50261446Y-2428390D02*
X50309065Y-2237914D01*
X50309065Y-2237914D02*
X50356684Y-2142676D01*
X50356684Y-2142676D02*
X50451922Y-2047438D01*
X50451922Y-2047438D02*
X50594779Y-1999819D01*
X50594779Y-1999819D02*
X50690017Y-1999819D01*
X50690017Y-1999819D02*
X50832874Y-2047438D01*
X50832874Y-2047438D02*
X50880493Y-2095057D01*
X51309065Y-2999819D02*
X51309065Y-1999819D01*
X52356683Y-2999819D02*
X52023350Y-2523628D01*
X51785255Y-2999819D02*
X51785255Y-1999819D01*
X51785255Y-1999819D02*
X52166207Y-1999819D01*
X52166207Y-1999819D02*
X52261445Y-2047438D01*
X52261445Y-2047438D02*
X52309064Y-2095057D01*
X52309064Y-2095057D02*
X52356683Y-2190295D01*
X52356683Y-2190295D02*
X52356683Y-2333152D01*
X52356683Y-2333152D02*
X52309064Y-2428390D01*
X52309064Y-2428390D02*
X52261445Y-2476009D01*
X52261445Y-2476009D02*
X52166207Y-2523628D01*
X52166207Y-2523628D02*
X51785255Y-2523628D01*
X53356683Y-2904580D02*
X53309064Y-2952200D01*
X53309064Y-2952200D02*
X53166207Y-2999819D01*
X53166207Y-2999819D02*
X53070969Y-2999819D01*
X53070969Y-2999819D02*
X52928112Y-2952200D01*
X52928112Y-2952200D02*
X52832874Y-2856961D01*
X52832874Y-2856961D02*
X52785255Y-2761723D01*
X52785255Y-2761723D02*
X52737636Y-2571247D01*
X52737636Y-2571247D02*
X52737636Y-2428390D01*
X52737636Y-2428390D02*
X52785255Y-2237914D01*
X52785255Y-2237914D02*
X52832874Y-2142676D01*
X52832874Y-2142676D02*
X52928112Y-2047438D01*
X52928112Y-2047438D02*
X53070969Y-1999819D01*
X53070969Y-1999819D02*
X53166207Y-1999819D01*
X53166207Y-1999819D02*
X53309064Y-2047438D01*
X53309064Y-2047438D02*
X53356683Y-2095057D01*
X53785255Y-1999819D02*
X53785255Y-2809342D01*
X53785255Y-2809342D02*
X53832874Y-2904580D01*
X53832874Y-2904580D02*
X53880493Y-2952200D01*
X53880493Y-2952200D02*
X53975731Y-2999819D01*
X53975731Y-2999819D02*
X54166207Y-2999819D01*
X54166207Y-2999819D02*
X54261445Y-2952200D01*
X54261445Y-2952200D02*
X54309064Y-2904580D01*
X54309064Y-2904580D02*
X54356683Y-2809342D01*
X54356683Y-2809342D02*
X54356683Y-1999819D01*
X54832874Y-2999819D02*
X54832874Y-1999819D01*
X55166207Y-1999819D02*
X55737635Y-1999819D01*
X55451921Y-2999819D02*
X55451921Y-1999819D01*
X32928112Y-4086009D02*
X33070969Y-4133628D01*
X33070969Y-4133628D02*
X33118588Y-4181247D01*
X33118588Y-4181247D02*
X33166207Y-4276485D01*
X33166207Y-4276485D02*
X33166207Y-4419342D01*
X33166207Y-4419342D02*
X33118588Y-4514580D01*
X33118588Y-4514580D02*
X33070969Y-4562200D01*
X33070969Y-4562200D02*
X32975731Y-4609819D01*
X32975731Y-4609819D02*
X32594779Y-4609819D01*
X32594779Y-4609819D02*
X32594779Y-3609819D01*
X32594779Y-3609819D02*
X32928112Y-3609819D01*
X32928112Y-3609819D02*
X33023350Y-3657438D01*
X33023350Y-3657438D02*
X33070969Y-3705057D01*
X33070969Y-3705057D02*
X33118588Y-3800295D01*
X33118588Y-3800295D02*
X33118588Y-3895533D01*
X33118588Y-3895533D02*
X33070969Y-3990771D01*
X33070969Y-3990771D02*
X33023350Y-4038390D01*
X33023350Y-4038390D02*
X32928112Y-4086009D01*
X32928112Y-4086009D02*
X32594779Y-4086009D01*
X33785255Y-4133628D02*
X33785255Y-4609819D01*
X33451922Y-3609819D02*
X33785255Y-4133628D01*
X33785255Y-4133628D02*
X34118588Y-3609819D01*
X35213827Y-4609819D02*
X35213827Y-3609819D01*
X35213827Y-3609819D02*
X35451922Y-3609819D01*
X35451922Y-3609819D02*
X35594779Y-3657438D01*
X35594779Y-3657438D02*
X35690017Y-3752676D01*
X35690017Y-3752676D02*
X35737636Y-3847914D01*
X35737636Y-3847914D02*
X35785255Y-4038390D01*
X35785255Y-4038390D02*
X35785255Y-4181247D01*
X35785255Y-4181247D02*
X35737636Y-4371723D01*
X35737636Y-4371723D02*
X35690017Y-4466961D01*
X35690017Y-4466961D02*
X35594779Y-4562200D01*
X35594779Y-4562200D02*
X35451922Y-4609819D01*
X35451922Y-4609819D02*
X35213827Y-4609819D01*
X36690017Y-4609819D02*
X36213827Y-4609819D01*
X36213827Y-4609819D02*
X36213827Y-3609819D01*
X37785256Y-4609819D02*
X37785256Y-3609819D01*
X37785256Y-3609819D02*
X38118589Y-4324104D01*
X38118589Y-4324104D02*
X38451922Y-3609819D01*
X38451922Y-3609819D02*
X38451922Y-4609819D01*
X38880494Y-4324104D02*
X39356684Y-4324104D01*
X38785256Y-4609819D02*
X39118589Y-3609819D01*
X39118589Y-3609819D02*
X39451922Y-4609819D01*
X40356684Y-4609819D02*
X40023351Y-4133628D01*
X39785256Y-4609819D02*
X39785256Y-3609819D01*
X39785256Y-3609819D02*
X40166208Y-3609819D01*
X40166208Y-3609819D02*
X40261446Y-3657438D01*
X40261446Y-3657438D02*
X40309065Y-3705057D01*
X40309065Y-3705057D02*
X40356684Y-3800295D01*
X40356684Y-3800295D02*
X40356684Y-3943152D01*
X40356684Y-3943152D02*
X40309065Y-4038390D01*
X40309065Y-4038390D02*
X40261446Y-4086009D01*
X40261446Y-4086009D02*
X40166208Y-4133628D01*
X40166208Y-4133628D02*
X39785256Y-4133628D01*
X40785256Y-4609819D02*
X40785256Y-3609819D01*
X41356684Y-4609819D02*
X40928113Y-4038390D01*
X41356684Y-3609819D02*
X40785256Y-4181247D01*
X41737637Y-4562200D02*
X41880494Y-4609819D01*
X41880494Y-4609819D02*
X42118589Y-4609819D01*
X42118589Y-4609819D02*
X42213827Y-4562200D01*
X42213827Y-4562200D02*
X42261446Y-4514580D01*
X42261446Y-4514580D02*
X42309065Y-4419342D01*
X42309065Y-4419342D02*
X42309065Y-4324104D01*
X42309065Y-4324104D02*
X42261446Y-4228866D01*
X42261446Y-4228866D02*
X42213827Y-4181247D01*
X42213827Y-4181247D02*
X42118589Y-4133628D01*
X42118589Y-4133628D02*
X41928113Y-4086009D01*
X41928113Y-4086009D02*
X41832875Y-4038390D01*
X41832875Y-4038390D02*
X41785256Y-3990771D01*
X41785256Y-3990771D02*
X41737637Y-3895533D01*
X41737637Y-3895533D02*
X41737637Y-3800295D01*
X41737637Y-3800295D02*
X41785256Y-3705057D01*
X41785256Y-3705057D02*
X41832875Y-3657438D01*
X41832875Y-3657438D02*
X41928113Y-3609819D01*
X41928113Y-3609819D02*
X42166208Y-3609819D01*
X42166208Y-3609819D02*
X42309065Y-3657438D01*
X42785256Y-4562200D02*
X42785256Y-4609819D01*
X42785256Y-4609819D02*
X42737637Y-4705057D01*
X42737637Y-4705057D02*
X42690018Y-4752676D01*
X44547160Y-4514580D02*
X44499541Y-4562200D01*
X44499541Y-4562200D02*
X44356684Y-4609819D01*
X44356684Y-4609819D02*
X44261446Y-4609819D01*
X44261446Y-4609819D02*
X44118589Y-4562200D01*
X44118589Y-4562200D02*
X44023351Y-4466961D01*
X44023351Y-4466961D02*
X43975732Y-4371723D01*
X43975732Y-4371723D02*
X43928113Y-4181247D01*
X43928113Y-4181247D02*
X43928113Y-4038390D01*
X43928113Y-4038390D02*
X43975732Y-3847914D01*
X43975732Y-3847914D02*
X44023351Y-3752676D01*
X44023351Y-3752676D02*
X44118589Y-3657438D01*
X44118589Y-3657438D02*
X44261446Y-3609819D01*
X44261446Y-3609819D02*
X44356684Y-3609819D01*
X44356684Y-3609819D02*
X44499541Y-3657438D01*
X44499541Y-3657438D02*
X44547160Y-3705057D01*
X45547160Y-4514580D02*
X45499541Y-4562200D01*
X45499541Y-4562200D02*
X45356684Y-4609819D01*
X45356684Y-4609819D02*
X45261446Y-4609819D01*
X45261446Y-4609819D02*
X45118589Y-4562200D01*
X45118589Y-4562200D02*
X45023351Y-4466961D01*
X45023351Y-4466961D02*
X44975732Y-4371723D01*
X44975732Y-4371723D02*
X44928113Y-4181247D01*
X44928113Y-4181247D02*
X44928113Y-4038390D01*
X44928113Y-4038390D02*
X44975732Y-3847914D01*
X44975732Y-3847914D02*
X45023351Y-3752676D01*
X45023351Y-3752676D02*
X45118589Y-3657438D01*
X45118589Y-3657438D02*
X45261446Y-3609819D01*
X45261446Y-3609819D02*
X45356684Y-3609819D01*
X45356684Y-3609819D02*
X45499541Y-3657438D01*
X45499541Y-3657438D02*
X45547160Y-3705057D01*
X45975732Y-4228866D02*
X46737637Y-4228866D01*
X47547160Y-4086009D02*
X47690017Y-4133628D01*
X47690017Y-4133628D02*
X47737636Y-4181247D01*
X47737636Y-4181247D02*
X47785255Y-4276485D01*
X47785255Y-4276485D02*
X47785255Y-4419342D01*
X47785255Y-4419342D02*
X47737636Y-4514580D01*
X47737636Y-4514580D02*
X47690017Y-4562200D01*
X47690017Y-4562200D02*
X47594779Y-4609819D01*
X47594779Y-4609819D02*
X47213827Y-4609819D01*
X47213827Y-4609819D02*
X47213827Y-3609819D01*
X47213827Y-3609819D02*
X47547160Y-3609819D01*
X47547160Y-3609819D02*
X47642398Y-3657438D01*
X47642398Y-3657438D02*
X47690017Y-3705057D01*
X47690017Y-3705057D02*
X47737636Y-3800295D01*
X47737636Y-3800295D02*
X47737636Y-3895533D01*
X47737636Y-3895533D02*
X47690017Y-3990771D01*
X47690017Y-3990771D02*
X47642398Y-4038390D01*
X47642398Y-4038390D02*
X47547160Y-4086009D01*
X47547160Y-4086009D02*
X47213827Y-4086009D01*
X48404303Y-4133628D02*
X48404303Y-4609819D01*
X48070970Y-3609819D02*
X48404303Y-4133628D01*
X48404303Y-4133628D02*
X48737636Y-3609819D01*
X49070970Y-4228866D02*
X49832875Y-4228866D01*
X50261446Y-4562200D02*
X50404303Y-4609819D01*
X50404303Y-4609819D02*
X50642398Y-4609819D01*
X50642398Y-4609819D02*
X50737636Y-4562200D01*
X50737636Y-4562200D02*
X50785255Y-4514580D01*
X50785255Y-4514580D02*
X50832874Y-4419342D01*
X50832874Y-4419342D02*
X50832874Y-4324104D01*
X50832874Y-4324104D02*
X50785255Y-4228866D01*
X50785255Y-4228866D02*
X50737636Y-4181247D01*
X50737636Y-4181247D02*
X50642398Y-4133628D01*
X50642398Y-4133628D02*
X50451922Y-4086009D01*
X50451922Y-4086009D02*
X50356684Y-4038390D01*
X50356684Y-4038390D02*
X50309065Y-3990771D01*
X50309065Y-3990771D02*
X50261446Y-3895533D01*
X50261446Y-3895533D02*
X50261446Y-3800295D01*
X50261446Y-3800295D02*
X50309065Y-3705057D01*
X50309065Y-3705057D02*
X50356684Y-3657438D01*
X50356684Y-3657438D02*
X50451922Y-3609819D01*
X50451922Y-3609819D02*
X50690017Y-3609819D01*
X50690017Y-3609819D02*
X50832874Y-3657438D01*
X51213827Y-4324104D02*
X51690017Y-4324104D01*
X51118589Y-4609819D02*
X51451922Y-3609819D01*
X51451922Y-3609819D02*
X51785255Y-4609819D01*
X53309065Y-3943152D02*
X53309065Y-4609819D01*
X53070970Y-3562200D02*
X52832875Y-4276485D01*
X52832875Y-4276485D02*
X53451922Y-4276485D01*
X53832875Y-4514580D02*
X53880494Y-4562200D01*
X53880494Y-4562200D02*
X53832875Y-4609819D01*
X53832875Y-4609819D02*
X53785256Y-4562200D01*
X53785256Y-4562200D02*
X53832875Y-4514580D01*
X53832875Y-4514580D02*
X53832875Y-4609819D01*
X54499541Y-3609819D02*
X54594779Y-3609819D01*
X54594779Y-3609819D02*
X54690017Y-3657438D01*
X54690017Y-3657438D02*
X54737636Y-3705057D01*
X54737636Y-3705057D02*
X54785255Y-3800295D01*
X54785255Y-3800295D02*
X54832874Y-3990771D01*
X54832874Y-3990771D02*
X54832874Y-4228866D01*
X54832874Y-4228866D02*
X54785255Y-4419342D01*
X54785255Y-4419342D02*
X54737636Y-4514580D01*
X54737636Y-4514580D02*
X54690017Y-4562200D01*
X54690017Y-4562200D02*
X54594779Y-4609819D01*
X54594779Y-4609819D02*
X54499541Y-4609819D01*
X54499541Y-4609819D02*
X54404303Y-4562200D01*
X54404303Y-4562200D02*
X54356684Y-4514580D01*
X54356684Y-4514580D02*
X54309065Y-4419342D01*
X54309065Y-4419342D02*
X54261446Y-4228866D01*
X54261446Y-4228866D02*
X54261446Y-3990771D01*
X54261446Y-3990771D02*
X54309065Y-3800295D01*
X54309065Y-3800295D02*
X54356684Y-3705057D01*
X54356684Y-3705057D02*
X54404303Y-3657438D01*
X54404303Y-3657438D02*
X54499541Y-3609819D01*
X32451922Y-5219819D02*
X32785255Y-6219819D01*
X32785255Y-6219819D02*
X33118588Y-5219819D01*
X33451922Y-5696009D02*
X33785255Y-5696009D01*
X33928112Y-6219819D02*
X33451922Y-6219819D01*
X33451922Y-6219819D02*
X33451922Y-5219819D01*
X33451922Y-5219819D02*
X33928112Y-5219819D01*
X34928112Y-6219819D02*
X34594779Y-5743628D01*
X34356684Y-6219819D02*
X34356684Y-5219819D01*
X34356684Y-5219819D02*
X34737636Y-5219819D01*
X34737636Y-5219819D02*
X34832874Y-5267438D01*
X34832874Y-5267438D02*
X34880493Y-5315057D01*
X34880493Y-5315057D02*
X34928112Y-5410295D01*
X34928112Y-5410295D02*
X34928112Y-5553152D01*
X34928112Y-5553152D02*
X34880493Y-5648390D01*
X34880493Y-5648390D02*
X34832874Y-5696009D01*
X34832874Y-5696009D02*
X34737636Y-5743628D01*
X34737636Y-5743628D02*
X34356684Y-5743628D01*
X35309065Y-6172200D02*
X35451922Y-6219819D01*
X35451922Y-6219819D02*
X35690017Y-6219819D01*
X35690017Y-6219819D02*
X35785255Y-6172200D01*
X35785255Y-6172200D02*
X35832874Y-6124580D01*
X35832874Y-6124580D02*
X35880493Y-6029342D01*
X35880493Y-6029342D02*
X35880493Y-5934104D01*
X35880493Y-5934104D02*
X35832874Y-5838866D01*
X35832874Y-5838866D02*
X35785255Y-5791247D01*
X35785255Y-5791247D02*
X35690017Y-5743628D01*
X35690017Y-5743628D02*
X35499541Y-5696009D01*
X35499541Y-5696009D02*
X35404303Y-5648390D01*
X35404303Y-5648390D02*
X35356684Y-5600771D01*
X35356684Y-5600771D02*
X35309065Y-5505533D01*
X35309065Y-5505533D02*
X35309065Y-5410295D01*
X35309065Y-5410295D02*
X35356684Y-5315057D01*
X35356684Y-5315057D02*
X35404303Y-5267438D01*
X35404303Y-5267438D02*
X35499541Y-5219819D01*
X35499541Y-5219819D02*
X35737636Y-5219819D01*
X35737636Y-5219819D02*
X35880493Y-5267438D01*
X36309065Y-6219819D02*
X36309065Y-5219819D01*
X36975731Y-5219819D02*
X37166207Y-5219819D01*
X37166207Y-5219819D02*
X37261445Y-5267438D01*
X37261445Y-5267438D02*
X37356683Y-5362676D01*
X37356683Y-5362676D02*
X37404302Y-5553152D01*
X37404302Y-5553152D02*
X37404302Y-5886485D01*
X37404302Y-5886485D02*
X37356683Y-6076961D01*
X37356683Y-6076961D02*
X37261445Y-6172200D01*
X37261445Y-6172200D02*
X37166207Y-6219819D01*
X37166207Y-6219819D02*
X36975731Y-6219819D01*
X36975731Y-6219819D02*
X36880493Y-6172200D01*
X36880493Y-6172200D02*
X36785255Y-6076961D01*
X36785255Y-6076961D02*
X36737636Y-5886485D01*
X36737636Y-5886485D02*
X36737636Y-5553152D01*
X36737636Y-5553152D02*
X36785255Y-5362676D01*
X36785255Y-5362676D02*
X36880493Y-5267438D01*
X36880493Y-5267438D02*
X36975731Y-5219819D01*
X37832874Y-6219819D02*
X37832874Y-5219819D01*
X37832874Y-5219819D02*
X38404302Y-6219819D01*
X38404302Y-6219819D02*
X38404302Y-5219819D01*
X39547160Y-5219819D02*
X40166207Y-5219819D01*
X40166207Y-5219819D02*
X39832874Y-5600771D01*
X39832874Y-5600771D02*
X39975731Y-5600771D01*
X39975731Y-5600771D02*
X40070969Y-5648390D01*
X40070969Y-5648390D02*
X40118588Y-5696009D01*
X40118588Y-5696009D02*
X40166207Y-5791247D01*
X40166207Y-5791247D02*
X40166207Y-6029342D01*
X40166207Y-6029342D02*
X40118588Y-6124580D01*
X40118588Y-6124580D02*
X40070969Y-6172200D01*
X40070969Y-6172200D02*
X39975731Y-6219819D01*
X39975731Y-6219819D02*
X39690017Y-6219819D01*
X39690017Y-6219819D02*
X39594779Y-6172200D01*
X39594779Y-6172200D02*
X39547160Y-6124580D01*
X94586588Y-59877438D02*
X94491350Y-59829819D01*
X94491350Y-59829819D02*
X94348493Y-59829819D01*
X94348493Y-59829819D02*
X94205636Y-59877438D01*
X94205636Y-59877438D02*
X94110398Y-59972676D01*
X94110398Y-59972676D02*
X94062779Y-60067914D01*
X94062779Y-60067914D02*
X94015160Y-60258390D01*
X94015160Y-60258390D02*
X94015160Y-60401247D01*
X94015160Y-60401247D02*
X94062779Y-60591723D01*
X94062779Y-60591723D02*
X94110398Y-60686961D01*
X94110398Y-60686961D02*
X94205636Y-60782200D01*
X94205636Y-60782200D02*
X94348493Y-60829819D01*
X94348493Y-60829819D02*
X94443731Y-60829819D01*
X94443731Y-60829819D02*
X94586588Y-60782200D01*
X94586588Y-60782200D02*
X94634207Y-60734580D01*
X94634207Y-60734580D02*
X94634207Y-60401247D01*
X94634207Y-60401247D02*
X94443731Y-60401247D01*
X95062779Y-60829819D02*
X95062779Y-59829819D01*
X95062779Y-59829819D02*
X95634207Y-60829819D01*
X95634207Y-60829819D02*
X95634207Y-59829819D01*
X96110398Y-60829819D02*
X96110398Y-59829819D01*
X96110398Y-59829819D02*
X96348493Y-59829819D01*
X96348493Y-59829819D02*
X96491350Y-59877438D01*
X96491350Y-59877438D02*
X96586588Y-59972676D01*
X96586588Y-59972676D02*
X96634207Y-60067914D01*
X96634207Y-60067914D02*
X96681826Y-60258390D01*
X96681826Y-60258390D02*
X96681826Y-60401247D01*
X96681826Y-60401247D02*
X96634207Y-60591723D01*
X96634207Y-60591723D02*
X96586588Y-60686961D01*
X96586588Y-60686961D02*
X96491350Y-60782200D01*
X96491350Y-60782200D02*
X96348493Y-60829819D01*
X96348493Y-60829819D02*
X96110398Y-60829819D01*
X28196779Y-58898866D02*
X28958684Y-58898866D01*
X28577731Y-59279819D02*
X28577731Y-58517914D01*
X29958683Y-59279819D02*
X29387255Y-59279819D01*
X29672969Y-59279819D02*
X29672969Y-58279819D01*
X29672969Y-58279819D02*
X29577731Y-58422676D01*
X29577731Y-58422676D02*
X29482493Y-58517914D01*
X29482493Y-58517914D02*
X29387255Y-58565533D01*
X30339636Y-58375057D02*
X30387255Y-58327438D01*
X30387255Y-58327438D02*
X30482493Y-58279819D01*
X30482493Y-58279819D02*
X30720588Y-58279819D01*
X30720588Y-58279819D02*
X30815826Y-58327438D01*
X30815826Y-58327438D02*
X30863445Y-58375057D01*
X30863445Y-58375057D02*
X30911064Y-58470295D01*
X30911064Y-58470295D02*
X30911064Y-58565533D01*
X30911064Y-58565533D02*
X30863445Y-58708390D01*
X30863445Y-58708390D02*
X30292017Y-59279819D01*
X30292017Y-59279819D02*
X30911064Y-59279819D01*
X31196779Y-58279819D02*
X31530112Y-59279819D01*
X31530112Y-59279819D02*
X31863445Y-58279819D01*
X65868779Y-60829819D02*
X65868779Y-59829819D01*
X65868779Y-59829819D02*
X66106874Y-59829819D01*
X66106874Y-59829819D02*
X66249731Y-59877438D01*
X66249731Y-59877438D02*
X66344969Y-59972676D01*
X66344969Y-59972676D02*
X66392588Y-60067914D01*
X66392588Y-60067914D02*
X66440207Y-60258390D01*
X66440207Y-60258390D02*
X66440207Y-60401247D01*
X66440207Y-60401247D02*
X66392588Y-60591723D01*
X66392588Y-60591723D02*
X66344969Y-60686961D01*
X66344969Y-60686961D02*
X66249731Y-60782200D01*
X66249731Y-60782200D02*
X66106874Y-60829819D01*
X66106874Y-60829819D02*
X65868779Y-60829819D01*
X67440207Y-60829819D02*
X67106874Y-60353628D01*
X66868779Y-60829819D02*
X66868779Y-59829819D01*
X66868779Y-59829819D02*
X67249731Y-59829819D01*
X67249731Y-59829819D02*
X67344969Y-59877438D01*
X67344969Y-59877438D02*
X67392588Y-59925057D01*
X67392588Y-59925057D02*
X67440207Y-60020295D01*
X67440207Y-60020295D02*
X67440207Y-60163152D01*
X67440207Y-60163152D02*
X67392588Y-60258390D01*
X67392588Y-60258390D02*
X67344969Y-60306009D01*
X67344969Y-60306009D02*
X67249731Y-60353628D01*
X67249731Y-60353628D02*
X66868779Y-60353628D01*
X67868779Y-60829819D02*
X67868779Y-59829819D01*
X68202112Y-59829819D02*
X68535445Y-60829819D01*
X68535445Y-60829819D02*
X68868778Y-59829819D01*
X69202112Y-60306009D02*
X69535445Y-60306009D01*
X69678302Y-60829819D02*
X69202112Y-60829819D01*
X69202112Y-60829819D02*
X69202112Y-59829819D01*
X69202112Y-59829819D02*
X69678302Y-59829819D01*
X34159866Y-8199219D02*
X34159866Y-8913504D01*
X34159866Y-8913504D02*
X34112247Y-9056361D01*
X34112247Y-9056361D02*
X34017009Y-9151600D01*
X34017009Y-9151600D02*
X33874152Y-9199219D01*
X33874152Y-9199219D02*
X33778914Y-9199219D01*
X35064628Y-8199219D02*
X34874152Y-8199219D01*
X34874152Y-8199219D02*
X34778914Y-8246838D01*
X34778914Y-8246838D02*
X34731295Y-8294457D01*
X34731295Y-8294457D02*
X34636057Y-8437314D01*
X34636057Y-8437314D02*
X34588438Y-8627790D01*
X34588438Y-8627790D02*
X34588438Y-9008742D01*
X34588438Y-9008742D02*
X34636057Y-9103980D01*
X34636057Y-9103980D02*
X34683676Y-9151600D01*
X34683676Y-9151600D02*
X34778914Y-9199219D01*
X34778914Y-9199219D02*
X34969390Y-9199219D01*
X34969390Y-9199219D02*
X35064628Y-9151600D01*
X35064628Y-9151600D02*
X35112247Y-9103980D01*
X35112247Y-9103980D02*
X35159866Y-9008742D01*
X35159866Y-9008742D02*
X35159866Y-8770647D01*
X35159866Y-8770647D02*
X35112247Y-8675409D01*
X35112247Y-8675409D02*
X35064628Y-8627790D01*
X35064628Y-8627790D02*
X34969390Y-8580171D01*
X34969390Y-8580171D02*
X34778914Y-8580171D01*
X34778914Y-8580171D02*
X34683676Y-8627790D01*
X34683676Y-8627790D02*
X34636057Y-8675409D01*
X34636057Y-8675409D02*
X34588438Y-8770647D01*
X87989580Y-19926666D02*
X88037200Y-19974285D01*
X88037200Y-19974285D02*
X88084819Y-20117142D01*
X88084819Y-20117142D02*
X88084819Y-20212380D01*
X88084819Y-20212380D02*
X88037200Y-20355237D01*
X88037200Y-20355237D02*
X87941961Y-20450475D01*
X87941961Y-20450475D02*
X87846723Y-20498094D01*
X87846723Y-20498094D02*
X87656247Y-20545713D01*
X87656247Y-20545713D02*
X87513390Y-20545713D01*
X87513390Y-20545713D02*
X87322914Y-20498094D01*
X87322914Y-20498094D02*
X87227676Y-20450475D01*
X87227676Y-20450475D02*
X87132438Y-20355237D01*
X87132438Y-20355237D02*
X87084819Y-20212380D01*
X87084819Y-20212380D02*
X87084819Y-20117142D01*
X87084819Y-20117142D02*
X87132438Y-19974285D01*
X87132438Y-19974285D02*
X87180057Y-19926666D01*
X87513390Y-19355237D02*
X87465771Y-19450475D01*
X87465771Y-19450475D02*
X87418152Y-19498094D01*
X87418152Y-19498094D02*
X87322914Y-19545713D01*
X87322914Y-19545713D02*
X87275295Y-19545713D01*
X87275295Y-19545713D02*
X87180057Y-19498094D01*
X87180057Y-19498094D02*
X87132438Y-19450475D01*
X87132438Y-19450475D02*
X87084819Y-19355237D01*
X87084819Y-19355237D02*
X87084819Y-19164761D01*
X87084819Y-19164761D02*
X87132438Y-19069523D01*
X87132438Y-19069523D02*
X87180057Y-19021904D01*
X87180057Y-19021904D02*
X87275295Y-18974285D01*
X87275295Y-18974285D02*
X87322914Y-18974285D01*
X87322914Y-18974285D02*
X87418152Y-19021904D01*
X87418152Y-19021904D02*
X87465771Y-19069523D01*
X87465771Y-19069523D02*
X87513390Y-19164761D01*
X87513390Y-19164761D02*
X87513390Y-19355237D01*
X87513390Y-19355237D02*
X87561009Y-19450475D01*
X87561009Y-19450475D02*
X87608628Y-19498094D01*
X87608628Y-19498094D02*
X87703866Y-19545713D01*
X87703866Y-19545713D02*
X87894342Y-19545713D01*
X87894342Y-19545713D02*
X87989580Y-19498094D01*
X87989580Y-19498094D02*
X88037200Y-19450475D01*
X88037200Y-19450475D02*
X88084819Y-19355237D01*
X88084819Y-19355237D02*
X88084819Y-19164761D01*
X88084819Y-19164761D02*
X88037200Y-19069523D01*
X88037200Y-19069523D02*
X87989580Y-19021904D01*
X87989580Y-19021904D02*
X87894342Y-18974285D01*
X87894342Y-18974285D02*
X87703866Y-18974285D01*
X87703866Y-18974285D02*
X87608628Y-19021904D01*
X87608628Y-19021904D02*
X87561009Y-19069523D01*
X87561009Y-19069523D02*
X87513390Y-19164761D01*
X29064819Y-29016666D02*
X28588628Y-29349999D01*
X29064819Y-29588094D02*
X28064819Y-29588094D01*
X28064819Y-29588094D02*
X28064819Y-29207142D01*
X28064819Y-29207142D02*
X28112438Y-29111904D01*
X28112438Y-29111904D02*
X28160057Y-29064285D01*
X28160057Y-29064285D02*
X28255295Y-29016666D01*
X28255295Y-29016666D02*
X28398152Y-29016666D01*
X28398152Y-29016666D02*
X28493390Y-29064285D01*
X28493390Y-29064285D02*
X28541009Y-29111904D01*
X28541009Y-29111904D02*
X28588628Y-29207142D01*
X28588628Y-29207142D02*
X28588628Y-29588094D01*
X29064819Y-28064285D02*
X29064819Y-28635713D01*
X29064819Y-28349999D02*
X28064819Y-28349999D01*
X28064819Y-28349999D02*
X28207676Y-28445237D01*
X28207676Y-28445237D02*
X28302914Y-28540475D01*
X28302914Y-28540475D02*
X28350533Y-28635713D01*
X35204819Y-29878094D02*
X34204819Y-29878094D01*
X34204819Y-29878094D02*
X34204819Y-29639999D01*
X34204819Y-29639999D02*
X34252438Y-29497142D01*
X34252438Y-29497142D02*
X34347676Y-29401904D01*
X34347676Y-29401904D02*
X34442914Y-29354285D01*
X34442914Y-29354285D02*
X34633390Y-29306666D01*
X34633390Y-29306666D02*
X34776247Y-29306666D01*
X34776247Y-29306666D02*
X34966723Y-29354285D01*
X34966723Y-29354285D02*
X35061961Y-29401904D01*
X35061961Y-29401904D02*
X35157200Y-29497142D01*
X35157200Y-29497142D02*
X35204819Y-29639999D01*
X35204819Y-29639999D02*
X35204819Y-29878094D01*
X34633390Y-28735237D02*
X34585771Y-28830475D01*
X34585771Y-28830475D02*
X34538152Y-28878094D01*
X34538152Y-28878094D02*
X34442914Y-28925713D01*
X34442914Y-28925713D02*
X34395295Y-28925713D01*
X34395295Y-28925713D02*
X34300057Y-28878094D01*
X34300057Y-28878094D02*
X34252438Y-28830475D01*
X34252438Y-28830475D02*
X34204819Y-28735237D01*
X34204819Y-28735237D02*
X34204819Y-28544761D01*
X34204819Y-28544761D02*
X34252438Y-28449523D01*
X34252438Y-28449523D02*
X34300057Y-28401904D01*
X34300057Y-28401904D02*
X34395295Y-28354285D01*
X34395295Y-28354285D02*
X34442914Y-28354285D01*
X34442914Y-28354285D02*
X34538152Y-28401904D01*
X34538152Y-28401904D02*
X34585771Y-28449523D01*
X34585771Y-28449523D02*
X34633390Y-28544761D01*
X34633390Y-28544761D02*
X34633390Y-28735237D01*
X34633390Y-28735237D02*
X34681009Y-28830475D01*
X34681009Y-28830475D02*
X34728628Y-28878094D01*
X34728628Y-28878094D02*
X34823866Y-28925713D01*
X34823866Y-28925713D02*
X35014342Y-28925713D01*
X35014342Y-28925713D02*
X35109580Y-28878094D01*
X35109580Y-28878094D02*
X35157200Y-28830475D01*
X35157200Y-28830475D02*
X35204819Y-28735237D01*
X35204819Y-28735237D02*
X35204819Y-28544761D01*
X35204819Y-28544761D02*
X35157200Y-28449523D01*
X35157200Y-28449523D02*
X35109580Y-28401904D01*
X35109580Y-28401904D02*
X35014342Y-28354285D01*
X35014342Y-28354285D02*
X34823866Y-28354285D01*
X34823866Y-28354285D02*
X34728628Y-28401904D01*
X34728628Y-28401904D02*
X34681009Y-28449523D01*
X34681009Y-28449523D02*
X34633390Y-28544761D01*
X93672819Y-26646094D02*
X92672819Y-26646094D01*
X92672819Y-26646094D02*
X92672819Y-26407999D01*
X92672819Y-26407999D02*
X92720438Y-26265142D01*
X92720438Y-26265142D02*
X92815676Y-26169904D01*
X92815676Y-26169904D02*
X92910914Y-26122285D01*
X92910914Y-26122285D02*
X93101390Y-26074666D01*
X93101390Y-26074666D02*
X93244247Y-26074666D01*
X93244247Y-26074666D02*
X93434723Y-26122285D01*
X93434723Y-26122285D02*
X93529961Y-26169904D01*
X93529961Y-26169904D02*
X93625200Y-26265142D01*
X93625200Y-26265142D02*
X93672819Y-26407999D01*
X93672819Y-26407999D02*
X93672819Y-26646094D01*
X92672819Y-25741332D02*
X92672819Y-25122285D01*
X92672819Y-25122285D02*
X93053771Y-25455618D01*
X93053771Y-25455618D02*
X93053771Y-25312761D01*
X93053771Y-25312761D02*
X93101390Y-25217523D01*
X93101390Y-25217523D02*
X93149009Y-25169904D01*
X93149009Y-25169904D02*
X93244247Y-25122285D01*
X93244247Y-25122285D02*
X93482342Y-25122285D01*
X93482342Y-25122285D02*
X93577580Y-25169904D01*
X93577580Y-25169904D02*
X93625200Y-25217523D01*
X93625200Y-25217523D02*
X93672819Y-25312761D01*
X93672819Y-25312761D02*
X93672819Y-25598475D01*
X93672819Y-25598475D02*
X93625200Y-25693713D01*
X93625200Y-25693713D02*
X93577580Y-25741332D01*
X75789333Y-37364819D02*
X75456000Y-36888628D01*
X75217905Y-37364819D02*
X75217905Y-36364819D01*
X75217905Y-36364819D02*
X75598857Y-36364819D01*
X75598857Y-36364819D02*
X75694095Y-36412438D01*
X75694095Y-36412438D02*
X75741714Y-36460057D01*
X75741714Y-36460057D02*
X75789333Y-36555295D01*
X75789333Y-36555295D02*
X75789333Y-36698152D01*
X75789333Y-36698152D02*
X75741714Y-36793390D01*
X75741714Y-36793390D02*
X75694095Y-36841009D01*
X75694095Y-36841009D02*
X75598857Y-36888628D01*
X75598857Y-36888628D02*
X75217905Y-36888628D01*
X76694095Y-36364819D02*
X76217905Y-36364819D01*
X76217905Y-36364819D02*
X76170286Y-36841009D01*
X76170286Y-36841009D02*
X76217905Y-36793390D01*
X76217905Y-36793390D02*
X76313143Y-36745771D01*
X76313143Y-36745771D02*
X76551238Y-36745771D01*
X76551238Y-36745771D02*
X76646476Y-36793390D01*
X76646476Y-36793390D02*
X76694095Y-36841009D01*
X76694095Y-36841009D02*
X76741714Y-36936247D01*
X76741714Y-36936247D02*
X76741714Y-37174342D01*
X76741714Y-37174342D02*
X76694095Y-37269580D01*
X76694095Y-37269580D02*
X76646476Y-37317200D01*
X76646476Y-37317200D02*
X76551238Y-37364819D01*
X76551238Y-37364819D02*
X76313143Y-37364819D01*
X76313143Y-37364819D02*
X76217905Y-37317200D01*
X76217905Y-37317200D02*
X76170286Y-37269580D01*
X74875142Y-30874819D02*
X74541809Y-30398628D01*
X74303714Y-30874819D02*
X74303714Y-29874819D01*
X74303714Y-29874819D02*
X74684666Y-29874819D01*
X74684666Y-29874819D02*
X74779904Y-29922438D01*
X74779904Y-29922438D02*
X74827523Y-29970057D01*
X74827523Y-29970057D02*
X74875142Y-30065295D01*
X74875142Y-30065295D02*
X74875142Y-30208152D01*
X74875142Y-30208152D02*
X74827523Y-30303390D01*
X74827523Y-30303390D02*
X74779904Y-30351009D01*
X74779904Y-30351009D02*
X74684666Y-30398628D01*
X74684666Y-30398628D02*
X74303714Y-30398628D01*
X75256095Y-29970057D02*
X75303714Y-29922438D01*
X75303714Y-29922438D02*
X75398952Y-29874819D01*
X75398952Y-29874819D02*
X75637047Y-29874819D01*
X75637047Y-29874819D02*
X75732285Y-29922438D01*
X75732285Y-29922438D02*
X75779904Y-29970057D01*
X75779904Y-29970057D02*
X75827523Y-30065295D01*
X75827523Y-30065295D02*
X75827523Y-30160533D01*
X75827523Y-30160533D02*
X75779904Y-30303390D01*
X75779904Y-30303390D02*
X75208476Y-30874819D01*
X75208476Y-30874819D02*
X75827523Y-30874819D01*
X76779904Y-30874819D02*
X76208476Y-30874819D01*
X76494190Y-30874819D02*
X76494190Y-29874819D01*
X76494190Y-29874819D02*
X76398952Y-30017676D01*
X76398952Y-30017676D02*
X76303714Y-30112914D01*
X76303714Y-30112914D02*
X76208476Y-30160533D01*
X48613142Y-27367580D02*
X48565523Y-27415200D01*
X48565523Y-27415200D02*
X48422666Y-27462819D01*
X48422666Y-27462819D02*
X48327428Y-27462819D01*
X48327428Y-27462819D02*
X48184571Y-27415200D01*
X48184571Y-27415200D02*
X48089333Y-27319961D01*
X48089333Y-27319961D02*
X48041714Y-27224723D01*
X48041714Y-27224723D02*
X47994095Y-27034247D01*
X47994095Y-27034247D02*
X47994095Y-26891390D01*
X47994095Y-26891390D02*
X48041714Y-26700914D01*
X48041714Y-26700914D02*
X48089333Y-26605676D01*
X48089333Y-26605676D02*
X48184571Y-26510438D01*
X48184571Y-26510438D02*
X48327428Y-26462819D01*
X48327428Y-26462819D02*
X48422666Y-26462819D01*
X48422666Y-26462819D02*
X48565523Y-26510438D01*
X48565523Y-26510438D02*
X48613142Y-26558057D01*
X49565523Y-27462819D02*
X48994095Y-27462819D01*
X49279809Y-27462819D02*
X49279809Y-26462819D01*
X49279809Y-26462819D02*
X49184571Y-26605676D01*
X49184571Y-26605676D02*
X49089333Y-26700914D01*
X49089333Y-26700914D02*
X48994095Y-26748533D01*
X49946476Y-26558057D02*
X49994095Y-26510438D01*
X49994095Y-26510438D02*
X50089333Y-26462819D01*
X50089333Y-26462819D02*
X50327428Y-26462819D01*
X50327428Y-26462819D02*
X50422666Y-26510438D01*
X50422666Y-26510438D02*
X50470285Y-26558057D01*
X50470285Y-26558057D02*
X50517904Y-26653295D01*
X50517904Y-26653295D02*
X50517904Y-26748533D01*
X50517904Y-26748533D02*
X50470285Y-26891390D01*
X50470285Y-26891390D02*
X49898857Y-27462819D01*
X49898857Y-27462819D02*
X50517904Y-27462819D01*
X14228095Y-30974819D02*
X14228095Y-31784342D01*
X14228095Y-31784342D02*
X14275714Y-31879580D01*
X14275714Y-31879580D02*
X14323333Y-31927200D01*
X14323333Y-31927200D02*
X14418571Y-31974819D01*
X14418571Y-31974819D02*
X14609047Y-31974819D01*
X14609047Y-31974819D02*
X14704285Y-31927200D01*
X14704285Y-31927200D02*
X14751904Y-31879580D01*
X14751904Y-31879580D02*
X14799523Y-31784342D01*
X14799523Y-31784342D02*
X14799523Y-30974819D01*
X15799523Y-31974819D02*
X15228095Y-31974819D01*
X15513809Y-31974819D02*
X15513809Y-30974819D01*
X15513809Y-30974819D02*
X15418571Y-31117676D01*
X15418571Y-31117676D02*
X15323333Y-31212914D01*
X15323333Y-31212914D02*
X15228095Y-31260533D01*
X78907142Y-5944819D02*
X78573809Y-5468628D01*
X78335714Y-5944819D02*
X78335714Y-4944819D01*
X78335714Y-4944819D02*
X78716666Y-4944819D01*
X78716666Y-4944819D02*
X78811904Y-4992438D01*
X78811904Y-4992438D02*
X78859523Y-5040057D01*
X78859523Y-5040057D02*
X78907142Y-5135295D01*
X78907142Y-5135295D02*
X78907142Y-5278152D01*
X78907142Y-5278152D02*
X78859523Y-5373390D01*
X78859523Y-5373390D02*
X78811904Y-5421009D01*
X78811904Y-5421009D02*
X78716666Y-5468628D01*
X78716666Y-5468628D02*
X78335714Y-5468628D01*
X79859523Y-5944819D02*
X79288095Y-5944819D01*
X79573809Y-5944819D02*
X79573809Y-4944819D01*
X79573809Y-4944819D02*
X79478571Y-5087676D01*
X79478571Y-5087676D02*
X79383333Y-5182914D01*
X79383333Y-5182914D02*
X79288095Y-5230533D01*
X80716666Y-4944819D02*
X80526190Y-4944819D01*
X80526190Y-4944819D02*
X80430952Y-4992438D01*
X80430952Y-4992438D02*
X80383333Y-5040057D01*
X80383333Y-5040057D02*
X80288095Y-5182914D01*
X80288095Y-5182914D02*
X80240476Y-5373390D01*
X80240476Y-5373390D02*
X80240476Y-5754342D01*
X80240476Y-5754342D02*
X80288095Y-5849580D01*
X80288095Y-5849580D02*
X80335714Y-5897200D01*
X80335714Y-5897200D02*
X80430952Y-5944819D01*
X80430952Y-5944819D02*
X80621428Y-5944819D01*
X80621428Y-5944819D02*
X80716666Y-5897200D01*
X80716666Y-5897200D02*
X80764285Y-5849580D01*
X80764285Y-5849580D02*
X80811904Y-5754342D01*
X80811904Y-5754342D02*
X80811904Y-5516247D01*
X80811904Y-5516247D02*
X80764285Y-5421009D01*
X80764285Y-5421009D02*
X80716666Y-5373390D01*
X80716666Y-5373390D02*
X80621428Y-5325771D01*
X80621428Y-5325771D02*
X80430952Y-5325771D01*
X80430952Y-5325771D02*
X80335714Y-5373390D01*
X80335714Y-5373390D02*
X80288095Y-5421009D01*
X80288095Y-5421009D02*
X80240476Y-5516247D01*
X92703333Y-48979580D02*
X92655714Y-49027200D01*
X92655714Y-49027200D02*
X92512857Y-49074819D01*
X92512857Y-49074819D02*
X92417619Y-49074819D01*
X92417619Y-49074819D02*
X92274762Y-49027200D01*
X92274762Y-49027200D02*
X92179524Y-48931961D01*
X92179524Y-48931961D02*
X92131905Y-48836723D01*
X92131905Y-48836723D02*
X92084286Y-48646247D01*
X92084286Y-48646247D02*
X92084286Y-48503390D01*
X92084286Y-48503390D02*
X92131905Y-48312914D01*
X92131905Y-48312914D02*
X92179524Y-48217676D01*
X92179524Y-48217676D02*
X92274762Y-48122438D01*
X92274762Y-48122438D02*
X92417619Y-48074819D01*
X92417619Y-48074819D02*
X92512857Y-48074819D01*
X92512857Y-48074819D02*
X92655714Y-48122438D01*
X92655714Y-48122438D02*
X92703333Y-48170057D01*
X93560476Y-48408152D02*
X93560476Y-49074819D01*
X93322381Y-48027200D02*
X93084286Y-48741485D01*
X93084286Y-48741485D02*
X93703333Y-48741485D01*
X94517142Y-33623580D02*
X94469523Y-33671200D01*
X94469523Y-33671200D02*
X94326666Y-33718819D01*
X94326666Y-33718819D02*
X94231428Y-33718819D01*
X94231428Y-33718819D02*
X94088571Y-33671200D01*
X94088571Y-33671200D02*
X93993333Y-33575961D01*
X93993333Y-33575961D02*
X93945714Y-33480723D01*
X93945714Y-33480723D02*
X93898095Y-33290247D01*
X93898095Y-33290247D02*
X93898095Y-33147390D01*
X93898095Y-33147390D02*
X93945714Y-32956914D01*
X93945714Y-32956914D02*
X93993333Y-32861676D01*
X93993333Y-32861676D02*
X94088571Y-32766438D01*
X94088571Y-32766438D02*
X94231428Y-32718819D01*
X94231428Y-32718819D02*
X94326666Y-32718819D01*
X94326666Y-32718819D02*
X94469523Y-32766438D01*
X94469523Y-32766438D02*
X94517142Y-32814057D01*
X95469523Y-33718819D02*
X94898095Y-33718819D01*
X95183809Y-33718819D02*
X95183809Y-32718819D01*
X95183809Y-32718819D02*
X95088571Y-32861676D01*
X95088571Y-32861676D02*
X94993333Y-32956914D01*
X94993333Y-32956914D02*
X94898095Y-33004533D01*
X96421904Y-33718819D02*
X95850476Y-33718819D01*
X96136190Y-33718819D02*
X96136190Y-32718819D01*
X96136190Y-32718819D02*
X96040952Y-32861676D01*
X96040952Y-32861676D02*
X95945714Y-32956914D01*
X95945714Y-32956914D02*
X95850476Y-33004533D01*
X57137333Y-37488819D02*
X56804000Y-37012628D01*
X56565905Y-37488819D02*
X56565905Y-36488819D01*
X56565905Y-36488819D02*
X56946857Y-36488819D01*
X56946857Y-36488819D02*
X57042095Y-36536438D01*
X57042095Y-36536438D02*
X57089714Y-36584057D01*
X57089714Y-36584057D02*
X57137333Y-36679295D01*
X57137333Y-36679295D02*
X57137333Y-36822152D01*
X57137333Y-36822152D02*
X57089714Y-36917390D01*
X57089714Y-36917390D02*
X57042095Y-36965009D01*
X57042095Y-36965009D02*
X56946857Y-37012628D01*
X56946857Y-37012628D02*
X56565905Y-37012628D01*
X57613524Y-37488819D02*
X57804000Y-37488819D01*
X57804000Y-37488819D02*
X57899238Y-37441200D01*
X57899238Y-37441200D02*
X57946857Y-37393580D01*
X57946857Y-37393580D02*
X58042095Y-37250723D01*
X58042095Y-37250723D02*
X58089714Y-37060247D01*
X58089714Y-37060247D02*
X58089714Y-36679295D01*
X58089714Y-36679295D02*
X58042095Y-36584057D01*
X58042095Y-36584057D02*
X57994476Y-36536438D01*
X57994476Y-36536438D02*
X57899238Y-36488819D01*
X57899238Y-36488819D02*
X57708762Y-36488819D01*
X57708762Y-36488819D02*
X57613524Y-36536438D01*
X57613524Y-36536438D02*
X57565905Y-36584057D01*
X57565905Y-36584057D02*
X57518286Y-36679295D01*
X57518286Y-36679295D02*
X57518286Y-36917390D01*
X57518286Y-36917390D02*
X57565905Y-37012628D01*
X57565905Y-37012628D02*
X57613524Y-37060247D01*
X57613524Y-37060247D02*
X57708762Y-37107866D01*
X57708762Y-37107866D02*
X57899238Y-37107866D01*
X57899238Y-37107866D02*
X57994476Y-37060247D01*
X57994476Y-37060247D02*
X58042095Y-37012628D01*
X58042095Y-37012628D02*
X58089714Y-36917390D01*
X58321580Y-52886857D02*
X58369200Y-52934476D01*
X58369200Y-52934476D02*
X58416819Y-53077333D01*
X58416819Y-53077333D02*
X58416819Y-53172571D01*
X58416819Y-53172571D02*
X58369200Y-53315428D01*
X58369200Y-53315428D02*
X58273961Y-53410666D01*
X58273961Y-53410666D02*
X58178723Y-53458285D01*
X58178723Y-53458285D02*
X57988247Y-53505904D01*
X57988247Y-53505904D02*
X57845390Y-53505904D01*
X57845390Y-53505904D02*
X57654914Y-53458285D01*
X57654914Y-53458285D02*
X57559676Y-53410666D01*
X57559676Y-53410666D02*
X57464438Y-53315428D01*
X57464438Y-53315428D02*
X57416819Y-53172571D01*
X57416819Y-53172571D02*
X57416819Y-53077333D01*
X57416819Y-53077333D02*
X57464438Y-52934476D01*
X57464438Y-52934476D02*
X57512057Y-52886857D01*
X58416819Y-51934476D02*
X58416819Y-52505904D01*
X58416819Y-52220190D02*
X57416819Y-52220190D01*
X57416819Y-52220190D02*
X57559676Y-52315428D01*
X57559676Y-52315428D02*
X57654914Y-52410666D01*
X57654914Y-52410666D02*
X57702533Y-52505904D01*
X57416819Y-51315428D02*
X57416819Y-51220190D01*
X57416819Y-51220190D02*
X57464438Y-51124952D01*
X57464438Y-51124952D02*
X57512057Y-51077333D01*
X57512057Y-51077333D02*
X57607295Y-51029714D01*
X57607295Y-51029714D02*
X57797771Y-50982095D01*
X57797771Y-50982095D02*
X58035866Y-50982095D01*
X58035866Y-50982095D02*
X58226342Y-51029714D01*
X58226342Y-51029714D02*
X58321580Y-51077333D01*
X58321580Y-51077333D02*
X58369200Y-51124952D01*
X58369200Y-51124952D02*
X58416819Y-51220190D01*
X58416819Y-51220190D02*
X58416819Y-51315428D01*
X58416819Y-51315428D02*
X58369200Y-51410666D01*
X58369200Y-51410666D02*
X58321580Y-51458285D01*
X58321580Y-51458285D02*
X58226342Y-51505904D01*
X58226342Y-51505904D02*
X58035866Y-51553523D01*
X58035866Y-51553523D02*
X57797771Y-51553523D01*
X57797771Y-51553523D02*
X57607295Y-51505904D01*
X57607295Y-51505904D02*
X57512057Y-51458285D01*
X57512057Y-51458285D02*
X57464438Y-51410666D01*
X57464438Y-51410666D02*
X57416819Y-51315428D01*
X73068819Y-56512094D02*
X72068819Y-56512094D01*
X72068819Y-56512094D02*
X72068819Y-56273999D01*
X72068819Y-56273999D02*
X72116438Y-56131142D01*
X72116438Y-56131142D02*
X72211676Y-56035904D01*
X72211676Y-56035904D02*
X72306914Y-55988285D01*
X72306914Y-55988285D02*
X72497390Y-55940666D01*
X72497390Y-55940666D02*
X72640247Y-55940666D01*
X72640247Y-55940666D02*
X72830723Y-55988285D01*
X72830723Y-55988285D02*
X72925961Y-56035904D01*
X72925961Y-56035904D02*
X73021200Y-56131142D01*
X73021200Y-56131142D02*
X73068819Y-56273999D01*
X73068819Y-56273999D02*
X73068819Y-56512094D01*
X72164057Y-55559713D02*
X72116438Y-55512094D01*
X72116438Y-55512094D02*
X72068819Y-55416856D01*
X72068819Y-55416856D02*
X72068819Y-55178761D01*
X72068819Y-55178761D02*
X72116438Y-55083523D01*
X72116438Y-55083523D02*
X72164057Y-55035904D01*
X72164057Y-55035904D02*
X72259295Y-54988285D01*
X72259295Y-54988285D02*
X72354533Y-54988285D01*
X72354533Y-54988285D02*
X72497390Y-55035904D01*
X72497390Y-55035904D02*
X73068819Y-55607332D01*
X73068819Y-55607332D02*
X73068819Y-54988285D01*
X94354819Y-13612857D02*
X93878628Y-13946190D01*
X94354819Y-14184285D02*
X93354819Y-14184285D01*
X93354819Y-14184285D02*
X93354819Y-13803333D01*
X93354819Y-13803333D02*
X93402438Y-13708095D01*
X93402438Y-13708095D02*
X93450057Y-13660476D01*
X93450057Y-13660476D02*
X93545295Y-13612857D01*
X93545295Y-13612857D02*
X93688152Y-13612857D01*
X93688152Y-13612857D02*
X93783390Y-13660476D01*
X93783390Y-13660476D02*
X93831009Y-13708095D01*
X93831009Y-13708095D02*
X93878628Y-13803333D01*
X93878628Y-13803333D02*
X93878628Y-14184285D01*
X94354819Y-12660476D02*
X94354819Y-13231904D01*
X94354819Y-12946190D02*
X93354819Y-12946190D01*
X93354819Y-12946190D02*
X93497676Y-13041428D01*
X93497676Y-13041428D02*
X93592914Y-13136666D01*
X93592914Y-13136666D02*
X93640533Y-13231904D01*
X93354819Y-12327142D02*
X93354819Y-11708095D01*
X93354819Y-11708095D02*
X93735771Y-12041428D01*
X93735771Y-12041428D02*
X93735771Y-11898571D01*
X93735771Y-11898571D02*
X93783390Y-11803333D01*
X93783390Y-11803333D02*
X93831009Y-11755714D01*
X93831009Y-11755714D02*
X93926247Y-11708095D01*
X93926247Y-11708095D02*
X94164342Y-11708095D01*
X94164342Y-11708095D02*
X94259580Y-11755714D01*
X94259580Y-11755714D02*
X94307200Y-11803333D01*
X94307200Y-11803333D02*
X94354819Y-11898571D01*
X94354819Y-11898571D02*
X94354819Y-12184285D01*
X94354819Y-12184285D02*
X94307200Y-12279523D01*
X94307200Y-12279523D02*
X94259580Y-12327142D01*
X87874819Y-11640857D02*
X87398628Y-11974190D01*
X87874819Y-12212285D02*
X86874819Y-12212285D01*
X86874819Y-12212285D02*
X86874819Y-11831333D01*
X86874819Y-11831333D02*
X86922438Y-11736095D01*
X86922438Y-11736095D02*
X86970057Y-11688476D01*
X86970057Y-11688476D02*
X87065295Y-11640857D01*
X87065295Y-11640857D02*
X87208152Y-11640857D01*
X87208152Y-11640857D02*
X87303390Y-11688476D01*
X87303390Y-11688476D02*
X87351009Y-11736095D01*
X87351009Y-11736095D02*
X87398628Y-11831333D01*
X87398628Y-11831333D02*
X87398628Y-12212285D01*
X87874819Y-10688476D02*
X87874819Y-11259904D01*
X87874819Y-10974190D02*
X86874819Y-10974190D01*
X86874819Y-10974190D02*
X87017676Y-11069428D01*
X87017676Y-11069428D02*
X87112914Y-11164666D01*
X87112914Y-11164666D02*
X87160533Y-11259904D01*
X86874819Y-9783714D02*
X86874819Y-10259904D01*
X86874819Y-10259904D02*
X87351009Y-10307523D01*
X87351009Y-10307523D02*
X87303390Y-10259904D01*
X87303390Y-10259904D02*
X87255771Y-10164666D01*
X87255771Y-10164666D02*
X87255771Y-9926571D01*
X87255771Y-9926571D02*
X87303390Y-9831333D01*
X87303390Y-9831333D02*
X87351009Y-9783714D01*
X87351009Y-9783714D02*
X87446247Y-9736095D01*
X87446247Y-9736095D02*
X87684342Y-9736095D01*
X87684342Y-9736095D02*
X87779580Y-9783714D01*
X87779580Y-9783714D02*
X87827200Y-9831333D01*
X87827200Y-9831333D02*
X87874819Y-9926571D01*
X87874819Y-9926571D02*
X87874819Y-10164666D01*
X87874819Y-10164666D02*
X87827200Y-10259904D01*
X87827200Y-10259904D02*
X87779580Y-10307523D01*
X91254819Y-13532857D02*
X90778628Y-13866190D01*
X91254819Y-14104285D02*
X90254819Y-14104285D01*
X90254819Y-14104285D02*
X90254819Y-13723333D01*
X90254819Y-13723333D02*
X90302438Y-13628095D01*
X90302438Y-13628095D02*
X90350057Y-13580476D01*
X90350057Y-13580476D02*
X90445295Y-13532857D01*
X90445295Y-13532857D02*
X90588152Y-13532857D01*
X90588152Y-13532857D02*
X90683390Y-13580476D01*
X90683390Y-13580476D02*
X90731009Y-13628095D01*
X90731009Y-13628095D02*
X90778628Y-13723333D01*
X90778628Y-13723333D02*
X90778628Y-14104285D01*
X91254819Y-12580476D02*
X91254819Y-13151904D01*
X91254819Y-12866190D02*
X90254819Y-12866190D01*
X90254819Y-12866190D02*
X90397676Y-12961428D01*
X90397676Y-12961428D02*
X90492914Y-13056666D01*
X90492914Y-13056666D02*
X90540533Y-13151904D01*
X90350057Y-12199523D02*
X90302438Y-12151904D01*
X90302438Y-12151904D02*
X90254819Y-12056666D01*
X90254819Y-12056666D02*
X90254819Y-11818571D01*
X90254819Y-11818571D02*
X90302438Y-11723333D01*
X90302438Y-11723333D02*
X90350057Y-11675714D01*
X90350057Y-11675714D02*
X90445295Y-11628095D01*
X90445295Y-11628095D02*
X90540533Y-11628095D01*
X90540533Y-11628095D02*
X90683390Y-11675714D01*
X90683390Y-11675714D02*
X91254819Y-12247142D01*
X91254819Y-12247142D02*
X91254819Y-11628095D01*
X1686666Y-19874819D02*
X1686666Y-20589104D01*
X1686666Y-20589104D02*
X1639047Y-20731961D01*
X1639047Y-20731961D02*
X1543809Y-20827200D01*
X1543809Y-20827200D02*
X1400952Y-20874819D01*
X1400952Y-20874819D02*
X1305714Y-20874819D01*
X2115238Y-19970057D02*
X2162857Y-19922438D01*
X2162857Y-19922438D02*
X2258095Y-19874819D01*
X2258095Y-19874819D02*
X2496190Y-19874819D01*
X2496190Y-19874819D02*
X2591428Y-19922438D01*
X2591428Y-19922438D02*
X2639047Y-19970057D01*
X2639047Y-19970057D02*
X2686666Y-20065295D01*
X2686666Y-20065295D02*
X2686666Y-20160533D01*
X2686666Y-20160533D02*
X2639047Y-20303390D01*
X2639047Y-20303390D02*
X2067619Y-20874819D01*
X2067619Y-20874819D02*
X2686666Y-20874819D01*
X63650761Y-20534057D02*
X63555523Y-20486438D01*
X63555523Y-20486438D02*
X63460285Y-20391200D01*
X63460285Y-20391200D02*
X63317428Y-20248342D01*
X63317428Y-20248342D02*
X63222190Y-20200723D01*
X63222190Y-20200723D02*
X63126952Y-20200723D01*
X63174571Y-20438819D02*
X63079333Y-20391200D01*
X63079333Y-20391200D02*
X62984095Y-20295961D01*
X62984095Y-20295961D02*
X62936476Y-20105485D01*
X62936476Y-20105485D02*
X62936476Y-19772152D01*
X62936476Y-19772152D02*
X62984095Y-19581676D01*
X62984095Y-19581676D02*
X63079333Y-19486438D01*
X63079333Y-19486438D02*
X63174571Y-19438819D01*
X63174571Y-19438819D02*
X63365047Y-19438819D01*
X63365047Y-19438819D02*
X63460285Y-19486438D01*
X63460285Y-19486438D02*
X63555523Y-19581676D01*
X63555523Y-19581676D02*
X63603142Y-19772152D01*
X63603142Y-19772152D02*
X63603142Y-20105485D01*
X63603142Y-20105485D02*
X63555523Y-20295961D01*
X63555523Y-20295961D02*
X63460285Y-20391200D01*
X63460285Y-20391200D02*
X63365047Y-20438819D01*
X63365047Y-20438819D02*
X63174571Y-20438819D01*
X63984095Y-19534057D02*
X64031714Y-19486438D01*
X64031714Y-19486438D02*
X64126952Y-19438819D01*
X64126952Y-19438819D02*
X64365047Y-19438819D01*
X64365047Y-19438819D02*
X64460285Y-19486438D01*
X64460285Y-19486438D02*
X64507904Y-19534057D01*
X64507904Y-19534057D02*
X64555523Y-19629295D01*
X64555523Y-19629295D02*
X64555523Y-19724533D01*
X64555523Y-19724533D02*
X64507904Y-19867390D01*
X64507904Y-19867390D02*
X63936476Y-20438819D01*
X63936476Y-20438819D02*
X64555523Y-20438819D01*
X76848819Y-55790857D02*
X76372628Y-56124190D01*
X76848819Y-56362285D02*
X75848819Y-56362285D01*
X75848819Y-56362285D02*
X75848819Y-55981333D01*
X75848819Y-55981333D02*
X75896438Y-55886095D01*
X75896438Y-55886095D02*
X75944057Y-55838476D01*
X75944057Y-55838476D02*
X76039295Y-55790857D01*
X76039295Y-55790857D02*
X76182152Y-55790857D01*
X76182152Y-55790857D02*
X76277390Y-55838476D01*
X76277390Y-55838476D02*
X76325009Y-55886095D01*
X76325009Y-55886095D02*
X76372628Y-55981333D01*
X76372628Y-55981333D02*
X76372628Y-56362285D01*
X76848819Y-54838476D02*
X76848819Y-55409904D01*
X76848819Y-55124190D02*
X75848819Y-55124190D01*
X75848819Y-55124190D02*
X75991676Y-55219428D01*
X75991676Y-55219428D02*
X76086914Y-55314666D01*
X76086914Y-55314666D02*
X76134533Y-55409904D01*
X76277390Y-54267047D02*
X76229771Y-54362285D01*
X76229771Y-54362285D02*
X76182152Y-54409904D01*
X76182152Y-54409904D02*
X76086914Y-54457523D01*
X76086914Y-54457523D02*
X76039295Y-54457523D01*
X76039295Y-54457523D02*
X75944057Y-54409904D01*
X75944057Y-54409904D02*
X75896438Y-54362285D01*
X75896438Y-54362285D02*
X75848819Y-54267047D01*
X75848819Y-54267047D02*
X75848819Y-54076571D01*
X75848819Y-54076571D02*
X75896438Y-53981333D01*
X75896438Y-53981333D02*
X75944057Y-53933714D01*
X75944057Y-53933714D02*
X76039295Y-53886095D01*
X76039295Y-53886095D02*
X76086914Y-53886095D01*
X76086914Y-53886095D02*
X76182152Y-53933714D01*
X76182152Y-53933714D02*
X76229771Y-53981333D01*
X76229771Y-53981333D02*
X76277390Y-54076571D01*
X76277390Y-54076571D02*
X76277390Y-54267047D01*
X76277390Y-54267047D02*
X76325009Y-54362285D01*
X76325009Y-54362285D02*
X76372628Y-54409904D01*
X76372628Y-54409904D02*
X76467866Y-54457523D01*
X76467866Y-54457523D02*
X76658342Y-54457523D01*
X76658342Y-54457523D02*
X76753580Y-54409904D01*
X76753580Y-54409904D02*
X76801200Y-54362285D01*
X76801200Y-54362285D02*
X76848819Y-54267047D01*
X76848819Y-54267047D02*
X76848819Y-54076571D01*
X76848819Y-54076571D02*
X76801200Y-53981333D01*
X76801200Y-53981333D02*
X76753580Y-53933714D01*
X76753580Y-53933714D02*
X76658342Y-53886095D01*
X76658342Y-53886095D02*
X76467866Y-53886095D01*
X76467866Y-53886095D02*
X76372628Y-53933714D01*
X76372628Y-53933714D02*
X76325009Y-53981333D01*
X76325009Y-53981333D02*
X76277390Y-54076571D01*
X47190819Y-19116666D02*
X46714628Y-19449999D01*
X47190819Y-19688094D02*
X46190819Y-19688094D01*
X46190819Y-19688094D02*
X46190819Y-19307142D01*
X46190819Y-19307142D02*
X46238438Y-19211904D01*
X46238438Y-19211904D02*
X46286057Y-19164285D01*
X46286057Y-19164285D02*
X46381295Y-19116666D01*
X46381295Y-19116666D02*
X46524152Y-19116666D01*
X46524152Y-19116666D02*
X46619390Y-19164285D01*
X46619390Y-19164285D02*
X46667009Y-19211904D01*
X46667009Y-19211904D02*
X46714628Y-19307142D01*
X46714628Y-19307142D02*
X46714628Y-19688094D01*
X46190819Y-18783332D02*
X46190819Y-18116666D01*
X46190819Y-18116666D02*
X47190819Y-18545237D01*
X76145333Y-27259580D02*
X76097714Y-27307200D01*
X76097714Y-27307200D02*
X75954857Y-27354819D01*
X75954857Y-27354819D02*
X75859619Y-27354819D01*
X75859619Y-27354819D02*
X75716762Y-27307200D01*
X75716762Y-27307200D02*
X75621524Y-27211961D01*
X75621524Y-27211961D02*
X75573905Y-27116723D01*
X75573905Y-27116723D02*
X75526286Y-26926247D01*
X75526286Y-26926247D02*
X75526286Y-26783390D01*
X75526286Y-26783390D02*
X75573905Y-26592914D01*
X75573905Y-26592914D02*
X75621524Y-26497676D01*
X75621524Y-26497676D02*
X75716762Y-26402438D01*
X75716762Y-26402438D02*
X75859619Y-26354819D01*
X75859619Y-26354819D02*
X75954857Y-26354819D01*
X75954857Y-26354819D02*
X76097714Y-26402438D01*
X76097714Y-26402438D02*
X76145333Y-26450057D01*
X76621524Y-27354819D02*
X76812000Y-27354819D01*
X76812000Y-27354819D02*
X76907238Y-27307200D01*
X76907238Y-27307200D02*
X76954857Y-27259580D01*
X76954857Y-27259580D02*
X77050095Y-27116723D01*
X77050095Y-27116723D02*
X77097714Y-26926247D01*
X77097714Y-26926247D02*
X77097714Y-26545295D01*
X77097714Y-26545295D02*
X77050095Y-26450057D01*
X77050095Y-26450057D02*
X77002476Y-26402438D01*
X77002476Y-26402438D02*
X76907238Y-26354819D01*
X76907238Y-26354819D02*
X76716762Y-26354819D01*
X76716762Y-26354819D02*
X76621524Y-26402438D01*
X76621524Y-26402438D02*
X76573905Y-26450057D01*
X76573905Y-26450057D02*
X76526286Y-26545295D01*
X76526286Y-26545295D02*
X76526286Y-26783390D01*
X76526286Y-26783390D02*
X76573905Y-26878628D01*
X76573905Y-26878628D02*
X76621524Y-26926247D01*
X76621524Y-26926247D02*
X76716762Y-26973866D01*
X76716762Y-26973866D02*
X76907238Y-26973866D01*
X76907238Y-26973866D02*
X77002476Y-26926247D01*
X77002476Y-26926247D02*
X77050095Y-26878628D01*
X77050095Y-26878628D02*
X77097714Y-26783390D01*
X91027142Y-39284819D02*
X90693809Y-38808628D01*
X90455714Y-39284819D02*
X90455714Y-38284819D01*
X90455714Y-38284819D02*
X90836666Y-38284819D01*
X90836666Y-38284819D02*
X90931904Y-38332438D01*
X90931904Y-38332438D02*
X90979523Y-38380057D01*
X90979523Y-38380057D02*
X91027142Y-38475295D01*
X91027142Y-38475295D02*
X91027142Y-38618152D01*
X91027142Y-38618152D02*
X90979523Y-38713390D01*
X90979523Y-38713390D02*
X90931904Y-38761009D01*
X90931904Y-38761009D02*
X90836666Y-38808628D01*
X90836666Y-38808628D02*
X90455714Y-38808628D01*
X91979523Y-39284819D02*
X91408095Y-39284819D01*
X91693809Y-39284819D02*
X91693809Y-38284819D01*
X91693809Y-38284819D02*
X91598571Y-38427676D01*
X91598571Y-38427676D02*
X91503333Y-38522914D01*
X91503333Y-38522914D02*
X91408095Y-38570533D01*
X92312857Y-38284819D02*
X92979523Y-38284819D01*
X92979523Y-38284819D02*
X92550952Y-39284819D01*
X30567333Y-36935580D02*
X30519714Y-36983200D01*
X30519714Y-36983200D02*
X30376857Y-37030819D01*
X30376857Y-37030819D02*
X30281619Y-37030819D01*
X30281619Y-37030819D02*
X30138762Y-36983200D01*
X30138762Y-36983200D02*
X30043524Y-36887961D01*
X30043524Y-36887961D02*
X29995905Y-36792723D01*
X29995905Y-36792723D02*
X29948286Y-36602247D01*
X29948286Y-36602247D02*
X29948286Y-36459390D01*
X29948286Y-36459390D02*
X29995905Y-36268914D01*
X29995905Y-36268914D02*
X30043524Y-36173676D01*
X30043524Y-36173676D02*
X30138762Y-36078438D01*
X30138762Y-36078438D02*
X30281619Y-36030819D01*
X30281619Y-36030819D02*
X30376857Y-36030819D01*
X30376857Y-36030819D02*
X30519714Y-36078438D01*
X30519714Y-36078438D02*
X30567333Y-36126057D01*
X30948286Y-36126057D02*
X30995905Y-36078438D01*
X30995905Y-36078438D02*
X31091143Y-36030819D01*
X31091143Y-36030819D02*
X31329238Y-36030819D01*
X31329238Y-36030819D02*
X31424476Y-36078438D01*
X31424476Y-36078438D02*
X31472095Y-36126057D01*
X31472095Y-36126057D02*
X31519714Y-36221295D01*
X31519714Y-36221295D02*
X31519714Y-36316533D01*
X31519714Y-36316533D02*
X31472095Y-36459390D01*
X31472095Y-36459390D02*
X30900667Y-37030819D01*
X30900667Y-37030819D02*
X31519714Y-37030819D01*
X51124819Y-59623333D02*
X51839104Y-59623333D01*
X51839104Y-59623333D02*
X51981961Y-59670952D01*
X51981961Y-59670952D02*
X52077200Y-59766190D01*
X52077200Y-59766190D02*
X52124819Y-59909047D01*
X52124819Y-59909047D02*
X52124819Y-60004285D01*
X51458152Y-58718571D02*
X52124819Y-58718571D01*
X51077200Y-58956666D02*
X51791485Y-59194761D01*
X51791485Y-59194761D02*
X51791485Y-58575714D01*
X85621905Y-33728819D02*
X85621905Y-32728819D01*
X85621905Y-32728819D02*
X85860000Y-32728819D01*
X85860000Y-32728819D02*
X86002857Y-32776438D01*
X86002857Y-32776438D02*
X86098095Y-32871676D01*
X86098095Y-32871676D02*
X86145714Y-32966914D01*
X86145714Y-32966914D02*
X86193333Y-33157390D01*
X86193333Y-33157390D02*
X86193333Y-33300247D01*
X86193333Y-33300247D02*
X86145714Y-33490723D01*
X86145714Y-33490723D02*
X86098095Y-33585961D01*
X86098095Y-33585961D02*
X86002857Y-33681200D01*
X86002857Y-33681200D02*
X85860000Y-33728819D01*
X85860000Y-33728819D02*
X85621905Y-33728819D01*
X87050476Y-33062152D02*
X87050476Y-33728819D01*
X86812381Y-32681200D02*
X86574286Y-33395485D01*
X86574286Y-33395485D02*
X87193333Y-33395485D01*
X79247142Y-23734819D02*
X78913809Y-23258628D01*
X78675714Y-23734819D02*
X78675714Y-22734819D01*
X78675714Y-22734819D02*
X79056666Y-22734819D01*
X79056666Y-22734819D02*
X79151904Y-22782438D01*
X79151904Y-22782438D02*
X79199523Y-22830057D01*
X79199523Y-22830057D02*
X79247142Y-22925295D01*
X79247142Y-22925295D02*
X79247142Y-23068152D01*
X79247142Y-23068152D02*
X79199523Y-23163390D01*
X79199523Y-23163390D02*
X79151904Y-23211009D01*
X79151904Y-23211009D02*
X79056666Y-23258628D01*
X79056666Y-23258628D02*
X78675714Y-23258628D01*
X80199523Y-23734819D02*
X79628095Y-23734819D01*
X79913809Y-23734819D02*
X79913809Y-22734819D01*
X79913809Y-22734819D02*
X79818571Y-22877676D01*
X79818571Y-22877676D02*
X79723333Y-22972914D01*
X79723333Y-22972914D02*
X79628095Y-23020533D01*
X81151904Y-23734819D02*
X80580476Y-23734819D01*
X80866190Y-23734819D02*
X80866190Y-22734819D01*
X80866190Y-22734819D02*
X80770952Y-22877676D01*
X80770952Y-22877676D02*
X80675714Y-22972914D01*
X80675714Y-22972914D02*
X80580476Y-23020533D01*
X52878761Y-21234057D02*
X52783523Y-21186438D01*
X52783523Y-21186438D02*
X52688285Y-21091200D01*
X52688285Y-21091200D02*
X52545428Y-20948342D01*
X52545428Y-20948342D02*
X52450190Y-20900723D01*
X52450190Y-20900723D02*
X52354952Y-20900723D01*
X52402571Y-21138819D02*
X52307333Y-21091200D01*
X52307333Y-21091200D02*
X52212095Y-20995961D01*
X52212095Y-20995961D02*
X52164476Y-20805485D01*
X52164476Y-20805485D02*
X52164476Y-20472152D01*
X52164476Y-20472152D02*
X52212095Y-20281676D01*
X52212095Y-20281676D02*
X52307333Y-20186438D01*
X52307333Y-20186438D02*
X52402571Y-20138819D01*
X52402571Y-20138819D02*
X52593047Y-20138819D01*
X52593047Y-20138819D02*
X52688285Y-20186438D01*
X52688285Y-20186438D02*
X52783523Y-20281676D01*
X52783523Y-20281676D02*
X52831142Y-20472152D01*
X52831142Y-20472152D02*
X52831142Y-20805485D01*
X52831142Y-20805485D02*
X52783523Y-20995961D01*
X52783523Y-20995961D02*
X52688285Y-21091200D01*
X52688285Y-21091200D02*
X52593047Y-21138819D01*
X52593047Y-21138819D02*
X52402571Y-21138819D01*
X53783523Y-21138819D02*
X53212095Y-21138819D01*
X53497809Y-21138819D02*
X53497809Y-20138819D01*
X53497809Y-20138819D02*
X53402571Y-20281676D01*
X53402571Y-20281676D02*
X53307333Y-20376914D01*
X53307333Y-20376914D02*
X53212095Y-20424533D01*
X92793333Y-45549580D02*
X92745714Y-45597200D01*
X92745714Y-45597200D02*
X92602857Y-45644819D01*
X92602857Y-45644819D02*
X92507619Y-45644819D01*
X92507619Y-45644819D02*
X92364762Y-45597200D01*
X92364762Y-45597200D02*
X92269524Y-45501961D01*
X92269524Y-45501961D02*
X92221905Y-45406723D01*
X92221905Y-45406723D02*
X92174286Y-45216247D01*
X92174286Y-45216247D02*
X92174286Y-45073390D01*
X92174286Y-45073390D02*
X92221905Y-44882914D01*
X92221905Y-44882914D02*
X92269524Y-44787676D01*
X92269524Y-44787676D02*
X92364762Y-44692438D01*
X92364762Y-44692438D02*
X92507619Y-44644819D01*
X92507619Y-44644819D02*
X92602857Y-44644819D01*
X92602857Y-44644819D02*
X92745714Y-44692438D01*
X92745714Y-44692438D02*
X92793333Y-44740057D01*
X93126667Y-44644819D02*
X93745714Y-44644819D01*
X93745714Y-44644819D02*
X93412381Y-45025771D01*
X93412381Y-45025771D02*
X93555238Y-45025771D01*
X93555238Y-45025771D02*
X93650476Y-45073390D01*
X93650476Y-45073390D02*
X93698095Y-45121009D01*
X93698095Y-45121009D02*
X93745714Y-45216247D01*
X93745714Y-45216247D02*
X93745714Y-45454342D01*
X93745714Y-45454342D02*
X93698095Y-45549580D01*
X93698095Y-45549580D02*
X93650476Y-45597200D01*
X93650476Y-45597200D02*
X93555238Y-45644819D01*
X93555238Y-45644819D02*
X93269524Y-45644819D01*
X93269524Y-45644819D02*
X93174286Y-45597200D01*
X93174286Y-45597200D02*
X93126667Y-45549580D01*
X91868666Y-51270819D02*
X91868666Y-51985104D01*
X91868666Y-51985104D02*
X91821047Y-52127961D01*
X91821047Y-52127961D02*
X91725809Y-52223200D01*
X91725809Y-52223200D02*
X91582952Y-52270819D01*
X91582952Y-52270819D02*
X91487714Y-52270819D01*
X92249619Y-51270819D02*
X92868666Y-51270819D01*
X92868666Y-51270819D02*
X92535333Y-51651771D01*
X92535333Y-51651771D02*
X92678190Y-51651771D01*
X92678190Y-51651771D02*
X92773428Y-51699390D01*
X92773428Y-51699390D02*
X92821047Y-51747009D01*
X92821047Y-51747009D02*
X92868666Y-51842247D01*
X92868666Y-51842247D02*
X92868666Y-52080342D01*
X92868666Y-52080342D02*
X92821047Y-52175580D01*
X92821047Y-52175580D02*
X92773428Y-52223200D01*
X92773428Y-52223200D02*
X92678190Y-52270819D01*
X92678190Y-52270819D02*
X92392476Y-52270819D01*
X92392476Y-52270819D02*
X92297238Y-52223200D01*
X92297238Y-52223200D02*
X92249619Y-52175580D01*
X73269580Y-14406666D02*
X73317200Y-14454285D01*
X73317200Y-14454285D02*
X73364819Y-14597142D01*
X73364819Y-14597142D02*
X73364819Y-14692380D01*
X73364819Y-14692380D02*
X73317200Y-14835237D01*
X73317200Y-14835237D02*
X73221961Y-14930475D01*
X73221961Y-14930475D02*
X73126723Y-14978094D01*
X73126723Y-14978094D02*
X72936247Y-15025713D01*
X72936247Y-15025713D02*
X72793390Y-15025713D01*
X72793390Y-15025713D02*
X72602914Y-14978094D01*
X72602914Y-14978094D02*
X72507676Y-14930475D01*
X72507676Y-14930475D02*
X72412438Y-14835237D01*
X72412438Y-14835237D02*
X72364819Y-14692380D01*
X72364819Y-14692380D02*
X72364819Y-14597142D01*
X72364819Y-14597142D02*
X72412438Y-14454285D01*
X72412438Y-14454285D02*
X72460057Y-14406666D01*
X72364819Y-13501904D02*
X72364819Y-13978094D01*
X72364819Y-13978094D02*
X72841009Y-14025713D01*
X72841009Y-14025713D02*
X72793390Y-13978094D01*
X72793390Y-13978094D02*
X72745771Y-13882856D01*
X72745771Y-13882856D02*
X72745771Y-13644761D01*
X72745771Y-13644761D02*
X72793390Y-13549523D01*
X72793390Y-13549523D02*
X72841009Y-13501904D01*
X72841009Y-13501904D02*
X72936247Y-13454285D01*
X72936247Y-13454285D02*
X73174342Y-13454285D01*
X73174342Y-13454285D02*
X73269580Y-13501904D01*
X73269580Y-13501904D02*
X73317200Y-13549523D01*
X73317200Y-13549523D02*
X73364819Y-13644761D01*
X73364819Y-13644761D02*
X73364819Y-13882856D01*
X73364819Y-13882856D02*
X73317200Y-13978094D01*
X73317200Y-13978094D02*
X73269580Y-14025713D01*
X90725905Y-42618819D02*
X90725905Y-41618819D01*
X90725905Y-41618819D02*
X90964000Y-41618819D01*
X90964000Y-41618819D02*
X91106857Y-41666438D01*
X91106857Y-41666438D02*
X91202095Y-41761676D01*
X91202095Y-41761676D02*
X91249714Y-41856914D01*
X91249714Y-41856914D02*
X91297333Y-42047390D01*
X91297333Y-42047390D02*
X91297333Y-42190247D01*
X91297333Y-42190247D02*
X91249714Y-42380723D01*
X91249714Y-42380723D02*
X91202095Y-42475961D01*
X91202095Y-42475961D02*
X91106857Y-42571200D01*
X91106857Y-42571200D02*
X90964000Y-42618819D01*
X90964000Y-42618819D02*
X90725905Y-42618819D01*
X91773524Y-42618819D02*
X91964000Y-42618819D01*
X91964000Y-42618819D02*
X92059238Y-42571200D01*
X92059238Y-42571200D02*
X92106857Y-42523580D01*
X92106857Y-42523580D02*
X92202095Y-42380723D01*
X92202095Y-42380723D02*
X92249714Y-42190247D01*
X92249714Y-42190247D02*
X92249714Y-41809295D01*
X92249714Y-41809295D02*
X92202095Y-41714057D01*
X92202095Y-41714057D02*
X92154476Y-41666438D01*
X92154476Y-41666438D02*
X92059238Y-41618819D01*
X92059238Y-41618819D02*
X91868762Y-41618819D01*
X91868762Y-41618819D02*
X91773524Y-41666438D01*
X91773524Y-41666438D02*
X91725905Y-41714057D01*
X91725905Y-41714057D02*
X91678286Y-41809295D01*
X91678286Y-41809295D02*
X91678286Y-42047390D01*
X91678286Y-42047390D02*
X91725905Y-42142628D01*
X91725905Y-42142628D02*
X91773524Y-42190247D01*
X91773524Y-42190247D02*
X91868762Y-42237866D01*
X91868762Y-42237866D02*
X92059238Y-42237866D01*
X92059238Y-42237866D02*
X92154476Y-42190247D01*
X92154476Y-42190247D02*
X92202095Y-42142628D01*
X92202095Y-42142628D02*
X92249714Y-42047390D01*
X32356666Y-50444819D02*
X32356666Y-51159104D01*
X32356666Y-51159104D02*
X32309047Y-51301961D01*
X32309047Y-51301961D02*
X32213809Y-51397200D01*
X32213809Y-51397200D02*
X32070952Y-51444819D01*
X32070952Y-51444819D02*
X31975714Y-51444819D01*
X33356666Y-51444819D02*
X32785238Y-51444819D01*
X33070952Y-51444819D02*
X33070952Y-50444819D01*
X33070952Y-50444819D02*
X32975714Y-50587676D01*
X32975714Y-50587676D02*
X32880476Y-50682914D01*
X32880476Y-50682914D02*
X32785238Y-50730533D01*
X69588333Y-46004819D02*
X69255000Y-45528628D01*
X69016905Y-46004819D02*
X69016905Y-45004819D01*
X69016905Y-45004819D02*
X69397857Y-45004819D01*
X69397857Y-45004819D02*
X69493095Y-45052438D01*
X69493095Y-45052438D02*
X69540714Y-45100057D01*
X69540714Y-45100057D02*
X69588333Y-45195295D01*
X69588333Y-45195295D02*
X69588333Y-45338152D01*
X69588333Y-45338152D02*
X69540714Y-45433390D01*
X69540714Y-45433390D02*
X69493095Y-45481009D01*
X69493095Y-45481009D02*
X69397857Y-45528628D01*
X69397857Y-45528628D02*
X69016905Y-45528628D01*
X70445476Y-45004819D02*
X70255000Y-45004819D01*
X70255000Y-45004819D02*
X70159762Y-45052438D01*
X70159762Y-45052438D02*
X70112143Y-45100057D01*
X70112143Y-45100057D02*
X70016905Y-45242914D01*
X70016905Y-45242914D02*
X69969286Y-45433390D01*
X69969286Y-45433390D02*
X69969286Y-45814342D01*
X69969286Y-45814342D02*
X70016905Y-45909580D01*
X70016905Y-45909580D02*
X70064524Y-45957200D01*
X70064524Y-45957200D02*
X70159762Y-46004819D01*
X70159762Y-46004819D02*
X70350238Y-46004819D01*
X70350238Y-46004819D02*
X70445476Y-45957200D01*
X70445476Y-45957200D02*
X70493095Y-45909580D01*
X70493095Y-45909580D02*
X70540714Y-45814342D01*
X70540714Y-45814342D02*
X70540714Y-45576247D01*
X70540714Y-45576247D02*
X70493095Y-45481009D01*
X70493095Y-45481009D02*
X70445476Y-45433390D01*
X70445476Y-45433390D02*
X70350238Y-45385771D01*
X70350238Y-45385771D02*
X70159762Y-45385771D01*
X70159762Y-45385771D02*
X70064524Y-45433390D01*
X70064524Y-45433390D02*
X70016905Y-45481009D01*
X70016905Y-45481009D02*
X69969286Y-45576247D01*
X88817142Y-4684819D02*
X88483809Y-4208628D01*
X88245714Y-4684819D02*
X88245714Y-3684819D01*
X88245714Y-3684819D02*
X88626666Y-3684819D01*
X88626666Y-3684819D02*
X88721904Y-3732438D01*
X88721904Y-3732438D02*
X88769523Y-3780057D01*
X88769523Y-3780057D02*
X88817142Y-3875295D01*
X88817142Y-3875295D02*
X88817142Y-4018152D01*
X88817142Y-4018152D02*
X88769523Y-4113390D01*
X88769523Y-4113390D02*
X88721904Y-4161009D01*
X88721904Y-4161009D02*
X88626666Y-4208628D01*
X88626666Y-4208628D02*
X88245714Y-4208628D01*
X89769523Y-4684819D02*
X89198095Y-4684819D01*
X89483809Y-4684819D02*
X89483809Y-3684819D01*
X89483809Y-3684819D02*
X89388571Y-3827676D01*
X89388571Y-3827676D02*
X89293333Y-3922914D01*
X89293333Y-3922914D02*
X89198095Y-3970533D01*
X90245714Y-4684819D02*
X90436190Y-4684819D01*
X90436190Y-4684819D02*
X90531428Y-4637200D01*
X90531428Y-4637200D02*
X90579047Y-4589580D01*
X90579047Y-4589580D02*
X90674285Y-4446723D01*
X90674285Y-4446723D02*
X90721904Y-4256247D01*
X90721904Y-4256247D02*
X90721904Y-3875295D01*
X90721904Y-3875295D02*
X90674285Y-3780057D01*
X90674285Y-3780057D02*
X90626666Y-3732438D01*
X90626666Y-3732438D02*
X90531428Y-3684819D01*
X90531428Y-3684819D02*
X90340952Y-3684819D01*
X90340952Y-3684819D02*
X90245714Y-3732438D01*
X90245714Y-3732438D02*
X90198095Y-3780057D01*
X90198095Y-3780057D02*
X90150476Y-3875295D01*
X90150476Y-3875295D02*
X90150476Y-4113390D01*
X90150476Y-4113390D02*
X90198095Y-4208628D01*
X90198095Y-4208628D02*
X90245714Y-4256247D01*
X90245714Y-4256247D02*
X90340952Y-4303866D01*
X90340952Y-4303866D02*
X90531428Y-4303866D01*
X90531428Y-4303866D02*
X90626666Y-4256247D01*
X90626666Y-4256247D02*
X90674285Y-4208628D01*
X90674285Y-4208628D02*
X90721904Y-4113390D01*
X33653333Y-49279580D02*
X33605714Y-49327200D01*
X33605714Y-49327200D02*
X33462857Y-49374819D01*
X33462857Y-49374819D02*
X33367619Y-49374819D01*
X33367619Y-49374819D02*
X33224762Y-49327200D01*
X33224762Y-49327200D02*
X33129524Y-49231961D01*
X33129524Y-49231961D02*
X33081905Y-49136723D01*
X33081905Y-49136723D02*
X33034286Y-48946247D01*
X33034286Y-48946247D02*
X33034286Y-48803390D01*
X33034286Y-48803390D02*
X33081905Y-48612914D01*
X33081905Y-48612914D02*
X33129524Y-48517676D01*
X33129524Y-48517676D02*
X33224762Y-48422438D01*
X33224762Y-48422438D02*
X33367619Y-48374819D01*
X33367619Y-48374819D02*
X33462857Y-48374819D01*
X33462857Y-48374819D02*
X33605714Y-48422438D01*
X33605714Y-48422438D02*
X33653333Y-48470057D01*
X34605714Y-49374819D02*
X34034286Y-49374819D01*
X34320000Y-49374819D02*
X34320000Y-48374819D01*
X34320000Y-48374819D02*
X34224762Y-48517676D01*
X34224762Y-48517676D02*
X34129524Y-48612914D01*
X34129524Y-48612914D02*
X34034286Y-48660533D01*
X85971142Y-27114819D02*
X85637809Y-26638628D01*
X85399714Y-27114819D02*
X85399714Y-26114819D01*
X85399714Y-26114819D02*
X85780666Y-26114819D01*
X85780666Y-26114819D02*
X85875904Y-26162438D01*
X85875904Y-26162438D02*
X85923523Y-26210057D01*
X85923523Y-26210057D02*
X85971142Y-26305295D01*
X85971142Y-26305295D02*
X85971142Y-26448152D01*
X85971142Y-26448152D02*
X85923523Y-26543390D01*
X85923523Y-26543390D02*
X85875904Y-26591009D01*
X85875904Y-26591009D02*
X85780666Y-26638628D01*
X85780666Y-26638628D02*
X85399714Y-26638628D01*
X86923523Y-27114819D02*
X86352095Y-27114819D01*
X86637809Y-27114819D02*
X86637809Y-26114819D01*
X86637809Y-26114819D02*
X86542571Y-26257676D01*
X86542571Y-26257676D02*
X86447333Y-26352914D01*
X86447333Y-26352914D02*
X86352095Y-26400533D01*
X87780666Y-26448152D02*
X87780666Y-27114819D01*
X87542571Y-26067200D02*
X87304476Y-26781485D01*
X87304476Y-26781485D02*
X87923523Y-26781485D01*
X61354819Y-25312666D02*
X60878628Y-25645999D01*
X61354819Y-25884094D02*
X60354819Y-25884094D01*
X60354819Y-25884094D02*
X60354819Y-25503142D01*
X60354819Y-25503142D02*
X60402438Y-25407904D01*
X60402438Y-25407904D02*
X60450057Y-25360285D01*
X60450057Y-25360285D02*
X60545295Y-25312666D01*
X60545295Y-25312666D02*
X60688152Y-25312666D01*
X60688152Y-25312666D02*
X60783390Y-25360285D01*
X60783390Y-25360285D02*
X60831009Y-25407904D01*
X60831009Y-25407904D02*
X60878628Y-25503142D01*
X60878628Y-25503142D02*
X60878628Y-25884094D01*
X60783390Y-24741237D02*
X60735771Y-24836475D01*
X60735771Y-24836475D02*
X60688152Y-24884094D01*
X60688152Y-24884094D02*
X60592914Y-24931713D01*
X60592914Y-24931713D02*
X60545295Y-24931713D01*
X60545295Y-24931713D02*
X60450057Y-24884094D01*
X60450057Y-24884094D02*
X60402438Y-24836475D01*
X60402438Y-24836475D02*
X60354819Y-24741237D01*
X60354819Y-24741237D02*
X60354819Y-24550761D01*
X60354819Y-24550761D02*
X60402438Y-24455523D01*
X60402438Y-24455523D02*
X60450057Y-24407904D01*
X60450057Y-24407904D02*
X60545295Y-24360285D01*
X60545295Y-24360285D02*
X60592914Y-24360285D01*
X60592914Y-24360285D02*
X60688152Y-24407904D01*
X60688152Y-24407904D02*
X60735771Y-24455523D01*
X60735771Y-24455523D02*
X60783390Y-24550761D01*
X60783390Y-24550761D02*
X60783390Y-24741237D01*
X60783390Y-24741237D02*
X60831009Y-24836475D01*
X60831009Y-24836475D02*
X60878628Y-24884094D01*
X60878628Y-24884094D02*
X60973866Y-24931713D01*
X60973866Y-24931713D02*
X61164342Y-24931713D01*
X61164342Y-24931713D02*
X61259580Y-24884094D01*
X61259580Y-24884094D02*
X61307200Y-24836475D01*
X61307200Y-24836475D02*
X61354819Y-24741237D01*
X61354819Y-24741237D02*
X61354819Y-24550761D01*
X61354819Y-24550761D02*
X61307200Y-24455523D01*
X61307200Y-24455523D02*
X61259580Y-24407904D01*
X61259580Y-24407904D02*
X61164342Y-24360285D01*
X61164342Y-24360285D02*
X60973866Y-24360285D01*
X60973866Y-24360285D02*
X60878628Y-24407904D01*
X60878628Y-24407904D02*
X60831009Y-24455523D01*
X60831009Y-24455523D02*
X60783390Y-24550761D01*
X46284819Y-42552857D02*
X45808628Y-42886190D01*
X46284819Y-43124285D02*
X45284819Y-43124285D01*
X45284819Y-43124285D02*
X45284819Y-42743333D01*
X45284819Y-42743333D02*
X45332438Y-42648095D01*
X45332438Y-42648095D02*
X45380057Y-42600476D01*
X45380057Y-42600476D02*
X45475295Y-42552857D01*
X45475295Y-42552857D02*
X45618152Y-42552857D01*
X45618152Y-42552857D02*
X45713390Y-42600476D01*
X45713390Y-42600476D02*
X45761009Y-42648095D01*
X45761009Y-42648095D02*
X45808628Y-42743333D01*
X45808628Y-42743333D02*
X45808628Y-43124285D01*
X46284819Y-41600476D02*
X46284819Y-42171904D01*
X46284819Y-41886190D02*
X45284819Y-41886190D01*
X45284819Y-41886190D02*
X45427676Y-41981428D01*
X45427676Y-41981428D02*
X45522914Y-42076666D01*
X45522914Y-42076666D02*
X45570533Y-42171904D01*
X45284819Y-40981428D02*
X45284819Y-40886190D01*
X45284819Y-40886190D02*
X45332438Y-40790952D01*
X45332438Y-40790952D02*
X45380057Y-40743333D01*
X45380057Y-40743333D02*
X45475295Y-40695714D01*
X45475295Y-40695714D02*
X45665771Y-40648095D01*
X45665771Y-40648095D02*
X45903866Y-40648095D01*
X45903866Y-40648095D02*
X46094342Y-40695714D01*
X46094342Y-40695714D02*
X46189580Y-40743333D01*
X46189580Y-40743333D02*
X46237200Y-40790952D01*
X46237200Y-40790952D02*
X46284819Y-40886190D01*
X46284819Y-40886190D02*
X46284819Y-40981428D01*
X46284819Y-40981428D02*
X46237200Y-41076666D01*
X46237200Y-41076666D02*
X46189580Y-41124285D01*
X46189580Y-41124285D02*
X46094342Y-41171904D01*
X46094342Y-41171904D02*
X45903866Y-41219523D01*
X45903866Y-41219523D02*
X45665771Y-41219523D01*
X45665771Y-41219523D02*
X45475295Y-41171904D01*
X45475295Y-41171904D02*
X45380057Y-41124285D01*
X45380057Y-41124285D02*
X45332438Y-41076666D01*
X45332438Y-41076666D02*
X45284819Y-40981428D01*
X68963142Y-6032819D02*
X68629809Y-5556628D01*
X68391714Y-6032819D02*
X68391714Y-5032819D01*
X68391714Y-5032819D02*
X68772666Y-5032819D01*
X68772666Y-5032819D02*
X68867904Y-5080438D01*
X68867904Y-5080438D02*
X68915523Y-5128057D01*
X68915523Y-5128057D02*
X68963142Y-5223295D01*
X68963142Y-5223295D02*
X68963142Y-5366152D01*
X68963142Y-5366152D02*
X68915523Y-5461390D01*
X68915523Y-5461390D02*
X68867904Y-5509009D01*
X68867904Y-5509009D02*
X68772666Y-5556628D01*
X68772666Y-5556628D02*
X68391714Y-5556628D01*
X69344095Y-5128057D02*
X69391714Y-5080438D01*
X69391714Y-5080438D02*
X69486952Y-5032819D01*
X69486952Y-5032819D02*
X69725047Y-5032819D01*
X69725047Y-5032819D02*
X69820285Y-5080438D01*
X69820285Y-5080438D02*
X69867904Y-5128057D01*
X69867904Y-5128057D02*
X69915523Y-5223295D01*
X69915523Y-5223295D02*
X69915523Y-5318533D01*
X69915523Y-5318533D02*
X69867904Y-5461390D01*
X69867904Y-5461390D02*
X69296476Y-6032819D01*
X69296476Y-6032819D02*
X69915523Y-6032819D01*
X70534571Y-5032819D02*
X70629809Y-5032819D01*
X70629809Y-5032819D02*
X70725047Y-5080438D01*
X70725047Y-5080438D02*
X70772666Y-5128057D01*
X70772666Y-5128057D02*
X70820285Y-5223295D01*
X70820285Y-5223295D02*
X70867904Y-5413771D01*
X70867904Y-5413771D02*
X70867904Y-5651866D01*
X70867904Y-5651866D02*
X70820285Y-5842342D01*
X70820285Y-5842342D02*
X70772666Y-5937580D01*
X70772666Y-5937580D02*
X70725047Y-5985200D01*
X70725047Y-5985200D02*
X70629809Y-6032819D01*
X70629809Y-6032819D02*
X70534571Y-6032819D01*
X70534571Y-6032819D02*
X70439333Y-5985200D01*
X70439333Y-5985200D02*
X70391714Y-5937580D01*
X70391714Y-5937580D02*
X70344095Y-5842342D01*
X70344095Y-5842342D02*
X70296476Y-5651866D01*
X70296476Y-5651866D02*
X70296476Y-5413771D01*
X70296476Y-5413771D02*
X70344095Y-5223295D01*
X70344095Y-5223295D02*
X70391714Y-5128057D01*
X70391714Y-5128057D02*
X70439333Y-5080438D01*
X70439333Y-5080438D02*
X70534571Y-5032819D01*
X62420057Y-35033238D02*
X62372438Y-35128476D01*
X62372438Y-35128476D02*
X62277200Y-35223714D01*
X62277200Y-35223714D02*
X62134342Y-35366571D01*
X62134342Y-35366571D02*
X62086723Y-35461809D01*
X62086723Y-35461809D02*
X62086723Y-35557047D01*
X62324819Y-35509428D02*
X62277200Y-35604666D01*
X62277200Y-35604666D02*
X62181961Y-35699904D01*
X62181961Y-35699904D02*
X61991485Y-35747523D01*
X61991485Y-35747523D02*
X61658152Y-35747523D01*
X61658152Y-35747523D02*
X61467676Y-35699904D01*
X61467676Y-35699904D02*
X61372438Y-35604666D01*
X61372438Y-35604666D02*
X61324819Y-35509428D01*
X61324819Y-35509428D02*
X61324819Y-35318952D01*
X61324819Y-35318952D02*
X61372438Y-35223714D01*
X61372438Y-35223714D02*
X61467676Y-35128476D01*
X61467676Y-35128476D02*
X61658152Y-35080857D01*
X61658152Y-35080857D02*
X61991485Y-35080857D01*
X61991485Y-35080857D02*
X62181961Y-35128476D01*
X62181961Y-35128476D02*
X62277200Y-35223714D01*
X62277200Y-35223714D02*
X62324819Y-35318952D01*
X62324819Y-35318952D02*
X62324819Y-35509428D01*
X61658152Y-34223714D02*
X62324819Y-34223714D01*
X61277200Y-34461809D02*
X61991485Y-34699904D01*
X61991485Y-34699904D02*
X61991485Y-34080857D01*
X32394819Y-27118094D02*
X31394819Y-27118094D01*
X31394819Y-27118094D02*
X31394819Y-26879999D01*
X31394819Y-26879999D02*
X31442438Y-26737142D01*
X31442438Y-26737142D02*
X31537676Y-26641904D01*
X31537676Y-26641904D02*
X31632914Y-26594285D01*
X31632914Y-26594285D02*
X31823390Y-26546666D01*
X31823390Y-26546666D02*
X31966247Y-26546666D01*
X31966247Y-26546666D02*
X32156723Y-26594285D01*
X32156723Y-26594285D02*
X32251961Y-26641904D01*
X32251961Y-26641904D02*
X32347200Y-26737142D01*
X32347200Y-26737142D02*
X32394819Y-26879999D01*
X32394819Y-26879999D02*
X32394819Y-27118094D01*
X31394819Y-26213332D02*
X31394819Y-25546666D01*
X31394819Y-25546666D02*
X32394819Y-25975237D01*
X55064819Y-57284857D02*
X54588628Y-57618190D01*
X55064819Y-57856285D02*
X54064819Y-57856285D01*
X54064819Y-57856285D02*
X54064819Y-57475333D01*
X54064819Y-57475333D02*
X54112438Y-57380095D01*
X54112438Y-57380095D02*
X54160057Y-57332476D01*
X54160057Y-57332476D02*
X54255295Y-57284857D01*
X54255295Y-57284857D02*
X54398152Y-57284857D01*
X54398152Y-57284857D02*
X54493390Y-57332476D01*
X54493390Y-57332476D02*
X54541009Y-57380095D01*
X54541009Y-57380095D02*
X54588628Y-57475333D01*
X54588628Y-57475333D02*
X54588628Y-57856285D01*
X54160057Y-56903904D02*
X54112438Y-56856285D01*
X54112438Y-56856285D02*
X54064819Y-56761047D01*
X54064819Y-56761047D02*
X54064819Y-56522952D01*
X54064819Y-56522952D02*
X54112438Y-56427714D01*
X54112438Y-56427714D02*
X54160057Y-56380095D01*
X54160057Y-56380095D02*
X54255295Y-56332476D01*
X54255295Y-56332476D02*
X54350533Y-56332476D01*
X54350533Y-56332476D02*
X54493390Y-56380095D01*
X54493390Y-56380095D02*
X55064819Y-56951523D01*
X55064819Y-56951523D02*
X55064819Y-56332476D01*
X54160057Y-55951523D02*
X54112438Y-55903904D01*
X54112438Y-55903904D02*
X54064819Y-55808666D01*
X54064819Y-55808666D02*
X54064819Y-55570571D01*
X54064819Y-55570571D02*
X54112438Y-55475333D01*
X54112438Y-55475333D02*
X54160057Y-55427714D01*
X54160057Y-55427714D02*
X54255295Y-55380095D01*
X54255295Y-55380095D02*
X54350533Y-55380095D01*
X54350533Y-55380095D02*
X54493390Y-55427714D01*
X54493390Y-55427714D02*
X55064819Y-55999142D01*
X55064819Y-55999142D02*
X55064819Y-55380095D01*
X79208095Y-18374819D02*
X79208095Y-19184342D01*
X79208095Y-19184342D02*
X79255714Y-19279580D01*
X79255714Y-19279580D02*
X79303333Y-19327200D01*
X79303333Y-19327200D02*
X79398571Y-19374819D01*
X79398571Y-19374819D02*
X79589047Y-19374819D01*
X79589047Y-19374819D02*
X79684285Y-19327200D01*
X79684285Y-19327200D02*
X79731904Y-19279580D01*
X79731904Y-19279580D02*
X79779523Y-19184342D01*
X79779523Y-19184342D02*
X79779523Y-18374819D01*
X80160476Y-18374819D02*
X80779523Y-18374819D01*
X80779523Y-18374819D02*
X80446190Y-18755771D01*
X80446190Y-18755771D02*
X80589047Y-18755771D01*
X80589047Y-18755771D02*
X80684285Y-18803390D01*
X80684285Y-18803390D02*
X80731904Y-18851009D01*
X80731904Y-18851009D02*
X80779523Y-18946247D01*
X80779523Y-18946247D02*
X80779523Y-19184342D01*
X80779523Y-19184342D02*
X80731904Y-19279580D01*
X80731904Y-19279580D02*
X80684285Y-19327200D01*
X80684285Y-19327200D02*
X80589047Y-19374819D01*
X80589047Y-19374819D02*
X80303333Y-19374819D01*
X80303333Y-19374819D02*
X80208095Y-19327200D01*
X80208095Y-19327200D02*
X80160476Y-19279580D01*
X43888819Y-18896666D02*
X43412628Y-19229999D01*
X43888819Y-19468094D02*
X42888819Y-19468094D01*
X42888819Y-19468094D02*
X42888819Y-19087142D01*
X42888819Y-19087142D02*
X42936438Y-18991904D01*
X42936438Y-18991904D02*
X42984057Y-18944285D01*
X42984057Y-18944285D02*
X43079295Y-18896666D01*
X43079295Y-18896666D02*
X43222152Y-18896666D01*
X43222152Y-18896666D02*
X43317390Y-18944285D01*
X43317390Y-18944285D02*
X43365009Y-18991904D01*
X43365009Y-18991904D02*
X43412628Y-19087142D01*
X43412628Y-19087142D02*
X43412628Y-19468094D01*
X42888819Y-18563332D02*
X42888819Y-17944285D01*
X42888819Y-17944285D02*
X43269771Y-18277618D01*
X43269771Y-18277618D02*
X43269771Y-18134761D01*
X43269771Y-18134761D02*
X43317390Y-18039523D01*
X43317390Y-18039523D02*
X43365009Y-17991904D01*
X43365009Y-17991904D02*
X43460247Y-17944285D01*
X43460247Y-17944285D02*
X43698342Y-17944285D01*
X43698342Y-17944285D02*
X43793580Y-17991904D01*
X43793580Y-17991904D02*
X43841200Y-18039523D01*
X43841200Y-18039523D02*
X43888819Y-18134761D01*
X43888819Y-18134761D02*
X43888819Y-18420475D01*
X43888819Y-18420475D02*
X43841200Y-18515713D01*
X43841200Y-18515713D02*
X43793580Y-18563332D01*
X69783333Y-23739580D02*
X69735714Y-23787200D01*
X69735714Y-23787200D02*
X69592857Y-23834819D01*
X69592857Y-23834819D02*
X69497619Y-23834819D01*
X69497619Y-23834819D02*
X69354762Y-23787200D01*
X69354762Y-23787200D02*
X69259524Y-23691961D01*
X69259524Y-23691961D02*
X69211905Y-23596723D01*
X69211905Y-23596723D02*
X69164286Y-23406247D01*
X69164286Y-23406247D02*
X69164286Y-23263390D01*
X69164286Y-23263390D02*
X69211905Y-23072914D01*
X69211905Y-23072914D02*
X69259524Y-22977676D01*
X69259524Y-22977676D02*
X69354762Y-22882438D01*
X69354762Y-22882438D02*
X69497619Y-22834819D01*
X69497619Y-22834819D02*
X69592857Y-22834819D01*
X69592857Y-22834819D02*
X69735714Y-22882438D01*
X69735714Y-22882438D02*
X69783333Y-22930057D01*
X70640476Y-22834819D02*
X70450000Y-22834819D01*
X70450000Y-22834819D02*
X70354762Y-22882438D01*
X70354762Y-22882438D02*
X70307143Y-22930057D01*
X70307143Y-22930057D02*
X70211905Y-23072914D01*
X70211905Y-23072914D02*
X70164286Y-23263390D01*
X70164286Y-23263390D02*
X70164286Y-23644342D01*
X70164286Y-23644342D02*
X70211905Y-23739580D01*
X70211905Y-23739580D02*
X70259524Y-23787200D01*
X70259524Y-23787200D02*
X70354762Y-23834819D01*
X70354762Y-23834819D02*
X70545238Y-23834819D01*
X70545238Y-23834819D02*
X70640476Y-23787200D01*
X70640476Y-23787200D02*
X70688095Y-23739580D01*
X70688095Y-23739580D02*
X70735714Y-23644342D01*
X70735714Y-23644342D02*
X70735714Y-23406247D01*
X70735714Y-23406247D02*
X70688095Y-23311009D01*
X70688095Y-23311009D02*
X70640476Y-23263390D01*
X70640476Y-23263390D02*
X70545238Y-23215771D01*
X70545238Y-23215771D02*
X70354762Y-23215771D01*
X70354762Y-23215771D02*
X70259524Y-23263390D01*
X70259524Y-23263390D02*
X70211905Y-23311009D01*
X70211905Y-23311009D02*
X70164286Y-23406247D01*
X64690666Y-50000819D02*
X64690666Y-50715104D01*
X64690666Y-50715104D02*
X64643047Y-50857961D01*
X64643047Y-50857961D02*
X64547809Y-50953200D01*
X64547809Y-50953200D02*
X64404952Y-51000819D01*
X64404952Y-51000819D02*
X64309714Y-51000819D01*
X65643047Y-50000819D02*
X65166857Y-50000819D01*
X65166857Y-50000819D02*
X65119238Y-50477009D01*
X65119238Y-50477009D02*
X65166857Y-50429390D01*
X65166857Y-50429390D02*
X65262095Y-50381771D01*
X65262095Y-50381771D02*
X65500190Y-50381771D01*
X65500190Y-50381771D02*
X65595428Y-50429390D01*
X65595428Y-50429390D02*
X65643047Y-50477009D01*
X65643047Y-50477009D02*
X65690666Y-50572247D01*
X65690666Y-50572247D02*
X65690666Y-50810342D01*
X65690666Y-50810342D02*
X65643047Y-50905580D01*
X65643047Y-50905580D02*
X65595428Y-50953200D01*
X65595428Y-50953200D02*
X65500190Y-51000819D01*
X65500190Y-51000819D02*
X65262095Y-51000819D01*
X65262095Y-51000819D02*
X65166857Y-50953200D01*
X65166857Y-50953200D02*
X65119238Y-50905580D01*
X85504819Y-46218094D02*
X84504819Y-46218094D01*
X84504819Y-46218094D02*
X84504819Y-45979999D01*
X84504819Y-45979999D02*
X84552438Y-45837142D01*
X84552438Y-45837142D02*
X84647676Y-45741904D01*
X84647676Y-45741904D02*
X84742914Y-45694285D01*
X84742914Y-45694285D02*
X84933390Y-45646666D01*
X84933390Y-45646666D02*
X85076247Y-45646666D01*
X85076247Y-45646666D02*
X85266723Y-45694285D01*
X85266723Y-45694285D02*
X85361961Y-45741904D01*
X85361961Y-45741904D02*
X85457200Y-45837142D01*
X85457200Y-45837142D02*
X85504819Y-45979999D01*
X85504819Y-45979999D02*
X85504819Y-46218094D01*
X84504819Y-44741904D02*
X84504819Y-45218094D01*
X84504819Y-45218094D02*
X84981009Y-45265713D01*
X84981009Y-45265713D02*
X84933390Y-45218094D01*
X84933390Y-45218094D02*
X84885771Y-45122856D01*
X84885771Y-45122856D02*
X84885771Y-44884761D01*
X84885771Y-44884761D02*
X84933390Y-44789523D01*
X84933390Y-44789523D02*
X84981009Y-44741904D01*
X84981009Y-44741904D02*
X85076247Y-44694285D01*
X85076247Y-44694285D02*
X85314342Y-44694285D01*
X85314342Y-44694285D02*
X85409580Y-44741904D01*
X85409580Y-44741904D02*
X85457200Y-44789523D01*
X85457200Y-44789523D02*
X85504819Y-44884761D01*
X85504819Y-44884761D02*
X85504819Y-45122856D01*
X85504819Y-45122856D02*
X85457200Y-45218094D01*
X85457200Y-45218094D02*
X85409580Y-45265713D01*
X93003333Y-19919580D02*
X92955714Y-19967200D01*
X92955714Y-19967200D02*
X92812857Y-20014819D01*
X92812857Y-20014819D02*
X92717619Y-20014819D01*
X92717619Y-20014819D02*
X92574762Y-19967200D01*
X92574762Y-19967200D02*
X92479524Y-19871961D01*
X92479524Y-19871961D02*
X92431905Y-19776723D01*
X92431905Y-19776723D02*
X92384286Y-19586247D01*
X92384286Y-19586247D02*
X92384286Y-19443390D01*
X92384286Y-19443390D02*
X92431905Y-19252914D01*
X92431905Y-19252914D02*
X92479524Y-19157676D01*
X92479524Y-19157676D02*
X92574762Y-19062438D01*
X92574762Y-19062438D02*
X92717619Y-19014819D01*
X92717619Y-19014819D02*
X92812857Y-19014819D01*
X92812857Y-19014819D02*
X92955714Y-19062438D01*
X92955714Y-19062438D02*
X93003333Y-19110057D01*
X93336667Y-19014819D02*
X94003333Y-19014819D01*
X94003333Y-19014819D02*
X93574762Y-20014819D01*
X38154819Y-27208094D02*
X37154819Y-27208094D01*
X37154819Y-27208094D02*
X37154819Y-26969999D01*
X37154819Y-26969999D02*
X37202438Y-26827142D01*
X37202438Y-26827142D02*
X37297676Y-26731904D01*
X37297676Y-26731904D02*
X37392914Y-26684285D01*
X37392914Y-26684285D02*
X37583390Y-26636666D01*
X37583390Y-26636666D02*
X37726247Y-26636666D01*
X37726247Y-26636666D02*
X37916723Y-26684285D01*
X37916723Y-26684285D02*
X38011961Y-26731904D01*
X38011961Y-26731904D02*
X38107200Y-26827142D01*
X38107200Y-26827142D02*
X38154819Y-26969999D01*
X38154819Y-26969999D02*
X38154819Y-27208094D01*
X38154819Y-25684285D02*
X38154819Y-26255713D01*
X38154819Y-25969999D02*
X37154819Y-25969999D01*
X37154819Y-25969999D02*
X37297676Y-26065237D01*
X37297676Y-26065237D02*
X37392914Y-26160475D01*
X37392914Y-26160475D02*
X37440533Y-26255713D01*
X29444819Y-11406666D02*
X28968628Y-11739999D01*
X29444819Y-11978094D02*
X28444819Y-11978094D01*
X28444819Y-11978094D02*
X28444819Y-11597142D01*
X28444819Y-11597142D02*
X28492438Y-11501904D01*
X28492438Y-11501904D02*
X28540057Y-11454285D01*
X28540057Y-11454285D02*
X28635295Y-11406666D01*
X28635295Y-11406666D02*
X28778152Y-11406666D01*
X28778152Y-11406666D02*
X28873390Y-11454285D01*
X28873390Y-11454285D02*
X28921009Y-11501904D01*
X28921009Y-11501904D02*
X28968628Y-11597142D01*
X28968628Y-11597142D02*
X28968628Y-11978094D01*
X28540057Y-11025713D02*
X28492438Y-10978094D01*
X28492438Y-10978094D02*
X28444819Y-10882856D01*
X28444819Y-10882856D02*
X28444819Y-10644761D01*
X28444819Y-10644761D02*
X28492438Y-10549523D01*
X28492438Y-10549523D02*
X28540057Y-10501904D01*
X28540057Y-10501904D02*
X28635295Y-10454285D01*
X28635295Y-10454285D02*
X28730533Y-10454285D01*
X28730533Y-10454285D02*
X28873390Y-10501904D01*
X28873390Y-10501904D02*
X29444819Y-11073332D01*
X29444819Y-11073332D02*
X29444819Y-10454285D01*
X36154095Y-33624819D02*
X36154095Y-34434342D01*
X36154095Y-34434342D02*
X36201714Y-34529580D01*
X36201714Y-34529580D02*
X36249333Y-34577200D01*
X36249333Y-34577200D02*
X36344571Y-34624819D01*
X36344571Y-34624819D02*
X36535047Y-34624819D01*
X36535047Y-34624819D02*
X36630285Y-34577200D01*
X36630285Y-34577200D02*
X36677904Y-34529580D01*
X36677904Y-34529580D02*
X36725523Y-34434342D01*
X36725523Y-34434342D02*
X36725523Y-33624819D01*
X37154095Y-33720057D02*
X37201714Y-33672438D01*
X37201714Y-33672438D02*
X37296952Y-33624819D01*
X37296952Y-33624819D02*
X37535047Y-33624819D01*
X37535047Y-33624819D02*
X37630285Y-33672438D01*
X37630285Y-33672438D02*
X37677904Y-33720057D01*
X37677904Y-33720057D02*
X37725523Y-33815295D01*
X37725523Y-33815295D02*
X37725523Y-33910533D01*
X37725523Y-33910533D02*
X37677904Y-34053390D01*
X37677904Y-34053390D02*
X37106476Y-34624819D01*
X37106476Y-34624819D02*
X37725523Y-34624819D01*
X85464819Y-56338094D02*
X84464819Y-56338094D01*
X84464819Y-56338094D02*
X84464819Y-56099999D01*
X84464819Y-56099999D02*
X84512438Y-55957142D01*
X84512438Y-55957142D02*
X84607676Y-55861904D01*
X84607676Y-55861904D02*
X84702914Y-55814285D01*
X84702914Y-55814285D02*
X84893390Y-55766666D01*
X84893390Y-55766666D02*
X85036247Y-55766666D01*
X85036247Y-55766666D02*
X85226723Y-55814285D01*
X85226723Y-55814285D02*
X85321961Y-55861904D01*
X85321961Y-55861904D02*
X85417200Y-55957142D01*
X85417200Y-55957142D02*
X85464819Y-56099999D01*
X85464819Y-56099999D02*
X85464819Y-56338094D01*
X84464819Y-54909523D02*
X84464819Y-55099999D01*
X84464819Y-55099999D02*
X84512438Y-55195237D01*
X84512438Y-55195237D02*
X84560057Y-55242856D01*
X84560057Y-55242856D02*
X84702914Y-55338094D01*
X84702914Y-55338094D02*
X84893390Y-55385713D01*
X84893390Y-55385713D02*
X85274342Y-55385713D01*
X85274342Y-55385713D02*
X85369580Y-55338094D01*
X85369580Y-55338094D02*
X85417200Y-55290475D01*
X85417200Y-55290475D02*
X85464819Y-55195237D01*
X85464819Y-55195237D02*
X85464819Y-55004761D01*
X85464819Y-55004761D02*
X85417200Y-54909523D01*
X85417200Y-54909523D02*
X85369580Y-54861904D01*
X85369580Y-54861904D02*
X85274342Y-54814285D01*
X85274342Y-54814285D02*
X85036247Y-54814285D01*
X85036247Y-54814285D02*
X84941009Y-54861904D01*
X84941009Y-54861904D02*
X84893390Y-54909523D01*
X84893390Y-54909523D02*
X84845771Y-55004761D01*
X84845771Y-55004761D02*
X84845771Y-55195237D01*
X84845771Y-55195237D02*
X84893390Y-55290475D01*
X84893390Y-55290475D02*
X84941009Y-55338094D01*
X84941009Y-55338094D02*
X85036247Y-55385713D01*
X57188819Y-15406666D02*
X56712628Y-15739999D01*
X57188819Y-15978094D02*
X56188819Y-15978094D01*
X56188819Y-15978094D02*
X56188819Y-15597142D01*
X56188819Y-15597142D02*
X56236438Y-15501904D01*
X56236438Y-15501904D02*
X56284057Y-15454285D01*
X56284057Y-15454285D02*
X56379295Y-15406666D01*
X56379295Y-15406666D02*
X56522152Y-15406666D01*
X56522152Y-15406666D02*
X56617390Y-15454285D01*
X56617390Y-15454285D02*
X56665009Y-15501904D01*
X56665009Y-15501904D02*
X56712628Y-15597142D01*
X56712628Y-15597142D02*
X56712628Y-15978094D01*
X56522152Y-14549523D02*
X57188819Y-14549523D01*
X56141200Y-14787618D02*
X56855485Y-15025713D01*
X56855485Y-15025713D02*
X56855485Y-14406666D01*
X53244761Y-48302057D02*
X53149523Y-48254438D01*
X53149523Y-48254438D02*
X53054285Y-48159200D01*
X53054285Y-48159200D02*
X52911428Y-48016342D01*
X52911428Y-48016342D02*
X52816190Y-47968723D01*
X52816190Y-47968723D02*
X52720952Y-47968723D01*
X52768571Y-48206819D02*
X52673333Y-48159200D01*
X52673333Y-48159200D02*
X52578095Y-48063961D01*
X52578095Y-48063961D02*
X52530476Y-47873485D01*
X52530476Y-47873485D02*
X52530476Y-47540152D01*
X52530476Y-47540152D02*
X52578095Y-47349676D01*
X52578095Y-47349676D02*
X52673333Y-47254438D01*
X52673333Y-47254438D02*
X52768571Y-47206819D01*
X52768571Y-47206819D02*
X52959047Y-47206819D01*
X52959047Y-47206819D02*
X53054285Y-47254438D01*
X53054285Y-47254438D02*
X53149523Y-47349676D01*
X53149523Y-47349676D02*
X53197142Y-47540152D01*
X53197142Y-47540152D02*
X53197142Y-47873485D01*
X53197142Y-47873485D02*
X53149523Y-48063961D01*
X53149523Y-48063961D02*
X53054285Y-48159200D01*
X53054285Y-48159200D02*
X52959047Y-48206819D01*
X52959047Y-48206819D02*
X52768571Y-48206819D01*
X53530476Y-47206819D02*
X54149523Y-47206819D01*
X54149523Y-47206819D02*
X53816190Y-47587771D01*
X53816190Y-47587771D02*
X53959047Y-47587771D01*
X53959047Y-47587771D02*
X54054285Y-47635390D01*
X54054285Y-47635390D02*
X54101904Y-47683009D01*
X54101904Y-47683009D02*
X54149523Y-47778247D01*
X54149523Y-47778247D02*
X54149523Y-48016342D01*
X54149523Y-48016342D02*
X54101904Y-48111580D01*
X54101904Y-48111580D02*
X54054285Y-48159200D01*
X54054285Y-48159200D02*
X53959047Y-48206819D01*
X53959047Y-48206819D02*
X53673333Y-48206819D01*
X53673333Y-48206819D02*
X53578095Y-48159200D01*
X53578095Y-48159200D02*
X53530476Y-48111580D01*
D11*
%TO.C,J6*%
X33163200Y-17484400D02*
X35823200Y-17484400D01*
X33163200Y-12344400D02*
X33163200Y-17484400D01*
X33163200Y-11074400D02*
X33163200Y-9744400D01*
X35823200Y-12344400D02*
X35823200Y-17484400D01*
X33163200Y-9744400D02*
X34493200Y-9744400D01*
X33163200Y-12344400D02*
X35823200Y-12344400D01*
%TO.C,C8*%
X88970000Y-17150000D02*
X88655000Y-17150000D01*
X88970000Y-17150000D02*
X88970000Y-22390000D01*
X86545000Y-17150000D02*
X86230000Y-17150000D01*
X86230000Y-17150000D02*
X86230000Y-22390000D01*
X88970000Y-22390000D02*
X88655000Y-22390000D01*
X86545000Y-22390000D02*
X86230000Y-22390000D01*
%TO.C,R1*%
X30000000Y-25540000D02*
X30000000Y-32080000D01*
X29670000Y-25540000D02*
X30000000Y-25540000D01*
X27590000Y-25540000D02*
X27260000Y-25540000D01*
X27260000Y-25540000D02*
X27260000Y-32080000D01*
X30000000Y-32080000D02*
X29670000Y-32080000D01*
X27260000Y-32080000D02*
X27590000Y-32080000D01*
%TO.C,D8*%
X34700000Y-26140000D02*
X34700000Y-26790000D01*
X35820000Y-26790000D02*
X33580000Y-26790000D01*
X33580000Y-26790000D02*
X33580000Y-31030000D01*
X35820000Y-27390000D02*
X33580000Y-27390000D01*
X35820000Y-27510000D02*
X33580000Y-27510000D01*
X35820000Y-27630000D02*
X33580000Y-27630000D01*
X35820000Y-31030000D02*
X35820000Y-26790000D01*
X33580000Y-31030000D02*
X35820000Y-31030000D01*
X34700000Y-31680000D02*
X34700000Y-31030000D01*
%TO.C,D3*%
X91748000Y-29136000D02*
X91748000Y-23696000D01*
X91878000Y-29136000D02*
X91748000Y-29136000D01*
X94558000Y-29136000D02*
X94688000Y-29136000D01*
X94688000Y-29136000D02*
X94688000Y-23696000D01*
X91748000Y-28356000D02*
X94688000Y-28356000D01*
X91748000Y-28236000D02*
X94688000Y-28236000D01*
X91748000Y-28116000D02*
X94688000Y-28116000D01*
X91748000Y-23696000D02*
X91878000Y-23696000D01*
X94688000Y-23696000D02*
X94558000Y-23696000D01*
%TO.C,R5*%
X72676000Y-35460000D02*
X79216000Y-35460000D01*
X72676000Y-35790000D02*
X72676000Y-35460000D01*
X72676000Y-37870000D02*
X72676000Y-38200000D01*
X72676000Y-38200000D02*
X79216000Y-38200000D01*
X79216000Y-35460000D02*
X79216000Y-35790000D01*
X79216000Y-38200000D02*
X79216000Y-37870000D01*
%TO.C,R21*%
X72168000Y-29110000D02*
X78708000Y-29110000D01*
X72168000Y-29440000D02*
X72168000Y-29110000D01*
X72168000Y-31520000D02*
X72168000Y-31850000D01*
X72168000Y-31850000D02*
X78708000Y-31850000D01*
X78708000Y-29110000D02*
X78708000Y-29440000D01*
X78708000Y-31850000D02*
X78708000Y-31520000D01*
%TO.C,C12*%
X44846302Y-29943000D02*
X45646302Y-29943000D01*
X45246302Y-29543000D02*
X45246302Y-30343000D01*
X49256000Y-28178000D02*
X49256000Y-36338000D01*
X49296000Y-28178000D02*
X49296000Y-36338000D01*
X49336000Y-28178000D02*
X49336000Y-36338000D01*
X49376000Y-28179000D02*
X49376000Y-36337000D01*
X49416000Y-28181000D02*
X49416000Y-36335000D01*
X49456000Y-28182000D02*
X49456000Y-36334000D01*
X49496000Y-28184000D02*
X49496000Y-31218000D01*
X49496000Y-33298000D02*
X49496000Y-36332000D01*
X49536000Y-28187000D02*
X49536000Y-31218000D01*
X49536000Y-33298000D02*
X49536000Y-36329000D01*
X49576000Y-28190000D02*
X49576000Y-31218000D01*
X49576000Y-33298000D02*
X49576000Y-36326000D01*
X49616000Y-28193000D02*
X49616000Y-31218000D01*
X49616000Y-33298000D02*
X49616000Y-36323000D01*
X49656000Y-28197000D02*
X49656000Y-31218000D01*
X49656000Y-33298000D02*
X49656000Y-36319000D01*
X49696000Y-28201000D02*
X49696000Y-31218000D01*
X49696000Y-33298000D02*
X49696000Y-36315000D01*
X49736000Y-28206000D02*
X49736000Y-31218000D01*
X49736000Y-33298000D02*
X49736000Y-36310000D01*
X49776000Y-28210000D02*
X49776000Y-31218000D01*
X49776000Y-33298000D02*
X49776000Y-36306000D01*
X49816000Y-28216000D02*
X49816000Y-31218000D01*
X49816000Y-33298000D02*
X49816000Y-36300000D01*
X49856000Y-28221000D02*
X49856000Y-31218000D01*
X49856000Y-33298000D02*
X49856000Y-36295000D01*
X49896000Y-28228000D02*
X49896000Y-31218000D01*
X49896000Y-33298000D02*
X49896000Y-36288000D01*
X49936000Y-28234000D02*
X49936000Y-31218000D01*
X49936000Y-33298000D02*
X49936000Y-36282000D01*
X49977000Y-28241000D02*
X49977000Y-31218000D01*
X49977000Y-33298000D02*
X49977000Y-36275000D01*
X50017000Y-28248000D02*
X50017000Y-31218000D01*
X50017000Y-33298000D02*
X50017000Y-36268000D01*
X50057000Y-28256000D02*
X50057000Y-31218000D01*
X50057000Y-33298000D02*
X50057000Y-36260000D01*
X50097000Y-28264000D02*
X50097000Y-31218000D01*
X50097000Y-33298000D02*
X50097000Y-36252000D01*
X50137000Y-28273000D02*
X50137000Y-31218000D01*
X50137000Y-33298000D02*
X50137000Y-36243000D01*
X50177000Y-28282000D02*
X50177000Y-31218000D01*
X50177000Y-33298000D02*
X50177000Y-36234000D01*
X50217000Y-28291000D02*
X50217000Y-31218000D01*
X50217000Y-33298000D02*
X50217000Y-36225000D01*
X50257000Y-28301000D02*
X50257000Y-31218000D01*
X50257000Y-33298000D02*
X50257000Y-36215000D01*
X50297000Y-28311000D02*
X50297000Y-31218000D01*
X50297000Y-33298000D02*
X50297000Y-36205000D01*
X50337000Y-28322000D02*
X50337000Y-31218000D01*
X50337000Y-33298000D02*
X50337000Y-36194000D01*
X50377000Y-28333000D02*
X50377000Y-31218000D01*
X50377000Y-33298000D02*
X50377000Y-36183000D01*
X50417000Y-28344000D02*
X50417000Y-31218000D01*
X50417000Y-33298000D02*
X50417000Y-36172000D01*
X50457000Y-28356000D02*
X50457000Y-31218000D01*
X50457000Y-33298000D02*
X50457000Y-36160000D01*
X50497000Y-28369000D02*
X50497000Y-31218000D01*
X50497000Y-33298000D02*
X50497000Y-36147000D01*
X50537000Y-28381000D02*
X50537000Y-31218000D01*
X50537000Y-33298000D02*
X50537000Y-36135000D01*
X50577000Y-28395000D02*
X50577000Y-31218000D01*
X50577000Y-33298000D02*
X50577000Y-36121000D01*
X50617000Y-28408000D02*
X50617000Y-31218000D01*
X50617000Y-33298000D02*
X50617000Y-36108000D01*
X50657000Y-28423000D02*
X50657000Y-31218000D01*
X50657000Y-33298000D02*
X50657000Y-36093000D01*
X50697000Y-28437000D02*
X50697000Y-31218000D01*
X50697000Y-33298000D02*
X50697000Y-36079000D01*
X50737000Y-28453000D02*
X50737000Y-31218000D01*
X50737000Y-33298000D02*
X50737000Y-36063000D01*
X50777000Y-28468000D02*
X50777000Y-31218000D01*
X50777000Y-33298000D02*
X50777000Y-36048000D01*
X50817000Y-28484000D02*
X50817000Y-31218000D01*
X50817000Y-33298000D02*
X50817000Y-36032000D01*
X50857000Y-28501000D02*
X50857000Y-31218000D01*
X50857000Y-33298000D02*
X50857000Y-36015000D01*
X50897000Y-28518000D02*
X50897000Y-31218000D01*
X50897000Y-33298000D02*
X50897000Y-35998000D01*
X50937000Y-28536000D02*
X50937000Y-31218000D01*
X50937000Y-33298000D02*
X50937000Y-35980000D01*
X50977000Y-28554000D02*
X50977000Y-31218000D01*
X50977000Y-33298000D02*
X50977000Y-35962000D01*
X51017000Y-28572000D02*
X51017000Y-31218000D01*
X51017000Y-33298000D02*
X51017000Y-35944000D01*
X51057000Y-28592000D02*
X51057000Y-31218000D01*
X51057000Y-33298000D02*
X51057000Y-35924000D01*
X51097000Y-28611000D02*
X51097000Y-31218000D01*
X51097000Y-33298000D02*
X51097000Y-35905000D01*
X51137000Y-28631000D02*
X51137000Y-31218000D01*
X51137000Y-33298000D02*
X51137000Y-35885000D01*
X51177000Y-28652000D02*
X51177000Y-31218000D01*
X51177000Y-33298000D02*
X51177000Y-35864000D01*
X51217000Y-28674000D02*
X51217000Y-31218000D01*
X51217000Y-33298000D02*
X51217000Y-35842000D01*
X51257000Y-28696000D02*
X51257000Y-31218000D01*
X51257000Y-33298000D02*
X51257000Y-35820000D01*
X51297000Y-28718000D02*
X51297000Y-31218000D01*
X51297000Y-33298000D02*
X51297000Y-35798000D01*
X51337000Y-28741000D02*
X51337000Y-31218000D01*
X51337000Y-33298000D02*
X51337000Y-35775000D01*
X51377000Y-28765000D02*
X51377000Y-31218000D01*
X51377000Y-33298000D02*
X51377000Y-35751000D01*
X51417000Y-28789000D02*
X51417000Y-31218000D01*
X51417000Y-33298000D02*
X51417000Y-35727000D01*
X51457000Y-28814000D02*
X51457000Y-31218000D01*
X51457000Y-33298000D02*
X51457000Y-35702000D01*
X51497000Y-28840000D02*
X51497000Y-31218000D01*
X51497000Y-33298000D02*
X51497000Y-35676000D01*
X51537000Y-28866000D02*
X51537000Y-31218000D01*
X51537000Y-33298000D02*
X51537000Y-35650000D01*
X51577000Y-28893000D02*
X51577000Y-35623000D01*
X51617000Y-28920000D02*
X51617000Y-35596000D01*
X51657000Y-28949000D02*
X51657000Y-35567000D01*
X51697000Y-28978000D02*
X51697000Y-35538000D01*
X51737000Y-29008000D02*
X51737000Y-35508000D01*
X51777000Y-29038000D02*
X51777000Y-35478000D01*
X51817000Y-29069000D02*
X51817000Y-35447000D01*
X51857000Y-29102000D02*
X51857000Y-35414000D01*
X51897000Y-29134000D02*
X51897000Y-35382000D01*
X51937000Y-29168000D02*
X51937000Y-35348000D01*
X51977000Y-29203000D02*
X51977000Y-35313000D01*
X52017000Y-29239000D02*
X52017000Y-35277000D01*
X52057000Y-29275000D02*
X52057000Y-35241000D01*
X52097000Y-29313000D02*
X52097000Y-35203000D01*
X52137000Y-29351000D02*
X52137000Y-35165000D01*
X52177000Y-29391000D02*
X52177000Y-35125000D01*
X52217000Y-29432000D02*
X52217000Y-35084000D01*
X52257000Y-29474000D02*
X52257000Y-35042000D01*
X52297000Y-29517000D02*
X52297000Y-34999000D01*
X52337000Y-29561000D02*
X52337000Y-34955000D01*
X52377000Y-29607000D02*
X52377000Y-34909000D01*
X52417000Y-29654000D02*
X52417000Y-34862000D01*
X52457000Y-29702000D02*
X52457000Y-34814000D01*
X52497000Y-29753000D02*
X52497000Y-34763000D01*
X52537000Y-29804000D02*
X52537000Y-34712000D01*
X52577000Y-29858000D02*
X52577000Y-34658000D01*
X52617000Y-29913000D02*
X52617000Y-34603000D01*
X52657000Y-29971000D02*
X52657000Y-34545000D01*
X52697000Y-30030000D02*
X52697000Y-34486000D01*
X52737000Y-30092000D02*
X52737000Y-34424000D01*
X52777000Y-30156000D02*
X52777000Y-34360000D01*
X52817000Y-30224000D02*
X52817000Y-34292000D01*
X52857000Y-30294000D02*
X52857000Y-34222000D01*
X52897000Y-30368000D02*
X52897000Y-34148000D01*
X52937000Y-30445000D02*
X52937000Y-34071000D01*
X52977000Y-30527000D02*
X52977000Y-33989000D01*
X53017000Y-30613000D02*
X53017000Y-33903000D01*
X53057000Y-30706000D02*
X53057000Y-33810000D01*
X53097000Y-30805000D02*
X53097000Y-33711000D01*
X53137000Y-30912000D02*
X53137000Y-33604000D01*
X53177000Y-31029000D02*
X53177000Y-33487000D01*
X53217000Y-31160000D02*
X53217000Y-33356000D01*
X53257000Y-31310000D02*
X53257000Y-33206000D01*
X53297000Y-31490000D02*
X53297000Y-33026000D01*
X53337000Y-31725000D02*
X53337000Y-32791000D01*
X53376000Y-32258000D02*
G75*
G03*
X45136000Y-32258000I-4120000J0D01*
G01*
X45136000Y-32258000D02*
G75*
G03*
X53376000Y-32258000I4120000J0D01*
G01*
%TO.C,U1*%
X4490000Y-6020000D02*
X4490000Y-6320000D01*
X4490000Y-6020000D02*
X25490000Y-6020000D01*
X4490000Y-8420000D02*
X4490000Y-8820000D01*
X4490000Y-8687000D02*
X7497000Y-8687000D01*
X4490000Y-11020000D02*
X4490000Y-11420000D01*
X4490000Y-13520000D02*
X4490000Y-13920000D01*
X4490000Y-16120000D02*
X4490000Y-16520000D01*
X4490000Y-18620000D02*
X4490000Y-19020000D01*
X4490000Y-21120000D02*
X4490000Y-21520000D01*
X4490000Y-23720000D02*
X4490000Y-24120000D01*
X4490000Y-26220000D02*
X4490000Y-26620000D01*
X4490000Y-28820000D02*
X4490000Y-29220000D01*
X4490000Y-31320000D02*
X4490000Y-31720000D01*
X4490000Y-33820000D02*
X4490000Y-34220000D01*
X4490000Y-36420000D02*
X4490000Y-36820000D01*
X4490000Y-38920000D02*
X4490000Y-39320000D01*
X4490000Y-41520000D02*
X4490000Y-41920000D01*
X4490000Y-44020000D02*
X4490000Y-44420000D01*
X4490000Y-46620000D02*
X4490000Y-47020000D01*
X4490000Y-49120000D02*
X4490000Y-49520000D01*
X4490000Y-51620000D02*
X4490000Y-52020000D01*
X4490000Y-54220000D02*
X4490000Y-54620000D01*
X7497000Y-8687000D02*
X7497000Y-6020000D01*
X11290000Y-57020000D02*
X4490000Y-57020000D01*
X13490000Y-57020000D02*
X13890000Y-57020000D01*
X16090000Y-57020000D02*
X16490000Y-57020000D01*
X25490000Y-6020000D02*
X25490000Y-6320000D01*
X25490000Y-8420000D02*
X25490000Y-8820000D01*
X25490000Y-11020000D02*
X25490000Y-11420000D01*
X25490000Y-13520000D02*
X25490000Y-13920000D01*
X25490000Y-16120000D02*
X25490000Y-16520000D01*
X25490000Y-18620000D02*
X25490000Y-19020000D01*
X25490000Y-21120000D02*
X25490000Y-21520000D01*
X25490000Y-23720000D02*
X25490000Y-24120000D01*
X25490000Y-26220000D02*
X25490000Y-26620000D01*
X25490000Y-28820000D02*
X25490000Y-29220000D01*
X25490000Y-31320000D02*
X25490000Y-31720000D01*
X25490000Y-33820000D02*
X25490000Y-34220000D01*
X25490000Y-36420000D02*
X25490000Y-36820000D01*
X25490000Y-38920000D02*
X25490000Y-39320000D01*
X25490000Y-41520000D02*
X25490000Y-41920000D01*
X25490000Y-44020000D02*
X25490000Y-44420000D01*
X25490000Y-46620000D02*
X25490000Y-47020000D01*
X25490000Y-49120000D02*
X25490000Y-49520000D01*
X25490000Y-51620000D02*
X25490000Y-52020000D01*
X25490000Y-54220000D02*
X25490000Y-54620000D01*
X25490000Y-57020000D02*
X18690000Y-57020000D01*
%TO.C,R16*%
X76290000Y-4190000D02*
X82830000Y-4190000D01*
X76290000Y-4520000D02*
X76290000Y-4190000D01*
X76290000Y-6600000D02*
X76290000Y-6930000D01*
X76290000Y-6930000D02*
X82830000Y-6930000D01*
X82830000Y-4190000D02*
X82830000Y-4520000D01*
X82830000Y-6930000D02*
X82830000Y-6600000D01*
%TO.C,C4*%
X90250000Y-47280000D02*
X90250000Y-47595000D01*
X90250000Y-47280000D02*
X95490000Y-47280000D01*
X90250000Y-49705000D02*
X90250000Y-50020000D01*
X90250000Y-50020000D02*
X95490000Y-50020000D01*
X95490000Y-47280000D02*
X95490000Y-47595000D01*
X95490000Y-49705000D02*
X95490000Y-50020000D01*
%TO.C,C11*%
X97780000Y-34644000D02*
X97780000Y-34329000D01*
X97780000Y-34644000D02*
X92540000Y-34644000D01*
X97780000Y-32219000D02*
X97780000Y-31904000D01*
X97780000Y-31904000D02*
X92540000Y-31904000D01*
X92540000Y-34644000D02*
X92540000Y-34329000D01*
X92540000Y-32219000D02*
X92540000Y-31904000D01*
%TO.C,R9*%
X54134000Y-35714000D02*
X60674000Y-35714000D01*
X54134000Y-36044000D02*
X54134000Y-35714000D01*
X54134000Y-38124000D02*
X54134000Y-38454000D01*
X54134000Y-38454000D02*
X60674000Y-38454000D01*
X60674000Y-35714000D02*
X60674000Y-36044000D01*
X60674000Y-38454000D02*
X60674000Y-38124000D01*
%TO.C,C10*%
X59282000Y-48664000D02*
X56542000Y-48664000D01*
X59282000Y-48664000D02*
X59282000Y-55904000D01*
X56542000Y-48664000D02*
X56542000Y-55904000D01*
X59282000Y-55904000D02*
X56542000Y-55904000D01*
%TO.C,D2*%
X74114000Y-52652000D02*
X74114000Y-58092000D01*
X73984000Y-52652000D02*
X74114000Y-52652000D01*
X71304000Y-52652000D02*
X71174000Y-52652000D01*
X71174000Y-52652000D02*
X71174000Y-58092000D01*
X74114000Y-53432000D02*
X71174000Y-53432000D01*
X74114000Y-53552000D02*
X71174000Y-53552000D01*
X74114000Y-53672000D02*
X71174000Y-53672000D01*
X74114000Y-58092000D02*
X73984000Y-58092000D01*
X71174000Y-58092000D02*
X71304000Y-58092000D01*
%TO.C,R13*%
X92570000Y-16250000D02*
X92570000Y-9710000D01*
X92900000Y-16250000D02*
X92570000Y-16250000D01*
X94980000Y-16250000D02*
X95310000Y-16250000D01*
X95310000Y-16250000D02*
X95310000Y-9710000D01*
X92570000Y-9710000D02*
X92900000Y-9710000D01*
X95310000Y-9710000D02*
X94980000Y-9710000D01*
%TO.C,R15*%
X86020000Y-14250000D02*
X86020000Y-7710000D01*
X86350000Y-14250000D02*
X86020000Y-14250000D01*
X88430000Y-14250000D02*
X88760000Y-14250000D01*
X88760000Y-14250000D02*
X88760000Y-7710000D01*
X86020000Y-7710000D02*
X86350000Y-7710000D01*
X88760000Y-7710000D02*
X88430000Y-7710000D01*
%TO.C,R12*%
X89430000Y-16250000D02*
X89430000Y-9710000D01*
X89760000Y-16250000D02*
X89430000Y-16250000D01*
X91840000Y-16250000D02*
X92170000Y-16250000D01*
X92170000Y-16250000D02*
X92170000Y-9710000D01*
X89430000Y-9710000D02*
X89760000Y-9710000D01*
X92170000Y-9710000D02*
X91840000Y-9710000D01*
%TO.C,J2*%
X690000Y-21420000D02*
X2020000Y-21420000D01*
X690000Y-22750000D02*
X690000Y-21420000D01*
X690000Y-24020000D02*
X690000Y-57100000D01*
X690000Y-24020000D02*
X3350000Y-24020000D01*
X690000Y-57100000D02*
X3350000Y-57100000D01*
X3350000Y-24020000D02*
X3350000Y-57100000D01*
%TO.C,Q2*%
X61096000Y-13544000D02*
X61096000Y-17394000D01*
X65395999Y-15484000D02*
G75*
G03*
X63894807Y-13127601I-2599999J0D01*
G01*
X61673955Y-13161369D02*
G75*
G03*
X61096000Y-13544000I1122045J-2322631D01*
G01*
X63894807Y-17840400D02*
G75*
G03*
X65396000Y-15484000I-1098807J2356400D01*
G01*
X61096001Y-17393999D02*
G75*
G03*
X61683736Y-17786382I1699999J1909999D01*
G01*
%TO.C,R18*%
X77824000Y-51848000D02*
X77824000Y-58388000D01*
X77494000Y-51848000D02*
X77824000Y-51848000D01*
X75414000Y-51848000D02*
X75084000Y-51848000D01*
X75084000Y-51848000D02*
X75084000Y-58388000D01*
X77824000Y-58388000D02*
X77494000Y-58388000D01*
X75084000Y-58388000D02*
X75414000Y-58388000D01*
%TO.C,R7*%
X46790000Y-25530000D02*
X46790000Y-22220000D01*
X45420000Y-22220000D02*
X48160000Y-22220000D01*
X48160000Y-22220000D02*
X48160000Y-15680000D01*
X45420000Y-15680000D02*
X45420000Y-22220000D01*
X48160000Y-15680000D02*
X45420000Y-15680000D01*
X46790000Y-12370000D02*
X46790000Y-15680000D01*
%TO.C,C9*%
X73710000Y-25560000D02*
X73710000Y-25875000D01*
X73710000Y-25560000D02*
X78950000Y-25560000D01*
X73710000Y-27985000D02*
X73710000Y-28300000D01*
X73710000Y-28300000D02*
X78950000Y-28300000D01*
X78950000Y-25560000D02*
X78950000Y-25875000D01*
X78950000Y-27985000D02*
X78950000Y-28300000D01*
%TO.C,R17*%
X94890000Y-40150000D02*
X88350000Y-40150000D01*
X94890000Y-39820000D02*
X94890000Y-40150000D01*
X94890000Y-37740000D02*
X94890000Y-37410000D01*
X94890000Y-37410000D02*
X88350000Y-37410000D01*
X88350000Y-40150000D02*
X88350000Y-39820000D01*
X88350000Y-37410000D02*
X88350000Y-37740000D01*
%TO.C,C2*%
X33324775Y-41845000D02*
X32824775Y-41845000D01*
X33074775Y-42095000D02*
X33074775Y-41595000D01*
X30520000Y-42950000D02*
X30520000Y-41410000D01*
X30520000Y-39330000D02*
X30520000Y-37790000D01*
X30480000Y-42950000D02*
X30480000Y-41410000D01*
X30480000Y-39330000D02*
X30480000Y-37790000D01*
X30440000Y-42949000D02*
X30440000Y-41410000D01*
X30440000Y-39330000D02*
X30440000Y-37791000D01*
X30400000Y-42948000D02*
X30400000Y-41410000D01*
X30400000Y-39330000D02*
X30400000Y-37792000D01*
X30360000Y-42946000D02*
X30360000Y-41410000D01*
X30360000Y-39330000D02*
X30360000Y-37794000D01*
X30320000Y-42943000D02*
X30320000Y-41410000D01*
X30320000Y-39330000D02*
X30320000Y-37797000D01*
X30280000Y-42939000D02*
X30280000Y-41410000D01*
X30280000Y-39330000D02*
X30280000Y-37801000D01*
X30240000Y-42935000D02*
X30240000Y-41410000D01*
X30240000Y-39330000D02*
X30240000Y-37805000D01*
X30200000Y-42931000D02*
X30200000Y-41410000D01*
X30200000Y-39330000D02*
X30200000Y-37809000D01*
X30160000Y-42926000D02*
X30160000Y-41410000D01*
X30160000Y-39330000D02*
X30160000Y-37814000D01*
X30120000Y-42920000D02*
X30120000Y-41410000D01*
X30120000Y-39330000D02*
X30120000Y-37820000D01*
X30080000Y-42913000D02*
X30080000Y-41410000D01*
X30080000Y-39330000D02*
X30080000Y-37827000D01*
X30040000Y-42906000D02*
X30040000Y-41410000D01*
X30040000Y-39330000D02*
X30040000Y-37834000D01*
X30000000Y-42898000D02*
X30000000Y-41410000D01*
X30000000Y-39330000D02*
X30000000Y-37842000D01*
X29960000Y-42890000D02*
X29960000Y-41410000D01*
X29960000Y-39330000D02*
X29960000Y-37850000D01*
X29920000Y-42881000D02*
X29920000Y-41410000D01*
X29920000Y-39330000D02*
X29920000Y-37859000D01*
X29880000Y-42871000D02*
X29880000Y-41410000D01*
X29880000Y-39330000D02*
X29880000Y-37869000D01*
X29840000Y-42861000D02*
X29840000Y-41410000D01*
X29840000Y-39330000D02*
X29840000Y-37879000D01*
X29799000Y-42850000D02*
X29799000Y-41410000D01*
X29799000Y-39330000D02*
X29799000Y-37890000D01*
X29759000Y-42838000D02*
X29759000Y-41410000D01*
X29759000Y-39330000D02*
X29759000Y-37902000D01*
X29719000Y-42825000D02*
X29719000Y-41410000D01*
X29719000Y-39330000D02*
X29719000Y-37915000D01*
X29679000Y-42812000D02*
X29679000Y-41410000D01*
X29679000Y-39330000D02*
X29679000Y-37928000D01*
X29639000Y-42798000D02*
X29639000Y-41410000D01*
X29639000Y-39330000D02*
X29639000Y-37942000D01*
X29599000Y-42784000D02*
X29599000Y-41410000D01*
X29599000Y-39330000D02*
X29599000Y-37956000D01*
X29559000Y-42768000D02*
X29559000Y-41410000D01*
X29559000Y-39330000D02*
X29559000Y-37972000D01*
X29519000Y-42752000D02*
X29519000Y-41410000D01*
X29519000Y-39330000D02*
X29519000Y-37988000D01*
X29479000Y-42735000D02*
X29479000Y-41410000D01*
X29479000Y-39330000D02*
X29479000Y-38005000D01*
X29439000Y-42718000D02*
X29439000Y-41410000D01*
X29439000Y-39330000D02*
X29439000Y-38022000D01*
X29399000Y-42699000D02*
X29399000Y-41410000D01*
X29399000Y-39330000D02*
X29399000Y-38041000D01*
X29359000Y-42680000D02*
X29359000Y-41410000D01*
X29359000Y-39330000D02*
X29359000Y-38060000D01*
X29319000Y-42660000D02*
X29319000Y-41410000D01*
X29319000Y-39330000D02*
X29319000Y-38080000D01*
X29279000Y-42638000D02*
X29279000Y-41410000D01*
X29279000Y-39330000D02*
X29279000Y-38102000D01*
X29239000Y-42617000D02*
X29239000Y-41410000D01*
X29239000Y-39330000D02*
X29239000Y-38123000D01*
X29199000Y-42594000D02*
X29199000Y-41410000D01*
X29199000Y-39330000D02*
X29199000Y-38146000D01*
X29159000Y-42570000D02*
X29159000Y-41410000D01*
X29159000Y-39330000D02*
X29159000Y-38170000D01*
X29119000Y-42545000D02*
X29119000Y-41410000D01*
X29119000Y-39330000D02*
X29119000Y-38195000D01*
X29079000Y-42519000D02*
X29079000Y-41410000D01*
X29079000Y-39330000D02*
X29079000Y-38221000D01*
X29039000Y-42492000D02*
X29039000Y-41410000D01*
X29039000Y-39330000D02*
X29039000Y-38248000D01*
X28999000Y-42465000D02*
X28999000Y-41410000D01*
X28999000Y-39330000D02*
X28999000Y-38275000D01*
X28959000Y-42435000D02*
X28959000Y-41410000D01*
X28959000Y-39330000D02*
X28959000Y-38305000D01*
X28919000Y-42405000D02*
X28919000Y-41410000D01*
X28919000Y-39330000D02*
X28919000Y-38335000D01*
X28879000Y-42374000D02*
X28879000Y-41410000D01*
X28879000Y-39330000D02*
X28879000Y-38366000D01*
X28839000Y-42341000D02*
X28839000Y-41410000D01*
X28839000Y-39330000D02*
X28839000Y-38399000D01*
X28799000Y-42307000D02*
X28799000Y-41410000D01*
X28799000Y-39330000D02*
X28799000Y-38433000D01*
X28759000Y-42271000D02*
X28759000Y-41410000D01*
X28759000Y-39330000D02*
X28759000Y-38469000D01*
X28719000Y-42234000D02*
X28719000Y-41410000D01*
X28719000Y-39330000D02*
X28719000Y-38506000D01*
X28679000Y-42196000D02*
X28679000Y-41410000D01*
X28679000Y-39330000D02*
X28679000Y-38544000D01*
X28639000Y-42155000D02*
X28639000Y-41410000D01*
X28639000Y-39330000D02*
X28639000Y-38585000D01*
X28599000Y-42113000D02*
X28599000Y-41410000D01*
X28599000Y-39330000D02*
X28599000Y-38627000D01*
X28559000Y-42069000D02*
X28559000Y-41410000D01*
X28559000Y-39330000D02*
X28559000Y-38671000D01*
X28519000Y-42023000D02*
X28519000Y-41410000D01*
X28519000Y-39330000D02*
X28519000Y-38717000D01*
X28479000Y-41975000D02*
X28479000Y-38765000D01*
X28439000Y-41924000D02*
X28439000Y-38816000D01*
X28399000Y-41870000D02*
X28399000Y-38870000D01*
X28359000Y-41813000D02*
X28359000Y-38927000D01*
X28319000Y-41753000D02*
X28319000Y-38987000D01*
X28279000Y-41689000D02*
X28279000Y-39051000D01*
X28239000Y-41621000D02*
X28239000Y-39119000D01*
X28199000Y-41548000D02*
X28199000Y-39192000D01*
X28159000Y-41468000D02*
X28159000Y-39272000D01*
X28119000Y-41381000D02*
X28119000Y-39359000D01*
X28079000Y-41285000D02*
X28079000Y-39455000D01*
X28039000Y-41175000D02*
X28039000Y-39565000D01*
X27999000Y-41047000D02*
X27999000Y-39693000D01*
X27959000Y-40888000D02*
X27959000Y-39852000D01*
X27919000Y-40654000D02*
X27919000Y-40086000D01*
X33140000Y-40370000D02*
G75*
G03*
X27900000Y-40370000I-2620000J0D01*
G01*
X27900000Y-40370000D02*
G75*
G03*
X33140000Y-40370000I2620000J0D01*
G01*
%TO.C,J4*%
X41320000Y-64640000D02*
X41320000Y-49940000D01*
X50520000Y-64640000D02*
X41320000Y-64640000D01*
X50520000Y-55840000D02*
X50520000Y-64640000D01*
X41120000Y-50790000D02*
X41120000Y-49740000D01*
X41320000Y-49940000D02*
X43920000Y-49940000D01*
X47820000Y-49940000D02*
X50520000Y-49940000D01*
X50520000Y-49940000D02*
X50520000Y-51840000D01*
X42170000Y-49740000D02*
X41120000Y-49740000D01*
%TO.C,D4*%
X83132000Y-31804000D02*
X88572000Y-31804000D01*
X83132000Y-31934000D02*
X83132000Y-31804000D01*
X83132000Y-34614000D02*
X83132000Y-34744000D01*
X83132000Y-34744000D02*
X88572000Y-34744000D01*
X83912000Y-31804000D02*
X83912000Y-34744000D01*
X84032000Y-31804000D02*
X84032000Y-34744000D01*
X84152000Y-31804000D02*
X84152000Y-34744000D01*
X88572000Y-31804000D02*
X88572000Y-31934000D01*
X88572000Y-34744000D02*
X88572000Y-34614000D01*
%TO.C,R11*%
X75860000Y-23310000D02*
X76630000Y-23310000D01*
X76630000Y-21940000D02*
X76630000Y-24680000D01*
X76630000Y-24680000D02*
X83170000Y-24680000D01*
X83170000Y-21940000D02*
X76630000Y-21940000D01*
X83170000Y-24680000D02*
X83170000Y-21940000D01*
X83940000Y-23310000D02*
X83170000Y-23310000D01*
%TO.C,Q1*%
X51146000Y-26084000D02*
X54996000Y-26084000D01*
X53086000Y-21784001D02*
G75*
G03*
X50729601Y-23285193I0J-2599999D01*
G01*
X50763369Y-25506045D02*
G75*
G03*
X51146000Y-26084000I2322631J1122045D01*
G01*
X55442400Y-23285193D02*
G75*
G03*
X53086000Y-21784000I-2356400J-1098807D01*
G01*
X54995999Y-26083999D02*
G75*
G03*
X55388382Y-25496264I-1909999J1699999D01*
G01*
%TO.C,C3*%
X90310000Y-43890000D02*
X90310000Y-44205000D01*
X90310000Y-43890000D02*
X95550000Y-43890000D01*
X90310000Y-46315000D02*
X90310000Y-46630000D01*
X90310000Y-46630000D02*
X95550000Y-46630000D01*
X95550000Y-43890000D02*
X95550000Y-44205000D01*
X95550000Y-46315000D02*
X95550000Y-46630000D01*
%TO.C,J3*%
X87360000Y-50915000D02*
X87360000Y-58535000D01*
X87360000Y-58535000D02*
X97520000Y-58535000D01*
X97520000Y-50915000D02*
X87360000Y-50915000D01*
X97520000Y-57265000D02*
X87360000Y-57265000D01*
X97520000Y-58535000D02*
X97520000Y-50915000D01*
%TO.C,C5*%
X74210000Y-11700000D02*
X73895000Y-11700000D01*
X74210000Y-11700000D02*
X74210000Y-16940000D01*
X71785000Y-11700000D02*
X71470000Y-11700000D01*
X71470000Y-11700000D02*
X71470000Y-16940000D01*
X74210000Y-16940000D02*
X73895000Y-16940000D01*
X71785000Y-16940000D02*
X71470000Y-16940000D01*
%TO.C,D9*%
X94464000Y-42164000D02*
X93814000Y-42164000D01*
X93814000Y-43284000D02*
X93814000Y-41044000D01*
X93814000Y-41044000D02*
X89574000Y-41044000D01*
X93214000Y-43284000D02*
X93214000Y-41044000D01*
X93094000Y-43284000D02*
X93094000Y-41044000D01*
X92974000Y-43284000D02*
X92974000Y-41044000D01*
X89574000Y-43284000D02*
X93814000Y-43284000D01*
X89574000Y-41044000D02*
X89574000Y-43284000D01*
X88924000Y-42164000D02*
X89574000Y-42164000D01*
%TO.C,J1*%
X27460000Y-50010000D02*
X27460000Y-57630000D01*
X27460000Y-57630000D02*
X37620000Y-57630000D01*
X37620000Y-50010000D02*
X27460000Y-50010000D01*
X37620000Y-56360000D02*
X27460000Y-56360000D01*
X37620000Y-57630000D02*
X37620000Y-50010000D01*
%TO.C,R6*%
X76975000Y-48470000D02*
X62435000Y-48470000D01*
X76975000Y-47140000D02*
X76975000Y-48470000D01*
X76975000Y-43860000D02*
X76975000Y-42530000D01*
X76975000Y-42530000D02*
X62435000Y-42530000D01*
X62435000Y-48470000D02*
X62435000Y-47140000D01*
X62435000Y-42530000D02*
X62435000Y-43860000D01*
%TO.C,R19*%
X86170000Y-2850000D02*
X92710000Y-2850000D01*
X86170000Y-3180000D02*
X86170000Y-2850000D01*
X86170000Y-5260000D02*
X86170000Y-5590000D01*
X86170000Y-5590000D02*
X92710000Y-5590000D01*
X92710000Y-2850000D02*
X92710000Y-3180000D01*
X92710000Y-5590000D02*
X92710000Y-5260000D01*
%TO.C,C1*%
X33464775Y-47915000D02*
X32964775Y-47915000D01*
X33214775Y-48165000D02*
X33214775Y-47665000D01*
X30660000Y-49020000D02*
X30660000Y-47480000D01*
X30660000Y-45400000D02*
X30660000Y-43860000D01*
X30620000Y-49020000D02*
X30620000Y-47480000D01*
X30620000Y-45400000D02*
X30620000Y-43860000D01*
X30580000Y-49019000D02*
X30580000Y-47480000D01*
X30580000Y-45400000D02*
X30580000Y-43861000D01*
X30540000Y-49018000D02*
X30540000Y-47480000D01*
X30540000Y-45400000D02*
X30540000Y-43862000D01*
X30500000Y-49016000D02*
X30500000Y-47480000D01*
X30500000Y-45400000D02*
X30500000Y-43864000D01*
X30460000Y-49013000D02*
X30460000Y-47480000D01*
X30460000Y-45400000D02*
X30460000Y-43867000D01*
X30420000Y-49009000D02*
X30420000Y-47480000D01*
X30420000Y-45400000D02*
X30420000Y-43871000D01*
X30380000Y-49005000D02*
X30380000Y-47480000D01*
X30380000Y-45400000D02*
X30380000Y-43875000D01*
X30340000Y-49001000D02*
X30340000Y-47480000D01*
X30340000Y-45400000D02*
X30340000Y-43879000D01*
X30300000Y-48996000D02*
X30300000Y-47480000D01*
X30300000Y-45400000D02*
X30300000Y-43884000D01*
X30260000Y-48990000D02*
X30260000Y-47480000D01*
X30260000Y-45400000D02*
X30260000Y-43890000D01*
X30220000Y-48983000D02*
X30220000Y-47480000D01*
X30220000Y-45400000D02*
X30220000Y-43897000D01*
X30180000Y-48976000D02*
X30180000Y-47480000D01*
X30180000Y-45400000D02*
X30180000Y-43904000D01*
X30140000Y-48968000D02*
X30140000Y-47480000D01*
X30140000Y-45400000D02*
X30140000Y-43912000D01*
X30100000Y-48960000D02*
X30100000Y-47480000D01*
X30100000Y-45400000D02*
X30100000Y-43920000D01*
X30060000Y-48951000D02*
X30060000Y-47480000D01*
X30060000Y-45400000D02*
X30060000Y-43929000D01*
X30020000Y-48941000D02*
X30020000Y-47480000D01*
X30020000Y-45400000D02*
X30020000Y-43939000D01*
X29980000Y-48931000D02*
X29980000Y-47480000D01*
X29980000Y-45400000D02*
X29980000Y-43949000D01*
X29939000Y-48920000D02*
X29939000Y-47480000D01*
X29939000Y-45400000D02*
X29939000Y-43960000D01*
X29899000Y-48908000D02*
X29899000Y-47480000D01*
X29899000Y-45400000D02*
X29899000Y-43972000D01*
X29859000Y-48895000D02*
X29859000Y-47480000D01*
X29859000Y-45400000D02*
X29859000Y-43985000D01*
X29819000Y-48882000D02*
X29819000Y-47480000D01*
X29819000Y-45400000D02*
X29819000Y-43998000D01*
X29779000Y-48868000D02*
X29779000Y-47480000D01*
X29779000Y-45400000D02*
X29779000Y-44012000D01*
X29739000Y-48854000D02*
X29739000Y-47480000D01*
X29739000Y-45400000D02*
X29739000Y-44026000D01*
X29699000Y-48838000D02*
X29699000Y-47480000D01*
X29699000Y-45400000D02*
X29699000Y-44042000D01*
X29659000Y-48822000D02*
X29659000Y-47480000D01*
X29659000Y-45400000D02*
X29659000Y-44058000D01*
X29619000Y-48805000D02*
X29619000Y-47480000D01*
X29619000Y-45400000D02*
X29619000Y-44075000D01*
X29579000Y-48788000D02*
X29579000Y-47480000D01*
X29579000Y-45400000D02*
X29579000Y-44092000D01*
X29539000Y-48769000D02*
X29539000Y-47480000D01*
X29539000Y-45400000D02*
X29539000Y-44111000D01*
X29499000Y-48750000D02*
X29499000Y-47480000D01*
X29499000Y-45400000D02*
X29499000Y-44130000D01*
X29459000Y-48730000D02*
X29459000Y-47480000D01*
X29459000Y-45400000D02*
X29459000Y-44150000D01*
X29419000Y-48708000D02*
X29419000Y-47480000D01*
X29419000Y-45400000D02*
X29419000Y-44172000D01*
X29379000Y-48687000D02*
X29379000Y-47480000D01*
X29379000Y-45400000D02*
X29379000Y-44193000D01*
X29339000Y-48664000D02*
X29339000Y-47480000D01*
X29339000Y-45400000D02*
X29339000Y-44216000D01*
X29299000Y-48640000D02*
X29299000Y-47480000D01*
X29299000Y-45400000D02*
X29299000Y-44240000D01*
X29259000Y-48615000D02*
X29259000Y-47480000D01*
X29259000Y-45400000D02*
X29259000Y-44265000D01*
X29219000Y-48589000D02*
X29219000Y-47480000D01*
X29219000Y-45400000D02*
X29219000Y-44291000D01*
X29179000Y-48562000D02*
X29179000Y-47480000D01*
X29179000Y-45400000D02*
X29179000Y-44318000D01*
X29139000Y-48535000D02*
X29139000Y-47480000D01*
X29139000Y-45400000D02*
X29139000Y-44345000D01*
X29099000Y-48505000D02*
X29099000Y-47480000D01*
X29099000Y-45400000D02*
X29099000Y-44375000D01*
X29059000Y-48475000D02*
X29059000Y-47480000D01*
X29059000Y-45400000D02*
X29059000Y-44405000D01*
X29019000Y-48444000D02*
X29019000Y-47480000D01*
X29019000Y-45400000D02*
X29019000Y-44436000D01*
X28979000Y-48411000D02*
X28979000Y-47480000D01*
X28979000Y-45400000D02*
X28979000Y-44469000D01*
X28939000Y-48377000D02*
X28939000Y-47480000D01*
X28939000Y-45400000D02*
X28939000Y-44503000D01*
X28899000Y-48341000D02*
X28899000Y-47480000D01*
X28899000Y-45400000D02*
X28899000Y-44539000D01*
X28859000Y-48304000D02*
X28859000Y-47480000D01*
X28859000Y-45400000D02*
X28859000Y-44576000D01*
X28819000Y-48266000D02*
X28819000Y-47480000D01*
X28819000Y-45400000D02*
X28819000Y-44614000D01*
X28779000Y-48225000D02*
X28779000Y-47480000D01*
X28779000Y-45400000D02*
X28779000Y-44655000D01*
X28739000Y-48183000D02*
X28739000Y-47480000D01*
X28739000Y-45400000D02*
X28739000Y-44697000D01*
X28699000Y-48139000D02*
X28699000Y-47480000D01*
X28699000Y-45400000D02*
X28699000Y-44741000D01*
X28659000Y-48093000D02*
X28659000Y-47480000D01*
X28659000Y-45400000D02*
X28659000Y-44787000D01*
X28619000Y-48045000D02*
X28619000Y-44835000D01*
X28579000Y-47994000D02*
X28579000Y-44886000D01*
X28539000Y-47940000D02*
X28539000Y-44940000D01*
X28499000Y-47883000D02*
X28499000Y-44997000D01*
X28459000Y-47823000D02*
X28459000Y-45057000D01*
X28419000Y-47759000D02*
X28419000Y-45121000D01*
X28379000Y-47691000D02*
X28379000Y-45189000D01*
X28339000Y-47618000D02*
X28339000Y-45262000D01*
X28299000Y-47538000D02*
X28299000Y-45342000D01*
X28259000Y-47451000D02*
X28259000Y-45429000D01*
X28219000Y-47355000D02*
X28219000Y-45525000D01*
X28179000Y-47245000D02*
X28179000Y-45635000D01*
X28139000Y-47117000D02*
X28139000Y-45763000D01*
X28099000Y-46958000D02*
X28099000Y-45922000D01*
X28059000Y-46724000D02*
X28059000Y-46156000D01*
X33280000Y-46440000D02*
G75*
G03*
X28040000Y-46440000I-2620000J0D01*
G01*
X28040000Y-46440000D02*
G75*
G03*
X33280000Y-46440000I2620000J0D01*
G01*
%TO.C,R14*%
X89884000Y-28040000D02*
X83344000Y-28040000D01*
X89884000Y-27710000D02*
X89884000Y-28040000D01*
X89884000Y-25630000D02*
X89884000Y-25300000D01*
X89884000Y-25300000D02*
X83344000Y-25300000D01*
X83344000Y-28040000D02*
X83344000Y-27710000D01*
X83344000Y-25300000D02*
X83344000Y-25630000D01*
%TO.C,R8*%
X59590000Y-28416000D02*
X59590000Y-21876000D01*
X59920000Y-28416000D02*
X59590000Y-28416000D01*
X62000000Y-28416000D02*
X62330000Y-28416000D01*
X62330000Y-28416000D02*
X62330000Y-21876000D01*
X59590000Y-21876000D02*
X59920000Y-21876000D01*
X62330000Y-21876000D02*
X62000000Y-21876000D01*
%TO.C,R10*%
X47370000Y-38730000D02*
X47370000Y-45270000D01*
X47040000Y-38730000D02*
X47370000Y-38730000D01*
X44960000Y-38730000D02*
X44630000Y-38730000D01*
X44630000Y-38730000D02*
X44630000Y-45270000D01*
X47370000Y-45270000D02*
X47040000Y-45270000D01*
X44630000Y-45270000D02*
X44960000Y-45270000D01*
%TO.C,R20*%
X72866000Y-6958000D02*
X66326000Y-6958000D01*
X72866000Y-6628000D02*
X72866000Y-6958000D01*
X72866000Y-4548000D02*
X72866000Y-4218000D01*
X72866000Y-4218000D02*
X66326000Y-4218000D01*
X66326000Y-6958000D02*
X66326000Y-6628000D01*
X66326000Y-4218000D02*
X66326000Y-4548000D01*
%TO.C,Q4*%
X63070000Y-32858000D02*
X63070000Y-36708000D01*
X67369999Y-34798000D02*
G75*
G03*
X65868807Y-32441601I-2599999J0D01*
G01*
X63647955Y-32475369D02*
G75*
G03*
X63070000Y-32858000I1122045J-2322631D01*
G01*
X65868807Y-37154400D02*
G75*
G03*
X67370000Y-34798000I-1098807J2356400D01*
G01*
X63070001Y-36707999D02*
G75*
G03*
X63657736Y-37100382I1699999J1909999D01*
G01*
%TO.C,D7*%
X31900000Y-23340000D02*
X31900000Y-23990000D01*
X33020000Y-23990000D02*
X30780000Y-23990000D01*
X30780000Y-23990000D02*
X30780000Y-28230000D01*
X33020000Y-24590000D02*
X30780000Y-24590000D01*
X33020000Y-24710000D02*
X30780000Y-24710000D01*
X33020000Y-24830000D02*
X30780000Y-24830000D01*
X33020000Y-28230000D02*
X33020000Y-23990000D01*
X30780000Y-28230000D02*
X33020000Y-28230000D01*
X31900000Y-28880000D02*
X31900000Y-28230000D01*
%TO.C,R22*%
X55980000Y-53372000D02*
X55980000Y-59912000D01*
X55650000Y-53372000D02*
X55980000Y-53372000D01*
X53570000Y-53372000D02*
X53240000Y-53372000D01*
X53240000Y-53372000D02*
X53240000Y-59912000D01*
X55980000Y-59912000D02*
X55650000Y-59912000D01*
X53240000Y-59912000D02*
X53570000Y-59912000D01*
%TO.C,U3*%
X74740000Y-17890000D02*
X85140000Y-17890000D01*
X85140000Y-17890000D02*
X85140000Y-7610000D01*
X74800000Y-15400000D02*
X85080000Y-15400000D01*
X85080000Y-15400000D02*
X85080000Y-10100000D01*
X74800000Y-13750000D02*
X74800000Y-15400000D01*
X74800000Y-10100000D02*
X74800000Y-11750000D01*
X85080000Y-10100000D02*
X74800000Y-10100000D01*
X74740000Y-7610000D02*
X74740000Y-17890000D01*
X85140000Y-7610000D02*
X74740000Y-7610000D01*
X74800000Y-13750000D02*
G75*
G03*
X74800000Y-11750000I0J1000000D01*
G01*
%TO.C,R3*%
X43500000Y-12150000D02*
X43500000Y-15460000D01*
X44870000Y-15460000D02*
X42130000Y-15460000D01*
X42130000Y-15460000D02*
X42130000Y-22000000D01*
X44870000Y-22000000D02*
X44870000Y-15460000D01*
X42130000Y-22000000D02*
X44870000Y-22000000D01*
X43500000Y-25310000D02*
X43500000Y-22000000D01*
%TO.C,C6*%
X67320000Y-22000000D02*
X67320000Y-22315000D01*
X67320000Y-22000000D02*
X72560000Y-22000000D01*
X67320000Y-24425000D02*
X67320000Y-24740000D01*
X67320000Y-24740000D02*
X72560000Y-24740000D01*
X72560000Y-22000000D02*
X72560000Y-22315000D01*
X72560000Y-24425000D02*
X72560000Y-24740000D01*
%TO.C,J5*%
X70104000Y-59182000D02*
X70104000Y-51562000D01*
X70104000Y-51562000D02*
X59944000Y-51562000D01*
X59944000Y-59182000D02*
X70104000Y-59182000D01*
X59944000Y-52832000D02*
X70104000Y-52832000D01*
X59944000Y-51562000D02*
X59944000Y-59182000D01*
%TO.C,D5*%
X85090000Y-42442000D02*
X85090000Y-43092000D01*
X86210000Y-43092000D02*
X83970000Y-43092000D01*
X83970000Y-43092000D02*
X83970000Y-47332000D01*
X86210000Y-43692000D02*
X83970000Y-43692000D01*
X86210000Y-43812000D02*
X83970000Y-43812000D01*
X86210000Y-43932000D02*
X83970000Y-43932000D01*
X86210000Y-47332000D02*
X86210000Y-43092000D01*
X83970000Y-47332000D02*
X86210000Y-47332000D01*
X85090000Y-47982000D02*
X85090000Y-47332000D01*
%TO.C,C7*%
X95830000Y-20910000D02*
X95830000Y-20595000D01*
X95830000Y-20910000D02*
X90590000Y-20910000D01*
X95830000Y-18485000D02*
X95830000Y-18170000D01*
X95830000Y-18170000D02*
X90590000Y-18170000D01*
X90590000Y-20910000D02*
X90590000Y-20595000D01*
X90590000Y-18485000D02*
X90590000Y-18170000D01*
%TO.C,D1*%
X37750000Y-21090000D02*
X37750000Y-23380000D01*
X39220000Y-23380000D02*
X36280000Y-23380000D01*
X36280000Y-23380000D02*
X36280000Y-28820000D01*
X39220000Y-24160000D02*
X36280000Y-24160000D01*
X39220000Y-24280000D02*
X36280000Y-24280000D01*
X39220000Y-24400000D02*
X36280000Y-24400000D01*
X39220000Y-28820000D02*
X39220000Y-23380000D01*
X36280000Y-28820000D02*
X39220000Y-28820000D01*
X37750000Y-31110000D02*
X37750000Y-28820000D01*
%TO.C,R2*%
X30360000Y-7970000D02*
X30360000Y-14510000D01*
X30030000Y-7970000D02*
X30360000Y-7970000D01*
X27950000Y-7970000D02*
X27620000Y-7970000D01*
X27620000Y-7970000D02*
X27620000Y-14510000D01*
X30360000Y-14510000D02*
X30030000Y-14510000D01*
X27620000Y-14510000D02*
X27950000Y-14510000D01*
%TO.C,U2*%
X34576000Y-45360000D02*
X39217000Y-45360000D01*
X34576000Y-45360000D02*
X34576000Y-35120000D01*
X36086000Y-45360000D02*
X36086000Y-35120000D01*
X39217000Y-45360000D02*
X39217000Y-35120000D01*
X34576000Y-42090000D02*
X36086000Y-42090000D01*
X34576000Y-38389000D02*
X36086000Y-38389000D01*
X34576000Y-35120000D02*
X39217000Y-35120000D01*
%TO.C,D6*%
X85090000Y-52602000D02*
X85090000Y-53252000D01*
X86210000Y-53252000D02*
X83970000Y-53252000D01*
X83970000Y-53252000D02*
X83970000Y-57492000D01*
X86210000Y-53852000D02*
X83970000Y-53852000D01*
X86210000Y-53972000D02*
X83970000Y-53972000D01*
X86210000Y-54092000D02*
X83970000Y-54092000D01*
X86210000Y-57492000D02*
X86210000Y-53252000D01*
X83970000Y-57492000D02*
X86210000Y-57492000D01*
X85090000Y-58142000D02*
X85090000Y-57492000D01*
%TO.C,R4*%
X58012000Y-11970000D02*
X58012000Y-18510000D01*
X57682000Y-11970000D02*
X58012000Y-11970000D01*
X55602000Y-11970000D02*
X55272000Y-11970000D01*
X55272000Y-11970000D02*
X55272000Y-18510000D01*
X58012000Y-18510000D02*
X57682000Y-18510000D01*
X55272000Y-18510000D02*
X55602000Y-18510000D01*
%TO.C,Q3*%
X48420000Y-41730000D02*
X48420000Y-46371000D01*
X48420000Y-41730000D02*
X58660000Y-41730000D01*
X48420000Y-43240000D02*
X58660000Y-43240000D01*
X48420000Y-46371000D02*
X58660000Y-46371000D01*
X51690000Y-41730000D02*
X51690000Y-43240000D01*
X55391000Y-41730000D02*
X55391000Y-43240000D01*
X58660000Y-41730000D02*
X58660000Y-46371000D01*
%TD*%
M02*
