%TF.GenerationSoftware,KiCad,Pcbnew,7.0.11+dfsg-1build4*%
%TF.CreationDate,2026-06-21T13:32:12-05:00*%
%TF.ProjectId,Synchronizer,53796e63-6872-46f6-9e69-7a65722e6b69,rev?*%
%TF.SameCoordinates,Original*%
%TF.FileFunction,Soldermask,Top*%
%TF.FilePolarity,Negative*%
%FSLAX46Y46*%
G04 Gerber Fmt 4.6, Leading zero omitted, Abs format (unit mm)*
G04 Created by KiCad (PCBNEW 7.0.11+dfsg-1build4) date 2026-06-21 13:32:12*
%MOMM*%
%LPD*%
G01*
G04 APERTURE LIST*
G04 Aperture macros list*
%AMRoundRect*
0 Rectangle with rounded corners*
0 $1 Rounding radius*
0 $2 $3 $4 $5 $6 $7 $8 $9 X,Y pos of 4 corners*
0 Add a 4 corners polygon primitive as box body*
4,1,4,$2,$3,$4,$5,$6,$7,$8,$9,$2,$3,0*
0 Add four circle primitives for the rounded corners*
1,1,$1+$1,$2,$3*
1,1,$1+$1,$4,$5*
1,1,$1+$1,$6,$7*
1,1,$1+$1,$8,$9*
0 Add four rect primitives between the rounded corners*
20,1,$1+$1,$2,$3,$4,$5,0*
20,1,$1+$1,$4,$5,$6,$7,0*
20,1,$1+$1,$6,$7,$8,$9,0*
20,1,$1+$1,$8,$9,$2,$3,0*%
G04 Aperture macros list end*
%ADD10C,1.600000*%
%ADD11O,1.600000X1.600000*%
%ADD12R,1.600000X1.600000*%
%ADD13O,1.800000X1.800000*%
%ADD14O,1.500000X1.500000*%
%ADD15O,1.700000X1.700000*%
%ADD16R,3.500000X1.700000*%
%ADD17R,1.700000X1.700000*%
%ADD18R,1.700000X3.500000*%
%ADD19R,2.200000X2.200000*%
%ADD20O,2.200000X2.200000*%
%ADD21R,1.500000X1.500000*%
%ADD22C,1.500000*%
%ADD23R,3.500000X3.500000*%
%ADD24RoundRect,0.750000X1.000000X-0.750000X1.000000X0.750000X-1.000000X0.750000X-1.000000X-0.750000X0*%
%ADD25RoundRect,0.875000X0.875000X-0.875000X0.875000X0.875000X-0.875000X0.875000X-0.875000X-0.875000X0*%
%ADD26R,3.000000X3.000000*%
%ADD27C,3.000000*%
%ADD28C,2.800000*%
%ADD29O,2.800000X2.800000*%
%ADD30R,2.000000X1.905000*%
%ADD31O,2.000000X1.905000*%
%ADD32R,1.905000X2.000000*%
%ADD33O,1.905000X2.000000*%
G04 APERTURE END LIST*
D10*
%TO.C,C8*%
X87600000Y-17270000D03*
X87600000Y-22270000D03*
%TD*%
%TO.C,R1*%
X28630000Y-25000000D03*
D11*
X28630000Y-32620000D03*
%TD*%
D12*
%TO.C,D8*%
X34700000Y-25100000D03*
D11*
X34700000Y-32720000D03*
%TD*%
D12*
%TO.C,D3*%
X93160000Y-29990000D03*
D11*
X93160000Y-22370000D03*
%TD*%
D10*
%TO.C,R5*%
X71960000Y-36580000D03*
D11*
X79580000Y-36580000D03*
%TD*%
D10*
%TO.C,R21*%
X73152000Y-30226000D03*
D11*
X80772000Y-30226000D03*
%TD*%
D13*
%TO.C,U1*%
X12265000Y-7520000D03*
D14*
X12565000Y-10550000D03*
X17415000Y-10550000D03*
D13*
X17715000Y-7520000D03*
D15*
X6100000Y-7390000D03*
D16*
X5200000Y-7390000D03*
D15*
X6100000Y-9930000D03*
D16*
X5200000Y-9930000D03*
D17*
X6100000Y-12470000D03*
D16*
X5200000Y-12470000D03*
D15*
X6100000Y-15010000D03*
D16*
X5200000Y-15010000D03*
D15*
X6100000Y-17550000D03*
D16*
X5200000Y-17550000D03*
D15*
X6100000Y-20090000D03*
D16*
X5200000Y-20090000D03*
D15*
X6100000Y-22630000D03*
D16*
X5200000Y-22630000D03*
D17*
X6100000Y-25170000D03*
D16*
X5200000Y-25170000D03*
D15*
X6100000Y-27710000D03*
D16*
X5200000Y-27710000D03*
D15*
X6100000Y-30250000D03*
D16*
X5200000Y-30250000D03*
D15*
X6100000Y-32790000D03*
D16*
X5200000Y-32790000D03*
D15*
X6100000Y-35330000D03*
D16*
X5200000Y-35330000D03*
D17*
X6100000Y-37870000D03*
D16*
X5200000Y-37870000D03*
D15*
X6100000Y-40410000D03*
D16*
X5200000Y-40410000D03*
D15*
X6100000Y-42950000D03*
D16*
X5200000Y-42950000D03*
D15*
X6100000Y-45490000D03*
D16*
X5200000Y-45490000D03*
D15*
X6100000Y-48030000D03*
D16*
X5200000Y-48030000D03*
D17*
X6100000Y-50570000D03*
D16*
X5200000Y-50570000D03*
D15*
X6100000Y-53110000D03*
D16*
X5200000Y-53110000D03*
D15*
X6100000Y-55650000D03*
D16*
X5200000Y-55650000D03*
D15*
X23880000Y-55650000D03*
D16*
X24780000Y-55650000D03*
D15*
X23880000Y-53110000D03*
D16*
X24780000Y-53110000D03*
D17*
X23880000Y-50570000D03*
D16*
X24780000Y-50570000D03*
D15*
X23880000Y-48030000D03*
D16*
X24780000Y-48030000D03*
D15*
X23880000Y-45490000D03*
D16*
X24780000Y-45490000D03*
D15*
X23880000Y-42950000D03*
D16*
X24780000Y-42950000D03*
D15*
X23880000Y-40410000D03*
D16*
X24780000Y-40410000D03*
D17*
X23880000Y-37870000D03*
D16*
X24780000Y-37870000D03*
D15*
X23880000Y-35330000D03*
D16*
X24780000Y-35330000D03*
D15*
X23880000Y-32790000D03*
D16*
X24780000Y-32790000D03*
D15*
X23880000Y-30250000D03*
D16*
X24780000Y-30250000D03*
D15*
X23880000Y-27710000D03*
D16*
X24780000Y-27710000D03*
D17*
X23880000Y-25170000D03*
D16*
X24780000Y-25170000D03*
D15*
X23880000Y-22630000D03*
D16*
X24780000Y-22630000D03*
D15*
X23880000Y-20090000D03*
D16*
X24780000Y-20090000D03*
D15*
X23880000Y-17550000D03*
D16*
X24780000Y-17550000D03*
D15*
X23880000Y-15010000D03*
D16*
X24780000Y-15010000D03*
D17*
X23880000Y-12470000D03*
D16*
X24780000Y-12470000D03*
D15*
X23880000Y-9930000D03*
D16*
X24780000Y-9930000D03*
D15*
X23880000Y-7390000D03*
D16*
X24780000Y-7390000D03*
D15*
X12450000Y-55420000D03*
D18*
X12450000Y-56320000D03*
D17*
X14990000Y-55420000D03*
D18*
X14990000Y-56320000D03*
D15*
X17530000Y-55420000D03*
D18*
X17530000Y-56320000D03*
%TD*%
D10*
%TO.C,R16*%
X75750000Y-5560000D03*
D11*
X83370000Y-5560000D03*
%TD*%
D10*
%TO.C,C4*%
X90370000Y-48650000D03*
X95370000Y-48650000D03*
%TD*%
%TO.C,C11*%
X97660000Y-32810000D03*
X92660000Y-32810000D03*
%TD*%
%TO.C,R9*%
X49420000Y-38470000D03*
D11*
X57040000Y-38470000D03*
%TD*%
D19*
%TO.C,D2*%
X69270000Y-51540000D03*
D20*
X69270000Y-59160000D03*
%TD*%
D10*
%TO.C,R13*%
X93940000Y-16790000D03*
D11*
X93940000Y-9170000D03*
%TD*%
D10*
%TO.C,R15*%
X87390000Y-14790000D03*
D11*
X87390000Y-7170000D03*
%TD*%
D10*
%TO.C,R12*%
X90800000Y-16790000D03*
D11*
X90800000Y-9170000D03*
%TD*%
D17*
%TO.C,J2*%
X2020000Y-22750000D03*
D15*
X2020000Y-25290000D03*
X2020000Y-27830000D03*
X2020000Y-30370000D03*
X2020000Y-32910000D03*
X2020000Y-35450000D03*
X2020000Y-37990000D03*
X2020000Y-40530000D03*
X2020000Y-43070000D03*
X2020000Y-45610000D03*
X2020000Y-48150000D03*
X2020000Y-50690000D03*
X2020000Y-53230000D03*
X2020000Y-55770000D03*
%TD*%
D21*
%TO.C,Q2*%
X64220000Y-30220000D03*
D22*
X64220000Y-27680000D03*
X64220000Y-25140000D03*
%TD*%
D10*
%TO.C,R18*%
X72700000Y-51380000D03*
D11*
X72700000Y-59000000D03*
%TD*%
D10*
%TO.C,R7*%
X46790000Y-26570000D03*
D11*
X46790000Y-11330000D03*
%TD*%
D10*
%TO.C,C9*%
X73830000Y-26930000D03*
X78830000Y-26930000D03*
%TD*%
%TO.C,R17*%
X95430000Y-38780000D03*
D11*
X87810000Y-38780000D03*
%TD*%
D12*
%TO.C,C2*%
X31520000Y-40370000D03*
D10*
X29520000Y-40370000D03*
%TD*%
D23*
%TO.C,J4*%
X45920000Y-50840000D03*
D24*
X45920000Y-56840000D03*
D25*
X50620000Y-53840000D03*
%TD*%
D12*
%TO.C,D4*%
X82580000Y-33274000D03*
D11*
X90200000Y-33274000D03*
%TD*%
D10*
%TO.C,R11*%
X74820000Y-23310000D03*
D11*
X84980000Y-23310000D03*
%TD*%
D21*
%TO.C,Q1*%
X55260000Y-31860000D03*
D22*
X52720000Y-31860000D03*
X50180000Y-31860000D03*
%TD*%
D10*
%TO.C,C3*%
X90430000Y-45260000D03*
X95430000Y-45260000D03*
%TD*%
D26*
%TO.C,J3*%
X89900000Y-54725000D03*
D27*
X94980000Y-54725000D03*
%TD*%
D10*
%TO.C,C5*%
X72840000Y-11820000D03*
X72840000Y-16820000D03*
%TD*%
D12*
%TO.C,D9*%
X95504000Y-42164000D03*
D11*
X87884000Y-42164000D03*
%TD*%
D26*
%TO.C,J1*%
X30000000Y-53820000D03*
D27*
X35080000Y-53820000D03*
%TD*%
D28*
%TO.C,R6*%
X77325000Y-45500000D03*
D29*
X62085000Y-45500000D03*
%TD*%
D10*
%TO.C,R19*%
X85630000Y-4220000D03*
D11*
X93250000Y-4220000D03*
%TD*%
D12*
%TO.C,C1*%
X31660000Y-46440000D03*
D10*
X29660000Y-46440000D03*
%TD*%
%TO.C,R14*%
X90770000Y-26710000D03*
D11*
X83150000Y-26710000D03*
%TD*%
D10*
%TO.C,R8*%
X59470000Y-30000000D03*
D11*
X59470000Y-22380000D03*
%TD*%
D10*
%TO.C,R10*%
X46000000Y-38190000D03*
D11*
X46000000Y-45810000D03*
%TD*%
D10*
%TO.C,R20*%
X69500000Y-9210000D03*
D11*
X69500000Y-16830000D03*
%TD*%
D21*
%TO.C,Q4*%
X67880000Y-38050000D03*
D22*
X65340000Y-38050000D03*
X62800000Y-38050000D03*
%TD*%
D12*
%TO.C,D7*%
X31900000Y-22300000D03*
D11*
X31900000Y-29920000D03*
%TD*%
D12*
%TO.C,U3*%
X76130000Y-16560000D03*
D11*
X78670000Y-16560000D03*
X81210000Y-16560000D03*
X83750000Y-16560000D03*
X83750000Y-8940000D03*
X81210000Y-8940000D03*
X78670000Y-8940000D03*
X76130000Y-8940000D03*
%TD*%
D10*
%TO.C,R3*%
X43500000Y-11110000D03*
D11*
X43500000Y-26350000D03*
%TD*%
D10*
%TO.C,C6*%
X67440000Y-23370000D03*
X72440000Y-23370000D03*
%TD*%
D26*
%TO.C,J5*%
X62860000Y-54830000D03*
D27*
X57780000Y-54830000D03*
%TD*%
D12*
%TO.C,D5*%
X85090000Y-41402000D03*
D11*
X85090000Y-49022000D03*
%TD*%
D10*
%TO.C,C7*%
X95710000Y-19540000D03*
X90710000Y-19540000D03*
%TD*%
D19*
%TO.C,D1*%
X37750000Y-19750000D03*
D20*
X37750000Y-32450000D03*
%TD*%
D10*
%TO.C,R2*%
X28990000Y-7430000D03*
D11*
X28990000Y-15050000D03*
%TD*%
D30*
%TO.C,U2*%
X37170000Y-42780000D03*
D31*
X37170000Y-40240000D03*
X37170000Y-37700000D03*
%TD*%
D12*
%TO.C,D6*%
X85090000Y-51562000D03*
D11*
X85090000Y-59182000D03*
%TD*%
D10*
%TO.C,R4*%
X50200000Y-20930000D03*
D11*
X50200000Y-28550000D03*
%TD*%
D32*
%TO.C,Q3*%
X51000000Y-45000000D03*
D33*
X53540000Y-45000000D03*
X56080000Y-45000000D03*
%TD*%
M02*
