%TF.GenerationSoftware,KiCad,Pcbnew,7.0.11+dfsg-1build4*%
%TF.CreationDate,2025-10-10T21:22:52-05:00*%
%TF.ProjectId,Synchronizer,53796e63-6872-46f6-9e69-7a65722e6b69,rev?*%
%TF.SameCoordinates,Original*%
%TF.FileFunction,Legend,Top*%
%TF.FilePolarity,Positive*%
%FSLAX46Y46*%
G04 Gerber Fmt 4.6, Leading zero omitted, Abs format (unit mm)*
G04 Created by KiCad (PCBNEW 7.0.11+dfsg-1build4) date 2025-10-10 21:22:52*
%MOMM*%
%LPD*%
G01*
G04 APERTURE LIST*
%ADD10C,0.150000*%
%ADD11C,0.120000*%
G04 APERTURE END LIST*
D10*
X169602969Y-34239819D02*
X169126779Y-34239819D01*
X169126779Y-34239819D02*
X169126779Y-33239819D01*
X169936303Y-34239819D02*
X169936303Y-33239819D01*
X169936303Y-33239819D02*
X170269636Y-33954104D01*
X170269636Y-33954104D02*
X170602969Y-33239819D01*
X170602969Y-33239819D02*
X170602969Y-34239819D01*
X170983922Y-33239819D02*
X171602969Y-33239819D01*
X171602969Y-33239819D02*
X171269636Y-33620771D01*
X171269636Y-33620771D02*
X171412493Y-33620771D01*
X171412493Y-33620771D02*
X171507731Y-33668390D01*
X171507731Y-33668390D02*
X171555350Y-33716009D01*
X171555350Y-33716009D02*
X171602969Y-33811247D01*
X171602969Y-33811247D02*
X171602969Y-34049342D01*
X171602969Y-34049342D02*
X171555350Y-34144580D01*
X171555350Y-34144580D02*
X171507731Y-34192200D01*
X171507731Y-34192200D02*
X171412493Y-34239819D01*
X171412493Y-34239819D02*
X171126779Y-34239819D01*
X171126779Y-34239819D02*
X171031541Y-34192200D01*
X171031541Y-34192200D02*
X170983922Y-34144580D01*
X172507731Y-33239819D02*
X172031541Y-33239819D01*
X172031541Y-33239819D02*
X171983922Y-33716009D01*
X171983922Y-33716009D02*
X172031541Y-33668390D01*
X172031541Y-33668390D02*
X172126779Y-33620771D01*
X172126779Y-33620771D02*
X172364874Y-33620771D01*
X172364874Y-33620771D02*
X172460112Y-33668390D01*
X172460112Y-33668390D02*
X172507731Y-33716009D01*
X172507731Y-33716009D02*
X172555350Y-33811247D01*
X172555350Y-33811247D02*
X172555350Y-34049342D01*
X172555350Y-34049342D02*
X172507731Y-34144580D01*
X172507731Y-34144580D02*
X172460112Y-34192200D01*
X172460112Y-34192200D02*
X172364874Y-34239819D01*
X172364874Y-34239819D02*
X172126779Y-34239819D01*
X172126779Y-34239819D02*
X172031541Y-34192200D01*
X172031541Y-34192200D02*
X171983922Y-34144580D01*
X173126779Y-33668390D02*
X173031541Y-33620771D01*
X173031541Y-33620771D02*
X172983922Y-33573152D01*
X172983922Y-33573152D02*
X172936303Y-33477914D01*
X172936303Y-33477914D02*
X172936303Y-33430295D01*
X172936303Y-33430295D02*
X172983922Y-33335057D01*
X172983922Y-33335057D02*
X173031541Y-33287438D01*
X173031541Y-33287438D02*
X173126779Y-33239819D01*
X173126779Y-33239819D02*
X173317255Y-33239819D01*
X173317255Y-33239819D02*
X173412493Y-33287438D01*
X173412493Y-33287438D02*
X173460112Y-33335057D01*
X173460112Y-33335057D02*
X173507731Y-33430295D01*
X173507731Y-33430295D02*
X173507731Y-33477914D01*
X173507731Y-33477914D02*
X173460112Y-33573152D01*
X173460112Y-33573152D02*
X173412493Y-33620771D01*
X173412493Y-33620771D02*
X173317255Y-33668390D01*
X173317255Y-33668390D02*
X173126779Y-33668390D01*
X173126779Y-33668390D02*
X173031541Y-33716009D01*
X173031541Y-33716009D02*
X172983922Y-33763628D01*
X172983922Y-33763628D02*
X172936303Y-33858866D01*
X172936303Y-33858866D02*
X172936303Y-34049342D01*
X172936303Y-34049342D02*
X172983922Y-34144580D01*
X172983922Y-34144580D02*
X173031541Y-34192200D01*
X173031541Y-34192200D02*
X173126779Y-34239819D01*
X173126779Y-34239819D02*
X173317255Y-34239819D01*
X173317255Y-34239819D02*
X173412493Y-34192200D01*
X173412493Y-34192200D02*
X173460112Y-34144580D01*
X173460112Y-34144580D02*
X173507731Y-34049342D01*
X173507731Y-34049342D02*
X173507731Y-33858866D01*
X173507731Y-33858866D02*
X173460112Y-33763628D01*
X173460112Y-33763628D02*
X173412493Y-33716009D01*
X173412493Y-33716009D02*
X173317255Y-33668390D01*
X132418207Y-78194580D02*
X132370588Y-78242200D01*
X132370588Y-78242200D02*
X132227731Y-78289819D01*
X132227731Y-78289819D02*
X132132493Y-78289819D01*
X132132493Y-78289819D02*
X131989636Y-78242200D01*
X131989636Y-78242200D02*
X131894398Y-78146961D01*
X131894398Y-78146961D02*
X131846779Y-78051723D01*
X131846779Y-78051723D02*
X131799160Y-77861247D01*
X131799160Y-77861247D02*
X131799160Y-77718390D01*
X131799160Y-77718390D02*
X131846779Y-77527914D01*
X131846779Y-77527914D02*
X131894398Y-77432676D01*
X131894398Y-77432676D02*
X131989636Y-77337438D01*
X131989636Y-77337438D02*
X132132493Y-77289819D01*
X132132493Y-77289819D02*
X132227731Y-77289819D01*
X132227731Y-77289819D02*
X132370588Y-77337438D01*
X132370588Y-77337438D02*
X132418207Y-77385057D01*
X133037255Y-77289819D02*
X133227731Y-77289819D01*
X133227731Y-77289819D02*
X133322969Y-77337438D01*
X133322969Y-77337438D02*
X133418207Y-77432676D01*
X133418207Y-77432676D02*
X133465826Y-77623152D01*
X133465826Y-77623152D02*
X133465826Y-77956485D01*
X133465826Y-77956485D02*
X133418207Y-78146961D01*
X133418207Y-78146961D02*
X133322969Y-78242200D01*
X133322969Y-78242200D02*
X133227731Y-78289819D01*
X133227731Y-78289819D02*
X133037255Y-78289819D01*
X133037255Y-78289819D02*
X132942017Y-78242200D01*
X132942017Y-78242200D02*
X132846779Y-78146961D01*
X132846779Y-78146961D02*
X132799160Y-77956485D01*
X132799160Y-77956485D02*
X132799160Y-77623152D01*
X132799160Y-77623152D02*
X132846779Y-77432676D01*
X132846779Y-77432676D02*
X132942017Y-77337438D01*
X132942017Y-77337438D02*
X133037255Y-77289819D01*
X133894398Y-78289819D02*
X133894398Y-77289819D01*
X134846778Y-78289819D02*
X134370588Y-78289819D01*
X134370588Y-78289819D02*
X134370588Y-77289819D01*
X125280588Y-79277438D02*
X125185350Y-79229819D01*
X125185350Y-79229819D02*
X125042493Y-79229819D01*
X125042493Y-79229819D02*
X124899636Y-79277438D01*
X124899636Y-79277438D02*
X124804398Y-79372676D01*
X124804398Y-79372676D02*
X124756779Y-79467914D01*
X124756779Y-79467914D02*
X124709160Y-79658390D01*
X124709160Y-79658390D02*
X124709160Y-79801247D01*
X124709160Y-79801247D02*
X124756779Y-79991723D01*
X124756779Y-79991723D02*
X124804398Y-80086961D01*
X124804398Y-80086961D02*
X124899636Y-80182200D01*
X124899636Y-80182200D02*
X125042493Y-80229819D01*
X125042493Y-80229819D02*
X125137731Y-80229819D01*
X125137731Y-80229819D02*
X125280588Y-80182200D01*
X125280588Y-80182200D02*
X125328207Y-80134580D01*
X125328207Y-80134580D02*
X125328207Y-79801247D01*
X125328207Y-79801247D02*
X125137731Y-79801247D01*
X125756779Y-80229819D02*
X125756779Y-79229819D01*
X125756779Y-79229819D02*
X126328207Y-80229819D01*
X126328207Y-80229819D02*
X126328207Y-79229819D01*
X126804398Y-80229819D02*
X126804398Y-79229819D01*
X126804398Y-79229819D02*
X127042493Y-79229819D01*
X127042493Y-79229819D02*
X127185350Y-79277438D01*
X127185350Y-79277438D02*
X127280588Y-79372676D01*
X127280588Y-79372676D02*
X127328207Y-79467914D01*
X127328207Y-79467914D02*
X127375826Y-79658390D01*
X127375826Y-79658390D02*
X127375826Y-79801247D01*
X127375826Y-79801247D02*
X127328207Y-79991723D01*
X127328207Y-79991723D02*
X127280588Y-80086961D01*
X127280588Y-80086961D02*
X127185350Y-80182200D01*
X127185350Y-80182200D02*
X127042493Y-80229819D01*
X127042493Y-80229819D02*
X126804398Y-80229819D01*
X119196779Y-79898866D02*
X119958684Y-79898866D01*
X119577731Y-80279819D02*
X119577731Y-79517914D01*
X120958683Y-80279819D02*
X120387255Y-80279819D01*
X120672969Y-80279819D02*
X120672969Y-79279819D01*
X120672969Y-79279819D02*
X120577731Y-79422676D01*
X120577731Y-79422676D02*
X120482493Y-79517914D01*
X120482493Y-79517914D02*
X120387255Y-79565533D01*
X121339636Y-79375057D02*
X121387255Y-79327438D01*
X121387255Y-79327438D02*
X121482493Y-79279819D01*
X121482493Y-79279819D02*
X121720588Y-79279819D01*
X121720588Y-79279819D02*
X121815826Y-79327438D01*
X121815826Y-79327438D02*
X121863445Y-79375057D01*
X121863445Y-79375057D02*
X121911064Y-79470295D01*
X121911064Y-79470295D02*
X121911064Y-79565533D01*
X121911064Y-79565533D02*
X121863445Y-79708390D01*
X121863445Y-79708390D02*
X121292017Y-80279819D01*
X121292017Y-80279819D02*
X121911064Y-80279819D01*
X122196779Y-79279819D02*
X122530112Y-80279819D01*
X122530112Y-80279819D02*
X122863445Y-79279819D01*
X132720588Y-70917438D02*
X132625350Y-70869819D01*
X132625350Y-70869819D02*
X132482493Y-70869819D01*
X132482493Y-70869819D02*
X132339636Y-70917438D01*
X132339636Y-70917438D02*
X132244398Y-71012676D01*
X132244398Y-71012676D02*
X132196779Y-71107914D01*
X132196779Y-71107914D02*
X132149160Y-71298390D01*
X132149160Y-71298390D02*
X132149160Y-71441247D01*
X132149160Y-71441247D02*
X132196779Y-71631723D01*
X132196779Y-71631723D02*
X132244398Y-71726961D01*
X132244398Y-71726961D02*
X132339636Y-71822200D01*
X132339636Y-71822200D02*
X132482493Y-71869819D01*
X132482493Y-71869819D02*
X132577731Y-71869819D01*
X132577731Y-71869819D02*
X132720588Y-71822200D01*
X132720588Y-71822200D02*
X132768207Y-71774580D01*
X132768207Y-71774580D02*
X132768207Y-71441247D01*
X132768207Y-71441247D02*
X132577731Y-71441247D01*
X133196779Y-71869819D02*
X133196779Y-70869819D01*
X133196779Y-70869819D02*
X133768207Y-71869819D01*
X133768207Y-71869819D02*
X133768207Y-70869819D01*
X134244398Y-71869819D02*
X134244398Y-70869819D01*
X134244398Y-70869819D02*
X134482493Y-70869819D01*
X134482493Y-70869819D02*
X134625350Y-70917438D01*
X134625350Y-70917438D02*
X134720588Y-71012676D01*
X134720588Y-71012676D02*
X134768207Y-71107914D01*
X134768207Y-71107914D02*
X134815826Y-71298390D01*
X134815826Y-71298390D02*
X134815826Y-71441247D01*
X134815826Y-71441247D02*
X134768207Y-71631723D01*
X134768207Y-71631723D02*
X134720588Y-71726961D01*
X134720588Y-71726961D02*
X134625350Y-71822200D01*
X134625350Y-71822200D02*
X134482493Y-71869819D01*
X134482493Y-71869819D02*
X134244398Y-71869819D01*
X178989580Y-40926666D02*
X179037200Y-40974285D01*
X179037200Y-40974285D02*
X179084819Y-41117142D01*
X179084819Y-41117142D02*
X179084819Y-41212380D01*
X179084819Y-41212380D02*
X179037200Y-41355237D01*
X179037200Y-41355237D02*
X178941961Y-41450475D01*
X178941961Y-41450475D02*
X178846723Y-41498094D01*
X178846723Y-41498094D02*
X178656247Y-41545713D01*
X178656247Y-41545713D02*
X178513390Y-41545713D01*
X178513390Y-41545713D02*
X178322914Y-41498094D01*
X178322914Y-41498094D02*
X178227676Y-41450475D01*
X178227676Y-41450475D02*
X178132438Y-41355237D01*
X178132438Y-41355237D02*
X178084819Y-41212380D01*
X178084819Y-41212380D02*
X178084819Y-41117142D01*
X178084819Y-41117142D02*
X178132438Y-40974285D01*
X178132438Y-40974285D02*
X178180057Y-40926666D01*
X178513390Y-40355237D02*
X178465771Y-40450475D01*
X178465771Y-40450475D02*
X178418152Y-40498094D01*
X178418152Y-40498094D02*
X178322914Y-40545713D01*
X178322914Y-40545713D02*
X178275295Y-40545713D01*
X178275295Y-40545713D02*
X178180057Y-40498094D01*
X178180057Y-40498094D02*
X178132438Y-40450475D01*
X178132438Y-40450475D02*
X178084819Y-40355237D01*
X178084819Y-40355237D02*
X178084819Y-40164761D01*
X178084819Y-40164761D02*
X178132438Y-40069523D01*
X178132438Y-40069523D02*
X178180057Y-40021904D01*
X178180057Y-40021904D02*
X178275295Y-39974285D01*
X178275295Y-39974285D02*
X178322914Y-39974285D01*
X178322914Y-39974285D02*
X178418152Y-40021904D01*
X178418152Y-40021904D02*
X178465771Y-40069523D01*
X178465771Y-40069523D02*
X178513390Y-40164761D01*
X178513390Y-40164761D02*
X178513390Y-40355237D01*
X178513390Y-40355237D02*
X178561009Y-40450475D01*
X178561009Y-40450475D02*
X178608628Y-40498094D01*
X178608628Y-40498094D02*
X178703866Y-40545713D01*
X178703866Y-40545713D02*
X178894342Y-40545713D01*
X178894342Y-40545713D02*
X178989580Y-40498094D01*
X178989580Y-40498094D02*
X179037200Y-40450475D01*
X179037200Y-40450475D02*
X179084819Y-40355237D01*
X179084819Y-40355237D02*
X179084819Y-40164761D01*
X179084819Y-40164761D02*
X179037200Y-40069523D01*
X179037200Y-40069523D02*
X178989580Y-40021904D01*
X178989580Y-40021904D02*
X178894342Y-39974285D01*
X178894342Y-39974285D02*
X178703866Y-39974285D01*
X178703866Y-39974285D02*
X178608628Y-40021904D01*
X178608628Y-40021904D02*
X178561009Y-40069523D01*
X178561009Y-40069523D02*
X178513390Y-40164761D01*
X120064819Y-50016666D02*
X119588628Y-50349999D01*
X120064819Y-50588094D02*
X119064819Y-50588094D01*
X119064819Y-50588094D02*
X119064819Y-50207142D01*
X119064819Y-50207142D02*
X119112438Y-50111904D01*
X119112438Y-50111904D02*
X119160057Y-50064285D01*
X119160057Y-50064285D02*
X119255295Y-50016666D01*
X119255295Y-50016666D02*
X119398152Y-50016666D01*
X119398152Y-50016666D02*
X119493390Y-50064285D01*
X119493390Y-50064285D02*
X119541009Y-50111904D01*
X119541009Y-50111904D02*
X119588628Y-50207142D01*
X119588628Y-50207142D02*
X119588628Y-50588094D01*
X120064819Y-49064285D02*
X120064819Y-49635713D01*
X120064819Y-49349999D02*
X119064819Y-49349999D01*
X119064819Y-49349999D02*
X119207676Y-49445237D01*
X119207676Y-49445237D02*
X119302914Y-49540475D01*
X119302914Y-49540475D02*
X119350533Y-49635713D01*
X144827142Y-52649580D02*
X144779523Y-52697200D01*
X144779523Y-52697200D02*
X144636666Y-52744819D01*
X144636666Y-52744819D02*
X144541428Y-52744819D01*
X144541428Y-52744819D02*
X144398571Y-52697200D01*
X144398571Y-52697200D02*
X144303333Y-52601961D01*
X144303333Y-52601961D02*
X144255714Y-52506723D01*
X144255714Y-52506723D02*
X144208095Y-52316247D01*
X144208095Y-52316247D02*
X144208095Y-52173390D01*
X144208095Y-52173390D02*
X144255714Y-51982914D01*
X144255714Y-51982914D02*
X144303333Y-51887676D01*
X144303333Y-51887676D02*
X144398571Y-51792438D01*
X144398571Y-51792438D02*
X144541428Y-51744819D01*
X144541428Y-51744819D02*
X144636666Y-51744819D01*
X144636666Y-51744819D02*
X144779523Y-51792438D01*
X144779523Y-51792438D02*
X144827142Y-51840057D01*
X145779523Y-52744819D02*
X145208095Y-52744819D01*
X145493809Y-52744819D02*
X145493809Y-51744819D01*
X145493809Y-51744819D02*
X145398571Y-51887676D01*
X145398571Y-51887676D02*
X145303333Y-51982914D01*
X145303333Y-51982914D02*
X145208095Y-52030533D01*
X146398571Y-51744819D02*
X146493809Y-51744819D01*
X146493809Y-51744819D02*
X146589047Y-51792438D01*
X146589047Y-51792438D02*
X146636666Y-51840057D01*
X146636666Y-51840057D02*
X146684285Y-51935295D01*
X146684285Y-51935295D02*
X146731904Y-52125771D01*
X146731904Y-52125771D02*
X146731904Y-52363866D01*
X146731904Y-52363866D02*
X146684285Y-52554342D01*
X146684285Y-52554342D02*
X146636666Y-52649580D01*
X146636666Y-52649580D02*
X146589047Y-52697200D01*
X146589047Y-52697200D02*
X146493809Y-52744819D01*
X146493809Y-52744819D02*
X146398571Y-52744819D01*
X146398571Y-52744819D02*
X146303333Y-52697200D01*
X146303333Y-52697200D02*
X146255714Y-52649580D01*
X146255714Y-52649580D02*
X146208095Y-52554342D01*
X146208095Y-52554342D02*
X146160476Y-52363866D01*
X146160476Y-52363866D02*
X146160476Y-52125771D01*
X146160476Y-52125771D02*
X146208095Y-51935295D01*
X146208095Y-51935295D02*
X146255714Y-51840057D01*
X146255714Y-51840057D02*
X146303333Y-51792438D01*
X146303333Y-51792438D02*
X146398571Y-51744819D01*
X184674819Y-47666094D02*
X183674819Y-47666094D01*
X183674819Y-47666094D02*
X183674819Y-47427999D01*
X183674819Y-47427999D02*
X183722438Y-47285142D01*
X183722438Y-47285142D02*
X183817676Y-47189904D01*
X183817676Y-47189904D02*
X183912914Y-47142285D01*
X183912914Y-47142285D02*
X184103390Y-47094666D01*
X184103390Y-47094666D02*
X184246247Y-47094666D01*
X184246247Y-47094666D02*
X184436723Y-47142285D01*
X184436723Y-47142285D02*
X184531961Y-47189904D01*
X184531961Y-47189904D02*
X184627200Y-47285142D01*
X184627200Y-47285142D02*
X184674819Y-47427999D01*
X184674819Y-47427999D02*
X184674819Y-47666094D01*
X183674819Y-46761332D02*
X183674819Y-46142285D01*
X183674819Y-46142285D02*
X184055771Y-46475618D01*
X184055771Y-46475618D02*
X184055771Y-46332761D01*
X184055771Y-46332761D02*
X184103390Y-46237523D01*
X184103390Y-46237523D02*
X184151009Y-46189904D01*
X184151009Y-46189904D02*
X184246247Y-46142285D01*
X184246247Y-46142285D02*
X184484342Y-46142285D01*
X184484342Y-46142285D02*
X184579580Y-46189904D01*
X184579580Y-46189904D02*
X184627200Y-46237523D01*
X184627200Y-46237523D02*
X184674819Y-46332761D01*
X184674819Y-46332761D02*
X184674819Y-46618475D01*
X184674819Y-46618475D02*
X184627200Y-46713713D01*
X184627200Y-46713713D02*
X184579580Y-46761332D01*
X155614819Y-42576666D02*
X155138628Y-42909999D01*
X155614819Y-43148094D02*
X154614819Y-43148094D01*
X154614819Y-43148094D02*
X154614819Y-42767142D01*
X154614819Y-42767142D02*
X154662438Y-42671904D01*
X154662438Y-42671904D02*
X154710057Y-42624285D01*
X154710057Y-42624285D02*
X154805295Y-42576666D01*
X154805295Y-42576666D02*
X154948152Y-42576666D01*
X154948152Y-42576666D02*
X155043390Y-42624285D01*
X155043390Y-42624285D02*
X155091009Y-42671904D01*
X155091009Y-42671904D02*
X155138628Y-42767142D01*
X155138628Y-42767142D02*
X155138628Y-43148094D01*
X154614819Y-41671904D02*
X154614819Y-42148094D01*
X154614819Y-42148094D02*
X155091009Y-42195713D01*
X155091009Y-42195713D02*
X155043390Y-42148094D01*
X155043390Y-42148094D02*
X154995771Y-42052856D01*
X154995771Y-42052856D02*
X154995771Y-41814761D01*
X154995771Y-41814761D02*
X155043390Y-41719523D01*
X155043390Y-41719523D02*
X155091009Y-41671904D01*
X155091009Y-41671904D02*
X155186247Y-41624285D01*
X155186247Y-41624285D02*
X155424342Y-41624285D01*
X155424342Y-41624285D02*
X155519580Y-41671904D01*
X155519580Y-41671904D02*
X155567200Y-41719523D01*
X155567200Y-41719523D02*
X155614819Y-41814761D01*
X155614819Y-41814761D02*
X155614819Y-42052856D01*
X155614819Y-42052856D02*
X155567200Y-42148094D01*
X155567200Y-42148094D02*
X155519580Y-42195713D01*
X105228095Y-51974819D02*
X105228095Y-52784342D01*
X105228095Y-52784342D02*
X105275714Y-52879580D01*
X105275714Y-52879580D02*
X105323333Y-52927200D01*
X105323333Y-52927200D02*
X105418571Y-52974819D01*
X105418571Y-52974819D02*
X105609047Y-52974819D01*
X105609047Y-52974819D02*
X105704285Y-52927200D01*
X105704285Y-52927200D02*
X105751904Y-52879580D01*
X105751904Y-52879580D02*
X105799523Y-52784342D01*
X105799523Y-52784342D02*
X105799523Y-51974819D01*
X106799523Y-52974819D02*
X106228095Y-52974819D01*
X106513809Y-52974819D02*
X106513809Y-51974819D01*
X106513809Y-51974819D02*
X106418571Y-52117676D01*
X106418571Y-52117676D02*
X106323333Y-52212914D01*
X106323333Y-52212914D02*
X106228095Y-52260533D01*
X169907142Y-26944819D02*
X169573809Y-26468628D01*
X169335714Y-26944819D02*
X169335714Y-25944819D01*
X169335714Y-25944819D02*
X169716666Y-25944819D01*
X169716666Y-25944819D02*
X169811904Y-25992438D01*
X169811904Y-25992438D02*
X169859523Y-26040057D01*
X169859523Y-26040057D02*
X169907142Y-26135295D01*
X169907142Y-26135295D02*
X169907142Y-26278152D01*
X169907142Y-26278152D02*
X169859523Y-26373390D01*
X169859523Y-26373390D02*
X169811904Y-26421009D01*
X169811904Y-26421009D02*
X169716666Y-26468628D01*
X169716666Y-26468628D02*
X169335714Y-26468628D01*
X170859523Y-26944819D02*
X170288095Y-26944819D01*
X170573809Y-26944819D02*
X170573809Y-25944819D01*
X170573809Y-25944819D02*
X170478571Y-26087676D01*
X170478571Y-26087676D02*
X170383333Y-26182914D01*
X170383333Y-26182914D02*
X170288095Y-26230533D01*
X171716666Y-25944819D02*
X171526190Y-25944819D01*
X171526190Y-25944819D02*
X171430952Y-25992438D01*
X171430952Y-25992438D02*
X171383333Y-26040057D01*
X171383333Y-26040057D02*
X171288095Y-26182914D01*
X171288095Y-26182914D02*
X171240476Y-26373390D01*
X171240476Y-26373390D02*
X171240476Y-26754342D01*
X171240476Y-26754342D02*
X171288095Y-26849580D01*
X171288095Y-26849580D02*
X171335714Y-26897200D01*
X171335714Y-26897200D02*
X171430952Y-26944819D01*
X171430952Y-26944819D02*
X171621428Y-26944819D01*
X171621428Y-26944819D02*
X171716666Y-26897200D01*
X171716666Y-26897200D02*
X171764285Y-26849580D01*
X171764285Y-26849580D02*
X171811904Y-26754342D01*
X171811904Y-26754342D02*
X171811904Y-26516247D01*
X171811904Y-26516247D02*
X171764285Y-26421009D01*
X171764285Y-26421009D02*
X171716666Y-26373390D01*
X171716666Y-26373390D02*
X171621428Y-26325771D01*
X171621428Y-26325771D02*
X171430952Y-26325771D01*
X171430952Y-26325771D02*
X171335714Y-26373390D01*
X171335714Y-26373390D02*
X171288095Y-26421009D01*
X171288095Y-26421009D02*
X171240476Y-26516247D01*
X139329580Y-71066666D02*
X139377200Y-71114285D01*
X139377200Y-71114285D02*
X139424819Y-71257142D01*
X139424819Y-71257142D02*
X139424819Y-71352380D01*
X139424819Y-71352380D02*
X139377200Y-71495237D01*
X139377200Y-71495237D02*
X139281961Y-71590475D01*
X139281961Y-71590475D02*
X139186723Y-71638094D01*
X139186723Y-71638094D02*
X138996247Y-71685713D01*
X138996247Y-71685713D02*
X138853390Y-71685713D01*
X138853390Y-71685713D02*
X138662914Y-71638094D01*
X138662914Y-71638094D02*
X138567676Y-71590475D01*
X138567676Y-71590475D02*
X138472438Y-71495237D01*
X138472438Y-71495237D02*
X138424819Y-71352380D01*
X138424819Y-71352380D02*
X138424819Y-71257142D01*
X138424819Y-71257142D02*
X138472438Y-71114285D01*
X138472438Y-71114285D02*
X138520057Y-71066666D01*
X138758152Y-70209523D02*
X139424819Y-70209523D01*
X138377200Y-70447618D02*
X139091485Y-70685713D01*
X139091485Y-70685713D02*
X139091485Y-70066666D01*
X159004819Y-36566666D02*
X158528628Y-36899999D01*
X159004819Y-37138094D02*
X158004819Y-37138094D01*
X158004819Y-37138094D02*
X158004819Y-36757142D01*
X158004819Y-36757142D02*
X158052438Y-36661904D01*
X158052438Y-36661904D02*
X158100057Y-36614285D01*
X158100057Y-36614285D02*
X158195295Y-36566666D01*
X158195295Y-36566666D02*
X158338152Y-36566666D01*
X158338152Y-36566666D02*
X158433390Y-36614285D01*
X158433390Y-36614285D02*
X158481009Y-36661904D01*
X158481009Y-36661904D02*
X158528628Y-36757142D01*
X158528628Y-36757142D02*
X158528628Y-37138094D01*
X159004819Y-36090475D02*
X159004819Y-35899999D01*
X159004819Y-35899999D02*
X158957200Y-35804761D01*
X158957200Y-35804761D02*
X158909580Y-35757142D01*
X158909580Y-35757142D02*
X158766723Y-35661904D01*
X158766723Y-35661904D02*
X158576247Y-35614285D01*
X158576247Y-35614285D02*
X158195295Y-35614285D01*
X158195295Y-35614285D02*
X158100057Y-35661904D01*
X158100057Y-35661904D02*
X158052438Y-35709523D01*
X158052438Y-35709523D02*
X158004819Y-35804761D01*
X158004819Y-35804761D02*
X158004819Y-35995237D01*
X158004819Y-35995237D02*
X158052438Y-36090475D01*
X158052438Y-36090475D02*
X158100057Y-36138094D01*
X158100057Y-36138094D02*
X158195295Y-36185713D01*
X158195295Y-36185713D02*
X158433390Y-36185713D01*
X158433390Y-36185713D02*
X158528628Y-36138094D01*
X158528628Y-36138094D02*
X158576247Y-36090475D01*
X158576247Y-36090475D02*
X158623866Y-35995237D01*
X158623866Y-35995237D02*
X158623866Y-35804761D01*
X158623866Y-35804761D02*
X158576247Y-35709523D01*
X158576247Y-35709523D02*
X158528628Y-35661904D01*
X158528628Y-35661904D02*
X158433390Y-35614285D01*
X149644819Y-72726094D02*
X148644819Y-72726094D01*
X148644819Y-72726094D02*
X148644819Y-72487999D01*
X148644819Y-72487999D02*
X148692438Y-72345142D01*
X148692438Y-72345142D02*
X148787676Y-72249904D01*
X148787676Y-72249904D02*
X148882914Y-72202285D01*
X148882914Y-72202285D02*
X149073390Y-72154666D01*
X149073390Y-72154666D02*
X149216247Y-72154666D01*
X149216247Y-72154666D02*
X149406723Y-72202285D01*
X149406723Y-72202285D02*
X149501961Y-72249904D01*
X149501961Y-72249904D02*
X149597200Y-72345142D01*
X149597200Y-72345142D02*
X149644819Y-72487999D01*
X149644819Y-72487999D02*
X149644819Y-72726094D01*
X148740057Y-71773713D02*
X148692438Y-71726094D01*
X148692438Y-71726094D02*
X148644819Y-71630856D01*
X148644819Y-71630856D02*
X148644819Y-71392761D01*
X148644819Y-71392761D02*
X148692438Y-71297523D01*
X148692438Y-71297523D02*
X148740057Y-71249904D01*
X148740057Y-71249904D02*
X148835295Y-71202285D01*
X148835295Y-71202285D02*
X148930533Y-71202285D01*
X148930533Y-71202285D02*
X149073390Y-71249904D01*
X149073390Y-71249904D02*
X149644819Y-71821332D01*
X149644819Y-71821332D02*
X149644819Y-71202285D01*
X185354819Y-34612857D02*
X184878628Y-34946190D01*
X185354819Y-35184285D02*
X184354819Y-35184285D01*
X184354819Y-35184285D02*
X184354819Y-34803333D01*
X184354819Y-34803333D02*
X184402438Y-34708095D01*
X184402438Y-34708095D02*
X184450057Y-34660476D01*
X184450057Y-34660476D02*
X184545295Y-34612857D01*
X184545295Y-34612857D02*
X184688152Y-34612857D01*
X184688152Y-34612857D02*
X184783390Y-34660476D01*
X184783390Y-34660476D02*
X184831009Y-34708095D01*
X184831009Y-34708095D02*
X184878628Y-34803333D01*
X184878628Y-34803333D02*
X184878628Y-35184285D01*
X185354819Y-33660476D02*
X185354819Y-34231904D01*
X185354819Y-33946190D02*
X184354819Y-33946190D01*
X184354819Y-33946190D02*
X184497676Y-34041428D01*
X184497676Y-34041428D02*
X184592914Y-34136666D01*
X184592914Y-34136666D02*
X184640533Y-34231904D01*
X184354819Y-33327142D02*
X184354819Y-32708095D01*
X184354819Y-32708095D02*
X184735771Y-33041428D01*
X184735771Y-33041428D02*
X184735771Y-32898571D01*
X184735771Y-32898571D02*
X184783390Y-32803333D01*
X184783390Y-32803333D02*
X184831009Y-32755714D01*
X184831009Y-32755714D02*
X184926247Y-32708095D01*
X184926247Y-32708095D02*
X185164342Y-32708095D01*
X185164342Y-32708095D02*
X185259580Y-32755714D01*
X185259580Y-32755714D02*
X185307200Y-32803333D01*
X185307200Y-32803333D02*
X185354819Y-32898571D01*
X185354819Y-32898571D02*
X185354819Y-33184285D01*
X185354819Y-33184285D02*
X185307200Y-33279523D01*
X185307200Y-33279523D02*
X185259580Y-33327142D01*
X178874819Y-32640857D02*
X178398628Y-32974190D01*
X178874819Y-33212285D02*
X177874819Y-33212285D01*
X177874819Y-33212285D02*
X177874819Y-32831333D01*
X177874819Y-32831333D02*
X177922438Y-32736095D01*
X177922438Y-32736095D02*
X177970057Y-32688476D01*
X177970057Y-32688476D02*
X178065295Y-32640857D01*
X178065295Y-32640857D02*
X178208152Y-32640857D01*
X178208152Y-32640857D02*
X178303390Y-32688476D01*
X178303390Y-32688476D02*
X178351009Y-32736095D01*
X178351009Y-32736095D02*
X178398628Y-32831333D01*
X178398628Y-32831333D02*
X178398628Y-33212285D01*
X178874819Y-31688476D02*
X178874819Y-32259904D01*
X178874819Y-31974190D02*
X177874819Y-31974190D01*
X177874819Y-31974190D02*
X178017676Y-32069428D01*
X178017676Y-32069428D02*
X178112914Y-32164666D01*
X178112914Y-32164666D02*
X178160533Y-32259904D01*
X177874819Y-30783714D02*
X177874819Y-31259904D01*
X177874819Y-31259904D02*
X178351009Y-31307523D01*
X178351009Y-31307523D02*
X178303390Y-31259904D01*
X178303390Y-31259904D02*
X178255771Y-31164666D01*
X178255771Y-31164666D02*
X178255771Y-30926571D01*
X178255771Y-30926571D02*
X178303390Y-30831333D01*
X178303390Y-30831333D02*
X178351009Y-30783714D01*
X178351009Y-30783714D02*
X178446247Y-30736095D01*
X178446247Y-30736095D02*
X178684342Y-30736095D01*
X178684342Y-30736095D02*
X178779580Y-30783714D01*
X178779580Y-30783714D02*
X178827200Y-30831333D01*
X178827200Y-30831333D02*
X178874819Y-30926571D01*
X178874819Y-30926571D02*
X178874819Y-31164666D01*
X178874819Y-31164666D02*
X178827200Y-31259904D01*
X178827200Y-31259904D02*
X178779580Y-31307523D01*
X182254819Y-34532857D02*
X181778628Y-34866190D01*
X182254819Y-35104285D02*
X181254819Y-35104285D01*
X181254819Y-35104285D02*
X181254819Y-34723333D01*
X181254819Y-34723333D02*
X181302438Y-34628095D01*
X181302438Y-34628095D02*
X181350057Y-34580476D01*
X181350057Y-34580476D02*
X181445295Y-34532857D01*
X181445295Y-34532857D02*
X181588152Y-34532857D01*
X181588152Y-34532857D02*
X181683390Y-34580476D01*
X181683390Y-34580476D02*
X181731009Y-34628095D01*
X181731009Y-34628095D02*
X181778628Y-34723333D01*
X181778628Y-34723333D02*
X181778628Y-35104285D01*
X182254819Y-33580476D02*
X182254819Y-34151904D01*
X182254819Y-33866190D02*
X181254819Y-33866190D01*
X181254819Y-33866190D02*
X181397676Y-33961428D01*
X181397676Y-33961428D02*
X181492914Y-34056666D01*
X181492914Y-34056666D02*
X181540533Y-34151904D01*
X181350057Y-33199523D02*
X181302438Y-33151904D01*
X181302438Y-33151904D02*
X181254819Y-33056666D01*
X181254819Y-33056666D02*
X181254819Y-32818571D01*
X181254819Y-32818571D02*
X181302438Y-32723333D01*
X181302438Y-32723333D02*
X181350057Y-32675714D01*
X181350057Y-32675714D02*
X181445295Y-32628095D01*
X181445295Y-32628095D02*
X181540533Y-32628095D01*
X181540533Y-32628095D02*
X181683390Y-32675714D01*
X181683390Y-32675714D02*
X182254819Y-33247142D01*
X182254819Y-33247142D02*
X182254819Y-32628095D01*
X150384761Y-35840057D02*
X150289523Y-35792438D01*
X150289523Y-35792438D02*
X150194285Y-35697200D01*
X150194285Y-35697200D02*
X150051428Y-35554342D01*
X150051428Y-35554342D02*
X149956190Y-35506723D01*
X149956190Y-35506723D02*
X149860952Y-35506723D01*
X149908571Y-35744819D02*
X149813333Y-35697200D01*
X149813333Y-35697200D02*
X149718095Y-35601961D01*
X149718095Y-35601961D02*
X149670476Y-35411485D01*
X149670476Y-35411485D02*
X149670476Y-35078152D01*
X149670476Y-35078152D02*
X149718095Y-34887676D01*
X149718095Y-34887676D02*
X149813333Y-34792438D01*
X149813333Y-34792438D02*
X149908571Y-34744819D01*
X149908571Y-34744819D02*
X150099047Y-34744819D01*
X150099047Y-34744819D02*
X150194285Y-34792438D01*
X150194285Y-34792438D02*
X150289523Y-34887676D01*
X150289523Y-34887676D02*
X150337142Y-35078152D01*
X150337142Y-35078152D02*
X150337142Y-35411485D01*
X150337142Y-35411485D02*
X150289523Y-35601961D01*
X150289523Y-35601961D02*
X150194285Y-35697200D01*
X150194285Y-35697200D02*
X150099047Y-35744819D01*
X150099047Y-35744819D02*
X149908571Y-35744819D01*
X150718095Y-34840057D02*
X150765714Y-34792438D01*
X150765714Y-34792438D02*
X150860952Y-34744819D01*
X150860952Y-34744819D02*
X151099047Y-34744819D01*
X151099047Y-34744819D02*
X151194285Y-34792438D01*
X151194285Y-34792438D02*
X151241904Y-34840057D01*
X151241904Y-34840057D02*
X151289523Y-34935295D01*
X151289523Y-34935295D02*
X151289523Y-35030533D01*
X151289523Y-35030533D02*
X151241904Y-35173390D01*
X151241904Y-35173390D02*
X150670476Y-35744819D01*
X150670476Y-35744819D02*
X151289523Y-35744819D01*
X145824819Y-72802857D02*
X145348628Y-73136190D01*
X145824819Y-73374285D02*
X144824819Y-73374285D01*
X144824819Y-73374285D02*
X144824819Y-72993333D01*
X144824819Y-72993333D02*
X144872438Y-72898095D01*
X144872438Y-72898095D02*
X144920057Y-72850476D01*
X144920057Y-72850476D02*
X145015295Y-72802857D01*
X145015295Y-72802857D02*
X145158152Y-72802857D01*
X145158152Y-72802857D02*
X145253390Y-72850476D01*
X145253390Y-72850476D02*
X145301009Y-72898095D01*
X145301009Y-72898095D02*
X145348628Y-72993333D01*
X145348628Y-72993333D02*
X145348628Y-73374285D01*
X145824819Y-71850476D02*
X145824819Y-72421904D01*
X145824819Y-72136190D02*
X144824819Y-72136190D01*
X144824819Y-72136190D02*
X144967676Y-72231428D01*
X144967676Y-72231428D02*
X145062914Y-72326666D01*
X145062914Y-72326666D02*
X145110533Y-72421904D01*
X145253390Y-71279047D02*
X145205771Y-71374285D01*
X145205771Y-71374285D02*
X145158152Y-71421904D01*
X145158152Y-71421904D02*
X145062914Y-71469523D01*
X145062914Y-71469523D02*
X145015295Y-71469523D01*
X145015295Y-71469523D02*
X144920057Y-71421904D01*
X144920057Y-71421904D02*
X144872438Y-71374285D01*
X144872438Y-71374285D02*
X144824819Y-71279047D01*
X144824819Y-71279047D02*
X144824819Y-71088571D01*
X144824819Y-71088571D02*
X144872438Y-70993333D01*
X144872438Y-70993333D02*
X144920057Y-70945714D01*
X144920057Y-70945714D02*
X145015295Y-70898095D01*
X145015295Y-70898095D02*
X145062914Y-70898095D01*
X145062914Y-70898095D02*
X145158152Y-70945714D01*
X145158152Y-70945714D02*
X145205771Y-70993333D01*
X145205771Y-70993333D02*
X145253390Y-71088571D01*
X145253390Y-71088571D02*
X145253390Y-71279047D01*
X145253390Y-71279047D02*
X145301009Y-71374285D01*
X145301009Y-71374285D02*
X145348628Y-71421904D01*
X145348628Y-71421904D02*
X145443866Y-71469523D01*
X145443866Y-71469523D02*
X145634342Y-71469523D01*
X145634342Y-71469523D02*
X145729580Y-71421904D01*
X145729580Y-71421904D02*
X145777200Y-71374285D01*
X145777200Y-71374285D02*
X145824819Y-71279047D01*
X145824819Y-71279047D02*
X145824819Y-71088571D01*
X145824819Y-71088571D02*
X145777200Y-70993333D01*
X145777200Y-70993333D02*
X145729580Y-70945714D01*
X145729580Y-70945714D02*
X145634342Y-70898095D01*
X145634342Y-70898095D02*
X145443866Y-70898095D01*
X145443866Y-70898095D02*
X145348628Y-70945714D01*
X145348628Y-70945714D02*
X145301009Y-70993333D01*
X145301009Y-70993333D02*
X145253390Y-71088571D01*
X133123333Y-26984819D02*
X132790000Y-26508628D01*
X132551905Y-26984819D02*
X132551905Y-25984819D01*
X132551905Y-25984819D02*
X132932857Y-25984819D01*
X132932857Y-25984819D02*
X133028095Y-26032438D01*
X133028095Y-26032438D02*
X133075714Y-26080057D01*
X133075714Y-26080057D02*
X133123333Y-26175295D01*
X133123333Y-26175295D02*
X133123333Y-26318152D01*
X133123333Y-26318152D02*
X133075714Y-26413390D01*
X133075714Y-26413390D02*
X133028095Y-26461009D01*
X133028095Y-26461009D02*
X132932857Y-26508628D01*
X132932857Y-26508628D02*
X132551905Y-26508628D01*
X133456667Y-25984819D02*
X134123333Y-25984819D01*
X134123333Y-25984819D02*
X133694762Y-26984819D01*
X167145333Y-48259580D02*
X167097714Y-48307200D01*
X167097714Y-48307200D02*
X166954857Y-48354819D01*
X166954857Y-48354819D02*
X166859619Y-48354819D01*
X166859619Y-48354819D02*
X166716762Y-48307200D01*
X166716762Y-48307200D02*
X166621524Y-48211961D01*
X166621524Y-48211961D02*
X166573905Y-48116723D01*
X166573905Y-48116723D02*
X166526286Y-47926247D01*
X166526286Y-47926247D02*
X166526286Y-47783390D01*
X166526286Y-47783390D02*
X166573905Y-47592914D01*
X166573905Y-47592914D02*
X166621524Y-47497676D01*
X166621524Y-47497676D02*
X166716762Y-47402438D01*
X166716762Y-47402438D02*
X166859619Y-47354819D01*
X166859619Y-47354819D02*
X166954857Y-47354819D01*
X166954857Y-47354819D02*
X167097714Y-47402438D01*
X167097714Y-47402438D02*
X167145333Y-47450057D01*
X167621524Y-48354819D02*
X167812000Y-48354819D01*
X167812000Y-48354819D02*
X167907238Y-48307200D01*
X167907238Y-48307200D02*
X167954857Y-48259580D01*
X167954857Y-48259580D02*
X168050095Y-48116723D01*
X168050095Y-48116723D02*
X168097714Y-47926247D01*
X168097714Y-47926247D02*
X168097714Y-47545295D01*
X168097714Y-47545295D02*
X168050095Y-47450057D01*
X168050095Y-47450057D02*
X168002476Y-47402438D01*
X168002476Y-47402438D02*
X167907238Y-47354819D01*
X167907238Y-47354819D02*
X167716762Y-47354819D01*
X167716762Y-47354819D02*
X167621524Y-47402438D01*
X167621524Y-47402438D02*
X167573905Y-47450057D01*
X167573905Y-47450057D02*
X167526286Y-47545295D01*
X167526286Y-47545295D02*
X167526286Y-47783390D01*
X167526286Y-47783390D02*
X167573905Y-47878628D01*
X167573905Y-47878628D02*
X167621524Y-47926247D01*
X167621524Y-47926247D02*
X167716762Y-47973866D01*
X167716762Y-47973866D02*
X167907238Y-47973866D01*
X167907238Y-47973866D02*
X168002476Y-47926247D01*
X168002476Y-47926247D02*
X168050095Y-47878628D01*
X168050095Y-47878628D02*
X168097714Y-47783390D01*
X123613333Y-64589580D02*
X123565714Y-64637200D01*
X123565714Y-64637200D02*
X123422857Y-64684819D01*
X123422857Y-64684819D02*
X123327619Y-64684819D01*
X123327619Y-64684819D02*
X123184762Y-64637200D01*
X123184762Y-64637200D02*
X123089524Y-64541961D01*
X123089524Y-64541961D02*
X123041905Y-64446723D01*
X123041905Y-64446723D02*
X122994286Y-64256247D01*
X122994286Y-64256247D02*
X122994286Y-64113390D01*
X122994286Y-64113390D02*
X123041905Y-63922914D01*
X123041905Y-63922914D02*
X123089524Y-63827676D01*
X123089524Y-63827676D02*
X123184762Y-63732438D01*
X123184762Y-63732438D02*
X123327619Y-63684819D01*
X123327619Y-63684819D02*
X123422857Y-63684819D01*
X123422857Y-63684819D02*
X123565714Y-63732438D01*
X123565714Y-63732438D02*
X123613333Y-63780057D01*
X123994286Y-63780057D02*
X124041905Y-63732438D01*
X124041905Y-63732438D02*
X124137143Y-63684819D01*
X124137143Y-63684819D02*
X124375238Y-63684819D01*
X124375238Y-63684819D02*
X124470476Y-63732438D01*
X124470476Y-63732438D02*
X124518095Y-63780057D01*
X124518095Y-63780057D02*
X124565714Y-63875295D01*
X124565714Y-63875295D02*
X124565714Y-63970533D01*
X124565714Y-63970533D02*
X124518095Y-64113390D01*
X124518095Y-64113390D02*
X123946667Y-64684819D01*
X123946667Y-64684819D02*
X124565714Y-64684819D01*
X177663905Y-55584819D02*
X177663905Y-54584819D01*
X177663905Y-54584819D02*
X177902000Y-54584819D01*
X177902000Y-54584819D02*
X178044857Y-54632438D01*
X178044857Y-54632438D02*
X178140095Y-54727676D01*
X178140095Y-54727676D02*
X178187714Y-54822914D01*
X178187714Y-54822914D02*
X178235333Y-55013390D01*
X178235333Y-55013390D02*
X178235333Y-55156247D01*
X178235333Y-55156247D02*
X178187714Y-55346723D01*
X178187714Y-55346723D02*
X178140095Y-55441961D01*
X178140095Y-55441961D02*
X178044857Y-55537200D01*
X178044857Y-55537200D02*
X177902000Y-55584819D01*
X177902000Y-55584819D02*
X177663905Y-55584819D01*
X179092476Y-54918152D02*
X179092476Y-55584819D01*
X178854381Y-54537200D02*
X178616286Y-55251485D01*
X178616286Y-55251485D02*
X179235333Y-55251485D01*
X170247142Y-44734819D02*
X169913809Y-44258628D01*
X169675714Y-44734819D02*
X169675714Y-43734819D01*
X169675714Y-43734819D02*
X170056666Y-43734819D01*
X170056666Y-43734819D02*
X170151904Y-43782438D01*
X170151904Y-43782438D02*
X170199523Y-43830057D01*
X170199523Y-43830057D02*
X170247142Y-43925295D01*
X170247142Y-43925295D02*
X170247142Y-44068152D01*
X170247142Y-44068152D02*
X170199523Y-44163390D01*
X170199523Y-44163390D02*
X170151904Y-44211009D01*
X170151904Y-44211009D02*
X170056666Y-44258628D01*
X170056666Y-44258628D02*
X169675714Y-44258628D01*
X171199523Y-44734819D02*
X170628095Y-44734819D01*
X170913809Y-44734819D02*
X170913809Y-43734819D01*
X170913809Y-43734819D02*
X170818571Y-43877676D01*
X170818571Y-43877676D02*
X170723333Y-43972914D01*
X170723333Y-43972914D02*
X170628095Y-44020533D01*
X172151904Y-44734819D02*
X171580476Y-44734819D01*
X171866190Y-44734819D02*
X171866190Y-43734819D01*
X171866190Y-43734819D02*
X171770952Y-43877676D01*
X171770952Y-43877676D02*
X171675714Y-43972914D01*
X171675714Y-43972914D02*
X171580476Y-44020533D01*
X129204761Y-33260057D02*
X129109523Y-33212438D01*
X129109523Y-33212438D02*
X129014285Y-33117200D01*
X129014285Y-33117200D02*
X128871428Y-32974342D01*
X128871428Y-32974342D02*
X128776190Y-32926723D01*
X128776190Y-32926723D02*
X128680952Y-32926723D01*
X128728571Y-33164819D02*
X128633333Y-33117200D01*
X128633333Y-33117200D02*
X128538095Y-33021961D01*
X128538095Y-33021961D02*
X128490476Y-32831485D01*
X128490476Y-32831485D02*
X128490476Y-32498152D01*
X128490476Y-32498152D02*
X128538095Y-32307676D01*
X128538095Y-32307676D02*
X128633333Y-32212438D01*
X128633333Y-32212438D02*
X128728571Y-32164819D01*
X128728571Y-32164819D02*
X128919047Y-32164819D01*
X128919047Y-32164819D02*
X129014285Y-32212438D01*
X129014285Y-32212438D02*
X129109523Y-32307676D01*
X129109523Y-32307676D02*
X129157142Y-32498152D01*
X129157142Y-32498152D02*
X129157142Y-32831485D01*
X129157142Y-32831485D02*
X129109523Y-33021961D01*
X129109523Y-33021961D02*
X129014285Y-33117200D01*
X129014285Y-33117200D02*
X128919047Y-33164819D01*
X128919047Y-33164819D02*
X128728571Y-33164819D01*
X130109523Y-33164819D02*
X129538095Y-33164819D01*
X129823809Y-33164819D02*
X129823809Y-32164819D01*
X129823809Y-32164819D02*
X129728571Y-32307676D01*
X129728571Y-32307676D02*
X129633333Y-32402914D01*
X129633333Y-32402914D02*
X129538095Y-32450533D01*
X142419580Y-71036666D02*
X142467200Y-71084285D01*
X142467200Y-71084285D02*
X142514819Y-71227142D01*
X142514819Y-71227142D02*
X142514819Y-71322380D01*
X142514819Y-71322380D02*
X142467200Y-71465237D01*
X142467200Y-71465237D02*
X142371961Y-71560475D01*
X142371961Y-71560475D02*
X142276723Y-71608094D01*
X142276723Y-71608094D02*
X142086247Y-71655713D01*
X142086247Y-71655713D02*
X141943390Y-71655713D01*
X141943390Y-71655713D02*
X141752914Y-71608094D01*
X141752914Y-71608094D02*
X141657676Y-71560475D01*
X141657676Y-71560475D02*
X141562438Y-71465237D01*
X141562438Y-71465237D02*
X141514819Y-71322380D01*
X141514819Y-71322380D02*
X141514819Y-71227142D01*
X141514819Y-71227142D02*
X141562438Y-71084285D01*
X141562438Y-71084285D02*
X141610057Y-71036666D01*
X141514819Y-70703332D02*
X141514819Y-70084285D01*
X141514819Y-70084285D02*
X141895771Y-70417618D01*
X141895771Y-70417618D02*
X141895771Y-70274761D01*
X141895771Y-70274761D02*
X141943390Y-70179523D01*
X141943390Y-70179523D02*
X141991009Y-70131904D01*
X141991009Y-70131904D02*
X142086247Y-70084285D01*
X142086247Y-70084285D02*
X142324342Y-70084285D01*
X142324342Y-70084285D02*
X142419580Y-70131904D01*
X142419580Y-70131904D02*
X142467200Y-70179523D01*
X142467200Y-70179523D02*
X142514819Y-70274761D01*
X142514819Y-70274761D02*
X142514819Y-70560475D01*
X142514819Y-70560475D02*
X142467200Y-70655713D01*
X142467200Y-70655713D02*
X142419580Y-70703332D01*
X164269580Y-35406666D02*
X164317200Y-35454285D01*
X164317200Y-35454285D02*
X164364819Y-35597142D01*
X164364819Y-35597142D02*
X164364819Y-35692380D01*
X164364819Y-35692380D02*
X164317200Y-35835237D01*
X164317200Y-35835237D02*
X164221961Y-35930475D01*
X164221961Y-35930475D02*
X164126723Y-35978094D01*
X164126723Y-35978094D02*
X163936247Y-36025713D01*
X163936247Y-36025713D02*
X163793390Y-36025713D01*
X163793390Y-36025713D02*
X163602914Y-35978094D01*
X163602914Y-35978094D02*
X163507676Y-35930475D01*
X163507676Y-35930475D02*
X163412438Y-35835237D01*
X163412438Y-35835237D02*
X163364819Y-35692380D01*
X163364819Y-35692380D02*
X163364819Y-35597142D01*
X163364819Y-35597142D02*
X163412438Y-35454285D01*
X163412438Y-35454285D02*
X163460057Y-35406666D01*
X163364819Y-34501904D02*
X163364819Y-34978094D01*
X163364819Y-34978094D02*
X163841009Y-35025713D01*
X163841009Y-35025713D02*
X163793390Y-34978094D01*
X163793390Y-34978094D02*
X163745771Y-34882856D01*
X163745771Y-34882856D02*
X163745771Y-34644761D01*
X163745771Y-34644761D02*
X163793390Y-34549523D01*
X163793390Y-34549523D02*
X163841009Y-34501904D01*
X163841009Y-34501904D02*
X163936247Y-34454285D01*
X163936247Y-34454285D02*
X164174342Y-34454285D01*
X164174342Y-34454285D02*
X164269580Y-34501904D01*
X164269580Y-34501904D02*
X164317200Y-34549523D01*
X164317200Y-34549523D02*
X164364819Y-34644761D01*
X164364819Y-34644761D02*
X164364819Y-34882856D01*
X164364819Y-34882856D02*
X164317200Y-34978094D01*
X164317200Y-34978094D02*
X164269580Y-35025713D01*
X123356666Y-71444819D02*
X123356666Y-72159104D01*
X123356666Y-72159104D02*
X123309047Y-72301961D01*
X123309047Y-72301961D02*
X123213809Y-72397200D01*
X123213809Y-72397200D02*
X123070952Y-72444819D01*
X123070952Y-72444819D02*
X122975714Y-72444819D01*
X124356666Y-72444819D02*
X123785238Y-72444819D01*
X124070952Y-72444819D02*
X124070952Y-71444819D01*
X124070952Y-71444819D02*
X123975714Y-71587676D01*
X123975714Y-71587676D02*
X123880476Y-71682914D01*
X123880476Y-71682914D02*
X123785238Y-71730533D01*
X158154819Y-57306666D02*
X157678628Y-57639999D01*
X158154819Y-57878094D02*
X157154819Y-57878094D01*
X157154819Y-57878094D02*
X157154819Y-57497142D01*
X157154819Y-57497142D02*
X157202438Y-57401904D01*
X157202438Y-57401904D02*
X157250057Y-57354285D01*
X157250057Y-57354285D02*
X157345295Y-57306666D01*
X157345295Y-57306666D02*
X157488152Y-57306666D01*
X157488152Y-57306666D02*
X157583390Y-57354285D01*
X157583390Y-57354285D02*
X157631009Y-57401904D01*
X157631009Y-57401904D02*
X157678628Y-57497142D01*
X157678628Y-57497142D02*
X157678628Y-57878094D01*
X157154819Y-56449523D02*
X157154819Y-56639999D01*
X157154819Y-56639999D02*
X157202438Y-56735237D01*
X157202438Y-56735237D02*
X157250057Y-56782856D01*
X157250057Y-56782856D02*
X157392914Y-56878094D01*
X157392914Y-56878094D02*
X157583390Y-56925713D01*
X157583390Y-56925713D02*
X157964342Y-56925713D01*
X157964342Y-56925713D02*
X158059580Y-56878094D01*
X158059580Y-56878094D02*
X158107200Y-56830475D01*
X158107200Y-56830475D02*
X158154819Y-56735237D01*
X158154819Y-56735237D02*
X158154819Y-56544761D01*
X158154819Y-56544761D02*
X158107200Y-56449523D01*
X158107200Y-56449523D02*
X158059580Y-56401904D01*
X158059580Y-56401904D02*
X157964342Y-56354285D01*
X157964342Y-56354285D02*
X157726247Y-56354285D01*
X157726247Y-56354285D02*
X157631009Y-56401904D01*
X157631009Y-56401904D02*
X157583390Y-56449523D01*
X157583390Y-56449523D02*
X157535771Y-56544761D01*
X157535771Y-56544761D02*
X157535771Y-56735237D01*
X157535771Y-56735237D02*
X157583390Y-56830475D01*
X157583390Y-56830475D02*
X157631009Y-56878094D01*
X157631009Y-56878094D02*
X157726247Y-56925713D01*
X179817142Y-25684819D02*
X179483809Y-25208628D01*
X179245714Y-25684819D02*
X179245714Y-24684819D01*
X179245714Y-24684819D02*
X179626666Y-24684819D01*
X179626666Y-24684819D02*
X179721904Y-24732438D01*
X179721904Y-24732438D02*
X179769523Y-24780057D01*
X179769523Y-24780057D02*
X179817142Y-24875295D01*
X179817142Y-24875295D02*
X179817142Y-25018152D01*
X179817142Y-25018152D02*
X179769523Y-25113390D01*
X179769523Y-25113390D02*
X179721904Y-25161009D01*
X179721904Y-25161009D02*
X179626666Y-25208628D01*
X179626666Y-25208628D02*
X179245714Y-25208628D01*
X180769523Y-25684819D02*
X180198095Y-25684819D01*
X180483809Y-25684819D02*
X180483809Y-24684819D01*
X180483809Y-24684819D02*
X180388571Y-24827676D01*
X180388571Y-24827676D02*
X180293333Y-24922914D01*
X180293333Y-24922914D02*
X180198095Y-24970533D01*
X181245714Y-25684819D02*
X181436190Y-25684819D01*
X181436190Y-25684819D02*
X181531428Y-25637200D01*
X181531428Y-25637200D02*
X181579047Y-25589580D01*
X181579047Y-25589580D02*
X181674285Y-25446723D01*
X181674285Y-25446723D02*
X181721904Y-25256247D01*
X181721904Y-25256247D02*
X181721904Y-24875295D01*
X181721904Y-24875295D02*
X181674285Y-24780057D01*
X181674285Y-24780057D02*
X181626666Y-24732438D01*
X181626666Y-24732438D02*
X181531428Y-24684819D01*
X181531428Y-24684819D02*
X181340952Y-24684819D01*
X181340952Y-24684819D02*
X181245714Y-24732438D01*
X181245714Y-24732438D02*
X181198095Y-24780057D01*
X181198095Y-24780057D02*
X181150476Y-24875295D01*
X181150476Y-24875295D02*
X181150476Y-25113390D01*
X181150476Y-25113390D02*
X181198095Y-25208628D01*
X181198095Y-25208628D02*
X181245714Y-25256247D01*
X181245714Y-25256247D02*
X181340952Y-25303866D01*
X181340952Y-25303866D02*
X181531428Y-25303866D01*
X181531428Y-25303866D02*
X181626666Y-25256247D01*
X181626666Y-25256247D02*
X181674285Y-25208628D01*
X181674285Y-25208628D02*
X181721904Y-25113390D01*
X124653333Y-70279580D02*
X124605714Y-70327200D01*
X124605714Y-70327200D02*
X124462857Y-70374819D01*
X124462857Y-70374819D02*
X124367619Y-70374819D01*
X124367619Y-70374819D02*
X124224762Y-70327200D01*
X124224762Y-70327200D02*
X124129524Y-70231961D01*
X124129524Y-70231961D02*
X124081905Y-70136723D01*
X124081905Y-70136723D02*
X124034286Y-69946247D01*
X124034286Y-69946247D02*
X124034286Y-69803390D01*
X124034286Y-69803390D02*
X124081905Y-69612914D01*
X124081905Y-69612914D02*
X124129524Y-69517676D01*
X124129524Y-69517676D02*
X124224762Y-69422438D01*
X124224762Y-69422438D02*
X124367619Y-69374819D01*
X124367619Y-69374819D02*
X124462857Y-69374819D01*
X124462857Y-69374819D02*
X124605714Y-69422438D01*
X124605714Y-69422438D02*
X124653333Y-69470057D01*
X125605714Y-70374819D02*
X125034286Y-70374819D01*
X125320000Y-70374819D02*
X125320000Y-69374819D01*
X125320000Y-69374819D02*
X125224762Y-69517676D01*
X125224762Y-69517676D02*
X125129524Y-69612914D01*
X125129524Y-69612914D02*
X125034286Y-69660533D01*
X177317142Y-48154819D02*
X176983809Y-47678628D01*
X176745714Y-48154819D02*
X176745714Y-47154819D01*
X176745714Y-47154819D02*
X177126666Y-47154819D01*
X177126666Y-47154819D02*
X177221904Y-47202438D01*
X177221904Y-47202438D02*
X177269523Y-47250057D01*
X177269523Y-47250057D02*
X177317142Y-47345295D01*
X177317142Y-47345295D02*
X177317142Y-47488152D01*
X177317142Y-47488152D02*
X177269523Y-47583390D01*
X177269523Y-47583390D02*
X177221904Y-47631009D01*
X177221904Y-47631009D02*
X177126666Y-47678628D01*
X177126666Y-47678628D02*
X176745714Y-47678628D01*
X178269523Y-48154819D02*
X177698095Y-48154819D01*
X177983809Y-48154819D02*
X177983809Y-47154819D01*
X177983809Y-47154819D02*
X177888571Y-47297676D01*
X177888571Y-47297676D02*
X177793333Y-47392914D01*
X177793333Y-47392914D02*
X177698095Y-47440533D01*
X179126666Y-47488152D02*
X179126666Y-48154819D01*
X178888571Y-47107200D02*
X178650476Y-47821485D01*
X178650476Y-47821485D02*
X179269523Y-47821485D01*
X147364819Y-38616666D02*
X146888628Y-38949999D01*
X147364819Y-39188094D02*
X146364819Y-39188094D01*
X146364819Y-39188094D02*
X146364819Y-38807142D01*
X146364819Y-38807142D02*
X146412438Y-38711904D01*
X146412438Y-38711904D02*
X146460057Y-38664285D01*
X146460057Y-38664285D02*
X146555295Y-38616666D01*
X146555295Y-38616666D02*
X146698152Y-38616666D01*
X146698152Y-38616666D02*
X146793390Y-38664285D01*
X146793390Y-38664285D02*
X146841009Y-38711904D01*
X146841009Y-38711904D02*
X146888628Y-38807142D01*
X146888628Y-38807142D02*
X146888628Y-39188094D01*
X146793390Y-38045237D02*
X146745771Y-38140475D01*
X146745771Y-38140475D02*
X146698152Y-38188094D01*
X146698152Y-38188094D02*
X146602914Y-38235713D01*
X146602914Y-38235713D02*
X146555295Y-38235713D01*
X146555295Y-38235713D02*
X146460057Y-38188094D01*
X146460057Y-38188094D02*
X146412438Y-38140475D01*
X146412438Y-38140475D02*
X146364819Y-38045237D01*
X146364819Y-38045237D02*
X146364819Y-37854761D01*
X146364819Y-37854761D02*
X146412438Y-37759523D01*
X146412438Y-37759523D02*
X146460057Y-37711904D01*
X146460057Y-37711904D02*
X146555295Y-37664285D01*
X146555295Y-37664285D02*
X146602914Y-37664285D01*
X146602914Y-37664285D02*
X146698152Y-37711904D01*
X146698152Y-37711904D02*
X146745771Y-37759523D01*
X146745771Y-37759523D02*
X146793390Y-37854761D01*
X146793390Y-37854761D02*
X146793390Y-38045237D01*
X146793390Y-38045237D02*
X146841009Y-38140475D01*
X146841009Y-38140475D02*
X146888628Y-38188094D01*
X146888628Y-38188094D02*
X146983866Y-38235713D01*
X146983866Y-38235713D02*
X147174342Y-38235713D01*
X147174342Y-38235713D02*
X147269580Y-38188094D01*
X147269580Y-38188094D02*
X147317200Y-38140475D01*
X147317200Y-38140475D02*
X147364819Y-38045237D01*
X147364819Y-38045237D02*
X147364819Y-37854761D01*
X147364819Y-37854761D02*
X147317200Y-37759523D01*
X147317200Y-37759523D02*
X147269580Y-37711904D01*
X147269580Y-37711904D02*
X147174342Y-37664285D01*
X147174342Y-37664285D02*
X146983866Y-37664285D01*
X146983866Y-37664285D02*
X146888628Y-37711904D01*
X146888628Y-37711904D02*
X146841009Y-37759523D01*
X146841009Y-37759523D02*
X146793390Y-37854761D01*
X139194819Y-47042857D02*
X138718628Y-47376190D01*
X139194819Y-47614285D02*
X138194819Y-47614285D01*
X138194819Y-47614285D02*
X138194819Y-47233333D01*
X138194819Y-47233333D02*
X138242438Y-47138095D01*
X138242438Y-47138095D02*
X138290057Y-47090476D01*
X138290057Y-47090476D02*
X138385295Y-47042857D01*
X138385295Y-47042857D02*
X138528152Y-47042857D01*
X138528152Y-47042857D02*
X138623390Y-47090476D01*
X138623390Y-47090476D02*
X138671009Y-47138095D01*
X138671009Y-47138095D02*
X138718628Y-47233333D01*
X138718628Y-47233333D02*
X138718628Y-47614285D01*
X139194819Y-46090476D02*
X139194819Y-46661904D01*
X139194819Y-46376190D02*
X138194819Y-46376190D01*
X138194819Y-46376190D02*
X138337676Y-46471428D01*
X138337676Y-46471428D02*
X138432914Y-46566666D01*
X138432914Y-46566666D02*
X138480533Y-46661904D01*
X138194819Y-45471428D02*
X138194819Y-45376190D01*
X138194819Y-45376190D02*
X138242438Y-45280952D01*
X138242438Y-45280952D02*
X138290057Y-45233333D01*
X138290057Y-45233333D02*
X138385295Y-45185714D01*
X138385295Y-45185714D02*
X138575771Y-45138095D01*
X138575771Y-45138095D02*
X138813866Y-45138095D01*
X138813866Y-45138095D02*
X139004342Y-45185714D01*
X139004342Y-45185714D02*
X139099580Y-45233333D01*
X139099580Y-45233333D02*
X139147200Y-45280952D01*
X139147200Y-45280952D02*
X139194819Y-45376190D01*
X139194819Y-45376190D02*
X139194819Y-45471428D01*
X139194819Y-45471428D02*
X139147200Y-45566666D01*
X139147200Y-45566666D02*
X139099580Y-45614285D01*
X139099580Y-45614285D02*
X139004342Y-45661904D01*
X139004342Y-45661904D02*
X138813866Y-45709523D01*
X138813866Y-45709523D02*
X138575771Y-45709523D01*
X138575771Y-45709523D02*
X138385295Y-45661904D01*
X138385295Y-45661904D02*
X138290057Y-45614285D01*
X138290057Y-45614285D02*
X138242438Y-45566666D01*
X138242438Y-45566666D02*
X138194819Y-45471428D01*
X159827142Y-28854819D02*
X159493809Y-28378628D01*
X159255714Y-28854819D02*
X159255714Y-27854819D01*
X159255714Y-27854819D02*
X159636666Y-27854819D01*
X159636666Y-27854819D02*
X159731904Y-27902438D01*
X159731904Y-27902438D02*
X159779523Y-27950057D01*
X159779523Y-27950057D02*
X159827142Y-28045295D01*
X159827142Y-28045295D02*
X159827142Y-28188152D01*
X159827142Y-28188152D02*
X159779523Y-28283390D01*
X159779523Y-28283390D02*
X159731904Y-28331009D01*
X159731904Y-28331009D02*
X159636666Y-28378628D01*
X159636666Y-28378628D02*
X159255714Y-28378628D01*
X160208095Y-27950057D02*
X160255714Y-27902438D01*
X160255714Y-27902438D02*
X160350952Y-27854819D01*
X160350952Y-27854819D02*
X160589047Y-27854819D01*
X160589047Y-27854819D02*
X160684285Y-27902438D01*
X160684285Y-27902438D02*
X160731904Y-27950057D01*
X160731904Y-27950057D02*
X160779523Y-28045295D01*
X160779523Y-28045295D02*
X160779523Y-28140533D01*
X160779523Y-28140533D02*
X160731904Y-28283390D01*
X160731904Y-28283390D02*
X160160476Y-28854819D01*
X160160476Y-28854819D02*
X160779523Y-28854819D01*
X161398571Y-27854819D02*
X161493809Y-27854819D01*
X161493809Y-27854819D02*
X161589047Y-27902438D01*
X161589047Y-27902438D02*
X161636666Y-27950057D01*
X161636666Y-27950057D02*
X161684285Y-28045295D01*
X161684285Y-28045295D02*
X161731904Y-28235771D01*
X161731904Y-28235771D02*
X161731904Y-28473866D01*
X161731904Y-28473866D02*
X161684285Y-28664342D01*
X161684285Y-28664342D02*
X161636666Y-28759580D01*
X161636666Y-28759580D02*
X161589047Y-28807200D01*
X161589047Y-28807200D02*
X161493809Y-28854819D01*
X161493809Y-28854819D02*
X161398571Y-28854819D01*
X161398571Y-28854819D02*
X161303333Y-28807200D01*
X161303333Y-28807200D02*
X161255714Y-28759580D01*
X161255714Y-28759580D02*
X161208095Y-28664342D01*
X161208095Y-28664342D02*
X161160476Y-28473866D01*
X161160476Y-28473866D02*
X161160476Y-28235771D01*
X161160476Y-28235771D02*
X161208095Y-28045295D01*
X161208095Y-28045295D02*
X161255714Y-27950057D01*
X161255714Y-27950057D02*
X161303333Y-27902438D01*
X161303333Y-27902438D02*
X161398571Y-27854819D01*
X145624761Y-25820057D02*
X145529523Y-25772438D01*
X145529523Y-25772438D02*
X145434285Y-25677200D01*
X145434285Y-25677200D02*
X145291428Y-25534342D01*
X145291428Y-25534342D02*
X145196190Y-25486723D01*
X145196190Y-25486723D02*
X145100952Y-25486723D01*
X145148571Y-25724819D02*
X145053333Y-25677200D01*
X145053333Y-25677200D02*
X144958095Y-25581961D01*
X144958095Y-25581961D02*
X144910476Y-25391485D01*
X144910476Y-25391485D02*
X144910476Y-25058152D01*
X144910476Y-25058152D02*
X144958095Y-24867676D01*
X144958095Y-24867676D02*
X145053333Y-24772438D01*
X145053333Y-24772438D02*
X145148571Y-24724819D01*
X145148571Y-24724819D02*
X145339047Y-24724819D01*
X145339047Y-24724819D02*
X145434285Y-24772438D01*
X145434285Y-24772438D02*
X145529523Y-24867676D01*
X145529523Y-24867676D02*
X145577142Y-25058152D01*
X145577142Y-25058152D02*
X145577142Y-25391485D01*
X145577142Y-25391485D02*
X145529523Y-25581961D01*
X145529523Y-25581961D02*
X145434285Y-25677200D01*
X145434285Y-25677200D02*
X145339047Y-25724819D01*
X145339047Y-25724819D02*
X145148571Y-25724819D01*
X146434285Y-25058152D02*
X146434285Y-25724819D01*
X146196190Y-24677200D02*
X145958095Y-25391485D01*
X145958095Y-25391485D02*
X146577142Y-25391485D01*
X157704819Y-72638094D02*
X156704819Y-72638094D01*
X156704819Y-72638094D02*
X156704819Y-72399999D01*
X156704819Y-72399999D02*
X156752438Y-72257142D01*
X156752438Y-72257142D02*
X156847676Y-72161904D01*
X156847676Y-72161904D02*
X156942914Y-72114285D01*
X156942914Y-72114285D02*
X157133390Y-72066666D01*
X157133390Y-72066666D02*
X157276247Y-72066666D01*
X157276247Y-72066666D02*
X157466723Y-72114285D01*
X157466723Y-72114285D02*
X157561961Y-72161904D01*
X157561961Y-72161904D02*
X157657200Y-72257142D01*
X157657200Y-72257142D02*
X157704819Y-72399999D01*
X157704819Y-72399999D02*
X157704819Y-72638094D01*
X156704819Y-71209523D02*
X156704819Y-71399999D01*
X156704819Y-71399999D02*
X156752438Y-71495237D01*
X156752438Y-71495237D02*
X156800057Y-71542856D01*
X156800057Y-71542856D02*
X156942914Y-71638094D01*
X156942914Y-71638094D02*
X157133390Y-71685713D01*
X157133390Y-71685713D02*
X157514342Y-71685713D01*
X157514342Y-71685713D02*
X157609580Y-71638094D01*
X157609580Y-71638094D02*
X157657200Y-71590475D01*
X157657200Y-71590475D02*
X157704819Y-71495237D01*
X157704819Y-71495237D02*
X157704819Y-71304761D01*
X157704819Y-71304761D02*
X157657200Y-71209523D01*
X157657200Y-71209523D02*
X157609580Y-71161904D01*
X157609580Y-71161904D02*
X157514342Y-71114285D01*
X157514342Y-71114285D02*
X157276247Y-71114285D01*
X157276247Y-71114285D02*
X157181009Y-71161904D01*
X157181009Y-71161904D02*
X157133390Y-71209523D01*
X157133390Y-71209523D02*
X157085771Y-71304761D01*
X157085771Y-71304761D02*
X157085771Y-71495237D01*
X157085771Y-71495237D02*
X157133390Y-71590475D01*
X157133390Y-71590475D02*
X157181009Y-71638094D01*
X157181009Y-71638094D02*
X157276247Y-71685713D01*
X170208095Y-39374819D02*
X170208095Y-40184342D01*
X170208095Y-40184342D02*
X170255714Y-40279580D01*
X170255714Y-40279580D02*
X170303333Y-40327200D01*
X170303333Y-40327200D02*
X170398571Y-40374819D01*
X170398571Y-40374819D02*
X170589047Y-40374819D01*
X170589047Y-40374819D02*
X170684285Y-40327200D01*
X170684285Y-40327200D02*
X170731904Y-40279580D01*
X170731904Y-40279580D02*
X170779523Y-40184342D01*
X170779523Y-40184342D02*
X170779523Y-39374819D01*
X171160476Y-39374819D02*
X171779523Y-39374819D01*
X171779523Y-39374819D02*
X171446190Y-39755771D01*
X171446190Y-39755771D02*
X171589047Y-39755771D01*
X171589047Y-39755771D02*
X171684285Y-39803390D01*
X171684285Y-39803390D02*
X171731904Y-39851009D01*
X171731904Y-39851009D02*
X171779523Y-39946247D01*
X171779523Y-39946247D02*
X171779523Y-40184342D01*
X171779523Y-40184342D02*
X171731904Y-40279580D01*
X171731904Y-40279580D02*
X171684285Y-40327200D01*
X171684285Y-40327200D02*
X171589047Y-40374819D01*
X171589047Y-40374819D02*
X171303333Y-40374819D01*
X171303333Y-40374819D02*
X171208095Y-40327200D01*
X171208095Y-40327200D02*
X171160476Y-40279580D01*
X126344819Y-34826666D02*
X125868628Y-35159999D01*
X126344819Y-35398094D02*
X125344819Y-35398094D01*
X125344819Y-35398094D02*
X125344819Y-35017142D01*
X125344819Y-35017142D02*
X125392438Y-34921904D01*
X125392438Y-34921904D02*
X125440057Y-34874285D01*
X125440057Y-34874285D02*
X125535295Y-34826666D01*
X125535295Y-34826666D02*
X125678152Y-34826666D01*
X125678152Y-34826666D02*
X125773390Y-34874285D01*
X125773390Y-34874285D02*
X125821009Y-34921904D01*
X125821009Y-34921904D02*
X125868628Y-35017142D01*
X125868628Y-35017142D02*
X125868628Y-35398094D01*
X125344819Y-34493332D02*
X125344819Y-33874285D01*
X125344819Y-33874285D02*
X125725771Y-34207618D01*
X125725771Y-34207618D02*
X125725771Y-34064761D01*
X125725771Y-34064761D02*
X125773390Y-33969523D01*
X125773390Y-33969523D02*
X125821009Y-33921904D01*
X125821009Y-33921904D02*
X125916247Y-33874285D01*
X125916247Y-33874285D02*
X126154342Y-33874285D01*
X126154342Y-33874285D02*
X126249580Y-33921904D01*
X126249580Y-33921904D02*
X126297200Y-33969523D01*
X126297200Y-33969523D02*
X126344819Y-34064761D01*
X126344819Y-34064761D02*
X126344819Y-34350475D01*
X126344819Y-34350475D02*
X126297200Y-34445713D01*
X126297200Y-34445713D02*
X126249580Y-34493332D01*
X134344819Y-57334857D02*
X133868628Y-57668190D01*
X134344819Y-57906285D02*
X133344819Y-57906285D01*
X133344819Y-57906285D02*
X133344819Y-57525333D01*
X133344819Y-57525333D02*
X133392438Y-57430095D01*
X133392438Y-57430095D02*
X133440057Y-57382476D01*
X133440057Y-57382476D02*
X133535295Y-57334857D01*
X133535295Y-57334857D02*
X133678152Y-57334857D01*
X133678152Y-57334857D02*
X133773390Y-57382476D01*
X133773390Y-57382476D02*
X133821009Y-57430095D01*
X133821009Y-57430095D02*
X133868628Y-57525333D01*
X133868628Y-57525333D02*
X133868628Y-57906285D01*
X134344819Y-56382476D02*
X134344819Y-56953904D01*
X134344819Y-56668190D02*
X133344819Y-56668190D01*
X133344819Y-56668190D02*
X133487676Y-56763428D01*
X133487676Y-56763428D02*
X133582914Y-56858666D01*
X133582914Y-56858666D02*
X133630533Y-56953904D01*
X133344819Y-56049142D02*
X133344819Y-55382476D01*
X133344819Y-55382476D02*
X134344819Y-55811047D01*
X160783333Y-44739580D02*
X160735714Y-44787200D01*
X160735714Y-44787200D02*
X160592857Y-44834819D01*
X160592857Y-44834819D02*
X160497619Y-44834819D01*
X160497619Y-44834819D02*
X160354762Y-44787200D01*
X160354762Y-44787200D02*
X160259524Y-44691961D01*
X160259524Y-44691961D02*
X160211905Y-44596723D01*
X160211905Y-44596723D02*
X160164286Y-44406247D01*
X160164286Y-44406247D02*
X160164286Y-44263390D01*
X160164286Y-44263390D02*
X160211905Y-44072914D01*
X160211905Y-44072914D02*
X160259524Y-43977676D01*
X160259524Y-43977676D02*
X160354762Y-43882438D01*
X160354762Y-43882438D02*
X160497619Y-43834819D01*
X160497619Y-43834819D02*
X160592857Y-43834819D01*
X160592857Y-43834819D02*
X160735714Y-43882438D01*
X160735714Y-43882438D02*
X160783333Y-43930057D01*
X161640476Y-43834819D02*
X161450000Y-43834819D01*
X161450000Y-43834819D02*
X161354762Y-43882438D01*
X161354762Y-43882438D02*
X161307143Y-43930057D01*
X161307143Y-43930057D02*
X161211905Y-44072914D01*
X161211905Y-44072914D02*
X161164286Y-44263390D01*
X161164286Y-44263390D02*
X161164286Y-44644342D01*
X161164286Y-44644342D02*
X161211905Y-44739580D01*
X161211905Y-44739580D02*
X161259524Y-44787200D01*
X161259524Y-44787200D02*
X161354762Y-44834819D01*
X161354762Y-44834819D02*
X161545238Y-44834819D01*
X161545238Y-44834819D02*
X161640476Y-44787200D01*
X161640476Y-44787200D02*
X161688095Y-44739580D01*
X161688095Y-44739580D02*
X161735714Y-44644342D01*
X161735714Y-44644342D02*
X161735714Y-44406247D01*
X161735714Y-44406247D02*
X161688095Y-44311009D01*
X161688095Y-44311009D02*
X161640476Y-44263390D01*
X161640476Y-44263390D02*
X161545238Y-44215771D01*
X161545238Y-44215771D02*
X161354762Y-44215771D01*
X161354762Y-44215771D02*
X161259524Y-44263390D01*
X161259524Y-44263390D02*
X161211905Y-44311009D01*
X161211905Y-44311009D02*
X161164286Y-44406247D01*
X153714819Y-73358094D02*
X152714819Y-73358094D01*
X152714819Y-73358094D02*
X152714819Y-73119999D01*
X152714819Y-73119999D02*
X152762438Y-72977142D01*
X152762438Y-72977142D02*
X152857676Y-72881904D01*
X152857676Y-72881904D02*
X152952914Y-72834285D01*
X152952914Y-72834285D02*
X153143390Y-72786666D01*
X153143390Y-72786666D02*
X153286247Y-72786666D01*
X153286247Y-72786666D02*
X153476723Y-72834285D01*
X153476723Y-72834285D02*
X153571961Y-72881904D01*
X153571961Y-72881904D02*
X153667200Y-72977142D01*
X153667200Y-72977142D02*
X153714819Y-73119999D01*
X153714819Y-73119999D02*
X153714819Y-73358094D01*
X152714819Y-71881904D02*
X152714819Y-72358094D01*
X152714819Y-72358094D02*
X153191009Y-72405713D01*
X153191009Y-72405713D02*
X153143390Y-72358094D01*
X153143390Y-72358094D02*
X153095771Y-72262856D01*
X153095771Y-72262856D02*
X153095771Y-72024761D01*
X153095771Y-72024761D02*
X153143390Y-71929523D01*
X153143390Y-71929523D02*
X153191009Y-71881904D01*
X153191009Y-71881904D02*
X153286247Y-71834285D01*
X153286247Y-71834285D02*
X153524342Y-71834285D01*
X153524342Y-71834285D02*
X153619580Y-71881904D01*
X153619580Y-71881904D02*
X153667200Y-71929523D01*
X153667200Y-71929523D02*
X153714819Y-72024761D01*
X153714819Y-72024761D02*
X153714819Y-72262856D01*
X153714819Y-72262856D02*
X153667200Y-72358094D01*
X153667200Y-72358094D02*
X153619580Y-72405713D01*
X184003333Y-40919580D02*
X183955714Y-40967200D01*
X183955714Y-40967200D02*
X183812857Y-41014819D01*
X183812857Y-41014819D02*
X183717619Y-41014819D01*
X183717619Y-41014819D02*
X183574762Y-40967200D01*
X183574762Y-40967200D02*
X183479524Y-40871961D01*
X183479524Y-40871961D02*
X183431905Y-40776723D01*
X183431905Y-40776723D02*
X183384286Y-40586247D01*
X183384286Y-40586247D02*
X183384286Y-40443390D01*
X183384286Y-40443390D02*
X183431905Y-40252914D01*
X183431905Y-40252914D02*
X183479524Y-40157676D01*
X183479524Y-40157676D02*
X183574762Y-40062438D01*
X183574762Y-40062438D02*
X183717619Y-40014819D01*
X183717619Y-40014819D02*
X183812857Y-40014819D01*
X183812857Y-40014819D02*
X183955714Y-40062438D01*
X183955714Y-40062438D02*
X184003333Y-40110057D01*
X184336667Y-40014819D02*
X185003333Y-40014819D01*
X185003333Y-40014819D02*
X184574762Y-41014819D01*
X123234819Y-51618094D02*
X122234819Y-51618094D01*
X122234819Y-51618094D02*
X122234819Y-51379999D01*
X122234819Y-51379999D02*
X122282438Y-51237142D01*
X122282438Y-51237142D02*
X122377676Y-51141904D01*
X122377676Y-51141904D02*
X122472914Y-51094285D01*
X122472914Y-51094285D02*
X122663390Y-51046666D01*
X122663390Y-51046666D02*
X122806247Y-51046666D01*
X122806247Y-51046666D02*
X122996723Y-51094285D01*
X122996723Y-51094285D02*
X123091961Y-51141904D01*
X123091961Y-51141904D02*
X123187200Y-51237142D01*
X123187200Y-51237142D02*
X123234819Y-51379999D01*
X123234819Y-51379999D02*
X123234819Y-51618094D01*
X123234819Y-50094285D02*
X123234819Y-50665713D01*
X123234819Y-50379999D02*
X122234819Y-50379999D01*
X122234819Y-50379999D02*
X122377676Y-50475237D01*
X122377676Y-50475237D02*
X122472914Y-50570475D01*
X122472914Y-50570475D02*
X122520533Y-50665713D01*
X120444819Y-32406666D02*
X119968628Y-32739999D01*
X120444819Y-32978094D02*
X119444819Y-32978094D01*
X119444819Y-32978094D02*
X119444819Y-32597142D01*
X119444819Y-32597142D02*
X119492438Y-32501904D01*
X119492438Y-32501904D02*
X119540057Y-32454285D01*
X119540057Y-32454285D02*
X119635295Y-32406666D01*
X119635295Y-32406666D02*
X119778152Y-32406666D01*
X119778152Y-32406666D02*
X119873390Y-32454285D01*
X119873390Y-32454285D02*
X119921009Y-32501904D01*
X119921009Y-32501904D02*
X119968628Y-32597142D01*
X119968628Y-32597142D02*
X119968628Y-32978094D01*
X119540057Y-32025713D02*
X119492438Y-31978094D01*
X119492438Y-31978094D02*
X119444819Y-31882856D01*
X119444819Y-31882856D02*
X119444819Y-31644761D01*
X119444819Y-31644761D02*
X119492438Y-31549523D01*
X119492438Y-31549523D02*
X119540057Y-31501904D01*
X119540057Y-31501904D02*
X119635295Y-31454285D01*
X119635295Y-31454285D02*
X119730533Y-31454285D01*
X119730533Y-31454285D02*
X119873390Y-31501904D01*
X119873390Y-31501904D02*
X120444819Y-32073332D01*
X120444819Y-32073332D02*
X120444819Y-31454285D01*
X126478095Y-54624819D02*
X126478095Y-55434342D01*
X126478095Y-55434342D02*
X126525714Y-55529580D01*
X126525714Y-55529580D02*
X126573333Y-55577200D01*
X126573333Y-55577200D02*
X126668571Y-55624819D01*
X126668571Y-55624819D02*
X126859047Y-55624819D01*
X126859047Y-55624819D02*
X126954285Y-55577200D01*
X126954285Y-55577200D02*
X127001904Y-55529580D01*
X127001904Y-55529580D02*
X127049523Y-55434342D01*
X127049523Y-55434342D02*
X127049523Y-54624819D01*
X127478095Y-54720057D02*
X127525714Y-54672438D01*
X127525714Y-54672438D02*
X127620952Y-54624819D01*
X127620952Y-54624819D02*
X127859047Y-54624819D01*
X127859047Y-54624819D02*
X127954285Y-54672438D01*
X127954285Y-54672438D02*
X128001904Y-54720057D01*
X128001904Y-54720057D02*
X128049523Y-54815295D01*
X128049523Y-54815295D02*
X128049523Y-54910533D01*
X128049523Y-54910533D02*
X128001904Y-55053390D01*
X128001904Y-55053390D02*
X127430476Y-55624819D01*
X127430476Y-55624819D02*
X128049523Y-55624819D01*
X139123333Y-38044819D02*
X138790000Y-37568628D01*
X138551905Y-38044819D02*
X138551905Y-37044819D01*
X138551905Y-37044819D02*
X138932857Y-37044819D01*
X138932857Y-37044819D02*
X139028095Y-37092438D01*
X139028095Y-37092438D02*
X139075714Y-37140057D01*
X139075714Y-37140057D02*
X139123333Y-37235295D01*
X139123333Y-37235295D02*
X139123333Y-37378152D01*
X139123333Y-37378152D02*
X139075714Y-37473390D01*
X139075714Y-37473390D02*
X139028095Y-37521009D01*
X139028095Y-37521009D02*
X138932857Y-37568628D01*
X138932857Y-37568628D02*
X138551905Y-37568628D01*
X139980476Y-37378152D02*
X139980476Y-38044819D01*
X139742381Y-36997200D02*
X139504286Y-37711485D01*
X139504286Y-37711485D02*
X140123333Y-37711485D01*
X146074761Y-46150057D02*
X145979523Y-46102438D01*
X145979523Y-46102438D02*
X145884285Y-46007200D01*
X145884285Y-46007200D02*
X145741428Y-45864342D01*
X145741428Y-45864342D02*
X145646190Y-45816723D01*
X145646190Y-45816723D02*
X145550952Y-45816723D01*
X145598571Y-46054819D02*
X145503333Y-46007200D01*
X145503333Y-46007200D02*
X145408095Y-45911961D01*
X145408095Y-45911961D02*
X145360476Y-45721485D01*
X145360476Y-45721485D02*
X145360476Y-45388152D01*
X145360476Y-45388152D02*
X145408095Y-45197676D01*
X145408095Y-45197676D02*
X145503333Y-45102438D01*
X145503333Y-45102438D02*
X145598571Y-45054819D01*
X145598571Y-45054819D02*
X145789047Y-45054819D01*
X145789047Y-45054819D02*
X145884285Y-45102438D01*
X145884285Y-45102438D02*
X145979523Y-45197676D01*
X145979523Y-45197676D02*
X146027142Y-45388152D01*
X146027142Y-45388152D02*
X146027142Y-45721485D01*
X146027142Y-45721485D02*
X145979523Y-45911961D01*
X145979523Y-45911961D02*
X145884285Y-46007200D01*
X145884285Y-46007200D02*
X145789047Y-46054819D01*
X145789047Y-46054819D02*
X145598571Y-46054819D01*
X146360476Y-45054819D02*
X146979523Y-45054819D01*
X146979523Y-45054819D02*
X146646190Y-45435771D01*
X146646190Y-45435771D02*
X146789047Y-45435771D01*
X146789047Y-45435771D02*
X146884285Y-45483390D01*
X146884285Y-45483390D02*
X146931904Y-45531009D01*
X146931904Y-45531009D02*
X146979523Y-45626247D01*
X146979523Y-45626247D02*
X146979523Y-45864342D01*
X146979523Y-45864342D02*
X146931904Y-45959580D01*
X146931904Y-45959580D02*
X146884285Y-46007200D01*
X146884285Y-46007200D02*
X146789047Y-46054819D01*
X146789047Y-46054819D02*
X146503333Y-46054819D01*
X146503333Y-46054819D02*
X146408095Y-46007200D01*
X146408095Y-46007200D02*
X146360476Y-45959580D01*
D11*
%TO.C,C8*%
X179970000Y-38150000D02*
X179655000Y-38150000D01*
X179970000Y-38150000D02*
X179970000Y-43390000D01*
X177545000Y-38150000D02*
X177230000Y-38150000D01*
X177230000Y-38150000D02*
X177230000Y-43390000D01*
X179970000Y-43390000D02*
X179655000Y-43390000D01*
X177545000Y-43390000D02*
X177230000Y-43390000D01*
%TO.C,R1*%
X121000000Y-46540000D02*
X121000000Y-53080000D01*
X120670000Y-46540000D02*
X121000000Y-46540000D01*
X118590000Y-46540000D02*
X118260000Y-46540000D01*
X118260000Y-46540000D02*
X118260000Y-53080000D01*
X121000000Y-53080000D02*
X120670000Y-53080000D01*
X118260000Y-53080000D02*
X118590000Y-53080000D01*
%TO.C,C10*%
X149525000Y-52932918D02*
X149525000Y-54182918D01*
X150150000Y-53557918D02*
X148900000Y-53557918D01*
X152280000Y-59750000D02*
X139620000Y-59750000D01*
X152280000Y-59790000D02*
X139620000Y-59790000D01*
X152280000Y-59830000D02*
X139620000Y-59830000D01*
X152279000Y-59870000D02*
X139621000Y-59870000D01*
X152278000Y-59910000D02*
X139622000Y-59910000D01*
X152277000Y-59950000D02*
X139623000Y-59950000D01*
X152276000Y-59990000D02*
X139624000Y-59990000D01*
X152274000Y-60030000D02*
X139626000Y-60030000D01*
X152272000Y-60070000D02*
X139628000Y-60070000D01*
X152270000Y-60110000D02*
X139630000Y-60110000D01*
X152268000Y-60150000D02*
X139632000Y-60150000D01*
X152265000Y-60190000D02*
X139635000Y-60190000D01*
X152262000Y-60230000D02*
X139638000Y-60230000D01*
X152259000Y-60270000D02*
X139641000Y-60270000D01*
X152256000Y-60310000D02*
X139644000Y-60310000D01*
X152252000Y-60350000D02*
X139648000Y-60350000D01*
X152248000Y-60390000D02*
X139652000Y-60390000D01*
X152244000Y-60430000D02*
X139656000Y-60430000D01*
X152240000Y-60471000D02*
X139660000Y-60471000D01*
X152235000Y-60511000D02*
X139665000Y-60511000D01*
X152230000Y-60551000D02*
X139670000Y-60551000D01*
X152225000Y-60591000D02*
X139675000Y-60591000D01*
X152219000Y-60631000D02*
X139681000Y-60631000D01*
X152214000Y-60671000D02*
X139686000Y-60671000D01*
X152208000Y-60711000D02*
X139692000Y-60711000D01*
X152202000Y-60751000D02*
X139698000Y-60751000D01*
X152195000Y-60791000D02*
X139705000Y-60791000D01*
X152188000Y-60831000D02*
X147390000Y-60831000D01*
X144510000Y-60831000D02*
X139712000Y-60831000D01*
X152181000Y-60871000D02*
X147390000Y-60871000D01*
X144510000Y-60871000D02*
X139719000Y-60871000D01*
X152174000Y-60911000D02*
X147390000Y-60911000D01*
X144510000Y-60911000D02*
X139726000Y-60911000D01*
X152166000Y-60951000D02*
X147390000Y-60951000D01*
X144510000Y-60951000D02*
X139734000Y-60951000D01*
X152159000Y-60991000D02*
X147390000Y-60991000D01*
X144510000Y-60991000D02*
X139741000Y-60991000D01*
X152151000Y-61031000D02*
X147390000Y-61031000D01*
X144510000Y-61031000D02*
X139749000Y-61031000D01*
X152142000Y-61071000D02*
X147390000Y-61071000D01*
X144510000Y-61071000D02*
X139758000Y-61071000D01*
X152134000Y-61111000D02*
X147390000Y-61111000D01*
X144510000Y-61111000D02*
X139766000Y-61111000D01*
X152125000Y-61151000D02*
X147390000Y-61151000D01*
X144510000Y-61151000D02*
X139775000Y-61151000D01*
X152116000Y-61191000D02*
X147390000Y-61191000D01*
X144510000Y-61191000D02*
X139784000Y-61191000D01*
X152106000Y-61231000D02*
X147390000Y-61231000D01*
X144510000Y-61231000D02*
X139794000Y-61231000D01*
X152096000Y-61271000D02*
X147390000Y-61271000D01*
X144510000Y-61271000D02*
X139804000Y-61271000D01*
X152087000Y-61311000D02*
X147390000Y-61311000D01*
X144510000Y-61311000D02*
X139813000Y-61311000D01*
X152076000Y-61351000D02*
X147390000Y-61351000D01*
X144510000Y-61351000D02*
X139824000Y-61351000D01*
X152066000Y-61391000D02*
X147390000Y-61391000D01*
X144510000Y-61391000D02*
X139834000Y-61391000D01*
X152055000Y-61431000D02*
X147390000Y-61431000D01*
X144510000Y-61431000D02*
X139845000Y-61431000D01*
X152044000Y-61471000D02*
X147390000Y-61471000D01*
X144510000Y-61471000D02*
X139856000Y-61471000D01*
X152033000Y-61511000D02*
X147390000Y-61511000D01*
X144510000Y-61511000D02*
X139867000Y-61511000D01*
X152021000Y-61551000D02*
X147390000Y-61551000D01*
X144510000Y-61551000D02*
X139879000Y-61551000D01*
X152009000Y-61591000D02*
X147390000Y-61591000D01*
X144510000Y-61591000D02*
X139891000Y-61591000D01*
X151997000Y-61631000D02*
X147390000Y-61631000D01*
X144510000Y-61631000D02*
X139903000Y-61631000D01*
X151984000Y-61671000D02*
X147390000Y-61671000D01*
X144510000Y-61671000D02*
X139916000Y-61671000D01*
X151971000Y-61711000D02*
X147390000Y-61711000D01*
X144510000Y-61711000D02*
X139929000Y-61711000D01*
X151958000Y-61751000D02*
X147390000Y-61751000D01*
X144510000Y-61751000D02*
X139942000Y-61751000D01*
X151945000Y-61791000D02*
X147390000Y-61791000D01*
X144510000Y-61791000D02*
X139955000Y-61791000D01*
X151931000Y-61831000D02*
X147390000Y-61831000D01*
X144510000Y-61831000D02*
X139969000Y-61831000D01*
X151917000Y-61871000D02*
X147390000Y-61871000D01*
X144510000Y-61871000D02*
X139983000Y-61871000D01*
X151903000Y-61911000D02*
X147390000Y-61911000D01*
X144510000Y-61911000D02*
X139997000Y-61911000D01*
X151889000Y-61951000D02*
X147390000Y-61951000D01*
X144510000Y-61951000D02*
X140011000Y-61951000D01*
X151874000Y-61991000D02*
X147390000Y-61991000D01*
X144510000Y-61991000D02*
X140026000Y-61991000D01*
X151858000Y-62031000D02*
X147390000Y-62031000D01*
X144510000Y-62031000D02*
X140042000Y-62031000D01*
X151843000Y-62071000D02*
X147390000Y-62071000D01*
X144510000Y-62071000D02*
X140057000Y-62071000D01*
X151827000Y-62111000D02*
X147390000Y-62111000D01*
X144510000Y-62111000D02*
X140073000Y-62111000D01*
X151811000Y-62151000D02*
X147390000Y-62151000D01*
X144510000Y-62151000D02*
X140089000Y-62151000D01*
X151795000Y-62191000D02*
X147390000Y-62191000D01*
X144510000Y-62191000D02*
X140105000Y-62191000D01*
X151778000Y-62231000D02*
X147390000Y-62231000D01*
X144510000Y-62231000D02*
X140122000Y-62231000D01*
X151761000Y-62271000D02*
X147390000Y-62271000D01*
X144510000Y-62271000D02*
X140139000Y-62271000D01*
X151743000Y-62311000D02*
X147390000Y-62311000D01*
X144510000Y-62311000D02*
X140157000Y-62311000D01*
X151726000Y-62351000D02*
X147390000Y-62351000D01*
X144510000Y-62351000D02*
X140174000Y-62351000D01*
X151708000Y-62391000D02*
X147390000Y-62391000D01*
X144510000Y-62391000D02*
X140192000Y-62391000D01*
X151689000Y-62431000D02*
X147390000Y-62431000D01*
X144510000Y-62431000D02*
X140211000Y-62431000D01*
X151671000Y-62471000D02*
X147390000Y-62471000D01*
X144510000Y-62471000D02*
X140229000Y-62471000D01*
X151652000Y-62511000D02*
X147390000Y-62511000D01*
X144510000Y-62511000D02*
X140248000Y-62511000D01*
X151632000Y-62551000D02*
X147390000Y-62551000D01*
X144510000Y-62551000D02*
X140268000Y-62551000D01*
X151612000Y-62591000D02*
X147390000Y-62591000D01*
X144510000Y-62591000D02*
X140288000Y-62591000D01*
X151592000Y-62631000D02*
X147390000Y-62631000D01*
X144510000Y-62631000D02*
X140308000Y-62631000D01*
X151572000Y-62671000D02*
X147390000Y-62671000D01*
X144510000Y-62671000D02*
X140328000Y-62671000D01*
X151551000Y-62711000D02*
X147390000Y-62711000D01*
X144510000Y-62711000D02*
X140349000Y-62711000D01*
X151530000Y-62751000D02*
X147390000Y-62751000D01*
X144510000Y-62751000D02*
X140370000Y-62751000D01*
X151508000Y-62791000D02*
X147390000Y-62791000D01*
X144510000Y-62791000D02*
X140392000Y-62791000D01*
X151486000Y-62831000D02*
X147390000Y-62831000D01*
X144510000Y-62831000D02*
X140414000Y-62831000D01*
X151464000Y-62871000D02*
X147390000Y-62871000D01*
X144510000Y-62871000D02*
X140436000Y-62871000D01*
X151441000Y-62911000D02*
X147390000Y-62911000D01*
X144510000Y-62911000D02*
X140459000Y-62911000D01*
X151418000Y-62951000D02*
X147390000Y-62951000D01*
X144510000Y-62951000D02*
X140482000Y-62951000D01*
X151395000Y-62991000D02*
X147390000Y-62991000D01*
X144510000Y-62991000D02*
X140505000Y-62991000D01*
X151371000Y-63031000D02*
X147390000Y-63031000D01*
X144510000Y-63031000D02*
X140529000Y-63031000D01*
X151347000Y-63071000D02*
X147390000Y-63071000D01*
X144510000Y-63071000D02*
X140553000Y-63071000D01*
X151322000Y-63111000D02*
X147390000Y-63111000D01*
X144510000Y-63111000D02*
X140578000Y-63111000D01*
X151297000Y-63151000D02*
X147390000Y-63151000D01*
X144510000Y-63151000D02*
X140603000Y-63151000D01*
X151272000Y-63191000D02*
X147390000Y-63191000D01*
X144510000Y-63191000D02*
X140628000Y-63191000D01*
X151246000Y-63231000D02*
X147390000Y-63231000D01*
X144510000Y-63231000D02*
X140654000Y-63231000D01*
X151220000Y-63271000D02*
X147390000Y-63271000D01*
X144510000Y-63271000D02*
X140680000Y-63271000D01*
X151193000Y-63311000D02*
X147390000Y-63311000D01*
X144510000Y-63311000D02*
X140707000Y-63311000D01*
X151166000Y-63351000D02*
X147390000Y-63351000D01*
X144510000Y-63351000D02*
X140734000Y-63351000D01*
X151138000Y-63391000D02*
X147390000Y-63391000D01*
X144510000Y-63391000D02*
X140762000Y-63391000D01*
X151110000Y-63431000D02*
X147390000Y-63431000D01*
X144510000Y-63431000D02*
X140790000Y-63431000D01*
X151081000Y-63471000D02*
X147390000Y-63471000D01*
X144510000Y-63471000D02*
X140819000Y-63471000D01*
X151052000Y-63511000D02*
X147390000Y-63511000D01*
X144510000Y-63511000D02*
X140848000Y-63511000D01*
X151023000Y-63551000D02*
X147390000Y-63551000D01*
X144510000Y-63551000D02*
X140877000Y-63551000D01*
X150993000Y-63591000D02*
X147390000Y-63591000D01*
X144510000Y-63591000D02*
X140907000Y-63591000D01*
X150962000Y-63631000D02*
X147390000Y-63631000D01*
X144510000Y-63631000D02*
X140938000Y-63631000D01*
X150932000Y-63671000D02*
X147390000Y-63671000D01*
X144510000Y-63671000D02*
X140968000Y-63671000D01*
X150900000Y-63711000D02*
X141000000Y-63711000D01*
X150868000Y-63751000D02*
X141032000Y-63751000D01*
X150835000Y-63791000D02*
X141065000Y-63791000D01*
X150802000Y-63831000D02*
X141098000Y-63831000D01*
X150769000Y-63871000D02*
X141131000Y-63871000D01*
X150735000Y-63911000D02*
X141165000Y-63911000D01*
X150700000Y-63951000D02*
X141200000Y-63951000D01*
X150664000Y-63991000D02*
X141236000Y-63991000D01*
X150628000Y-64031000D02*
X141272000Y-64031000D01*
X150592000Y-64071000D02*
X141308000Y-64071000D01*
X150555000Y-64111000D02*
X141345000Y-64111000D01*
X150517000Y-64151000D02*
X141383000Y-64151000D01*
X150478000Y-64191000D02*
X141422000Y-64191000D01*
X150439000Y-64231000D02*
X141461000Y-64231000D01*
X150399000Y-64271000D02*
X141501000Y-64271000D01*
X150358000Y-64311000D02*
X141542000Y-64311000D01*
X150317000Y-64351000D02*
X141583000Y-64351000D01*
X150275000Y-64391000D02*
X141625000Y-64391000D01*
X150232000Y-64431000D02*
X141668000Y-64431000D01*
X150188000Y-64471000D02*
X141712000Y-64471000D01*
X150144000Y-64511000D02*
X141756000Y-64511000D01*
X150098000Y-64551000D02*
X141802000Y-64551000D01*
X150052000Y-64591000D02*
X141848000Y-64591000D01*
X150005000Y-64631000D02*
X141895000Y-64631000D01*
X149957000Y-64671000D02*
X141943000Y-64671000D01*
X149907000Y-64711000D02*
X141993000Y-64711000D01*
X149857000Y-64751000D02*
X142043000Y-64751000D01*
X149806000Y-64791000D02*
X142094000Y-64791000D01*
X149754000Y-64831000D02*
X142146000Y-64831000D01*
X149700000Y-64871000D02*
X142200000Y-64871000D01*
X149646000Y-64911000D02*
X142254000Y-64911000D01*
X149590000Y-64951000D02*
X142310000Y-64951000D01*
X149533000Y-64991000D02*
X142367000Y-64991000D01*
X149474000Y-65031000D02*
X142426000Y-65031000D01*
X149414000Y-65071000D02*
X142486000Y-65071000D01*
X149352000Y-65111000D02*
X142548000Y-65111000D01*
X149289000Y-65151000D02*
X142611000Y-65151000D01*
X149225000Y-65191000D02*
X142675000Y-65191000D01*
X149158000Y-65231000D02*
X142742000Y-65231000D01*
X149090000Y-65271000D02*
X142810000Y-65271000D01*
X149019000Y-65311000D02*
X142881000Y-65311000D01*
X148946000Y-65351000D02*
X142954000Y-65351000D01*
X148871000Y-65391000D02*
X143029000Y-65391000D01*
X148794000Y-65431000D02*
X143106000Y-65431000D01*
X148714000Y-65471000D02*
X143186000Y-65471000D01*
X148631000Y-65511000D02*
X143269000Y-65511000D01*
X148544000Y-65551000D02*
X143356000Y-65551000D01*
X148454000Y-65591000D02*
X143446000Y-65591000D01*
X148360000Y-65631000D02*
X143540000Y-65631000D01*
X148262000Y-65671000D02*
X143638000Y-65671000D01*
X148159000Y-65711000D02*
X143741000Y-65711000D01*
X148050000Y-65751000D02*
X143850000Y-65751000D01*
X147934000Y-65791000D02*
X143966000Y-65791000D01*
X147811000Y-65831000D02*
X144089000Y-65831000D01*
X147678000Y-65871000D02*
X144222000Y-65871000D01*
X147533000Y-65911000D02*
X144367000Y-65911000D01*
X147372000Y-65951000D02*
X144528000Y-65951000D01*
X147191000Y-65991000D02*
X144709000Y-65991000D01*
X146978000Y-66031000D02*
X144922000Y-66031000D01*
X146707000Y-66071000D02*
X145193000Y-66071000D01*
X146267000Y-66111000D02*
X145633000Y-66111000D01*
X152320000Y-59750000D02*
G75*
G03*
X139580000Y-59750000I-6370000J0D01*
G01*
X139580000Y-59750000D02*
G75*
G03*
X152320000Y-59750000I6370000J0D01*
G01*
%TO.C,D3*%
X184160000Y-49950000D02*
X184160000Y-49300000D01*
X183040000Y-49300000D02*
X185280000Y-49300000D01*
X185280000Y-49300000D02*
X185280000Y-45060000D01*
X183040000Y-48700000D02*
X185280000Y-48700000D01*
X183040000Y-48580000D02*
X185280000Y-48580000D01*
X183040000Y-48460000D02*
X185280000Y-48460000D01*
X183040000Y-45060000D02*
X183040000Y-49300000D01*
X185280000Y-45060000D02*
X183040000Y-45060000D01*
X184160000Y-44410000D02*
X184160000Y-45060000D01*
%TO.C,R5*%
X156610000Y-39130000D02*
X156610000Y-45670000D01*
X156280000Y-39130000D02*
X156610000Y-39130000D01*
X154200000Y-39130000D02*
X153870000Y-39130000D01*
X153870000Y-39130000D02*
X153870000Y-45670000D01*
X156610000Y-45670000D02*
X156280000Y-45670000D01*
X153870000Y-45670000D02*
X154200000Y-45670000D01*
%TO.C,U1*%
X95490000Y-27020000D02*
X95490000Y-27320000D01*
X95490000Y-27020000D02*
X116490000Y-27020000D01*
X95490000Y-29420000D02*
X95490000Y-29820000D01*
X95490000Y-29687000D02*
X98497000Y-29687000D01*
X95490000Y-32020000D02*
X95490000Y-32420000D01*
X95490000Y-34520000D02*
X95490000Y-34920000D01*
X95490000Y-37120000D02*
X95490000Y-37520000D01*
X95490000Y-39620000D02*
X95490000Y-40020000D01*
X95490000Y-42120000D02*
X95490000Y-42520000D01*
X95490000Y-44720000D02*
X95490000Y-45120000D01*
X95490000Y-47220000D02*
X95490000Y-47620000D01*
X95490000Y-49820000D02*
X95490000Y-50220000D01*
X95490000Y-52320000D02*
X95490000Y-52720000D01*
X95490000Y-54820000D02*
X95490000Y-55220000D01*
X95490000Y-57420000D02*
X95490000Y-57820000D01*
X95490000Y-59920000D02*
X95490000Y-60320000D01*
X95490000Y-62520000D02*
X95490000Y-62920000D01*
X95490000Y-65020000D02*
X95490000Y-65420000D01*
X95490000Y-67620000D02*
X95490000Y-68020000D01*
X95490000Y-70120000D02*
X95490000Y-70520000D01*
X95490000Y-72620000D02*
X95490000Y-73020000D01*
X95490000Y-75220000D02*
X95490000Y-75620000D01*
X98497000Y-29687000D02*
X98497000Y-27020000D01*
X102290000Y-78020000D02*
X95490000Y-78020000D01*
X104490000Y-78020000D02*
X104890000Y-78020000D01*
X107090000Y-78020000D02*
X107490000Y-78020000D01*
X116490000Y-27020000D02*
X116490000Y-27320000D01*
X116490000Y-29420000D02*
X116490000Y-29820000D01*
X116490000Y-32020000D02*
X116490000Y-32420000D01*
X116490000Y-34520000D02*
X116490000Y-34920000D01*
X116490000Y-37120000D02*
X116490000Y-37520000D01*
X116490000Y-39620000D02*
X116490000Y-40020000D01*
X116490000Y-42120000D02*
X116490000Y-42520000D01*
X116490000Y-44720000D02*
X116490000Y-45120000D01*
X116490000Y-47220000D02*
X116490000Y-47620000D01*
X116490000Y-49820000D02*
X116490000Y-50220000D01*
X116490000Y-52320000D02*
X116490000Y-52720000D01*
X116490000Y-54820000D02*
X116490000Y-55220000D01*
X116490000Y-57420000D02*
X116490000Y-57820000D01*
X116490000Y-59920000D02*
X116490000Y-60320000D01*
X116490000Y-62520000D02*
X116490000Y-62920000D01*
X116490000Y-65020000D02*
X116490000Y-65420000D01*
X116490000Y-67620000D02*
X116490000Y-68020000D01*
X116490000Y-70120000D02*
X116490000Y-70520000D01*
X116490000Y-72620000D02*
X116490000Y-73020000D01*
X116490000Y-75220000D02*
X116490000Y-75620000D01*
X116490000Y-78020000D02*
X109690000Y-78020000D01*
%TO.C,R16*%
X167290000Y-25190000D02*
X173830000Y-25190000D01*
X167290000Y-25520000D02*
X167290000Y-25190000D01*
X167290000Y-27600000D02*
X167290000Y-27930000D01*
X167290000Y-27930000D02*
X173830000Y-27930000D01*
X173830000Y-25190000D02*
X173830000Y-25520000D01*
X173830000Y-27930000D02*
X173830000Y-27600000D01*
%TO.C,C4*%
X137630000Y-73520000D02*
X137945000Y-73520000D01*
X137630000Y-73520000D02*
X137630000Y-68280000D01*
X140055000Y-73520000D02*
X140370000Y-73520000D01*
X140370000Y-73520000D02*
X140370000Y-68280000D01*
X137630000Y-68280000D02*
X137945000Y-68280000D01*
X140055000Y-68280000D02*
X140370000Y-68280000D01*
%TO.C,R9*%
X158630000Y-40380000D02*
X158630000Y-39610000D01*
X157260000Y-39610000D02*
X160000000Y-39610000D01*
X160000000Y-39610000D02*
X160000000Y-33070000D01*
X157260000Y-33070000D02*
X157260000Y-39610000D01*
X160000000Y-33070000D02*
X157260000Y-33070000D01*
X158630000Y-32300000D02*
X158630000Y-33070000D01*
%TO.C,D2*%
X147690000Y-75110000D02*
X147690000Y-69670000D01*
X147820000Y-75110000D02*
X147690000Y-75110000D01*
X150500000Y-75110000D02*
X150630000Y-75110000D01*
X150630000Y-75110000D02*
X150630000Y-69670000D01*
X147690000Y-74330000D02*
X150630000Y-74330000D01*
X147690000Y-74210000D02*
X150630000Y-74210000D01*
X147690000Y-74090000D02*
X150630000Y-74090000D01*
X147690000Y-69670000D02*
X147820000Y-69670000D01*
X150630000Y-69670000D02*
X150500000Y-69670000D01*
%TO.C,R13*%
X183570000Y-37250000D02*
X183570000Y-30710000D01*
X183900000Y-37250000D02*
X183570000Y-37250000D01*
X185980000Y-37250000D02*
X186310000Y-37250000D01*
X186310000Y-37250000D02*
X186310000Y-30710000D01*
X183570000Y-30710000D02*
X183900000Y-30710000D01*
X186310000Y-30710000D02*
X185980000Y-30710000D01*
%TO.C,R15*%
X177020000Y-35250000D02*
X177020000Y-28710000D01*
X177350000Y-35250000D02*
X177020000Y-35250000D01*
X179430000Y-35250000D02*
X179760000Y-35250000D01*
X179760000Y-35250000D02*
X179760000Y-28710000D01*
X177020000Y-28710000D02*
X177350000Y-28710000D01*
X179760000Y-28710000D02*
X179430000Y-28710000D01*
%TO.C,R12*%
X180430000Y-37250000D02*
X180430000Y-30710000D01*
X180760000Y-37250000D02*
X180430000Y-37250000D01*
X182840000Y-37250000D02*
X183170000Y-37250000D01*
X183170000Y-37250000D02*
X183170000Y-30710000D01*
X180430000Y-30710000D02*
X180760000Y-30710000D01*
X183170000Y-30710000D02*
X182840000Y-30710000D01*
%TO.C,Q2*%
X153130000Y-41730000D02*
X153130000Y-37880000D01*
X148830001Y-39790000D02*
G75*
G03*
X150331193Y-42146399I2599999J0D01*
G01*
X152552045Y-42112631D02*
G75*
G03*
X153130000Y-41730000I-1122045J2322631D01*
G01*
X150331193Y-37433600D02*
G75*
G03*
X148830000Y-39790000I1098807J-2356400D01*
G01*
X153129999Y-37880001D02*
G75*
G03*
X152542264Y-37487618I-1699999J-1909999D01*
G01*
%TO.C,R18*%
X143940000Y-75460000D02*
X143940000Y-68920000D01*
X144270000Y-75460000D02*
X143940000Y-75460000D01*
X146350000Y-75460000D02*
X146680000Y-75460000D01*
X146680000Y-75460000D02*
X146680000Y-68920000D01*
X143940000Y-68920000D02*
X144270000Y-68920000D01*
X146680000Y-68920000D02*
X146350000Y-68920000D01*
%TO.C,R7*%
X136570000Y-27810000D02*
X130030000Y-27810000D01*
X136570000Y-27480000D02*
X136570000Y-27810000D01*
X136570000Y-25400000D02*
X136570000Y-25070000D01*
X136570000Y-25070000D02*
X130030000Y-25070000D01*
X130030000Y-27810000D02*
X130030000Y-27480000D01*
X130030000Y-25070000D02*
X130030000Y-25400000D01*
%TO.C,C9*%
X164710000Y-46560000D02*
X164710000Y-46875000D01*
X164710000Y-46560000D02*
X169950000Y-46560000D01*
X164710000Y-48985000D02*
X164710000Y-49300000D01*
X164710000Y-49300000D02*
X169950000Y-49300000D01*
X169950000Y-46560000D02*
X169950000Y-46875000D01*
X169950000Y-48985000D02*
X169950000Y-49300000D01*
%TO.C,C2*%
X124324775Y-62845000D02*
X123824775Y-62845000D01*
X124074775Y-63095000D02*
X124074775Y-62595000D01*
X121520000Y-63950000D02*
X121520000Y-62410000D01*
X121520000Y-60330000D02*
X121520000Y-58790000D01*
X121480000Y-63950000D02*
X121480000Y-62410000D01*
X121480000Y-60330000D02*
X121480000Y-58790000D01*
X121440000Y-63949000D02*
X121440000Y-62410000D01*
X121440000Y-60330000D02*
X121440000Y-58791000D01*
X121400000Y-63948000D02*
X121400000Y-62410000D01*
X121400000Y-60330000D02*
X121400000Y-58792000D01*
X121360000Y-63946000D02*
X121360000Y-62410000D01*
X121360000Y-60330000D02*
X121360000Y-58794000D01*
X121320000Y-63943000D02*
X121320000Y-62410000D01*
X121320000Y-60330000D02*
X121320000Y-58797000D01*
X121280000Y-63939000D02*
X121280000Y-62410000D01*
X121280000Y-60330000D02*
X121280000Y-58801000D01*
X121240000Y-63935000D02*
X121240000Y-62410000D01*
X121240000Y-60330000D02*
X121240000Y-58805000D01*
X121200000Y-63931000D02*
X121200000Y-62410000D01*
X121200000Y-60330000D02*
X121200000Y-58809000D01*
X121160000Y-63926000D02*
X121160000Y-62410000D01*
X121160000Y-60330000D02*
X121160000Y-58814000D01*
X121120000Y-63920000D02*
X121120000Y-62410000D01*
X121120000Y-60330000D02*
X121120000Y-58820000D01*
X121080000Y-63913000D02*
X121080000Y-62410000D01*
X121080000Y-60330000D02*
X121080000Y-58827000D01*
X121040000Y-63906000D02*
X121040000Y-62410000D01*
X121040000Y-60330000D02*
X121040000Y-58834000D01*
X121000000Y-63898000D02*
X121000000Y-62410000D01*
X121000000Y-60330000D02*
X121000000Y-58842000D01*
X120960000Y-63890000D02*
X120960000Y-62410000D01*
X120960000Y-60330000D02*
X120960000Y-58850000D01*
X120920000Y-63881000D02*
X120920000Y-62410000D01*
X120920000Y-60330000D02*
X120920000Y-58859000D01*
X120880000Y-63871000D02*
X120880000Y-62410000D01*
X120880000Y-60330000D02*
X120880000Y-58869000D01*
X120840000Y-63861000D02*
X120840000Y-62410000D01*
X120840000Y-60330000D02*
X120840000Y-58879000D01*
X120799000Y-63850000D02*
X120799000Y-62410000D01*
X120799000Y-60330000D02*
X120799000Y-58890000D01*
X120759000Y-63838000D02*
X120759000Y-62410000D01*
X120759000Y-60330000D02*
X120759000Y-58902000D01*
X120719000Y-63825000D02*
X120719000Y-62410000D01*
X120719000Y-60330000D02*
X120719000Y-58915000D01*
X120679000Y-63812000D02*
X120679000Y-62410000D01*
X120679000Y-60330000D02*
X120679000Y-58928000D01*
X120639000Y-63798000D02*
X120639000Y-62410000D01*
X120639000Y-60330000D02*
X120639000Y-58942000D01*
X120599000Y-63784000D02*
X120599000Y-62410000D01*
X120599000Y-60330000D02*
X120599000Y-58956000D01*
X120559000Y-63768000D02*
X120559000Y-62410000D01*
X120559000Y-60330000D02*
X120559000Y-58972000D01*
X120519000Y-63752000D02*
X120519000Y-62410000D01*
X120519000Y-60330000D02*
X120519000Y-58988000D01*
X120479000Y-63735000D02*
X120479000Y-62410000D01*
X120479000Y-60330000D02*
X120479000Y-59005000D01*
X120439000Y-63718000D02*
X120439000Y-62410000D01*
X120439000Y-60330000D02*
X120439000Y-59022000D01*
X120399000Y-63699000D02*
X120399000Y-62410000D01*
X120399000Y-60330000D02*
X120399000Y-59041000D01*
X120359000Y-63680000D02*
X120359000Y-62410000D01*
X120359000Y-60330000D02*
X120359000Y-59060000D01*
X120319000Y-63660000D02*
X120319000Y-62410000D01*
X120319000Y-60330000D02*
X120319000Y-59080000D01*
X120279000Y-63638000D02*
X120279000Y-62410000D01*
X120279000Y-60330000D02*
X120279000Y-59102000D01*
X120239000Y-63617000D02*
X120239000Y-62410000D01*
X120239000Y-60330000D02*
X120239000Y-59123000D01*
X120199000Y-63594000D02*
X120199000Y-62410000D01*
X120199000Y-60330000D02*
X120199000Y-59146000D01*
X120159000Y-63570000D02*
X120159000Y-62410000D01*
X120159000Y-60330000D02*
X120159000Y-59170000D01*
X120119000Y-63545000D02*
X120119000Y-62410000D01*
X120119000Y-60330000D02*
X120119000Y-59195000D01*
X120079000Y-63519000D02*
X120079000Y-62410000D01*
X120079000Y-60330000D02*
X120079000Y-59221000D01*
X120039000Y-63492000D02*
X120039000Y-62410000D01*
X120039000Y-60330000D02*
X120039000Y-59248000D01*
X119999000Y-63465000D02*
X119999000Y-62410000D01*
X119999000Y-60330000D02*
X119999000Y-59275000D01*
X119959000Y-63435000D02*
X119959000Y-62410000D01*
X119959000Y-60330000D02*
X119959000Y-59305000D01*
X119919000Y-63405000D02*
X119919000Y-62410000D01*
X119919000Y-60330000D02*
X119919000Y-59335000D01*
X119879000Y-63374000D02*
X119879000Y-62410000D01*
X119879000Y-60330000D02*
X119879000Y-59366000D01*
X119839000Y-63341000D02*
X119839000Y-62410000D01*
X119839000Y-60330000D02*
X119839000Y-59399000D01*
X119799000Y-63307000D02*
X119799000Y-62410000D01*
X119799000Y-60330000D02*
X119799000Y-59433000D01*
X119759000Y-63271000D02*
X119759000Y-62410000D01*
X119759000Y-60330000D02*
X119759000Y-59469000D01*
X119719000Y-63234000D02*
X119719000Y-62410000D01*
X119719000Y-60330000D02*
X119719000Y-59506000D01*
X119679000Y-63196000D02*
X119679000Y-62410000D01*
X119679000Y-60330000D02*
X119679000Y-59544000D01*
X119639000Y-63155000D02*
X119639000Y-62410000D01*
X119639000Y-60330000D02*
X119639000Y-59585000D01*
X119599000Y-63113000D02*
X119599000Y-62410000D01*
X119599000Y-60330000D02*
X119599000Y-59627000D01*
X119559000Y-63069000D02*
X119559000Y-62410000D01*
X119559000Y-60330000D02*
X119559000Y-59671000D01*
X119519000Y-63023000D02*
X119519000Y-62410000D01*
X119519000Y-60330000D02*
X119519000Y-59717000D01*
X119479000Y-62975000D02*
X119479000Y-59765000D01*
X119439000Y-62924000D02*
X119439000Y-59816000D01*
X119399000Y-62870000D02*
X119399000Y-59870000D01*
X119359000Y-62813000D02*
X119359000Y-59927000D01*
X119319000Y-62753000D02*
X119319000Y-59987000D01*
X119279000Y-62689000D02*
X119279000Y-60051000D01*
X119239000Y-62621000D02*
X119239000Y-60119000D01*
X119199000Y-62548000D02*
X119199000Y-60192000D01*
X119159000Y-62468000D02*
X119159000Y-60272000D01*
X119119000Y-62381000D02*
X119119000Y-60359000D01*
X119079000Y-62285000D02*
X119079000Y-60455000D01*
X119039000Y-62175000D02*
X119039000Y-60565000D01*
X118999000Y-62047000D02*
X118999000Y-60693000D01*
X118959000Y-61888000D02*
X118959000Y-60852000D01*
X118919000Y-61654000D02*
X118919000Y-61086000D01*
X124140000Y-61370000D02*
G75*
G03*
X118900000Y-61370000I-2620000J0D01*
G01*
X118900000Y-61370000D02*
G75*
G03*
X124140000Y-61370000I2620000J0D01*
G01*
%TO.C,D4*%
X175330000Y-55160000D02*
X175980000Y-55160000D01*
X175980000Y-54040000D02*
X175980000Y-56280000D01*
X175980000Y-56280000D02*
X180220000Y-56280000D01*
X176580000Y-54040000D02*
X176580000Y-56280000D01*
X176700000Y-54040000D02*
X176700000Y-56280000D01*
X176820000Y-54040000D02*
X176820000Y-56280000D01*
X180220000Y-54040000D02*
X175980000Y-54040000D01*
X180220000Y-56280000D02*
X180220000Y-54040000D01*
X180870000Y-55160000D02*
X180220000Y-55160000D01*
%TO.C,R11*%
X166860000Y-44310000D02*
X167630000Y-44310000D01*
X167630000Y-42940000D02*
X167630000Y-45680000D01*
X167630000Y-45680000D02*
X174170000Y-45680000D01*
X174170000Y-42940000D02*
X167630000Y-42940000D01*
X174170000Y-45680000D02*
X174170000Y-42940000D01*
X174940000Y-44310000D02*
X174170000Y-44310000D01*
%TO.C,Q1*%
X127780000Y-35250000D02*
X127780000Y-39100000D01*
X132079999Y-37190000D02*
G75*
G03*
X130578807Y-34833601I-2599999J0D01*
G01*
X128357955Y-34867369D02*
G75*
G03*
X127780000Y-35250000I1122045J-2322631D01*
G01*
X130578807Y-39546400D02*
G75*
G03*
X132080000Y-37190000I-1098807J2356400D01*
G01*
X127780001Y-39099999D02*
G75*
G03*
X128367736Y-39492382I1699999J1909999D01*
G01*
%TO.C,C3*%
X140760000Y-73520000D02*
X141075000Y-73520000D01*
X140760000Y-73520000D02*
X140760000Y-68280000D01*
X143185000Y-73520000D02*
X143500000Y-73520000D01*
X143500000Y-73520000D02*
X143500000Y-68280000D01*
X140760000Y-68280000D02*
X141075000Y-68280000D01*
X143185000Y-68280000D02*
X143500000Y-68280000D01*
%TO.C,C5*%
X165210000Y-32700000D02*
X164895000Y-32700000D01*
X165210000Y-32700000D02*
X165210000Y-37940000D01*
X162785000Y-32700000D02*
X162470000Y-32700000D01*
X162470000Y-32700000D02*
X162470000Y-37940000D01*
X165210000Y-37940000D02*
X164895000Y-37940000D01*
X162785000Y-37940000D02*
X162470000Y-37940000D01*
%TO.C,J1*%
X118460000Y-71010000D02*
X118460000Y-78630000D01*
X118460000Y-78630000D02*
X128620000Y-78630000D01*
X128620000Y-71010000D02*
X118460000Y-71010000D01*
X128620000Y-77360000D02*
X118460000Y-77360000D01*
X128620000Y-78630000D02*
X128620000Y-71010000D01*
%TO.C,R6*%
X154780000Y-64360000D02*
X154780000Y-49820000D01*
X156110000Y-64360000D02*
X154780000Y-64360000D01*
X159390000Y-64360000D02*
X160720000Y-64360000D01*
X160720000Y-64360000D02*
X160720000Y-49820000D01*
X154780000Y-49820000D02*
X156110000Y-49820000D01*
X160720000Y-49820000D02*
X159390000Y-49820000D01*
%TO.C,R19*%
X177170000Y-23850000D02*
X183710000Y-23850000D01*
X177170000Y-24180000D02*
X177170000Y-23850000D01*
X177170000Y-26260000D02*
X177170000Y-26590000D01*
X177170000Y-26590000D02*
X183710000Y-26590000D01*
X183710000Y-23850000D02*
X183710000Y-24180000D01*
X183710000Y-26590000D02*
X183710000Y-26260000D01*
%TO.C,C1*%
X124464775Y-68915000D02*
X123964775Y-68915000D01*
X124214775Y-69165000D02*
X124214775Y-68665000D01*
X121660000Y-70020000D02*
X121660000Y-68480000D01*
X121660000Y-66400000D02*
X121660000Y-64860000D01*
X121620000Y-70020000D02*
X121620000Y-68480000D01*
X121620000Y-66400000D02*
X121620000Y-64860000D01*
X121580000Y-70019000D02*
X121580000Y-68480000D01*
X121580000Y-66400000D02*
X121580000Y-64861000D01*
X121540000Y-70018000D02*
X121540000Y-68480000D01*
X121540000Y-66400000D02*
X121540000Y-64862000D01*
X121500000Y-70016000D02*
X121500000Y-68480000D01*
X121500000Y-66400000D02*
X121500000Y-64864000D01*
X121460000Y-70013000D02*
X121460000Y-68480000D01*
X121460000Y-66400000D02*
X121460000Y-64867000D01*
X121420000Y-70009000D02*
X121420000Y-68480000D01*
X121420000Y-66400000D02*
X121420000Y-64871000D01*
X121380000Y-70005000D02*
X121380000Y-68480000D01*
X121380000Y-66400000D02*
X121380000Y-64875000D01*
X121340000Y-70001000D02*
X121340000Y-68480000D01*
X121340000Y-66400000D02*
X121340000Y-64879000D01*
X121300000Y-69996000D02*
X121300000Y-68480000D01*
X121300000Y-66400000D02*
X121300000Y-64884000D01*
X121260000Y-69990000D02*
X121260000Y-68480000D01*
X121260000Y-66400000D02*
X121260000Y-64890000D01*
X121220000Y-69983000D02*
X121220000Y-68480000D01*
X121220000Y-66400000D02*
X121220000Y-64897000D01*
X121180000Y-69976000D02*
X121180000Y-68480000D01*
X121180000Y-66400000D02*
X121180000Y-64904000D01*
X121140000Y-69968000D02*
X121140000Y-68480000D01*
X121140000Y-66400000D02*
X121140000Y-64912000D01*
X121100000Y-69960000D02*
X121100000Y-68480000D01*
X121100000Y-66400000D02*
X121100000Y-64920000D01*
X121060000Y-69951000D02*
X121060000Y-68480000D01*
X121060000Y-66400000D02*
X121060000Y-64929000D01*
X121020000Y-69941000D02*
X121020000Y-68480000D01*
X121020000Y-66400000D02*
X121020000Y-64939000D01*
X120980000Y-69931000D02*
X120980000Y-68480000D01*
X120980000Y-66400000D02*
X120980000Y-64949000D01*
X120939000Y-69920000D02*
X120939000Y-68480000D01*
X120939000Y-66400000D02*
X120939000Y-64960000D01*
X120899000Y-69908000D02*
X120899000Y-68480000D01*
X120899000Y-66400000D02*
X120899000Y-64972000D01*
X120859000Y-69895000D02*
X120859000Y-68480000D01*
X120859000Y-66400000D02*
X120859000Y-64985000D01*
X120819000Y-69882000D02*
X120819000Y-68480000D01*
X120819000Y-66400000D02*
X120819000Y-64998000D01*
X120779000Y-69868000D02*
X120779000Y-68480000D01*
X120779000Y-66400000D02*
X120779000Y-65012000D01*
X120739000Y-69854000D02*
X120739000Y-68480000D01*
X120739000Y-66400000D02*
X120739000Y-65026000D01*
X120699000Y-69838000D02*
X120699000Y-68480000D01*
X120699000Y-66400000D02*
X120699000Y-65042000D01*
X120659000Y-69822000D02*
X120659000Y-68480000D01*
X120659000Y-66400000D02*
X120659000Y-65058000D01*
X120619000Y-69805000D02*
X120619000Y-68480000D01*
X120619000Y-66400000D02*
X120619000Y-65075000D01*
X120579000Y-69788000D02*
X120579000Y-68480000D01*
X120579000Y-66400000D02*
X120579000Y-65092000D01*
X120539000Y-69769000D02*
X120539000Y-68480000D01*
X120539000Y-66400000D02*
X120539000Y-65111000D01*
X120499000Y-69750000D02*
X120499000Y-68480000D01*
X120499000Y-66400000D02*
X120499000Y-65130000D01*
X120459000Y-69730000D02*
X120459000Y-68480000D01*
X120459000Y-66400000D02*
X120459000Y-65150000D01*
X120419000Y-69708000D02*
X120419000Y-68480000D01*
X120419000Y-66400000D02*
X120419000Y-65172000D01*
X120379000Y-69687000D02*
X120379000Y-68480000D01*
X120379000Y-66400000D02*
X120379000Y-65193000D01*
X120339000Y-69664000D02*
X120339000Y-68480000D01*
X120339000Y-66400000D02*
X120339000Y-65216000D01*
X120299000Y-69640000D02*
X120299000Y-68480000D01*
X120299000Y-66400000D02*
X120299000Y-65240000D01*
X120259000Y-69615000D02*
X120259000Y-68480000D01*
X120259000Y-66400000D02*
X120259000Y-65265000D01*
X120219000Y-69589000D02*
X120219000Y-68480000D01*
X120219000Y-66400000D02*
X120219000Y-65291000D01*
X120179000Y-69562000D02*
X120179000Y-68480000D01*
X120179000Y-66400000D02*
X120179000Y-65318000D01*
X120139000Y-69535000D02*
X120139000Y-68480000D01*
X120139000Y-66400000D02*
X120139000Y-65345000D01*
X120099000Y-69505000D02*
X120099000Y-68480000D01*
X120099000Y-66400000D02*
X120099000Y-65375000D01*
X120059000Y-69475000D02*
X120059000Y-68480000D01*
X120059000Y-66400000D02*
X120059000Y-65405000D01*
X120019000Y-69444000D02*
X120019000Y-68480000D01*
X120019000Y-66400000D02*
X120019000Y-65436000D01*
X119979000Y-69411000D02*
X119979000Y-68480000D01*
X119979000Y-66400000D02*
X119979000Y-65469000D01*
X119939000Y-69377000D02*
X119939000Y-68480000D01*
X119939000Y-66400000D02*
X119939000Y-65503000D01*
X119899000Y-69341000D02*
X119899000Y-68480000D01*
X119899000Y-66400000D02*
X119899000Y-65539000D01*
X119859000Y-69304000D02*
X119859000Y-68480000D01*
X119859000Y-66400000D02*
X119859000Y-65576000D01*
X119819000Y-69266000D02*
X119819000Y-68480000D01*
X119819000Y-66400000D02*
X119819000Y-65614000D01*
X119779000Y-69225000D02*
X119779000Y-68480000D01*
X119779000Y-66400000D02*
X119779000Y-65655000D01*
X119739000Y-69183000D02*
X119739000Y-68480000D01*
X119739000Y-66400000D02*
X119739000Y-65697000D01*
X119699000Y-69139000D02*
X119699000Y-68480000D01*
X119699000Y-66400000D02*
X119699000Y-65741000D01*
X119659000Y-69093000D02*
X119659000Y-68480000D01*
X119659000Y-66400000D02*
X119659000Y-65787000D01*
X119619000Y-69045000D02*
X119619000Y-65835000D01*
X119579000Y-68994000D02*
X119579000Y-65886000D01*
X119539000Y-68940000D02*
X119539000Y-65940000D01*
X119499000Y-68883000D02*
X119499000Y-65997000D01*
X119459000Y-68823000D02*
X119459000Y-66057000D01*
X119419000Y-68759000D02*
X119419000Y-66121000D01*
X119379000Y-68691000D02*
X119379000Y-66189000D01*
X119339000Y-68618000D02*
X119339000Y-66262000D01*
X119299000Y-68538000D02*
X119299000Y-66342000D01*
X119259000Y-68451000D02*
X119259000Y-66429000D01*
X119219000Y-68355000D02*
X119219000Y-66525000D01*
X119179000Y-68245000D02*
X119179000Y-66635000D01*
X119139000Y-68117000D02*
X119139000Y-66763000D01*
X119099000Y-67958000D02*
X119099000Y-66922000D01*
X119059000Y-67724000D02*
X119059000Y-67156000D01*
X124280000Y-67440000D02*
G75*
G03*
X119040000Y-67440000I-2620000J0D01*
G01*
X119040000Y-67440000D02*
G75*
G03*
X124280000Y-67440000I2620000J0D01*
G01*
%TO.C,R14*%
X181230000Y-49080000D02*
X174690000Y-49080000D01*
X181230000Y-48750000D02*
X181230000Y-49080000D01*
X181230000Y-46670000D02*
X181230000Y-46340000D01*
X181230000Y-46340000D02*
X174690000Y-46340000D01*
X174690000Y-49080000D02*
X174690000Y-48750000D01*
X174690000Y-46340000D02*
X174690000Y-46670000D01*
%TO.C,R8*%
X145600000Y-41720000D02*
X145600000Y-35180000D01*
X145930000Y-41720000D02*
X145600000Y-41720000D01*
X148010000Y-41720000D02*
X148340000Y-41720000D01*
X148340000Y-41720000D02*
X148340000Y-35180000D01*
X145600000Y-35180000D02*
X145930000Y-35180000D01*
X148340000Y-35180000D02*
X148010000Y-35180000D01*
%TO.C,R10*%
X140280000Y-43220000D02*
X140280000Y-49760000D01*
X139950000Y-43220000D02*
X140280000Y-43220000D01*
X137870000Y-43220000D02*
X137540000Y-43220000D01*
X137540000Y-43220000D02*
X137540000Y-49760000D01*
X140280000Y-49760000D02*
X139950000Y-49760000D01*
X137540000Y-49760000D02*
X137870000Y-49760000D01*
%TO.C,R20*%
X163730000Y-29780000D02*
X157190000Y-29780000D01*
X163730000Y-29450000D02*
X163730000Y-29780000D01*
X163730000Y-27370000D02*
X163730000Y-27040000D01*
X163730000Y-27040000D02*
X157190000Y-27040000D01*
X157190000Y-29780000D02*
X157190000Y-29450000D01*
X157190000Y-27040000D02*
X157190000Y-27370000D01*
%TO.C,Q4*%
X143250000Y-30540000D02*
X147100000Y-30540000D01*
X145190000Y-26240001D02*
G75*
G03*
X142833601Y-27741193I0J-2599999D01*
G01*
X142867369Y-29962045D02*
G75*
G03*
X143250000Y-30540000I2322631J1122045D01*
G01*
X147546400Y-27741193D02*
G75*
G03*
X145190000Y-26240000I-2356400J-1098807D01*
G01*
X147099999Y-30539999D02*
G75*
G03*
X147492382Y-29952264I-1909999J1699999D01*
G01*
%TO.C,D6*%
X155780000Y-75000000D02*
X155780000Y-69560000D01*
X155910000Y-75000000D02*
X155780000Y-75000000D01*
X158590000Y-75000000D02*
X158720000Y-75000000D01*
X158720000Y-75000000D02*
X158720000Y-69560000D01*
X155780000Y-74220000D02*
X158720000Y-74220000D01*
X155780000Y-74100000D02*
X158720000Y-74100000D01*
X155780000Y-73980000D02*
X158720000Y-73980000D01*
X155780000Y-69560000D02*
X155910000Y-69560000D01*
X158720000Y-69560000D02*
X158590000Y-69560000D01*
%TO.C,U3*%
X165740000Y-38890000D02*
X176140000Y-38890000D01*
X176140000Y-38890000D02*
X176140000Y-28610000D01*
X165800000Y-36400000D02*
X176080000Y-36400000D01*
X176080000Y-36400000D02*
X176080000Y-31100000D01*
X165800000Y-34750000D02*
X165800000Y-36400000D01*
X165800000Y-31100000D02*
X165800000Y-32750000D01*
X176080000Y-31100000D02*
X165800000Y-31100000D01*
X165740000Y-28610000D02*
X165740000Y-38890000D01*
X176140000Y-28610000D02*
X165740000Y-28610000D01*
X165800000Y-34750000D02*
G75*
G03*
X165800000Y-32750000I0J1000000D01*
G01*
%TO.C,R3*%
X125950000Y-30660000D02*
X125950000Y-31430000D01*
X127320000Y-31430000D02*
X124580000Y-31430000D01*
X124580000Y-31430000D02*
X124580000Y-37970000D01*
X127320000Y-37970000D02*
X127320000Y-31430000D01*
X124580000Y-37970000D02*
X127320000Y-37970000D01*
X125950000Y-38740000D02*
X125950000Y-37970000D01*
%TO.C,R17*%
X136910000Y-49360000D02*
X136910000Y-63900000D01*
X135580000Y-49360000D02*
X136910000Y-49360000D01*
X132300000Y-49360000D02*
X130970000Y-49360000D01*
X130970000Y-49360000D02*
X130970000Y-63900000D01*
X136910000Y-63900000D02*
X135580000Y-63900000D01*
X130970000Y-63900000D02*
X132300000Y-63900000D01*
%TO.C,C6*%
X158320000Y-43000000D02*
X158320000Y-43315000D01*
X158320000Y-43000000D02*
X163560000Y-43000000D01*
X158320000Y-45425000D02*
X158320000Y-45740000D01*
X158320000Y-45740000D02*
X163560000Y-45740000D01*
X163560000Y-43000000D02*
X163560000Y-43315000D01*
X163560000Y-45425000D02*
X163560000Y-45740000D01*
%TO.C,D5*%
X154760000Y-69500000D02*
X154760000Y-74940000D01*
X154630000Y-69500000D02*
X154760000Y-69500000D01*
X151950000Y-69500000D02*
X151820000Y-69500000D01*
X151820000Y-69500000D02*
X151820000Y-74940000D01*
X154760000Y-70280000D02*
X151820000Y-70280000D01*
X154760000Y-70400000D02*
X151820000Y-70400000D01*
X154760000Y-70520000D02*
X151820000Y-70520000D01*
X154760000Y-74940000D02*
X154630000Y-74940000D01*
X151820000Y-74940000D02*
X151950000Y-74940000D01*
%TO.C,C7*%
X186830000Y-41910000D02*
X186830000Y-41595000D01*
X186830000Y-41910000D02*
X181590000Y-41910000D01*
X186830000Y-39485000D02*
X186830000Y-39170000D01*
X186830000Y-39170000D02*
X181590000Y-39170000D01*
X181590000Y-41910000D02*
X181590000Y-41595000D01*
X181590000Y-39485000D02*
X181590000Y-39170000D01*
%TO.C,D1*%
X122830000Y-45500000D02*
X122830000Y-47790000D01*
X124300000Y-47790000D02*
X121360000Y-47790000D01*
X121360000Y-47790000D02*
X121360000Y-53230000D01*
X124300000Y-48570000D02*
X121360000Y-48570000D01*
X124300000Y-48690000D02*
X121360000Y-48690000D01*
X124300000Y-48810000D02*
X121360000Y-48810000D01*
X124300000Y-53230000D02*
X124300000Y-47790000D01*
X121360000Y-53230000D02*
X124300000Y-53230000D01*
X122830000Y-55520000D02*
X122830000Y-53230000D01*
%TO.C,R2*%
X121360000Y-28970000D02*
X121360000Y-35510000D01*
X121030000Y-28970000D02*
X121360000Y-28970000D01*
X118950000Y-28970000D02*
X118620000Y-28970000D01*
X118620000Y-28970000D02*
X118620000Y-35510000D01*
X121360000Y-35510000D02*
X121030000Y-35510000D01*
X118620000Y-35510000D02*
X118950000Y-35510000D01*
%TO.C,U2*%
X124900000Y-66360000D02*
X129541000Y-66360000D01*
X124900000Y-66360000D02*
X124900000Y-56120000D01*
X126410000Y-66360000D02*
X126410000Y-56120000D01*
X129541000Y-66360000D02*
X129541000Y-56120000D01*
X124900000Y-63090000D02*
X126410000Y-63090000D01*
X124900000Y-59389000D02*
X126410000Y-59389000D01*
X124900000Y-56120000D02*
X129541000Y-56120000D01*
%TO.C,R4*%
X143290000Y-37620000D02*
X142520000Y-37620000D01*
X142520000Y-38990000D02*
X142520000Y-36250000D01*
X142520000Y-36250000D02*
X135980000Y-36250000D01*
X135980000Y-38990000D02*
X142520000Y-38990000D01*
X135980000Y-36250000D02*
X135980000Y-38990000D01*
X135210000Y-37620000D02*
X135980000Y-37620000D01*
%TO.C,Q3*%
X141050000Y-46600000D02*
X141050000Y-51241000D01*
X141050000Y-46600000D02*
X151290000Y-46600000D01*
X141050000Y-48110000D02*
X151290000Y-48110000D01*
X141050000Y-51241000D02*
X151290000Y-51241000D01*
X144320000Y-46600000D02*
X144320000Y-48110000D01*
X148021000Y-46600000D02*
X148021000Y-48110000D01*
X151290000Y-46600000D02*
X151290000Y-51241000D01*
%TD*%
M02*
