M48
; DRILL file {KiCad 7.0.11+dfsg-1build4} date Fri 10 Oct 2025 03:34:23 PM CDT
; FORMAT={-:-/ absolute / inch / decimal}
; #@! TF.CreationDate,2025-10-10T15:34:23-05:00
; #@! TF.GenerationSoftware,Kicad,Pcbnew,7.0.11+dfsg-1build4
; #@! TF.FileFunction,Plated,1,2,PTH
FMAT,2
INCH
; #@! TA.AperFunction,Plated,PTH,ComponentDrill
T1C0.0315
; #@! TA.AperFunction,Plated,PTH,ComponentDrill
T2C0.0402
; #@! TA.AperFunction,Plated,PTH,ComponentDrill
T3C0.0433
; #@! TA.AperFunction,Plated,PTH,ComponentDrill
T4C0.0472
; #@! TA.AperFunction,Plated,PTH,ComponentDrill
T5C0.0551
; #@! TA.AperFunction,Plated,PTH,ComponentDrill
T6C0.0598
; #@! TA.AperFunction,Plated,PTH,ComponentDrill
T7C0.0866
%
G90
G05
T1
X4.7098Y-1.811
X4.7098Y-2.111
X4.724Y-1.1193
X4.724Y-1.4193
X4.7449Y-2.4161
X4.7504Y-2.6551
X4.8236Y-2.4161
X4.8291Y-2.6551
X4.9587Y-1.1661
X4.9587Y-1.5661
X5.0976Y-1.3642
X5.0976Y-1.4642
X5.0976Y-1.5642
X5.098Y-1.0409
X5.2823Y-1.4811
X5.398Y-1.0409
X5.4689Y-1.6803
X5.4689Y-1.9803
X5.4724Y-2.6929
X5.4724Y-2.8898
X5.5957Y-2.6929
X5.5957Y-2.8898
X5.6161Y-1.1354
X5.6823Y-1.4811
X5.7161Y-1.1354
X5.7209Y-2.6921
X5.7209Y-2.9921
X5.7862Y-1.3638
X5.7862Y-1.6638
X5.8161Y-1.1354
X5.9618Y-1.4665
X5.9618Y-1.5665
X5.9618Y-1.6665
X6.1118Y-1.5193
X6.1118Y-1.8193
X6.1673Y-1.1185
X6.2378Y-1.7469
X6.2453Y-1.2307
X6.2453Y-1.6307
X6.4346Y-1.7469
X6.4504Y-1.2921
X6.4504Y-1.489
X6.4673Y-1.1185
X6.4894Y-1.887
X6.5283Y-1.7445
X6.565Y-1.0457
X6.5799Y-1.1787
X6.5799Y-1.4787
X6.6799Y-1.1787
X6.6799Y-1.4787
X6.6862Y-1.887
X6.7799Y-1.1787
X6.7799Y-1.4787
X6.8563Y-1.8783
X6.8618Y-2.1717
X6.865Y-1.0457
X6.8799Y-1.1787
X6.8799Y-1.4787
X6.9283Y-1.7445
X6.9539Y-0.9929
X7.0232Y-1.1091
X7.0232Y-1.4091
X7.0315Y-1.5067
X7.0315Y-1.7035
X7.1539Y-1.5961
X7.1563Y-1.8783
X7.1575Y-1.1878
X7.1575Y-1.4878
X7.1618Y-2.1717
X7.2504Y-1.7075
X7.2504Y-2.0075
X7.2539Y-0.9929
X7.2811Y-1.1878
X7.2811Y-1.4878
X7.3508Y-1.5961
T2
X3.8228Y-1.1177
X3.8228Y-1.2177
X3.8228Y-1.3177
X3.8228Y-1.4177
X3.8228Y-1.5177
X3.8228Y-1.6177
X3.8228Y-1.7177
X3.8228Y-1.8177
X3.8228Y-1.9177
X3.8228Y-2.0177
X3.8228Y-2.1177
X3.8228Y-2.2177
X3.8228Y-2.3177
X3.8228Y-2.4177
X3.8228Y-2.5177
X3.8228Y-2.6177
X3.8228Y-2.7177
X3.8228Y-2.8177
X3.8228Y-2.9177
X3.8228Y-3.0177
X4.0728Y-3.0087
X4.1728Y-3.0087
X4.2728Y-3.0087
X4.5228Y-1.1177
X4.5228Y-1.2177
X4.5228Y-1.3177
X4.5228Y-1.4177
X4.5228Y-1.5177
X4.5228Y-1.6177
X4.5228Y-1.7177
X4.5228Y-1.8177
X4.5228Y-1.9177
X4.5228Y-2.0177
X4.5228Y-2.1177
X4.5228Y-2.2177
X4.5228Y-2.3177
X4.5228Y-2.4177
X4.5228Y-2.5177
X4.5228Y-2.6177
X4.5228Y-2.7177
X4.5228Y-2.8177
X4.5228Y-2.9177
X4.5228Y-3.0177
T3
X4.8358Y-1.7386
X4.8358Y-2.2386
X5.0461Y-2.311
X5.0461Y-2.411
X5.0461Y-2.511
X5.6547Y-1.9634
X5.7547Y-1.9634
X5.8547Y-1.9634
X5.8724Y-2.7
X5.8724Y-3.0
X6.035Y-2.6933
X6.035Y-2.9933
X6.1909Y-2.6957
X6.1909Y-2.9957
T4
X5.7461Y-2.2539
X5.7461Y-2.4508
T5
X5.2732Y-1.9295
X5.2732Y-2.5295
X6.2106Y-1.9476
X6.2106Y-2.5476
T6
X4.7638Y-2.9457
X4.9638Y-2.9457
T7
X5.2461Y-2.6969
X5.2484Y-2.9453
M30
