%TF.GenerationSoftware,KiCad,Pcbnew,7.0.11+dfsg-1build4*%
%TF.CreationDate,2026-07-11T10:18:40-05:00*%
%TF.ProjectId,Synchronizer,53796e63-6872-46f6-9e69-7a65722e6b69,rev?*%
%TF.SameCoordinates,Original*%
%TF.FileFunction,Drillmap*%
%TF.FilePolarity,Positive*%
%FSLAX45Y45*%
G04 Gerber Fmt 4.5, Leading zero omitted, Abs format (unit mm)*
G04 Created by KiCad (PCBNEW 7.0.11+dfsg-1build4) date 2026-07-11 10:18:40*
%MOMM*%
%LPD*%
G01*
G04 APERTURE LIST*
%ADD10C,0.100000*%
%ADD11C,0.200000*%
%ADD12C,0.102000*%
%ADD13C,0.110000*%
%ADD14C,0.140000*%
%ADD15C,0.152000*%
G04 APERTURE END LIST*
D10*
X0Y0D02*
X9900000Y0D01*
X9900000Y-6200000D01*
X0Y-6200000D01*
X0Y0D01*
D11*
D10*
X2823000Y-2460000D02*
X2903000Y-2540000D01*
X2903000Y-2460000D02*
X2823000Y-2540000D01*
X2823000Y-3222000D02*
X2903000Y-3302000D01*
X2903000Y-3222000D02*
X2823000Y-3302000D01*
X2859000Y-703000D02*
X2939000Y-783000D01*
X2939000Y-703000D02*
X2859000Y-783000D01*
X2859000Y-1465000D02*
X2939000Y-1545000D01*
X2939000Y-1465000D02*
X2859000Y-1545000D01*
X2912000Y-3997000D02*
X2992000Y-4077000D01*
X2992000Y-3997000D02*
X2912000Y-4077000D01*
X2926000Y-4604000D02*
X3006000Y-4684000D01*
X3006000Y-4604000D02*
X2926000Y-4684000D01*
X3112000Y-3997000D02*
X3192000Y-4077000D01*
X3192000Y-3997000D02*
X3112000Y-4077000D01*
X3126000Y-4604000D02*
X3206000Y-4684000D01*
X3206000Y-4604000D02*
X3126000Y-4684000D01*
X3150000Y-2190000D02*
X3230000Y-2270000D01*
X3230000Y-2190000D02*
X3150000Y-2270000D01*
X3150000Y-2952000D02*
X3230000Y-3032000D01*
X3230000Y-2952000D02*
X3150000Y-3032000D01*
X3430000Y-2470000D02*
X3510000Y-2550000D01*
X3510000Y-2470000D02*
X3430000Y-2550000D01*
X3430000Y-3232000D02*
X3510000Y-3312000D01*
X3510000Y-3232000D02*
X3430000Y-3312000D01*
X4310000Y-1071000D02*
X4390000Y-1151000D01*
X4390000Y-1071000D02*
X4310000Y-1151000D01*
X4310000Y-2595000D02*
X4390000Y-2675000D01*
X4390000Y-2595000D02*
X4310000Y-2675000D01*
X4560000Y-3779000D02*
X4640000Y-3859000D01*
X4640000Y-3779000D02*
X4560000Y-3859000D01*
X4560000Y-4541000D02*
X4640000Y-4621000D01*
X4640000Y-4541000D02*
X4560000Y-4621000D01*
X4639000Y-1093000D02*
X4719000Y-1173000D01*
X4719000Y-1093000D02*
X4639000Y-1173000D01*
X4639000Y-2617000D02*
X4719000Y-2697000D01*
X4719000Y-2617000D02*
X4639000Y-2697000D01*
X4902000Y-3807000D02*
X4982000Y-3887000D01*
X4982000Y-3807000D02*
X4902000Y-3887000D01*
X4978000Y-3146000D02*
X5058000Y-3226000D01*
X5058000Y-3146000D02*
X4978000Y-3226000D01*
X4980000Y-2053000D02*
X5060000Y-2133000D01*
X5060000Y-2053000D02*
X4980000Y-2133000D01*
X4980000Y-2815000D02*
X5060000Y-2895000D01*
X5060000Y-2815000D02*
X4980000Y-2895000D01*
X5232000Y-3146000D02*
X5312000Y-3226000D01*
X5312000Y-3146000D02*
X5232000Y-3226000D01*
X5421000Y-5243200D02*
X5501000Y-5323200D01*
X5501000Y-5243200D02*
X5421000Y-5323200D01*
X5421000Y-6005200D02*
X5501000Y-6085200D01*
X5501000Y-6005200D02*
X5421000Y-6085200D01*
X5486000Y-3146000D02*
X5566000Y-3226000D01*
X5566000Y-3146000D02*
X5486000Y-3226000D01*
X5664000Y-3807000D02*
X5744000Y-3887000D01*
X5744000Y-3807000D02*
X5664000Y-3887000D01*
X5751200Y-4938400D02*
X5831200Y-5018400D01*
X5831200Y-4938400D02*
X5751200Y-5018400D01*
X5751200Y-5438400D02*
X5831200Y-5518400D01*
X5831200Y-5438400D02*
X5751200Y-5518400D01*
X5907000Y-2198000D02*
X5987000Y-2278000D01*
X5987000Y-2198000D02*
X5907000Y-2278000D01*
X5907000Y-2960000D02*
X5987000Y-3040000D01*
X5987000Y-2960000D02*
X5907000Y-3040000D01*
X6240000Y-3765000D02*
X6320000Y-3845000D01*
X6320000Y-3765000D02*
X6240000Y-3845000D01*
X6382000Y-2474000D02*
X6462000Y-2554000D01*
X6462000Y-2474000D02*
X6382000Y-2554000D01*
X6382000Y-2728000D02*
X6462000Y-2808000D01*
X6462000Y-2728000D02*
X6382000Y-2808000D01*
X6382000Y-2982000D02*
X6462000Y-3062000D01*
X6462000Y-2982000D02*
X6382000Y-3062000D01*
X6494000Y-3765000D02*
X6574000Y-3845000D01*
X6574000Y-3765000D02*
X6494000Y-3845000D01*
X6704000Y-2297000D02*
X6784000Y-2377000D01*
X6784000Y-2297000D02*
X6704000Y-2377000D01*
X6748000Y-3765000D02*
X6828000Y-3845000D01*
X6828000Y-3765000D02*
X6748000Y-3845000D01*
X6910000Y-881000D02*
X6990000Y-961000D01*
X6990000Y-881000D02*
X6910000Y-961000D01*
X6910000Y-1643000D02*
X6990000Y-1723000D01*
X6990000Y-1643000D02*
X6910000Y-1723000D01*
X7156000Y-3618000D02*
X7236000Y-3698000D01*
X7236000Y-3618000D02*
X7156000Y-3698000D01*
X7204000Y-2297000D02*
X7284000Y-2377000D01*
X7284000Y-2297000D02*
X7204000Y-2377000D01*
X7244000Y-1142000D02*
X7324000Y-1222000D01*
X7324000Y-1142000D02*
X7244000Y-1222000D01*
X7244000Y-1642000D02*
X7324000Y-1722000D01*
X7324000Y-1642000D02*
X7244000Y-1722000D01*
X7275200Y-2982600D02*
X7355200Y-3062600D01*
X7355200Y-2982600D02*
X7275200Y-3062600D01*
X7343000Y-2653000D02*
X7423000Y-2733000D01*
X7423000Y-2653000D02*
X7343000Y-2733000D01*
X7442000Y-2291000D02*
X7522000Y-2371000D01*
X7522000Y-2291000D02*
X7442000Y-2371000D01*
X7535000Y-516000D02*
X7615000Y-596000D01*
X7615000Y-516000D02*
X7535000Y-596000D01*
X7573000Y-854000D02*
X7653000Y-934000D01*
X7653000Y-854000D02*
X7573000Y-934000D01*
X7573000Y-1616000D02*
X7653000Y-1696000D01*
X7653000Y-1616000D02*
X7573000Y-1696000D01*
X7605400Y-5090800D02*
X7685400Y-5170800D01*
X7685400Y-5090800D02*
X7605400Y-5170800D01*
X7605400Y-5852800D02*
X7685400Y-5932800D01*
X7685400Y-5852800D02*
X7605400Y-5932800D01*
X7827000Y-854000D02*
X7907000Y-934000D01*
X7907000Y-854000D02*
X7827000Y-934000D01*
X7827000Y-1616000D02*
X7907000Y-1696000D01*
X7907000Y-1616000D02*
X7827000Y-1696000D01*
X7843000Y-2653000D02*
X7923000Y-2733000D01*
X7923000Y-2653000D02*
X7843000Y-2733000D01*
X7918000Y-3618000D02*
X7998000Y-3698000D01*
X7998000Y-3618000D02*
X7918000Y-3698000D01*
X8037200Y-2982600D02*
X8117200Y-3062600D01*
X8117200Y-2982600D02*
X8037200Y-3062600D01*
X8081000Y-854000D02*
X8161000Y-934000D01*
X8161000Y-854000D02*
X8081000Y-934000D01*
X8081000Y-1616000D02*
X8161000Y-1696000D01*
X8161000Y-1616000D02*
X8081000Y-1696000D01*
X8218000Y-3287400D02*
X8298000Y-3367400D01*
X8298000Y-3287400D02*
X8218000Y-3367400D01*
X8275000Y-2631000D02*
X8355000Y-2711000D01*
X8355000Y-2631000D02*
X8275000Y-2711000D01*
X8297000Y-516000D02*
X8377000Y-596000D01*
X8377000Y-516000D02*
X8297000Y-596000D01*
X8335000Y-854000D02*
X8415000Y-934000D01*
X8415000Y-854000D02*
X8335000Y-934000D01*
X8335000Y-1616000D02*
X8415000Y-1696000D01*
X8415000Y-1616000D02*
X8335000Y-1696000D01*
X8458000Y-2291000D02*
X8538000Y-2371000D01*
X8538000Y-2291000D02*
X8458000Y-2371000D01*
X8469000Y-4100200D02*
X8549000Y-4180200D01*
X8549000Y-4100200D02*
X8469000Y-4180200D01*
X8469000Y-4862200D02*
X8549000Y-4942200D01*
X8549000Y-4862200D02*
X8469000Y-4942200D01*
X8469000Y-5116200D02*
X8549000Y-5196200D01*
X8549000Y-5116200D02*
X8469000Y-5196200D01*
X8469000Y-5878200D02*
X8549000Y-5958200D01*
X8549000Y-5878200D02*
X8469000Y-5958200D01*
X8523000Y-382000D02*
X8603000Y-462000D01*
X8603000Y-382000D02*
X8523000Y-462000D01*
X8699000Y-677000D02*
X8779000Y-757000D01*
X8779000Y-677000D02*
X8699000Y-757000D01*
X8699000Y-1439000D02*
X8779000Y-1519000D01*
X8779000Y-1439000D02*
X8699000Y-1519000D01*
X8720000Y-1687000D02*
X8800000Y-1767000D01*
X8800000Y-1687000D02*
X8720000Y-1767000D01*
X8720000Y-2187000D02*
X8800000Y-2267000D01*
X8800000Y-2187000D02*
X8720000Y-2267000D01*
X8741000Y-3838000D02*
X8821000Y-3918000D01*
X8821000Y-3838000D02*
X8741000Y-3918000D01*
X8748400Y-4176400D02*
X8828400Y-4256400D01*
X8828400Y-4176400D02*
X8748400Y-4256400D01*
X8980000Y-3287400D02*
X9060000Y-3367400D01*
X9060000Y-3287400D02*
X8980000Y-3367400D01*
X8997000Y-4825000D02*
X9077000Y-4905000D01*
X9077000Y-4825000D02*
X8997000Y-4905000D01*
X9003000Y-4486000D02*
X9083000Y-4566000D01*
X9083000Y-4486000D02*
X9003000Y-4566000D01*
X9031000Y-1914000D02*
X9111000Y-1994000D01*
X9111000Y-1914000D02*
X9031000Y-1994000D01*
X9037000Y-2631000D02*
X9117000Y-2711000D01*
X9117000Y-2631000D02*
X9037000Y-2711000D01*
X9040000Y-877000D02*
X9120000Y-957000D01*
X9120000Y-877000D02*
X9040000Y-957000D01*
X9040000Y-1639000D02*
X9120000Y-1719000D01*
X9120000Y-1639000D02*
X9040000Y-1719000D01*
X9226000Y-3241000D02*
X9306000Y-3321000D01*
X9306000Y-3241000D02*
X9226000Y-3321000D01*
X9276000Y-2197000D02*
X9356000Y-2277000D01*
X9356000Y-2197000D02*
X9276000Y-2277000D01*
X9276000Y-2959000D02*
X9356000Y-3039000D01*
X9356000Y-2959000D02*
X9276000Y-3039000D01*
X9285000Y-382000D02*
X9365000Y-462000D01*
X9365000Y-382000D02*
X9285000Y-462000D01*
X9354000Y-877000D02*
X9434000Y-957000D01*
X9434000Y-877000D02*
X9354000Y-957000D01*
X9354000Y-1639000D02*
X9434000Y-1719000D01*
X9434000Y-1639000D02*
X9354000Y-1719000D01*
X9497000Y-4825000D02*
X9577000Y-4905000D01*
X9577000Y-4825000D02*
X9497000Y-4905000D01*
X9503000Y-3838000D02*
X9583000Y-3918000D01*
X9583000Y-3838000D02*
X9503000Y-3918000D01*
X9503000Y-4486000D02*
X9583000Y-4566000D01*
X9583000Y-4486000D02*
X9503000Y-4566000D01*
X9510400Y-4176400D02*
X9590400Y-4256400D01*
X9590400Y-4176400D02*
X9510400Y-4256400D01*
X9531000Y-1914000D02*
X9611000Y-1994000D01*
X9611000Y-1914000D02*
X9531000Y-1994000D01*
X9726000Y-3241000D02*
X9806000Y-3321000D01*
X9806000Y-3241000D02*
X9726000Y-3321000D01*
X252000Y-2275000D02*
G75*
G03*
X152000Y-2275000I-50000J0D01*
G01*
X152000Y-2275000D02*
G75*
G03*
X252000Y-2275000I50000J0D01*
G01*
X252000Y-2529000D02*
G75*
G03*
X152000Y-2529000I-50000J0D01*
G01*
X152000Y-2529000D02*
G75*
G03*
X252000Y-2529000I50000J0D01*
G01*
X252000Y-2783000D02*
G75*
G03*
X152000Y-2783000I-50000J0D01*
G01*
X152000Y-2783000D02*
G75*
G03*
X252000Y-2783000I50000J0D01*
G01*
X252000Y-3037000D02*
G75*
G03*
X152000Y-3037000I-50000J0D01*
G01*
X152000Y-3037000D02*
G75*
G03*
X252000Y-3037000I50000J0D01*
G01*
X252000Y-3291000D02*
G75*
G03*
X152000Y-3291000I-50000J0D01*
G01*
X152000Y-3291000D02*
G75*
G03*
X252000Y-3291000I50000J0D01*
G01*
X252000Y-3545000D02*
G75*
G03*
X152000Y-3545000I-50000J0D01*
G01*
X152000Y-3545000D02*
G75*
G03*
X252000Y-3545000I50000J0D01*
G01*
X252000Y-3799000D02*
G75*
G03*
X152000Y-3799000I-50000J0D01*
G01*
X152000Y-3799000D02*
G75*
G03*
X252000Y-3799000I50000J0D01*
G01*
X252000Y-4053000D02*
G75*
G03*
X152000Y-4053000I-50000J0D01*
G01*
X152000Y-4053000D02*
G75*
G03*
X252000Y-4053000I50000J0D01*
G01*
X252000Y-4307000D02*
G75*
G03*
X152000Y-4307000I-50000J0D01*
G01*
X152000Y-4307000D02*
G75*
G03*
X252000Y-4307000I50000J0D01*
G01*
X252000Y-4561000D02*
G75*
G03*
X152000Y-4561000I-50000J0D01*
G01*
X152000Y-4561000D02*
G75*
G03*
X252000Y-4561000I50000J0D01*
G01*
X252000Y-4815000D02*
G75*
G03*
X152000Y-4815000I-50000J0D01*
G01*
X152000Y-4815000D02*
G75*
G03*
X252000Y-4815000I50000J0D01*
G01*
X252000Y-5069000D02*
G75*
G03*
X152000Y-5069000I-50000J0D01*
G01*
X152000Y-5069000D02*
G75*
G03*
X252000Y-5069000I50000J0D01*
G01*
X252000Y-5323000D02*
G75*
G03*
X152000Y-5323000I-50000J0D01*
G01*
X152000Y-5323000D02*
G75*
G03*
X252000Y-5323000I50000J0D01*
G01*
X252000Y-5577000D02*
G75*
G03*
X152000Y-5577000I-50000J0D01*
G01*
X152000Y-5577000D02*
G75*
G03*
X252000Y-5577000I50000J0D01*
G01*
X4642000Y-5084000D02*
G75*
G03*
X4542000Y-5084000I-50000J0D01*
G01*
X4542000Y-5084000D02*
G75*
G03*
X4642000Y-5084000I50000J0D01*
G01*
X4492000Y-5134000D02*
X4692000Y-5134000D01*
X4692000Y-5134000D02*
G75*
G03*
X4692000Y-5034000I0J50000D01*
G01*
X4692000Y-5034000D02*
X4492000Y-5034000D01*
X4492000Y-5034000D02*
G75*
G03*
X4492000Y-5134000I0J-50000D01*
G01*
X4642000Y-5684000D02*
G75*
G03*
X4542000Y-5684000I-50000J0D01*
G01*
X4542000Y-5684000D02*
G75*
G03*
X4642000Y-5684000I50000J0D01*
G01*
X4492000Y-5734000D02*
X4692000Y-5734000D01*
X4692000Y-5734000D02*
G75*
G03*
X4692000Y-5634000I0J50000D01*
G01*
X4692000Y-5634000D02*
X4492000Y-5634000D01*
X4492000Y-5634000D02*
G75*
G03*
X4492000Y-5734000I0J-50000D01*
G01*
X5112000Y-5384000D02*
G75*
G03*
X5012000Y-5384000I-50000J0D01*
G01*
X5012000Y-5384000D02*
G75*
G03*
X5112000Y-5384000I50000J0D01*
G01*
X5112000Y-5484000D02*
X5112000Y-5284000D01*
X5112000Y-5284000D02*
G75*
G03*
X5012000Y-5284000I-50000J0D01*
G01*
X5012000Y-5284000D02*
X5012000Y-5484000D01*
X5012000Y-5484000D02*
G75*
G03*
X5112000Y-5484000I50000J0D01*
G01*
D12*
X610000Y-688000D02*
X610000Y-790000D01*
X559000Y-739000D02*
X661000Y-739000D01*
X610000Y-942000D02*
X610000Y-1044000D01*
X559000Y-993000D02*
X661000Y-993000D01*
X610000Y-1196000D02*
X610000Y-1298000D01*
X559000Y-1247000D02*
X661000Y-1247000D01*
X610000Y-1450000D02*
X610000Y-1552000D01*
X559000Y-1501000D02*
X661000Y-1501000D01*
X610000Y-1704000D02*
X610000Y-1806000D01*
X559000Y-1755000D02*
X661000Y-1755000D01*
X610000Y-1958000D02*
X610000Y-2060000D01*
X559000Y-2009000D02*
X661000Y-2009000D01*
X610000Y-2212000D02*
X610000Y-2314000D01*
X559000Y-2263000D02*
X661000Y-2263000D01*
X610000Y-2466000D02*
X610000Y-2568000D01*
X559000Y-2517000D02*
X661000Y-2517000D01*
X610000Y-2720000D02*
X610000Y-2822000D01*
X559000Y-2771000D02*
X661000Y-2771000D01*
X610000Y-2974000D02*
X610000Y-3076000D01*
X559000Y-3025000D02*
X661000Y-3025000D01*
X610000Y-3228000D02*
X610000Y-3330000D01*
X559000Y-3279000D02*
X661000Y-3279000D01*
X610000Y-3482000D02*
X610000Y-3584000D01*
X559000Y-3533000D02*
X661000Y-3533000D01*
X610000Y-3736000D02*
X610000Y-3838000D01*
X559000Y-3787000D02*
X661000Y-3787000D01*
X610000Y-3990000D02*
X610000Y-4092000D01*
X559000Y-4041000D02*
X661000Y-4041000D01*
X610000Y-4244000D02*
X610000Y-4346000D01*
X559000Y-4295000D02*
X661000Y-4295000D01*
X610000Y-4498000D02*
X610000Y-4600000D01*
X559000Y-4549000D02*
X661000Y-4549000D01*
X610000Y-4752000D02*
X610000Y-4854000D01*
X559000Y-4803000D02*
X661000Y-4803000D01*
X610000Y-5006000D02*
X610000Y-5108000D01*
X559000Y-5057000D02*
X661000Y-5057000D01*
X610000Y-5260000D02*
X610000Y-5362000D01*
X559000Y-5311000D02*
X661000Y-5311000D01*
X610000Y-5514000D02*
X610000Y-5616000D01*
X559000Y-5565000D02*
X661000Y-5565000D01*
X1245000Y-5491000D02*
X1245000Y-5593000D01*
X1194000Y-5542000D02*
X1296000Y-5542000D01*
X1499000Y-5491000D02*
X1499000Y-5593000D01*
X1448000Y-5542000D02*
X1550000Y-5542000D01*
X1753000Y-5491000D02*
X1753000Y-5593000D01*
X1702000Y-5542000D02*
X1804000Y-5542000D01*
X2388000Y-688000D02*
X2388000Y-790000D01*
X2337000Y-739000D02*
X2439000Y-739000D01*
X2388000Y-942000D02*
X2388000Y-1044000D01*
X2337000Y-993000D02*
X2439000Y-993000D01*
X2388000Y-1196000D02*
X2388000Y-1298000D01*
X2337000Y-1247000D02*
X2439000Y-1247000D01*
X2388000Y-1450000D02*
X2388000Y-1552000D01*
X2337000Y-1501000D02*
X2439000Y-1501000D01*
X2388000Y-1704000D02*
X2388000Y-1806000D01*
X2337000Y-1755000D02*
X2439000Y-1755000D01*
X2388000Y-1958000D02*
X2388000Y-2060000D01*
X2337000Y-2009000D02*
X2439000Y-2009000D01*
X2388000Y-2212000D02*
X2388000Y-2314000D01*
X2337000Y-2263000D02*
X2439000Y-2263000D01*
X2388000Y-2466000D02*
X2388000Y-2568000D01*
X2337000Y-2517000D02*
X2439000Y-2517000D01*
X2388000Y-2720000D02*
X2388000Y-2822000D01*
X2337000Y-2771000D02*
X2439000Y-2771000D01*
X2388000Y-2974000D02*
X2388000Y-3076000D01*
X2337000Y-3025000D02*
X2439000Y-3025000D01*
X2388000Y-3228000D02*
X2388000Y-3330000D01*
X2337000Y-3279000D02*
X2439000Y-3279000D01*
X2388000Y-3482000D02*
X2388000Y-3584000D01*
X2337000Y-3533000D02*
X2439000Y-3533000D01*
X2388000Y-3736000D02*
X2388000Y-3838000D01*
X2337000Y-3787000D02*
X2439000Y-3787000D01*
X2388000Y-3990000D02*
X2388000Y-4092000D01*
X2337000Y-4041000D02*
X2439000Y-4041000D01*
X2388000Y-4244000D02*
X2388000Y-4346000D01*
X2337000Y-4295000D02*
X2439000Y-4295000D01*
X2388000Y-4498000D02*
X2388000Y-4600000D01*
X2337000Y-4549000D02*
X2439000Y-4549000D01*
X2388000Y-4752000D02*
X2388000Y-4854000D01*
X2337000Y-4803000D02*
X2439000Y-4803000D01*
X2388000Y-5006000D02*
X2388000Y-5108000D01*
X2337000Y-5057000D02*
X2439000Y-5057000D01*
X2388000Y-5260000D02*
X2388000Y-5362000D01*
X2337000Y-5311000D02*
X2439000Y-5311000D01*
X2388000Y-5514000D02*
X2388000Y-5616000D01*
X2337000Y-5565000D02*
X2439000Y-5565000D01*
D13*
X3813891Y-2013891D02*
X3813891Y-1936109D01*
X3736109Y-1936109D01*
X3736109Y-2013891D01*
X3813891Y-2013891D01*
X3813891Y-3283891D02*
X3813891Y-3206109D01*
X3736109Y-3206109D01*
X3736109Y-3283891D01*
X3813891Y-3283891D01*
X3823491Y-3808891D02*
X3823491Y-3731109D01*
X3745709Y-3731109D01*
X3745709Y-3808891D01*
X3823491Y-3808891D01*
X3823491Y-4062891D02*
X3823491Y-3985109D01*
X3745709Y-3985109D01*
X3745709Y-4062891D01*
X3823491Y-4062891D01*
X3823491Y-4316891D02*
X3823491Y-4239109D01*
X3745709Y-4239109D01*
X3745709Y-4316891D01*
X3823491Y-4316891D01*
X5138891Y-4538891D02*
X5138891Y-4461109D01*
X5061109Y-4461109D01*
X5061109Y-4538891D01*
X5138891Y-4538891D01*
X5392891Y-4538891D02*
X5392891Y-4461109D01*
X5315109Y-4461109D01*
X5315109Y-4538891D01*
X5392891Y-4538891D01*
X5646891Y-4538891D02*
X5646891Y-4461109D01*
X5569109Y-4461109D01*
X5569109Y-4538891D01*
X5646891Y-4538891D01*
X7303291Y-5195091D02*
X7303291Y-5117309D01*
X7225509Y-5117309D01*
X7225509Y-5195091D01*
X7303291Y-5195091D01*
X7303291Y-5957091D02*
X7303291Y-5879309D01*
X7225509Y-5879309D01*
X7225509Y-5957091D01*
X7303291Y-5957091D01*
D14*
X6208500Y-4620000D02*
X6278500Y-4550000D01*
X6208500Y-4480000D01*
X6138500Y-4550000D01*
X6208500Y-4620000D01*
X7732500Y-4620000D02*
X7802500Y-4550000D01*
X7732500Y-4480000D01*
X7662500Y-4550000D01*
X7732500Y-4620000D01*
D15*
X2924000Y-5306000D02*
X3076000Y-5458000D01*
X3076000Y-5306000D02*
X2924000Y-5458000D01*
X3076000Y-5382000D02*
G75*
G03*
X2924000Y-5382000I-76000J0D01*
G01*
X2924000Y-5382000D02*
G75*
G03*
X3076000Y-5382000I76000J0D01*
G01*
X3432000Y-5306000D02*
X3584000Y-5458000D01*
X3584000Y-5306000D02*
X3432000Y-5458000D01*
X3584000Y-5382000D02*
G75*
G03*
X3432000Y-5382000I-76000J0D01*
G01*
X3432000Y-5382000D02*
G75*
G03*
X3584000Y-5382000I76000J0D01*
G01*
X6172400Y-5461200D02*
X6324400Y-5613200D01*
X6324400Y-5461200D02*
X6172400Y-5613200D01*
X6324400Y-5537200D02*
G75*
G03*
X6172400Y-5537200I-76000J0D01*
G01*
X6172400Y-5537200D02*
G75*
G03*
X6324400Y-5537200I76000J0D01*
G01*
X6680400Y-5461200D02*
X6832400Y-5613200D01*
X6832400Y-5461200D02*
X6680400Y-5613200D01*
X6832400Y-5537200D02*
G75*
G03*
X6680400Y-5537200I-76000J0D01*
G01*
X6680400Y-5537200D02*
G75*
G03*
X6832400Y-5537200I76000J0D01*
G01*
X8914000Y-5396500D02*
X9066000Y-5548500D01*
X9066000Y-5396500D02*
X8914000Y-5548500D01*
X9066000Y-5472500D02*
G75*
G03*
X8914000Y-5472500I-76000J0D01*
G01*
X8914000Y-5472500D02*
G75*
G03*
X9066000Y-5472500I76000J0D01*
G01*
X9422000Y-5396500D02*
X9574000Y-5548500D01*
X9574000Y-5396500D02*
X9422000Y-5548500D01*
X9574000Y-5472500D02*
G75*
G03*
X9422000Y-5472500I-76000J0D01*
G01*
X9422000Y-5472500D02*
G75*
G03*
X9574000Y-5472500I76000J0D01*
G01*
D11*
X255777Y-6516484D02*
X255777Y-6316484D01*
X255777Y-6316484D02*
X303396Y-6316484D01*
X303396Y-6316484D02*
X331967Y-6326008D01*
X331967Y-6326008D02*
X351015Y-6345055D01*
X351015Y-6345055D02*
X360539Y-6364103D01*
X360539Y-6364103D02*
X370062Y-6402198D01*
X370062Y-6402198D02*
X370062Y-6430769D01*
X370062Y-6430769D02*
X360539Y-6468865D01*
X360539Y-6468865D02*
X351015Y-6487912D01*
X351015Y-6487912D02*
X331967Y-6506960D01*
X331967Y-6506960D02*
X303396Y-6516484D01*
X303396Y-6516484D02*
X255777Y-6516484D01*
X455777Y-6516484D02*
X455777Y-6383150D01*
X455777Y-6421246D02*
X465301Y-6402198D01*
X465301Y-6402198D02*
X474824Y-6392674D01*
X474824Y-6392674D02*
X493872Y-6383150D01*
X493872Y-6383150D02*
X512920Y-6383150D01*
X579586Y-6516484D02*
X579586Y-6383150D01*
X579586Y-6316484D02*
X570063Y-6326008D01*
X570063Y-6326008D02*
X579586Y-6335531D01*
X579586Y-6335531D02*
X589110Y-6326008D01*
X589110Y-6326008D02*
X579586Y-6316484D01*
X579586Y-6316484D02*
X579586Y-6335531D01*
X703396Y-6516484D02*
X684348Y-6506960D01*
X684348Y-6506960D02*
X674824Y-6487912D01*
X674824Y-6487912D02*
X674824Y-6316484D01*
X808158Y-6516484D02*
X789110Y-6506960D01*
X789110Y-6506960D02*
X779586Y-6487912D01*
X779586Y-6487912D02*
X779586Y-6316484D01*
X1036729Y-6516484D02*
X1036729Y-6316484D01*
X1036729Y-6316484D02*
X1103396Y-6459341D01*
X1103396Y-6459341D02*
X1170063Y-6316484D01*
X1170063Y-6316484D02*
X1170063Y-6516484D01*
X1351015Y-6516484D02*
X1351015Y-6411722D01*
X1351015Y-6411722D02*
X1341491Y-6392674D01*
X1341491Y-6392674D02*
X1322444Y-6383150D01*
X1322444Y-6383150D02*
X1284348Y-6383150D01*
X1284348Y-6383150D02*
X1265301Y-6392674D01*
X1351015Y-6506960D02*
X1331967Y-6516484D01*
X1331967Y-6516484D02*
X1284348Y-6516484D01*
X1284348Y-6516484D02*
X1265301Y-6506960D01*
X1265301Y-6506960D02*
X1255777Y-6487912D01*
X1255777Y-6487912D02*
X1255777Y-6468865D01*
X1255777Y-6468865D02*
X1265301Y-6449817D01*
X1265301Y-6449817D02*
X1284348Y-6440293D01*
X1284348Y-6440293D02*
X1331967Y-6440293D01*
X1331967Y-6440293D02*
X1351015Y-6430769D01*
X1446253Y-6383150D02*
X1446253Y-6583150D01*
X1446253Y-6392674D02*
X1465301Y-6383150D01*
X1465301Y-6383150D02*
X1503396Y-6383150D01*
X1503396Y-6383150D02*
X1522443Y-6392674D01*
X1522443Y-6392674D02*
X1531967Y-6402198D01*
X1531967Y-6402198D02*
X1541491Y-6421246D01*
X1541491Y-6421246D02*
X1541491Y-6478388D01*
X1541491Y-6478388D02*
X1531967Y-6497436D01*
X1531967Y-6497436D02*
X1522443Y-6506960D01*
X1522443Y-6506960D02*
X1503396Y-6516484D01*
X1503396Y-6516484D02*
X1465301Y-6516484D01*
X1465301Y-6516484D02*
X1446253Y-6506960D01*
X1627205Y-6497436D02*
X1636729Y-6506960D01*
X1636729Y-6506960D02*
X1627205Y-6516484D01*
X1627205Y-6516484D02*
X1617682Y-6506960D01*
X1617682Y-6506960D02*
X1627205Y-6497436D01*
X1627205Y-6497436D02*
X1627205Y-6516484D01*
X1627205Y-6392674D02*
X1636729Y-6402198D01*
X1636729Y-6402198D02*
X1627205Y-6411722D01*
X1627205Y-6411722D02*
X1617682Y-6402198D01*
X1617682Y-6402198D02*
X1627205Y-6392674D01*
X1627205Y-6392674D02*
X1627205Y-6411722D01*
D10*
X-85000Y-6805000D02*
X-5000Y-6885000D01*
X-5000Y-6805000D02*
X-85000Y-6885000D01*
D11*
X293872Y-6736484D02*
X312920Y-6736484D01*
X312920Y-6736484D02*
X331967Y-6746008D01*
X331967Y-6746008D02*
X341491Y-6755531D01*
X341491Y-6755531D02*
X351015Y-6774579D01*
X351015Y-6774579D02*
X360539Y-6812674D01*
X360539Y-6812674D02*
X360539Y-6860293D01*
X360539Y-6860293D02*
X351015Y-6898388D01*
X351015Y-6898388D02*
X341491Y-6917436D01*
X341491Y-6917436D02*
X331967Y-6926960D01*
X331967Y-6926960D02*
X312920Y-6936484D01*
X312920Y-6936484D02*
X293872Y-6936484D01*
X293872Y-6936484D02*
X274824Y-6926960D01*
X274824Y-6926960D02*
X265301Y-6917436D01*
X265301Y-6917436D02*
X255777Y-6898388D01*
X255777Y-6898388D02*
X246253Y-6860293D01*
X246253Y-6860293D02*
X246253Y-6812674D01*
X246253Y-6812674D02*
X255777Y-6774579D01*
X255777Y-6774579D02*
X265301Y-6755531D01*
X265301Y-6755531D02*
X274824Y-6746008D01*
X274824Y-6746008D02*
X293872Y-6736484D01*
X446253Y-6917436D02*
X455777Y-6926960D01*
X455777Y-6926960D02*
X446253Y-6936484D01*
X446253Y-6936484D02*
X436729Y-6926960D01*
X436729Y-6926960D02*
X446253Y-6917436D01*
X446253Y-6917436D02*
X446253Y-6936484D01*
X570063Y-6822198D02*
X551015Y-6812674D01*
X551015Y-6812674D02*
X541491Y-6803150D01*
X541491Y-6803150D02*
X531967Y-6784103D01*
X531967Y-6784103D02*
X531967Y-6774579D01*
X531967Y-6774579D02*
X541491Y-6755531D01*
X541491Y-6755531D02*
X551015Y-6746008D01*
X551015Y-6746008D02*
X570063Y-6736484D01*
X570063Y-6736484D02*
X608158Y-6736484D01*
X608158Y-6736484D02*
X627205Y-6746008D01*
X627205Y-6746008D02*
X636729Y-6755531D01*
X636729Y-6755531D02*
X646253Y-6774579D01*
X646253Y-6774579D02*
X646253Y-6784103D01*
X646253Y-6784103D02*
X636729Y-6803150D01*
X636729Y-6803150D02*
X627205Y-6812674D01*
X627205Y-6812674D02*
X608158Y-6822198D01*
X608158Y-6822198D02*
X570063Y-6822198D01*
X570063Y-6822198D02*
X551015Y-6831722D01*
X551015Y-6831722D02*
X541491Y-6841246D01*
X541491Y-6841246D02*
X531967Y-6860293D01*
X531967Y-6860293D02*
X531967Y-6898388D01*
X531967Y-6898388D02*
X541491Y-6917436D01*
X541491Y-6917436D02*
X551015Y-6926960D01*
X551015Y-6926960D02*
X570063Y-6936484D01*
X570063Y-6936484D02*
X608158Y-6936484D01*
X608158Y-6936484D02*
X627205Y-6926960D01*
X627205Y-6926960D02*
X636729Y-6917436D01*
X636729Y-6917436D02*
X646253Y-6898388D01*
X646253Y-6898388D02*
X646253Y-6860293D01*
X646253Y-6860293D02*
X636729Y-6841246D01*
X636729Y-6841246D02*
X627205Y-6831722D01*
X627205Y-6831722D02*
X608158Y-6822198D01*
X770062Y-6736484D02*
X789110Y-6736484D01*
X789110Y-6736484D02*
X808158Y-6746008D01*
X808158Y-6746008D02*
X817682Y-6755531D01*
X817682Y-6755531D02*
X827205Y-6774579D01*
X827205Y-6774579D02*
X836729Y-6812674D01*
X836729Y-6812674D02*
X836729Y-6860293D01*
X836729Y-6860293D02*
X827205Y-6898388D01*
X827205Y-6898388D02*
X817682Y-6917436D01*
X817682Y-6917436D02*
X808158Y-6926960D01*
X808158Y-6926960D02*
X789110Y-6936484D01*
X789110Y-6936484D02*
X770062Y-6936484D01*
X770062Y-6936484D02*
X751015Y-6926960D01*
X751015Y-6926960D02*
X741491Y-6917436D01*
X741491Y-6917436D02*
X731967Y-6898388D01*
X731967Y-6898388D02*
X722443Y-6860293D01*
X722443Y-6860293D02*
X722443Y-6812674D01*
X722443Y-6812674D02*
X731967Y-6774579D01*
X731967Y-6774579D02*
X741491Y-6755531D01*
X741491Y-6755531D02*
X751015Y-6746008D01*
X751015Y-6746008D02*
X770062Y-6736484D01*
X960539Y-6736484D02*
X979586Y-6736484D01*
X979586Y-6736484D02*
X998634Y-6746008D01*
X998634Y-6746008D02*
X1008158Y-6755531D01*
X1008158Y-6755531D02*
X1017682Y-6774579D01*
X1017682Y-6774579D02*
X1027205Y-6812674D01*
X1027205Y-6812674D02*
X1027205Y-6860293D01*
X1027205Y-6860293D02*
X1017682Y-6898388D01*
X1017682Y-6898388D02*
X1008158Y-6917436D01*
X1008158Y-6917436D02*
X998634Y-6926960D01*
X998634Y-6926960D02*
X979586Y-6936484D01*
X979586Y-6936484D02*
X960539Y-6936484D01*
X960539Y-6936484D02*
X941491Y-6926960D01*
X941491Y-6926960D02*
X931967Y-6917436D01*
X931967Y-6917436D02*
X922443Y-6898388D01*
X922443Y-6898388D02*
X912920Y-6860293D01*
X912920Y-6860293D02*
X912920Y-6812674D01*
X912920Y-6812674D02*
X922443Y-6774579D01*
X922443Y-6774579D02*
X931967Y-6755531D01*
X931967Y-6755531D02*
X941491Y-6746008D01*
X941491Y-6746008D02*
X960539Y-6736484D01*
X1112920Y-6936484D02*
X1112920Y-6803150D01*
X1112920Y-6822198D02*
X1122444Y-6812674D01*
X1122444Y-6812674D02*
X1141491Y-6803150D01*
X1141491Y-6803150D02*
X1170063Y-6803150D01*
X1170063Y-6803150D02*
X1189110Y-6812674D01*
X1189110Y-6812674D02*
X1198634Y-6831722D01*
X1198634Y-6831722D02*
X1198634Y-6936484D01*
X1198634Y-6831722D02*
X1208158Y-6812674D01*
X1208158Y-6812674D02*
X1227205Y-6803150D01*
X1227205Y-6803150D02*
X1255777Y-6803150D01*
X1255777Y-6803150D02*
X1274825Y-6812674D01*
X1274825Y-6812674D02*
X1284348Y-6831722D01*
X1284348Y-6831722D02*
X1284348Y-6936484D01*
X1379586Y-6936484D02*
X1379586Y-6803150D01*
X1379586Y-6822198D02*
X1389110Y-6812674D01*
X1389110Y-6812674D02*
X1408158Y-6803150D01*
X1408158Y-6803150D02*
X1436729Y-6803150D01*
X1436729Y-6803150D02*
X1455777Y-6812674D01*
X1455777Y-6812674D02*
X1465301Y-6831722D01*
X1465301Y-6831722D02*
X1465301Y-6936484D01*
X1465301Y-6831722D02*
X1474824Y-6812674D01*
X1474824Y-6812674D02*
X1493872Y-6803150D01*
X1493872Y-6803150D02*
X1522443Y-6803150D01*
X1522443Y-6803150D02*
X1541491Y-6812674D01*
X1541491Y-6812674D02*
X1551015Y-6831722D01*
X1551015Y-6831722D02*
X1551015Y-6936484D01*
X1941491Y-6726960D02*
X1770063Y-6984103D01*
X2198634Y-6736484D02*
X2217682Y-6736484D01*
X2217682Y-6736484D02*
X2236729Y-6746008D01*
X2236729Y-6746008D02*
X2246253Y-6755531D01*
X2246253Y-6755531D02*
X2255777Y-6774579D01*
X2255777Y-6774579D02*
X2265301Y-6812674D01*
X2265301Y-6812674D02*
X2265301Y-6860293D01*
X2265301Y-6860293D02*
X2255777Y-6898388D01*
X2255777Y-6898388D02*
X2246253Y-6917436D01*
X2246253Y-6917436D02*
X2236729Y-6926960D01*
X2236729Y-6926960D02*
X2217682Y-6936484D01*
X2217682Y-6936484D02*
X2198634Y-6936484D01*
X2198634Y-6936484D02*
X2179587Y-6926960D01*
X2179587Y-6926960D02*
X2170063Y-6917436D01*
X2170063Y-6917436D02*
X2160539Y-6898388D01*
X2160539Y-6898388D02*
X2151015Y-6860293D01*
X2151015Y-6860293D02*
X2151015Y-6812674D01*
X2151015Y-6812674D02*
X2160539Y-6774579D01*
X2160539Y-6774579D02*
X2170063Y-6755531D01*
X2170063Y-6755531D02*
X2179587Y-6746008D01*
X2179587Y-6746008D02*
X2198634Y-6736484D01*
X2351015Y-6917436D02*
X2360539Y-6926960D01*
X2360539Y-6926960D02*
X2351015Y-6936484D01*
X2351015Y-6936484D02*
X2341491Y-6926960D01*
X2341491Y-6926960D02*
X2351015Y-6917436D01*
X2351015Y-6917436D02*
X2351015Y-6936484D01*
X2484348Y-6736484D02*
X2503396Y-6736484D01*
X2503396Y-6736484D02*
X2522444Y-6746008D01*
X2522444Y-6746008D02*
X2531968Y-6755531D01*
X2531968Y-6755531D02*
X2541491Y-6774579D01*
X2541491Y-6774579D02*
X2551015Y-6812674D01*
X2551015Y-6812674D02*
X2551015Y-6860293D01*
X2551015Y-6860293D02*
X2541491Y-6898388D01*
X2541491Y-6898388D02*
X2531968Y-6917436D01*
X2531968Y-6917436D02*
X2522444Y-6926960D01*
X2522444Y-6926960D02*
X2503396Y-6936484D01*
X2503396Y-6936484D02*
X2484348Y-6936484D01*
X2484348Y-6936484D02*
X2465301Y-6926960D01*
X2465301Y-6926960D02*
X2455777Y-6917436D01*
X2455777Y-6917436D02*
X2446253Y-6898388D01*
X2446253Y-6898388D02*
X2436729Y-6860293D01*
X2436729Y-6860293D02*
X2436729Y-6812674D01*
X2436729Y-6812674D02*
X2446253Y-6774579D01*
X2446253Y-6774579D02*
X2455777Y-6755531D01*
X2455777Y-6755531D02*
X2465301Y-6746008D01*
X2465301Y-6746008D02*
X2484348Y-6736484D01*
X2617682Y-6736484D02*
X2741491Y-6736484D01*
X2741491Y-6736484D02*
X2674825Y-6812674D01*
X2674825Y-6812674D02*
X2703396Y-6812674D01*
X2703396Y-6812674D02*
X2722444Y-6822198D01*
X2722444Y-6822198D02*
X2731968Y-6831722D01*
X2731968Y-6831722D02*
X2741491Y-6850769D01*
X2741491Y-6850769D02*
X2741491Y-6898388D01*
X2741491Y-6898388D02*
X2731968Y-6917436D01*
X2731968Y-6917436D02*
X2722444Y-6926960D01*
X2722444Y-6926960D02*
X2703396Y-6936484D01*
X2703396Y-6936484D02*
X2646253Y-6936484D01*
X2646253Y-6936484D02*
X2627206Y-6926960D01*
X2627206Y-6926960D02*
X2617682Y-6917436D01*
X2931967Y-6936484D02*
X2817682Y-6936484D01*
X2874825Y-6936484D02*
X2874825Y-6736484D01*
X2874825Y-6736484D02*
X2855777Y-6765055D01*
X2855777Y-6765055D02*
X2836729Y-6784103D01*
X2836729Y-6784103D02*
X2817682Y-6793627D01*
X3112920Y-6736484D02*
X3017682Y-6736484D01*
X3017682Y-6736484D02*
X3008158Y-6831722D01*
X3008158Y-6831722D02*
X3017682Y-6822198D01*
X3017682Y-6822198D02*
X3036729Y-6812674D01*
X3036729Y-6812674D02*
X3084348Y-6812674D01*
X3084348Y-6812674D02*
X3103396Y-6822198D01*
X3103396Y-6822198D02*
X3112920Y-6831722D01*
X3112920Y-6831722D02*
X3122444Y-6850769D01*
X3122444Y-6850769D02*
X3122444Y-6898388D01*
X3122444Y-6898388D02*
X3112920Y-6917436D01*
X3112920Y-6917436D02*
X3103396Y-6926960D01*
X3103396Y-6926960D02*
X3084348Y-6936484D01*
X3084348Y-6936484D02*
X3036729Y-6936484D01*
X3036729Y-6936484D02*
X3017682Y-6926960D01*
X3017682Y-6926960D02*
X3008158Y-6917436D01*
X3198634Y-6736484D02*
X3198634Y-6774579D01*
X3274825Y-6736484D02*
X3274825Y-6774579D01*
X3570063Y-7012674D02*
X3560539Y-7003150D01*
X3560539Y-7003150D02*
X3541491Y-6974579D01*
X3541491Y-6974579D02*
X3531968Y-6955531D01*
X3531968Y-6955531D02*
X3522444Y-6926960D01*
X3522444Y-6926960D02*
X3512920Y-6879341D01*
X3512920Y-6879341D02*
X3512920Y-6841246D01*
X3512920Y-6841246D02*
X3522444Y-6793627D01*
X3522444Y-6793627D02*
X3531968Y-6765055D01*
X3531968Y-6765055D02*
X3541491Y-6746008D01*
X3541491Y-6746008D02*
X3560539Y-6717436D01*
X3560539Y-6717436D02*
X3570063Y-6707912D01*
X3655777Y-6936484D02*
X3693872Y-6936484D01*
X3693872Y-6936484D02*
X3712920Y-6926960D01*
X3712920Y-6926960D02*
X3722444Y-6917436D01*
X3722444Y-6917436D02*
X3741491Y-6888865D01*
X3741491Y-6888865D02*
X3751015Y-6850769D01*
X3751015Y-6850769D02*
X3751015Y-6774579D01*
X3751015Y-6774579D02*
X3741491Y-6755531D01*
X3741491Y-6755531D02*
X3731968Y-6746008D01*
X3731968Y-6746008D02*
X3712920Y-6736484D01*
X3712920Y-6736484D02*
X3674825Y-6736484D01*
X3674825Y-6736484D02*
X3655777Y-6746008D01*
X3655777Y-6746008D02*
X3646253Y-6755531D01*
X3646253Y-6755531D02*
X3636729Y-6774579D01*
X3636729Y-6774579D02*
X3636729Y-6822198D01*
X3636729Y-6822198D02*
X3646253Y-6841246D01*
X3646253Y-6841246D02*
X3655777Y-6850769D01*
X3655777Y-6850769D02*
X3674825Y-6860293D01*
X3674825Y-6860293D02*
X3712920Y-6860293D01*
X3712920Y-6860293D02*
X3731968Y-6850769D01*
X3731968Y-6850769D02*
X3741491Y-6841246D01*
X3741491Y-6841246D02*
X3751015Y-6822198D01*
X3931968Y-6736484D02*
X3836729Y-6736484D01*
X3836729Y-6736484D02*
X3827206Y-6831722D01*
X3827206Y-6831722D02*
X3836729Y-6822198D01*
X3836729Y-6822198D02*
X3855777Y-6812674D01*
X3855777Y-6812674D02*
X3903396Y-6812674D01*
X3903396Y-6812674D02*
X3922444Y-6822198D01*
X3922444Y-6822198D02*
X3931968Y-6831722D01*
X3931968Y-6831722D02*
X3941491Y-6850769D01*
X3941491Y-6850769D02*
X3941491Y-6898388D01*
X3941491Y-6898388D02*
X3931968Y-6917436D01*
X3931968Y-6917436D02*
X3922444Y-6926960D01*
X3922444Y-6926960D02*
X3903396Y-6936484D01*
X3903396Y-6936484D02*
X3855777Y-6936484D01*
X3855777Y-6936484D02*
X3836729Y-6926960D01*
X3836729Y-6926960D02*
X3827206Y-6917436D01*
X4179587Y-6936484D02*
X4179587Y-6736484D01*
X4265301Y-6936484D02*
X4265301Y-6831722D01*
X4265301Y-6831722D02*
X4255777Y-6812674D01*
X4255777Y-6812674D02*
X4236730Y-6803150D01*
X4236730Y-6803150D02*
X4208158Y-6803150D01*
X4208158Y-6803150D02*
X4189110Y-6812674D01*
X4189110Y-6812674D02*
X4179587Y-6822198D01*
X4389111Y-6936484D02*
X4370063Y-6926960D01*
X4370063Y-6926960D02*
X4360539Y-6917436D01*
X4360539Y-6917436D02*
X4351015Y-6898388D01*
X4351015Y-6898388D02*
X4351015Y-6841246D01*
X4351015Y-6841246D02*
X4360539Y-6822198D01*
X4360539Y-6822198D02*
X4370063Y-6812674D01*
X4370063Y-6812674D02*
X4389111Y-6803150D01*
X4389111Y-6803150D02*
X4417682Y-6803150D01*
X4417682Y-6803150D02*
X4436730Y-6812674D01*
X4436730Y-6812674D02*
X4446253Y-6822198D01*
X4446253Y-6822198D02*
X4455777Y-6841246D01*
X4455777Y-6841246D02*
X4455777Y-6898388D01*
X4455777Y-6898388D02*
X4446253Y-6917436D01*
X4446253Y-6917436D02*
X4436730Y-6926960D01*
X4436730Y-6926960D02*
X4417682Y-6936484D01*
X4417682Y-6936484D02*
X4389111Y-6936484D01*
X4570063Y-6936484D02*
X4551015Y-6926960D01*
X4551015Y-6926960D02*
X4541492Y-6907912D01*
X4541492Y-6907912D02*
X4541492Y-6736484D01*
X4722444Y-6926960D02*
X4703396Y-6936484D01*
X4703396Y-6936484D02*
X4665301Y-6936484D01*
X4665301Y-6936484D02*
X4646253Y-6926960D01*
X4646253Y-6926960D02*
X4636730Y-6907912D01*
X4636730Y-6907912D02*
X4636730Y-6831722D01*
X4636730Y-6831722D02*
X4646253Y-6812674D01*
X4646253Y-6812674D02*
X4665301Y-6803150D01*
X4665301Y-6803150D02*
X4703396Y-6803150D01*
X4703396Y-6803150D02*
X4722444Y-6812674D01*
X4722444Y-6812674D02*
X4731968Y-6831722D01*
X4731968Y-6831722D02*
X4731968Y-6850769D01*
X4731968Y-6850769D02*
X4636730Y-6869817D01*
X4808158Y-6926960D02*
X4827206Y-6936484D01*
X4827206Y-6936484D02*
X4865301Y-6936484D01*
X4865301Y-6936484D02*
X4884349Y-6926960D01*
X4884349Y-6926960D02*
X4893873Y-6907912D01*
X4893873Y-6907912D02*
X4893873Y-6898388D01*
X4893873Y-6898388D02*
X4884349Y-6879341D01*
X4884349Y-6879341D02*
X4865301Y-6869817D01*
X4865301Y-6869817D02*
X4836730Y-6869817D01*
X4836730Y-6869817D02*
X4817682Y-6860293D01*
X4817682Y-6860293D02*
X4808158Y-6841246D01*
X4808158Y-6841246D02*
X4808158Y-6831722D01*
X4808158Y-6831722D02*
X4817682Y-6812674D01*
X4817682Y-6812674D02*
X4836730Y-6803150D01*
X4836730Y-6803150D02*
X4865301Y-6803150D01*
X4865301Y-6803150D02*
X4884349Y-6812674D01*
X4960539Y-7012674D02*
X4970063Y-7003150D01*
X4970063Y-7003150D02*
X4989111Y-6974579D01*
X4989111Y-6974579D02*
X4998634Y-6955531D01*
X4998634Y-6955531D02*
X5008158Y-6926960D01*
X5008158Y-6926960D02*
X5017682Y-6879341D01*
X5017682Y-6879341D02*
X5017682Y-6841246D01*
X5017682Y-6841246D02*
X5008158Y-6793627D01*
X5008158Y-6793627D02*
X4998634Y-6765055D01*
X4998634Y-6765055D02*
X4989111Y-6746008D01*
X4989111Y-6746008D02*
X4970063Y-6717436D01*
X4970063Y-6717436D02*
X4960539Y-6707912D01*
D10*
X-5000Y-7109000D02*
G75*
G03*
X-105000Y-7109000I-50000J0D01*
G01*
X-105000Y-7109000D02*
G75*
G03*
X-5000Y-7109000I50000J0D01*
G01*
D11*
X360539Y-7200484D02*
X246253Y-7200484D01*
X303396Y-7200484D02*
X303396Y-7000484D01*
X303396Y-7000484D02*
X284348Y-7029055D01*
X284348Y-7029055D02*
X265301Y-7048103D01*
X265301Y-7048103D02*
X246253Y-7057627D01*
X446253Y-7181436D02*
X455777Y-7190960D01*
X455777Y-7190960D02*
X446253Y-7200484D01*
X446253Y-7200484D02*
X436729Y-7190960D01*
X436729Y-7190960D02*
X446253Y-7181436D01*
X446253Y-7181436D02*
X446253Y-7200484D01*
X579586Y-7000484D02*
X598634Y-7000484D01*
X598634Y-7000484D02*
X617682Y-7010008D01*
X617682Y-7010008D02*
X627205Y-7019531D01*
X627205Y-7019531D02*
X636729Y-7038579D01*
X636729Y-7038579D02*
X646253Y-7076674D01*
X646253Y-7076674D02*
X646253Y-7124293D01*
X646253Y-7124293D02*
X636729Y-7162388D01*
X636729Y-7162388D02*
X627205Y-7181436D01*
X627205Y-7181436D02*
X617682Y-7190960D01*
X617682Y-7190960D02*
X598634Y-7200484D01*
X598634Y-7200484D02*
X579586Y-7200484D01*
X579586Y-7200484D02*
X560539Y-7190960D01*
X560539Y-7190960D02*
X551015Y-7181436D01*
X551015Y-7181436D02*
X541491Y-7162388D01*
X541491Y-7162388D02*
X531967Y-7124293D01*
X531967Y-7124293D02*
X531967Y-7076674D01*
X531967Y-7076674D02*
X541491Y-7038579D01*
X541491Y-7038579D02*
X551015Y-7019531D01*
X551015Y-7019531D02*
X560539Y-7010008D01*
X560539Y-7010008D02*
X579586Y-7000484D01*
X770062Y-7000484D02*
X789110Y-7000484D01*
X789110Y-7000484D02*
X808158Y-7010008D01*
X808158Y-7010008D02*
X817682Y-7019531D01*
X817682Y-7019531D02*
X827205Y-7038579D01*
X827205Y-7038579D02*
X836729Y-7076674D01*
X836729Y-7076674D02*
X836729Y-7124293D01*
X836729Y-7124293D02*
X827205Y-7162388D01*
X827205Y-7162388D02*
X817682Y-7181436D01*
X817682Y-7181436D02*
X808158Y-7190960D01*
X808158Y-7190960D02*
X789110Y-7200484D01*
X789110Y-7200484D02*
X770062Y-7200484D01*
X770062Y-7200484D02*
X751015Y-7190960D01*
X751015Y-7190960D02*
X741491Y-7181436D01*
X741491Y-7181436D02*
X731967Y-7162388D01*
X731967Y-7162388D02*
X722443Y-7124293D01*
X722443Y-7124293D02*
X722443Y-7076674D01*
X722443Y-7076674D02*
X731967Y-7038579D01*
X731967Y-7038579D02*
X741491Y-7019531D01*
X741491Y-7019531D02*
X751015Y-7010008D01*
X751015Y-7010008D02*
X770062Y-7000484D01*
X960539Y-7000484D02*
X979586Y-7000484D01*
X979586Y-7000484D02*
X998634Y-7010008D01*
X998634Y-7010008D02*
X1008158Y-7019531D01*
X1008158Y-7019531D02*
X1017682Y-7038579D01*
X1017682Y-7038579D02*
X1027205Y-7076674D01*
X1027205Y-7076674D02*
X1027205Y-7124293D01*
X1027205Y-7124293D02*
X1017682Y-7162388D01*
X1017682Y-7162388D02*
X1008158Y-7181436D01*
X1008158Y-7181436D02*
X998634Y-7190960D01*
X998634Y-7190960D02*
X979586Y-7200484D01*
X979586Y-7200484D02*
X960539Y-7200484D01*
X960539Y-7200484D02*
X941491Y-7190960D01*
X941491Y-7190960D02*
X931967Y-7181436D01*
X931967Y-7181436D02*
X922443Y-7162388D01*
X922443Y-7162388D02*
X912920Y-7124293D01*
X912920Y-7124293D02*
X912920Y-7076674D01*
X912920Y-7076674D02*
X922443Y-7038579D01*
X922443Y-7038579D02*
X931967Y-7019531D01*
X931967Y-7019531D02*
X941491Y-7010008D01*
X941491Y-7010008D02*
X960539Y-7000484D01*
X1112920Y-7200484D02*
X1112920Y-7067150D01*
X1112920Y-7086198D02*
X1122444Y-7076674D01*
X1122444Y-7076674D02*
X1141491Y-7067150D01*
X1141491Y-7067150D02*
X1170063Y-7067150D01*
X1170063Y-7067150D02*
X1189110Y-7076674D01*
X1189110Y-7076674D02*
X1198634Y-7095722D01*
X1198634Y-7095722D02*
X1198634Y-7200484D01*
X1198634Y-7095722D02*
X1208158Y-7076674D01*
X1208158Y-7076674D02*
X1227205Y-7067150D01*
X1227205Y-7067150D02*
X1255777Y-7067150D01*
X1255777Y-7067150D02*
X1274825Y-7076674D01*
X1274825Y-7076674D02*
X1284348Y-7095722D01*
X1284348Y-7095722D02*
X1284348Y-7200484D01*
X1379586Y-7200484D02*
X1379586Y-7067150D01*
X1379586Y-7086198D02*
X1389110Y-7076674D01*
X1389110Y-7076674D02*
X1408158Y-7067150D01*
X1408158Y-7067150D02*
X1436729Y-7067150D01*
X1436729Y-7067150D02*
X1455777Y-7076674D01*
X1455777Y-7076674D02*
X1465301Y-7095722D01*
X1465301Y-7095722D02*
X1465301Y-7200484D01*
X1465301Y-7095722D02*
X1474824Y-7076674D01*
X1474824Y-7076674D02*
X1493872Y-7067150D01*
X1493872Y-7067150D02*
X1522443Y-7067150D01*
X1522443Y-7067150D02*
X1541491Y-7076674D01*
X1541491Y-7076674D02*
X1551015Y-7095722D01*
X1551015Y-7095722D02*
X1551015Y-7200484D01*
X1941491Y-6990960D02*
X1770063Y-7248103D01*
X2198634Y-7000484D02*
X2217682Y-7000484D01*
X2217682Y-7000484D02*
X2236729Y-7010008D01*
X2236729Y-7010008D02*
X2246253Y-7019531D01*
X2246253Y-7019531D02*
X2255777Y-7038579D01*
X2255777Y-7038579D02*
X2265301Y-7076674D01*
X2265301Y-7076674D02*
X2265301Y-7124293D01*
X2265301Y-7124293D02*
X2255777Y-7162388D01*
X2255777Y-7162388D02*
X2246253Y-7181436D01*
X2246253Y-7181436D02*
X2236729Y-7190960D01*
X2236729Y-7190960D02*
X2217682Y-7200484D01*
X2217682Y-7200484D02*
X2198634Y-7200484D01*
X2198634Y-7200484D02*
X2179587Y-7190960D01*
X2179587Y-7190960D02*
X2170063Y-7181436D01*
X2170063Y-7181436D02*
X2160539Y-7162388D01*
X2160539Y-7162388D02*
X2151015Y-7124293D01*
X2151015Y-7124293D02*
X2151015Y-7076674D01*
X2151015Y-7076674D02*
X2160539Y-7038579D01*
X2160539Y-7038579D02*
X2170063Y-7019531D01*
X2170063Y-7019531D02*
X2179587Y-7010008D01*
X2179587Y-7010008D02*
X2198634Y-7000484D01*
X2351015Y-7181436D02*
X2360539Y-7190960D01*
X2360539Y-7190960D02*
X2351015Y-7200484D01*
X2351015Y-7200484D02*
X2341491Y-7190960D01*
X2341491Y-7190960D02*
X2351015Y-7181436D01*
X2351015Y-7181436D02*
X2351015Y-7200484D01*
X2484348Y-7000484D02*
X2503396Y-7000484D01*
X2503396Y-7000484D02*
X2522444Y-7010008D01*
X2522444Y-7010008D02*
X2531968Y-7019531D01*
X2531968Y-7019531D02*
X2541491Y-7038579D01*
X2541491Y-7038579D02*
X2551015Y-7076674D01*
X2551015Y-7076674D02*
X2551015Y-7124293D01*
X2551015Y-7124293D02*
X2541491Y-7162388D01*
X2541491Y-7162388D02*
X2531968Y-7181436D01*
X2531968Y-7181436D02*
X2522444Y-7190960D01*
X2522444Y-7190960D02*
X2503396Y-7200484D01*
X2503396Y-7200484D02*
X2484348Y-7200484D01*
X2484348Y-7200484D02*
X2465301Y-7190960D01*
X2465301Y-7190960D02*
X2455777Y-7181436D01*
X2455777Y-7181436D02*
X2446253Y-7162388D01*
X2446253Y-7162388D02*
X2436729Y-7124293D01*
X2436729Y-7124293D02*
X2436729Y-7076674D01*
X2436729Y-7076674D02*
X2446253Y-7038579D01*
X2446253Y-7038579D02*
X2455777Y-7019531D01*
X2455777Y-7019531D02*
X2465301Y-7010008D01*
X2465301Y-7010008D02*
X2484348Y-7000484D01*
X2617682Y-7000484D02*
X2741491Y-7000484D01*
X2741491Y-7000484D02*
X2674825Y-7076674D01*
X2674825Y-7076674D02*
X2703396Y-7076674D01*
X2703396Y-7076674D02*
X2722444Y-7086198D01*
X2722444Y-7086198D02*
X2731968Y-7095722D01*
X2731968Y-7095722D02*
X2741491Y-7114769D01*
X2741491Y-7114769D02*
X2741491Y-7162388D01*
X2741491Y-7162388D02*
X2731968Y-7181436D01*
X2731968Y-7181436D02*
X2722444Y-7190960D01*
X2722444Y-7190960D02*
X2703396Y-7200484D01*
X2703396Y-7200484D02*
X2646253Y-7200484D01*
X2646253Y-7200484D02*
X2627206Y-7190960D01*
X2627206Y-7190960D02*
X2617682Y-7181436D01*
X2836729Y-7200484D02*
X2874825Y-7200484D01*
X2874825Y-7200484D02*
X2893872Y-7190960D01*
X2893872Y-7190960D02*
X2903396Y-7181436D01*
X2903396Y-7181436D02*
X2922444Y-7152865D01*
X2922444Y-7152865D02*
X2931967Y-7114769D01*
X2931967Y-7114769D02*
X2931967Y-7038579D01*
X2931967Y-7038579D02*
X2922444Y-7019531D01*
X2922444Y-7019531D02*
X2912920Y-7010008D01*
X2912920Y-7010008D02*
X2893872Y-7000484D01*
X2893872Y-7000484D02*
X2855777Y-7000484D01*
X2855777Y-7000484D02*
X2836729Y-7010008D01*
X2836729Y-7010008D02*
X2827206Y-7019531D01*
X2827206Y-7019531D02*
X2817682Y-7038579D01*
X2817682Y-7038579D02*
X2817682Y-7086198D01*
X2817682Y-7086198D02*
X2827206Y-7105246D01*
X2827206Y-7105246D02*
X2836729Y-7114769D01*
X2836729Y-7114769D02*
X2855777Y-7124293D01*
X2855777Y-7124293D02*
X2893872Y-7124293D01*
X2893872Y-7124293D02*
X2912920Y-7114769D01*
X2912920Y-7114769D02*
X2922444Y-7105246D01*
X2922444Y-7105246D02*
X2931967Y-7086198D01*
X3103396Y-7067150D02*
X3103396Y-7200484D01*
X3055777Y-6990960D02*
X3008158Y-7133817D01*
X3008158Y-7133817D02*
X3131967Y-7133817D01*
X3198634Y-7000484D02*
X3198634Y-7038579D01*
X3274825Y-7000484D02*
X3274825Y-7038579D01*
X3570063Y-7276674D02*
X3560539Y-7267150D01*
X3560539Y-7267150D02*
X3541491Y-7238579D01*
X3541491Y-7238579D02*
X3531968Y-7219531D01*
X3531968Y-7219531D02*
X3522444Y-7190960D01*
X3522444Y-7190960D02*
X3512920Y-7143341D01*
X3512920Y-7143341D02*
X3512920Y-7105246D01*
X3512920Y-7105246D02*
X3522444Y-7057627D01*
X3522444Y-7057627D02*
X3531968Y-7029055D01*
X3531968Y-7029055D02*
X3541491Y-7010008D01*
X3541491Y-7010008D02*
X3560539Y-6981436D01*
X3560539Y-6981436D02*
X3570063Y-6971912D01*
X3751015Y-7200484D02*
X3636729Y-7200484D01*
X3693872Y-7200484D02*
X3693872Y-7000484D01*
X3693872Y-7000484D02*
X3674825Y-7029055D01*
X3674825Y-7029055D02*
X3655777Y-7048103D01*
X3655777Y-7048103D02*
X3636729Y-7057627D01*
X3922444Y-7067150D02*
X3922444Y-7200484D01*
X3874825Y-6990960D02*
X3827206Y-7133817D01*
X3827206Y-7133817D02*
X3951015Y-7133817D01*
X4179587Y-7200484D02*
X4179587Y-7000484D01*
X4265301Y-7200484D02*
X4265301Y-7095722D01*
X4265301Y-7095722D02*
X4255777Y-7076674D01*
X4255777Y-7076674D02*
X4236730Y-7067150D01*
X4236730Y-7067150D02*
X4208158Y-7067150D01*
X4208158Y-7067150D02*
X4189110Y-7076674D01*
X4189110Y-7076674D02*
X4179587Y-7086198D01*
X4389111Y-7200484D02*
X4370063Y-7190960D01*
X4370063Y-7190960D02*
X4360539Y-7181436D01*
X4360539Y-7181436D02*
X4351015Y-7162388D01*
X4351015Y-7162388D02*
X4351015Y-7105246D01*
X4351015Y-7105246D02*
X4360539Y-7086198D01*
X4360539Y-7086198D02*
X4370063Y-7076674D01*
X4370063Y-7076674D02*
X4389111Y-7067150D01*
X4389111Y-7067150D02*
X4417682Y-7067150D01*
X4417682Y-7067150D02*
X4436730Y-7076674D01*
X4436730Y-7076674D02*
X4446253Y-7086198D01*
X4446253Y-7086198D02*
X4455777Y-7105246D01*
X4455777Y-7105246D02*
X4455777Y-7162388D01*
X4455777Y-7162388D02*
X4446253Y-7181436D01*
X4446253Y-7181436D02*
X4436730Y-7190960D01*
X4436730Y-7190960D02*
X4417682Y-7200484D01*
X4417682Y-7200484D02*
X4389111Y-7200484D01*
X4570063Y-7200484D02*
X4551015Y-7190960D01*
X4551015Y-7190960D02*
X4541492Y-7171912D01*
X4541492Y-7171912D02*
X4541492Y-7000484D01*
X4722444Y-7190960D02*
X4703396Y-7200484D01*
X4703396Y-7200484D02*
X4665301Y-7200484D01*
X4665301Y-7200484D02*
X4646253Y-7190960D01*
X4646253Y-7190960D02*
X4636730Y-7171912D01*
X4636730Y-7171912D02*
X4636730Y-7095722D01*
X4636730Y-7095722D02*
X4646253Y-7076674D01*
X4646253Y-7076674D02*
X4665301Y-7067150D01*
X4665301Y-7067150D02*
X4703396Y-7067150D01*
X4703396Y-7067150D02*
X4722444Y-7076674D01*
X4722444Y-7076674D02*
X4731968Y-7095722D01*
X4731968Y-7095722D02*
X4731968Y-7114769D01*
X4731968Y-7114769D02*
X4636730Y-7133817D01*
X4808158Y-7190960D02*
X4827206Y-7200484D01*
X4827206Y-7200484D02*
X4865301Y-7200484D01*
X4865301Y-7200484D02*
X4884349Y-7190960D01*
X4884349Y-7190960D02*
X4893873Y-7171912D01*
X4893873Y-7171912D02*
X4893873Y-7162388D01*
X4893873Y-7162388D02*
X4884349Y-7143341D01*
X4884349Y-7143341D02*
X4865301Y-7133817D01*
X4865301Y-7133817D02*
X4836730Y-7133817D01*
X4836730Y-7133817D02*
X4817682Y-7124293D01*
X4817682Y-7124293D02*
X4808158Y-7105246D01*
X4808158Y-7105246D02*
X4808158Y-7095722D01*
X4808158Y-7095722D02*
X4817682Y-7076674D01*
X4817682Y-7076674D02*
X4836730Y-7067150D01*
X4836730Y-7067150D02*
X4865301Y-7067150D01*
X4865301Y-7067150D02*
X4884349Y-7076674D01*
X5131968Y-7124293D02*
X5284349Y-7124293D01*
X5208158Y-7200484D02*
X5208158Y-7048103D01*
X5512920Y-7000484D02*
X5636730Y-7000484D01*
X5636730Y-7000484D02*
X5570063Y-7076674D01*
X5570063Y-7076674D02*
X5598634Y-7076674D01*
X5598634Y-7076674D02*
X5617682Y-7086198D01*
X5617682Y-7086198D02*
X5627206Y-7095722D01*
X5627206Y-7095722D02*
X5636730Y-7114769D01*
X5636730Y-7114769D02*
X5636730Y-7162388D01*
X5636730Y-7162388D02*
X5627206Y-7181436D01*
X5627206Y-7181436D02*
X5617682Y-7190960D01*
X5617682Y-7190960D02*
X5598634Y-7200484D01*
X5598634Y-7200484D02*
X5541492Y-7200484D01*
X5541492Y-7200484D02*
X5522444Y-7190960D01*
X5522444Y-7190960D02*
X5512920Y-7181436D01*
X5865301Y-7190960D02*
X5884349Y-7200484D01*
X5884349Y-7200484D02*
X5922444Y-7200484D01*
X5922444Y-7200484D02*
X5941492Y-7190960D01*
X5941492Y-7190960D02*
X5951015Y-7171912D01*
X5951015Y-7171912D02*
X5951015Y-7162388D01*
X5951015Y-7162388D02*
X5941492Y-7143341D01*
X5941492Y-7143341D02*
X5922444Y-7133817D01*
X5922444Y-7133817D02*
X5893873Y-7133817D01*
X5893873Y-7133817D02*
X5874825Y-7124293D01*
X5874825Y-7124293D02*
X5865301Y-7105246D01*
X5865301Y-7105246D02*
X5865301Y-7095722D01*
X5865301Y-7095722D02*
X5874825Y-7076674D01*
X5874825Y-7076674D02*
X5893873Y-7067150D01*
X5893873Y-7067150D02*
X5922444Y-7067150D01*
X5922444Y-7067150D02*
X5941492Y-7076674D01*
X6065301Y-7200484D02*
X6046254Y-7190960D01*
X6046254Y-7190960D02*
X6036730Y-7171912D01*
X6036730Y-7171912D02*
X6036730Y-7000484D01*
X6170063Y-7200484D02*
X6151015Y-7190960D01*
X6151015Y-7190960D02*
X6141492Y-7181436D01*
X6141492Y-7181436D02*
X6131968Y-7162388D01*
X6131968Y-7162388D02*
X6131968Y-7105246D01*
X6131968Y-7105246D02*
X6141492Y-7086198D01*
X6141492Y-7086198D02*
X6151015Y-7076674D01*
X6151015Y-7076674D02*
X6170063Y-7067150D01*
X6170063Y-7067150D02*
X6198635Y-7067150D01*
X6198635Y-7067150D02*
X6217682Y-7076674D01*
X6217682Y-7076674D02*
X6227206Y-7086198D01*
X6227206Y-7086198D02*
X6236730Y-7105246D01*
X6236730Y-7105246D02*
X6236730Y-7162388D01*
X6236730Y-7162388D02*
X6227206Y-7181436D01*
X6227206Y-7181436D02*
X6217682Y-7190960D01*
X6217682Y-7190960D02*
X6198635Y-7200484D01*
X6198635Y-7200484D02*
X6170063Y-7200484D01*
X6293873Y-7067150D02*
X6370063Y-7067150D01*
X6322444Y-7000484D02*
X6322444Y-7171912D01*
X6322444Y-7171912D02*
X6331968Y-7190960D01*
X6331968Y-7190960D02*
X6351015Y-7200484D01*
X6351015Y-7200484D02*
X6370063Y-7200484D01*
X6427206Y-7190960D02*
X6446254Y-7200484D01*
X6446254Y-7200484D02*
X6484349Y-7200484D01*
X6484349Y-7200484D02*
X6503396Y-7190960D01*
X6503396Y-7190960D02*
X6512920Y-7171912D01*
X6512920Y-7171912D02*
X6512920Y-7162388D01*
X6512920Y-7162388D02*
X6503396Y-7143341D01*
X6503396Y-7143341D02*
X6484349Y-7133817D01*
X6484349Y-7133817D02*
X6455777Y-7133817D01*
X6455777Y-7133817D02*
X6436730Y-7124293D01*
X6436730Y-7124293D02*
X6427206Y-7105246D01*
X6427206Y-7105246D02*
X6427206Y-7095722D01*
X6427206Y-7095722D02*
X6436730Y-7076674D01*
X6436730Y-7076674D02*
X6455777Y-7067150D01*
X6455777Y-7067150D02*
X6484349Y-7067150D01*
X6484349Y-7067150D02*
X6503396Y-7076674D01*
X6579587Y-7276674D02*
X6589111Y-7267150D01*
X6589111Y-7267150D02*
X6608158Y-7238579D01*
X6608158Y-7238579D02*
X6617682Y-7219531D01*
X6617682Y-7219531D02*
X6627206Y-7190960D01*
X6627206Y-7190960D02*
X6636730Y-7143341D01*
X6636730Y-7143341D02*
X6636730Y-7105246D01*
X6636730Y-7105246D02*
X6627206Y-7057627D01*
X6627206Y-7057627D02*
X6617682Y-7029055D01*
X6617682Y-7029055D02*
X6608158Y-7010008D01*
X6608158Y-7010008D02*
X6589111Y-6981436D01*
X6589111Y-6981436D02*
X6579587Y-6971912D01*
D12*
X-56000Y-7322000D02*
X-56000Y-7424000D01*
X-107000Y-7373000D02*
X-5000Y-7373000D01*
D11*
X360539Y-7464484D02*
X246253Y-7464484D01*
X303396Y-7464484D02*
X303396Y-7264484D01*
X303396Y-7264484D02*
X284348Y-7293055D01*
X284348Y-7293055D02*
X265301Y-7312103D01*
X265301Y-7312103D02*
X246253Y-7321627D01*
X446253Y-7445436D02*
X455777Y-7454960D01*
X455777Y-7454960D02*
X446253Y-7464484D01*
X446253Y-7464484D02*
X436729Y-7454960D01*
X436729Y-7454960D02*
X446253Y-7445436D01*
X446253Y-7445436D02*
X446253Y-7464484D01*
X579586Y-7264484D02*
X598634Y-7264484D01*
X598634Y-7264484D02*
X617682Y-7274008D01*
X617682Y-7274008D02*
X627205Y-7283531D01*
X627205Y-7283531D02*
X636729Y-7302579D01*
X636729Y-7302579D02*
X646253Y-7340674D01*
X646253Y-7340674D02*
X646253Y-7388293D01*
X646253Y-7388293D02*
X636729Y-7426388D01*
X636729Y-7426388D02*
X627205Y-7445436D01*
X627205Y-7445436D02*
X617682Y-7454960D01*
X617682Y-7454960D02*
X598634Y-7464484D01*
X598634Y-7464484D02*
X579586Y-7464484D01*
X579586Y-7464484D02*
X560539Y-7454960D01*
X560539Y-7454960D02*
X551015Y-7445436D01*
X551015Y-7445436D02*
X541491Y-7426388D01*
X541491Y-7426388D02*
X531967Y-7388293D01*
X531967Y-7388293D02*
X531967Y-7340674D01*
X531967Y-7340674D02*
X541491Y-7302579D01*
X541491Y-7302579D02*
X551015Y-7283531D01*
X551015Y-7283531D02*
X560539Y-7274008D01*
X560539Y-7274008D02*
X579586Y-7264484D01*
X722443Y-7283531D02*
X731967Y-7274008D01*
X731967Y-7274008D02*
X751015Y-7264484D01*
X751015Y-7264484D02*
X798634Y-7264484D01*
X798634Y-7264484D02*
X817682Y-7274008D01*
X817682Y-7274008D02*
X827205Y-7283531D01*
X827205Y-7283531D02*
X836729Y-7302579D01*
X836729Y-7302579D02*
X836729Y-7321627D01*
X836729Y-7321627D02*
X827205Y-7350198D01*
X827205Y-7350198D02*
X712920Y-7464484D01*
X712920Y-7464484D02*
X836729Y-7464484D01*
X960539Y-7264484D02*
X979586Y-7264484D01*
X979586Y-7264484D02*
X998634Y-7274008D01*
X998634Y-7274008D02*
X1008158Y-7283531D01*
X1008158Y-7283531D02*
X1017682Y-7302579D01*
X1017682Y-7302579D02*
X1027205Y-7340674D01*
X1027205Y-7340674D02*
X1027205Y-7388293D01*
X1027205Y-7388293D02*
X1017682Y-7426388D01*
X1017682Y-7426388D02*
X1008158Y-7445436D01*
X1008158Y-7445436D02*
X998634Y-7454960D01*
X998634Y-7454960D02*
X979586Y-7464484D01*
X979586Y-7464484D02*
X960539Y-7464484D01*
X960539Y-7464484D02*
X941491Y-7454960D01*
X941491Y-7454960D02*
X931967Y-7445436D01*
X931967Y-7445436D02*
X922443Y-7426388D01*
X922443Y-7426388D02*
X912920Y-7388293D01*
X912920Y-7388293D02*
X912920Y-7340674D01*
X912920Y-7340674D02*
X922443Y-7302579D01*
X922443Y-7302579D02*
X931967Y-7283531D01*
X931967Y-7283531D02*
X941491Y-7274008D01*
X941491Y-7274008D02*
X960539Y-7264484D01*
X1112920Y-7464484D02*
X1112920Y-7331150D01*
X1112920Y-7350198D02*
X1122444Y-7340674D01*
X1122444Y-7340674D02*
X1141491Y-7331150D01*
X1141491Y-7331150D02*
X1170063Y-7331150D01*
X1170063Y-7331150D02*
X1189110Y-7340674D01*
X1189110Y-7340674D02*
X1198634Y-7359722D01*
X1198634Y-7359722D02*
X1198634Y-7464484D01*
X1198634Y-7359722D02*
X1208158Y-7340674D01*
X1208158Y-7340674D02*
X1227205Y-7331150D01*
X1227205Y-7331150D02*
X1255777Y-7331150D01*
X1255777Y-7331150D02*
X1274825Y-7340674D01*
X1274825Y-7340674D02*
X1284348Y-7359722D01*
X1284348Y-7359722D02*
X1284348Y-7464484D01*
X1379586Y-7464484D02*
X1379586Y-7331150D01*
X1379586Y-7350198D02*
X1389110Y-7340674D01*
X1389110Y-7340674D02*
X1408158Y-7331150D01*
X1408158Y-7331150D02*
X1436729Y-7331150D01*
X1436729Y-7331150D02*
X1455777Y-7340674D01*
X1455777Y-7340674D02*
X1465301Y-7359722D01*
X1465301Y-7359722D02*
X1465301Y-7464484D01*
X1465301Y-7359722D02*
X1474824Y-7340674D01*
X1474824Y-7340674D02*
X1493872Y-7331150D01*
X1493872Y-7331150D02*
X1522443Y-7331150D01*
X1522443Y-7331150D02*
X1541491Y-7340674D01*
X1541491Y-7340674D02*
X1551015Y-7359722D01*
X1551015Y-7359722D02*
X1551015Y-7464484D01*
X1941491Y-7254960D02*
X1770063Y-7512103D01*
X2198634Y-7264484D02*
X2217682Y-7264484D01*
X2217682Y-7264484D02*
X2236729Y-7274008D01*
X2236729Y-7274008D02*
X2246253Y-7283531D01*
X2246253Y-7283531D02*
X2255777Y-7302579D01*
X2255777Y-7302579D02*
X2265301Y-7340674D01*
X2265301Y-7340674D02*
X2265301Y-7388293D01*
X2265301Y-7388293D02*
X2255777Y-7426388D01*
X2255777Y-7426388D02*
X2246253Y-7445436D01*
X2246253Y-7445436D02*
X2236729Y-7454960D01*
X2236729Y-7454960D02*
X2217682Y-7464484D01*
X2217682Y-7464484D02*
X2198634Y-7464484D01*
X2198634Y-7464484D02*
X2179587Y-7454960D01*
X2179587Y-7454960D02*
X2170063Y-7445436D01*
X2170063Y-7445436D02*
X2160539Y-7426388D01*
X2160539Y-7426388D02*
X2151015Y-7388293D01*
X2151015Y-7388293D02*
X2151015Y-7340674D01*
X2151015Y-7340674D02*
X2160539Y-7302579D01*
X2160539Y-7302579D02*
X2170063Y-7283531D01*
X2170063Y-7283531D02*
X2179587Y-7274008D01*
X2179587Y-7274008D02*
X2198634Y-7264484D01*
X2351015Y-7445436D02*
X2360539Y-7454960D01*
X2360539Y-7454960D02*
X2351015Y-7464484D01*
X2351015Y-7464484D02*
X2341491Y-7454960D01*
X2341491Y-7454960D02*
X2351015Y-7445436D01*
X2351015Y-7445436D02*
X2351015Y-7464484D01*
X2484348Y-7264484D02*
X2503396Y-7264484D01*
X2503396Y-7264484D02*
X2522444Y-7274008D01*
X2522444Y-7274008D02*
X2531968Y-7283531D01*
X2531968Y-7283531D02*
X2541491Y-7302579D01*
X2541491Y-7302579D02*
X2551015Y-7340674D01*
X2551015Y-7340674D02*
X2551015Y-7388293D01*
X2551015Y-7388293D02*
X2541491Y-7426388D01*
X2541491Y-7426388D02*
X2531968Y-7445436D01*
X2531968Y-7445436D02*
X2522444Y-7454960D01*
X2522444Y-7454960D02*
X2503396Y-7464484D01*
X2503396Y-7464484D02*
X2484348Y-7464484D01*
X2484348Y-7464484D02*
X2465301Y-7454960D01*
X2465301Y-7454960D02*
X2455777Y-7445436D01*
X2455777Y-7445436D02*
X2446253Y-7426388D01*
X2446253Y-7426388D02*
X2436729Y-7388293D01*
X2436729Y-7388293D02*
X2436729Y-7340674D01*
X2436729Y-7340674D02*
X2446253Y-7302579D01*
X2446253Y-7302579D02*
X2455777Y-7283531D01*
X2455777Y-7283531D02*
X2465301Y-7274008D01*
X2465301Y-7274008D02*
X2484348Y-7264484D01*
X2722444Y-7331150D02*
X2722444Y-7464484D01*
X2674825Y-7254960D02*
X2627206Y-7397817D01*
X2627206Y-7397817D02*
X2751015Y-7397817D01*
X2865301Y-7264484D02*
X2884348Y-7264484D01*
X2884348Y-7264484D02*
X2903396Y-7274008D01*
X2903396Y-7274008D02*
X2912920Y-7283531D01*
X2912920Y-7283531D02*
X2922444Y-7302579D01*
X2922444Y-7302579D02*
X2931967Y-7340674D01*
X2931967Y-7340674D02*
X2931967Y-7388293D01*
X2931967Y-7388293D02*
X2922444Y-7426388D01*
X2922444Y-7426388D02*
X2912920Y-7445436D01*
X2912920Y-7445436D02*
X2903396Y-7454960D01*
X2903396Y-7454960D02*
X2884348Y-7464484D01*
X2884348Y-7464484D02*
X2865301Y-7464484D01*
X2865301Y-7464484D02*
X2846253Y-7454960D01*
X2846253Y-7454960D02*
X2836729Y-7445436D01*
X2836729Y-7445436D02*
X2827206Y-7426388D01*
X2827206Y-7426388D02*
X2817682Y-7388293D01*
X2817682Y-7388293D02*
X2817682Y-7340674D01*
X2817682Y-7340674D02*
X2827206Y-7302579D01*
X2827206Y-7302579D02*
X2836729Y-7283531D01*
X2836729Y-7283531D02*
X2846253Y-7274008D01*
X2846253Y-7274008D02*
X2865301Y-7264484D01*
X3008158Y-7283531D02*
X3017682Y-7274008D01*
X3017682Y-7274008D02*
X3036729Y-7264484D01*
X3036729Y-7264484D02*
X3084348Y-7264484D01*
X3084348Y-7264484D02*
X3103396Y-7274008D01*
X3103396Y-7274008D02*
X3112920Y-7283531D01*
X3112920Y-7283531D02*
X3122444Y-7302579D01*
X3122444Y-7302579D02*
X3122444Y-7321627D01*
X3122444Y-7321627D02*
X3112920Y-7350198D01*
X3112920Y-7350198D02*
X2998634Y-7464484D01*
X2998634Y-7464484D02*
X3122444Y-7464484D01*
X3198634Y-7264484D02*
X3198634Y-7302579D01*
X3274825Y-7264484D02*
X3274825Y-7302579D01*
X3570063Y-7540674D02*
X3560539Y-7531150D01*
X3560539Y-7531150D02*
X3541491Y-7502579D01*
X3541491Y-7502579D02*
X3531968Y-7483531D01*
X3531968Y-7483531D02*
X3522444Y-7454960D01*
X3522444Y-7454960D02*
X3512920Y-7407341D01*
X3512920Y-7407341D02*
X3512920Y-7369246D01*
X3512920Y-7369246D02*
X3522444Y-7321627D01*
X3522444Y-7321627D02*
X3531968Y-7293055D01*
X3531968Y-7293055D02*
X3541491Y-7274008D01*
X3541491Y-7274008D02*
X3560539Y-7245436D01*
X3560539Y-7245436D02*
X3570063Y-7235912D01*
X3731968Y-7331150D02*
X3731968Y-7464484D01*
X3684348Y-7254960D02*
X3636729Y-7397817D01*
X3636729Y-7397817D02*
X3760539Y-7397817D01*
X3817682Y-7264484D02*
X3941491Y-7264484D01*
X3941491Y-7264484D02*
X3874825Y-7340674D01*
X3874825Y-7340674D02*
X3903396Y-7340674D01*
X3903396Y-7340674D02*
X3922444Y-7350198D01*
X3922444Y-7350198D02*
X3931968Y-7359722D01*
X3931968Y-7359722D02*
X3941491Y-7378769D01*
X3941491Y-7378769D02*
X3941491Y-7426388D01*
X3941491Y-7426388D02*
X3931968Y-7445436D01*
X3931968Y-7445436D02*
X3922444Y-7454960D01*
X3922444Y-7454960D02*
X3903396Y-7464484D01*
X3903396Y-7464484D02*
X3846253Y-7464484D01*
X3846253Y-7464484D02*
X3827206Y-7454960D01*
X3827206Y-7454960D02*
X3817682Y-7445436D01*
X4179587Y-7464484D02*
X4179587Y-7264484D01*
X4265301Y-7464484D02*
X4265301Y-7359722D01*
X4265301Y-7359722D02*
X4255777Y-7340674D01*
X4255777Y-7340674D02*
X4236730Y-7331150D01*
X4236730Y-7331150D02*
X4208158Y-7331150D01*
X4208158Y-7331150D02*
X4189110Y-7340674D01*
X4189110Y-7340674D02*
X4179587Y-7350198D01*
X4389111Y-7464484D02*
X4370063Y-7454960D01*
X4370063Y-7454960D02*
X4360539Y-7445436D01*
X4360539Y-7445436D02*
X4351015Y-7426388D01*
X4351015Y-7426388D02*
X4351015Y-7369246D01*
X4351015Y-7369246D02*
X4360539Y-7350198D01*
X4360539Y-7350198D02*
X4370063Y-7340674D01*
X4370063Y-7340674D02*
X4389111Y-7331150D01*
X4389111Y-7331150D02*
X4417682Y-7331150D01*
X4417682Y-7331150D02*
X4436730Y-7340674D01*
X4436730Y-7340674D02*
X4446253Y-7350198D01*
X4446253Y-7350198D02*
X4455777Y-7369246D01*
X4455777Y-7369246D02*
X4455777Y-7426388D01*
X4455777Y-7426388D02*
X4446253Y-7445436D01*
X4446253Y-7445436D02*
X4436730Y-7454960D01*
X4436730Y-7454960D02*
X4417682Y-7464484D01*
X4417682Y-7464484D02*
X4389111Y-7464484D01*
X4570063Y-7464484D02*
X4551015Y-7454960D01*
X4551015Y-7454960D02*
X4541492Y-7435912D01*
X4541492Y-7435912D02*
X4541492Y-7264484D01*
X4722444Y-7454960D02*
X4703396Y-7464484D01*
X4703396Y-7464484D02*
X4665301Y-7464484D01*
X4665301Y-7464484D02*
X4646253Y-7454960D01*
X4646253Y-7454960D02*
X4636730Y-7435912D01*
X4636730Y-7435912D02*
X4636730Y-7359722D01*
X4636730Y-7359722D02*
X4646253Y-7340674D01*
X4646253Y-7340674D02*
X4665301Y-7331150D01*
X4665301Y-7331150D02*
X4703396Y-7331150D01*
X4703396Y-7331150D02*
X4722444Y-7340674D01*
X4722444Y-7340674D02*
X4731968Y-7359722D01*
X4731968Y-7359722D02*
X4731968Y-7378769D01*
X4731968Y-7378769D02*
X4636730Y-7397817D01*
X4808158Y-7454960D02*
X4827206Y-7464484D01*
X4827206Y-7464484D02*
X4865301Y-7464484D01*
X4865301Y-7464484D02*
X4884349Y-7454960D01*
X4884349Y-7454960D02*
X4893873Y-7435912D01*
X4893873Y-7435912D02*
X4893873Y-7426388D01*
X4893873Y-7426388D02*
X4884349Y-7407341D01*
X4884349Y-7407341D02*
X4865301Y-7397817D01*
X4865301Y-7397817D02*
X4836730Y-7397817D01*
X4836730Y-7397817D02*
X4817682Y-7388293D01*
X4817682Y-7388293D02*
X4808158Y-7369246D01*
X4808158Y-7369246D02*
X4808158Y-7359722D01*
X4808158Y-7359722D02*
X4817682Y-7340674D01*
X4817682Y-7340674D02*
X4836730Y-7331150D01*
X4836730Y-7331150D02*
X4865301Y-7331150D01*
X4865301Y-7331150D02*
X4884349Y-7340674D01*
X4960539Y-7540674D02*
X4970063Y-7531150D01*
X4970063Y-7531150D02*
X4989111Y-7502579D01*
X4989111Y-7502579D02*
X4998634Y-7483531D01*
X4998634Y-7483531D02*
X5008158Y-7454960D01*
X5008158Y-7454960D02*
X5017682Y-7407341D01*
X5017682Y-7407341D02*
X5017682Y-7369246D01*
X5017682Y-7369246D02*
X5008158Y-7321627D01*
X5008158Y-7321627D02*
X4998634Y-7293055D01*
X4998634Y-7293055D02*
X4989111Y-7274008D01*
X4989111Y-7274008D02*
X4970063Y-7245436D01*
X4970063Y-7245436D02*
X4960539Y-7235912D01*
D13*
X-21109Y-7675891D02*
X-21109Y-7598109D01*
X-98891Y-7598109D01*
X-98891Y-7675891D01*
X-21109Y-7675891D01*
D11*
X360539Y-7728484D02*
X246253Y-7728484D01*
X303396Y-7728484D02*
X303396Y-7528484D01*
X303396Y-7528484D02*
X284348Y-7557055D01*
X284348Y-7557055D02*
X265301Y-7576103D01*
X265301Y-7576103D02*
X246253Y-7585627D01*
X446253Y-7709436D02*
X455777Y-7718960D01*
X455777Y-7718960D02*
X446253Y-7728484D01*
X446253Y-7728484D02*
X436729Y-7718960D01*
X436729Y-7718960D02*
X446253Y-7709436D01*
X446253Y-7709436D02*
X446253Y-7728484D01*
X646253Y-7728484D02*
X531967Y-7728484D01*
X589110Y-7728484D02*
X589110Y-7528484D01*
X589110Y-7528484D02*
X570063Y-7557055D01*
X570063Y-7557055D02*
X551015Y-7576103D01*
X551015Y-7576103D02*
X531967Y-7585627D01*
X770062Y-7528484D02*
X789110Y-7528484D01*
X789110Y-7528484D02*
X808158Y-7538008D01*
X808158Y-7538008D02*
X817682Y-7547531D01*
X817682Y-7547531D02*
X827205Y-7566579D01*
X827205Y-7566579D02*
X836729Y-7604674D01*
X836729Y-7604674D02*
X836729Y-7652293D01*
X836729Y-7652293D02*
X827205Y-7690388D01*
X827205Y-7690388D02*
X817682Y-7709436D01*
X817682Y-7709436D02*
X808158Y-7718960D01*
X808158Y-7718960D02*
X789110Y-7728484D01*
X789110Y-7728484D02*
X770062Y-7728484D01*
X770062Y-7728484D02*
X751015Y-7718960D01*
X751015Y-7718960D02*
X741491Y-7709436D01*
X741491Y-7709436D02*
X731967Y-7690388D01*
X731967Y-7690388D02*
X722443Y-7652293D01*
X722443Y-7652293D02*
X722443Y-7604674D01*
X722443Y-7604674D02*
X731967Y-7566579D01*
X731967Y-7566579D02*
X741491Y-7547531D01*
X741491Y-7547531D02*
X751015Y-7538008D01*
X751015Y-7538008D02*
X770062Y-7528484D01*
X960539Y-7528484D02*
X979586Y-7528484D01*
X979586Y-7528484D02*
X998634Y-7538008D01*
X998634Y-7538008D02*
X1008158Y-7547531D01*
X1008158Y-7547531D02*
X1017682Y-7566579D01*
X1017682Y-7566579D02*
X1027205Y-7604674D01*
X1027205Y-7604674D02*
X1027205Y-7652293D01*
X1027205Y-7652293D02*
X1017682Y-7690388D01*
X1017682Y-7690388D02*
X1008158Y-7709436D01*
X1008158Y-7709436D02*
X998634Y-7718960D01*
X998634Y-7718960D02*
X979586Y-7728484D01*
X979586Y-7728484D02*
X960539Y-7728484D01*
X960539Y-7728484D02*
X941491Y-7718960D01*
X941491Y-7718960D02*
X931967Y-7709436D01*
X931967Y-7709436D02*
X922443Y-7690388D01*
X922443Y-7690388D02*
X912920Y-7652293D01*
X912920Y-7652293D02*
X912920Y-7604674D01*
X912920Y-7604674D02*
X922443Y-7566579D01*
X922443Y-7566579D02*
X931967Y-7547531D01*
X931967Y-7547531D02*
X941491Y-7538008D01*
X941491Y-7538008D02*
X960539Y-7528484D01*
X1112920Y-7728484D02*
X1112920Y-7595150D01*
X1112920Y-7614198D02*
X1122444Y-7604674D01*
X1122444Y-7604674D02*
X1141491Y-7595150D01*
X1141491Y-7595150D02*
X1170063Y-7595150D01*
X1170063Y-7595150D02*
X1189110Y-7604674D01*
X1189110Y-7604674D02*
X1198634Y-7623722D01*
X1198634Y-7623722D02*
X1198634Y-7728484D01*
X1198634Y-7623722D02*
X1208158Y-7604674D01*
X1208158Y-7604674D02*
X1227205Y-7595150D01*
X1227205Y-7595150D02*
X1255777Y-7595150D01*
X1255777Y-7595150D02*
X1274825Y-7604674D01*
X1274825Y-7604674D02*
X1284348Y-7623722D01*
X1284348Y-7623722D02*
X1284348Y-7728484D01*
X1379586Y-7728484D02*
X1379586Y-7595150D01*
X1379586Y-7614198D02*
X1389110Y-7604674D01*
X1389110Y-7604674D02*
X1408158Y-7595150D01*
X1408158Y-7595150D02*
X1436729Y-7595150D01*
X1436729Y-7595150D02*
X1455777Y-7604674D01*
X1455777Y-7604674D02*
X1465301Y-7623722D01*
X1465301Y-7623722D02*
X1465301Y-7728484D01*
X1465301Y-7623722D02*
X1474824Y-7604674D01*
X1474824Y-7604674D02*
X1493872Y-7595150D01*
X1493872Y-7595150D02*
X1522443Y-7595150D01*
X1522443Y-7595150D02*
X1541491Y-7604674D01*
X1541491Y-7604674D02*
X1551015Y-7623722D01*
X1551015Y-7623722D02*
X1551015Y-7728484D01*
X1941491Y-7518960D02*
X1770063Y-7776103D01*
X2198634Y-7528484D02*
X2217682Y-7528484D01*
X2217682Y-7528484D02*
X2236729Y-7538008D01*
X2236729Y-7538008D02*
X2246253Y-7547531D01*
X2246253Y-7547531D02*
X2255777Y-7566579D01*
X2255777Y-7566579D02*
X2265301Y-7604674D01*
X2265301Y-7604674D02*
X2265301Y-7652293D01*
X2265301Y-7652293D02*
X2255777Y-7690388D01*
X2255777Y-7690388D02*
X2246253Y-7709436D01*
X2246253Y-7709436D02*
X2236729Y-7718960D01*
X2236729Y-7718960D02*
X2217682Y-7728484D01*
X2217682Y-7728484D02*
X2198634Y-7728484D01*
X2198634Y-7728484D02*
X2179587Y-7718960D01*
X2179587Y-7718960D02*
X2170063Y-7709436D01*
X2170063Y-7709436D02*
X2160539Y-7690388D01*
X2160539Y-7690388D02*
X2151015Y-7652293D01*
X2151015Y-7652293D02*
X2151015Y-7604674D01*
X2151015Y-7604674D02*
X2160539Y-7566579D01*
X2160539Y-7566579D02*
X2170063Y-7547531D01*
X2170063Y-7547531D02*
X2179587Y-7538008D01*
X2179587Y-7538008D02*
X2198634Y-7528484D01*
X2351015Y-7709436D02*
X2360539Y-7718960D01*
X2360539Y-7718960D02*
X2351015Y-7728484D01*
X2351015Y-7728484D02*
X2341491Y-7718960D01*
X2341491Y-7718960D02*
X2351015Y-7709436D01*
X2351015Y-7709436D02*
X2351015Y-7728484D01*
X2484348Y-7528484D02*
X2503396Y-7528484D01*
X2503396Y-7528484D02*
X2522444Y-7538008D01*
X2522444Y-7538008D02*
X2531968Y-7547531D01*
X2531968Y-7547531D02*
X2541491Y-7566579D01*
X2541491Y-7566579D02*
X2551015Y-7604674D01*
X2551015Y-7604674D02*
X2551015Y-7652293D01*
X2551015Y-7652293D02*
X2541491Y-7690388D01*
X2541491Y-7690388D02*
X2531968Y-7709436D01*
X2531968Y-7709436D02*
X2522444Y-7718960D01*
X2522444Y-7718960D02*
X2503396Y-7728484D01*
X2503396Y-7728484D02*
X2484348Y-7728484D01*
X2484348Y-7728484D02*
X2465301Y-7718960D01*
X2465301Y-7718960D02*
X2455777Y-7709436D01*
X2455777Y-7709436D02*
X2446253Y-7690388D01*
X2446253Y-7690388D02*
X2436729Y-7652293D01*
X2436729Y-7652293D02*
X2436729Y-7604674D01*
X2436729Y-7604674D02*
X2446253Y-7566579D01*
X2446253Y-7566579D02*
X2455777Y-7547531D01*
X2455777Y-7547531D02*
X2465301Y-7538008D01*
X2465301Y-7538008D02*
X2484348Y-7528484D01*
X2722444Y-7595150D02*
X2722444Y-7728484D01*
X2674825Y-7518960D02*
X2627206Y-7661817D01*
X2627206Y-7661817D02*
X2751015Y-7661817D01*
X2808158Y-7528484D02*
X2931967Y-7528484D01*
X2931967Y-7528484D02*
X2865301Y-7604674D01*
X2865301Y-7604674D02*
X2893872Y-7604674D01*
X2893872Y-7604674D02*
X2912920Y-7614198D01*
X2912920Y-7614198D02*
X2922444Y-7623722D01*
X2922444Y-7623722D02*
X2931967Y-7642769D01*
X2931967Y-7642769D02*
X2931967Y-7690388D01*
X2931967Y-7690388D02*
X2922444Y-7709436D01*
X2922444Y-7709436D02*
X2912920Y-7718960D01*
X2912920Y-7718960D02*
X2893872Y-7728484D01*
X2893872Y-7728484D02*
X2836729Y-7728484D01*
X2836729Y-7728484D02*
X2817682Y-7718960D01*
X2817682Y-7718960D02*
X2808158Y-7709436D01*
X2998634Y-7528484D02*
X3122444Y-7528484D01*
X3122444Y-7528484D02*
X3055777Y-7604674D01*
X3055777Y-7604674D02*
X3084348Y-7604674D01*
X3084348Y-7604674D02*
X3103396Y-7614198D01*
X3103396Y-7614198D02*
X3112920Y-7623722D01*
X3112920Y-7623722D02*
X3122444Y-7642769D01*
X3122444Y-7642769D02*
X3122444Y-7690388D01*
X3122444Y-7690388D02*
X3112920Y-7709436D01*
X3112920Y-7709436D02*
X3103396Y-7718960D01*
X3103396Y-7718960D02*
X3084348Y-7728484D01*
X3084348Y-7728484D02*
X3027206Y-7728484D01*
X3027206Y-7728484D02*
X3008158Y-7718960D01*
X3008158Y-7718960D02*
X2998634Y-7709436D01*
X3198634Y-7528484D02*
X3198634Y-7566579D01*
X3274825Y-7528484D02*
X3274825Y-7566579D01*
X3570063Y-7804674D02*
X3560539Y-7795150D01*
X3560539Y-7795150D02*
X3541491Y-7766579D01*
X3541491Y-7766579D02*
X3531968Y-7747531D01*
X3531968Y-7747531D02*
X3522444Y-7718960D01*
X3522444Y-7718960D02*
X3512920Y-7671341D01*
X3512920Y-7671341D02*
X3512920Y-7633246D01*
X3512920Y-7633246D02*
X3522444Y-7585627D01*
X3522444Y-7585627D02*
X3531968Y-7557055D01*
X3531968Y-7557055D02*
X3541491Y-7538008D01*
X3541491Y-7538008D02*
X3560539Y-7509436D01*
X3560539Y-7509436D02*
X3570063Y-7499912D01*
X3751015Y-7728484D02*
X3636729Y-7728484D01*
X3693872Y-7728484D02*
X3693872Y-7528484D01*
X3693872Y-7528484D02*
X3674825Y-7557055D01*
X3674825Y-7557055D02*
X3655777Y-7576103D01*
X3655777Y-7576103D02*
X3636729Y-7585627D01*
X3874825Y-7528484D02*
X3893872Y-7528484D01*
X3893872Y-7528484D02*
X3912920Y-7538008D01*
X3912920Y-7538008D02*
X3922444Y-7547531D01*
X3922444Y-7547531D02*
X3931968Y-7566579D01*
X3931968Y-7566579D02*
X3941491Y-7604674D01*
X3941491Y-7604674D02*
X3941491Y-7652293D01*
X3941491Y-7652293D02*
X3931968Y-7690388D01*
X3931968Y-7690388D02*
X3922444Y-7709436D01*
X3922444Y-7709436D02*
X3912920Y-7718960D01*
X3912920Y-7718960D02*
X3893872Y-7728484D01*
X3893872Y-7728484D02*
X3874825Y-7728484D01*
X3874825Y-7728484D02*
X3855777Y-7718960D01*
X3855777Y-7718960D02*
X3846253Y-7709436D01*
X3846253Y-7709436D02*
X3836729Y-7690388D01*
X3836729Y-7690388D02*
X3827206Y-7652293D01*
X3827206Y-7652293D02*
X3827206Y-7604674D01*
X3827206Y-7604674D02*
X3836729Y-7566579D01*
X3836729Y-7566579D02*
X3846253Y-7547531D01*
X3846253Y-7547531D02*
X3855777Y-7538008D01*
X3855777Y-7538008D02*
X3874825Y-7528484D01*
X4179587Y-7728484D02*
X4179587Y-7528484D01*
X4265301Y-7728484D02*
X4265301Y-7623722D01*
X4265301Y-7623722D02*
X4255777Y-7604674D01*
X4255777Y-7604674D02*
X4236730Y-7595150D01*
X4236730Y-7595150D02*
X4208158Y-7595150D01*
X4208158Y-7595150D02*
X4189110Y-7604674D01*
X4189110Y-7604674D02*
X4179587Y-7614198D01*
X4389111Y-7728484D02*
X4370063Y-7718960D01*
X4370063Y-7718960D02*
X4360539Y-7709436D01*
X4360539Y-7709436D02*
X4351015Y-7690388D01*
X4351015Y-7690388D02*
X4351015Y-7633246D01*
X4351015Y-7633246D02*
X4360539Y-7614198D01*
X4360539Y-7614198D02*
X4370063Y-7604674D01*
X4370063Y-7604674D02*
X4389111Y-7595150D01*
X4389111Y-7595150D02*
X4417682Y-7595150D01*
X4417682Y-7595150D02*
X4436730Y-7604674D01*
X4436730Y-7604674D02*
X4446253Y-7614198D01*
X4446253Y-7614198D02*
X4455777Y-7633246D01*
X4455777Y-7633246D02*
X4455777Y-7690388D01*
X4455777Y-7690388D02*
X4446253Y-7709436D01*
X4446253Y-7709436D02*
X4436730Y-7718960D01*
X4436730Y-7718960D02*
X4417682Y-7728484D01*
X4417682Y-7728484D02*
X4389111Y-7728484D01*
X4570063Y-7728484D02*
X4551015Y-7718960D01*
X4551015Y-7718960D02*
X4541492Y-7699912D01*
X4541492Y-7699912D02*
X4541492Y-7528484D01*
X4722444Y-7718960D02*
X4703396Y-7728484D01*
X4703396Y-7728484D02*
X4665301Y-7728484D01*
X4665301Y-7728484D02*
X4646253Y-7718960D01*
X4646253Y-7718960D02*
X4636730Y-7699912D01*
X4636730Y-7699912D02*
X4636730Y-7623722D01*
X4636730Y-7623722D02*
X4646253Y-7604674D01*
X4646253Y-7604674D02*
X4665301Y-7595150D01*
X4665301Y-7595150D02*
X4703396Y-7595150D01*
X4703396Y-7595150D02*
X4722444Y-7604674D01*
X4722444Y-7604674D02*
X4731968Y-7623722D01*
X4731968Y-7623722D02*
X4731968Y-7642769D01*
X4731968Y-7642769D02*
X4636730Y-7661817D01*
X4808158Y-7718960D02*
X4827206Y-7728484D01*
X4827206Y-7728484D02*
X4865301Y-7728484D01*
X4865301Y-7728484D02*
X4884349Y-7718960D01*
X4884349Y-7718960D02*
X4893873Y-7699912D01*
X4893873Y-7699912D02*
X4893873Y-7690388D01*
X4893873Y-7690388D02*
X4884349Y-7671341D01*
X4884349Y-7671341D02*
X4865301Y-7661817D01*
X4865301Y-7661817D02*
X4836730Y-7661817D01*
X4836730Y-7661817D02*
X4817682Y-7652293D01*
X4817682Y-7652293D02*
X4808158Y-7633246D01*
X4808158Y-7633246D02*
X4808158Y-7623722D01*
X4808158Y-7623722D02*
X4817682Y-7604674D01*
X4817682Y-7604674D02*
X4836730Y-7595150D01*
X4836730Y-7595150D02*
X4865301Y-7595150D01*
X4865301Y-7595150D02*
X4884349Y-7604674D01*
X4960539Y-7804674D02*
X4970063Y-7795150D01*
X4970063Y-7795150D02*
X4989111Y-7766579D01*
X4989111Y-7766579D02*
X4998634Y-7747531D01*
X4998634Y-7747531D02*
X5008158Y-7718960D01*
X5008158Y-7718960D02*
X5017682Y-7671341D01*
X5017682Y-7671341D02*
X5017682Y-7633246D01*
X5017682Y-7633246D02*
X5008158Y-7585627D01*
X5008158Y-7585627D02*
X4998634Y-7557055D01*
X4998634Y-7557055D02*
X4989111Y-7538008D01*
X4989111Y-7538008D02*
X4970063Y-7509436D01*
X4970063Y-7509436D02*
X4960539Y-7499912D01*
D14*
X-75000Y-7971000D02*
X-5000Y-7901000D01*
X-75000Y-7831000D01*
X-145000Y-7901000D01*
X-75000Y-7971000D01*
D11*
X360539Y-7992484D02*
X246253Y-7992484D01*
X303396Y-7992484D02*
X303396Y-7792484D01*
X303396Y-7792484D02*
X284348Y-7821055D01*
X284348Y-7821055D02*
X265301Y-7840103D01*
X265301Y-7840103D02*
X246253Y-7849627D01*
X446253Y-7973436D02*
X455777Y-7982960D01*
X455777Y-7982960D02*
X446253Y-7992484D01*
X446253Y-7992484D02*
X436729Y-7982960D01*
X436729Y-7982960D02*
X446253Y-7973436D01*
X446253Y-7973436D02*
X446253Y-7992484D01*
X627205Y-7859150D02*
X627205Y-7992484D01*
X579586Y-7782960D02*
X531967Y-7925817D01*
X531967Y-7925817D02*
X655777Y-7925817D01*
X770062Y-7792484D02*
X789110Y-7792484D01*
X789110Y-7792484D02*
X808158Y-7802008D01*
X808158Y-7802008D02*
X817682Y-7811531D01*
X817682Y-7811531D02*
X827205Y-7830579D01*
X827205Y-7830579D02*
X836729Y-7868674D01*
X836729Y-7868674D02*
X836729Y-7916293D01*
X836729Y-7916293D02*
X827205Y-7954388D01*
X827205Y-7954388D02*
X817682Y-7973436D01*
X817682Y-7973436D02*
X808158Y-7982960D01*
X808158Y-7982960D02*
X789110Y-7992484D01*
X789110Y-7992484D02*
X770062Y-7992484D01*
X770062Y-7992484D02*
X751015Y-7982960D01*
X751015Y-7982960D02*
X741491Y-7973436D01*
X741491Y-7973436D02*
X731967Y-7954388D01*
X731967Y-7954388D02*
X722443Y-7916293D01*
X722443Y-7916293D02*
X722443Y-7868674D01*
X722443Y-7868674D02*
X731967Y-7830579D01*
X731967Y-7830579D02*
X741491Y-7811531D01*
X741491Y-7811531D02*
X751015Y-7802008D01*
X751015Y-7802008D02*
X770062Y-7792484D01*
X960539Y-7792484D02*
X979586Y-7792484D01*
X979586Y-7792484D02*
X998634Y-7802008D01*
X998634Y-7802008D02*
X1008158Y-7811531D01*
X1008158Y-7811531D02*
X1017682Y-7830579D01*
X1017682Y-7830579D02*
X1027205Y-7868674D01*
X1027205Y-7868674D02*
X1027205Y-7916293D01*
X1027205Y-7916293D02*
X1017682Y-7954388D01*
X1017682Y-7954388D02*
X1008158Y-7973436D01*
X1008158Y-7973436D02*
X998634Y-7982960D01*
X998634Y-7982960D02*
X979586Y-7992484D01*
X979586Y-7992484D02*
X960539Y-7992484D01*
X960539Y-7992484D02*
X941491Y-7982960D01*
X941491Y-7982960D02*
X931967Y-7973436D01*
X931967Y-7973436D02*
X922443Y-7954388D01*
X922443Y-7954388D02*
X912920Y-7916293D01*
X912920Y-7916293D02*
X912920Y-7868674D01*
X912920Y-7868674D02*
X922443Y-7830579D01*
X922443Y-7830579D02*
X931967Y-7811531D01*
X931967Y-7811531D02*
X941491Y-7802008D01*
X941491Y-7802008D02*
X960539Y-7792484D01*
X1112920Y-7992484D02*
X1112920Y-7859150D01*
X1112920Y-7878198D02*
X1122444Y-7868674D01*
X1122444Y-7868674D02*
X1141491Y-7859150D01*
X1141491Y-7859150D02*
X1170063Y-7859150D01*
X1170063Y-7859150D02*
X1189110Y-7868674D01*
X1189110Y-7868674D02*
X1198634Y-7887722D01*
X1198634Y-7887722D02*
X1198634Y-7992484D01*
X1198634Y-7887722D02*
X1208158Y-7868674D01*
X1208158Y-7868674D02*
X1227205Y-7859150D01*
X1227205Y-7859150D02*
X1255777Y-7859150D01*
X1255777Y-7859150D02*
X1274825Y-7868674D01*
X1274825Y-7868674D02*
X1284348Y-7887722D01*
X1284348Y-7887722D02*
X1284348Y-7992484D01*
X1379586Y-7992484D02*
X1379586Y-7859150D01*
X1379586Y-7878198D02*
X1389110Y-7868674D01*
X1389110Y-7868674D02*
X1408158Y-7859150D01*
X1408158Y-7859150D02*
X1436729Y-7859150D01*
X1436729Y-7859150D02*
X1455777Y-7868674D01*
X1455777Y-7868674D02*
X1465301Y-7887722D01*
X1465301Y-7887722D02*
X1465301Y-7992484D01*
X1465301Y-7887722D02*
X1474824Y-7868674D01*
X1474824Y-7868674D02*
X1493872Y-7859150D01*
X1493872Y-7859150D02*
X1522443Y-7859150D01*
X1522443Y-7859150D02*
X1541491Y-7868674D01*
X1541491Y-7868674D02*
X1551015Y-7887722D01*
X1551015Y-7887722D02*
X1551015Y-7992484D01*
X1941491Y-7782960D02*
X1770063Y-8040103D01*
X2198634Y-7792484D02*
X2217682Y-7792484D01*
X2217682Y-7792484D02*
X2236729Y-7802008D01*
X2236729Y-7802008D02*
X2246253Y-7811531D01*
X2246253Y-7811531D02*
X2255777Y-7830579D01*
X2255777Y-7830579D02*
X2265301Y-7868674D01*
X2265301Y-7868674D02*
X2265301Y-7916293D01*
X2265301Y-7916293D02*
X2255777Y-7954388D01*
X2255777Y-7954388D02*
X2246253Y-7973436D01*
X2246253Y-7973436D02*
X2236729Y-7982960D01*
X2236729Y-7982960D02*
X2217682Y-7992484D01*
X2217682Y-7992484D02*
X2198634Y-7992484D01*
X2198634Y-7992484D02*
X2179587Y-7982960D01*
X2179587Y-7982960D02*
X2170063Y-7973436D01*
X2170063Y-7973436D02*
X2160539Y-7954388D01*
X2160539Y-7954388D02*
X2151015Y-7916293D01*
X2151015Y-7916293D02*
X2151015Y-7868674D01*
X2151015Y-7868674D02*
X2160539Y-7830579D01*
X2160539Y-7830579D02*
X2170063Y-7811531D01*
X2170063Y-7811531D02*
X2179587Y-7802008D01*
X2179587Y-7802008D02*
X2198634Y-7792484D01*
X2351015Y-7973436D02*
X2360539Y-7982960D01*
X2360539Y-7982960D02*
X2351015Y-7992484D01*
X2351015Y-7992484D02*
X2341491Y-7982960D01*
X2341491Y-7982960D02*
X2351015Y-7973436D01*
X2351015Y-7973436D02*
X2351015Y-7992484D01*
X2484348Y-7792484D02*
X2503396Y-7792484D01*
X2503396Y-7792484D02*
X2522444Y-7802008D01*
X2522444Y-7802008D02*
X2531968Y-7811531D01*
X2531968Y-7811531D02*
X2541491Y-7830579D01*
X2541491Y-7830579D02*
X2551015Y-7868674D01*
X2551015Y-7868674D02*
X2551015Y-7916293D01*
X2551015Y-7916293D02*
X2541491Y-7954388D01*
X2541491Y-7954388D02*
X2531968Y-7973436D01*
X2531968Y-7973436D02*
X2522444Y-7982960D01*
X2522444Y-7982960D02*
X2503396Y-7992484D01*
X2503396Y-7992484D02*
X2484348Y-7992484D01*
X2484348Y-7992484D02*
X2465301Y-7982960D01*
X2465301Y-7982960D02*
X2455777Y-7973436D01*
X2455777Y-7973436D02*
X2446253Y-7954388D01*
X2446253Y-7954388D02*
X2436729Y-7916293D01*
X2436729Y-7916293D02*
X2436729Y-7868674D01*
X2436729Y-7868674D02*
X2446253Y-7830579D01*
X2446253Y-7830579D02*
X2455777Y-7811531D01*
X2455777Y-7811531D02*
X2465301Y-7802008D01*
X2465301Y-7802008D02*
X2484348Y-7792484D01*
X2731968Y-7792484D02*
X2636729Y-7792484D01*
X2636729Y-7792484D02*
X2627206Y-7887722D01*
X2627206Y-7887722D02*
X2636729Y-7878198D01*
X2636729Y-7878198D02*
X2655777Y-7868674D01*
X2655777Y-7868674D02*
X2703396Y-7868674D01*
X2703396Y-7868674D02*
X2722444Y-7878198D01*
X2722444Y-7878198D02*
X2731968Y-7887722D01*
X2731968Y-7887722D02*
X2741491Y-7906769D01*
X2741491Y-7906769D02*
X2741491Y-7954388D01*
X2741491Y-7954388D02*
X2731968Y-7973436D01*
X2731968Y-7973436D02*
X2722444Y-7982960D01*
X2722444Y-7982960D02*
X2703396Y-7992484D01*
X2703396Y-7992484D02*
X2655777Y-7992484D01*
X2655777Y-7992484D02*
X2636729Y-7982960D01*
X2636729Y-7982960D02*
X2627206Y-7973436D01*
X2922444Y-7792484D02*
X2827206Y-7792484D01*
X2827206Y-7792484D02*
X2817682Y-7887722D01*
X2817682Y-7887722D02*
X2827206Y-7878198D01*
X2827206Y-7878198D02*
X2846253Y-7868674D01*
X2846253Y-7868674D02*
X2893872Y-7868674D01*
X2893872Y-7868674D02*
X2912920Y-7878198D01*
X2912920Y-7878198D02*
X2922444Y-7887722D01*
X2922444Y-7887722D02*
X2931967Y-7906769D01*
X2931967Y-7906769D02*
X2931967Y-7954388D01*
X2931967Y-7954388D02*
X2922444Y-7973436D01*
X2922444Y-7973436D02*
X2912920Y-7982960D01*
X2912920Y-7982960D02*
X2893872Y-7992484D01*
X2893872Y-7992484D02*
X2846253Y-7992484D01*
X2846253Y-7992484D02*
X2827206Y-7982960D01*
X2827206Y-7982960D02*
X2817682Y-7973436D01*
X3122444Y-7992484D02*
X3008158Y-7992484D01*
X3065301Y-7992484D02*
X3065301Y-7792484D01*
X3065301Y-7792484D02*
X3046253Y-7821055D01*
X3046253Y-7821055D02*
X3027206Y-7840103D01*
X3027206Y-7840103D02*
X3008158Y-7849627D01*
X3198634Y-7792484D02*
X3198634Y-7830579D01*
X3274825Y-7792484D02*
X3274825Y-7830579D01*
X3570063Y-8068674D02*
X3560539Y-8059150D01*
X3560539Y-8059150D02*
X3541491Y-8030579D01*
X3541491Y-8030579D02*
X3531968Y-8011531D01*
X3531968Y-8011531D02*
X3522444Y-7982960D01*
X3522444Y-7982960D02*
X3512920Y-7935341D01*
X3512920Y-7935341D02*
X3512920Y-7897246D01*
X3512920Y-7897246D02*
X3522444Y-7849627D01*
X3522444Y-7849627D02*
X3531968Y-7821055D01*
X3531968Y-7821055D02*
X3541491Y-7802008D01*
X3541491Y-7802008D02*
X3560539Y-7773436D01*
X3560539Y-7773436D02*
X3570063Y-7763912D01*
X3636729Y-7811531D02*
X3646253Y-7802008D01*
X3646253Y-7802008D02*
X3665301Y-7792484D01*
X3665301Y-7792484D02*
X3712920Y-7792484D01*
X3712920Y-7792484D02*
X3731968Y-7802008D01*
X3731968Y-7802008D02*
X3741491Y-7811531D01*
X3741491Y-7811531D02*
X3751015Y-7830579D01*
X3751015Y-7830579D02*
X3751015Y-7849627D01*
X3751015Y-7849627D02*
X3741491Y-7878198D01*
X3741491Y-7878198D02*
X3627206Y-7992484D01*
X3627206Y-7992484D02*
X3751015Y-7992484D01*
X3989110Y-7992484D02*
X3989110Y-7792484D01*
X4074825Y-7992484D02*
X4074825Y-7887722D01*
X4074825Y-7887722D02*
X4065301Y-7868674D01*
X4065301Y-7868674D02*
X4046253Y-7859150D01*
X4046253Y-7859150D02*
X4017682Y-7859150D01*
X4017682Y-7859150D02*
X3998634Y-7868674D01*
X3998634Y-7868674D02*
X3989110Y-7878198D01*
X4198634Y-7992484D02*
X4179587Y-7982960D01*
X4179587Y-7982960D02*
X4170063Y-7973436D01*
X4170063Y-7973436D02*
X4160539Y-7954388D01*
X4160539Y-7954388D02*
X4160539Y-7897246D01*
X4160539Y-7897246D02*
X4170063Y-7878198D01*
X4170063Y-7878198D02*
X4179587Y-7868674D01*
X4179587Y-7868674D02*
X4198634Y-7859150D01*
X4198634Y-7859150D02*
X4227206Y-7859150D01*
X4227206Y-7859150D02*
X4246253Y-7868674D01*
X4246253Y-7868674D02*
X4255777Y-7878198D01*
X4255777Y-7878198D02*
X4265301Y-7897246D01*
X4265301Y-7897246D02*
X4265301Y-7954388D01*
X4265301Y-7954388D02*
X4255777Y-7973436D01*
X4255777Y-7973436D02*
X4246253Y-7982960D01*
X4246253Y-7982960D02*
X4227206Y-7992484D01*
X4227206Y-7992484D02*
X4198634Y-7992484D01*
X4379587Y-7992484D02*
X4360539Y-7982960D01*
X4360539Y-7982960D02*
X4351015Y-7963912D01*
X4351015Y-7963912D02*
X4351015Y-7792484D01*
X4531968Y-7982960D02*
X4512920Y-7992484D01*
X4512920Y-7992484D02*
X4474825Y-7992484D01*
X4474825Y-7992484D02*
X4455777Y-7982960D01*
X4455777Y-7982960D02*
X4446253Y-7963912D01*
X4446253Y-7963912D02*
X4446253Y-7887722D01*
X4446253Y-7887722D02*
X4455777Y-7868674D01*
X4455777Y-7868674D02*
X4474825Y-7859150D01*
X4474825Y-7859150D02*
X4512920Y-7859150D01*
X4512920Y-7859150D02*
X4531968Y-7868674D01*
X4531968Y-7868674D02*
X4541492Y-7887722D01*
X4541492Y-7887722D02*
X4541492Y-7906769D01*
X4541492Y-7906769D02*
X4446253Y-7925817D01*
X4617682Y-7982960D02*
X4636730Y-7992484D01*
X4636730Y-7992484D02*
X4674825Y-7992484D01*
X4674825Y-7992484D02*
X4693873Y-7982960D01*
X4693873Y-7982960D02*
X4703396Y-7963912D01*
X4703396Y-7963912D02*
X4703396Y-7954388D01*
X4703396Y-7954388D02*
X4693873Y-7935341D01*
X4693873Y-7935341D02*
X4674825Y-7925817D01*
X4674825Y-7925817D02*
X4646253Y-7925817D01*
X4646253Y-7925817D02*
X4627206Y-7916293D01*
X4627206Y-7916293D02*
X4617682Y-7897246D01*
X4617682Y-7897246D02*
X4617682Y-7887722D01*
X4617682Y-7887722D02*
X4627206Y-7868674D01*
X4627206Y-7868674D02*
X4646253Y-7859150D01*
X4646253Y-7859150D02*
X4674825Y-7859150D01*
X4674825Y-7859150D02*
X4693873Y-7868674D01*
X4770063Y-8068674D02*
X4779587Y-8059150D01*
X4779587Y-8059150D02*
X4798634Y-8030579D01*
X4798634Y-8030579D02*
X4808158Y-8011531D01*
X4808158Y-8011531D02*
X4817682Y-7982960D01*
X4817682Y-7982960D02*
X4827206Y-7935341D01*
X4827206Y-7935341D02*
X4827206Y-7897246D01*
X4827206Y-7897246D02*
X4817682Y-7849627D01*
X4817682Y-7849627D02*
X4808158Y-7821055D01*
X4808158Y-7821055D02*
X4798634Y-7802008D01*
X4798634Y-7802008D02*
X4779587Y-7773436D01*
X4779587Y-7773436D02*
X4770063Y-7763912D01*
D15*
X-157000Y-8089000D02*
X-5000Y-8241000D01*
X-5000Y-8089000D02*
X-157000Y-8241000D01*
X-5000Y-8165000D02*
G75*
G03*
X-157000Y-8165000I-76000J0D01*
G01*
X-157000Y-8165000D02*
G75*
G03*
X-5000Y-8165000I76000J0D01*
G01*
D11*
X360539Y-8256484D02*
X246253Y-8256484D01*
X303396Y-8256484D02*
X303396Y-8056484D01*
X303396Y-8056484D02*
X284348Y-8085055D01*
X284348Y-8085055D02*
X265301Y-8104103D01*
X265301Y-8104103D02*
X246253Y-8113627D01*
X446253Y-8237436D02*
X455777Y-8246960D01*
X455777Y-8246960D02*
X446253Y-8256484D01*
X446253Y-8256484D02*
X436729Y-8246960D01*
X436729Y-8246960D02*
X446253Y-8237436D01*
X446253Y-8237436D02*
X446253Y-8256484D01*
X636729Y-8056484D02*
X541491Y-8056484D01*
X541491Y-8056484D02*
X531967Y-8151722D01*
X531967Y-8151722D02*
X541491Y-8142198D01*
X541491Y-8142198D02*
X560539Y-8132674D01*
X560539Y-8132674D02*
X608158Y-8132674D01*
X608158Y-8132674D02*
X627205Y-8142198D01*
X627205Y-8142198D02*
X636729Y-8151722D01*
X636729Y-8151722D02*
X646253Y-8170769D01*
X646253Y-8170769D02*
X646253Y-8218388D01*
X646253Y-8218388D02*
X636729Y-8237436D01*
X636729Y-8237436D02*
X627205Y-8246960D01*
X627205Y-8246960D02*
X608158Y-8256484D01*
X608158Y-8256484D02*
X560539Y-8256484D01*
X560539Y-8256484D02*
X541491Y-8246960D01*
X541491Y-8246960D02*
X531967Y-8237436D01*
X722443Y-8075531D02*
X731967Y-8066008D01*
X731967Y-8066008D02*
X751015Y-8056484D01*
X751015Y-8056484D02*
X798634Y-8056484D01*
X798634Y-8056484D02*
X817682Y-8066008D01*
X817682Y-8066008D02*
X827205Y-8075531D01*
X827205Y-8075531D02*
X836729Y-8094579D01*
X836729Y-8094579D02*
X836729Y-8113627D01*
X836729Y-8113627D02*
X827205Y-8142198D01*
X827205Y-8142198D02*
X712920Y-8256484D01*
X712920Y-8256484D02*
X836729Y-8256484D01*
X960539Y-8056484D02*
X979586Y-8056484D01*
X979586Y-8056484D02*
X998634Y-8066008D01*
X998634Y-8066008D02*
X1008158Y-8075531D01*
X1008158Y-8075531D02*
X1017682Y-8094579D01*
X1017682Y-8094579D02*
X1027205Y-8132674D01*
X1027205Y-8132674D02*
X1027205Y-8180293D01*
X1027205Y-8180293D02*
X1017682Y-8218388D01*
X1017682Y-8218388D02*
X1008158Y-8237436D01*
X1008158Y-8237436D02*
X998634Y-8246960D01*
X998634Y-8246960D02*
X979586Y-8256484D01*
X979586Y-8256484D02*
X960539Y-8256484D01*
X960539Y-8256484D02*
X941491Y-8246960D01*
X941491Y-8246960D02*
X931967Y-8237436D01*
X931967Y-8237436D02*
X922443Y-8218388D01*
X922443Y-8218388D02*
X912920Y-8180293D01*
X912920Y-8180293D02*
X912920Y-8132674D01*
X912920Y-8132674D02*
X922443Y-8094579D01*
X922443Y-8094579D02*
X931967Y-8075531D01*
X931967Y-8075531D02*
X941491Y-8066008D01*
X941491Y-8066008D02*
X960539Y-8056484D01*
X1112920Y-8256484D02*
X1112920Y-8123150D01*
X1112920Y-8142198D02*
X1122444Y-8132674D01*
X1122444Y-8132674D02*
X1141491Y-8123150D01*
X1141491Y-8123150D02*
X1170063Y-8123150D01*
X1170063Y-8123150D02*
X1189110Y-8132674D01*
X1189110Y-8132674D02*
X1198634Y-8151722D01*
X1198634Y-8151722D02*
X1198634Y-8256484D01*
X1198634Y-8151722D02*
X1208158Y-8132674D01*
X1208158Y-8132674D02*
X1227205Y-8123150D01*
X1227205Y-8123150D02*
X1255777Y-8123150D01*
X1255777Y-8123150D02*
X1274825Y-8132674D01*
X1274825Y-8132674D02*
X1284348Y-8151722D01*
X1284348Y-8151722D02*
X1284348Y-8256484D01*
X1379586Y-8256484D02*
X1379586Y-8123150D01*
X1379586Y-8142198D02*
X1389110Y-8132674D01*
X1389110Y-8132674D02*
X1408158Y-8123150D01*
X1408158Y-8123150D02*
X1436729Y-8123150D01*
X1436729Y-8123150D02*
X1455777Y-8132674D01*
X1455777Y-8132674D02*
X1465301Y-8151722D01*
X1465301Y-8151722D02*
X1465301Y-8256484D01*
X1465301Y-8151722D02*
X1474824Y-8132674D01*
X1474824Y-8132674D02*
X1493872Y-8123150D01*
X1493872Y-8123150D02*
X1522443Y-8123150D01*
X1522443Y-8123150D02*
X1541491Y-8132674D01*
X1541491Y-8132674D02*
X1551015Y-8151722D01*
X1551015Y-8151722D02*
X1551015Y-8256484D01*
X1941491Y-8046960D02*
X1770063Y-8304103D01*
X2198634Y-8056484D02*
X2217682Y-8056484D01*
X2217682Y-8056484D02*
X2236729Y-8066008D01*
X2236729Y-8066008D02*
X2246253Y-8075531D01*
X2246253Y-8075531D02*
X2255777Y-8094579D01*
X2255777Y-8094579D02*
X2265301Y-8132674D01*
X2265301Y-8132674D02*
X2265301Y-8180293D01*
X2265301Y-8180293D02*
X2255777Y-8218388D01*
X2255777Y-8218388D02*
X2246253Y-8237436D01*
X2246253Y-8237436D02*
X2236729Y-8246960D01*
X2236729Y-8246960D02*
X2217682Y-8256484D01*
X2217682Y-8256484D02*
X2198634Y-8256484D01*
X2198634Y-8256484D02*
X2179587Y-8246960D01*
X2179587Y-8246960D02*
X2170063Y-8237436D01*
X2170063Y-8237436D02*
X2160539Y-8218388D01*
X2160539Y-8218388D02*
X2151015Y-8180293D01*
X2151015Y-8180293D02*
X2151015Y-8132674D01*
X2151015Y-8132674D02*
X2160539Y-8094579D01*
X2160539Y-8094579D02*
X2170063Y-8075531D01*
X2170063Y-8075531D02*
X2179587Y-8066008D01*
X2179587Y-8066008D02*
X2198634Y-8056484D01*
X2351015Y-8237436D02*
X2360539Y-8246960D01*
X2360539Y-8246960D02*
X2351015Y-8256484D01*
X2351015Y-8256484D02*
X2341491Y-8246960D01*
X2341491Y-8246960D02*
X2351015Y-8237436D01*
X2351015Y-8237436D02*
X2351015Y-8256484D01*
X2484348Y-8056484D02*
X2503396Y-8056484D01*
X2503396Y-8056484D02*
X2522444Y-8066008D01*
X2522444Y-8066008D02*
X2531968Y-8075531D01*
X2531968Y-8075531D02*
X2541491Y-8094579D01*
X2541491Y-8094579D02*
X2551015Y-8132674D01*
X2551015Y-8132674D02*
X2551015Y-8180293D01*
X2551015Y-8180293D02*
X2541491Y-8218388D01*
X2541491Y-8218388D02*
X2531968Y-8237436D01*
X2531968Y-8237436D02*
X2522444Y-8246960D01*
X2522444Y-8246960D02*
X2503396Y-8256484D01*
X2503396Y-8256484D02*
X2484348Y-8256484D01*
X2484348Y-8256484D02*
X2465301Y-8246960D01*
X2465301Y-8246960D02*
X2455777Y-8237436D01*
X2455777Y-8237436D02*
X2446253Y-8218388D01*
X2446253Y-8218388D02*
X2436729Y-8180293D01*
X2436729Y-8180293D02*
X2436729Y-8132674D01*
X2436729Y-8132674D02*
X2446253Y-8094579D01*
X2446253Y-8094579D02*
X2455777Y-8075531D01*
X2455777Y-8075531D02*
X2465301Y-8066008D01*
X2465301Y-8066008D02*
X2484348Y-8056484D01*
X2731968Y-8056484D02*
X2636729Y-8056484D01*
X2636729Y-8056484D02*
X2627206Y-8151722D01*
X2627206Y-8151722D02*
X2636729Y-8142198D01*
X2636729Y-8142198D02*
X2655777Y-8132674D01*
X2655777Y-8132674D02*
X2703396Y-8132674D01*
X2703396Y-8132674D02*
X2722444Y-8142198D01*
X2722444Y-8142198D02*
X2731968Y-8151722D01*
X2731968Y-8151722D02*
X2741491Y-8170769D01*
X2741491Y-8170769D02*
X2741491Y-8218388D01*
X2741491Y-8218388D02*
X2731968Y-8237436D01*
X2731968Y-8237436D02*
X2722444Y-8246960D01*
X2722444Y-8246960D02*
X2703396Y-8256484D01*
X2703396Y-8256484D02*
X2655777Y-8256484D01*
X2655777Y-8256484D02*
X2636729Y-8246960D01*
X2636729Y-8246960D02*
X2627206Y-8237436D01*
X2836729Y-8256484D02*
X2874825Y-8256484D01*
X2874825Y-8256484D02*
X2893872Y-8246960D01*
X2893872Y-8246960D02*
X2903396Y-8237436D01*
X2903396Y-8237436D02*
X2922444Y-8208865D01*
X2922444Y-8208865D02*
X2931967Y-8170769D01*
X2931967Y-8170769D02*
X2931967Y-8094579D01*
X2931967Y-8094579D02*
X2922444Y-8075531D01*
X2922444Y-8075531D02*
X2912920Y-8066008D01*
X2912920Y-8066008D02*
X2893872Y-8056484D01*
X2893872Y-8056484D02*
X2855777Y-8056484D01*
X2855777Y-8056484D02*
X2836729Y-8066008D01*
X2836729Y-8066008D02*
X2827206Y-8075531D01*
X2827206Y-8075531D02*
X2817682Y-8094579D01*
X2817682Y-8094579D02*
X2817682Y-8142198D01*
X2817682Y-8142198D02*
X2827206Y-8161246D01*
X2827206Y-8161246D02*
X2836729Y-8170769D01*
X2836729Y-8170769D02*
X2855777Y-8180293D01*
X2855777Y-8180293D02*
X2893872Y-8180293D01*
X2893872Y-8180293D02*
X2912920Y-8170769D01*
X2912920Y-8170769D02*
X2922444Y-8161246D01*
X2922444Y-8161246D02*
X2931967Y-8142198D01*
X3046253Y-8142198D02*
X3027206Y-8132674D01*
X3027206Y-8132674D02*
X3017682Y-8123150D01*
X3017682Y-8123150D02*
X3008158Y-8104103D01*
X3008158Y-8104103D02*
X3008158Y-8094579D01*
X3008158Y-8094579D02*
X3017682Y-8075531D01*
X3017682Y-8075531D02*
X3027206Y-8066008D01*
X3027206Y-8066008D02*
X3046253Y-8056484D01*
X3046253Y-8056484D02*
X3084348Y-8056484D01*
X3084348Y-8056484D02*
X3103396Y-8066008D01*
X3103396Y-8066008D02*
X3112920Y-8075531D01*
X3112920Y-8075531D02*
X3122444Y-8094579D01*
X3122444Y-8094579D02*
X3122444Y-8104103D01*
X3122444Y-8104103D02*
X3112920Y-8123150D01*
X3112920Y-8123150D02*
X3103396Y-8132674D01*
X3103396Y-8132674D02*
X3084348Y-8142198D01*
X3084348Y-8142198D02*
X3046253Y-8142198D01*
X3046253Y-8142198D02*
X3027206Y-8151722D01*
X3027206Y-8151722D02*
X3017682Y-8161246D01*
X3017682Y-8161246D02*
X3008158Y-8180293D01*
X3008158Y-8180293D02*
X3008158Y-8218388D01*
X3008158Y-8218388D02*
X3017682Y-8237436D01*
X3017682Y-8237436D02*
X3027206Y-8246960D01*
X3027206Y-8246960D02*
X3046253Y-8256484D01*
X3046253Y-8256484D02*
X3084348Y-8256484D01*
X3084348Y-8256484D02*
X3103396Y-8246960D01*
X3103396Y-8246960D02*
X3112920Y-8237436D01*
X3112920Y-8237436D02*
X3122444Y-8218388D01*
X3122444Y-8218388D02*
X3122444Y-8180293D01*
X3122444Y-8180293D02*
X3112920Y-8161246D01*
X3112920Y-8161246D02*
X3103396Y-8151722D01*
X3103396Y-8151722D02*
X3084348Y-8142198D01*
X3198634Y-8056484D02*
X3198634Y-8094579D01*
X3274825Y-8056484D02*
X3274825Y-8094579D01*
X3570063Y-8332674D02*
X3560539Y-8323150D01*
X3560539Y-8323150D02*
X3541491Y-8294579D01*
X3541491Y-8294579D02*
X3531968Y-8275531D01*
X3531968Y-8275531D02*
X3522444Y-8246960D01*
X3522444Y-8246960D02*
X3512920Y-8199341D01*
X3512920Y-8199341D02*
X3512920Y-8161246D01*
X3512920Y-8161246D02*
X3522444Y-8113627D01*
X3522444Y-8113627D02*
X3531968Y-8085055D01*
X3531968Y-8085055D02*
X3541491Y-8066008D01*
X3541491Y-8066008D02*
X3560539Y-8037436D01*
X3560539Y-8037436D02*
X3570063Y-8027912D01*
X3731968Y-8056484D02*
X3693872Y-8056484D01*
X3693872Y-8056484D02*
X3674825Y-8066008D01*
X3674825Y-8066008D02*
X3665301Y-8075531D01*
X3665301Y-8075531D02*
X3646253Y-8104103D01*
X3646253Y-8104103D02*
X3636729Y-8142198D01*
X3636729Y-8142198D02*
X3636729Y-8218388D01*
X3636729Y-8218388D02*
X3646253Y-8237436D01*
X3646253Y-8237436D02*
X3655777Y-8246960D01*
X3655777Y-8246960D02*
X3674825Y-8256484D01*
X3674825Y-8256484D02*
X3712920Y-8256484D01*
X3712920Y-8256484D02*
X3731968Y-8246960D01*
X3731968Y-8246960D02*
X3741491Y-8237436D01*
X3741491Y-8237436D02*
X3751015Y-8218388D01*
X3751015Y-8218388D02*
X3751015Y-8170769D01*
X3751015Y-8170769D02*
X3741491Y-8151722D01*
X3741491Y-8151722D02*
X3731968Y-8142198D01*
X3731968Y-8142198D02*
X3712920Y-8132674D01*
X3712920Y-8132674D02*
X3674825Y-8132674D01*
X3674825Y-8132674D02*
X3655777Y-8142198D01*
X3655777Y-8142198D02*
X3646253Y-8151722D01*
X3646253Y-8151722D02*
X3636729Y-8170769D01*
X3989110Y-8256484D02*
X3989110Y-8056484D01*
X4074825Y-8256484D02*
X4074825Y-8151722D01*
X4074825Y-8151722D02*
X4065301Y-8132674D01*
X4065301Y-8132674D02*
X4046253Y-8123150D01*
X4046253Y-8123150D02*
X4017682Y-8123150D01*
X4017682Y-8123150D02*
X3998634Y-8132674D01*
X3998634Y-8132674D02*
X3989110Y-8142198D01*
X4198634Y-8256484D02*
X4179587Y-8246960D01*
X4179587Y-8246960D02*
X4170063Y-8237436D01*
X4170063Y-8237436D02*
X4160539Y-8218388D01*
X4160539Y-8218388D02*
X4160539Y-8161246D01*
X4160539Y-8161246D02*
X4170063Y-8142198D01*
X4170063Y-8142198D02*
X4179587Y-8132674D01*
X4179587Y-8132674D02*
X4198634Y-8123150D01*
X4198634Y-8123150D02*
X4227206Y-8123150D01*
X4227206Y-8123150D02*
X4246253Y-8132674D01*
X4246253Y-8132674D02*
X4255777Y-8142198D01*
X4255777Y-8142198D02*
X4265301Y-8161246D01*
X4265301Y-8161246D02*
X4265301Y-8218388D01*
X4265301Y-8218388D02*
X4255777Y-8237436D01*
X4255777Y-8237436D02*
X4246253Y-8246960D01*
X4246253Y-8246960D02*
X4227206Y-8256484D01*
X4227206Y-8256484D02*
X4198634Y-8256484D01*
X4379587Y-8256484D02*
X4360539Y-8246960D01*
X4360539Y-8246960D02*
X4351015Y-8227912D01*
X4351015Y-8227912D02*
X4351015Y-8056484D01*
X4531968Y-8246960D02*
X4512920Y-8256484D01*
X4512920Y-8256484D02*
X4474825Y-8256484D01*
X4474825Y-8256484D02*
X4455777Y-8246960D01*
X4455777Y-8246960D02*
X4446253Y-8227912D01*
X4446253Y-8227912D02*
X4446253Y-8151722D01*
X4446253Y-8151722D02*
X4455777Y-8132674D01*
X4455777Y-8132674D02*
X4474825Y-8123150D01*
X4474825Y-8123150D02*
X4512920Y-8123150D01*
X4512920Y-8123150D02*
X4531968Y-8132674D01*
X4531968Y-8132674D02*
X4541492Y-8151722D01*
X4541492Y-8151722D02*
X4541492Y-8170769D01*
X4541492Y-8170769D02*
X4446253Y-8189817D01*
X4617682Y-8246960D02*
X4636730Y-8256484D01*
X4636730Y-8256484D02*
X4674825Y-8256484D01*
X4674825Y-8256484D02*
X4693873Y-8246960D01*
X4693873Y-8246960D02*
X4703396Y-8227912D01*
X4703396Y-8227912D02*
X4703396Y-8218388D01*
X4703396Y-8218388D02*
X4693873Y-8199341D01*
X4693873Y-8199341D02*
X4674825Y-8189817D01*
X4674825Y-8189817D02*
X4646253Y-8189817D01*
X4646253Y-8189817D02*
X4627206Y-8180293D01*
X4627206Y-8180293D02*
X4617682Y-8161246D01*
X4617682Y-8161246D02*
X4617682Y-8151722D01*
X4617682Y-8151722D02*
X4627206Y-8132674D01*
X4627206Y-8132674D02*
X4646253Y-8123150D01*
X4646253Y-8123150D02*
X4674825Y-8123150D01*
X4674825Y-8123150D02*
X4693873Y-8132674D01*
X4770063Y-8332674D02*
X4779587Y-8323150D01*
X4779587Y-8323150D02*
X4798634Y-8294579D01*
X4798634Y-8294579D02*
X4808158Y-8275531D01*
X4808158Y-8275531D02*
X4817682Y-8246960D01*
X4817682Y-8246960D02*
X4827206Y-8199341D01*
X4827206Y-8199341D02*
X4827206Y-8161246D01*
X4827206Y-8161246D02*
X4817682Y-8113627D01*
X4817682Y-8113627D02*
X4808158Y-8085055D01*
X4808158Y-8085055D02*
X4798634Y-8066008D01*
X4798634Y-8066008D02*
X4779587Y-8037436D01*
X4779587Y-8037436D02*
X4770063Y-8027912D01*
M02*
