%TF.GenerationSoftware,KiCad,Pcbnew,7.0.11+dfsg-1build4*%
%TF.CreationDate,2025-10-14T16:41:14-05:00*%
%TF.ProjectId,Synchronizer,53796e63-6872-46f6-9e69-7a65722e6b69,rev?*%
%TF.SameCoordinates,Original*%
%TF.FileFunction,Soldermask,Bot*%
%TF.FilePolarity,Negative*%
%FSLAX46Y46*%
G04 Gerber Fmt 4.6, Leading zero omitted, Abs format (unit mm)*
G04 Created by KiCad (PCBNEW 7.0.11+dfsg-1build4) date 2025-10-14 16:41:14*
%MOMM*%
%LPD*%
G01*
G04 APERTURE LIST*
G04 Aperture macros list*
%AMRoundRect*
0 Rectangle with rounded corners*
0 $1 Rounding radius*
0 $2 $3 $4 $5 $6 $7 $8 $9 X,Y pos of 4 corners*
0 Add a 4 corners polygon primitive as box body*
4,1,4,$2,$3,$4,$5,$6,$7,$8,$9,$2,$3,0*
0 Add four circle primitives for the rounded corners*
1,1,$1+$1,$2,$3*
1,1,$1+$1,$4,$5*
1,1,$1+$1,$6,$7*
1,1,$1+$1,$8,$9*
0 Add four rect primitives between the rounded corners*
20,1,$1+$1,$2,$3,$4,$5,0*
20,1,$1+$1,$4,$5,$6,$7,0*
20,1,$1+$1,$6,$7,$8,$9,0*
20,1,$1+$1,$8,$9,$2,$3,0*%
G04 Aperture macros list end*
%ADD10O,1.700000X1.700000*%
%ADD11R,1.700000X1.700000*%
%ADD12C,1.600000*%
%ADD13O,1.600000X1.600000*%
%ADD14R,2.400000X2.400000*%
%ADD15C,2.400000*%
%ADD16R,1.600000X1.600000*%
%ADD17O,1.800000X1.800000*%
%ADD18O,1.500000X1.500000*%
%ADD19R,2.200000X2.200000*%
%ADD20O,2.200000X2.200000*%
%ADD21R,1.500000X1.500000*%
%ADD22C,1.500000*%
%ADD23R,3.500000X3.500000*%
%ADD24RoundRect,0.750000X1.000000X-0.750000X1.000000X0.750000X-1.000000X0.750000X-1.000000X-0.750000X0*%
%ADD25RoundRect,0.875000X0.875000X-0.875000X0.875000X0.875000X-0.875000X0.875000X-0.875000X-0.875000X0*%
%ADD26R,3.000000X3.000000*%
%ADD27C,3.000000*%
%ADD28C,2.800000*%
%ADD29O,2.800000X2.800000*%
%ADD30R,2.000000X1.905000*%
%ADD31O,2.000000X1.905000*%
%ADD32R,1.905000X2.000000*%
%ADD33O,1.905000X2.000000*%
G04 APERTURE END LIST*
D10*
%TO.C,J2*%
X2020000Y-55770000D03*
X2020000Y-53230000D03*
X2020000Y-50690000D03*
X2020000Y-48150000D03*
X2020000Y-45610000D03*
X2020000Y-43070000D03*
X2020000Y-40530000D03*
X2020000Y-37990000D03*
X2020000Y-35450000D03*
X2020000Y-32910000D03*
X2020000Y-30370000D03*
X2020000Y-27830000D03*
X2020000Y-25290000D03*
D11*
X2020000Y-22750000D03*
%TD*%
D12*
%TO.C,C8*%
X87600000Y-17270000D03*
X87600000Y-22270000D03*
%TD*%
%TO.C,R1*%
X28630000Y-25000000D03*
D13*
X28630000Y-32620000D03*
%TD*%
D14*
%TO.C,C10*%
X54102000Y-37338000D03*
D15*
X54102000Y-42338000D03*
%TD*%
D16*
%TO.C,D3*%
X93160000Y-29990000D03*
D13*
X93160000Y-22370000D03*
%TD*%
D12*
%TO.C,R5*%
X64240000Y-17590000D03*
D13*
X64240000Y-25210000D03*
%TD*%
D12*
%TO.C,R21*%
X82590000Y-36010000D03*
D13*
X90210000Y-36010000D03*
%TD*%
D17*
%TO.C,U1*%
X12265000Y-7520000D03*
D18*
X12565000Y-10550000D03*
X17415000Y-10550000D03*
D17*
X17715000Y-7520000D03*
D10*
X6100000Y-7390000D03*
X6100000Y-9930000D03*
D11*
X6100000Y-12470000D03*
D10*
X6100000Y-15010000D03*
X6100000Y-17550000D03*
X6100000Y-20090000D03*
X6100000Y-22630000D03*
D11*
X6100000Y-25170000D03*
D10*
X6100000Y-27710000D03*
X6100000Y-30250000D03*
X6100000Y-32790000D03*
X6100000Y-35330000D03*
D11*
X6100000Y-37870000D03*
D10*
X6100000Y-40410000D03*
X6100000Y-42950000D03*
X6100000Y-45490000D03*
X6100000Y-48030000D03*
D11*
X6100000Y-50570000D03*
D10*
X6100000Y-53110000D03*
X6100000Y-55650000D03*
X23880000Y-55650000D03*
X23880000Y-53110000D03*
D11*
X23880000Y-50570000D03*
D10*
X23880000Y-48030000D03*
X23880000Y-45490000D03*
X23880000Y-42950000D03*
X23880000Y-40410000D03*
D11*
X23880000Y-37870000D03*
D10*
X23880000Y-35330000D03*
X23880000Y-32790000D03*
X23880000Y-30250000D03*
X23880000Y-27710000D03*
D11*
X23880000Y-25170000D03*
D10*
X23880000Y-22630000D03*
X23880000Y-20090000D03*
X23880000Y-17550000D03*
X23880000Y-15010000D03*
D11*
X23880000Y-12470000D03*
D10*
X23880000Y-9930000D03*
X23880000Y-7390000D03*
X12450000Y-55420000D03*
D11*
X14990000Y-55420000D03*
D10*
X17530000Y-55420000D03*
%TD*%
D12*
%TO.C,R16*%
X75750000Y-5560000D03*
D13*
X83370000Y-5560000D03*
%TD*%
D12*
%TO.C,C4*%
X58140000Y-53150000D03*
X58140000Y-48150000D03*
%TD*%
%TO.C,C11*%
X97660000Y-32810000D03*
X92660000Y-32810000D03*
%TD*%
%TO.C,R9*%
X67630000Y-20420000D03*
D13*
X67630000Y-10260000D03*
%TD*%
D19*
%TO.C,D2*%
X68300000Y-55950000D03*
D20*
X68300000Y-48330000D03*
%TD*%
D12*
%TO.C,R13*%
X93940000Y-16790000D03*
D13*
X93940000Y-9170000D03*
%TD*%
D12*
%TO.C,R15*%
X87390000Y-14790000D03*
D13*
X87390000Y-7170000D03*
%TD*%
D12*
%TO.C,R12*%
X90800000Y-16790000D03*
D13*
X90800000Y-9170000D03*
%TD*%
D21*
%TO.C,Q2*%
X60430000Y-21330000D03*
D22*
X60430000Y-18790000D03*
X60430000Y-16250000D03*
%TD*%
D12*
%TO.C,R18*%
X64450000Y-55750000D03*
D13*
X64450000Y-48130000D03*
%TD*%
D12*
%TO.C,R7*%
X46110000Y-5440000D03*
D13*
X38490000Y-5440000D03*
%TD*%
D12*
%TO.C,C9*%
X73830000Y-26930000D03*
X78830000Y-26930000D03*
%TD*%
D16*
%TO.C,C2*%
X31520000Y-40370000D03*
D12*
X29520000Y-40370000D03*
%TD*%
D23*
%TO.C,J4*%
X45920000Y-50840000D03*
D24*
X45920000Y-56840000D03*
D25*
X50620000Y-53840000D03*
%TD*%
D16*
%TO.C,D4*%
X82580000Y-33110000D03*
D13*
X90200000Y-33110000D03*
%TD*%
D12*
%TO.C,R11*%
X74820000Y-23310000D03*
D13*
X84980000Y-23310000D03*
%TD*%
D21*
%TO.C,Q1*%
X38480000Y-13650000D03*
D22*
X38480000Y-16190000D03*
X38480000Y-18730000D03*
%TD*%
D12*
%TO.C,C3*%
X61270000Y-53150000D03*
X61270000Y-48150000D03*
%TD*%
%TO.C,C5*%
X72840000Y-11820000D03*
X72840000Y-16820000D03*
%TD*%
D26*
%TO.C,J1*%
X30000000Y-53820000D03*
D27*
X35080000Y-53820000D03*
%TD*%
D28*
%TO.C,R6*%
X78170000Y-34350000D03*
D29*
X62930000Y-34350000D03*
%TD*%
D12*
%TO.C,R19*%
X85630000Y-4220000D03*
D13*
X93250000Y-4220000D03*
%TD*%
D16*
%TO.C,C1*%
X31660000Y-46440000D03*
D12*
X29660000Y-46440000D03*
%TD*%
%TO.C,R14*%
X90770000Y-26710000D03*
D13*
X83150000Y-26710000D03*
%TD*%
D12*
%TO.C,R8*%
X55970000Y-21260000D03*
D13*
X55970000Y-13640000D03*
%TD*%
D12*
%TO.C,R10*%
X48330000Y-21650000D03*
D13*
X48330000Y-29270000D03*
%TD*%
D12*
%TO.C,R20*%
X73270000Y-7410000D03*
D13*
X65650000Y-7410000D03*
%TD*%
D21*
%TO.C,Q4*%
X51650000Y-7840000D03*
D22*
X54190000Y-7840000D03*
X56730000Y-7840000D03*
%TD*%
D19*
%TO.C,D6*%
X76390000Y-55840000D03*
D20*
X76390000Y-48220000D03*
%TD*%
D16*
%TO.C,U3*%
X76130000Y-16560000D03*
D13*
X78670000Y-16560000D03*
X81210000Y-16560000D03*
X83750000Y-16560000D03*
X83750000Y-8940000D03*
X81210000Y-8940000D03*
X78670000Y-8940000D03*
X76130000Y-8940000D03*
%TD*%
D12*
%TO.C,R3*%
X34950000Y-8620000D03*
D13*
X34950000Y-18780000D03*
%TD*%
D28*
%TO.C,R17*%
X43434000Y-27940000D03*
D29*
X43434000Y-43180000D03*
%TD*%
D12*
%TO.C,C6*%
X67440000Y-23370000D03*
X72440000Y-23370000D03*
%TD*%
D26*
%TO.C,J5*%
X69380000Y-41960000D03*
D27*
X64300000Y-41960000D03*
%TD*%
D19*
%TO.C,D5*%
X72430000Y-48160000D03*
D20*
X72430000Y-55780000D03*
%TD*%
D12*
%TO.C,C7*%
X95710000Y-19540000D03*
X90710000Y-19540000D03*
%TD*%
D19*
%TO.C,D1*%
X31830000Y-23160000D03*
D20*
X31830000Y-35860000D03*
%TD*%
D12*
%TO.C,R2*%
X28990000Y-7430000D03*
D13*
X28990000Y-15050000D03*
%TD*%
D30*
%TO.C,U2*%
X37170000Y-42780000D03*
D31*
X37170000Y-40240000D03*
X37170000Y-37700000D03*
%TD*%
D12*
%TO.C,R4*%
X53330000Y-16620000D03*
D13*
X43170000Y-16620000D03*
%TD*%
D32*
%TO.C,Q3*%
X52870000Y-30480000D03*
D33*
X55410000Y-30480000D03*
X57950000Y-30480000D03*
%TD*%
M02*
