M48
; DRILL file {KiCad 7.0.11+dfsg-1build4} date Fri 25 Sep 2026 05:20:45 PM CDT
; FORMAT={-:-/ absolute / inch / decimal}
; #@! TF.CreationDate,2026-09-25T17:20:45-05:00
; #@! TF.GenerationSoftware,Kicad,Pcbnew,7.0.11+dfsg-1build4
; #@! TF.FileFunction,Plated,1,2,PTH
FMAT,2
INCH
; #@! TA.AperFunction,Plated,PTH,ComponentDrill
T1C0.0315
; #@! TA.AperFunction,Plated,PTH,ComponentDrill
T2C0.0394
; #@! TA.AperFunction,Plated,PTH,ComponentDrill
T3C0.0402
; #@! TA.AperFunction,Plated,PTH,ComponentDrill
T4C0.0433
; #@! TA.AperFunction,Plated,PTH,ComponentDrill
T5C0.0551
; #@! TA.AperFunction,Plated,PTH,ComponentDrill
T6C0.0598
%
G90
G05
T1
X1.1272Y-0.9843
X1.1272Y-1.2843
X1.1413Y-0.2925
X1.1413Y-0.5925
X1.1622Y-1.5894
X1.1677Y-1.8283
X1.2409Y-1.5894
X1.2465Y-1.8283
X1.2559Y-0.878
X1.2559Y-1.178
X1.3661Y-0.9882
X1.3661Y-1.2882
X1.7126Y-0.4374
X1.7126Y-1.0374
X1.811Y-1.5035
X1.811Y-1.8035
X1.8421Y-0.4461
X1.8421Y-1.0461
X1.89Y-1.27
X1.9884Y-1.27
X1.99Y-0.96
X2.09Y-0.96
X2.11Y-1.46
X2.15Y-2.08
X2.15Y-2.38
X2.19Y-0.96
X2.23Y-0.45
X2.23Y-0.75
X2.28Y-1.96
X2.28Y-2.1569
X2.4Y-0.84
X2.4Y-1.14
X2.41Y-1.46
X2.4723Y-0.5096
X2.4723Y-0.6096
X2.4723Y-0.7096
X2.55Y-1.27
X2.55Y-1.37
X2.55Y-1.47
X2.59Y-0.22
X2.6551Y-0.9201
X2.82Y-1.2
X2.84Y-1.45
X2.852Y-0.9201
X2.8677Y-0.4654
X2.8677Y-0.6622
X2.89Y-0.22
X2.9067Y-1.0602
X2.9457Y-0.9177
X2.9823Y-0.2189
X2.9972Y-0.352
X2.9972Y-0.652
X3.01Y-2.02
X3.01Y-2.32
X3.0972Y-0.352
X3.0972Y-0.652
X3.1035Y-1.0602
X3.12Y-1.2
X3.14Y-1.45
X3.1972Y-0.352
X3.1972Y-0.652
X3.26Y-1.05
X3.2823Y-0.2189
X3.2972Y-0.352
X3.2972Y-0.652
X3.3457Y-0.9177
X3.35Y-1.63
X3.35Y-1.93
X3.35Y-2.03
X3.35Y-2.33
X3.3713Y-0.1661
X3.4406Y-0.2823
X3.4406Y-0.5823
X3.4488Y-0.6799
X3.4488Y-0.8768
X3.4571Y-1.5268
X3.46Y-1.66
X3.5579Y-1.9154
X3.56Y-1.05
X3.5602Y-1.7819
X3.5713Y-0.7693
X3.5748Y-0.361
X3.5748Y-0.661
X3.648Y-1.31
X3.6713Y-0.1661
X3.6984Y-0.361
X3.6984Y-0.661
X3.7547Y-1.9154
X3.7571Y-1.5268
X3.7571Y-1.7819
X3.76Y-1.66
X3.7681Y-0.7693
X3.8449Y-1.31
T2
X0.0795Y-0.8957
X0.0795Y-0.9957
X0.0795Y-1.0957
X0.0795Y-1.1957
X0.0795Y-1.2957
X0.0795Y-1.3957
X0.0795Y-1.4957
X0.0795Y-1.5957
X0.0795Y-1.6957
X0.0795Y-1.7957
X0.0795Y-1.8957
X0.0795Y-1.9957
X0.0795Y-2.0957
X0.0795Y-2.1957
X1.358Y-0.436
X1.358Y-0.536
X1.358Y-0.636
T3
X0.2402Y-0.2909
X0.2402Y-0.3909
X0.2402Y-0.4909
X0.2402Y-0.5909
X0.2402Y-0.6909
X0.2402Y-0.7909
X0.2402Y-0.8909
X0.2402Y-0.9909
X0.2402Y-1.0909
X0.2402Y-1.1909
X0.2402Y-1.2909
X0.2402Y-1.3909
X0.2402Y-1.4909
X0.2402Y-1.5909
X0.2402Y-1.6909
X0.2402Y-1.7909
X0.2402Y-1.8909
X0.2402Y-1.9909
X0.2402Y-2.0909
X0.2402Y-2.1909
X0.4902Y-2.1819
X0.5902Y-2.1819
X0.6902Y-2.1819
X0.9402Y-0.2909
X0.9402Y-0.3909
X0.9402Y-0.4909
X0.9402Y-0.5909
X0.9402Y-0.6909
X0.9402Y-0.7909
X0.9402Y-0.8909
X0.9402Y-0.9909
X0.9402Y-1.0909
X0.9402Y-1.1909
X0.9402Y-1.2909
X0.9402Y-1.3909
X0.9402Y-1.4909
X0.9402Y-1.5909
X0.9402Y-1.6909
X0.9402Y-1.7909
X0.9402Y-1.8909
X0.9402Y-1.9909
X0.9402Y-2.0909
X0.9402Y-2.1909
T4
X1.4862Y-0.7776
X1.4862Y-1.2776
X1.49Y-1.4843
X1.49Y-1.5843
X1.49Y-1.6843
X2.0079Y-1.7717
X2.1079Y-1.7717
X2.2079Y-1.7717
X2.86Y-2.03
X2.86Y-2.33
X3.23Y-1.31
X3.53Y-1.31
X3.67Y-0.89
X3.67Y-1.19
T5
X2.4443Y-1.7913
X3.0443Y-1.7913
T6
X1.1811Y-2.1189
X1.3811Y-2.1189
X2.46Y-2.18
X2.66Y-2.18
X3.5394Y-2.1545
X3.7394Y-2.1545
T2
G00X1.7685Y-2.0016
M15
G01X1.8472Y-2.0016
M16
G05
G00X1.7685Y-2.2378
M15
G01X1.8472Y-2.2378
M16
G05
G00X1.9929Y-2.1591
M15
G01X1.9929Y-2.0803
M16
G05
M30
