%TF.GenerationSoftware,KiCad,Pcbnew,7.0.11+dfsg-1build4*%
%TF.CreationDate,2025-10-10T15:34:20-05:00*%
%TF.ProjectId,Synchronizer,53796e63-6872-46f6-9e69-7a65722e6b69,rev?*%
%TF.SameCoordinates,Original*%
%TF.FileFunction,Copper,L1,Top*%
%TF.FilePolarity,Positive*%
%FSLAX46Y46*%
G04 Gerber Fmt 4.6, Leading zero omitted, Abs format (unit mm)*
G04 Created by KiCad (PCBNEW 7.0.11+dfsg-1build4) date 2025-10-10 15:34:20*
%MOMM*%
%LPD*%
G01*
G04 APERTURE LIST*
%TA.AperFunction,ComponentPad*%
%ADD10C,1.600000*%
%TD*%
%TA.AperFunction,ComponentPad*%
%ADD11O,1.600000X1.600000*%
%TD*%
%TA.AperFunction,ComponentPad*%
%ADD12C,2.800000*%
%TD*%
%TA.AperFunction,ComponentPad*%
%ADD13O,2.800000X2.800000*%
%TD*%
%TA.AperFunction,ComponentPad*%
%ADD14R,1.600000X1.600000*%
%TD*%
%TA.AperFunction,ComponentPad*%
%ADD15R,2.200000X2.200000*%
%TD*%
%TA.AperFunction,ComponentPad*%
%ADD16O,2.200000X2.200000*%
%TD*%
%TA.AperFunction,ComponentPad*%
%ADD17R,3.000000X3.000000*%
%TD*%
%TA.AperFunction,ComponentPad*%
%ADD18C,3.000000*%
%TD*%
%TA.AperFunction,ComponentPad*%
%ADD19R,1.500000X1.500000*%
%TD*%
%TA.AperFunction,ComponentPad*%
%ADD20C,1.500000*%
%TD*%
%TA.AperFunction,ComponentPad*%
%ADD21R,2.400000X2.400000*%
%TD*%
%TA.AperFunction,ComponentPad*%
%ADD22C,2.400000*%
%TD*%
%TA.AperFunction,SMDPad,CuDef*%
%ADD23R,1.700000X3.500000*%
%TD*%
%TA.AperFunction,ComponentPad*%
%ADD24O,1.700000X1.700000*%
%TD*%
%TA.AperFunction,ComponentPad*%
%ADD25R,1.700000X1.700000*%
%TD*%
%TA.AperFunction,SMDPad,CuDef*%
%ADD26R,3.500000X1.700000*%
%TD*%
%TA.AperFunction,ComponentPad*%
%ADD27C,3.800000*%
%TD*%
%TA.AperFunction,ComponentPad*%
%ADD28R,2.000000X1.905000*%
%TD*%
%TA.AperFunction,ComponentPad*%
%ADD29O,2.000000X1.905000*%
%TD*%
%TA.AperFunction,ComponentPad*%
%ADD30R,1.905000X2.000000*%
%TD*%
%TA.AperFunction,ComponentPad*%
%ADD31O,1.905000X2.000000*%
%TD*%
G04 APERTURE END LIST*
D10*
%TO.P,R20,1*%
%TO.N,Net-(R16-Pad1)*%
X164270000Y-28410000D03*
D11*
%TO.P,R20,2*%
%TO.N,/OSC_SIGNAL*%
X156650000Y-28410000D03*
%TD*%
D10*
%TO.P,R19,1*%
%TO.N,Net-(R16-Pad1)*%
X176630000Y-25220000D03*
D11*
%TO.P,R19,2*%
%TO.N,Net-(D4-A)*%
X184250000Y-25220000D03*
%TD*%
D10*
%TO.P,R11,1*%
%TO.N,Net-(C6-Pad2)*%
X165820000Y-44310000D03*
D11*
%TO.P,R11,2*%
%TO.N,Net-(U3A--)*%
X175980000Y-44310000D03*
%TD*%
D10*
%TO.P,R3,1*%
%TO.N,/OSCIL*%
X125950000Y-29620000D03*
D11*
%TO.P,R3,2*%
%TO.N,Net-(Q1-B)*%
X125950000Y-39780000D03*
%TD*%
D10*
%TO.P,R9,1*%
%TO.N,Net-(Q3-G)*%
X158630000Y-41420000D03*
D11*
%TO.P,R9,2*%
%TO.N,Net-(Q4-C)*%
X158630000Y-31260000D03*
%TD*%
D10*
%TO.P,R4,1*%
%TO.N,Net-(Q2-B)*%
X144330000Y-37620000D03*
D11*
%TO.P,R4,2*%
%TO.N,Net-(Q1-C)*%
X134170000Y-37620000D03*
%TD*%
D12*
%TO.P,R17,1*%
%TO.N,Net-(Q3-S)*%
X133940000Y-49010000D03*
D13*
%TO.P,R17,2*%
%TO.N,+12V*%
X133940000Y-64250000D03*
%TD*%
D14*
%TO.P,U3,1*%
%TO.N,Net-(C8-Pad2)*%
X167130000Y-37560000D03*
D11*
%TO.P,U3,2,-*%
%TO.N,Net-(U3A--)*%
X169670000Y-37560000D03*
%TO.P,U3,3,+*%
%TO.N,Net-(U3A-+)*%
X172210000Y-37560000D03*
%TO.P,U3,4,V-*%
%TO.N,GND*%
X174750000Y-37560000D03*
%TO.P,U3,5,+*%
%TO.N,Net-(U3A-+)*%
X174750000Y-29940000D03*
%TO.P,U3,6,-*%
%TO.N,Net-(U3B--)*%
X172210000Y-29940000D03*
%TO.P,U3,7*%
%TO.N,Net-(R16-Pad1)*%
X169670000Y-29940000D03*
%TO.P,U3,8,V+*%
%TO.N,Net-(D1-K)*%
X167130000Y-29940000D03*
%TD*%
D15*
%TO.P,D1,1,K*%
%TO.N,Net-(D1-K)*%
X122830000Y-44160000D03*
D16*
%TO.P,D1,2,A*%
%TO.N,+5V*%
X122830000Y-56860000D03*
%TD*%
D17*
%TO.P,J1,1,Pin_1*%
%TO.N,+12V*%
X121000000Y-74820000D03*
D18*
%TO.P,J1,2,Pin_2*%
%TO.N,GND*%
X126080000Y-74820000D03*
%TD*%
D19*
%TO.P,Q4,1,E*%
%TO.N,GND*%
X142650000Y-28840000D03*
D20*
%TO.P,Q4,2,B*%
%TO.N,Net-(Q4-B)*%
X145190000Y-28840000D03*
%TO.P,Q4,3,C*%
%TO.N,Net-(Q4-C)*%
X147730000Y-28840000D03*
%TD*%
D19*
%TO.P,Q2,1,E*%
%TO.N,+12V*%
X151430000Y-42330000D03*
D20*
%TO.P,Q2,2,B*%
%TO.N,Net-(Q2-B)*%
X151430000Y-39790000D03*
%TO.P,Q2,3,C*%
%TO.N,Net-(Q2-C)*%
X151430000Y-37250000D03*
%TD*%
D19*
%TO.P,Q1,1,E*%
%TO.N,GND*%
X129480000Y-34650000D03*
D20*
%TO.P,Q1,2,B*%
%TO.N,Net-(Q1-B)*%
X129480000Y-37190000D03*
%TO.P,Q1,3,C*%
%TO.N,Net-(Q1-C)*%
X129480000Y-39730000D03*
%TD*%
D10*
%TO.P,R18,1*%
%TO.N,Net-(D2-K)*%
X145310000Y-76000000D03*
D11*
%TO.P,R18,2*%
%TO.N,GND*%
X145310000Y-68380000D03*
%TD*%
D15*
%TO.P,D6,1,K*%
%TO.N,Net-(D5-A)*%
X157250000Y-76090000D03*
D16*
%TO.P,D6,2,A*%
%TO.N,GND*%
X157250000Y-68470000D03*
%TD*%
D15*
%TO.P,D5,1,K*%
%TO.N,Net-(D2-A)*%
X153290000Y-68410000D03*
D16*
%TO.P,D5,2,A*%
%TO.N,Net-(D5-A)*%
X153290000Y-76030000D03*
%TD*%
D10*
%TO.P,C8,1*%
%TO.N,Net-(C8-Pad1)*%
X178600000Y-38270000D03*
%TO.P,C8,2*%
%TO.N,Net-(C8-Pad2)*%
X178600000Y-43270000D03*
%TD*%
%TO.P,R1,1*%
%TO.N,Net-(U1-3V3)*%
X119630000Y-46000000D03*
D11*
%TO.P,R1,2*%
%TO.N,Net-(U1-RUN)*%
X119630000Y-53620000D03*
%TD*%
D21*
%TO.P,C10,1*%
%TO.N,Net-(Q3-S)*%
X145950000Y-57250000D03*
D22*
%TO.P,C10,2*%
%TO.N,GND*%
X145950000Y-62250000D03*
%TD*%
D14*
%TO.P,D3,1,K*%
%TO.N,/AMPLITUDE*%
X184160000Y-50990000D03*
D11*
%TO.P,D3,2,A*%
%TO.N,GND*%
X184160000Y-43370000D03*
%TD*%
D10*
%TO.P,R5,1*%
%TO.N,Net-(Q2-C)*%
X155240000Y-38590000D03*
D11*
%TO.P,R5,2*%
%TO.N,Net-(D2-K)*%
X155240000Y-46210000D03*
%TD*%
D23*
%TO.P,U1,43,SWDIO*%
%TO.N,unconnected-(U1-SWDIO-Pad43)*%
X108530000Y-77320000D03*
D24*
X108530000Y-76420000D03*
D23*
%TO.P,U1,42,GND*%
%TO.N,GND*%
X105990000Y-77320000D03*
D25*
X105990000Y-76420000D03*
D23*
%TO.P,U1,41,SWCLK*%
%TO.N,unconnected-(U1-SWCLK-Pad41)*%
X103450000Y-77320000D03*
D24*
X103450000Y-76420000D03*
D26*
%TO.P,U1,40,VBUS*%
%TO.N,Net-(D1-K)*%
X115780000Y-28390000D03*
D24*
X114880000Y-28390000D03*
D26*
%TO.P,U1,39,VSYS*%
%TO.N,unconnected-(U1-VSYS-Pad39)*%
X115780000Y-30930000D03*
D24*
X114880000Y-30930000D03*
D26*
%TO.P,U1,38,GND*%
%TO.N,GND*%
X115780000Y-33470000D03*
D25*
X114880000Y-33470000D03*
D26*
%TO.P,U1,37,3V3_EN*%
%TO.N,Net-(U1-3V3_EN)*%
X115780000Y-36010000D03*
D24*
X114880000Y-36010000D03*
D26*
%TO.P,U1,36,3V3*%
%TO.N,Net-(U1-3V3)*%
X115780000Y-38550000D03*
D24*
X114880000Y-38550000D03*
D26*
%TO.P,U1,35,ADC_VREF*%
%TO.N,unconnected-(U1-ADC_VREF-Pad35)*%
X115780000Y-41090000D03*
D24*
X114880000Y-41090000D03*
D26*
%TO.P,U1,34,GPIO28_ADC2*%
%TO.N,unconnected-(U1-GPIO28_ADC2-Pad34)*%
X115780000Y-43630000D03*
D24*
X114880000Y-43630000D03*
D26*
%TO.P,U1,33,AGND*%
%TO.N,GND*%
X115780000Y-46170000D03*
D25*
X114880000Y-46170000D03*
D26*
%TO.P,U1,32,GPIO27_ADC1*%
%TO.N,/OSC_SIGNAL*%
X115780000Y-48710000D03*
D24*
X114880000Y-48710000D03*
D26*
%TO.P,U1,31,GPIO26_ADC0*%
%TO.N,/AMPLITUDE*%
X115780000Y-51250000D03*
D24*
X114880000Y-51250000D03*
D26*
%TO.P,U1,30,RUN*%
%TO.N,Net-(U1-RUN)*%
X115780000Y-53790000D03*
D24*
X114880000Y-53790000D03*
D26*
%TO.P,U1,29,GPIO22*%
%TO.N,unconnected-(U1-GPIO22-Pad29)*%
X115780000Y-56330000D03*
D24*
X114880000Y-56330000D03*
D26*
%TO.P,U1,28,GND*%
%TO.N,GND*%
X115780000Y-58870000D03*
D25*
X114880000Y-58870000D03*
D26*
%TO.P,U1,27,GPIO21*%
%TO.N,unconnected-(U1-GPIO21-Pad27)*%
X115780000Y-61410000D03*
D24*
X114880000Y-61410000D03*
D26*
%TO.P,U1,26,GPIO20*%
%TO.N,unconnected-(U1-GPIO20-Pad26)*%
X115780000Y-63950000D03*
D24*
X114880000Y-63950000D03*
D26*
%TO.P,U1,25,GPIO19*%
%TO.N,unconnected-(U1-GPIO19-Pad25)*%
X115780000Y-66490000D03*
D24*
X114880000Y-66490000D03*
D26*
%TO.P,U1,24,GPIO18*%
%TO.N,unconnected-(U1-GPIO18-Pad24)*%
X115780000Y-69030000D03*
D24*
X114880000Y-69030000D03*
D26*
%TO.P,U1,23,GND*%
%TO.N,GND*%
X115780000Y-71570000D03*
D25*
X114880000Y-71570000D03*
D26*
%TO.P,U1,22,GPIO17*%
%TO.N,unconnected-(U1-GPIO17-Pad22)*%
X115780000Y-74110000D03*
D24*
X114880000Y-74110000D03*
D26*
%TO.P,U1,21,GPIO16*%
%TO.N,unconnected-(U1-GPIO16-Pad21)*%
X115780000Y-76650000D03*
D24*
X114880000Y-76650000D03*
D26*
%TO.P,U1,20,GPIO15*%
%TO.N,unconnected-(U1-GPIO15-Pad20)*%
X96200000Y-76650000D03*
D24*
X97100000Y-76650000D03*
D26*
%TO.P,U1,19,GPIO14*%
%TO.N,unconnected-(U1-GPIO14-Pad19)*%
X96200000Y-74110000D03*
D24*
X97100000Y-74110000D03*
D26*
%TO.P,U1,18,GND*%
%TO.N,GND*%
X96200000Y-71570000D03*
D25*
X97100000Y-71570000D03*
D26*
%TO.P,U1,17,GPIO13*%
%TO.N,unconnected-(U1-GPIO13-Pad17)*%
X96200000Y-69030000D03*
D24*
X97100000Y-69030000D03*
D26*
%TO.P,U1,16,GPIO12*%
%TO.N,unconnected-(U1-GPIO12-Pad16)*%
X96200000Y-66490000D03*
D24*
X97100000Y-66490000D03*
D26*
%TO.P,U1,15,GPIO11*%
%TO.N,unconnected-(U1-GPIO11-Pad15)*%
X96200000Y-63950000D03*
D24*
X97100000Y-63950000D03*
D26*
%TO.P,U1,14,GPIO10*%
%TO.N,unconnected-(U1-GPIO10-Pad14)*%
X96200000Y-61410000D03*
D24*
X97100000Y-61410000D03*
D26*
%TO.P,U1,13,GND*%
%TO.N,GND*%
X96200000Y-58870000D03*
D25*
X97100000Y-58870000D03*
D26*
%TO.P,U1,12,GPIO9*%
%TO.N,unconnected-(U1-GPIO9-Pad12)*%
X96200000Y-56330000D03*
D24*
X97100000Y-56330000D03*
D26*
%TO.P,U1,11,GPIO8*%
%TO.N,unconnected-(U1-GPIO8-Pad11)*%
X96200000Y-53790000D03*
D24*
X97100000Y-53790000D03*
D26*
%TO.P,U1,10,GPIO7*%
%TO.N,unconnected-(U1-GPIO7-Pad10)*%
X96200000Y-51250000D03*
D24*
X97100000Y-51250000D03*
D26*
%TO.P,U1,9,GPIO6*%
%TO.N,unconnected-(U1-GPIO6-Pad9)*%
X96200000Y-48710000D03*
D24*
X97100000Y-48710000D03*
D26*
%TO.P,U1,8,GND*%
%TO.N,GND*%
X96200000Y-46170000D03*
D25*
X97100000Y-46170000D03*
D26*
%TO.P,U1,7,GPIO5*%
%TO.N,unconnected-(U1-GPIO5-Pad7)*%
X96200000Y-43630000D03*
D24*
X97100000Y-43630000D03*
D26*
%TO.P,U1,6,GPIO4*%
%TO.N,/PULSE*%
X96200000Y-41090000D03*
D24*
X97100000Y-41090000D03*
D26*
%TO.P,U1,5,GPIO3*%
%TO.N,unconnected-(U1-GPIO3-Pad5)*%
X96200000Y-38550000D03*
D24*
X97100000Y-38550000D03*
D26*
%TO.P,U1,4,GPIO2*%
%TO.N,/OSCIL*%
X96200000Y-36010000D03*
D24*
X97100000Y-36010000D03*
D26*
%TO.P,U1,3,GND*%
%TO.N,GND*%
X96200000Y-33470000D03*
D25*
X97100000Y-33470000D03*
D26*
%TO.P,U1,2,GPIO1*%
%TO.N,unconnected-(U1-GPIO1-Pad2)*%
X96200000Y-30930000D03*
D24*
X97100000Y-30930000D03*
D26*
%TO.P,U1,1,GPIO0*%
%TO.N,unconnected-(U1-GPIO0-Pad1)*%
X96200000Y-28390000D03*
D24*
X97100000Y-28390000D03*
%TD*%
D10*
%TO.P,R16,1*%
%TO.N,Net-(R16-Pad1)*%
X166750000Y-26560000D03*
D11*
%TO.P,R16,2*%
%TO.N,Net-(U3B--)*%
X174370000Y-26560000D03*
%TD*%
D10*
%TO.P,C4,1*%
%TO.N,Net-(D2-K)*%
X139000000Y-73400000D03*
%TO.P,C4,2*%
%TO.N,GND*%
X139000000Y-68400000D03*
%TD*%
D15*
%TO.P,D2,1,K*%
%TO.N,Net-(D2-K)*%
X149160000Y-76200000D03*
D16*
%TO.P,D2,2,A*%
%TO.N,Net-(D2-A)*%
X149160000Y-68580000D03*
%TD*%
D10*
%TO.P,R13,1*%
%TO.N,Net-(U3A-+)*%
X184940000Y-37790000D03*
D11*
%TO.P,R13,2*%
%TO.N,Net-(D1-K)*%
X184940000Y-30170000D03*
%TD*%
D10*
%TO.P,R15,1*%
%TO.N,Net-(C8-Pad1)*%
X178390000Y-35790000D03*
D11*
%TO.P,R15,2*%
%TO.N,Net-(U3B--)*%
X178390000Y-28170000D03*
%TD*%
D10*
%TO.P,R12,1*%
%TO.N,GND*%
X181800000Y-37790000D03*
D11*
%TO.P,R12,2*%
%TO.N,Net-(U3A-+)*%
X181800000Y-30170000D03*
%TD*%
D10*
%TO.P,R7,1*%
%TO.N,Net-(Q4-B)*%
X137110000Y-26440000D03*
D11*
%TO.P,R7,2*%
%TO.N,/PULSE*%
X129490000Y-26440000D03*
%TD*%
D10*
%TO.P,C9,1*%
%TO.N,/AMPLITUDE*%
X164830000Y-47930000D03*
%TO.P,C9,2*%
%TO.N,GND*%
X169830000Y-47930000D03*
%TD*%
D14*
%TO.P,C2,1*%
%TO.N,+5V*%
X122520000Y-61370000D03*
D10*
%TO.P,C2,2*%
%TO.N,GND*%
X120520000Y-61370000D03*
%TD*%
D14*
%TO.P,D4,1,K*%
%TO.N,/AMPLITUDE*%
X174290000Y-55160000D03*
D11*
%TO.P,D4,2,A*%
%TO.N,Net-(D4-A)*%
X181910000Y-55160000D03*
%TD*%
D10*
%TO.P,C3,1*%
%TO.N,Net-(D2-K)*%
X142130000Y-73400000D03*
%TO.P,C3,2*%
%TO.N,GND*%
X142130000Y-68400000D03*
%TD*%
%TO.P,C5,1*%
%TO.N,Net-(D1-K)*%
X163840000Y-32820000D03*
%TO.P,C5,2*%
%TO.N,GND*%
X163840000Y-37820000D03*
%TD*%
D12*
%TO.P,R6,1*%
%TO.N,Net-(D2-K)*%
X157750000Y-64710000D03*
D13*
%TO.P,R6,2*%
%TO.N,Net-(Q3-D)*%
X157750000Y-49470000D03*
%TD*%
D14*
%TO.P,C1,1*%
%TO.N,+12V*%
X122660000Y-67440000D03*
D10*
%TO.P,C1,2*%
%TO.N,GND*%
X120660000Y-67440000D03*
%TD*%
%TO.P,R14,1*%
%TO.N,Net-(C8-Pad2)*%
X181770000Y-47710000D03*
D11*
%TO.P,R14,2*%
%TO.N,Net-(U3A--)*%
X174150000Y-47710000D03*
%TD*%
%TO.P,R8,2*%
%TO.N,Net-(Q2-B)*%
X146970000Y-34640000D03*
D10*
%TO.P,R8,1*%
%TO.N,+12V*%
X146970000Y-42260000D03*
%TD*%
%TO.P,R10,1*%
%TO.N,+12V*%
X138910000Y-42680000D03*
D11*
%TO.P,R10,2*%
%TO.N,Net-(Q3-G)*%
X138910000Y-50300000D03*
%TD*%
D27*
%TO.P,J2,1,Pin_1*%
%TO.N,Net-(D2-K)*%
X133310000Y-74810000D03*
%TD*%
D10*
%TO.P,C6,1*%
%TO.N,Net-(D2-K)*%
X158440000Y-44370000D03*
%TO.P,C6,2*%
%TO.N,Net-(C6-Pad2)*%
X163440000Y-44370000D03*
%TD*%
%TO.P,C7,1*%
%TO.N,Net-(U3A-+)*%
X186710000Y-40540000D03*
%TO.P,C7,2*%
%TO.N,GND*%
X181710000Y-40540000D03*
%TD*%
D27*
%TO.P,J3,1,Pin_1*%
%TO.N,GND*%
X133250000Y-68500000D03*
%TD*%
D10*
%TO.P,R2,1*%
%TO.N,Net-(D1-K)*%
X119990000Y-28430000D03*
D11*
%TO.P,R2,2*%
%TO.N,Net-(U1-3V3_EN)*%
X119990000Y-36050000D03*
%TD*%
D28*
%TO.P,U2,1,VI*%
%TO.N,+12V*%
X128170000Y-63780000D03*
D29*
%TO.P,U2,2,GND*%
%TO.N,GND*%
X128170000Y-61240000D03*
%TO.P,U2,3,VO*%
%TO.N,+5V*%
X128170000Y-58700000D03*
%TD*%
D30*
%TO.P,Q3,1,G*%
%TO.N,Net-(Q3-G)*%
X143630000Y-49870000D03*
D31*
%TO.P,Q3,2,D*%
%TO.N,Net-(Q3-D)*%
X146170000Y-49870000D03*
%TO.P,Q3,3,S*%
%TO.N,Net-(Q3-S)*%
X148710000Y-49870000D03*
%TD*%
M02*
