M48
; DRILL file {KiCad 7.0.11+dfsg-1build4} date Tue 21 Oct 2025 07:21:13 PM CDT
; FORMAT={-:-/ absolute / inch / decimal}
; #@! TF.CreationDate,2025-10-21T19:21:13-05:00
; #@! TF.GenerationSoftware,Kicad,Pcbnew,7.0.11+dfsg-1build4
; #@! TF.FileFunction,Plated,1,2,PTH
FMAT,2
INCH
; #@! TA.AperFunction,Plated,PTH,ComponentDrill
T1C0.0315
; #@! TA.AperFunction,Plated,PTH,ComponentDrill
T2C0.0394
; #@! TA.AperFunction,Plated,PTH,ComponentDrill
T3C0.0402
; #@! TA.AperFunction,Plated,PTH,ComponentDrill
T4C0.0433
; #@! TA.AperFunction,Plated,PTH,ComponentDrill
T5C0.0472
; #@! TA.AperFunction,Plated,PTH,ComponentDrill
T6C0.0551
; #@! TA.AperFunction,Plated,PTH,ComponentDrill
T7C0.0598
%
G90
G05
T1
X1.1272Y-0.9843
X1.1272Y-1.2843
X1.1413Y-0.2925
X1.1413Y-0.5925
X1.1622Y-1.5894
X1.1677Y-1.8283
X1.2409Y-1.5894
X1.2465Y-1.8283
X1.376Y-0.3394
X1.376Y-0.7394
X1.515Y-0.5374
X1.515Y-0.6374
X1.515Y-0.7374
X1.5154Y-0.2142
X1.6996Y-0.6543
X1.8154Y-0.2142
X1.9028Y-0.8524
X1.9028Y-1.1524
X2.0335Y-0.3087
X2.0996Y-0.6543
X2.1335Y-0.3087
X2.2035Y-0.537
X2.2035Y-0.837
X2.2335Y-0.3087
X2.289Y-1.8957
X2.289Y-2.0925
X2.3791Y-0.6398
X2.3791Y-0.7398
X2.3791Y-0.8398
X2.4122Y-1.8957
X2.4122Y-2.0925
X2.5291Y-0.6925
X2.5291Y-0.9925
X2.5374Y-1.8949
X2.5374Y-2.1949
X2.5846Y-0.2917
X2.6551Y-0.9201
X2.6626Y-0.4039
X2.6626Y-0.8039
X2.852Y-0.9201
X2.8677Y-0.4654
X2.8677Y-0.6622
X2.8846Y-0.2917
X2.9067Y-1.0602
X2.9457Y-0.9177
X2.9823Y-0.2189
X2.9972Y-0.352
X2.9972Y-0.652
X3.0972Y-0.352
X3.0972Y-0.652
X3.1035Y-1.0602
X3.1972Y-0.352
X3.1972Y-0.652
X3.2512Y-1.3035
X3.2516Y-1.4177
X3.2736Y-1.0516
X3.2823Y-0.2189
X3.2972Y-0.352
X3.2972Y-0.652
X3.3457Y-0.9177
X3.3713Y-0.1661
X3.4406Y-0.2823
X3.4406Y-0.5823
X3.4488Y-0.6799
X3.4488Y-0.8768
X3.5512Y-1.3035
X3.5516Y-1.4177
X3.5713Y-0.7693
X3.5736Y-1.0516
X3.5748Y-0.361
X3.5748Y-0.661
X3.648Y-1.2917
X3.6677Y-0.8807
X3.6677Y-1.1807
X3.6713Y-0.1661
X3.6984Y-0.361
X3.6984Y-0.661
X3.7681Y-0.7693
X3.8449Y-1.2917
T2
X0.0795Y-0.8957
X0.0795Y-0.9957
X0.0795Y-1.0957
X0.0795Y-1.1957
X0.0795Y-1.2957
X0.0795Y-1.3957
X0.0795Y-1.4957
X0.0795Y-1.5957
X0.0795Y-1.6957
X0.0795Y-1.7957
X0.0795Y-1.8957
X0.0795Y-1.9957
X0.0795Y-2.0957
X0.0795Y-2.1957
T3
X0.2402Y-0.2909
X0.2402Y-0.3909
X0.2402Y-0.4909
X0.2402Y-0.5909
X0.2402Y-0.6909
X0.2402Y-0.7909
X0.2402Y-0.8909
X0.2402Y-0.9909
X0.2402Y-1.0909
X0.2402Y-1.1909
X0.2402Y-1.2909
X0.2402Y-1.3909
X0.2402Y-1.4909
X0.2402Y-1.5909
X0.2402Y-1.6909
X0.2402Y-1.7909
X0.2402Y-1.8909
X0.2402Y-1.9909
X0.2402Y-2.0909
X0.2402Y-2.1909
X0.4902Y-2.1819
X0.5902Y-2.1819
X0.6902Y-2.1819
X0.9402Y-0.2909
X0.9402Y-0.3909
X0.9402Y-0.4909
X0.9402Y-0.5909
X0.9402Y-0.6909
X0.9402Y-0.7909
X0.9402Y-0.8909
X0.9402Y-0.9909
X0.9402Y-1.0909
X0.9402Y-1.1909
X0.9402Y-1.2909
X0.9402Y-1.3909
X0.9402Y-1.4909
X0.9402Y-1.5909
X0.9402Y-1.6909
X0.9402Y-1.7909
X0.9402Y-1.8909
X0.9402Y-1.9909
X0.9402Y-2.0909
X0.9402Y-2.1909
T4
X1.2531Y-0.9118
X1.2531Y-1.4118
X1.4634Y-1.4843
X1.4634Y-1.5843
X1.4634Y-1.6843
X2.0815Y-1.2
X2.1815Y-1.2
X2.2815Y-1.2
X2.689Y-1.9028
X2.689Y-2.2028
X2.8516Y-1.8961
X2.8516Y-2.1961
X3.0075Y-1.8984
X3.0075Y-2.1984
T5
X2.13Y-1.47
X2.13Y-1.6669
T6
X1.71Y-1.1
X1.71Y-1.7
X2.4776Y-1.3524
X3.0776Y-1.3524
T7
X1.1811Y-2.1189
X1.3811Y-2.1189
X2.5315Y-1.652
X2.7315Y-1.652
T2
G00X1.7685Y-2.0016
M15
G01X1.8472Y-2.0016
M16
G05
G00X1.7685Y-2.2378
M15
G01X1.8472Y-2.2378
M16
G05
G00X1.9929Y-2.1591
M15
G01X1.9929Y-2.0803
M16
G05
M30
