%TF.GenerationSoftware,KiCad,Pcbnew,7.0.11+dfsg-1build4*%
%TF.CreationDate,2025-10-10T15:34:20-05:00*%
%TF.ProjectId,Synchronizer,53796e63-6872-46f6-9e69-7a65722e6b69,rev?*%
%TF.SameCoordinates,Original*%
%TF.FileFunction,Copper,L2,Bot*%
%TF.FilePolarity,Positive*%
%FSLAX46Y46*%
G04 Gerber Fmt 4.6, Leading zero omitted, Abs format (unit mm)*
G04 Created by KiCad (PCBNEW 7.0.11+dfsg-1build4) date 2025-10-10 15:34:20*
%MOMM*%
%LPD*%
G01*
G04 APERTURE LIST*
%TA.AperFunction,ComponentPad*%
%ADD10C,1.600000*%
%TD*%
%TA.AperFunction,ComponentPad*%
%ADD11O,1.600000X1.600000*%
%TD*%
%TA.AperFunction,ComponentPad*%
%ADD12C,2.800000*%
%TD*%
%TA.AperFunction,ComponentPad*%
%ADD13O,2.800000X2.800000*%
%TD*%
%TA.AperFunction,ComponentPad*%
%ADD14R,1.600000X1.600000*%
%TD*%
%TA.AperFunction,ComponentPad*%
%ADD15R,2.200000X2.200000*%
%TD*%
%TA.AperFunction,ComponentPad*%
%ADD16O,2.200000X2.200000*%
%TD*%
%TA.AperFunction,ComponentPad*%
%ADD17R,3.000000X3.000000*%
%TD*%
%TA.AperFunction,ComponentPad*%
%ADD18C,3.000000*%
%TD*%
%TA.AperFunction,ComponentPad*%
%ADD19R,1.500000X1.500000*%
%TD*%
%TA.AperFunction,ComponentPad*%
%ADD20C,1.500000*%
%TD*%
%TA.AperFunction,ComponentPad*%
%ADD21R,2.400000X2.400000*%
%TD*%
%TA.AperFunction,ComponentPad*%
%ADD22C,2.400000*%
%TD*%
%TA.AperFunction,ComponentPad*%
%ADD23O,1.700000X1.700000*%
%TD*%
%TA.AperFunction,ComponentPad*%
%ADD24R,1.700000X1.700000*%
%TD*%
%TA.AperFunction,ComponentPad*%
%ADD25C,3.800000*%
%TD*%
%TA.AperFunction,ComponentPad*%
%ADD26R,2.000000X1.905000*%
%TD*%
%TA.AperFunction,ComponentPad*%
%ADD27O,2.000000X1.905000*%
%TD*%
%TA.AperFunction,ComponentPad*%
%ADD28R,1.905000X2.000000*%
%TD*%
%TA.AperFunction,ComponentPad*%
%ADD29O,1.905000X2.000000*%
%TD*%
%TA.AperFunction,Conductor*%
%ADD30C,1.000000*%
%TD*%
%TA.AperFunction,Conductor*%
%ADD31C,3.000000*%
%TD*%
%TA.AperFunction,Conductor*%
%ADD32C,2.000000*%
%TD*%
G04 APERTURE END LIST*
D10*
%TO.P,R20,1*%
%TO.N,Net-(R16-Pad1)*%
X164270000Y-28410000D03*
D11*
%TO.P,R20,2*%
%TO.N,/OSC_SIGNAL*%
X156650000Y-28410000D03*
%TD*%
D10*
%TO.P,R19,1*%
%TO.N,Net-(R16-Pad1)*%
X176630000Y-25220000D03*
D11*
%TO.P,R19,2*%
%TO.N,Net-(D4-A)*%
X184250000Y-25220000D03*
%TD*%
D10*
%TO.P,R11,1*%
%TO.N,Net-(C6-Pad2)*%
X165820000Y-44310000D03*
D11*
%TO.P,R11,2*%
%TO.N,Net-(U3A--)*%
X175980000Y-44310000D03*
%TD*%
D10*
%TO.P,R3,1*%
%TO.N,/OSCIL*%
X125950000Y-29620000D03*
D11*
%TO.P,R3,2*%
%TO.N,Net-(Q1-B)*%
X125950000Y-39780000D03*
%TD*%
D10*
%TO.P,R9,1*%
%TO.N,Net-(Q3-G)*%
X158630000Y-41420000D03*
D11*
%TO.P,R9,2*%
%TO.N,Net-(Q4-C)*%
X158630000Y-31260000D03*
%TD*%
D10*
%TO.P,R4,1*%
%TO.N,Net-(Q2-B)*%
X144330000Y-37620000D03*
D11*
%TO.P,R4,2*%
%TO.N,Net-(Q1-C)*%
X134170000Y-37620000D03*
%TD*%
D12*
%TO.P,R17,1*%
%TO.N,Net-(Q3-S)*%
X133940000Y-49010000D03*
D13*
%TO.P,R17,2*%
%TO.N,+12V*%
X133940000Y-64250000D03*
%TD*%
D14*
%TO.P,U3,1*%
%TO.N,Net-(C8-Pad2)*%
X167130000Y-37560000D03*
D11*
%TO.P,U3,2,-*%
%TO.N,Net-(U3A--)*%
X169670000Y-37560000D03*
%TO.P,U3,3,+*%
%TO.N,Net-(U3A-+)*%
X172210000Y-37560000D03*
%TO.P,U3,4,V-*%
%TO.N,GND*%
X174750000Y-37560000D03*
%TO.P,U3,5,+*%
%TO.N,Net-(U3A-+)*%
X174750000Y-29940000D03*
%TO.P,U3,6,-*%
%TO.N,Net-(U3B--)*%
X172210000Y-29940000D03*
%TO.P,U3,7*%
%TO.N,Net-(R16-Pad1)*%
X169670000Y-29940000D03*
%TO.P,U3,8,V+*%
%TO.N,Net-(D1-K)*%
X167130000Y-29940000D03*
%TD*%
D15*
%TO.P,D1,1,K*%
%TO.N,Net-(D1-K)*%
X122830000Y-44160000D03*
D16*
%TO.P,D1,2,A*%
%TO.N,+5V*%
X122830000Y-56860000D03*
%TD*%
D17*
%TO.P,J1,1,Pin_1*%
%TO.N,+12V*%
X121000000Y-74820000D03*
D18*
%TO.P,J1,2,Pin_2*%
%TO.N,GND*%
X126080000Y-74820000D03*
%TD*%
D19*
%TO.P,Q4,1,E*%
%TO.N,GND*%
X142650000Y-28840000D03*
D20*
%TO.P,Q4,2,B*%
%TO.N,Net-(Q4-B)*%
X145190000Y-28840000D03*
%TO.P,Q4,3,C*%
%TO.N,Net-(Q4-C)*%
X147730000Y-28840000D03*
%TD*%
D19*
%TO.P,Q2,1,E*%
%TO.N,+12V*%
X151430000Y-42330000D03*
D20*
%TO.P,Q2,2,B*%
%TO.N,Net-(Q2-B)*%
X151430000Y-39790000D03*
%TO.P,Q2,3,C*%
%TO.N,Net-(Q2-C)*%
X151430000Y-37250000D03*
%TD*%
D19*
%TO.P,Q1,1,E*%
%TO.N,GND*%
X129480000Y-34650000D03*
D20*
%TO.P,Q1,2,B*%
%TO.N,Net-(Q1-B)*%
X129480000Y-37190000D03*
%TO.P,Q1,3,C*%
%TO.N,Net-(Q1-C)*%
X129480000Y-39730000D03*
%TD*%
D10*
%TO.P,R18,1*%
%TO.N,Net-(D2-K)*%
X145310000Y-76000000D03*
D11*
%TO.P,R18,2*%
%TO.N,GND*%
X145310000Y-68380000D03*
%TD*%
D15*
%TO.P,D6,1,K*%
%TO.N,Net-(D5-A)*%
X157250000Y-76090000D03*
D16*
%TO.P,D6,2,A*%
%TO.N,GND*%
X157250000Y-68470000D03*
%TD*%
D15*
%TO.P,D5,1,K*%
%TO.N,Net-(D2-A)*%
X153290000Y-68410000D03*
D16*
%TO.P,D5,2,A*%
%TO.N,Net-(D5-A)*%
X153290000Y-76030000D03*
%TD*%
D10*
%TO.P,C8,1*%
%TO.N,Net-(C8-Pad1)*%
X178600000Y-38270000D03*
%TO.P,C8,2*%
%TO.N,Net-(C8-Pad2)*%
X178600000Y-43270000D03*
%TD*%
%TO.P,R1,1*%
%TO.N,Net-(U1-3V3)*%
X119630000Y-46000000D03*
D11*
%TO.P,R1,2*%
%TO.N,Net-(U1-RUN)*%
X119630000Y-53620000D03*
%TD*%
D21*
%TO.P,C10,1*%
%TO.N,Net-(Q3-S)*%
X145950000Y-57250000D03*
D22*
%TO.P,C10,2*%
%TO.N,GND*%
X145950000Y-62250000D03*
%TD*%
D14*
%TO.P,D3,1,K*%
%TO.N,/AMPLITUDE*%
X184160000Y-50990000D03*
D11*
%TO.P,D3,2,A*%
%TO.N,GND*%
X184160000Y-43370000D03*
%TD*%
D10*
%TO.P,R5,1*%
%TO.N,Net-(Q2-C)*%
X155240000Y-38590000D03*
D11*
%TO.P,R5,2*%
%TO.N,Net-(D2-K)*%
X155240000Y-46210000D03*
%TD*%
D23*
%TO.P,U1,43,SWDIO*%
%TO.N,unconnected-(U1-SWDIO-Pad43)*%
X108530000Y-76420000D03*
D24*
%TO.P,U1,42,GND*%
%TO.N,GND*%
X105990000Y-76420000D03*
D23*
%TO.P,U1,41,SWCLK*%
%TO.N,unconnected-(U1-SWCLK-Pad41)*%
X103450000Y-76420000D03*
%TO.P,U1,40,VBUS*%
%TO.N,Net-(D1-K)*%
X114880000Y-28390000D03*
%TO.P,U1,39,VSYS*%
%TO.N,unconnected-(U1-VSYS-Pad39)*%
X114880000Y-30930000D03*
D24*
%TO.P,U1,38,GND*%
%TO.N,GND*%
X114880000Y-33470000D03*
D23*
%TO.P,U1,37,3V3_EN*%
%TO.N,Net-(U1-3V3_EN)*%
X114880000Y-36010000D03*
%TO.P,U1,36,3V3*%
%TO.N,Net-(U1-3V3)*%
X114880000Y-38550000D03*
%TO.P,U1,35,ADC_VREF*%
%TO.N,unconnected-(U1-ADC_VREF-Pad35)*%
X114880000Y-41090000D03*
%TO.P,U1,34,GPIO28_ADC2*%
%TO.N,unconnected-(U1-GPIO28_ADC2-Pad34)*%
X114880000Y-43630000D03*
D24*
%TO.P,U1,33,AGND*%
%TO.N,GND*%
X114880000Y-46170000D03*
D23*
%TO.P,U1,32,GPIO27_ADC1*%
%TO.N,/OSC_SIGNAL*%
X114880000Y-48710000D03*
%TO.P,U1,31,GPIO26_ADC0*%
%TO.N,/AMPLITUDE*%
X114880000Y-51250000D03*
%TO.P,U1,30,RUN*%
%TO.N,Net-(U1-RUN)*%
X114880000Y-53790000D03*
%TO.P,U1,29,GPIO22*%
%TO.N,unconnected-(U1-GPIO22-Pad29)*%
X114880000Y-56330000D03*
D24*
%TO.P,U1,28,GND*%
%TO.N,GND*%
X114880000Y-58870000D03*
D23*
%TO.P,U1,27,GPIO21*%
%TO.N,unconnected-(U1-GPIO21-Pad27)*%
X114880000Y-61410000D03*
%TO.P,U1,26,GPIO20*%
%TO.N,unconnected-(U1-GPIO20-Pad26)*%
X114880000Y-63950000D03*
%TO.P,U1,25,GPIO19*%
%TO.N,unconnected-(U1-GPIO19-Pad25)*%
X114880000Y-66490000D03*
%TO.P,U1,24,GPIO18*%
%TO.N,unconnected-(U1-GPIO18-Pad24)*%
X114880000Y-69030000D03*
D24*
%TO.P,U1,23,GND*%
%TO.N,GND*%
X114880000Y-71570000D03*
D23*
%TO.P,U1,22,GPIO17*%
%TO.N,unconnected-(U1-GPIO17-Pad22)*%
X114880000Y-74110000D03*
%TO.P,U1,21,GPIO16*%
%TO.N,unconnected-(U1-GPIO16-Pad21)*%
X114880000Y-76650000D03*
%TO.P,U1,20,GPIO15*%
%TO.N,unconnected-(U1-GPIO15-Pad20)*%
X97100000Y-76650000D03*
%TO.P,U1,19,GPIO14*%
%TO.N,unconnected-(U1-GPIO14-Pad19)*%
X97100000Y-74110000D03*
D24*
%TO.P,U1,18,GND*%
%TO.N,GND*%
X97100000Y-71570000D03*
D23*
%TO.P,U1,17,GPIO13*%
%TO.N,unconnected-(U1-GPIO13-Pad17)*%
X97100000Y-69030000D03*
%TO.P,U1,16,GPIO12*%
%TO.N,unconnected-(U1-GPIO12-Pad16)*%
X97100000Y-66490000D03*
%TO.P,U1,15,GPIO11*%
%TO.N,unconnected-(U1-GPIO11-Pad15)*%
X97100000Y-63950000D03*
%TO.P,U1,14,GPIO10*%
%TO.N,unconnected-(U1-GPIO10-Pad14)*%
X97100000Y-61410000D03*
D24*
%TO.P,U1,13,GND*%
%TO.N,GND*%
X97100000Y-58870000D03*
D23*
%TO.P,U1,12,GPIO9*%
%TO.N,unconnected-(U1-GPIO9-Pad12)*%
X97100000Y-56330000D03*
%TO.P,U1,11,GPIO8*%
%TO.N,unconnected-(U1-GPIO8-Pad11)*%
X97100000Y-53790000D03*
%TO.P,U1,10,GPIO7*%
%TO.N,unconnected-(U1-GPIO7-Pad10)*%
X97100000Y-51250000D03*
%TO.P,U1,9,GPIO6*%
%TO.N,unconnected-(U1-GPIO6-Pad9)*%
X97100000Y-48710000D03*
D24*
%TO.P,U1,8,GND*%
%TO.N,GND*%
X97100000Y-46170000D03*
D23*
%TO.P,U1,7,GPIO5*%
%TO.N,unconnected-(U1-GPIO5-Pad7)*%
X97100000Y-43630000D03*
%TO.P,U1,6,GPIO4*%
%TO.N,/PULSE*%
X97100000Y-41090000D03*
%TO.P,U1,5,GPIO3*%
%TO.N,unconnected-(U1-GPIO3-Pad5)*%
X97100000Y-38550000D03*
%TO.P,U1,4,GPIO2*%
%TO.N,/OSCIL*%
X97100000Y-36010000D03*
D24*
%TO.P,U1,3,GND*%
%TO.N,GND*%
X97100000Y-33470000D03*
D23*
%TO.P,U1,2,GPIO1*%
%TO.N,unconnected-(U1-GPIO1-Pad2)*%
X97100000Y-30930000D03*
%TO.P,U1,1,GPIO0*%
%TO.N,unconnected-(U1-GPIO0-Pad1)*%
X97100000Y-28390000D03*
%TD*%
D10*
%TO.P,R16,1*%
%TO.N,Net-(R16-Pad1)*%
X166750000Y-26560000D03*
D11*
%TO.P,R16,2*%
%TO.N,Net-(U3B--)*%
X174370000Y-26560000D03*
%TD*%
D10*
%TO.P,C4,1*%
%TO.N,Net-(D2-K)*%
X139000000Y-73400000D03*
%TO.P,C4,2*%
%TO.N,GND*%
X139000000Y-68400000D03*
%TD*%
D15*
%TO.P,D2,1,K*%
%TO.N,Net-(D2-K)*%
X149160000Y-76200000D03*
D16*
%TO.P,D2,2,A*%
%TO.N,Net-(D2-A)*%
X149160000Y-68580000D03*
%TD*%
D10*
%TO.P,R13,1*%
%TO.N,Net-(U3A-+)*%
X184940000Y-37790000D03*
D11*
%TO.P,R13,2*%
%TO.N,Net-(D1-K)*%
X184940000Y-30170000D03*
%TD*%
D10*
%TO.P,R15,1*%
%TO.N,Net-(C8-Pad1)*%
X178390000Y-35790000D03*
D11*
%TO.P,R15,2*%
%TO.N,Net-(U3B--)*%
X178390000Y-28170000D03*
%TD*%
D10*
%TO.P,R12,1*%
%TO.N,GND*%
X181800000Y-37790000D03*
D11*
%TO.P,R12,2*%
%TO.N,Net-(U3A-+)*%
X181800000Y-30170000D03*
%TD*%
D10*
%TO.P,R7,1*%
%TO.N,Net-(Q4-B)*%
X137110000Y-26440000D03*
D11*
%TO.P,R7,2*%
%TO.N,/PULSE*%
X129490000Y-26440000D03*
%TD*%
D10*
%TO.P,C9,1*%
%TO.N,/AMPLITUDE*%
X164830000Y-47930000D03*
%TO.P,C9,2*%
%TO.N,GND*%
X169830000Y-47930000D03*
%TD*%
D14*
%TO.P,C2,1*%
%TO.N,+5V*%
X122520000Y-61370000D03*
D10*
%TO.P,C2,2*%
%TO.N,GND*%
X120520000Y-61370000D03*
%TD*%
D14*
%TO.P,D4,1,K*%
%TO.N,/AMPLITUDE*%
X174290000Y-55160000D03*
D11*
%TO.P,D4,2,A*%
%TO.N,Net-(D4-A)*%
X181910000Y-55160000D03*
%TD*%
D10*
%TO.P,C3,1*%
%TO.N,Net-(D2-K)*%
X142130000Y-73400000D03*
%TO.P,C3,2*%
%TO.N,GND*%
X142130000Y-68400000D03*
%TD*%
%TO.P,C5,1*%
%TO.N,Net-(D1-K)*%
X163840000Y-32820000D03*
%TO.P,C5,2*%
%TO.N,GND*%
X163840000Y-37820000D03*
%TD*%
D12*
%TO.P,R6,1*%
%TO.N,Net-(D2-K)*%
X157750000Y-64710000D03*
D13*
%TO.P,R6,2*%
%TO.N,Net-(Q3-D)*%
X157750000Y-49470000D03*
%TD*%
D14*
%TO.P,C1,1*%
%TO.N,+12V*%
X122660000Y-67440000D03*
D10*
%TO.P,C1,2*%
%TO.N,GND*%
X120660000Y-67440000D03*
%TD*%
%TO.P,R14,1*%
%TO.N,Net-(C8-Pad2)*%
X181770000Y-47710000D03*
D11*
%TO.P,R14,2*%
%TO.N,Net-(U3A--)*%
X174150000Y-47710000D03*
%TD*%
%TO.P,R8,2*%
%TO.N,Net-(Q2-B)*%
X146970000Y-34640000D03*
D10*
%TO.P,R8,1*%
%TO.N,+12V*%
X146970000Y-42260000D03*
%TD*%
%TO.P,R10,1*%
%TO.N,+12V*%
X138910000Y-42680000D03*
D11*
%TO.P,R10,2*%
%TO.N,Net-(Q3-G)*%
X138910000Y-50300000D03*
%TD*%
D25*
%TO.P,J2,1,Pin_1*%
%TO.N,Net-(D2-K)*%
X133310000Y-74810000D03*
%TD*%
D10*
%TO.P,C6,1*%
%TO.N,Net-(D2-K)*%
X158440000Y-44370000D03*
%TO.P,C6,2*%
%TO.N,Net-(C6-Pad2)*%
X163440000Y-44370000D03*
%TD*%
%TO.P,C7,1*%
%TO.N,Net-(U3A-+)*%
X186710000Y-40540000D03*
%TO.P,C7,2*%
%TO.N,GND*%
X181710000Y-40540000D03*
%TD*%
D25*
%TO.P,J3,1,Pin_1*%
%TO.N,GND*%
X133250000Y-68500000D03*
%TD*%
D10*
%TO.P,R2,1*%
%TO.N,Net-(D1-K)*%
X119990000Y-28430000D03*
D11*
%TO.P,R2,2*%
%TO.N,Net-(U1-3V3_EN)*%
X119990000Y-36050000D03*
%TD*%
D26*
%TO.P,U2,1,VI*%
%TO.N,+12V*%
X128170000Y-63780000D03*
D27*
%TO.P,U2,2,GND*%
%TO.N,GND*%
X128170000Y-61240000D03*
%TO.P,U2,3,VO*%
%TO.N,+5V*%
X128170000Y-58700000D03*
%TD*%
D28*
%TO.P,Q3,1,G*%
%TO.N,Net-(Q3-G)*%
X143630000Y-49870000D03*
D29*
%TO.P,Q3,2,D*%
%TO.N,Net-(Q3-D)*%
X146170000Y-49870000D03*
%TO.P,Q3,3,S*%
%TO.N,Net-(Q3-S)*%
X148710000Y-49870000D03*
%TD*%
D30*
%TO.N,/PULSE*%
X97100000Y-41090000D02*
X97090000Y-41100000D01*
X93980000Y-24350000D02*
X124240000Y-24350000D01*
X97090000Y-41100000D02*
X95440000Y-41100000D01*
X95440000Y-41100000D02*
X91820000Y-37480000D01*
X91820000Y-37480000D02*
X91820000Y-26510000D01*
X91820000Y-26510000D02*
X93980000Y-24350000D01*
X124240000Y-24350000D02*
X126330000Y-26440000D01*
X126330000Y-26440000D02*
X129490000Y-26440000D01*
%TO.N,GND*%
X99040000Y-45950000D02*
X99040000Y-34190000D01*
X99040000Y-34190000D02*
X98320000Y-33470000D01*
X98320000Y-33470000D02*
X97100000Y-33470000D01*
%TO.N,/OSCIL*%
X125950000Y-29620000D02*
X125790000Y-29460000D01*
X93580000Y-34430000D02*
X94890000Y-35740000D01*
X94890000Y-35740000D02*
X94890000Y-36020000D01*
X125790000Y-29460000D02*
X125790000Y-28760000D01*
X125790000Y-28760000D02*
X123300000Y-26270000D01*
X93580000Y-27300000D02*
X93580000Y-34430000D01*
X123300000Y-26270000D02*
X94610000Y-26270000D01*
X94610000Y-26270000D02*
X93580000Y-27300000D01*
X94890000Y-36020000D02*
X97090000Y-36020000D01*
X97090000Y-36020000D02*
X97100000Y-36010000D01*
%TO.N,GND*%
X99040000Y-71500000D02*
X99040000Y-59190000D01*
X99040000Y-78230000D02*
X99040000Y-71500000D01*
X99040000Y-71500000D02*
X97170000Y-71500000D01*
X97170000Y-71500000D02*
X97100000Y-71570000D01*
X99040000Y-59190000D02*
X99040000Y-45950000D01*
X99040000Y-59190000D02*
X97420000Y-59190000D01*
X97420000Y-59190000D02*
X97100000Y-58870000D01*
X99040000Y-45950000D02*
X97320000Y-45950000D01*
X97320000Y-45950000D02*
X97100000Y-46170000D01*
X107620000Y-79020000D02*
X99630000Y-79020000D01*
X99630000Y-79020000D02*
X98940000Y-78330000D01*
X98940000Y-78330000D02*
X99040000Y-78230000D01*
X112300000Y-79020000D02*
X112300000Y-71230000D01*
X112300000Y-71230000D02*
X112300000Y-58620000D01*
X114880000Y-71570000D02*
X112640000Y-71570000D01*
X112640000Y-71570000D02*
X112300000Y-71230000D01*
X112300000Y-58620000D02*
X112300000Y-46070000D01*
X114880000Y-58870000D02*
X112550000Y-58870000D01*
X112550000Y-58870000D02*
X112300000Y-58620000D01*
X112300000Y-46070000D02*
X112300000Y-35260000D01*
X114880000Y-46170000D02*
X112400000Y-46170000D01*
X112400000Y-46170000D02*
X112300000Y-46070000D01*
X107620000Y-79020000D02*
X112300000Y-79020000D01*
X112300000Y-79020000D02*
X122550000Y-79020000D01*
X112300000Y-35260000D02*
X114090000Y-33470000D01*
X114090000Y-33470000D02*
X114880000Y-33470000D01*
X105990000Y-76420000D02*
X105990000Y-77390000D01*
X105990000Y-77390000D02*
X107620000Y-79020000D01*
X122550000Y-79020000D02*
X126080000Y-75490000D01*
X126080000Y-75490000D02*
X126080000Y-74820000D01*
X120520000Y-61370000D02*
X118100000Y-58950000D01*
X118100000Y-58950000D02*
X114960000Y-58950000D01*
X114960000Y-58950000D02*
X114880000Y-58870000D01*
X125150000Y-47090000D02*
X124480000Y-47760000D01*
X129370000Y-34760000D02*
X125650000Y-34760000D01*
X114890000Y-46180000D02*
X114880000Y-46170000D01*
%TO.N,Net-(U1-RUN)*%
X119610000Y-53600000D02*
X115070000Y-53600000D01*
%TO.N,/OSC_SIGNAL*%
X133200000Y-39970000D02*
X127200000Y-45970000D01*
%TO.N,Net-(D1-K)*%
X114880000Y-28390000D02*
X114890000Y-28400000D01*
%TO.N,/OSC_SIGNAL*%
X153340000Y-28410000D02*
X150440000Y-31310000D01*
%TO.N,Net-(U1-3V3)*%
X118560000Y-41410000D02*
X115750000Y-38600000D01*
%TO.N,GND*%
X129480000Y-34650000D02*
X129370000Y-34760000D01*
%TO.N,/AMPLITUDE*%
X165490000Y-41260000D02*
X163150000Y-41260000D01*
X163150000Y-41260000D02*
X154740000Y-32850000D01*
X141880000Y-32850000D02*
X138200000Y-36530000D01*
X127310000Y-51400000D02*
X115030000Y-51400000D01*
%TO.N,Net-(U1-3V3_EN)*%
X119990000Y-36050000D02*
X119920000Y-35980000D01*
%TO.N,/AMPLITUDE*%
X129510000Y-49200000D02*
X127310000Y-51400000D01*
%TO.N,GND*%
X120560000Y-67440000D02*
X120660000Y-67440000D01*
%TO.N,Net-(U1-3V3)*%
X118560000Y-44930000D02*
X118560000Y-41410000D01*
%TO.N,/OSC_SIGNAL*%
X150440000Y-31310000D02*
X140720000Y-31310000D01*
%TO.N,Net-(U1-RUN)*%
X119630000Y-53620000D02*
X119610000Y-53600000D01*
%TO.N,Net-(U1-3V3_EN)*%
X114910000Y-35980000D02*
X114880000Y-36010000D01*
%TO.N,/OSC_SIGNAL*%
X117180000Y-48720000D02*
X114890000Y-48720000D01*
%TO.N,GND*%
X114880000Y-71570000D02*
X116430000Y-71570000D01*
%TO.N,/AMPLITUDE*%
X138200000Y-36530000D02*
X138200000Y-39730000D01*
%TO.N,Net-(U1-RUN)*%
X115070000Y-53600000D02*
X114880000Y-53790000D01*
%TO.N,Net-(D1-K)*%
X114890000Y-28400000D02*
X119960000Y-28400000D01*
X119960000Y-28400000D02*
X119990000Y-28430000D01*
%TO.N,Net-(U1-3V3_EN)*%
X119920000Y-35980000D02*
X114910000Y-35980000D01*
%TO.N,Net-(U1-3V3)*%
X119630000Y-46000000D02*
X118560000Y-44930000D01*
X115750000Y-38600000D02*
X114930000Y-38600000D01*
X114930000Y-38600000D02*
X114880000Y-38550000D01*
%TO.N,GND*%
X125650000Y-34760000D02*
X123810000Y-36600000D01*
%TO.N,/AMPLITUDE*%
X164830000Y-47930000D02*
X166530000Y-47930000D01*
%TO.N,GND*%
X123810000Y-36600000D02*
X123810000Y-40900000D01*
X123810000Y-40900000D02*
X125150000Y-42240000D01*
X125150000Y-42240000D02*
X125150000Y-47090000D01*
X124480000Y-47760000D02*
X118740000Y-47760000D01*
X118740000Y-47760000D02*
X117160000Y-46180000D01*
X117160000Y-46180000D02*
X114890000Y-46180000D01*
%TO.N,/OSC_SIGNAL*%
X156650000Y-28410000D02*
X153340000Y-28410000D01*
X140720000Y-31310000D02*
X136490000Y-35540000D01*
X136490000Y-35540000D02*
X136490000Y-38920000D01*
X136490000Y-38920000D02*
X135440000Y-39970000D01*
X135440000Y-39970000D02*
X133200000Y-39970000D01*
X127200000Y-45970000D02*
X127200000Y-48310000D01*
X127200000Y-48310000D02*
X125820000Y-49690000D01*
X125820000Y-49690000D02*
X118150000Y-49690000D01*
X118150000Y-49690000D02*
X117180000Y-48720000D01*
X114890000Y-48720000D02*
X114880000Y-48710000D01*
%TO.N,/AMPLITUDE*%
X166530000Y-47930000D02*
X167930000Y-46530000D01*
X136540000Y-41390000D02*
X134460000Y-41390000D01*
X167930000Y-46530000D02*
X167930000Y-43700000D01*
X167930000Y-43700000D02*
X165490000Y-41260000D01*
X154740000Y-32850000D02*
X141880000Y-32850000D01*
X138200000Y-39730000D02*
X136540000Y-41390000D01*
X134460000Y-41390000D02*
X129510000Y-46340000D01*
X129510000Y-46340000D02*
X129510000Y-49200000D01*
%TO.N,GND*%
X116430000Y-71570000D02*
X120560000Y-67440000D01*
%TO.N,/AMPLITUDE*%
X115030000Y-51400000D02*
X114880000Y-51250000D01*
%TO.N,Net-(D1-K)*%
X122170000Y-32330000D02*
X122170000Y-29630000D01*
X122170000Y-29630000D02*
X120970000Y-28430000D01*
X120970000Y-28430000D02*
X119990000Y-28430000D01*
X131110000Y-31560000D02*
X122940000Y-31560000D01*
X122940000Y-31560000D02*
X122170000Y-32330000D01*
X122830000Y-44160000D02*
X122170000Y-43500000D01*
X122170000Y-43500000D02*
X122170000Y-32330000D01*
%TO.N,+5V*%
X128170000Y-58700000D02*
X125190000Y-58700000D01*
X125190000Y-58700000D02*
X122520000Y-61370000D01*
X122830000Y-56860000D02*
X122830000Y-61060000D01*
X122830000Y-61060000D02*
X122520000Y-61370000D01*
%TO.N,GND*%
X120520000Y-61370000D02*
X120520000Y-64200000D01*
X120520000Y-64200000D02*
X120520000Y-67300000D01*
X120520000Y-64200000D02*
X123360000Y-64200000D01*
X123360000Y-64200000D02*
X126320000Y-61240000D01*
X126320000Y-61240000D02*
X128170000Y-61240000D01*
X120520000Y-67300000D02*
X120660000Y-67440000D01*
%TO.N,+12V*%
X122660000Y-67440000D02*
X124510000Y-67440000D01*
X124510000Y-67440000D02*
X128170000Y-63780000D01*
X122660000Y-71180000D02*
X122660000Y-67440000D01*
X121000000Y-74820000D02*
X121000000Y-72840000D01*
X121000000Y-72840000D02*
X122660000Y-71180000D01*
X130970000Y-63530000D02*
X130720000Y-63780000D01*
X130720000Y-63780000D02*
X128170000Y-63780000D01*
D31*
%TO.N,GND*%
X133250000Y-68500000D02*
X130540000Y-68500000D01*
X126080000Y-72960000D02*
X126080000Y-74820000D01*
X130540000Y-68500000D02*
X126080000Y-72960000D01*
D30*
%TO.N,+12V*%
X138690000Y-44210000D02*
X134280000Y-44210000D01*
X130970000Y-47520000D02*
X130970000Y-63530000D01*
X134280000Y-44210000D02*
X130970000Y-47520000D01*
%TO.N,Net-(D4-A)*%
X181910000Y-55160000D02*
X184770000Y-55160000D01*
X184770000Y-55160000D02*
X188790000Y-51140000D01*
X188790000Y-51140000D02*
X188790000Y-30990000D01*
X188790000Y-30990000D02*
X184250000Y-26450000D01*
X184250000Y-26450000D02*
X184250000Y-25220000D01*
%TO.N,/AMPLITUDE*%
X174130000Y-52750000D02*
X169650000Y-52750000D01*
X169650000Y-52750000D02*
X164830000Y-47930000D01*
%TO.N,GND*%
X169830000Y-43230000D02*
X166610000Y-40010000D01*
X169830000Y-47930000D02*
X169830000Y-43230000D01*
X166610000Y-40010000D02*
X166030000Y-40010000D01*
X166030000Y-40010000D02*
X163840000Y-37820000D01*
%TO.N,/AMPLITUDE*%
X183060000Y-52750000D02*
X174130000Y-52750000D01*
X174130000Y-52750000D02*
X174290000Y-52910000D01*
X174290000Y-52910000D02*
X174290000Y-55160000D01*
X184160000Y-50990000D02*
X184160000Y-51650000D01*
X184160000Y-51650000D02*
X183060000Y-52750000D01*
%TO.N,Net-(U3A-+)*%
X172210000Y-37560000D02*
X175480000Y-40830000D01*
X175480000Y-40830000D02*
X178780000Y-40830000D01*
X178780000Y-40830000D02*
X180570000Y-42620000D01*
X185970000Y-45820000D02*
X186710000Y-45080000D01*
X180570000Y-42620000D02*
X180610000Y-42620000D01*
X180610000Y-42620000D02*
X183810000Y-45820000D01*
X183810000Y-45820000D02*
X185970000Y-45820000D01*
X186710000Y-45080000D02*
X186710000Y-40540000D01*
%TO.N,GND*%
X184160000Y-43370000D02*
X184160000Y-41560000D01*
X184160000Y-41560000D02*
X183140000Y-40540000D01*
X183140000Y-40540000D02*
X181710000Y-40540000D01*
%TO.N,Net-(D1-K)*%
X160000000Y-22300000D02*
X162480000Y-24780000D01*
X162480000Y-24780000D02*
X162480000Y-31900000D01*
X162480000Y-31900000D02*
X163400000Y-32820000D01*
X163400000Y-32820000D02*
X163840000Y-32820000D01*
%TO.N,GND*%
X134625000Y-31985000D02*
X134140000Y-31500000D01*
X162870000Y-37820000D02*
X163840000Y-37820000D01*
X134140000Y-31500000D02*
X134140000Y-26120000D01*
X134140000Y-26120000D02*
X135990000Y-24270000D01*
X135990000Y-24270000D02*
X158280000Y-24270000D01*
X160700000Y-35650000D02*
X162870000Y-37820000D01*
X158280000Y-24270000D02*
X160700000Y-26690000D01*
X160700000Y-26690000D02*
X160700000Y-35650000D01*
%TO.N,Net-(R16-Pad1)*%
X166750000Y-26560000D02*
X166120000Y-26560000D01*
X166120000Y-26560000D02*
X164270000Y-28410000D01*
%TO.N,Net-(Q4-C)*%
X147730000Y-28840000D02*
X150510000Y-26060000D01*
X150510000Y-26060000D02*
X157240000Y-26060000D01*
X158630000Y-27450000D02*
X158630000Y-31260000D01*
X157240000Y-26060000D02*
X158630000Y-27450000D01*
%TO.N,Net-(R16-Pad1)*%
X167660000Y-26560000D02*
X166750000Y-26560000D01*
X169175000Y-28075000D02*
X167660000Y-26560000D01*
%TO.N,Net-(U3B--)*%
X174370000Y-26560000D02*
X173980000Y-26950000D01*
X173980000Y-26950000D02*
X173980000Y-28170000D01*
%TO.N,Net-(D1-K)*%
X160000000Y-22300000D02*
X177060000Y-22300000D01*
X177060000Y-22300000D02*
X184930000Y-30170000D01*
X184930000Y-30170000D02*
X184940000Y-30170000D01*
X131110000Y-31560000D02*
X132220000Y-30450000D01*
X132220000Y-30450000D02*
X132220000Y-25320000D01*
X132220000Y-25320000D02*
X135240000Y-22300000D01*
X135240000Y-22300000D02*
X160000000Y-22300000D01*
X167130000Y-29940000D02*
X166720000Y-29940000D01*
X166720000Y-29940000D02*
X163840000Y-32820000D01*
%TO.N,GND*%
X171690000Y-34500000D02*
X171480000Y-34710000D01*
X171480000Y-34710000D02*
X165800000Y-34710000D01*
X165800000Y-34710000D02*
X163840000Y-36670000D01*
X163840000Y-36670000D02*
X163840000Y-37820000D01*
%TO.N,Net-(R16-Pad1)*%
X169670000Y-28570000D02*
X169175000Y-28075000D01*
X176630000Y-25220000D02*
X175380000Y-23970000D01*
X173280000Y-23970000D02*
X169175000Y-28075000D01*
X175380000Y-23970000D02*
X173280000Y-23970000D01*
%TO.N,GND*%
X173440000Y-33250000D02*
X179770000Y-33250000D01*
X173440000Y-33250000D02*
X172940000Y-33250000D01*
X172940000Y-33250000D02*
X171690000Y-34500000D01*
D32*
%TO.N,Net-(Q3-D)*%
X146170000Y-49870000D02*
X146170000Y-47990000D01*
X146170000Y-47990000D02*
X147450000Y-46710000D01*
X153010000Y-49470000D02*
X157750000Y-49470000D01*
X147450000Y-46710000D02*
X150600000Y-46710000D01*
X153010000Y-49120000D02*
X153010000Y-49470000D01*
X150600000Y-46710000D02*
X153010000Y-49120000D01*
D30*
%TO.N,+12V*%
X146970000Y-42260000D02*
X146180000Y-42260000D01*
X146180000Y-42260000D02*
X144230000Y-44210000D01*
X144230000Y-44210000D02*
X138690000Y-44210000D01*
%TO.N,Net-(C8-Pad2)*%
X167130000Y-37560000D02*
X167130000Y-38130000D01*
X167130000Y-38130000D02*
X172310000Y-43310000D01*
X172310000Y-43310000D02*
X172310000Y-48880000D01*
X181260000Y-50840000D02*
X181310000Y-50890000D01*
X172310000Y-48880000D02*
X174270000Y-50840000D01*
X174270000Y-50840000D02*
X181260000Y-50840000D01*
X181770000Y-50430000D02*
X181770000Y-47710000D01*
X181310000Y-50890000D02*
X181770000Y-50430000D01*
%TO.N,Net-(U3A--)*%
X174120000Y-42470000D02*
X174140000Y-42470000D01*
X174140000Y-42470000D02*
X175980000Y-44310000D01*
X175980000Y-44310000D02*
X175980000Y-45880000D01*
X175980000Y-45880000D02*
X174150000Y-47710000D01*
X169670000Y-37560000D02*
X169670000Y-38020000D01*
X169670000Y-38020000D02*
X174120000Y-42470000D01*
%TO.N,Net-(C8-Pad1)*%
X178390000Y-35790000D02*
X178390000Y-38060000D01*
X178390000Y-38060000D02*
X178600000Y-38270000D01*
%TO.N,Net-(C8-Pad2)*%
X178600000Y-43270000D02*
X178600000Y-44540000D01*
X178600000Y-44540000D02*
X181770000Y-47710000D01*
%TO.N,GND*%
X181800000Y-37790000D02*
X181800000Y-40450000D01*
%TO.N,Net-(U3A-+)*%
X184940000Y-38770000D02*
X186710000Y-40540000D01*
X184940000Y-37790000D02*
X184940000Y-38770000D01*
%TO.N,GND*%
X181800000Y-40450000D02*
X181710000Y-40540000D01*
%TO.N,Net-(C6-Pad2)*%
X165820000Y-44310000D02*
X163500000Y-44310000D01*
X163500000Y-44310000D02*
X163440000Y-44370000D01*
%TO.N,GND*%
X174750000Y-37560000D02*
X171690000Y-34500000D01*
%TO.N,Net-(R16-Pad1)*%
X169670000Y-29940000D02*
X169670000Y-28570000D01*
%TO.N,GND*%
X181800000Y-37790000D02*
X181800000Y-35280000D01*
X181800000Y-35280000D02*
X179770000Y-33250000D01*
%TO.N,Net-(U3A-+)*%
X181800000Y-30170000D02*
X181800000Y-30760000D01*
X181800000Y-30760000D02*
X184940000Y-33900000D01*
X184940000Y-33900000D02*
X184940000Y-37790000D01*
%TO.N,Net-(U3B--)*%
X178390000Y-28170000D02*
X173980000Y-28170000D01*
X173980000Y-28170000D02*
X172210000Y-29940000D01*
%TO.N,Net-(U3A-+)*%
X181660000Y-30030000D02*
X174840000Y-30030000D01*
X181800000Y-30170000D02*
X181660000Y-30030000D01*
X174840000Y-30030000D02*
X174750000Y-29940000D01*
%TO.N,GND*%
X137310000Y-29300000D02*
X134625000Y-31985000D01*
X134625000Y-31985000D02*
X131960000Y-34650000D01*
%TO.N,Net-(Q4-B)*%
X137110000Y-26440000D02*
X137210000Y-26340000D01*
%TO.N,GND*%
X131960000Y-34650000D02*
X129480000Y-34650000D01*
X142650000Y-28840000D02*
X142190000Y-29300000D01*
X142190000Y-29300000D02*
X137310000Y-29300000D01*
%TO.N,Net-(Q4-B)*%
X143680000Y-26340000D02*
X145190000Y-27850000D01*
%TO.N,GND*%
X142650000Y-29050000D02*
X142650000Y-28840000D01*
X142510000Y-29190000D02*
X142650000Y-29050000D01*
%TO.N,Net-(Q4-B)*%
X137210000Y-26340000D02*
X143680000Y-26340000D01*
X145190000Y-27850000D02*
X145190000Y-28840000D01*
%TO.N,Net-(Q1-C)*%
X129480000Y-39730000D02*
X129760000Y-39730000D01*
X129760000Y-39730000D02*
X131870000Y-37620000D01*
%TO.N,Net-(Q1-B)*%
X129480000Y-37190000D02*
X127960000Y-37190000D01*
X127960000Y-37190000D02*
X125950000Y-39200000D01*
X125950000Y-39200000D02*
X125950000Y-39780000D01*
%TO.N,Net-(Q1-C)*%
X131870000Y-37620000D02*
X134170000Y-37620000D01*
X129550000Y-39730000D02*
X129480000Y-39730000D01*
%TO.N,Net-(Q3-G)*%
X158630000Y-41420000D02*
X156490000Y-41420000D01*
X156490000Y-41420000D02*
X153810000Y-44100000D01*
X153810000Y-44100000D02*
X146920000Y-44100000D01*
X146920000Y-44100000D02*
X143630000Y-47390000D01*
X143630000Y-47390000D02*
X143630000Y-49870000D01*
%TO.N,Net-(Q2-B)*%
X144330000Y-37620000D02*
X144330000Y-36740000D01*
X144330000Y-36740000D02*
X145290000Y-35780000D01*
X145290000Y-35780000D02*
X145830000Y-35780000D01*
X145830000Y-35780000D02*
X146970000Y-34640000D01*
%TO.N,+12V*%
X147010000Y-42220000D02*
X146970000Y-42260000D01*
%TO.N,Net-(Q2-B)*%
X146970000Y-38760000D02*
X146970000Y-34640000D01*
X151430000Y-39790000D02*
X148000000Y-39790000D01*
X148000000Y-39790000D02*
X146970000Y-38760000D01*
%TO.N,+12V*%
X151320000Y-42220000D02*
X147010000Y-42220000D01*
X151430000Y-42330000D02*
X151320000Y-42220000D01*
%TO.N,Net-(Q2-C)*%
X155240000Y-38590000D02*
X153920000Y-37270000D01*
X153920000Y-37270000D02*
X151450000Y-37270000D01*
X151450000Y-37270000D02*
X151430000Y-37250000D01*
%TO.N,Net-(D2-K)*%
X158440000Y-44370000D02*
X157080000Y-44370000D01*
X157080000Y-44370000D02*
X155240000Y-46210000D01*
%TO.N,+12V*%
X138910000Y-42680000D02*
X138910000Y-43990000D01*
X138910000Y-43990000D02*
X138690000Y-44210000D01*
%TO.N,Net-(Q3-G)*%
X143630000Y-49870000D02*
X139340000Y-49870000D01*
X139340000Y-49870000D02*
X138910000Y-50300000D01*
%TO.N,+12V*%
X133530000Y-63840000D02*
X130660000Y-63840000D01*
%TO.N,Net-(Q3-S)*%
X145950000Y-57250000D02*
X142230000Y-57250000D01*
X142230000Y-57250000D02*
X133990000Y-49010000D01*
X133990000Y-49010000D02*
X133940000Y-49010000D01*
%TO.N,+12V*%
X133940000Y-64250000D02*
X133530000Y-63840000D01*
D32*
%TO.N,Net-(Q3-S)*%
X148710000Y-54550000D02*
X146010000Y-57250000D01*
X148710000Y-49870000D02*
X148710000Y-54550000D01*
X146010000Y-57250000D02*
X145950000Y-57250000D01*
D31*
%TO.N,GND*%
X145950000Y-62250000D02*
X145150000Y-62250000D01*
X145150000Y-62250000D02*
X139000000Y-68400000D01*
D30*
%TO.N,Net-(D2-K)*%
X155240000Y-46210000D02*
X155970000Y-46940000D01*
X155970000Y-46940000D02*
X160240000Y-46940000D01*
X160240000Y-46940000D02*
X161710000Y-48410000D01*
X161710000Y-48410000D02*
X161710000Y-62000000D01*
X161710000Y-62000000D02*
X159210000Y-64500000D01*
D31*
X157960000Y-64500000D02*
X159210000Y-64500000D01*
X159660000Y-79740000D02*
X151340000Y-79740000D01*
X160990000Y-78410000D02*
X159660000Y-79740000D01*
X160990000Y-66280000D02*
X160990000Y-78410000D01*
X159210000Y-64500000D02*
X160990000Y-66280000D01*
X149160000Y-77560000D02*
X149160000Y-76200000D01*
X151340000Y-79740000D02*
X149160000Y-77560000D01*
X157750000Y-64710000D02*
X157960000Y-64500000D01*
%TO.N,GND*%
X157250000Y-68470000D02*
X157250000Y-70760000D01*
X157250000Y-70760000D02*
X155530000Y-72480000D01*
X155530000Y-72480000D02*
X147370000Y-72480000D01*
X147370000Y-72480000D02*
X145310000Y-70420000D01*
X145310000Y-70420000D02*
X145310000Y-68380000D01*
%TO.N,Net-(D5-A)*%
X157250000Y-76090000D02*
X153350000Y-76090000D01*
X153350000Y-76090000D02*
X153290000Y-76030000D01*
%TO.N,Net-(D2-A)*%
X153290000Y-68410000D02*
X149330000Y-68410000D01*
X149330000Y-68410000D02*
X149160000Y-68580000D01*
%TO.N,Net-(D2-K)*%
X149160000Y-76200000D02*
X144930000Y-76200000D01*
X144930000Y-76200000D02*
X144730000Y-76000000D01*
%TO.N,GND*%
X142130000Y-68400000D02*
X139000000Y-68400000D01*
X145310000Y-68380000D02*
X142150000Y-68380000D01*
X142150000Y-68380000D02*
X142130000Y-68400000D01*
%TO.N,Net-(D2-K)*%
X145310000Y-76000000D02*
X144730000Y-76000000D01*
X144730000Y-76000000D02*
X142130000Y-73400000D01*
X139000000Y-73400000D02*
X142130000Y-73400000D01*
X133310000Y-74810000D02*
X137590000Y-74810000D01*
X137590000Y-74810000D02*
X139000000Y-73400000D01*
%TO.N,GND*%
X139000000Y-68400000D02*
X133350000Y-68400000D01*
X133350000Y-68400000D02*
X133250000Y-68500000D01*
%TD*%
M02*
