<?xml version="1.0" standalone="no"?>
<!DOCTYPE svg PUBLIC "-//W3C//DTD SVG 1.1//EN"
"http://www.w3.org/Graphics/SVG/1.1/DTD/svg11.dtd">
<svg width="385.508" height="241.886" viewBox="0 0 8031.42 5039.29" version="1.1"
xmlns="http://www.w3.org/2000/svg"
xmlns:xlink="http://www.w3.org/1999/xlink">
<polyline points="564.861,4399.95 631.791,4399.96" style="stroke:rgb(255,0,0);stroke-width:78.740157;fill:none;stroke-opacity:0.5;stroke-linecap:round;stroke-linejoin:round;;fill:none"/>
<polyline points="564.861,4399.95 631.791,4399.96" style="stroke:rgb(0,0,0);stroke-width:1px;fill:none;stroke-opacity:1;stroke-linecap:round;stroke-linejoin:round;;fill:none"/>
<polyline points="697.859,4534.88 687.903,4544.62 666.707,4568.28 659.233,4574.83 654.185,4578.78 642.233,4586.02 628.241,4591.85 613.491,4595.35 598.385,4596.58 583.275,4595.35 568.533,4591.84 554.525,4586.04 541.609,4578.1 530.059,4568.28 522.967,4560.15 519.097,4555.04 512.811,4544.73 510.119,4538.91 506.493,4529.82 504.329,4521.4 502.997,4515.07 502.283,4508.35 501.761,4499.96 502.191,4492.72 502.977,4484.85 503.815,4480.78 506.031,4471.79 508.165,4465.75 512.291,4456.09 520.329,4443.05 529.281,4432.06 539.689,4418.33 546.627,4408.03" style="stroke:rgb(255,0,0);stroke-width:78.740157;fill:none;stroke-opacity:0.5;stroke-linecap:round;stroke-linejoin:round;;fill:none"/>
<polyline points="697.859,4534.88 687.903,4544.62 666.707,4568.28 659.233,4574.83 654.185,4578.78 642.233,4586.02 628.241,4591.85 613.491,4595.35 598.385,4596.58 583.275,4595.35 568.533,4591.84 554.525,4586.04 541.609,4578.1 530.059,4568.28 522.967,4560.15 519.097,4555.04 512.811,4544.73 510.119,4538.91 506.493,4529.82 504.329,4521.4 502.997,4515.07 502.283,4508.35 501.761,4499.96 502.191,4492.72 502.977,4484.85 503.815,4480.78 506.031,4471.79 508.165,4465.75 512.291,4456.09 520.329,4443.05 529.281,4432.06 539.689,4418.33 546.627,4408.03" style="stroke:rgb(0,0,0);stroke-width:1px;fill:none;stroke-opacity:1;stroke-linecap:round;stroke-linejoin:round;;fill:none"/>
</svg>
