<?xml version="1.0" standalone="no"?>
<!DOCTYPE svg PUBLIC "-//W3C//DTD SVG 1.1//EN"
"http://www.w3.org/Graphics/SVG/1.1/DTD/svg11.dtd">
<svg width="382.11" height="242.268" viewBox="0 0 7960.63 5047.24" version="1.1"
xmlns="http://www.w3.org/2000/svg"
xmlns:xlink="http://www.w3.org/1999/xlink">
<polyline points="197.57,4378.24 195.097,4381.89 188.695,4390.02 181.773,4397.55 173.433,4405.71 163.559,4417.22 155.677,4430.17 149.853,4444.14 146.313,4458.9 145.143,4474.02 146.251,4488.68 149.835,4503.87 155.645,4517.88 163.575,4530.8 173.427,4542.32 184.955,4552.16 197.871,4560.1 211.871,4565.91 226.615,4569.44 241.729,4570.63 250.015,4570.13 257.069,4569.4 271.587,4565.9 285.593,4560.1 298.201,4552.39 311.397,4541.15 318.577,4535.44 321.187,4534.88 333.813,4533.53 480.609,4533.48 489.125,4534.09 495.033,4534.94 510.143,4545.28 519.141,4550.62 533.131,4556.46 547.885,4559.94 558.121,4560.92 566.125,4561.02 579.813,4559.64 592.833,4556.42 606.855,4550.65 619.757,4542.7 630.655,4533.48 641.125,4521.33 650.187,4506.7 660.845,4491.61 666.361,4485.28" style="stroke:rgb(255,0,0);stroke-width:78.740157;fill:none;stroke-opacity:0.5;stroke-linecap:round;stroke-linejoin:round;;fill:none"/>
<polyline points="197.57,4378.24 195.097,4381.89 188.695,4390.02 181.773,4397.55 173.433,4405.71 163.559,4417.22 155.677,4430.17 149.853,4444.14 146.313,4458.9 145.143,4474.02 146.251,4488.68 149.835,4503.87 155.645,4517.88 163.575,4530.8 173.427,4542.32 184.955,4552.16 197.871,4560.1 211.871,4565.91 226.615,4569.44 241.729,4570.63 250.015,4570.13 257.069,4569.4 271.587,4565.9 285.593,4560.1 298.201,4552.39 311.397,4541.15 318.577,4535.44 321.187,4534.88 333.813,4533.53 480.609,4533.48 489.125,4534.09 495.033,4534.94 510.143,4545.28 519.141,4550.62 533.131,4556.46 547.885,4559.94 558.121,4560.92 566.125,4561.02 579.813,4559.64 592.833,4556.42 606.855,4550.65 619.757,4542.7 630.655,4533.48 641.125,4521.33 650.187,4506.7 660.845,4491.61 666.361,4485.28" style="stroke:rgb(0,0,0);stroke-width:1px;fill:none;stroke-opacity:1;stroke-linecap:round;stroke-linejoin:round;;fill:none"/>
<polyline points="275.204,4374.02 208.221,4374.05" style="stroke:rgb(255,0,0);stroke-width:78.740157;fill:none;stroke-opacity:0.5;stroke-linecap:round;stroke-linejoin:round;;fill:none"/>
<polyline points="275.204,4374.02 208.221,4374.05" style="stroke:rgb(0,0,0);stroke-width:1px;fill:none;stroke-opacity:1;stroke-linecap:round;stroke-linejoin:round;;fill:none"/>
<polyline points="596.529,4364.58 529.756,4364.58" style="stroke:rgb(255,0,0);stroke-width:78.740157;fill:none;stroke-opacity:0.5;stroke-linecap:round;stroke-linejoin:round;;fill:none"/>
<polyline points="596.529,4364.58 529.756,4364.58" style="stroke:rgb(0,0,0);stroke-width:1px;fill:none;stroke-opacity:1;stroke-linecap:round;stroke-linejoin:round;;fill:none"/>
<polyline points="660.945,4425.49 659.529,4424.43 652.485,4418.36 644.105,4410.54 631.387,4396.34 625.055,4390.31 617.705,4382.47 611.979,4375.6 607.24,4368.8" style="stroke:rgb(255,0,0);stroke-width:78.740157;fill:none;stroke-opacity:0.5;stroke-linecap:round;stroke-linejoin:round;;fill:none"/>
<polyline points="660.945,4425.49 659.529,4424.43 652.485,4418.36 644.105,4410.54 631.387,4396.34 625.055,4390.31 617.705,4382.47 611.979,4375.6 607.24,4368.8" style="stroke:rgb(0,0,0);stroke-width:1px;fill:none;stroke-opacity:1;stroke-linecap:round;stroke-linejoin:round;;fill:none"/>
</svg>
