<?xml version="1.0" standalone="no"?>
<!DOCTYPE svg PUBLIC "-//W3C//DTD SVG 1.1//EN"
"http://www.w3.org/Graphics/SVG/1.1/DTD/svg11.dtd">
<svg width="382.11" height="242.268" viewBox="0 0 7960.63 5047.24" version="1.1"
xmlns="http://www.w3.org/2000/svg"
xmlns:xlink="http://www.w3.org/1999/xlink">
<circle cx="562.992" cy="664.567" r="31.4961" style=""/>
<circle cx="562.992" cy="864.567" r="31.4961" style=""/>
<circle cx="562.992" cy="1064.57" r="31.4961" style=""/>
<circle cx="1048.43" cy="674.803" r="31.4961" style=""/>
<circle cx="1072.05" cy="913.386" r="31.4961" style=""/>
<circle cx="1453.94" cy="913.386" r="31.4961" style=""/>
<circle cx="1477.56" cy="674.803" r="31.4961" style=""/>
<circle cx="1962.99" cy="664.567" r="31.4961" style=""/>
<circle cx="1962.99" cy="864.567" r="31.4961" style=""/>
<circle cx="2365.35" cy="667.717" r="31.4961" style=""/>
<circle cx="1962.99" cy="1064.57" r="31.4961" style=""/>
<circle cx="1962.99" cy="1264.57" r="31.4961" style=""/>
<circle cx="2365.35" cy="1267.72" r="31.4961" style=""/>
<circle cx="1962.99" cy="1464.57" r="31.4961" style=""/>
<circle cx="1962.99" cy="1664.57" r="31.4961" style=""/>
<circle cx="1962.99" cy="1864.57" r="31.4961" style=""/>
<circle cx="1962.99" cy="2064.57" r="31.4961" style=""/>
<circle cx="1962.99" cy="2264.57" r="31.4961" style=""/>
<circle cx="1962.99" cy="2464.57" r="31.4961" style=""/>
<circle cx="1962.99" cy="2664.57" r="31.4961" style=""/>
<circle cx="1962.99" cy="2864.57" r="31.4961" style=""/>
<circle cx="1962.99" cy="3064.57" r="31.4961" style=""/>
<circle cx="1962.99" cy="3264.57" r="31.4961" style=""/>
<circle cx="1962.99" cy="3464.57" r="31.4961" style=""/>
<circle cx="1962.99" cy="3664.57" r="31.4961" style=""/>
<circle cx="1962.99" cy="3864.57" r="31.4961" style=""/>
<circle cx="2407.09" cy="3261.42" r="31.4961" style=""/>
<circle cx="2564.57" cy="3261.42" r="31.4961" style=""/>
<circle cx="2418.11" cy="3739.37" r="31.4961" style=""/>
<circle cx="2575.59" cy="3739.37" r="31.4961" style=""/>
<circle cx="3009.45" cy="3451.18" r="31.4961" style=""/>
<circle cx="3009.45" cy="3251.18" r="31.4961" style=""/>
<circle cx="3009.45" cy="3051.18" r="31.4961" style=""/>
<circle cx="2588.98" cy="2906.3" r="31.4961" style=""/>
<circle cx="2337.01" cy="2651.18" r="31.4961" style=""/>
<circle cx="2337.01" cy="2051.18" r="31.4961" style=""/>
<circle cx="2588.98" cy="1906.3" r="31.4961" style=""/>
<circle cx="2834.65" cy="1561.42" r="31.4961" style=""/>
<circle cx="3112.6" cy="1357.48" r="31.4961" style=""/>
<circle cx="3112.6" cy="1557.48" r="31.4961" style=""/>
<circle cx="3481.89" cy="1391.34" r="31.4961" style=""/>
<circle cx="3112.6" cy="1157.48" r="31.4961" style=""/>
<circle cx="2834.65" cy="761.417" r="31.4961" style=""/>
<circle cx="3113.39" cy="511.024" r="31.4961" style=""/>
<circle cx="3713.39" cy="511.024" r="31.4961" style=""/>
<circle cx="4149.61" cy="700" r="31.4961" style=""/>
<circle cx="4349.61" cy="700" r="31.4961" style=""/>
<circle cx="4549.61" cy="700" r="31.4961" style=""/>
<circle cx="4489.76" cy="1156.69" r="31.4961" style=""/>
<circle cx="4281.89" cy="1391.34" r="31.4961" style=""/>
<circle cx="3888.19" cy="1787.4" r="31.4961" style=""/>
<circle cx="3502.68" cy="2282.68" r="31.4961" style=""/>
<circle cx="3888.19" cy="2387.4" r="31.4961" style=""/>
<circle cx="4245.67" cy="2482.68" r="31.4961" style=""/>
<circle cx="4445.67" cy="2482.68" r="31.4961" style=""/>
<circle cx="4645.67" cy="2482.68" r="31.4961" style=""/>
<circle cx="5140.94" cy="2067.72" r="31.4961" style=""/>
<circle cx="5392.91" cy="1922.83" r="31.4961" style=""/>
<circle cx="4840.94" cy="1762.2" r="31.4961" style=""/>
<circle cx="4489.76" cy="1756.69" r="31.4961" style=""/>
<circle cx="4840.94" cy="1562.2" r="31.4961" style=""/>
<circle cx="4840.94" cy="1362.2" r="31.4961" style=""/>
<circle cx="5140.94" cy="1467.72" r="31.4961" style=""/>
<circle cx="5407.87" cy="1690.55" r="31.4961" style=""/>
<circle cx="5818.11" cy="1407.09" r="31.4961" style=""/>
<circle cx="6077.17" cy="1386.61" r="31.4961" style=""/>
<circle cx="6277.17" cy="1386.61" r="31.4961" style=""/>
<circle cx="6477.17" cy="1386.61" r="31.4961" style=""/>
<circle cx="6677.17" cy="1386.61" r="31.4961" style=""/>
<circle cx="6077.17" cy="786.614" r="31.4961" style=""/>
<circle cx="5818.11" cy="1013.39" r="31.4961" style=""/>
<circle cx="5407.87" cy="890.551" r="31.4961" style=""/>
<circle cx="5251.97" cy="666.142" r="31.4961" style=""/>
<circle cx="5851.97" cy="666.142" r="31.4961" style=""/>
<circle cx="6047.24" cy="520.472" r="31.4961" style=""/>
<circle cx="6277.17" cy="786.614" r="31.4961" style=""/>
<circle cx="6477.17" cy="786.614" r="31.4961" style=""/>
<circle cx="6677.17" cy="786.614" r="31.4961" style=""/>
<circle cx="6647.24" cy="520.472" r="31.4961" style=""/>
<circle cx="6825.2" cy="414.961" r="31.4961" style=""/>
<circle cx="6963.78" cy="647.244" r="31.4961" style=""/>
<circle cx="7232.28" cy="804.724" r="31.4961" style=""/>
<circle cx="7425.2" cy="414.961" r="31.4961" style=""/>
<circle cx="7479.53" cy="804.724" r="31.4961" style=""/>
<circle cx="6963.78" cy="1247.24" r="31.4961" style=""/>
<circle cx="6980.31" cy="1442.52" r="31.4961" style=""/>
<circle cx="7225.2" cy="1621.26" r="31.4961" style=""/>
<circle cx="7232.28" cy="1404.72" r="31.4961" style=""/>
<circle cx="7479.53" cy="1404.72" r="31.4961" style=""/>
<circle cx="7618.9" cy="1621.26" r="31.4961" style=""/>
<circle cx="7418.11" cy="1844.09" r="31.4961" style=""/>
<circle cx="7229.92" cy="2185.83" r="31.4961" style=""/>
<circle cx="7418.11" cy="2444.09" r="31.4961" style=""/>
<circle cx="7378.74" cy="2666.14" r="31.4961" style=""/>
<circle cx="7185.04" cy="2689.76" r="31.4961" style=""/>
<circle cx="7185.83" cy="2918.11" r="31.4961" style=""/>
<circle cx="7772.44" cy="2666.14" r="31.4961" style=""/>
<circle cx="6980.31" cy="1836.22" r="31.4961" style=""/>
<circle cx="6774.02" cy="1918.11" r="31.4961" style=""/>
<circle cx="6629.92" cy="2185.83" r="31.4961" style=""/>
<circle cx="6289.76" cy="2203.15" r="31.4961" style=""/>
<circle cx="5974.02" cy="1918.11" r="31.4961" style=""/>
<circle cx="5786.61" cy="1922.83" r="31.4961" style=""/>
<circle cx="5896.06" cy="2203.15" r="31.4961" style=""/>
<circle cx="6585.04" cy="2689.76" r="31.4961" style=""/>
<circle cx="6585.83" cy="2918.11" r="31.4961" style=""/>
<circle cx="6237.8" cy="2787.4" r="31.4961" style=""/>
<circle cx="5545.67" cy="3386.61" r="31.4961" style=""/>
<circle cx="5145.67" cy="3386.61" r="31.4961" style=""/>
<circle cx="5037.8" cy="2787.4" r="31.4961" style=""/>
<circle cx="4342.68" cy="3022.68" r="31.4961" style=""/>
<circle cx="4342.68" cy="3416.38" r="31.4961" style=""/>
<circle cx="4660.63" cy="3874.02" r="31.4961" style=""/>
<circle cx="4907.09" cy="3874.02" r="31.4961" style=""/>
<circle cx="5157.48" cy="3872.44" r="31.4961" style=""/>
<circle cx="5460.63" cy="3888.19" r="31.4961" style=""/>
<circle cx="5785.83" cy="3874.8" r="31.4961" style=""/>
<circle cx="6097.64" cy="3879.53" r="31.4961" style=""/>
<circle cx="6097.64" cy="4479.53" r="31.4961" style=""/>
<circle cx="5785.83" cy="4474.8" r="31.4961" style=""/>
<circle cx="5460.63" cy="4488.19" r="31.4961" style=""/>
<circle cx="5157.48" cy="4472.44" r="31.4961" style=""/>
<circle cx="4907.09" cy="4267.72" r="31.4961" style=""/>
<circle cx="4660.63" cy="4267.72" r="31.4961" style=""/>
<circle cx="4068.5" cy="4243.31" r="31.4961" style=""/>
<circle cx="4068.5" cy="4400.79" r="31.4961" style=""/>
<circle cx="4068.5" cy="4329.21" r="31.4961" style=""/>
<circle cx="4068.5" cy="4286.26" r="31.4961" style=""/>
<circle cx="4068.5" cy="4372.15" r="31.4961" style=""/>
<circle cx="4068.5" cy="4271.94" r="31.4961" style=""/>
<circle cx="4068.5" cy="4300.57" r="31.4961" style=""/>
<circle cx="4068.5" cy="4357.84" r="31.4961" style=""/>
<circle cx="4068.5" cy="4386.47" r="31.4961" style=""/>
<circle cx="4068.5" cy="4257.62" r="31.4961" style=""/>
<circle cx="4068.5" cy="4314.89" r="31.4961" style=""/>
<circle cx="4068.5" cy="4343.52" r="31.4961" style=""/>
<circle cx="3777.17" cy="4558.27" r="31.4961" style=""/>
<circle cx="3619.69" cy="4558.27" r="31.4961" style=""/>
<circle cx="3691.27" cy="4558.27" r="31.4961" style=""/>
<circle cx="3734.22" cy="4558.27" r="31.4961" style=""/>
<circle cx="3648.32" cy="4558.27" r="31.4961" style=""/>
<circle cx="3748.53" cy="4558.27" r="31.4961" style=""/>
<circle cx="3719.9" cy="4558.27" r="31.4961" style=""/>
<circle cx="3662.63" cy="4558.27" r="31.4961" style=""/>
<circle cx="3634" cy="4558.27" r="31.4961" style=""/>
<circle cx="3762.85" cy="4558.27" r="31.4961" style=""/>
<circle cx="3705.58" cy="4558.27" r="31.4961" style=""/>
<circle cx="3676.95" cy="4558.27" r="31.4961" style=""/>
<circle cx="3777.17" cy="4085.83" r="31.4961" style=""/>
<circle cx="3619.69" cy="4085.83" r="31.4961" style=""/>
<circle cx="3691.27" cy="4085.83" r="31.4961" style=""/>
<circle cx="3734.22" cy="4085.83" r="31.4961" style=""/>
<circle cx="3648.32" cy="4085.83" r="31.4961" style=""/>
<circle cx="3748.53" cy="4085.83" r="31.4961" style=""/>
<circle cx="3719.9" cy="4085.83" r="31.4961" style=""/>
<circle cx="3662.63" cy="4085.83" r="31.4961" style=""/>
<circle cx="3634" cy="4085.83" r="31.4961" style=""/>
<circle cx="3762.85" cy="4085.83" r="31.4961" style=""/>
<circle cx="3705.58" cy="4085.83" r="31.4961" style=""/>
<circle cx="3676.95" cy="4085.83" r="31.4961" style=""/>
<circle cx="3502.68" cy="3482.68" r="31.4961" style=""/>
<circle cx="2844.88" cy="4320.47" r="31.4961" style=""/>
<circle cx="2444.88" cy="4320.47" r="31.4961" style=""/>
<circle cx="1962.99" cy="4464.57" r="31.4961" style=""/>
<circle cx="1962.99" cy="4264.57" r="31.4961" style=""/>
<circle cx="1962.99" cy="4064.57" r="31.4961" style=""/>
<circle cx="1462.99" cy="4446.46" r="31.4961" style=""/>
<circle cx="1262.99" cy="4446.46" r="31.4961" style=""/>
<circle cx="1062.99" cy="4446.46" r="31.4961" style=""/>
<circle cx="562.992" cy="4464.57" r="31.4961" style=""/>
<circle cx="562.992" cy="4264.57" r="31.4961" style=""/>
<circle cx="562.992" cy="4064.57" r="31.4961" style=""/>
<circle cx="562.992" cy="3864.57" r="31.4961" style=""/>
<circle cx="562.992" cy="3664.57" r="31.4961" style=""/>
<circle cx="562.992" cy="3464.57" r="31.4961" style=""/>
<circle cx="562.992" cy="3264.57" r="31.4961" style=""/>
<circle cx="562.992" cy="3064.57" r="31.4961" style=""/>
<circle cx="562.992" cy="2864.57" r="31.4961" style=""/>
<circle cx="562.992" cy="2664.57" r="31.4961" style=""/>
<circle cx="562.992" cy="2464.57" r="31.4961" style=""/>
<circle cx="562.992" cy="2264.57" r="31.4961" style=""/>
<circle cx="562.992" cy="2064.57" r="31.4961" style=""/>
<circle cx="562.992" cy="1864.57" r="31.4961" style=""/>
<circle cx="562.992" cy="1664.57" r="31.4961" style=""/>
<circle cx="562.992" cy="1464.57" r="31.4961" style=""/>
<circle cx="562.992" cy="1264.57" r="31.4961" style=""/>
<circle cx="241.732" cy="1874.02" r="31.4961" style=""/>
<circle cx="241.732" cy="2074.02" r="31.4961" style=""/>
<circle cx="241.732" cy="2274.02" r="31.4961" style=""/>
<circle cx="241.732" cy="2474.02" r="31.4961" style=""/>
<circle cx="241.732" cy="2674.02" r="31.4961" style=""/>
<circle cx="241.732" cy="2874.02" r="31.4961" style=""/>
<circle cx="241.732" cy="3074.02" r="31.4961" style=""/>
<circle cx="241.732" cy="3274.02" r="31.4961" style=""/>
<circle cx="241.732" cy="3474.02" r="31.4961" style=""/>
<circle cx="241.732" cy="3674.02" r="31.4961" style=""/>
<circle cx="241.732" cy="3874.02" r="31.4961" style=""/>
<circle cx="241.732" cy="4074.02" r="31.4961" style=""/>
<circle cx="241.732" cy="4274.02" r="31.4961" style=""/>
<circle cx="241.732" cy="4474.02" r="31.4961" style=""/>
</svg>
