<?xml version="1.0" standalone="no"?>
<!DOCTYPE svg PUBLIC "-//W3C//DTD SVG 1.1//EN"
"http://www.w3.org/Graphics/SVG/1.1/DTD/svg11.dtd">
<svg width="378.327" height="234.705" viewBox="0 0 7881.81 4889.69" version="1.1"
xmlns="http://www.w3.org/2000/svg"
xmlns:xlink="http://www.w3.org/1999/xlink">
<circle cx="523.583" cy="625.157" r="31.4961" style=""/>
<circle cx="523.583" cy="825.157" r="31.4961" style=""/>
<circle cx="523.583" cy="1025.16" r="31.4961" style=""/>
<circle cx="523.583" cy="1225.16" r="31.4961" style=""/>
<circle cx="523.583" cy="1425.16" r="31.4961" style=""/>
<circle cx="523.583" cy="1625.16" r="31.4961" style=""/>
<circle cx="523.583" cy="1825.16" r="31.4961" style=""/>
<circle cx="523.583" cy="2025.16" r="31.4961" style=""/>
<circle cx="523.583" cy="2225.16" r="31.4961" style=""/>
<circle cx="523.583" cy="2425.16" r="31.4961" style=""/>
<circle cx="523.583" cy="2625.16" r="31.4961" style=""/>
<circle cx="523.583" cy="2825.16" r="31.4961" style=""/>
<circle cx="523.583" cy="3025.16" r="31.4961" style=""/>
<circle cx="523.583" cy="3225.16" r="31.4961" style=""/>
<circle cx="523.583" cy="3425.16" r="31.4961" style=""/>
<circle cx="523.583" cy="3625.16" r="31.4961" style=""/>
<circle cx="523.583" cy="3825.16" r="31.4961" style=""/>
<circle cx="523.583" cy="4025.16" r="31.4961" style=""/>
<circle cx="523.583" cy="4225.16" r="31.4961" style=""/>
<circle cx="523.583" cy="4425.16" r="31.4961" style=""/>
<circle cx="1023.58" cy="4407.05" r="31.4961" style=""/>
<circle cx="1223.58" cy="4407.05" r="31.4961" style=""/>
<circle cx="1423.58" cy="4407.05" r="31.4961" style=""/>
<circle cx="1923.58" cy="4425.16" r="31.4961" style=""/>
<circle cx="1923.58" cy="4225.16" r="31.4961" style=""/>
<circle cx="1923.58" cy="4025.16" r="31.4961" style=""/>
<circle cx="1923.58" cy="3825.16" r="31.4961" style=""/>
<circle cx="1923.58" cy="3625.16" r="31.4961" style=""/>
<circle cx="1923.58" cy="3425.16" r="31.4961" style=""/>
<circle cx="1923.58" cy="3225.16" r="31.4961" style=""/>
<circle cx="1923.58" cy="3025.16" r="31.4961" style=""/>
<circle cx="1923.58" cy="2825.16" r="31.4961" style=""/>
<circle cx="1923.58" cy="2625.16" r="31.4961" style=""/>
<circle cx="1923.58" cy="2425.16" r="31.4961" style=""/>
<circle cx="1923.58" cy="2225.16" r="31.4961" style=""/>
<circle cx="1923.58" cy="2025.16" r="31.4961" style=""/>
<circle cx="1923.58" cy="1825.16" r="31.4961" style=""/>
<circle cx="1923.58" cy="1625.16" r="31.4961" style=""/>
<circle cx="1923.58" cy="1425.16" r="31.4961" style=""/>
<circle cx="1923.58" cy="1225.16" r="31.4961" style=""/>
<circle cx="1414.53" cy="873.976" r="31.4961" style=""/>
<circle cx="1009.02" cy="635.394" r="31.4961" style=""/>
<circle cx="1032.64" cy="873.976" r="31.4961" style=""/>
<circle cx="1438.15" cy="635.394" r="31.4961" style=""/>
<circle cx="1923.58" cy="1025.16" r="31.4961" style=""/>
<circle cx="1923.58" cy="825.157" r="31.4961" style=""/>
<circle cx="1923.58" cy="625.157" r="31.4961" style=""/>
<circle cx="2325.94" cy="628.307" r="31.4961" style=""/>
<circle cx="2325.94" cy="1228.31" r="31.4961" style=""/>
<circle cx="2549.57" cy="1866.89" r="31.4961" style=""/>
<circle cx="2297.6" cy="2011.77" r="31.4961" style=""/>
<circle cx="2297.6" cy="2611.77" r="31.4961" style=""/>
<circle cx="2549.57" cy="2866.89" r="31.4961" style=""/>
<circle cx="2525.16" cy="3222.01" r="31.4961" style=""/>
<circle cx="2367.68" cy="3222.01" r="31.4961" style=""/>
<circle cx="2536.18" cy="3699.96" r="31.4961" style=""/>
<circle cx="2378.7" cy="3699.96" r="31.4961" style=""/>
<circle cx="2405.47" cy="4281.06" r="31.4961" style=""/>
<circle cx="2805.47" cy="4281.06" r="31.4961" style=""/>
<circle cx="3374.76" cy="4280.28" r="31.4961" style=""/>
<circle cx="3370.04" cy="3783.43" r="31.4961" style=""/>
<circle cx="3424.37" cy="3448.78" r="31.4961" style=""/>
<circle cx="2970.04" cy="3411.77" r="31.4961" style=""/>
<circle cx="2970.04" cy="3211.77" r="31.4961" style=""/>
<circle cx="2970.04" cy="3011.77" r="31.4961" style=""/>
<circle cx="3424.37" cy="2248.78" r="31.4961" style=""/>
<circle cx="2795.24" cy="1522.01" r="31.4961" style=""/>
<circle cx="3073.19" cy="1518.07" r="31.4961" style=""/>
<circle cx="3073.19" cy="1318.07" r="31.4961" style=""/>
<circle cx="3073.19" cy="1118.07" r="31.4961" style=""/>
<circle cx="2795.24" cy="722.008" r="31.4961" style=""/>
<circle cx="3073.98" cy="471.614" r="31.4961" style=""/>
<circle cx="3673.98" cy="471.614" r="31.4961" style=""/>
<circle cx="3442.48" cy="1351.93" r="31.4961" style=""/>
<circle cx="3815.71" cy="1750.35" r="31.4961" style=""/>
<circle cx="3815.71" cy="2350.35" r="31.4961" style=""/>
<circle cx="4187.36" cy="2316.5" r="31.4961" style=""/>
<circle cx="4387.36" cy="2316.5" r="31.4961" style=""/>
<circle cx="4587.36" cy="2316.5" r="31.4961" style=""/>
<circle cx="4370.04" cy="2897.6" r="31.4961" style=""/>
<circle cx="4370.04" cy="3291.3" r="31.4961" style=""/>
<circle cx="4319.65" cy="3773.98" r="31.4961" style=""/>
<circle cx="4069.25" cy="3775.55" r="31.4961" style=""/>
<circle cx="3822.8" cy="3775.55" r="31.4961" style=""/>
<circle cx="3822.8" cy="4169.25" r="31.4961" style=""/>
<circle cx="4069.25" cy="4169.25" r="31.4961" style=""/>
<circle cx="4319.65" cy="4373.98" r="31.4961" style=""/>
<circle cx="4622.8" cy="4389.72" r="31.4961" style=""/>
<circle cx="4947.99" cy="4376.34" r="31.4961" style=""/>
<circle cx="5259.8" cy="4381.06" r="31.4961" style=""/>
<circle cx="4622.8" cy="3789.72" r="31.4961" style=""/>
<circle cx="4947.99" cy="3776.34" r="31.4961" style=""/>
<circle cx="5259.8" cy="3781.06" r="31.4961" style=""/>
<circle cx="5299.17" cy="3485" r="31.4961" style=""/>
<circle cx="6601.54" cy="2733.03" r="31.4961" style=""/>
<circle cx="7201.54" cy="2733.03" r="31.4961" style=""/>
<circle cx="7378.7" cy="2404.69" r="31.4961" style=""/>
<circle cx="7190.51" cy="2146.42" r="31.4961" style=""/>
<circle cx="7378.7" cy="1804.69" r="31.4961" style=""/>
<circle cx="7579.49" cy="1581.85" r="31.4961" style=""/>
<circle cx="7440.12" cy="1365.31" r="31.4961" style=""/>
<circle cx="7192.87" cy="1365.31" r="31.4961" style=""/>
<circle cx="7185.79" cy="1581.85" r="31.4961" style=""/>
<circle cx="6940.91" cy="1796.81" r="31.4961" style=""/>
<circle cx="6734.61" cy="1878.7" r="31.4961" style=""/>
<circle cx="6590.51" cy="2146.42" r="31.4961" style=""/>
<circle cx="6250.35" cy="2163.74" r="31.4961" style=""/>
<circle cx="5856.65" cy="2163.74" r="31.4961" style=""/>
<circle cx="5934.61" cy="1878.7" r="31.4961" style=""/>
<circle cx="5747.2" cy="1883.43" r="31.4961" style=""/>
<circle cx="5299.17" cy="2285" r="31.4961" style=""/>
<circle cx="5101.54" cy="2028.31" r="31.4961" style=""/>
<circle cx="5353.5" cy="1883.43" r="31.4961" style=""/>
<circle cx="5368.46" cy="1651.14" r="31.4961" style=""/>
<circle cx="5101.54" cy="1428.31" r="31.4961" style=""/>
<circle cx="4801.54" cy="1722.8" r="31.4961" style=""/>
<circle cx="4801.54" cy="1522.8" r="31.4961" style=""/>
<circle cx="4450.35" cy="1717.28" r="31.4961" style=""/>
<circle cx="4242.48" cy="1351.93" r="31.4961" style=""/>
<circle cx="4450.35" cy="1117.28" r="31.4961" style=""/>
<circle cx="4110.2" cy="660.591" r="31.4961" style=""/>
<circle cx="4310.2" cy="660.591" r="31.4961" style=""/>
<circle cx="4510.2" cy="660.591" r="31.4961" style=""/>
<circle cx="4801.54" cy="1322.8" r="31.4961" style=""/>
<circle cx="5212.56" cy="626.732" r="31.4961" style=""/>
<circle cx="5368.46" cy="851.142" r="31.4961" style=""/>
<circle cx="5778.7" cy="1367.68" r="31.4961" style=""/>
<circle cx="6037.76" cy="1347.2" r="31.4961" style=""/>
<circle cx="6237.76" cy="1347.2" r="31.4961" style=""/>
<circle cx="6437.76" cy="1347.2" r="31.4961" style=""/>
<circle cx="6637.76" cy="1347.2" r="31.4961" style=""/>
<circle cx="6940.91" cy="1403.11" r="31.4961" style=""/>
<circle cx="6924.37" cy="1207.83" r="31.4961" style=""/>
<circle cx="7440.12" cy="765.315" r="31.4961" style=""/>
<circle cx="7385.79" cy="375.551" r="31.4961" style=""/>
<circle cx="7192.87" cy="765.315" r="31.4961" style=""/>
<circle cx="6924.37" cy="607.835" r="31.4961" style=""/>
<circle cx="6785.79" cy="375.551" r="31.4961" style=""/>
<circle cx="6607.83" cy="481.063" r="31.4961" style=""/>
<circle cx="6637.76" cy="747.205" r="31.4961" style=""/>
<circle cx="6437.76" cy="747.205" r="31.4961" style=""/>
<circle cx="6237.76" cy="747.205" r="31.4961" style=""/>
<circle cx="6037.76" cy="747.205" r="31.4961" style=""/>
<circle cx="5778.7" cy="973.976" r="31.4961" style=""/>
<circle cx="5812.56" cy="626.732" r="31.4961" style=""/>
<circle cx="6007.83" cy="481.063" r="31.4961" style=""/>
</svg>
