<?xml version="1.0" standalone="no"?>
<!DOCTYPE svg PUBLIC "-//W3C//DTD SVG 1.1//EN"
"http://www.w3.org/Graphics/SVG/1.1/DTD/svg11.dtd">
<svg width="385.508" height="241.886" viewBox="0 0 8031.42 5039.29" version="1.1"
xmlns="http://www.w3.org/2000/svg"
xmlns:xlink="http://www.w3.org/1999/xlink">
<circle cx="2400.75" cy="1303.11" r="31.4961" style=""/>
<circle cx="2400.75" cy="703.11" r="31.4961" style=""/>
<circle cx="2870.04" cy="796.811" r="31.4961" style=""/>
<circle cx="3148.78" cy="546.417" r="31.4961" style=""/>
<circle cx="3748.78" cy="546.417" r="31.4961" style=""/>
<circle cx="4185" cy="735.394" r="31.4961" style=""/>
<circle cx="4385" cy="735.394" r="31.4961" style=""/>
<circle cx="4585" cy="735.394" r="31.4961" style=""/>
<circle cx="5287.36" cy="701.535" r="31.4961" style=""/>
<circle cx="5443.27" cy="925.945" r="31.4961" style=""/>
<circle cx="5887.36" cy="701.535" r="31.4961" style=""/>
<circle cx="6082.64" cy="555.866" r="31.4961" style=""/>
<circle cx="6682.64" cy="555.866" r="31.4961" style=""/>
<circle cx="6860.59" cy="450.354" r="31.4961" style=""/>
<circle cx="7460.59" cy="450.354" r="31.4961" style=""/>
<circle cx="7514.92" cy="840.118" r="31.4961" style=""/>
<circle cx="7267.68" cy="840.118" r="31.4961" style=""/>
<circle cx="6999.17" cy="682.638" r="31.4961" style=""/>
<circle cx="6712.56" cy="822.008" r="31.4961" style=""/>
<circle cx="6512.56" cy="822.008" r="31.4961" style=""/>
<circle cx="6312.56" cy="822.008" r="31.4961" style=""/>
<circle cx="6112.56" cy="822.008" r="31.4961" style=""/>
<circle cx="5853.5" cy="1048.78" r="31.4961" style=""/>
<circle cx="5853.5" cy="1442.48" r="31.4961" style=""/>
<circle cx="6112.56" cy="1422.01" r="31.4961" style=""/>
<circle cx="6312.56" cy="1422.01" r="31.4961" style=""/>
<circle cx="6512.56" cy="1422.01" r="31.4961" style=""/>
<circle cx="6712.56" cy="1422.01" r="31.4961" style=""/>
<circle cx="6999.17" cy="1282.64" r="31.4961" style=""/>
<circle cx="7015.71" cy="1477.91" r="31.4961" style=""/>
<circle cx="7267.68" cy="1440.12" r="31.4961" style=""/>
<circle cx="7514.92" cy="1440.12" r="31.4961" style=""/>
<circle cx="7654.29" cy="1656.65" r="31.4961" style=""/>
<circle cx="7453.5" cy="1879.49" r="31.4961" style=""/>
<circle cx="7260.59" cy="1656.65" r="31.4961" style=""/>
<circle cx="7015.71" cy="1871.61" r="31.4961" style=""/>
<circle cx="7265.31" cy="2221.22" r="31.4961" style=""/>
<circle cx="7453.5" cy="2479.49" r="31.4961" style=""/>
<circle cx="7276.34" cy="2807.83" r="31.4961" style=""/>
<circle cx="6676.34" cy="2807.83" r="31.4961" style=""/>
<circle cx="6665.31" cy="2221.22" r="31.4961" style=""/>
<circle cx="6809.41" cy="1953.5" r="31.4961" style=""/>
<circle cx="6325.16" cy="2238.54" r="31.4961" style=""/>
<circle cx="5931.46" cy="2238.54" r="31.4961" style=""/>
<circle cx="6009.41" cy="1953.5" r="31.4961" style=""/>
<circle cx="5822.01" cy="1958.23" r="31.4961" style=""/>
<circle cx="5428.31" cy="1958.23" r="31.4961" style=""/>
<circle cx="5176.34" cy="2103.11" r="31.4961" style=""/>
<circle cx="5443.27" cy="1725.94" r="31.4961" style=""/>
<circle cx="5176.34" cy="1503.11" r="31.4961" style=""/>
<circle cx="4876.34" cy="1797.6" r="31.4961" style=""/>
<circle cx="4876.34" cy="1597.6" r="31.4961" style=""/>
<circle cx="4876.34" cy="1397.6" r="31.4961" style=""/>
<circle cx="4525.16" cy="1192.09" r="31.4961" style=""/>
<circle cx="4317.28" cy="1426.73" r="31.4961" style=""/>
<circle cx="4525.16" cy="1792.09" r="31.4961" style=""/>
<circle cx="3890.51" cy="2425.16" r="31.4961" style=""/>
<circle cx="3890.51" cy="1825.16" r="31.4961" style=""/>
<circle cx="3517.28" cy="1426.73" r="31.4961" style=""/>
<circle cx="3147.99" cy="1192.87" r="31.4961" style=""/>
<circle cx="3147.99" cy="1392.87" r="31.4961" style=""/>
<circle cx="3147.99" cy="1592.87" r="31.4961" style=""/>
<circle cx="2870.04" cy="1596.81" r="31.4961" style=""/>
<circle cx="2372.4" cy="2086.57" r="31.4961" style=""/>
<circle cx="2372.4" cy="2686.57" r="31.4961" style=""/>
<circle cx="2442.48" cy="3296.81" r="31.4961" style=""/>
<circle cx="2599.96" cy="3296.81" r="31.4961" style=""/>
<circle cx="2453.5" cy="3774.76" r="31.4961" style=""/>
<circle cx="2610.98" cy="3774.76" r="31.4961" style=""/>
<circle cx="3897.6" cy="3850.35" r="31.4961" style=""/>
<circle cx="4144.06" cy="3850.35" r="31.4961" style=""/>
<circle cx="4394.45" cy="3848.78" r="31.4961" style=""/>
<circle cx="3897.6" cy="4244.06" r="31.4961" style=""/>
<circle cx="4144.06" cy="4244.06" r="31.4961" style=""/>
<circle cx="4394.45" cy="4448.78" r="31.4961" style=""/>
<circle cx="598.386" cy="699.961" r="40.1575" style=""/>
<circle cx="598.386" cy="899.961" r="40.1575" style=""/>
<circle cx="598.386" cy="1099.96" r="40.1575" style=""/>
<circle cx="598.386" cy="1299.96" r="40.1575" style=""/>
<circle cx="598.386" cy="1499.96" r="40.1575" style=""/>
<circle cx="598.386" cy="1699.96" r="40.1575" style=""/>
<circle cx="598.386" cy="1899.96" r="40.1575" style=""/>
<circle cx="598.386" cy="2099.96" r="40.1575" style=""/>
<circle cx="598.386" cy="2299.96" r="40.1575" style=""/>
<circle cx="598.386" cy="2499.96" r="40.1575" style=""/>
<circle cx="598.386" cy="2699.96" r="40.1575" style=""/>
<circle cx="598.386" cy="2899.96" r="40.1575" style=""/>
<circle cx="598.386" cy="3099.96" r="40.1575" style=""/>
<circle cx="598.386" cy="3299.96" r="40.1575" style=""/>
<circle cx="598.386" cy="3499.96" r="40.1575" style=""/>
<circle cx="598.386" cy="3699.96" r="40.1575" style=""/>
<circle cx="598.386" cy="3899.96" r="40.1575" style=""/>
<circle cx="598.386" cy="4099.96" r="40.1575" style=""/>
<circle cx="598.386" cy="4299.96" r="40.1575" style=""/>
<circle cx="598.386" cy="4499.96" r="40.1575" style=""/>
<circle cx="1098.39" cy="4481.85" r="40.1575" style=""/>
<circle cx="1298.39" cy="4481.85" r="40.1575" style=""/>
<circle cx="1498.39" cy="4481.85" r="40.1575" style=""/>
<circle cx="1998.39" cy="4499.96" r="40.1575" style=""/>
<circle cx="1998.39" cy="4299.96" r="40.1575" style=""/>
<circle cx="1998.39" cy="4099.96" r="40.1575" style=""/>
<circle cx="1998.39" cy="3899.96" r="40.1575" style=""/>
<circle cx="1998.39" cy="3699.96" r="40.1575" style=""/>
<circle cx="1998.39" cy="3499.96" r="40.1575" style=""/>
<circle cx="1998.39" cy="3299.96" r="40.1575" style=""/>
<circle cx="1998.39" cy="3099.96" r="40.1575" style=""/>
<circle cx="1998.39" cy="2899.96" r="40.1575" style=""/>
<circle cx="1998.39" cy="2699.96" r="40.1575" style=""/>
<circle cx="1998.39" cy="2499.96" r="40.1575" style=""/>
<circle cx="1998.39" cy="2299.96" r="40.1575" style=""/>
<circle cx="1998.39" cy="2099.96" r="40.1575" style=""/>
<circle cx="1998.39" cy="1899.96" r="40.1575" style=""/>
<circle cx="1998.39" cy="1699.96" r="40.1575" style=""/>
<circle cx="1998.39" cy="1499.96" r="40.1575" style=""/>
<circle cx="1998.39" cy="1299.96" r="40.1575" style=""/>
<circle cx="1998.39" cy="1099.96" r="40.1575" style=""/>
<circle cx="1998.39" cy="899.961" r="40.1575" style=""/>
<circle cx="1998.39" cy="699.961" r="40.1575" style=""/>
<circle cx="2624.37" cy="1941.69" r="43.3071" style=""/>
<circle cx="2624.37" cy="2941.69" r="43.3071" style=""/>
<circle cx="3044.84" cy="3086.57" r="43.3071" style=""/>
<circle cx="3044.84" cy="3286.57" r="43.3071" style=""/>
<circle cx="3044.84" cy="3486.57" r="43.3071" style=""/>
<circle cx="4262.17" cy="2391.3" r="43.3071" style=""/>
<circle cx="4462.17" cy="2391.3" r="43.3071" style=""/>
<circle cx="4662.17" cy="2391.3" r="43.3071" style=""/>
<circle cx="5022.8" cy="3851.14" r="43.3071" style=""/>
<circle cx="5334.61" cy="3855.87" r="43.3071" style=""/>
<circle cx="5334.61" cy="4455.87" r="43.3071" style=""/>
<circle cx="5022.8" cy="4451.14" r="43.3071" style=""/>
<circle cx="4697.6" cy="4464.53" r="43.3071" style=""/>
<circle cx="4697.6" cy="3864.53" r="43.3071" style=""/>
<circle cx="4444.84" cy="2972.4" r="47.2441" style=""/>
<circle cx="4444.84" cy="3366.1" r="47.2441" style=""/>
<circle cx="3499.17" cy="2323.58" r="55.1181" style=""/>
<circle cx="3499.17" cy="3523.58" r="55.1181" style=""/>
<circle cx="5373.98" cy="2359.8" r="55.1181" style=""/>
<circle cx="5373.98" cy="3559.8" r="55.1181" style=""/>
<circle cx="1107.44" cy="948.78" r="59.0551" style=""/>
<circle cx="1489.33" cy="948.78" r="59.0551" style=""/>
<circle cx="2480.28" cy="4355.87" r="59.8425" style=""/>
<circle cx="2880.28" cy="4355.87" r="59.8425" style=""/>
<circle cx="1083.82" cy="710.197" r="70.8661" style=""/>
<circle cx="1512.95" cy="710.197" r="70.8661" style=""/>
<circle cx="3444.84" cy="3858.23" r="86.6142" style=""/>
<circle cx="3449.57" cy="4355.08" r="86.6142" style=""/>
</svg>
