<?xml version="1.0" standalone="no"?>
<!DOCTYPE svg PUBLIC "-//W3C//DTD SVG 1.1//EN"
"http://www.w3.org/Graphics/SVG/1.1/DTD/svg11.dtd">
<svg width="382.11" height="242.268" viewBox="0 0 7960.63 5047.24" version="1.1"
xmlns="http://www.w3.org/2000/svg"
xmlns:xlink="http://www.w3.org/1999/xlink">
<polyline points="43.3072,4964.57 43.3172,4965.37 43.3412,4966.17 43.3812,4966.97 43.4392,4967.77 43.5132,4968.57 43.6032,4969.37 43.7092,4970.17 43.8312,4970.96 43.9692,4971.75 44.1252,4972.54 44.2952,4973.33 44.4812,4974.11 44.6852,4974.88 44.9032,4975.66 45.1372,4976.43 45.3872,4977.19 45.6512,4977.95 45.9332,4978.7 46.2292,4979.45 46.5392,4980.19 46.8652,4980.92 47.2072,4981.65 47.5632,4982.37 47.9332,4983.08 48.3172,4983.78 48.7172,4984.48 49.1312,4985.17 49.5572,4985.85 49.9992,4986.52 50.4532,4987.18 50.9212,4987.84 51.4032,4988.48 51.8972,4989.11 52.4052,4989.73 52.9252,4990.35 53.4572,4990.95 54.0012,4991.54 54.5572,4992.12 55.1252,4992.69 55.7032,4993.24 56.2952,4993.79 56.8972,4994.32 57.5092,4994.84 58.1312,4995.35 58.7652,4995.84 59.4072,4996.32 60.0592,4996.79 60.7212,4997.24 61.3932,4997.69 62.0732,4998.11 62.7612,4998.53 63.4592,4998.93 64.1632,4999.31 64.8752,4999.68 65.5952,5000.04 66.3232,5000.38 67.0572,5000.7 67.7972,5001.01 68.5452,5001.31 69.2972,5001.59 70.0552,5001.86 70.8172,5002.11 71.5872,5002.34 72.3592,5002.56 73.1372,5002.76 73.9172,5002.95 74.7032,5003.12 75.4912,5003.27 76.2812,5003.41 77.0752,5003.53 77.8712,5003.64 78.6692,5003.73 79.4692,5003.8 80.2712,5003.86 81.0732,5003.9 81.8752,5003.93 82.6772,5003.94 7877.95,5003.94 7878.75,5003.93 7879.56,5003.9 7880.36,5003.86 7881.16,5003.8 7881.96,5003.73 7882.76,5003.64 7883.55,5003.53 7884.35,5003.41 7885.14,5003.27 7885.93,5003.12 7886.71,5002.95 7887.49,5002.76 7888.27,5002.56 7889.04,5002.34 7889.81,5002.11 7890.57,5001.86 7891.33,5001.59 7892.08,5001.31 7892.83,5001.01 7893.57,5000.7 7894.31,5000.38 7895.03,5000.04 7895.75,4999.68 7896.47,4999.31 7897.17,4998.93 7897.87,4998.53 7898.56,4998.11 7899.24,4997.69 7899.91,4997.24 7900.57,4996.79 7901.22,4996.32 7901.86,4995.84 7902.5,4995.35 7903.12,4994.84 7903.73,4994.32 7904.33,4993.79 7904.93,4993.24 7905.5,4992.69 7906.07,4992.12 7906.63,4991.54 7907.17,4990.95 7907.7,4990.35 7908.22,4989.73 7908.73,4989.11 7909.23,4988.48 7909.71,4987.84 7910.18,4987.18 7910.63,4986.52 7911.07,4985.85 7911.5,4985.17 7911.91,4984.48 7912.31,4983.78 7912.7,4983.08 7913.07,4982.37 7913.42,4981.65 7913.76,4980.92 7914.09,4980.19 7914.4,4979.45 7914.7,4978.7 7914.98,4977.95 7915.24,4977.19 7915.49,4976.43 7915.73,4975.66 7915.94,4974.88 7916.15,4974.11 7916.33,4973.33 7916.5,4972.54 7916.66,4971.75 7916.8,4970.96 7916.92,4970.17 7917.03,4969.37 7917.12,4968.57 7917.19,4967.77 7917.25,4966.97 7917.29,4966.17 7917.31,4965.37 7917.32,4964.57 7917.32,82.6772 7917.31,81.8752 7917.29,81.0732 7917.25,80.2712 7917.19,79.4692 7917.12,78.6692 7917.03,77.8712 7916.92,77.0752 7916.8,76.2812 7916.66,75.4912 7916.5,74.7032 7916.33,73.9172 7916.15,73.1372 7915.94,72.3592 7915.73,71.5872 7915.49,70.8172 7915.24,70.0552 7914.98,69.2972 7914.7,68.5452 7914.4,67.7972 7914.09,67.0572 7913.76,66.3232 7913.42,65.5952 7913.07,64.8752 7912.7,64.1632 7912.31,63.4592 7911.91,62.7612 7911.5,62.0732 7911.07,61.3932 7910.63,60.7212 7910.18,60.0592 7909.71,59.4072 7909.23,58.7652 7908.73,58.1312 7908.22,57.5092 7907.7,56.8972 7907.17,56.2952 7906.63,55.7032 7906.07,55.1252 7905.5,54.5572 7904.93,54.0012 7904.33,53.4572 7903.73,52.9252 7903.12,52.4052 7902.5,51.8972 7901.86,51.4032 7901.22,50.9212 7900.57,50.4532 7899.91,49.9992 7899.24,49.5572 7898.56,49.1312 7897.87,48.7172 7897.17,48.3172 7896.47,47.9332 7895.75,47.5632 7895.03,47.2072 7894.31,46.8652 7893.57,46.5392 7892.83,46.2292 7892.08,45.9332 7891.33,45.6512 7890.57,45.3872 7889.81,45.1372 7889.04,44.9032 7888.27,44.6852 7887.49,44.4812 7886.71,44.2952 7885.93,44.1252 7885.14,43.9692 7884.35,43.8312 7883.55,43.7092 7882.76,43.6032 7881.96,43.5132 7881.16,43.4392 7880.36,43.3812 7879.56,43.3412 7878.75,43.3172 7877.95,43.3072 82.6772,43.3072 81.8752,43.3172 81.0732,43.3412 80.2712,43.3812 79.4692,43.4392 78.6692,43.5132 77.8712,43.6032 77.0752,43.7092 76.2812,43.8312 75.4912,43.9692 74.7032,44.1252 73.9172,44.2952 73.1372,44.4812 72.3592,44.6852 71.5872,44.9032 70.8172,45.1372 70.0552,45.3872 69.2972,45.6512 68.5452,45.9332 67.7972,46.2292 67.0572,46.5392 66.3232,46.8652 65.5952,47.2072 64.8752,47.5632 64.1632,47.9332 63.4592,48.3172 62.7612,48.7172 62.0732,49.1312 61.3932,49.5572 60.7212,49.9992 60.0592,50.4532 59.4072,50.9212 58.7652,51.4032 58.1312,51.8972 57.5092,52.4052 56.8972,52.9252 56.2952,53.4572 55.7032,54.0012 55.1252,54.5572 54.5572,55.1252 54.0012,55.7032 53.4572,56.2952 52.9252,56.8972 52.4052,57.5092 51.8972,58.1312 51.4032,58.7652 50.9212,59.4072 50.4532,60.0592 49.9992,60.7212 49.5572,61.3932 49.1312,62.0732 48.7172,62.7612 48.3172,63.4592 47.9332,64.1632 47.5632,64.8752 47.2072,65.5952 46.8652,66.3232 46.5392,67.0572 46.2292,67.7972 45.9332,68.5452 45.6512,69.2972 45.3872,70.0552 45.1372,70.8172 44.9032,71.5872 44.6852,72.3592 44.4812,73.1372 44.2952,73.9172 44.1252,74.7032 43.9692,75.4912 43.8312,76.2812 43.7092,77.0752 43.6032,77.8712 43.5132,78.6692 43.4392,79.4692 43.3812,80.2712 43.3412,81.0732 43.3172,81.8752 43.3072,82.6772 43.3072,4964.57" style="stroke:rgb(103,198,105);stroke-width:78.740157;fill:none;stroke-opacity:0.5;stroke-linecap:round;stroke-linejoin:round;;fill:none"/>
<polyline points="43.3072,4964.57 43.3172,4965.37 43.3412,4966.17 43.3812,4966.97 43.4392,4967.77 43.5132,4968.57 43.6032,4969.37 43.7092,4970.17 43.8312,4970.96 43.9692,4971.75 44.1252,4972.54 44.2952,4973.33 44.4812,4974.11 44.6852,4974.88 44.9032,4975.66 45.1372,4976.43 45.3872,4977.19 45.6512,4977.95 45.9332,4978.7 46.2292,4979.45 46.5392,4980.19 46.8652,4980.92 47.2072,4981.65 47.5632,4982.37 47.9332,4983.08 48.3172,4983.78 48.7172,4984.48 49.1312,4985.17 49.5572,4985.85 49.9992,4986.52 50.4532,4987.18 50.9212,4987.84 51.4032,4988.48 51.8972,4989.11 52.4052,4989.73 52.9252,4990.35 53.4572,4990.95 54.0012,4991.54 54.5572,4992.12 55.1252,4992.69 55.7032,4993.24 56.2952,4993.79 56.8972,4994.32 57.5092,4994.84 58.1312,4995.35 58.7652,4995.84 59.4072,4996.32 60.0592,4996.79 60.7212,4997.24 61.3932,4997.69 62.0732,4998.11 62.7612,4998.53 63.4592,4998.93 64.1632,4999.31 64.8752,4999.68 65.5952,5000.04 66.3232,5000.38 67.0572,5000.7 67.7972,5001.01 68.5452,5001.31 69.2972,5001.59 70.0552,5001.86 70.8172,5002.11 71.5872,5002.34 72.3592,5002.56 73.1372,5002.76 73.9172,5002.95 74.7032,5003.12 75.4912,5003.27 76.2812,5003.41 77.0752,5003.53 77.8712,5003.64 78.6692,5003.73 79.4692,5003.8 80.2712,5003.86 81.0732,5003.9 81.8752,5003.93 82.6772,5003.94 7877.95,5003.94 7878.75,5003.93 7879.56,5003.9 7880.36,5003.86 7881.16,5003.8 7881.96,5003.73 7882.76,5003.64 7883.55,5003.53 7884.35,5003.41 7885.14,5003.27 7885.93,5003.12 7886.71,5002.95 7887.49,5002.76 7888.27,5002.56 7889.04,5002.34 7889.81,5002.11 7890.57,5001.86 7891.33,5001.59 7892.08,5001.31 7892.83,5001.01 7893.57,5000.7 7894.31,5000.38 7895.03,5000.04 7895.75,4999.68 7896.47,4999.31 7897.17,4998.93 7897.87,4998.53 7898.56,4998.11 7899.24,4997.69 7899.91,4997.24 7900.57,4996.79 7901.22,4996.32 7901.86,4995.84 7902.5,4995.35 7903.12,4994.84 7903.73,4994.32 7904.33,4993.79 7904.93,4993.24 7905.5,4992.69 7906.07,4992.12 7906.63,4991.54 7907.17,4990.95 7907.7,4990.35 7908.22,4989.73 7908.73,4989.11 7909.23,4988.48 7909.71,4987.84 7910.18,4987.18 7910.63,4986.52 7911.07,4985.85 7911.5,4985.17 7911.91,4984.48 7912.31,4983.78 7912.7,4983.08 7913.07,4982.37 7913.42,4981.65 7913.76,4980.92 7914.09,4980.19 7914.4,4979.45 7914.7,4978.7 7914.98,4977.95 7915.24,4977.19 7915.49,4976.43 7915.73,4975.66 7915.94,4974.88 7916.15,4974.11 7916.33,4973.33 7916.5,4972.54 7916.66,4971.75 7916.8,4970.96 7916.92,4970.17 7917.03,4969.37 7917.12,4968.57 7917.19,4967.77 7917.25,4966.97 7917.29,4966.17 7917.31,4965.37 7917.32,4964.57 7917.32,82.6772 7917.31,81.8752 7917.29,81.0732 7917.25,80.2712 7917.19,79.4692 7917.12,78.6692 7917.03,77.8712 7916.92,77.0752 7916.8,76.2812 7916.66,75.4912 7916.5,74.7032 7916.33,73.9172 7916.15,73.1372 7915.94,72.3592 7915.73,71.5872 7915.49,70.8172 7915.24,70.0552 7914.98,69.2972 7914.7,68.5452 7914.4,67.7972 7914.09,67.0572 7913.76,66.3232 7913.42,65.5952 7913.07,64.8752 7912.7,64.1632 7912.31,63.4592 7911.91,62.7612 7911.5,62.0732 7911.07,61.3932 7910.63,60.7212 7910.18,60.0592 7909.71,59.4072 7909.23,58.7652 7908.73,58.1312 7908.22,57.5092 7907.7,56.8972 7907.17,56.2952 7906.63,55.7032 7906.07,55.1252 7905.5,54.5572 7904.93,54.0012 7904.33,53.4572 7903.73,52.9252 7903.12,52.4052 7902.5,51.8972 7901.86,51.4032 7901.22,50.9212 7900.57,50.4532 7899.91,49.9992 7899.24,49.5572 7898.56,49.1312 7897.87,48.7172 7897.17,48.3172 7896.47,47.9332 7895.75,47.5632 7895.03,47.2072 7894.31,46.8652 7893.57,46.5392 7892.83,46.2292 7892.08,45.9332 7891.33,45.6512 7890.57,45.3872 7889.81,45.1372 7889.04,44.9032 7888.27,44.6852 7887.49,44.4812 7886.71,44.2952 7885.93,44.1252 7885.14,43.9692 7884.35,43.8312 7883.55,43.7092 7882.76,43.6032 7881.96,43.5132 7881.16,43.4392 7880.36,43.3812 7879.56,43.3412 7878.75,43.3172 7877.95,43.3072 82.6772,43.3072 81.8752,43.3172 81.0732,43.3412 80.2712,43.3812 79.4692,43.4392 78.6692,43.5132 77.8712,43.6032 77.0752,43.7092 76.2812,43.8312 75.4912,43.9692 74.7032,44.1252 73.9172,44.2952 73.1372,44.4812 72.3592,44.6852 71.5872,44.9032 70.8172,45.1372 70.0552,45.3872 69.2972,45.6512 68.5452,45.9332 67.7972,46.2292 67.0572,46.5392 66.3232,46.8652 65.5952,47.2072 64.8752,47.5632 64.1632,47.9332 63.4592,48.3172 62.7612,48.7172 62.0732,49.1312 61.3932,49.5572 60.7212,49.9992 60.0592,50.4532 59.4072,50.9212 58.7652,51.4032 58.1312,51.8972 57.5092,52.4052 56.8972,52.9252 56.2952,53.4572 55.7032,54.0012 55.1252,54.5572 54.5572,55.1252 54.0012,55.7032 53.4572,56.2952 52.9252,56.8972 52.4052,57.5092 51.8972,58.1312 51.4032,58.7652 50.9212,59.4072 50.4532,60.0592 49.9992,60.7212 49.5572,61.3932 49.1312,62.0732 48.7172,62.7612 48.3172,63.4592 47.9332,64.1632 47.5632,64.8752 47.2072,65.5952 46.8652,66.3232 46.5392,67.0572 46.2292,67.7972 45.9332,68.5452 45.6512,69.2972 45.3872,70.0552 45.1372,70.8172 44.9032,71.5872 44.6852,72.3592 44.4812,73.1372 44.2952,73.9172 44.1252,74.7032 43.9692,75.4912 43.8312,76.2812 43.7092,77.0752 43.6032,77.8712 43.5132,78.6692 43.4392,79.4692 43.3812,80.2712 43.3412,81.0732 43.3172,81.8752 43.3072,82.6772 43.3072,4964.57" style="stroke:rgb(0,0,0);stroke-width:1px;fill:none;stroke-opacity:1;stroke-linecap:round;stroke-linejoin:round;;fill:none"/>
</svg>
